<svg width="30" height="36" viewBox="0 0 30 36" fill="none" xmlns="http://www.w3.org/2000/svg">
<path d="M4.71047 0.378925C4.63942 0.380465 4.56857 0.387166 4.49849 0.398977H1.80006C1.60571 0.396228 1.41275 0.432134 1.23239 0.504608C1.05204 0.577081 0.887889 0.684677 0.74948 0.821142C0.611071 0.957607 0.501164 1.12022 0.426148 1.29953C0.351131 1.47884 0.3125 1.67127 0.3125 1.86564C0.3125 2.06001 0.351131 2.25245 0.426148 2.43176C0.501164 2.61107 0.611071 2.77368 0.74948 2.91015C0.887889 3.04661 1.05204 3.15421 1.23239 3.22668C1.41275 3.29915 1.60571 3.33506 1.80006 3.33231H3.26672V6.26564C3.26672 13.0297 7.83125 16.6106 9.81516 17.999C7.83125 19.3874 3.26672 22.9683 3.26672 29.7323V32.6656H1.80006C1.60571 32.6629 1.41275 32.6988 1.23239 32.7713C1.05204 32.8438 0.887889 32.9513 0.74948 33.0878C0.611071 33.2243 0.501164 33.3869 0.426148 33.5662C0.351131 33.7455 0.3125 33.9379 0.3125 34.1323C0.3125 34.3267 0.351131 34.5191 0.426148 34.6984C0.501164 34.8777 0.611071 35.0403 0.74948 35.1768C0.887889 35.3133 1.05204 35.4209 1.23239 35.4933C1.41275 35.5658 1.60571 35.6017 1.80006 35.599H4.48704C4.64542 35.6252 4.80703 35.6252 4.96542 35.599H25.0204C25.1788 35.6252 25.3404 35.6252 25.4988 35.599H28.2001C28.3944 35.6017 28.5874 35.5658 28.7677 35.4933C28.9481 35.4209 29.1122 35.3133 29.2506 35.1768C29.389 35.0403 29.4989 34.8777 29.574 34.6984C29.649 34.5191 29.6876 34.3267 29.6876 34.1323C29.6876 33.9379 29.649 33.7455 29.574 33.5662C29.4989 33.3869 29.389 33.2243 29.2506 33.0878C29.1122 32.9513 28.9481 32.8438 28.7677 32.7713C28.5874 32.6988 28.3944 32.6629 28.2001 32.6656H26.7334V29.7323C26.7334 22.9683 22.1689 19.3874 20.185 17.999C22.1689 16.6106 26.7334 13.0297 26.7334 6.26564V3.33231H28.2001C28.3944 3.33506 28.5874 3.29915 28.7677 3.22668C28.9481 3.15421 29.1122 3.04661 29.2506 2.91015C29.389 2.77368 29.4989 2.61107 29.574 2.43176C29.649 2.25245 29.6876 2.06001 29.6876 1.86564C29.6876 1.67127 29.649 1.47884 29.574 1.29953C29.4989 1.12022 29.389 0.957607 29.2506 0.821142C29.1122 0.684677 28.9481 0.577081 28.7677 0.504608C28.5874 0.432134 28.3944 0.396228 28.2001 0.398977H25.493C25.4107 0.385212 25.3273 0.378504 25.2438 0.378925C25.1728 0.380465 25.1019 0.387166 25.0318 0.398977H4.95969C4.87734 0.385212 4.79396 0.378504 4.71047 0.378925ZM6.33183 7.73231H23.6683C22.7767 13.2449 17.18 16.7414 17.18 16.7414C16.9629 16.8718 16.7833 17.0561 16.6585 17.2765C16.5338 17.4968 16.4682 17.7458 16.4682 17.999C16.4682 18.2522 16.5338 18.5011 16.6585 18.7215C16.7833 18.9419 16.9629 19.1262 17.18 19.2565C17.18 19.2565 22.7767 22.7531 23.6683 28.2656H6.33183C7.22336 22.7531 12.8201 19.2565 12.8201 19.2565C13.0372 19.1262 13.2169 18.9419 13.3416 18.7215C13.4663 18.5011 13.5319 18.2522 13.5319 17.999C13.5319 17.7458 13.4663 17.4968 13.3416 17.2765C13.2169 17.0561 13.0372 16.8718 12.8201 16.7414C12.8201 16.7414 7.22336 13.2449 6.33183 7.73231Z" fill="white"/>
</svg>
