<?xml version="1.0" encoding="utf-8"?>
<svg version="1.1" xmlns="http://www.w3.org/2000/svg" xmlns:xlink="http://www.w3.org/1999/xlink" height="253" width="253">
  <defs>
    <path id="path-1" opacity="1" fill-rule="evenodd" d="M252.9999841630355,126.5 C253.0034305441536,133.40576441447598 252.44437981517112,140.3003365022623 251.32837714614334,147.11532967032966 C251.2380200100951,147.67832417582417 251.1407123251201,148.24131868131866 251.0399293656817,148.80431318681318 C243.79745738397003,189.5241071428571 217.06912148601234,223.50881868131867 180.83938520513735,240.76703296703295 C180.66562148196766,240.85043956043955 180.4883824843346,240.93384615384616 180.31114348670155,241.01725274725274 C178.89670678010043,241.68451939560438 177.46605212600355,242.3262867948718 176.01917952441082,242.94255494505492 C175.6299487845108,243.10589285714283 175.24419331907413,243.26923076923077 174.85148730471067,243.42909340659338 C167.017691422988,246.67327791921358 158.87520250175095,249.1149768402083 150.54889298220144,250.7167445054945 C150.18051388908177,250.78972527472527 149.81213479596207,250.85575549450544 149.4437557028424,250.9217857142857 C141.90545828296433,252.30283154868923 134.25758580813604,252.99840996459503 126.59382610603146,253 L126.24282338522873,253 C125.56166959040365,253 124.88051579557859,252.99304945054945 124.20283727521688,252.97567307692307 C124.07425212007134,252.97567307692307 123.94566696492578,252.97567307692307 123.81708180978022,252.96872252747252 C116.17583499673086,252.8143348568638 108.56416234816751,251.96988577995708 101.07488572133457,250.44567307692304 C100.70998190267831,250.36921703296696 100.34507808402198,250.2927609890109 99.9801742653657,250.21282967032963 C93.24552261325411,248.779324848539 86.64087110124153,246.79165238521546 80.23366476436507,244.27010989010986 C79.84095875000163,244.12067307692308 79.45520328456497,243.96428571428572 79.06597254466493,243.80442307692306 C77.62025836789331,243.2240521978022 76.1896037137964,242.6147206959707 74.77400858237421,241.97642857142856 C74.59676958474115,241.89649725274722 74.4195305871081,241.81656593406592 74.24576686393844,241.7366346153846 C36.95954714619186,224.80162087912083 9.341540985605429,190.30256868131866 1.960058025358087,148.80431318681312 C1.8592750659196846,148.24131868131863 1.761967380944672,147.67832417582412 1.67161024489644,147.1153296703296 C-0.5525296326042749,133.4924542814907 -0.5572240236949652,119.5994028016883 1.6577091470428698,105.97502747252747 C1.7828190277250326,105.19309065934065 1.9183547317973662,104.40767857142858 2.06431625925988,103.62921703296703 C3.0588497246039346,98.16496701621148 4.417229827920225,92.77324250752093 6.13038738143001,87.49004120879124 C6.304151104599675,86.95137362637364 6.481390102232729,86.41270604395608 6.662104374329184,85.87403846153849 C23.586691011054512,35.941291208791206 70.84694843873982,0 126.49999369551989,0 C188.55449451387037,0 240.17274611865082,44.68508241758242 250.93567113177983,103.62921703296703 C251.0816326592424,104.40767857142858 251.21716836331467,105.19309065934065 251.3422782439969,105.97502747252747 C252.4484702501248,112.76066163369161 253.00285392529472,119.62479209969163 252.9999841630355,126.5Z"/>
    <path id="path-2" opacity="1" fill-rule="evenodd" d="M107.15790110762634,50.17094431669905 L106.4791756885903,50.17094431669905 C106.34094153706046,50.17094431669905 105.99908276805652,49.62838325017502 105.99908276805652,49.472697589501166 L105.99908276805652,48.84209969734391 C105.99908276805652,48.350008696009354 105.44241955211633,47 104.95031827817338,47 C104.45821700423043,47 103.90155378829024,48.350008696009354 103.90155378829024,48.84209969734391 L103.90155378829024,49.472697589501166 C103.90155378829024,49.694574301937685 103.730255588276,50.17094431669905 103.52082431140963,50.17094431669905 L102.84209889237358,50.17094431669905 C102.34999062666733,50.17094431669905 101,50.55281361786327 101,51.0449151068473 C101,51.53701659583133 102.34999062666738,51.918885896995555 102.84209889237361,51.918885896995555 L103.65156329271848,51.918885896995555 C103.90789182169082,51.918885896995555 103.90155378829029,52.1825523967338 103.90155378829029,52.316790814217406 L103.90155378829029,53.15790030265609 C103.90155378829029,53.650012279289605 104.45821700423048,55 104.95031827817343,55 C105.44241955211638,55 105.99908276805655,53.650012279289605 105.99908276805655,53.15790030265609 L105.99908276805655,52.316790814217406 C105.99908276805655,52.20534905082402 106.22413713994058,51.918885896995555 106.34844020316315,51.918885896995555 L107.15790110762639,51.918885896995555 C107.64999189392447,51.918885896995555 109,51.537037571130305 109,51.0449151068473 C109,50.5527926425643 107.64999189392442,50.17094431669905 107.15790110762634,50.17094431669905Z"/>
    <path id="path-3" opacity="1" fill-rule="evenodd" d="M13.467097842115955,85.36003756466144 L12.533853844489713,85.36003756466144 C12.343782479571985,85.36003756466144 11.87372736312351,84.61400854897069 11.87372736312351,84.399950844411 L11.87372736312351,83.53288396436187 C11.87372736312351,82.85625959708297 11.108314968902313,81 10.431665130692336,81 C9.755015292482359,81 8.989646562714386,82.85625959708295 8.989646562714386,83.53288396436187 L8.989646562714386,84.399950844411 C8.989646562714386,84.70503074043667 8.75411686327799,85.36003756466144 8.466146155510287,85.36003756466144 L7.532902157884045,85.36003756466144 C6.856248680969642,85.36003756466144 5,85.885102614773 5,86.56175973039186 C5,87.23841684601071 6.856230487447466,87.76345278648678 7.532902157884045,87.76345278648678 L8.645909070760895,87.76345278648678 C8.998361259838557,87.76345278648678 8.989646562714386,88.12599510296542 8.989646562714386,88.31057566288925 L8.989646562714386,89.46709784211595 C8.989646562714386,90.14375131903036 9.755058956935585,92 10.431665130692336,92 C11.108271304449088,92 11.87372736312351,90.14376587384811 11.87372736312351,89.46709784211595 L11.87372736312351,88.31057566288925 C11.87372736312351,88.15733890297693 12.18317734317679,87.76345278648678 12.354090929239105,87.76345278648678 L13.467097842115955,87.76345278648678 C14.143725848099308,87.76345278648678 16,87.23840956860181 16,86.56175973039186 C16,85.8851098921819 14.143725848099308,85.36003756466144 13.467097842115955,85.36003756466144Z"/>
    <linearGradient id="linearGradient-4" x1="0.499999338417376" y1="0.9999986768347502" x2="0.499999338417376" y2="0">
      <stop offset="1" stop-color="rgb(128,128,128)" stop-opacity="0.1"/>
      <stop offset="0.53514" stop-color="rgb(128,128,128)" stop-opacity="0.12"/>
      <stop offset="0" stop-color="rgb(128,128,128)" stop-opacity="0.25"/>
    </linearGradient>
    <path id="path-5" opacity="1" fill-rule="evenodd" d="M108.46710203141913,49.36003756466143 L107.53385957733538,49.36003756466143 C107.3437885267869,49.36003756466143 106.87373418778792,48.61400854897067 106.87373418778792,48.39995084441098 L106.87373418778792,47.532883964361865 C106.87373418778792,46.856259597082946 106.10832305952347,45 105.43167434046109,45 C104.7550256213987,45 103.9896399640232,46.856259597082946 103.9896399640232,47.532883964361865 L103.9896399640232,48.39995084441098 C103.9896399640232,48.705030740436655 103.75411065414205,49.36003756466143 103.46614042266458,49.36003756466143 L102.53289796858084,49.36003756466143 C101.85624561082004,49.36003756466143 100,49.88510261477301 100,50.56175973039184 C100,51.23841684601068 101.85622741732796,51.763452786486766 102.53289796858084,51.763452786486766 L103.64590304059564,51.763452786486766 C103.99835464673366,51.763452786486766 103.9896399640232,52.125995102965405 103.9896399640232,52.31057566288924 L103.9896399640232,53.46709784211595 C103.9896399640232,54.14375131903036 104.75505109228764,56 105.43167434046109,56 C106.10829758863453,56 106.87373418778792,54.1437658738481 106.87373418778792,53.46709784211595 L106.87373418778792,52.31057566288924 C106.87373418778792,52.15733890297692 107.18318365602524,51.763452786486766 107.35409695940436,51.763452786486766 L108.46710203141916,51.763452786486766 C109.14372891829102,51.763452786486766 111,51.23840956860181 111,50.56175973039184 C111,49.88510989218187 109.14372891829102,49.36003756466143 108.46710203141913,49.36003756466143Z"/>
    <linearGradient id="linearGradient-6" x1="0.5000001653953803" y1="0.9999986768347511" x2="0.5000001653953803" y2="9.401654562043546e-16">
      <stop offset="1" stop-color="rgb(128,128,128)" stop-opacity="0.1"/>
      <stop offset="0.53514" stop-color="rgb(128,128,128)" stop-opacity="0.12"/>
      <stop offset="0" stop-color="rgb(128,128,128)" stop-opacity="0.25"/>
    </linearGradient>
    <path id="path-7" opacity="1" fill-rule="evenodd" d="M205.46710203141913,65.36003756466144 L204.5338595773354,65.36003756466144 C204.34378852678688,65.36003756466144 203.87373418778793,64.61400854897069 203.87373418778793,64.399950844411 L203.87373418778793,63.53288396436187 C203.87373418778793,62.85625959708297 203.10832305952349,61 202.4316743404611,61 C201.7550256213987,61 200.98963996402318,62.856259597082946 200.98963996402318,63.53288396436187 L200.98963996402318,64.399950844411 C200.98963996402318,64.70503074043667 200.75411065414204,65.36003756466144 200.46614042266458,65.36003756466144 L199.53289796858084,65.36003756466144 C198.85624561082003,65.36003756466144 197,65.885102614773 197,66.56175973039186 C197,67.23841684601071 198.85622741732794,67.76345278648678 199.53289796858084,67.76345278648678 L200.64590304059564,67.76345278648678 C200.99835464673367,67.76345278648678 200.98963996402318,68.12599510296542 200.98963996402318,68.31057566288925 L200.98963996402318,69.46709784211595 C200.98963996402318,70.14375131903036 201.75505109228763,72 202.4316743404611,72 C203.10829758863454,72 203.87373418778793,70.14376587384811 203.87373418778793,69.46709784211595 L203.87373418778793,68.31057566288925 C203.87373418778793,68.15733890297693 204.18318365602525,67.76345278648678 204.35409695940436,67.76345278648678 L205.46710203141916,67.76345278648678 C206.14372891829103,67.76345278648678 208,67.23840956860181 208,66.56175973039186 C208,65.8851098921819 206.14372891829103,65.36003756466144 205.46710203141913,65.36003756466144Z"/>
    <linearGradient id="linearGradient-8" x1="0.5000001653953803" y1="0.9999986768347502" x2="0.5000001653953803" y2="0">
      <stop offset="1" stop-color="rgb(128,128,128)" stop-opacity="0.1"/>
      <stop offset="0.53514" stop-color="rgb(128,128,128)" stop-opacity="0.12"/>
      <stop offset="0" stop-color="rgb(128,128,128)" stop-opacity="0.25"/>
    </linearGradient>
    <path id="path-9" opacity="1" fill-rule="evenodd" d="M165.84868847344552,59.978379923931 L165.42448480027977,59.978379923931 C165.33808963840883,59.978379923931 165.08554149539054,59.642741116542425 165.08554149539054,59.54543671785701 L165.08554149539054,59.151313105409784 C165.08554149539054,58.84375619251886 164.70742895540707,58 164.39986560752598,58 C164.0923022596449,58 163.71418971966142,58.84375619251886 163.71418971966142,59.151313105409784 L163.71418971966142,59.54543671785701 C163.71418971966142,59.684111427969995 163.70641072671359,59.978379923931 163.57551519972023,59.978379923931 L163.15131152655448,59.978379923931 C162.84374475029398,59.978379923931 162,60.185073775398315 162,60.492637545057526 C162,60.80020131471674 162.84374475029398,61.00689516618405 163.15131152655448,61.00689516618405 L163.65722719527704,61.00689516618405 C163.8174319380972,61.00689516618405 163.71418971966142,61.239099624043384 163.71418971966142,61.32299218396983 L163.71418971966142,61.848686894590216 C163.71418971966142,62.15625752101771 164.0923022596449,63 164.39986560752598,63 C164.70742895540707,63 165.08554149539054,62.15627466293841 165.08554149539054,61.848686894590216 L165.08554149539054,61.3229990407381 C165.08554149539054,61.25334456014858 165.26508572662786,61.00690202295232 165.34277280472296,61.00690202295232 L165.84868847344552,61.00690202295232 C166.15624496456775,61.00690202295232 167,60.80021845663742 167,60.49264440182579 C167,60.18507034701416 166.15624496456775,59.978379923931 165.84868847344552,59.978379923931Z"/>
    <path id="path-10" opacity="1" fill-rule="evenodd" d="M47.15789905393824,79.16539920995503 L46.47917768218027,79.16539920995503 C46.34094187215986,79.16539920995503 45.936864859680746,78.62837053117929 45.936864859680746,78.4726935603889 L45.936864859680746,77.84209784662058 C45.936864859680746,77.35000691951865 45.331886751896754,76 44.839774806095406,76 C44.34766286029405,76 43.7427015781156,77.35000691951865 43.7427015781156,77.84209784662058 L43.7427015781156,78.4726935603889 C43.7427015781156,78.69456571712925 43.730250630013764,79.16539920995503 43.52082568294081,79.16539920995503 L42.84210094606174,79.16539920995503 C42.34998900026037,79.16539920995503 41,79.49610593046916 41,79.98821704826375 C41,80.48032816605834 42.34998900026037,80.81101806099524 42.84210094606174,80.81101806099524 L43.65156063801014,80.81101806099524 C43.907892008215946,80.81101806099524 43.742701578115614,81.18252680629932 43.742701578115614,81.31679491261846 L43.742701578115614,82.15790215337942 C43.742701578115614,82.65001327117405 44.34768305102071,84 44.83977480609542,84 C45.33186656117013,84 45.93686485968077,82.65001327117405 45.93686485968077,82.15790215337942 L45.93686485968077,81.3167747219258 C45.93686485968077,81.20533219368092 46.224138518480196,80.81099787030257 46.34843936198986,80.81099787030257 L47.15789905393826,80.81099787030257 C47.64999080901297,80.81099787030257 49,80.48030797536568 49,79.98819685757108 C49,79.49608573977649 47.64999080901295,79.16539920995503 47.15789905393824,79.16539920995503Z"/>
    <linearGradient id="linearGradient-11" x1="0.5000002103200676" y1="0.9999983174422762" x2="0.5000002103200676" y2="0">
      <stop offset="1" stop-color="rgb(128,128,128)" stop-opacity="0.1"/>
      <stop offset="0.53514" stop-color="rgb(128,128,128)" stop-opacity="0.12"/>
      <stop offset="0" stop-color="rgb(128,128,128)" stop-opacity="0.25"/>
    </linearGradient>
    <path id="path-12" opacity="1" fill-rule="evenodd" d="M167.15789905393825,59.16539920995503 L166.4791776821803,59.16539920995503 C166.34094187215987,59.16539920995503 165.93686485968075,58.62837053117927 165.93686485968075,58.47269356038889 L165.93686485968075,57.84209784662056 C165.93686485968075,57.350006919518634 165.33188675189677,56 164.83977480609542,56 C164.34766286029404,56 163.7427015781156,57.35000691951864 163.7427015781156,57.84209784662056 L163.7427015781156,58.47269356038889 C163.7427015781156,58.694565717129244 163.73025063001376,59.16539920995503 163.5208256829408,59.16539920995503 L162.84210094606175,59.16539920995503 C162.34998900026036,59.16539920995503 161,59.49610593046915 161,59.98821704826375 C161,60.48032816605834 162.34998900026036,60.81101806099524 162.84210094606175,60.81101806099524 L163.65156063801012,60.81101806099524 C163.90789200821592,60.81101806099524 163.7427015781156,61.18252680629932 163.7427015781156,61.31679491261846 L163.7427015781156,62.157902153379425 C163.7427015781156,62.650013271174046 164.3476830510207,64 164.83977480609542,64 C165.3318665611701,64 165.93686485968075,62.650013271174046 165.93686485968075,62.157902153379425 L165.93686485968075,61.316774721925796 C165.93686485968075,61.20533219368092 166.2241385184802,60.81099787030257 166.34843936198988,60.81099787030257 L167.15789905393825,60.81099787030257 C167.64999080901296,60.81099787030257 169,60.480307975365676 169,59.98819685757108 C169,59.49608573977648 167.64999080901296,59.16539920995503 167.15789905393825,59.16539920995503Z"/>
    <linearGradient id="linearGradient-13" x1="0.5000002103200688" y1="0.9999983174422762" x2="0.5000002103200688" y2="-1.1955291677860888e-15">
      <stop offset="1" stop-color="rgb(128,128,128)" stop-opacity="0.1"/>
      <stop offset="0.53514" stop-color="rgb(128,128,128)" stop-opacity="0.12"/>
      <stop offset="0" stop-color="rgb(128,128,128)" stop-opacity="0.25"/>
    </linearGradient>
    <path id="path-14" opacity="1" fill-rule="evenodd" d="M45.848688473445485,79.978379923931 L45.42448480027976,79.978379923931 C45.33808963840882,79.978379923931 45.08554149539055,79.64274111654242 45.08554149539055,79.54543671785702 L45.08554149539055,79.15131310540978 C45.08554149539055,78.84375619251885 44.707428955407075,78 44.39986560752598,78 C44.092302259644896,78 43.71418971966142,78.84375619251885 43.71418971966142,79.15131310540978 L43.71418971966142,79.54543671785702 C43.71418971966142,79.68411142797 43.70641072671359,79.978379923931 43.57551519972024,79.978379923931 L43.151311526554515,79.978379923931 C42.84374475029399,79.978379923931 42,80.18507377539831 42,80.49263754505752 C42,80.80020131471673 42.84374475029398,81.00689516618405 43.151311526554515,81.00689516618405 L43.65722719527706,81.00689516618405 C43.81743193809718,81.00689516618405 43.71418971966142,81.23909962404338 43.71418971966142,81.32299218396983 L43.71418971966142,81.84868689459022 C43.71418971966142,82.15625752101771 44.092302259644896,83 44.39986560752598,83 C44.707428955407075,83 45.08554149539055,82.15627466293842 45.08554149539055,81.84868689459022 L45.08554149539055,81.3229990407381 C45.08554149539055,81.25334456014858 45.265085726627895,81.00690202295232 45.34277280472294,81.00690202295232 L45.848688473445485,81.00690202295232 C46.15624496456769,81.00690202295232 47,80.80021845663742 47,80.49264440182579 C47,80.18507034701416 46.15624496456769,79.978379923931 45.848688473445485,79.978379923931Z"/>
    <ellipse id="ellipse-15" opacity="1" rx="2.5" ry="2.5" cx="144.5" cy="52.5"/>
    <ellipse id="ellipse-16" opacity="1" rx="1" ry="1" cx="138" cy="77"/>
    <ellipse id="ellipse-17" opacity="1" rx="2.5" ry="2.5" cx="39.5" cy="57.5"/>
    <ellipse id="ellipse-18" opacity="1" rx="1.5" ry="1.5" cx="18.5" cy="65.5"/>
    <ellipse id="ellipse-19" opacity="1" rx="1.5" ry="1.5" cx="118.5" cy="90.5"/>
    <ellipse id="ellipse-20" opacity="1" rx="2.5" ry="2.5" cx="28.5" cy="113.5"/>
    <ellipse id="ellipse-21" opacity="1" rx="2.5" ry="2.5" cx="74.5" cy="52.5"/>
    <linearGradient id="linearGradient-22" x1="0.49999999999999883" y1="1.0000000000000024" x2="0.49999999999999883" y2="2.340583828576464e-15">
      <stop offset="1" stop-color="rgb(128,128,128)" stop-opacity="0.1"/>
      <stop offset="0.53514" stop-color="rgb(128,128,128)" stop-opacity="0.12"/>
      <stop offset="0" stop-color="rgb(128,128,128)" stop-opacity="0.25"/>
    </linearGradient>
    <ellipse id="ellipse-23" opacity="1" rx="2.5" ry="2.5" cx="74.5" cy="78.5"/>
    <linearGradient id="linearGradient-24" x1="0.49999999999999883" y1="1.0000000000000024" x2="0.49999999999999883" y2="2.340583828576464e-15">
      <stop offset="1" stop-color="rgb(128,128,128)" stop-opacity="0.1"/>
      <stop offset="0.53514" stop-color="rgb(128,128,128)" stop-opacity="0.12"/>
      <stop offset="0" stop-color="rgb(128,128,128)" stop-opacity="0.25"/>
    </linearGradient>
    <ellipse id="ellipse-25" opacity="1" rx="2.5" ry="2.5" cx="185.5" cy="46.5"/>
    <linearGradient id="linearGradient-26" x1="0.5000000000000012" y1="1.000000000000001" x2="0.5000000000000012" y2="1.170291914288232e-15">
      <stop offset="1" stop-color="rgb(128,128,128)" stop-opacity="0.1"/>
      <stop offset="0.53514" stop-color="rgb(128,128,128)" stop-opacity="0.12"/>
      <stop offset="0" stop-color="rgb(128,128,128)" stop-opacity="0.25"/>
    </linearGradient>
    <ellipse id="ellipse-27" opacity="1" rx="2.5" ry="2.5" cx="233.5" cy="83.5"/>
    <linearGradient id="linearGradient-28" x1="0.5000000000000012" y1="1.0000000000000024" x2="0.5000000000000012" y2="2.340583828576464e-15">
      <stop offset="1" stop-color="rgb(128,128,128)" stop-opacity="0.1"/>
      <stop offset="0.53514" stop-color="rgb(128,128,128)" stop-opacity="0.12"/>
      <stop offset="0" stop-color="rgb(128,128,128)" stop-opacity="0.25"/>
    </linearGradient>
    <ellipse id="ellipse-29" opacity="1" rx="1.5" ry="1.5" cx="73.5" cy="51.5"/>
    <ellipse id="ellipse-30" opacity="1" rx="2.5" ry="2.5" cx="105.5" cy="71.5"/>
    <path id="path-31" opacity="1" fill-rule="evenodd" d="M140.68577617554368,166.3413529769548 L111.17122703848229,167 L103,156.8552747178482 L147,156 L140.68577617554368,166.3413529769548Z"/>
    <path id="path-32" opacity="1" fill-rule="evenodd" d="M147,158 L103,158 L111.78128201318454,152.92281941603125 L137.6368776245924,152 L147,158Z"/>
    <path id="path-33" opacity="1" fill-rule="evenodd" d="M182.9949650392309,180.75793908889983 C182.91163322143757,183.8081748437107 181.91859572606717,186.72322969575157 180.73458948158708,189.5550962999339 C180.56098152785097,189.9710375392263 180.38390141504016,190.3835126015246 180.20682130222937,190.7925214868288 C180.02279687126912,191.20846272612116 179.8387724403089,191.62440396541356 179.65474800934862,192.04034520470597 C178.689487786576,194.21710435700282 177.70339460935503,196.4250591022466 176.1825889346269,198.25866673212724 C176.0957849577589,198.36265204195033 176.00898098089084,198.46663735177344 175.91870484494808,198.56713915371745 C175.5585515896732,198.97120115786555 175.16857825133496,199.3477576341939 174.75205939584157,199.693646676801 C173.4599308606226,200.83101577282233 171.8338245149427,201.52046431768622 170.1167270310881,201.65896903245755 C166.8042872738036,201.8322778821627 163.9327908860543,199.52727018108405 161.4259128670597,197.35397720578132 C158.43638390372433,194.76822072210356 155.44685494038896,192.17899228447004 152.45732597705356,189.5862918928808 C151.42958077957223,188.69895058239035 150.40182169345462,187.8092984872372 149.3740487187007,186.91733560742128 C149.15530269699323,186.73016204973973 148.93655667528577,186.53952231506403 148.71781065357828,186.34888258038836 L148.71781065357828,228.72636251029482 L147.95046349806478,228.72636251029482 L148.40878849592806,235.9048150650827 L149.36710440055126,250.9272261575262 C141.83556464158093,252.30465662775572 134.1945480555525,252.99841412706155 126.53765848425607,253 L125.9057255326567,235.92907830404147 L125.72517326077119,231.0660319813146 L125.63836928390313,228.7263625102949 L124.9231045145105,228.7263625102949 L124.86060565116551,229.9984494671308 L124.57936076611307,235.92907830404147 L123.76340338355347,252.96880440705306 C116.12900651976963,252.81482089946292 108.52415730889186,251.9725824594978 101.04159439857463,250.45235990933418 L101.947827917077,235.92561212704743 L102.3992085967908,228.72636251029496 L101.95130007615172,228.72636251029496 L101.95130007615172,185.66257953555595 C100.62430669975684,187.41040558165213 99.14646029845976,189.03880304203557 97.53471373310568,190.5290920352769 C94.38893761140781,193.47534248026466 90.80566944629503,196.03684727890698 87.28142798545251,198.53249471466134 C85.14257799542395,200.04721406108445 82.70859448404404,201.61045988542503 80.2190564274686,202.2101085054049 C79.83502162818877,202.30342737146947 79.44531902227139,202.37173939744466 79.05241097836208,202.414612948057 C77.95771121742536,202.55190783290945 76.84601934285946,202.4320282244488 75.80594224349728,202.06452907165254 C75.4452277369702,201.9361789309304 75.09664285199845,201.77610614449452 74.76429452108076,201.5861966464663 C74.58027009012052,201.4856775136373 74.40666213638444,201.37822602682007 74.23652634172306,201.2638421860147 C71.63587919475651,199.49262574202794 70.26784851931617,196.09577228780677 69.19495136522717,193.00740858606073 C67.89636387128125,189.26393743242923 66.57694342288701,185.34369125209844 67.12901671576776,181.41997889477355 C67.46581614601578,179.0456476538128 68.45885364138617,176.8654223245219 69.70188659013655,174.79611465904222 C70.54562124529393,173.39231297643042 71.5039371499171,172.04050394873013 72.45183657731614,170.7164243369827 C72.90668941610468,170.0821139470618 73.45529054991071,169.39581090222939 74.18444395560228,169.20170499055956 L74.23652634172309,169.19130645957728 C74.32418070921858,169.16989488615974 74.41372881027442,169.15712434026403 74.50388259047668,169.15317851264209 C74.59074698296325,169.15019188006121 74.67771302986488,169.1525069791455 74.76429452108079,169.16011086663033 C75.4899757676976,169.24676529148292 76.10456528471873,169.82561684949815 76.62886477716079,170.36287428358418 C77.43786395293463,171.19475676216894 78.24571963098657,172.0254838484224 79.05243181131654,172.85505554234445 C79.44131362768536,173.2536658966663 79.8301954440542,173.65227625098822 80.21907726042303,174.05088660531007 C80.28157612376802,174.11674396819805 80.34407498711302,174.182601331086 80.41004600953272,174.248458693974 C80.92392555259154,174.77531759707767 81.43433293657563,175.30217650018136 81.94821247963444,175.82903540328505 C82.951666452229,174.09941308322752 83.96206474297303,172.3593922321877 85.02801757891258,170.657499328083 C87.19464484153893,167.19132233397974 89.5904346030969,163.88458948160525 92.60081735383505,161.13591112528135 C94.0963116837103,159.76271285017447 95.75304202503204,158.57555343455607 97.53475539901459,157.60041059129597 C99.08080163514249,156.74858527122927 100.72953801668203,156.09744884900752 102.4409161715963,155.66281765159218 C104.4131025260382,155.17062051842953 105.88182581464548,154.9453190138128 106.88875194631478,155.29886906721137 C107.6804042153513,155.57616322673962 108.18733944026069,156.2174059706487 108.42691841641647,157.3716429096851 C108.43122710955717,157.3827080077761 108.43357683795588,157.3944364083806 108.4338627345659,157.40630467962615 C108.54654666029145,158.01789659479977 108.60003278595394,158.63889175035456 108.59358205200314,159.26070937147142 C108.59358205200314,159.6454550178169 108.59358205200314,160.03020066416235 108.59010989292844,160.4184124875019 L141.58252375502522,160.4184124875019 C141.55127432335271,159.42015351320018 141.523497050755,158.32484158306355 141.57557943687578,157.40630467962615 C141.58599591409995,157.18448668288852 141.6033567094736,156.97303255536326 141.6241723031265,156.77546046669934 C141.63405606828638,156.3192229063405 141.76333389642474,155.87350483233672 141.99916548319644,155.48257644789882 C142.3361632531795,155.1446028790848 142.8039374765748,154.96996432451394 143.28039218176878,155.00424402271258 C144.80119785649686,154.98344696074798 146.9990745507957,155.992104466032 148.0754438639594,156.39418099734797 C149.58609777887153,156.96075664328234 151.0510126230658,157.64212423401372 152.4573086162582,158.4322930698807 C159.24190744826439,162.22429070142968 164.68625287742802,168.46687546780964 167.1862074112276,175.83943393426728 C167.43490663387732,174.92597163306422 167.872538465665,174.07465020339018 168.47090626887467,173.3403203215188 C168.87300469905497,172.8389755771719 169.33604607339078,172.3895397207503 169.84935342153915,172.00237600179491 C170.6752884224956,171.37522389407425 171.60983043787053,170.9052330021559 172.60624772686816,170.6159052041536 C173.30260060401247,170.406655065936 174.02488364095703,170.29581579329326 174.75204203504614,170.28661838971377 C175.14238616845526,170.27897469348426 175.53267438403134,170.30448525178505 175.9186874841527,170.36287428358406 C176.54402549322336,170.4522064969584 177.15325369064516,170.63080788303046 177.7276823620827,170.89319936368182 C178.66606318717072,171.3293086996515 179.50864345810757,171.9466075705778 180.20680394143398,172.7094761085919 C180.39430053146893,172.9105143742499 180.567908485205,173.1184849938961 180.73457212079165,173.33338796753048 C181.79094378658186,174.74850461766445 182.49545690726433,176.3938924217979 182.79009029302685,178.1340431043635 C182.9513688260953,178.99895139370327 183.02004662809384,179.87852982994107 182.9949650392309,180.75793908889983Z"/>
    <path id="path-34" opacity="1" fill-rule="evenodd" d="M150,131.09715365938158 L145.51923400234585,131.09715365938158 C142.8804085511281,121.64396407062641 134.66956817717607,114 124.94354329302163,114 C115.21751840886722,114 107.00671304574085,121.64396407062644 104.3678875945231,131.09715365938158 L100,131.09715365938158 L100,140.90284634061842 L103.73662840286845,140.90284634061842 C105.34578547032528,151.18489646937172 114.22670503946527,158 124.94354329302163,158 C135.660381546578,158 144.54133612654368,151.18489646937172 146.15049319400052,140.90284634061842 L150,140.90284634061842 L150,131.09715365938158Z"/>
    <ellipse id="ellipse-35" opacity="1" rx="17" ry="17" cx="125" cy="137"/>
    <path id="path-36" opacity="1" fill-rule="evenodd" d="M182.999995914706,101.4327217485849 C183.00182153867505,102.76798232504414 182.39169061943997,104.03272291054898 181.33954341584715,104.87467428598882 L181.33954341584715,241.32873794969464 C181.16252289358076,241.41243284422117 180.98196196086903,241.49612773874773 180.8014010281573,241.57982263327426 C179.3604539769088,242.24939573863566 177.90298501024876,242.89338145485374 176.4289941281772,243.51177978192854 C176.03246815830047,243.67568228370968 175.63948259886908,243.8395847854908 175.239416218547,244 L175.239416218547,104.48758539880356 C173.84537847102916,103.04392170674762 173.60057899930814,100.86147568023245 174.64103510767225,99.15287422239017 C175.68149121603636,97.44427276454788 177.7514880017094,96.62944214825362 179.70087844560913,97.16112462454572 C181.65026888950885,97.69280710083784 182.99994754564145,99.44033004293283 182.999995914706,101.4327217485849Z"/>
    <linearGradient id="linearGradient-37" x1="0.499817832562334" y1="0.9999999051078295" x2="0.499817832562334" y2="0.000002558766414905089">
      <stop offset="1" stop-color="rgb(128,128,128)" stop-opacity="0.1"/>
      <stop offset="0.53514" stop-color="rgb(128,128,128)" stop-opacity="0.12"/>
      <stop offset="0" stop-color="rgb(128,128,128)" stop-opacity="0.25"/>
    </linearGradient>
    <path id="path-38" opacity="1" fill-rule="evenodd" d="M182.99999462786855,100.86630168834651 C183.0013821424598,101.68180671790151 182.7339607489587,102.47654297126756 182.23650559935612,103.1352765151624 C181.99351299845236,103.46131452068255 181.69826914499407,103.74781298839774 181.36189844932306,103.98397702290269 C181.35204617171715,103.9931212634185 181.3412343768771,104.00124804349515 181.3296383495268,104.00822560883813 L181.3296383495268,240.08089762739542 C179.8707649476274,240.74601555510222 178.3951640865744,241.38571634597042 176.9028357663678,242 L176.9028357663678,104.15718120815582 C175.2621574258264,103.18071131805817 174.5750663176157,101.21254932246005 175.26830927637832,99.4751050177455 C175.96155223514094,97.73766071303096 177.83806274084083,96.72483324171348 179.7323550101353,97.06568170855901 C181.62664727942973,97.40653017540455 183.00023537355463,99.00416240087954 182.99999462786855,100.86630168834651Z"/>
    <path id="path-39" opacity="1" fill-rule="evenodd" d="M252.99999999999994,126.95404567734494 C252.99999999999994,134.10750987975882 252.42753293155397,140.06324026130804 251.32051466016165,145.2294733927566 C227.5469876596355,109.86301582389393 203.77348160903048,188.80083637872843 180,147.9211562573718 L180,106.07883409851173 C203.77813249151,146.96650589839524 227.55632084947618,67.98978732401706 251.33445683263972,103.4079239427433 C252.38823439073232,111.21231556802432 252.94456603777303,119.07728895493071 252.99999999999994,126.95404567734494Z"/>
    <path id="path-40" opacity="1" fill-rule="evenodd" d="M80.9999970695581,101.40747428582867 C81.00052809445182,101.8594330527465 80.9288857320162,102.3086904347827 80.7876690485345,102.73894811800068 C80.58124173457716,103.3769157757045 80.22904936564359,103.96035739390942 79.75787814657002,104.44489896547107 L79.75787814657002,244 C79.35799370697558,243.8509026698349 78.9651868680819,243.69487058012723 78.56884122883784,243.5353711106483 C77.0967002830742,242.95631868884433 75.63989413882892,242.34837143561302 74.19842279610204,241.71152935095435 C74.01794397823197,241.63177961621486 73.83746516036192,241.5520298814754 73.66052514284225,241.47228014673593 L73.66052514284225,104.82977812008329 C72.03632187739622,103.53520775637189 71.53798361432982,101.31406978783336 72.45831372514597,99.47141488779818 C73.3786438359621,97.628759987763 75.47444222447092,96.65151544858703 77.51430267600668,97.11387056509344 C79.55416312754245,97.57622568159984 80.99904616898894,99.35600167523219 80.9999970695581,101.40747428582867Z"/>
    <linearGradient id="linearGradient-41" x1="0.5000462180925884" y1="1" x2="0.5000462180925884" y2="0.000002932851363201772">
      <stop offset="1" stop-color="rgb(128,128,128)" stop-opacity="0.1"/>
      <stop offset="0.53514" stop-color="rgb(128,128,128)" stop-opacity="0.12"/>
      <stop offset="0" stop-color="rgb(128,128,128)" stop-opacity="0.25"/>
    </linearGradient>
    <path id="path-42" opacity="1" fill-rule="evenodd" d="M80.9999750572833,100.8964422640675 C81.00403982994162,102.01186823927505 80.51112081293508,103.07414072671364 79.64890395976076,103.80808820580371 C79.47725513324227,103.9598282659557 79.29126797895597,104.09542364826834 79.09342380030189,104.2130653391867 L79.09342380030189,244 C77.60258672717357,243.4169725752159 76.12727920689035,242.80485196556234 74.6675012394522,242.16363817103928 L74.6675012394522,104.06294450526025 C74.65590751732388,104.05591235653361 74.64509787180506,104.04772200311402 74.63524755277398,104.0385062299699 C74.29894372561829,103.8004947556398 74.00375856490106,103.51175509704983 73.76081426949679,103.1831665948076 C72.74452088294315,101.81667959461154 72.74657753593736,99.96821777236697 73.76590931825271,98.6038801841633 C74.78524110056807,97.23954259595966 76.59019397035674,96.66938954035292 78.23740883693908,97.1914116613583 C79.8846237035214,97.71343378236368 80.99975338352107,99.20899597376464 80.9999750572833,100.8964422640675Z"/>
    <path id="path-43" opacity="1" fill-rule="evenodd" d="M75,106.0788393651014 C75,120.02629663760821 75,133.97373505904093 75,147.9211546293996 C50.55911912400614,107.0146573437879 26.118238248012254,186.08310283490368 1.6773608592550981,150.54298321736528 C0.614569979159353,142.72514745337702 0.054268491067659255,134.84555749535144 0,126.95404750422499 C0,119.83342069515334 0.5683986609011039,113.868003021083 1.663411912400618,108.68039008833726 C26.108941274933727,144.27082793531503 50.55447063746687,65.16453420025175 75,106.0788393651014Z"/>
    <path id="path-44" opacity="1" fill-rule="evenodd" d="M127.31109505851724,123.86279594416746 C132.69280261419385,123.85860989509266 137.76313976991463,126.4340969221216 141,130.81610023306334 C138.4655917690668,124.54963668668242 132.60456738239552,120.3418832301054 125.9617641460391,120.01983242717851 C119.3189609096827,119.69778162425162 113.09251587576114,123.31952054844706 109.98593078066813,129.31250219790692 C106.8793456855751,135.30548384736676 107.45294341944576,142.58877700805255 111.45766975293063,148 C109.27819768000954,142.60845690210706 109.8803034873068,136.46426781221268 113.06298502877522,131.61855925628765 C116.24566657024363,126.77285070036264 121.58970703444744,123.8638902724135 127.31109505851724,123.86279594416746Z"/>
    <path id="path-45" opacity="1" fill-rule="evenodd" d="M64.15790110762642,89.17094431669905 L63.479175688590374,89.17094431669905 C63.34094153706051,89.17094431669905 62.99908276805657,88.628383250175 62.99908276805657,88.47269758950117 L62.99908276805657,87.84209969734391 C62.99908276805657,87.35000869600937 62.442419552116405,86 61.950318278173434,86 C61.45821700423046,86 60.90155378829029,87.35000869600937 60.90155378829029,87.84209969734391 L60.90155378829029,88.47269758950117 C60.90155378829029,88.69457430193768 60.730255588276044,89.17094431669905 60.52082431140965,89.17094431669905 L59.8420988923736,89.17094431669905 C59.34999062666736,89.17094431669905 58,89.55281361786325 58,90.0449151068473 C58,90.53701659583135 59.34999062666736,90.91888589699555 59.8420988923736,90.91888589699555 L60.651563292718464,90.91888589699555 C60.9078918216908,90.91888589699555 60.90155378829028,91.18255239673378 60.90155378829028,91.31679081421741 L60.90155378829028,92.15790030265609 C60.90155378829028,92.6500122792896 61.45821700423044,94 61.95031827817341,94 C62.442419552116384,94 62.99908276805655,92.6500122792896 62.99908276805655,92.15790030265609 L62.99908276805655,91.31679081421741 C62.99908276805655,91.20534905082403 63.22413713994058,90.91888589699555 63.34844020316316,90.91888589699555 L64.1579011076264,90.91888589699555 C64.64999189392447,90.91888589699555 66,90.53703757113028 66,90.0449151068473 C66,89.5527926425643 64.64999189392448,89.17094431669905 64.15790110762642,89.17094431669905Z"/>
    <ellipse id="ellipse-46" opacity="1" rx="1.5" ry="1.5" cx="92.5" cy="112.5"/>
    <ellipse id="ellipse-47" opacity="1" rx="2.5" ry="2.5" cx="224.5" cy="88.5"/>
    <ellipse id="ellipse-48" opacity="1" rx="1" ry="1" cx="132" cy="107"/>
    <ellipse id="ellipse-49" opacity="1" rx="1.5" ry="1.5" cx="73.5" cy="78.5"/>
    <path id="path-50" opacity="1" fill-rule="evenodd" d="M204.15790110762634,65.17094431669905 L203.4791756885903,65.17094431669905 C203.34094153706044,65.17094431669905 202.99908276805652,64.628383250175 202.99908276805652,64.47269758950117 L202.99908276805652,63.84209969734391 C202.99908276805652,63.35000869600937 202.44241955211635,62 201.95031827817337,62 C201.45821700423042,62 200.90155378829024,63.35000869600937 200.90155378829024,63.84209969734391 L200.90155378829024,64.47269758950117 C200.90155378829024,64.69457430193768 200.730255588276,65.17094431669905 200.52082431140963,65.17094431669905 L199.84209889237357,65.17094431669905 C199.34999062666733,65.17094431669905 198,65.55281361786325 198,66.0449151068473 C198,66.53701659583135 199.3499906266674,66.91888589699555 199.84209889237363,66.91888589699555 L200.65156329271846,66.91888589699555 C200.90789182169084,66.91888589699555 200.9015537882903,67.18255239673378 200.9015537882903,67.31679081421741 L200.9015537882903,68.15790030265609 C200.9015537882903,68.6500122792896 201.45821700423048,70 201.95031827817343,70 C202.44241955211638,70 202.99908276805655,68.6500122792896 202.99908276805655,68.15790030265609 L202.99908276805655,67.31679081421741 C202.99908276805655,67.20534905082403 203.22413713994058,66.91888589699555 203.34844020316314,66.91888589699555 L204.15790110762637,66.91888589699555 C204.64999189392447,66.91888589699555 206,66.53703757113028 206,66.0449151068473 C206,65.5527926425643 204.6499918939244,65.17094431669905 204.15790110762634,65.17094431669905Z"/>
    <ellipse id="ellipse-51" opacity="1" rx="1.5" ry="1.5" cx="232.5" cy="82.5"/>
    <ellipse id="ellipse-52" opacity="1" rx="1.5" ry="1.5" cx="184.5" cy="46.5"/>
    <ellipse id="ellipse-53" opacity="1" rx="3" ry="3" cx="220" cy="81"/>
    <linearGradient id="linearGradient-54" x1="0.5000000000000009" y1="1.0000005376904906" x2="0.5000000000000009" y2="0">
      <stop offset="1" stop-color="rgb(128,128,128)" stop-opacity="0.1"/>
      <stop offset="0.53514" stop-color="rgb(128,128,128)" stop-opacity="0.12"/>
      <stop offset="0" stop-color="rgb(128,128,128)" stop-opacity="0.25"/>
    </linearGradient>
    <ellipse id="ellipse-55" opacity="1" rx="3" ry="3" cx="173" cy="86"/>
    <linearGradient id="linearGradient-56" x1="0.5000000000000009" y1="1.000000537690489" x2="0.5000000000000009" y2="0">
      <stop offset="1" stop-color="rgb(128,128,128)" stop-opacity="0.1"/>
      <stop offset="0.53514" stop-color="rgb(128,128,128)" stop-opacity="0.12"/>
      <stop offset="0" stop-color="rgb(128,128,128)" stop-opacity="0.25"/>
    </linearGradient>
    <ellipse id="ellipse-57" opacity="1" rx="3" ry="3" cx="144" cy="52"/>
    <linearGradient id="linearGradient-58" x1="0.5000000000000009" y1="1.0000005376904906" x2="0.5000000000000009" y2="0">
      <stop offset="1" stop-color="rgb(128,128,128)" stop-opacity="0.1"/>
      <stop offset="0.53514" stop-color="rgb(128,128,128)" stop-opacity="0.12"/>
      <stop offset="0" stop-color="rgb(128,128,128)" stop-opacity="0.25"/>
    </linearGradient>
    <ellipse id="ellipse-59" opacity="1" rx="3" ry="3" cx="106" cy="70"/>
    <linearGradient id="linearGradient-60" x1="0.5000000000000009" y1="1.0000005376904906" x2="0.5000000000000009" y2="0">
      <stop offset="1" stop-color="rgb(128,128,128)" stop-opacity="0.1"/>
      <stop offset="0.53514" stop-color="rgb(128,128,128)" stop-opacity="0.12"/>
      <stop offset="0" stop-color="rgb(128,128,128)" stop-opacity="0.25"/>
    </linearGradient>
    <ellipse id="ellipse-61" opacity="1" rx="3" ry="3" cx="41" cy="58"/>
    <linearGradient id="linearGradient-62" x1="0.5000000000000001" y1="1.0000005376904906" x2="0.5000000000000001" y2="0">
      <stop offset="1" stop-color="rgb(128,128,128)" stop-opacity="0.1"/>
      <stop offset="0.53514" stop-color="rgb(128,128,128)" stop-opacity="0.12"/>
      <stop offset="0" stop-color="rgb(128,128,128)" stop-opacity="0.25"/>
    </linearGradient>
    <ellipse id="ellipse-63" opacity="1" rx="3" ry="3" cx="30" cy="112"/>
    <linearGradient id="linearGradient-64" x1="0.5000000000000001" y1="1.0000005376904906" x2="0.5000000000000001" y2="0">
      <stop offset="1" stop-color="rgb(128,128,128)" stop-opacity="0.1"/>
      <stop offset="0.53514" stop-color="rgb(128,128,128)" stop-opacity="0.12"/>
      <stop offset="0" stop-color="rgb(128,128,128)" stop-opacity="0.25"/>
    </linearGradient>
    <ellipse id="ellipse-65" opacity="1" rx="1.5" ry="1.5" cx="210.5" cy="46.5"/>
    <linearGradient id="linearGradient-66" x1="0.5000000000000041" y1="0.9999999999999998" x2="0.5000000000000041" y2="0">
      <stop offset="1" stop-color="rgb(128,128,128)" stop-opacity="0.1"/>
      <stop offset="0.53514" stop-color="rgb(128,128,128)" stop-opacity="0.12"/>
      <stop offset="0" stop-color="rgb(128,128,128)" stop-opacity="0.25"/>
    </linearGradient>
    <ellipse id="ellipse-67" opacity="1" rx="1.5" ry="1.5" cx="118.5" cy="90.5"/>
    <linearGradient id="linearGradient-68" x1="0.4999999999999985" y1="0.999999999999997" x2="0.4999999999999985" y2="0">
      <stop offset="1" stop-color="rgb(128,128,128)" stop-opacity="0.1"/>
      <stop offset="0.53514" stop-color="rgb(128,128,128)" stop-opacity="0.12"/>
      <stop offset="0" stop-color="rgb(128,128,128)" stop-opacity="0.25"/>
    </linearGradient>
    <ellipse id="ellipse-69" opacity="1" rx="1.5" ry="1.5" cx="18.5" cy="65.5"/>
    <linearGradient id="linearGradient-70" x1="0.4999999999999999" y1="0.9999999999999998" x2="0.4999999999999999" y2="0">
      <stop offset="1" stop-color="rgb(128,128,128)" stop-opacity="0.1"/>
      <stop offset="0.53514" stop-color="rgb(128,128,128)" stop-opacity="0.12"/>
      <stop offset="0" stop-color="rgb(128,128,128)" stop-opacity="0.25"/>
    </linearGradient>
    <ellipse id="ellipse-71" opacity="1" rx="1.5" ry="1.5" cx="42.5" cy="110.5"/>
    <linearGradient id="linearGradient-72" x1="0.4999999999999999" y1="0.999999999999997" x2="0.4999999999999999" y2="0">
      <stop offset="1" stop-color="rgb(128,128,128)" stop-opacity="0.1"/>
      <stop offset="0.53514" stop-color="rgb(128,128,128)" stop-opacity="0.12"/>
      <stop offset="0" stop-color="rgb(128,128,128)" stop-opacity="0.25"/>
    </linearGradient>
    <ellipse id="ellipse-73" opacity="1" rx="1.5" ry="1.5" cx="81.5" cy="104.5"/>
    <linearGradient id="linearGradient-74" x1="0.5000000000000013" y1="0.999999999999997" x2="0.5000000000000013" y2="0">
      <stop offset="1" stop-color="rgb(128,128,128)" stop-opacity="0.1"/>
      <stop offset="0.53514" stop-color="rgb(128,128,128)" stop-opacity="0.12"/>
      <stop offset="0" stop-color="rgb(128,128,128)" stop-opacity="0.25"/>
    </linearGradient>
    <ellipse id="ellipse-75" opacity="1" rx="1.5" ry="1.5" cx="138.5" cy="76.5"/>
    <linearGradient id="linearGradient-76" x1="0.4999999999999985" y1="0.9999999999999998" x2="0.4999999999999985" y2="0">
      <stop offset="1" stop-color="rgb(128,128,128)" stop-opacity="0.1"/>
      <stop offset="0.53514" stop-color="rgb(128,128,128)" stop-opacity="0.12"/>
      <stop offset="0" stop-color="rgb(128,128,128)" stop-opacity="0.25"/>
    </linearGradient>
    <ellipse id="ellipse-77" opacity="1" rx="1.5" ry="1.5" cx="210.5" cy="46.5"/>
    <ellipse id="ellipse-78" opacity="1" rx="2.5" ry="2.5" cx="220.5" cy="80.5"/>
    <ellipse id="ellipse-79" opacity="1" rx="10" ry="1.5" cx="124" cy="143.5"/>
    <ellipse id="ellipse-80" opacity="1" rx="8" ry="8" cx="77" cy="172"/>
    <ellipse id="ellipse-81" opacity="1" rx="8" ry="8" cx="178" cy="172"/>
    <rect id="rect-82" opacity="1" x="112" y="100" width="2" height="22" rx="0" ry="0"/>
    <rect id="rect-83" opacity="1" x="139" y="101" width="2" height="22" rx="0" ry="0"/>
  </defs>
  <g opacity="1">
    <g opacity="0.1">
      <use xlink:href="#path-1" fill="rgb(0,180,118)" fill-opacity="1"/>
    </g>
    <g opacity="1">
      <use xlink:href="#path-2" fill="rgb(33,150,243)" fill-opacity="1"/>
    </g>
    <g opacity="1">
      <use xlink:href="#path-3" fill="url(#linearGradient-4)" fill-opacity="1"/>
    </g>
    <g opacity="1">
      <use xlink:href="#path-5" fill="url(#linearGradient-6)" fill-opacity="1"/>
    </g>
    <g opacity="1">
      <use xlink:href="#path-7" fill="url(#linearGradient-8)" fill-opacity="1"/>
    </g>
    <g opacity="1">
      <use xlink:href="#path-9" fill="rgb(25,118,210)" fill-opacity="1"/>
    </g>
    <g opacity="1">
      <use xlink:href="#path-10" fill="url(#linearGradient-11)" fill-opacity="1"/>
    </g>
    <g opacity="1">
      <use xlink:href="#path-12" fill="url(#linearGradient-13)" fill-opacity="1"/>
    </g>
    <g opacity="1">
      <use xlink:href="#path-14" fill="rgb(25,118,210)" fill-opacity="1"/>
    </g>
    <g opacity="1">
      <use xlink:href="#ellipse-15" fill="rgb(100,181,246)" fill-opacity="1"/>
    </g>
    <g opacity="1">
      <use xlink:href="#ellipse-16" fill="rgb(0,113,188)" fill-opacity="1"/>
    </g>
    <g opacity="1">
      <use xlink:href="#ellipse-17" fill="rgb(100,181,246)" fill-opacity="1"/>
    </g>
    <g opacity="1">
      <use xlink:href="#ellipse-18" fill="rgb(100,181,246)" fill-opacity="1"/>
    </g>
    <g opacity="1">
      <use xlink:href="#ellipse-19" fill="rgb(130,169,255)" fill-opacity="1"/>
    </g>
    <g opacity="1">
      <use xlink:href="#ellipse-20" fill="rgb(130,169,255)" fill-opacity="1"/>
    </g>
    <g opacity="1">
      <use xlink:href="#ellipse-21" fill="url(#linearGradient-22)" fill-opacity="1"/>
    </g>
    <g opacity="1">
      <use xlink:href="#ellipse-23" fill="url(#linearGradient-24)" fill-opacity="1"/>
    </g>
    <g opacity="1">
      <use xlink:href="#ellipse-25" fill="url(#linearGradient-26)" fill-opacity="1"/>
    </g>
    <g opacity="1">
      <use xlink:href="#ellipse-27" fill="url(#linearGradient-28)" fill-opacity="1"/>
    </g>
    <g opacity="1">
      <use xlink:href="#ellipse-29" fill="rgb(13,71,161)" fill-opacity="1"/>
    </g>
    <g opacity="1">
      <use xlink:href="#ellipse-30" fill="rgb(100,181,246)" fill-opacity="1"/>
    </g>
    <g opacity="1">
      <use xlink:href="#path-31" fill="rgb(224,224,224)" fill-opacity="1"/>
    </g>
    <g opacity="1">
      <use xlink:href="#path-32" fill="rgb(224,224,224)" fill-opacity="1"/>
    </g>
    <g opacity="1">
      <use xlink:href="#path-33" fill="rgb(255,255,255)" fill-opacity="1"/>
    </g>
    <g opacity="1">
      <use xlink:href="#path-34" fill="rgb(255,255,255)" fill-opacity="1"/>
    </g>
    <g opacity="1">
      <use xlink:href="#ellipse-35" fill="rgb(0,180,118)" fill-opacity="1"/>
    </g>
    <g opacity="1">
      <use xlink:href="#path-36" fill="url(#linearGradient-37)" fill-opacity="1"/>
    </g>
    <g opacity="1">
      <use xlink:href="#path-38" fill="rgb(224,224,224)" fill-opacity="1"/>
    </g>
    <g opacity="1">
      <use xlink:href="#path-39" fill="rgb(0,180,118)" fill-opacity="1"/>
    </g>
    <g opacity="1">
      <use xlink:href="#path-40" fill="url(#linearGradient-41)" fill-opacity="1"/>
    </g>
    <g opacity="1">
      <use xlink:href="#path-42" fill="rgb(224,224,224)" fill-opacity="1"/>
    </g>
    <g opacity="1">
      <use xlink:href="#path-43" fill="rgb(0,180,118)" fill-opacity="1"/>
    </g>
    <g opacity="0.2">
      <use xlink:href="#path-44" fill="rgb(0,0,0)" fill-opacity="1"/>
    </g>
    <g opacity="1">
      <use xlink:href="#path-45" fill="rgb(33,150,243)" fill-opacity="1"/>
    </g>
    <g opacity="1">
      <use xlink:href="#ellipse-46" fill="rgb(13,71,161)" fill-opacity="1"/>
    </g>
    <g opacity="1">
      <use xlink:href="#ellipse-47" fill="rgb(100,181,246)" fill-opacity="1"/>
    </g>
    <g opacity="1">
      <use xlink:href="#ellipse-48" fill="rgb(0,113,188)" fill-opacity="1"/>
    </g>
    <g opacity="1">
      <use xlink:href="#ellipse-49" fill="rgb(13,71,161)" fill-opacity="1"/>
    </g>
    <g opacity="1">
      <use xlink:href="#path-50" fill="rgb(33,150,243)" fill-opacity="1"/>
    </g>
    <g opacity="1">
      <use xlink:href="#ellipse-51" fill="rgb(13,71,161)" fill-opacity="1"/>
    </g>
    <g opacity="1">
      <use xlink:href="#ellipse-52" fill="rgb(13,71,161)" fill-opacity="1"/>
    </g>
    <g opacity="1">
      <use xlink:href="#ellipse-53" fill="url(#linearGradient-54)" fill-opacity="1"/>
    </g>
    <g opacity="1">
      <use xlink:href="#ellipse-55" fill="url(#linearGradient-56)" fill-opacity="1"/>
    </g>
    <g opacity="1">
      <use xlink:href="#ellipse-57" fill="url(#linearGradient-58)" fill-opacity="1"/>
    </g>
    <g opacity="1">
      <use xlink:href="#ellipse-59" fill="url(#linearGradient-60)" fill-opacity="1"/>
    </g>
    <g opacity="1">
      <use xlink:href="#ellipse-61" fill="url(#linearGradient-62)" fill-opacity="1"/>
    </g>
    <g opacity="1">
      <use xlink:href="#ellipse-63" fill="url(#linearGradient-64)" fill-opacity="1"/>
    </g>
    <g opacity="1">
      <use xlink:href="#ellipse-65" fill="url(#linearGradient-66)" fill-opacity="1"/>
    </g>
    <g opacity="1">
      <use xlink:href="#ellipse-67" fill="url(#linearGradient-68)" fill-opacity="1"/>
    </g>
    <g opacity="1">
      <use xlink:href="#ellipse-69" fill="url(#linearGradient-70)" fill-opacity="1"/>
    </g>
    <g opacity="1">
      <use xlink:href="#ellipse-71" fill="url(#linearGradient-72)" fill-opacity="1"/>
    </g>
    <g opacity="1">
      <use xlink:href="#ellipse-73" fill="url(#linearGradient-74)" fill-opacity="1"/>
    </g>
    <g opacity="1">
      <use xlink:href="#ellipse-75" fill="url(#linearGradient-76)" fill-opacity="1"/>
    </g>
    <g opacity="1">
      <use xlink:href="#ellipse-77" fill="rgb(130,169,255)" fill-opacity="1"/>
    </g>
    <g opacity="1">
      <use xlink:href="#ellipse-78" fill="rgb(100,181,246)" fill-opacity="1"/>
    </g>
    <g opacity="0.2">
      <use xlink:href="#ellipse-79" fill="rgb(0,0,0)" fill-opacity="1"/>
    </g>
    <g opacity="1">
      <use xlink:href="#ellipse-80" fill="rgb(0,180,118)" fill-opacity="1"/>
    </g>
    <g opacity="1">
      <use xlink:href="#ellipse-81" fill="rgb(0,180,118)" fill-opacity="1"/>
    </g>
    <g opacity="1">
      <use xlink:href="#rect-82" fill="rgb(255,255,255)" fill-opacity="1"/>
    </g>
    <g opacity="1">
      <use xlink:href="#rect-83" fill="rgb(255,255,255)" fill-opacity="1"/>
    </g>
  </g>
</svg>