<?xml version="1.0" encoding="UTF-8"?>
<svg width="750px" height="538px" viewBox="0 0 750 538" version="1.1" xmlns="http://www.w3.org/2000/svg" xmlns:xlink="http://www.w3.org/1999/xlink">
    <!-- Generator: Sketch 53.2 (72643) - https://sketchapp.com -->
    <title>undraw_Outer_space_drqu</title>
    <desc>Created with Sketch.</desc>
    <defs>
        <linearGradient x1="50%" y1="100%" x2="50%" y2="0.0362318841%" id="linearGradient-1">
            <stop stop-color="#808080" stop-opacity="0.25" offset="0%"></stop>
            <stop stop-color="#808080" stop-opacity="0.12" offset="54%"></stop>
            <stop stop-color="#808080" stop-opacity="0.1" offset="100%"></stop>
        </linearGradient>
        <linearGradient x1="50%" y1="99.9565972%" x2="50%" y2="0%" id="linearGradient-2">
            <stop stop-color="#808080" stop-opacity="0.25" offset="0%"></stop>
            <stop stop-color="#808080" stop-opacity="0.12" offset="54%"></stop>
            <stop stop-color="#808080" stop-opacity="0.1" offset="100%"></stop>
        </linearGradient>
        <linearGradient x1="49.9931239%" y1="100.004517%" x2="49.9931239%" y2="-0.00210674363%" id="linearGradient-3">
            <stop stop-color="#808080" stop-opacity="0.25" offset="0%"></stop>
            <stop stop-color="#808080" stop-opacity="0.12" offset="54%"></stop>
            <stop stop-color="#808080" stop-opacity="0.1" offset="100%"></stop>
        </linearGradient>
        <linearGradient x1="50.0210704%" y1="0%" x2="50.0210704%" y2="100%" id="linearGradient-4">
            <stop stop-color="#E0E0E0" offset="0%"></stop>
            <stop stop-color="#FCCC63" offset="31%"></stop>
            <stop stop-color="#F55F44" offset="77%"></stop>
        </linearGradient>
        <linearGradient x1="50%" y1="0%" x2="50%" y2="100%" id="linearGradient-5">
            <stop stop-color="#E0E0E0" offset="0%"></stop>
            <stop stop-color="#FCCC63" offset="31%"></stop>
            <stop stop-color="#F55F44" offset="77%"></stop>
        </linearGradient>
        <linearGradient x1="49.971933%" y1="99.9126132%" x2="49.971933%" y2="-0.086983954%" id="linearGradient-6">
            <stop stop-color="#808080" stop-opacity="0.25" offset="0%"></stop>
            <stop stop-color="#808080" stop-opacity="0.12" offset="54%"></stop>
            <stop stop-color="#808080" stop-opacity="0.1" offset="100%"></stop>
        </linearGradient>
        <linearGradient x1="50.2887832%" y1="99.9990848%" x2="50.2887832%" y2="0.186964431%" id="linearGradient-7">
            <stop stop-color="#808080" stop-opacity="0.25" offset="0%"></stop>
            <stop stop-color="#808080" stop-opacity="0.12" offset="54%"></stop>
            <stop stop-color="#808080" stop-opacity="0.1" offset="100%"></stop>
        </linearGradient>
    </defs>
    <g id="Web---1.6" stroke="none" stroke-width="1" fill="none" fill-rule="evenodd">
        <g id="Prepare-for-Launch-(extended)" transform="translate(-736.000000, -153.000000)">
            <g id="undraw_Outer_space_drqu" transform="translate(736.000000, 153.000000)">
                <path d="M654.743015,468.066911 C648.649697,468.59095 642.519409,468.509074 636.442263,467.822485 C569.634606,460.436854 478.659386,462.537597 404.498394,508.483089 C301.934899,572.014043 141.198796,517.625944 70.294942,488.03718 C16.1194293,465.437679 -12.0055899,410.085088 4.88792058,358.128037 C5.1257643,357.394759 5.37021478,356.661481 5.6278788,355.928203 C16.2581715,325.051247 37.2412725,300.886099 63.2256983,288.076852 C85.8737053,276.912527 118.940588,253.599567 133.653865,208.803539 C139.732093,190.306432 148.069837,172.90594 158.898332,157.738313 C187.895445,117.117346 248.598446,56.6252012 352.998623,57.0017495 C371.303071,57.0904174 389.47038,60.16523 406.784337,66.1049683 C444.925219,79.0991856 479.372917,105.517017 505.641434,142.141288 C522.402809,165.500491 547.521748,187.214773 583.482396,188.98521 C633.389935,191.455895 681.018139,214.689582 716.74755,256.037221 C717.778206,257.226321 718.795649,258.422027 719.813092,259.630945 C783.429678,335.409627 739.243602,460.68128 654.743015,468.066911 Z" id="Path" fill="#00B476" fill-rule="nonzero"></path>
                <g id="Group" opacity="0.7" transform="translate(173.000000, 441.000000)" fill="url(#linearGradient-1)" fill-rule="nonzero">
                    <circle id="Oval" cx="9.4737931" cy="9.37551724" r="9.04137931"></circle>
                </g>
                <circle id="Oval" fill="#000000" fill-rule="nonzero" opacity="0.2" cx="183" cy="452" r="9"></circle>
                <circle id="Oval" fill="#FFFFFF" fill-rule="nonzero" cx="133.5" cy="273.5" r="3.5"></circle>
                <circle id="Oval" fill="#FFFFFF" fill-rule="nonzero" cx="373.5" cy="468.5" r="3.5"></circle>
                <circle id="Oval" fill="#FFFFFF" fill-rule="nonzero" cx="232" cy="486" r="2"></circle>
                <circle id="Oval" fill="#FFFFFF" fill-rule="nonzero" cx="649" cy="394" r="2"></circle>
                <circle id="Oval" fill="#FFFFFF" fill-rule="nonzero" cx="542" cy="226" r="2"></circle>
                <circle id="Oval" fill="#FFFFFF" fill-rule="nonzero" cx="694" cy="308" r="2"></circle>
                <circle id="Oval" fill="#FFFFFF" fill-rule="nonzero" cx="193.5" cy="163.5" r="3.5"></circle>
                <polygon id="Path" fill="#FFFFFF" fill-rule="nonzero" points="100 390.910256 97.0924062 390.910256 97.0924062 388 95.9075938 388 95.9075938 390.910256 93 390.910256 93 392.096154 95.9075938 392.096154 95.9075938 395 97.0924062 395 97.0924062 392.096154 100 392.096154"></polygon>
                <polygon id="Path" fill="#FFFFFF" fill-rule="nonzero" points="175 389.910256 172.092406 389.910256 172.092406 387 170.907594 387 170.907594 389.910256 168 389.910256 168 391.096154 170.907594 391.096154 170.907594 394 172.092406 394 172.092406 391.096154 175 391.096154"></polygon>
                <polygon id="Path" fill="#FFFFFF" fill-rule="nonzero" points="283 449.910256 280.092406 449.910256 280.092406 447 278.907594 447 278.907594 449.910256 276 449.910256 276 451.096154 278.907594 451.096154 278.907594 454 280.092406 454 280.092406 451.096154 283 451.096154"></polygon>
                <polygon id="Path" fill="#FFFFFF" fill-rule="nonzero" points="434 85.6626506 432.337349 85.6626506 432.337349 84 431.662651 84 431.662651 85.6626506 430 85.6626506 430 86.3373494 431.662651 86.3373494 431.662651 88 432.337349 88 432.337349 86.3373494 434 86.3373494"></polygon>
                <polygon id="Path" fill="#FFFFFF" fill-rule="nonzero" points="628 211.662651 626.337349 211.662651 626.337349 210 625.662651 210 625.662651 211.662651 624 211.662651 624 212.337349 625.662651 212.337349 625.662651 214 626.337349 214 626.337349 212.337349 628 212.337349"></polygon>
                <polygon id="Path" fill="#FFFFFF" fill-rule="nonzero" points="514 293.662651 512.337349 293.662651 512.337349 292 511.662651 292 511.662651 293.662651 510 293.662651 510 294.337349 511.662651 294.337349 511.662651 296 512.337349 296 512.337349 294.337349 514 294.337349"></polygon>
                <polygon id="Path" fill="#FFFFFF" fill-rule="nonzero" points="46 344.662651 44.3373494 344.662651 44.3373494 343 43.6626506 343 43.6626506 344.662651 42 344.662651 42 345.337349 43.6626506 345.337349 43.6626506 347 44.3373494 347 44.3373494 345.337349 46 345.337349"></polygon>
                <polygon id="Path" fill="#FFFFFF" fill-rule="nonzero" points="102 456.662651 100.337349 456.662651 100.337349 455 99.6626506 455 99.6626506 456.662651 98 456.662651 98 457.337349 99.6626506 457.337349 99.6626506 459 100.337349 459 100.337349 457.337349 102 457.337349"></polygon>
                <polygon id="Path" fill="#FFFFFF" fill-rule="nonzero" points="278 102.662651 276.337349 102.662651 276.337349 101 275.662651 101 275.662651 102.662651 274 102.662651 274 103.337349 275.662651 103.337349 275.662651 105 276.337349 105 276.337349 103.337349 278 103.337349"></polygon>
                <polygon id="Path" fill="#FFFFFF" fill-rule="nonzero" points="195 299.662651 193.337349 299.662651 193.337349 298 192.662651 298 192.662651 299.662651 191 299.662651 191 300.337349 192.662651 300.337349 192.662651 302 193.337349 302 193.337349 300.337349 195 300.337349"></polygon>
                <polygon id="Path" fill="#FFFFFF" fill-rule="nonzero" points="213 243.662651 211.337349 243.662651 211.337349 242 210.662651 242 210.662651 243.662651 209 243.662651 209 244.337349 210.662651 244.337349 210.662651 246 211.337349 246 211.337349 244.337349 213 244.337349"></polygon>
                <g id="Group" opacity="0.7" transform="translate(486.000000, 359.000000)" fill="url(#linearGradient-2)" fill-rule="nonzero">
                    <circle id="Oval" cx="8.1" cy="7.76666667" r="7.68"></circle>
                </g>
                <circle id="Oval" fill="#000000" fill-rule="nonzero" opacity="0.2" cx="493" cy="366" r="7"></circle>
                <circle id="Oval" fill="#000000" fill-rule="nonzero" opacity="0.2" cx="513" cy="417" r="8"></circle>
                <g id="Group" opacity="0.7" transform="translate(250.000000, 0.000000)" fill="url(#linearGradient-3)" fill-rule="nonzero">
                    <path d="M191.980206,202.68597 C192.034615,186.140666 188.072272,169.829643 180.433814,155.155143 C176.811546,148.263173 173.505979,143.985398 170.959175,141.351398 C168.964444,139.242943 165.847712,138.642635 163.213196,139.859459 C162.185787,140.224026 161.25735,140.822977 160.501443,141.608857 C157.063918,145.173669 153.956289,149.887143 151.26433,154.897684 C143.233121,169.921976 139.067658,186.710808 139.143918,203.748812 L139.143918,213.96794 L132.592165,213.96794 L132.592165,95.1342707 C132.592165,70.2333985 127.023505,45.669203 116.09732,23.8842406 C110.924536,13.5594887 106.200412,7.14282707 102.578144,3.20172932 C100.799222,1.17265298 98.2324867,0.00923784009 95.5348454,0.00923784009 C92.837204,0.00923784009 90.2704687,1.17265298 88.4915464,3.20172932 C83.5826804,8.54234586 79.148866,15.6059549 75.2956701,23.1118647 C63.8218557,45.3721353 57.9958763,70.6426917 57.9958763,96.2697293 L57.9958763,213.921729 L52.3348454,213.921729 L52.3348454,203.207489 C52.4067328,186.180513 48.2413679,169.40342 40.214433,154.389368 C37.5026804,149.378827 34.3950515,144.665353 30.9773196,141.100541 C28.9393907,138.935054 25.7287511,138.351473 23.0597938,139.661414 L23.2973196,139.786842 C22.4686941,140.15577 21.7183967,140.680141 21.0870103,141.331594 C18.5468041,143.972195 15.2412371,148.243368 11.6189691,155.135338 C3.98051172,169.809838 0.0181683044,186.120861 0.0725773196,202.666165 L0.0725773196,380.246617 L20.2886598,380.246617 L18.0585567,394.842541 L18.0585567,438.498286 L34.5929897,438.498286 L34.5929897,394.842541 L32.3826804,380.240015 L52.3084536,380.240015 L52.3084536,218.503173 L57.9694845,218.503173 L57.9694845,379.540256 L74.1146392,379.540256 L71.7987629,394.842541 L71.7987629,438.498286 L88.3331959,438.498286 L88.3331959,394.842541 L86.0173196,379.520451 L107.790515,379.520451 L105.461443,394.842541 L105.461443,438.498286 L121.995876,438.498286 L121.995876,394.842541 L119.68,379.520451 L132.572371,379.520451 L132.572371,218.522977 L139.124124,218.522977 L139.124124,380.504075 L144.435464,380.504075 L144.435464,380.25982 L161.999175,380.25982 L159.795464,394.842541 L159.795464,438.498286 L176.329897,438.498286 L176.329897,394.842541 L174.119588,380.240015 L191.980206,380.240015 L191.980206,202.68597 Z" id="Path"></path>
                </g>
                <polygon id="Path" fill="#535461" fill-rule="nonzero" points="288 386 272 386 274.858828 367 285.141172 367"></polygon>
                <g id="Group" opacity="0.1" transform="translate(274.000000, 369.000000)" fill="#000000" fill-rule="nonzero">
                    <polygon id="Path" points="0.499473684 5.92 12.5484211 5.92 11.7410526 0.553333333 1.30684211 0.553333333"></polygon>
                </g>
                <polygon id="Path" fill="#535461" fill-rule="nonzero" points="422 386 406 386 408.853288 367 419.146712 367"></polygon>
                <g id="Group" opacity="0.1" transform="translate(408.000000, 369.000000)" fill="#000000" fill-rule="nonzero">
                    <polygon id="Path" points="0.0533333333 5.92 11.8 5.92 11.0133333 0.553333333 0.84 0.553333333"></polygon>
                </g>
                <polygon id="Path" fill="#535461" fill-rule="nonzero" points="339 386 323 386 325.853288 367 336.146712 367"></polygon>
                <g id="Group" opacity="0.1" transform="translate(324.000000, 369.000000)" fill="#000000" fill-rule="nonzero">
                    <polygon id="Path" points="0.567894737 5.92 12.6236842 5.92 11.8163158 0.553333333 1.37526316 0.553333333"></polygon>
                </g>
                <polygon id="Path" fill="#535461" fill-rule="nonzero" points="370 386 354 386 356.853288 367 367.139966 367"></polygon>
                <g id="Group" opacity="0.1" transform="translate(357.000000, 369.000000)" fill="#000000" fill-rule="nonzero">
                    <polygon id="Path" points="0.0866666667 5.92 11.8333333 5.92 11.04 0.553333333 0.873333333 0.553333333"></polygon>
                </g>
                <rect id="Rectangle" fill="#535461" fill-rule="nonzero" x="288" y="210" width="112" height="5"></rect>
                <path d="M417.288925,139.075814 C416.106147,137.754054 414.42593,137 412.663499,137 C410.901068,137 409.220851,137.754054 408.038073,139.075814 C404.81726,142.552097 401.903503,147.145285 399.362132,152.029265 C391.823684,166.726603 387.925028,183.055571 388.001092,199.613368 L388.001092,372 L436.999252,372 L436.999252,198.886389 C437.060584,182.78673 433.350851,166.901377 426.173925,152.531541 C422.770186,145.816896 419.673502,141.613633 417.288925,139.075814 Z" id="Path" fill="#E0E0E0" fill-rule="nonzero"></path>
                <path d="M275.704577,139.075814 C276.887357,137.754054 278.567577,137 280.330011,137 C282.092445,137 283.772665,137.754054 284.955446,139.075814 C288.182797,142.552097 291.090026,147.145285 293.637935,152.029265 C301.173447,166.727718 305.071932,183.055941 304.998995,199.613368 L304.998995,372 L256.000748,372 L256.000748,198.886389 C255.939416,182.78673 259.649156,166.901377 266.826094,152.531541 C270.223306,145.816896 273.319995,141.613633 275.704577,139.075814 Z" id="Path" fill="#E0E0E0" fill-rule="nonzero"></path>
                <polygon id="Path" fill="#535461" fill-rule="nonzero" points="256 203 268 203.057195 268 217 256 217"></polygon>
                <polygon id="Path" fill="#535461" fill-rule="nonzero" points="293 203 305 203.057195 305 217 293 217"></polygon>
                <polygon id="Path" fill="#535461" fill-rule="nonzero" points="387 203 399 203.057195 399 217 387 217"></polygon>
                <polygon id="Path" fill="#535461" fill-rule="nonzero" points="425 203 437 203.057195 437 217 425 217"></polygon>
                <g id="Group" opacity="0.1" transform="translate(276.000000, 136.000000)" fill="#000000" fill-rule="nonzero">
                    <path d="M17.1504651,15.5548459 C14.5202326,10.6695798 11.5190698,6.07518207 8.18744186,2.59798319 C6.25400625,0.49638568 3.1263439,-0.0799610063 0.54627907,1.18991597 C1.26926139,1.54354093 1.92236455,2.02031167 2.47511628,2.59798319 C5.8,6.07518207 8.80790698,10.6695798 11.4313953,15.5548459 C19.2139343,30.2558696 23.2385952,46.5892644 23.1595349,63.1514846 L23.1595349,235.570308 L28.8786047,235.570308 L28.8786047,63.1580952 C28.9552593,46.5940416 24.9307665,30.2590606 17.1504651,15.5548459 Z" id="Path"></path>
                </g>
                <g id="Group" opacity="0.1" transform="translate(387.000000, 137.000000)" fill="#000000" fill-rule="nonzero">
                    <path d="M16.3221429,15.3697479 C18.8228571,10.4844818 21.69,5.89008403 24.8592857,2.41288515 C25.4518394,1.75435826 26.1694971,1.22787005 26.9678571,0.865994398 C24.5516705,-0.221414716 21.7299776,0.401499768 19.9607143,2.41288515 C16.785,5.89008403 13.9178571,10.4844818 11.4171429,15.3697479 C4.00219704,30.0720732 0.166086781,46.4045973 0.237857143,62.9663866 L0.237857143,235.411653 L5.14285714,235.411653 L5.14285714,62.9796078 C5.0659266,46.412982 8.9022715,30.0749218 16.3221429,15.3697479 L16.3221429,15.3697479 Z" id="Path"></path>
                </g>
                <path d="M280.219132,429 L279.780868,429 C275.483613,429 272,425.550229 272,421.29472 L272,386 L288,386 L288,421.29472 C288,423.338288 287.180232,425.298156 285.721036,426.743176 C284.261841,428.188196 282.282746,429 280.219132,429 Z" id="Path" fill="url(#linearGradient-4)" fill-rule="nonzero"></path>
                <path d="M331.222597,429 L330.777403,429 C326.480971,428.996315 322.999998,425.547623 323,421.29472 L323,386 L339,386 L339,421.29472 C339.000002,425.547623 335.519029,428.996315 331.222597,429 Z" id="Path" fill="url(#linearGradient-5)" fill-rule="nonzero"></path>
                <path d="M362.215852,429 L361.763912,429 C357.472751,428.988957 353.999985,425.542419 354,421.29472 L354,386 L370,386 L370,421.29472 C370,425.550229 366.514918,429 362.215852,429 Z" id="Path" fill="url(#linearGradient-5)" fill-rule="nonzero"></path>
                <path d="M414.222597,428.999988 L413.797639,428.999988 C411.730818,429.003534 409.747422,428.193296 408.284692,426.747892 C406.821962,425.302487 405.999997,423.340593 406,421.294711 L406,386 L422,386 L422,421.294711 C422.000002,425.547612 418.519029,428.996303 414.222597,428.999988 Z" id="Path" fill="url(#linearGradient-5)" fill-rule="nonzero"></path>
                <path d="M352.888785,4.1066947 C351.247998,2.13716541 348.82822,1 346.278037,1 C343.727855,1 341.308077,2.13716541 339.66729,4.1066947 C335.08785,9.30748486 330.900935,16.1780718 327.237383,23.490858 C316.469159,45.165217 311,69.7699704 311,94.7179231 L311,371 L381,371 L381,93.6091252 C381,69.3673711 375.766355,45.4292165 365.534579,24.2432566 C360.726168,14.1914756 356.297196,7.94128744 352.888785,4.1066947 Z" id="Path" fill="#EEEEEE" fill-rule="nonzero"></path>
                <rect id="Rectangle" fill="#535461" fill-rule="nonzero" x="326" y="36" width="37" height="17" rx="8.5"></rect>
                <g id="Group" opacity="0.1" transform="translate(311.000000, 104.000000)" fill="#000000" fill-rule="nonzero">
                    <rect id="Rectangle" x="0.314018692" y="0.28" width="69.2869159" height="3.288"></rect>
                </g>
                <path d="M501.450771,205.907078 L501.450771,205.907078 C499.630031,203.516808 497.352572,201.511824 494.750554,200.008471 L494.750554,200.008471 C486.556604,195.285072 476.282826,196.187277 469.03809,202.266443 C461.793353,208.345609 459.123702,218.304427 462.356682,227.19065 C465.589661,236.076873 474.035345,241.994157 483.493926,242 C483.972513,242 484.4511,242 484.916575,241.947568 C493.18043,241.426298 500.490093,236.409602 503.946198,228.887344 C507.402303,221.365086 506.446277,212.553006 501.457327,205.946402 L501.450771,205.907078 Z" id="Path" fill="url(#linearGradient-6)" fill-rule="nonzero"></path>
                <path d="M504.999986,219.506707 C504.998175,230.848592 496.185205,240.237118 484.867848,240.953632 C484.424146,240.953632 483.9672,240.999996 483.510253,240.999996 C474.469849,241.005385 466.392137,235.352972 463.298709,226.856882 C460.205282,218.360793 462.757271,208.836823 469.684136,203.026603 C476.611001,197.216383 486.432323,196.361681 494.258431,200.888021 L494.258431,200.888021 C496.747443,202.332476 498.922509,204.260182 500.655682,206.557745 L500.655682,206.557745 C503.479494,210.283373 505.005391,214.831579 504.999986,219.506707 Z" id="Path" fill="#000000" fill-rule="nonzero" opacity="0.2"></path>
                <path d="M479.227268,205.201732 C478.125376,205.638939 477.062431,206.155263 476.048239,206.745941 C475.37118,207.086933 474.788925,207.567793 474.347064,208.150868 C473.89907,208.751254 473.883555,209.54035 474.307655,210.155312 C474.826546,210.809329 475.824919,210.906221 476.705063,210.954667 C477.629312,211.063207 478.568236,210.976227 479.450588,210.700326 C480.046365,210.428648 480.58818,210.066279 481.053239,209.628464 L482.885778,208.096366 C483.542602,207.563463 484.199426,206.830721 483.943265,206.079811 C483.635442,205.534948 483.049796,205.170426 482.386592,205.110896 C480.806822,204.827109 479.16903,205.092437 477.788823,205.85575" id="Path" fill="#000000" fill-rule="nonzero" opacity="0.1"></path>
                <g id="Group" opacity="0.1" transform="translate(471.000000, 227.000000)" fill="#000000" fill-rule="nonzero">
                    <circle id="Oval" cx="1" cy="0.91" r="1"></circle>
                </g>
                <g id="Group" opacity="0.1" transform="translate(490.000000, 216.000000)" fill="#000000" fill-rule="nonzero">
                    <ellipse id="Oval" cx="4.13538462" cy="5" rx="3.85230769" ry="4.47142857"></ellipse>
                </g>
                <g id="Group" opacity="0.1" transform="translate(490.000000, 200.000000)" fill="#000000" fill-rule="nonzero">
                    <path d="M11.7266667,6.30666667 L11.7266667,6.30666667 C11.6928121,9.34468299 9.2794582,11.8208333 6.24331338,11.9326989 C3.20716855,12.0445646 0.618139824,9.75272529 0.360811289,6.72543751 C0.103482753,3.69814972 2.26853441,1.00219935 5.28,0.6 L5.28,0.6 C7.78804448,2.0531449 9.97996211,3.99345669 11.7266667,6.30666667 L11.7266667,6.30666667 Z" id="Path"></path>
                </g>
                <g id="Group" opacity="0.1" transform="translate(485.000000, 229.000000)" fill="#000000" fill-rule="nonzero">
                    <path d="M16.4573077,2.46 C12.7601031,7.82598193 6.8704398,11.1867055 0.451153846,11.5933333 C0.451153846,11.2933333 0.411923077,10.9933333 0.411923077,10.6866667 C0.415553051,6.81493951 2.55782918,3.27546267 5.9503334,1.5360839 C9.34283761,-0.203294868 13.4069714,0.154079052 16.4573077,2.46 Z" id="Path"></path>
                </g>
                <path d="M208.824707,327.413138 L208.824707,327.413138 C207.535282,325.706307 205.918903,324.273953 204.070073,323.19982 L204.070073,323.19982 C198.253098,319.783252 190.919892,320.390008 185.742128,324.71629 C180.564364,329.042572 178.656557,336.157148 180.973929,342.497811 C183.291301,348.838473 189.335038,353.040394 196.079092,352.999707 C196.418709,352.999707 196.745007,352.999707 197.091283,352.966374 C202.9362,352.572496 208.097455,349.008797 210.541959,343.679066 C212.986464,338.349335 212.322414,332.107819 208.811388,327.413138 L208.824707,327.413138 Z" id="Path" fill="url(#linearGradient-7)" fill-rule="nonzero"></path>
                <path d="M210.999967,337.033189 C210.998291,344.948336 204.846192,351.500059 196.946062,352 C196.634636,352 196.283454,352 195.998533,352 C189.692917,351.998463 184.061341,348.054273 181.905101,342.129375 C179.74886,336.204476 181.52828,329.56375 186.358231,325.510468 C191.188182,321.457187 198.037539,320.856667 203.49925,324.007624 L203.49925,324.007624 C205.239281,325.020077 206.758021,326.371936 207.965225,327.982872 L207.965225,327.982872 C209.94065,330.585972 211.006815,333.765527 210.999967,337.033189 Z" id="Path" fill="#000000" fill-rule="nonzero" opacity="0.2"></path>
                <path d="M193.632147,328.172242 C192.862767,328.532432 192.12123,328.960654 191.414833,329.452692 C190.943902,329.741663 190.537158,330.141929 190.223931,330.62463 C189.925356,331.133295 189.925356,331.78706 190.223931,332.295725 C190.66582,332.775356 191.27639,333.018511 191.895141,332.96127 C192.541728,333.05301 193.19883,332.981257 193.816375,332.751479 C194.234719,332.524335 194.615117,332.221047 194.941482,331.85444 L196.217918,330.581224 C196.665329,330.132705 197.152217,329.525034 196.95483,328.902895 C196.749959,328.439568 196.336466,328.130969 195.869201,328.092666 C194.767908,327.855526 193.625762,328.077286 192.664951,328.714806" id="Path" fill="#000000" fill-rule="nonzero" opacity="0.1"></path>
                <g id="Group" opacity="0.1" transform="translate(187.000000, 343.000000)" fill="#000000" fill-rule="nonzero">
                    <circle id="Oval" cx="0.965" cy="0.97" r="1"></circle>
                </g>
                <g id="Group" opacity="0.1" transform="translate(200.000000, 335.000000)" fill="#000000" fill-rule="nonzero">
                    <ellipse id="Oval" cx="3.612" cy="2.93333333" rx="3.059" ry="2.91333333"></ellipse>
                </g>
                <g id="Group" opacity="0.1" transform="translate(201.000000, 325.000000)" fill="#000000" fill-rule="nonzero">
                    <path d="M7.82153846,3.92 L7.82153846,3.92 C7.80603667,5.89540996 6.23843707,7.50867011 4.264286,7.58086699 C2.29013493,7.65306386 0.608883091,6.15861779 0.449129863,4.18961709 C0.289376635,2.2206164 1.70772331,0.474686979 3.66769231,0.227692308 L3.66769231,0.227692308 C5.28593025,1.16741475 6.69857242,2.42309668 7.82153846,3.92 Z" id="Path"></path>
                </g>
                <g id="Group" opacity="0.1" transform="translate(197.000000, 344.000000)" fill="#000000" fill-rule="nonzero">
                    <path d="M11.4333333,1.87076923 C8.803016,5.32665492 4.61331675,7.49132029 0.0466666667,7.75384615 C0.0466666667,7.56307692 0.0466666667,7.36615385 0.0466666667,7.13846154 C0.04913062,4.64512066 1.5728765,2.36567863 3.98600638,1.24542081 C6.39913627,0.125162994 9.2900946,0.355147624 11.46,1.84 L11.4333333,1.87076923 Z" id="Path"></path>
                </g>
                <polyline id="Path" points="553 356 567 363.571802 556.069725 376"></polyline>
                <circle id="Oval" fill="#FFFFFF" fill-rule="nonzero" cx="631" cy="283" r="1"></circle>
            </g>
        </g>
    </g>
</svg>