<svg width="572" height="482" viewBox="0 0 572 482" fill="none" xmlns="http://www.w3.org/2000/svg">
<path d="M654.743 468.067C648.65 468.591 642.519 468.509 636.442 467.822C569.635 460.437 478.659 462.538 404.498 508.483C301.935 572.014 141.199 517.626 70.2949 488.037C16.1194 465.438 -12.0056 410.085 4.88792 358.128C5.12576 357.395 5.37021 356.661 5.62788 355.928C16.2582 325.051 37.2413 300.886 63.2257 288.077C85.8737 276.913 118.941 253.6 133.654 208.804C139.732 190.306 148.07 172.906 158.898 157.738C187.895 117.117 248.598 56.6252 352.999 57.0017C371.303 57.0904 389.47 60.1652 406.784 66.105C444.925 79.0992 479.373 105.517 505.641 142.141C522.403 165.5 547.522 187.215 583.482 188.985C633.39 191.456 681.018 214.69 716.748 256.037C717.778 257.226 718.796 258.422 719.813 259.631C783.43 335.41 739.244 460.681 654.743 468.067Z" fill="#00B476"/>
<g opacity="0.7">
<path d="M182.474 459.419C187.467 459.419 191.515 455.371 191.515 450.377C191.515 445.384 187.467 441.336 182.474 441.336C177.481 441.336 173.433 445.384 173.433 450.377C173.433 455.371 177.481 459.419 182.474 459.419Z" fill="url(#paint0_linear)"/>
</g>
<path opacity="0.2" d="M183 461C187.971 461 192 456.971 192 452C192 447.029 187.971 443 183 443C178.029 443 174 447.029 174 452C174 456.971 178.029 461 183 461Z" fill="black"/>
<path d="M133.5 277C135.433 277 137 275.433 137 273.5C137 271.567 135.433 270 133.5 270C131.567 270 130 271.567 130 273.5C130 275.433 131.567 277 133.5 277Z" fill="white"/>
<path d="M373.5 472C375.433 472 377 470.433 377 468.5C377 466.567 375.433 465 373.5 465C371.567 465 370 466.567 370 468.5C370 470.433 371.567 472 373.5 472Z" fill="white"/>
<path d="M542 228C543.105 228 544 227.105 544 226C544 224.895 543.105 224 542 224C540.895 224 540 224.895 540 226C540 227.105 540.895 228 542 228Z" fill="white"/>
<path d="M193.5 167C195.433 167 197 165.433 197 163.5C197 161.567 195.433 160 193.5 160C191.567 160 190 161.567 190 163.5C190 165.433 191.567 167 193.5 167Z" fill="white"/>
<path d="M100 390.91H97.0924V388H95.9076V390.91H93V392.096H95.9076V395H97.0924V392.096H100V390.91Z" fill="white"/>
<path d="M175 389.91H172.092V387H170.908V389.91H168V391.096H170.908V394H172.092V391.096H175V389.91Z" fill="white"/>
<path d="M283 449.91H280.092V447H278.908V449.91H276V451.096H278.908V454H280.092V451.096H283V449.91Z" fill="white"/>
<path d="M434 85.6627H432.337V84H431.663V85.6627H430V86.3373H431.663V88H432.337V86.3373H434V85.6627Z" fill="white"/>
<path d="M514 293.663H512.337V292H511.663V293.663H510V294.337H511.663V296H512.337V294.337H514V293.663Z" fill="white"/>
<path d="M46 344.663H44.3373V343H43.6627V344.663H42V345.337H43.6627V347H44.3373V345.337H46V344.663Z" fill="white"/>
<path d="M102 456.663H100.337V455H99.6627V456.663H98V457.337H99.6627V459H100.337V457.337H102V456.663Z" fill="white"/>
<path d="M278 102.663H276.337V101H275.663V102.663H274V103.337H275.663V105H276.337V103.337H278V102.663Z" fill="white"/>
<path d="M195 299.663H193.337V298H192.663V299.663H191V300.337H192.663V302H193.337V300.337H195V299.663Z" fill="white"/>
<path d="M213 243.663H211.337V242H210.663V243.663H209V244.337H210.663V246H211.337V244.337H213V243.663Z" fill="white"/>
<g opacity="0.7">
<path d="M494.1 374.446C498.341 374.446 501.78 371.007 501.78 366.766C501.78 362.524 498.341 359.086 494.1 359.086C489.858 359.086 486.42 362.524 486.42 366.766C486.42 371.007 489.858 374.446 494.1 374.446Z" fill="url(#paint1_linear)"/>
</g>
<path opacity="0.2" d="M493 373C496.866 373 500 369.866 500 366C500 362.134 496.866 359 493 359C489.134 359 486 362.134 486 366C486 369.866 489.134 373 493 373Z" fill="black"/>
<path opacity="0.2" d="M513 425C517.418 425 521 421.418 521 417C521 412.582 517.418 409 513 409C508.582 409 505 412.582 505 417C505 421.418 508.582 425 513 425Z" fill="black"/>
<g opacity="0.7">
<path d="M441.98 202.685C442.035 186.139 438.073 169.828 430.434 155.154C426.812 148.262 423.506 143.984 420.959 141.35C418.965 139.242 415.848 138.641 413.213 139.858C412.186 140.223 411.258 140.822 410.502 141.607C407.064 145.172 403.957 149.886 401.265 154.896C393.233 169.921 389.068 186.709 389.144 203.747V213.967H382.592V95.1328C382.592 70.232 377.024 45.6678 366.098 23.8828C360.925 13.5581 356.201 7.1414 352.578 3.2003C350.799 1.17123 348.233 0.0078125 345.535 0.0078125C342.837 0.0078125 340.271 1.17123 338.492 3.2003C333.583 8.54092 329.149 15.6045 325.296 23.1104C313.822 45.3707 307.996 70.6413 307.996 96.2683V213.92H302.335V203.206C302.407 186.179 298.242 169.402 290.215 154.388C287.503 149.377 284.395 144.664 280.978 141.099C278.94 138.934 275.729 138.35 273.06 139.66L273.298 139.785C272.469 140.154 271.719 140.679 271.087 141.33C268.547 143.971 265.241 148.242 261.619 155.134C253.981 169.808 250.018 186.119 250.073 202.665V380.245H270.289L268.059 394.841V438.497H284.593V394.841L282.383 380.239H302.309V218.502H307.97V379.539H324.115L321.799 394.841V438.497H338.333V394.841L336.018 379.519H357.791L355.462 394.841V438.497H371.996V394.841L369.68 379.519H382.573V218.522H389.124V380.503H394.436V380.258H411.999L409.796 394.841V438.497H426.33V394.841L424.12 380.239H441.98V202.685Z" fill="url(#paint2_linear)"/>
</g>
<path d="M288 386H272L274.859 367H285.141L288 386Z" fill="#535461"/>
<g opacity="0.1">
<path d="M274.5 374.921H286.548L285.741 369.555H275.307L274.5 374.921Z" fill="black"/>
</g>
<path d="M422 386H406L408.853 367H419.147L422 386Z" fill="#535461"/>
<g opacity="0.1">
<path d="M408.053 374.921H419.8L419.013 369.555H408.84L408.053 374.921Z" fill="black"/>
</g>
<path d="M339 386H323L325.853 367H336.147L339 386Z" fill="#535461"/>
<g opacity="0.1">
<path d="M324.568 374.921H336.624L335.816 369.555H325.375L324.568 374.921Z" fill="black"/>
</g>
<path d="M370 386H354L356.853 367H367.14L370 386Z" fill="#535461"/>
<g opacity="0.1">
<path d="M357.086 374.921H368.833L368.04 369.555H357.873L357.086 374.921Z" fill="black"/>
</g>
<rect x="288" y="210" width="112" height="5" fill="#535461"/>
<path d="M417.289 139.076C416.106 137.754 414.426 137 412.663 137C410.901 137 409.221 137.754 408.038 139.076C404.817 142.552 401.904 147.145 399.362 152.029C391.824 166.727 387.925 183.056 388.001 199.613V372H436.999V198.886C437.061 182.787 433.351 166.901 426.174 152.532C422.77 145.817 419.674 141.614 417.289 139.076Z" fill="#E0E0E0"/>
<path d="M275.705 139.076C276.887 137.754 278.568 137 280.33 137C282.092 137 283.773 137.754 284.955 139.076C288.183 142.552 291.09 147.145 293.638 152.029C301.173 166.728 305.072 183.056 304.999 199.613V372H256.001V198.886C255.939 182.787 259.649 166.901 266.826 152.532C270.223 145.817 273.32 141.614 275.705 139.076Z" fill="#E0E0E0"/>
<path d="M256 203L268 203.057V217H256V203Z" fill="#535461"/>
<path d="M293 203L305 203.057V217H293V203Z" fill="#535461"/>
<path d="M387 203L399 203.057V217H387V203Z" fill="#535461"/>
<path d="M425 203L437 203.057V217H425V203Z" fill="#535461"/>
<g opacity="0.1">
<path d="M293.151 151.553C290.52 146.668 287.519 142.074 284.188 138.596C282.254 136.495 279.126 135.918 276.546 137.188C277.269 137.542 277.922 138.019 278.475 138.596C281.8 142.074 284.808 146.668 287.432 151.553C295.214 166.254 299.239 182.588 299.16 199.15V371.569H304.879V199.156C304.955 182.592 300.931 166.257 293.151 151.553Z" fill="black"/>
</g>
<g opacity="0.1">
<path d="M403.322 152.369C405.823 147.484 408.69 142.889 411.859 139.412C412.452 138.754 413.169 138.227 413.968 137.865C411.552 136.778 408.73 137.401 406.961 139.412C403.785 142.889 400.918 147.484 398.417 152.369C391.002 167.071 387.166 183.404 387.238 199.966V372.411H392.143V199.979C392.066 183.412 395.902 167.074 403.322 152.369Z" fill="black"/>
</g>
<path d="M280.219 429H279.781C275.484 429 272 425.55 272 421.295V386H288V421.295C288 423.338 287.18 425.298 285.721 426.743C284.262 428.188 282.283 429 280.219 429Z" fill="url(#paint3_linear)"/>
<path d="M331.223 429H330.777C326.481 428.996 323 425.548 323 421.295V386H339V421.295C339 425.548 335.519 428.996 331.223 429Z" fill="url(#paint4_linear)"/>
<path d="M362.216 429H361.764C357.473 428.989 354 425.542 354 421.295V386H370V421.295C370 425.55 366.515 429 362.216 429Z" fill="url(#paint5_linear)"/>
<path d="M414.223 429H413.798C411.731 429.004 409.747 428.193 408.285 426.748C406.822 425.302 406 423.341 406 421.295V386H422V421.295C422 425.548 418.519 428.996 414.223 429Z" fill="url(#paint6_linear)"/>
<path d="M352.889 4.10669C351.248 2.13717 348.828 1 346.278 1C343.728 1 341.308 2.13717 339.667 4.10669C335.088 9.30748 330.901 16.1781 327.237 23.4909C316.469 45.1652 311 69.77 311 94.7179V371H381V93.6091C381 69.3674 375.766 45.4292 365.535 24.2433C360.726 14.1915 356.297 7.94129 352.889 4.10669Z" fill="#EEEEEE"/>
<rect x="326" y="36" width="37" height="17" rx="8.5" fill="#535461"/>
<g opacity="0.1">
<rect x="311.314" y="104.281" width="69.2869" height="3.288" fill="black"/>
</g>
<path d="M501.451 205.907C499.63 203.517 497.353 201.512 494.751 200.008C486.557 195.285 476.283 196.187 469.038 202.266C461.793 208.346 459.124 218.304 462.357 227.191C465.59 236.077 474.035 241.994 483.494 242C483.973 242 484.451 242 484.917 241.948C493.18 241.426 500.49 236.41 503.946 228.887C507.402 221.365 506.446 212.553 501.457 205.946L501.451 205.907Z" fill="url(#paint7_linear)"/>
<path opacity="0.2" d="M505 219.507C504.998 230.849 496.185 240.237 484.868 240.954C484.424 240.954 483.967 241 483.51 241C474.47 241.005 466.392 235.353 463.299 226.857C460.205 218.361 462.757 208.837 469.684 203.027C476.611 197.216 486.432 196.362 494.258 200.888C496.747 202.332 498.923 204.26 500.656 206.558C503.479 210.283 505.005 214.832 505 219.507Z" fill="black"/>
<path opacity="0.1" d="M479.227 205.202C478.125 205.639 477.062 206.155 476.048 206.746C475.371 207.087 474.789 207.568 474.347 208.151C473.899 208.751 473.884 209.54 474.308 210.155C474.827 210.809 475.825 210.906 476.705 210.955C477.629 211.063 478.568 210.976 479.451 210.7C480.046 210.429 480.588 210.066 481.053 209.628L482.886 208.096C483.543 207.563 484.199 206.831 483.943 206.08C483.635 205.535 483.05 205.17 482.387 205.111C480.807 204.827 479.169 205.092 477.789 205.856" fill="black"/>
<g opacity="0.1">
<path d="M472 228.765C472.472 228.765 472.855 228.382 472.855 227.91C472.855 227.437 472.472 227.055 472 227.055C471.528 227.055 471.145 227.437 471.145 227.91C471.145 228.382 471.528 228.765 472 228.765Z" fill="black"/>
</g>
<g opacity="0.1">
<path d="M494.136 225.47C496.263 225.47 497.988 223.468 497.988 220.999C497.988 218.529 496.263 216.527 494.136 216.527C492.008 216.527 490.283 218.529 490.283 220.999C490.283 223.468 492.008 225.47 494.136 225.47Z" fill="black"/>
</g>
<g opacity="0.1">
<path d="M501.726 206.308C501.693 209.346 499.279 211.822 496.243 211.934C493.207 212.046 490.618 209.754 490.361 206.727C490.103 203.7 492.268 201.004 495.28 200.602C497.788 202.055 499.98 203.995 501.726 206.308Z" fill="black"/>
</g>
<g opacity="0.1">
<path d="M501.457 231.458C497.76 236.824 491.871 240.185 485.451 240.592C485.451 240.292 485.412 239.992 485.412 239.685C485.416 235.813 487.558 232.274 490.951 230.534C494.343 228.795 498.407 229.152 501.457 231.458Z" fill="black"/>
</g>
<path d="M208.825 327.413C207.535 325.706 205.919 324.274 204.07 323.2C198.253 319.783 190.92 320.39 185.742 324.716C180.564 329.043 178.657 336.157 180.974 342.498C183.291 348.838 189.335 353.04 196.079 353C196.419 353 196.745 353 197.091 352.966C202.936 352.572 208.097 349.009 210.542 343.679C212.986 338.349 212.322 332.108 208.811 327.413H208.825Z" fill="url(#paint8_linear)"/>
<path opacity="0.2" d="M211 337.033C210.998 344.948 204.846 351.5 196.946 352C196.635 352 196.283 352 195.999 352C189.693 351.998 184.061 348.054 181.905 342.129C179.749 336.204 181.528 329.564 186.358 325.51C191.188 321.457 198.038 320.857 203.499 324.008C205.239 325.02 206.758 326.372 207.965 327.983C209.941 330.586 211.007 333.766 211 337.033Z" fill="black"/>
<path opacity="0.1" d="M193.632 328.172C192.863 328.532 192.121 328.961 191.415 329.453C190.944 329.742 190.537 330.142 190.224 330.625C189.925 331.133 189.925 331.787 190.224 332.296C190.666 332.775 191.276 333.019 191.895 332.961C192.542 333.053 193.199 332.981 193.816 332.751C194.235 332.524 194.615 332.221 194.941 331.854L196.218 330.581C196.665 330.133 197.152 329.525 196.955 328.903C196.75 328.44 196.336 328.131 195.869 328.093C194.768 327.856 193.626 328.077 192.665 328.715" fill="black"/>
<g opacity="0.1">
<path d="M187.965 344.565C188.294 344.565 188.56 344.299 188.56 343.97C188.56 343.641 188.294 343.375 187.965 343.375C187.637 343.375 187.37 343.641 187.37 343.97C187.37 344.299 187.637 344.565 187.965 344.565Z" fill="black"/>
</g>
<g opacity="0.1">
<path d="M203.612 340.846C205.302 340.846 206.671 339.542 206.671 337.933C206.671 336.324 205.302 335.02 203.612 335.02C201.923 335.02 200.553 336.324 200.553 337.933C200.553 339.542 201.923 340.846 203.612 340.846Z" fill="black"/>
</g>
<g opacity="0.1">
<path d="M208.822 328.919C208.806 330.894 207.239 332.508 205.264 332.58C203.29 332.652 201.609 331.157 201.449 329.188C201.29 327.219 202.708 325.474 204.668 325.227C206.286 326.166 207.699 327.422 208.822 328.919Z" fill="black"/>
</g>
<g opacity="0.1">
<path d="M208.434 345.872C205.803 349.328 201.614 351.493 197.047 351.755C197.047 351.565 197.047 351.368 197.047 351.14C197.049 348.647 198.573 346.367 200.986 345.247C203.399 344.127 206.29 344.357 208.46 345.842L208.434 345.872Z" fill="black"/>
</g>
<defs>
<linearGradient id="paint0_linear" x1="191.512" y1="459.419" x2="191.512" y2="441.342" gradientUnits="userSpaceOnUse">
<stop stop-color="#808080" stop-opacity="0.25"/>
<stop offset="0.54" stop-color="#808080" stop-opacity="0.12"/>
<stop offset="1" stop-color="#808080" stop-opacity="0.1"/>
</linearGradient>
<linearGradient id="paint1_linear" x1="501.777" y1="374.439" x2="501.777" y2="359.086" gradientUnits="userSpaceOnUse">
<stop stop-color="#808080" stop-opacity="0.25"/>
<stop offset="0.54" stop-color="#808080" stop-opacity="0.12"/>
<stop offset="1" stop-color="#808080" stop-opacity="0.1"/>
</linearGradient>
<linearGradient id="paint2_linear" x1="441.974" y1="438.517" x2="441.974" y2="-0.00141411" gradientUnits="userSpaceOnUse">
<stop stop-color="#808080" stop-opacity="0.25"/>
<stop offset="0.54" stop-color="#808080" stop-opacity="0.12"/>
<stop offset="1" stop-color="#808080" stop-opacity="0.1"/>
</linearGradient>
<linearGradient id="paint3_linear" x1="272.003" y1="386" x2="272.003" y2="429" gradientUnits="userSpaceOnUse">
<stop stop-color="#E0E0E0"/>
<stop offset="0.31" stop-color="#FCCC63"/>
<stop offset="0.77" stop-color="#F55F44"/>
</linearGradient>
<linearGradient id="paint4_linear" x1="323" y1="386" x2="323" y2="429" gradientUnits="userSpaceOnUse">
<stop stop-color="#E0E0E0"/>
<stop offset="0.31" stop-color="#FCCC63"/>
<stop offset="0.77" stop-color="#F55F44"/>
</linearGradient>
<linearGradient id="paint5_linear" x1="354" y1="386" x2="354" y2="429" gradientUnits="userSpaceOnUse">
<stop stop-color="#E0E0E0"/>
<stop offset="0.31" stop-color="#FCCC63"/>
<stop offset="0.77" stop-color="#F55F44"/>
</linearGradient>
<linearGradient id="paint6_linear" x1="406" y1="386" x2="406" y2="429" gradientUnits="userSpaceOnUse">
<stop stop-color="#E0E0E0"/>
<stop offset="0.31" stop-color="#FCCC63"/>
<stop offset="0.77" stop-color="#F55F44"/>
</linearGradient>
<linearGradient id="paint7_linear" x1="505.987" y1="241.961" x2="505.987" y2="196.961" gradientUnits="userSpaceOnUse">
<stop stop-color="#808080" stop-opacity="0.25"/>
<stop offset="0.54" stop-color="#808080" stop-opacity="0.12"/>
<stop offset="1" stop-color="#808080" stop-opacity="0.1"/>
</linearGradient>
<linearGradient id="paint8_linear" x1="212.062" y1="353" x2="212.062" y2="321.06" gradientUnits="userSpaceOnUse">
<stop stop-color="#808080" stop-opacity="0.25"/>
<stop offset="0.54" stop-color="#808080" stop-opacity="0.12"/>
<stop offset="1" stop-color="#808080" stop-opacity="0.1"/>
</linearGradient>
</defs>
</svg>
