<?xml version="1.0" encoding="UTF-8"?>
<svg width="24px" height="24px" viewBox="0 0 24 24" version="1.1" xmlns="http://www.w3.org/2000/svg" xmlns:xlink="http://www.w3.org/1999/xlink">
    <!-- Generator: Sketch 53.2 (72643) - https://sketchapp.com -->
    <title>icons8-launched_rocket</title>
    <desc>Created with Sketch.</desc>
    <g id="Web---1.6" stroke="none" stroke-width="1" fill="none" fill-rule="evenodd">
        <g id="Getting-Started" transform="translate(-780.000000, -516.000000)" fill="#12C29E" fill-rule="nonzero">
            <g id="Group" transform="translate(742.000000, 482.000000)">
                <g id="icons8-launched_rocket" transform="translate(38.000000, 34.000000)">
                    <g id="icons8-coins">
                        <g id="icons8-split_payment_copy_2">
                            <path d="M2,0 C1.87078406,0.000560680923 1.74192657,0.0136426608 1.6152344,0.0390625 C1.6019438,0.0416671 1.5893675,0.0459609 1.5761719,0.0488281 C1.45998198,0.0738172035 1.3462507,0.10911313 1.2363281,0.1542969 C1.2257373,0.1586949 1.2155766,0.1633947 1.2050781,0.1679688 C1.09472693,0.215005936 0.988831348,0.271875769 0.8886719,0.3378906 C0.8867353,0.3391901 0.8847443,0.3404908 0.8828125,0.3417969 C0.879549166,0.344390883 0.87629395,0.346995062 0.8730469,0.3496094 C0.772493365,0.417732978 0.678354401,0.494874613 0.5917969,0.5800781 C0.5858822,0.5859447 0.5820134,0.59367 0.5761719,0.5996094 C0.49029053,0.686082069 0.41249292,0.780223704 0.34375,0.8808594 C0.3419257,0.8835496 0.3397021,0.8859723 0.3378906,0.8886719 C0.267659284,0.993435545 0.207495472,1.10460779 0.1582031,1.2207031 C0.1579773,1.221235 0.1584285,1.2221242 0.1582031,1.2226562 C0.106927887,1.3435072 0.0676760469,1.46911309 0.0410156,1.5976562 C0.0137840625,1.73004041 4.19548635e-05,1.86484404 0,2 L4.4408921e-16,22 C0.000560655087,22.1292161 0.0136426351,22.2580737 0.0390625,22.384766 C0.0416671,22.398056 0.0459609,22.410633 0.0488281,22.423828 C0.0738171921,22.540018 0.109113118,22.6537493 0.1542969,22.763672 C0.1586949,22.774263 0.1633947,22.784423 0.1679688,22.794922 C0.215005947,22.9052731 0.271875779,23.0111686 0.3378906,23.111328 C0.341519,23.116735 0.3459298,23.121583 0.3496094,23.126953 C0.417732978,23.2275065 0.494874613,23.3216455 0.5800781,23.408203 C0.5859447,23.414118 0.59367,23.417987 0.5996094,23.423828 C0.686082065,23.5097094 0.7802237,23.587507 0.8808594,23.65625 C0.8835496,23.658074 0.8859723,23.660298 0.8886719,23.662109 C0.993435525,23.7323405 1.10460777,23.7925045 1.2207031,23.841797 C1.221235,23.842023 1.2221242,23.841571 1.2226562,23.841797 C1.34350722,23.893072 1.4691131,23.9323237 1.5976562,23.958984 C1.73004039,23.9862157 1.86484403,23.9999579 2,24 L10.554688,24 C10.210688,23.41 10,22.732 10,22 L4,22 C4,20.8954305 3.1045695,20 2,20 L2,4 C3.1045695,4 4,3.1045695 4,2 L12,2.0019531 C12.0010779,3.10575979 12.8961928,4.00000053 14,4 L14,6 L16,6 L16,2 C15.9994395,1.87078408 15.9863577,1.74192658 15.960938,1.6152344 C15.958333,1.6019438 15.954039,1.5893675 15.951172,1.5761719 C15.9261828,1.45998198 15.8908868,1.3462507 15.845703,1.2363281 C15.841305,1.2257373 15.836605,1.2155766 15.832031,1.2050781 C15.7849938,1.09472692 15.7281239,0.988831341 15.662109,0.8886719 C15.6608104,0.886716476 15.6595084,0.88476334 15.658203,0.8828125 C15.655862,0.8793504 15.652752,0.8764936 15.650391,0.8730469 C15.5822673,0.772493353 15.5051256,0.678354388 15.419922,0.5917969 C15.4179727,0.589839722 15.4160194,0.587886584 15.414062,0.5859375 C15.410114,0.5819894 15.404371,0.5800871 15.400391,0.5761719 C15.3139183,0.49029053 15.2197767,0.41249292 15.119141,0.34375 C15.1184904,0.343098517 15.1178394,0.342447484 15.117188,0.3417969 C15.115256,0.3404908 15.113265,0.3391901 15.111328,0.3378906 C15.0065644,0.267659296 14.8953922,0.207495483 14.779297,0.1582031 C14.778646,0.158202782 14.777995,0.158202782 14.777344,0.1582031 C14.656493,0.106927887 14.5308871,0.0676760469 14.402344,0.0410156 C14.2699597,0.0137840491 14.135156,4.19413483e-05 14,0 L2,0 Z M8,4 C7.44771525,4 7,4.44771525 7,5 C7,5.55228475 7.44771525,6 8,6 C8.55228475,6 9,5.55228475 9,5 C9,4.44771525 8.55228475,4 8,4 Z M8.5,8 C6.015,8 4,9.791 4,12 C4,14.209 6.015,16 8.5,16 C9.032,16 9.529,15.893234 10,15.740234 L10,10 C10,9.42 10.129563,8.871047 10.351562,8.373047 C9.786563,8.140047 9.165,8 8.5,8 Z M14,8 C12.895,8 12,8.895 12,10 L12,22 C12.0005605,22.1292161 12.0136423,22.2580737 12.039062,22.384766 C12.041778,22.398662 12.045827,22.411989 12.048828,22.425781 C12.0723685,22.5350942 12.105035,22.6422407 12.146484,22.746094 C12.156893,22.771945 12.168244,22.796963 12.179688,22.822266 C12.2235063,22.9199962 12.2751042,23.0140487 12.333984,23.103516 C12.342329,23.116104 12.350755,23.128239 12.359375,23.140625 C12.425055,23.2360407 12.4989003,23.32557 12.580078,23.408203 C12.586256,23.414432 12.59335,23.419633 12.599609,23.425781 C12.6833197,23.5084923 12.7741672,23.5836539 12.871094,23.650391 C12.871094,23.650391 12.873047,23.650391 12.873047,23.650391 C12.883515,23.657546 12.893687,23.664915 12.904297,23.671875 C12.9955764,23.7317049 13.0916,23.7839627 13.191406,23.828125 C13.211992,23.837239 13.232962,23.845083 13.253906,23.853516 C13.4909491,23.9496033 13.7442232,23.9993298 14,24 L20,24 L20,8 L14,8 Z M22,8 L22,24 C23.105,24 24,23.105 24,22 L24,10 C24,8.895 23.105,8 22,8 Z M8,18 C7.44771525,18 7,18.4477153 7,19 C7,19.5522847 7.44771525,20 8,20 C8.55228475,20 9,19.5522847 9,19 C9,18.4477153 8.55228475,18 8,18 Z" id="Shape"></path>
                        </g>
                    </g>
                </g>
            </g>
        </g>
    </g>
</svg>