<svg width="242" height="148" viewBox="0 0 242 148" fill="none" xmlns="http://www.w3.org/2000/svg">
<path opacity="0.1" d="M242 95.0608C242.004 99.0709 241.516 103.066 240.547 106.959C240.221 108.271 239.843 109.555 239.411 110.812C238.883 112.364 238.271 113.886 237.578 115.372C237.229 116.124 236.86 116.861 236.471 117.582C236.477 121.694 235.626 125.763 233.971 129.532C230.978 136.293 225.642 141.759 218.935 144.935C214.741 146.925 210.159 147.971 205.512 148H45.9431C38.8436 148.015 31.8666 146.16 25.7216 142.625L25.6271 142.572C24.7519 142.062 23.8985 141.523 23.0671 140.954C21.1964 139.669 19.4389 138.228 17.8135 136.647C15.6135 134.51 13.6749 132.121 12.0379 129.532C8.19335 123.462 6.15668 116.433 6.16382 109.259C2.27034 102.467 0 94.3294 0 85.5856C0 74.5536 3.60789 64.49 9.53544 56.8719C10.7712 55.2803 12.1249 53.7827 13.5851 52.3917C15.0258 51.0152 16.5744 49.7548 18.2162 48.6224C19.5297 47.7155 20.9024 46.8965 22.3254 46.1709C22.9192 45.8705 23.515 45.5866 24.1211 45.323C24.6532 45.0881 25.1916 44.8695 25.736 44.6632C26.3894 44.4166 27.051 44.1899 27.7208 43.9829C28.3906 43.7758 29.0515 43.5947 29.7035 43.4394C30.6623 43.2065 31.6375 43.0172 32.6292 42.8715C33.4511 42.751 34.2729 42.6672 35.0948 42.6039C35.7481 42.5548 36.4077 42.5283 37.0713 42.5201H37.4309C38.1623 42.5201 38.8896 42.5487 39.6108 42.5977C39.6868 42.4466 39.769 42.2933 39.845 42.1442C40.1327 41.5987 40.4306 41.0553 40.7306 40.5241C40.7299 40.5194 40.7299 40.5146 40.7306 40.5098C40.7819 40.4159 40.8333 40.3239 40.8867 40.234C41.1291 39.7989 41.3819 39.3678 41.6407 38.9408C41.7599 38.7365 41.877 38.5445 41.9982 38.3525C42.0239 38.3047 42.052 38.2584 42.0825 38.2136C42.2058 38.0093 42.3311 37.805 42.4585 37.6007C43.0927 36.5928 43.7522 35.6027 44.4371 34.6302L44.6117 34.381C44.7185 34.2298 44.8172 34.0827 44.9363 33.9315C45.2199 33.5372 45.5116 33.1409 45.8054 32.7527C46.0109 32.4749 46.2164 32.1991 46.4383 31.9356C46.9725 31.2546 47.5203 30.5736 48.0819 29.8926C48.6435 29.2116 49.227 28.5395 49.8325 27.8762C49.9146 27.7843 49.9968 27.6944 50.0831 27.6045L50.9604 26.6525C51.0036 26.6075 51.0406 26.5667 51.0817 26.5258C51.1865 26.4134 51.2871 26.3011 51.4001 26.1928C51.8706 25.6964 52.3535 25.2101 52.8384 24.726C55.306 22.2821 57.9349 20.0046 60.7075 17.9086C60.8164 17.8228 60.9274 17.7411 61.0362 17.6594C61.5581 17.2692 62.0882 16.8831 62.6183 16.5031C65.534 14.4232 68.5819 12.533 71.7428 10.8441C71.9606 10.7195 72.1825 10.603 72.4064 10.4886C75.2403 8.99789 78.1547 7.66386 81.1365 6.49259C82.7617 5.85315 84.4239 5.25252 86.0963 4.70297C87.2099 4.33932 88.3276 3.99406 89.4597 3.66923C91.2294 3.16258 93.0114 2.70836 94.8058 2.30658C100.092 1.12715 105.47 0.398576 110.881 0.128789C112.525 0.0457092 114.187 0.00280719 115.868 8.32511e-05C123.977 -0.010592 132.055 1.00543 139.906 3.02366C140.072 3.27164 140.353 3.41757 140.652 3.40978H141.343C141.643 3.49149 141.941 3.57321 142.241 3.65902C143.916 4.13843 145.567 4.66211 147.194 5.23005L147.605 5.37714C151.621 6.79719 155.529 8.5041 159.298 10.4845C162.695 12.2655 165.966 14.275 169.088 16.499C169.569 16.8422 170.043 17.1881 170.51 17.5368C171.077 17.1759 171.654 16.8299 172.24 16.499C174.504 15.2169 176.908 14.1976 179.406 13.4611C184.629 11.9244 190.154 11.7096 195.482 12.836C202.313 14.2763 208.498 17.8514 213.492 22.9363C215.526 25.0169 217.336 27.3023 218.894 29.7557C219.007 29.9314 219.12 30.1092 219.229 30.2889C220.567 32.4604 221.718 34.741 222.668 37.1063C222.703 37.1941 222.738 37.2758 222.769 37.3616C223.646 39.5764 224.353 41.854 224.885 44.1749C224.91 44.2934 224.939 44.4098 224.963 44.5283C225.46 46.7744 225.798 49.0525 225.974 51.3457C225.974 51.4274 225.974 51.5112 225.99 51.597C226.077 52.7832 226.121 53.9818 226.122 55.1926C226.122 56.2753 226.085 57.3499 226.017 58.4163C226.017 58.5328 226.001 58.6533 225.99 58.7739C225.972 59.0823 225.945 59.3867 225.919 59.6973C227.488 60.9558 228.956 62.3335 230.311 63.8179C230.91 64.4676 231.489 65.1417 232.049 65.8404C233.756 67.967 235.256 70.2496 236.529 72.6578C240.003 79.1789 242 86.8502 242 95.0608Z" fill="#00B476"/>
<path opacity="0.1" d="M219 143.976C219 145.443 214.169 146.818 205.74 148H46.2996C39.2058 148.016 32.2345 146.065 26.0944 142.347L26 142.291C28.4225 141.367 32.7953 140.506 38.7468 139.728L39.0137 139.693C41.6825 139.352 44.6654 139.027 47.9255 138.72C48.0076 138.72 48.0918 138.707 48.1739 138.696C50.7606 138.456 53.5123 138.23 56.4288 138.02C56.5212 138.02 56.6116 138.002 56.7039 137.998C57.829 137.914 58.9772 137.833 60.1488 137.758L60.6004 137.727C69.1305 137.173 78.8265 136.731 89.3418 136.438H89.3541C90.8267 136.395 92.3151 136.357 93.8192 136.324C95.4917 136.283 97.1847 136.246 98.8982 136.215C100.206 136.185 101.53 136.163 102.858 136.142H102.889C108.882 136.047 115.073 136 121.405 136C137.061 136 151.858 136.299 164.97 136.836H165.007C167.023 136.917 169.002 137.008 170.932 137.1L172.575 137.182C174.752 137.291 176.873 137.407 178.939 137.532C203.225 138.978 219 141.326 219 143.976Z" fill="#00B476"/>
<g opacity="0.2">
<path d="M139.188 136.189C139.182 136.41 139.156 136.629 139.112 136.845C137.681 136.619 136.242 136.415 134.794 136.232C134.794 136.175 134.794 136.116 134.794 136.056C134.808 135.444 134.985 134.845 135.308 134.323C135.732 133.657 136.376 133.24 137.085 133.263C137.794 133.285 138.409 133.741 138.789 134.43C139.077 134.971 139.215 135.578 139.188 136.189Z" fill="#3F3D56"/>
<path d="M139.307 132.695C139.357 131.114 138.413 129.802 137.199 129.764C135.984 129.725 134.959 130.976 134.909 132.556C134.859 134.137 135.802 135.449 137.017 135.487C138.231 135.526 139.256 134.275 139.307 132.695Z" fill="#3F3D56"/>
<path d="M139.419 129.198C139.469 127.618 138.525 126.306 137.311 126.267C136.097 126.229 135.071 127.48 135.021 129.06C134.971 130.641 135.915 131.953 137.129 131.991C138.343 132.029 139.369 130.779 139.419 129.198Z" fill="#3F3D56"/>
<path d="M139.529 125.698C139.579 124.118 138.635 122.806 137.421 122.767C136.206 122.729 135.181 123.98 135.131 125.56C135.081 127.141 136.024 128.453 137.239 128.491C138.453 128.529 139.479 127.279 139.529 125.698Z" fill="#3F3D56"/>
<path d="M139.639 122.198C139.689 120.618 138.746 119.306 137.531 119.267C136.317 119.229 135.292 120.48 135.241 122.06C135.191 123.641 136.135 124.953 137.349 124.991C138.564 125.029 139.589 123.779 139.639 122.198Z" fill="#3F3D56"/>
<path d="M129.957 97.922C129.667 97.5323 129.406 97.1225 129.176 96.6958L134.986 95.9334L128.731 95.7842C127.603 93.1245 127.626 90.1205 128.795 87.4782L137.044 92.0666L129.488 86.1723C131.566 82.8318 135.348 80.9264 139.287 81.2358C143.225 81.5453 146.66 84.0177 148.184 87.6412C149.708 91.2647 149.066 95.431 146.521 98.435C146.971 99.0412 147.354 99.6943 147.662 100.383L140.036 104.021L148.122 101.603C149.157 104.996 148.397 108.68 146.103 111.395C149.366 115.795 148.678 121.95 144.523 125.531C140.368 129.113 134.141 128.918 130.221 125.083C126.301 121.249 126.004 115.063 129.539 110.876C126.653 106.981 126.822 101.628 129.951 97.922H129.957Z" fill="#00B476"/>
<path opacity="0.1" d="M148.571 104.986C148.499 107.337 147.629 109.594 146.103 111.392C149.366 115.792 148.678 121.947 144.523 125.528C140.368 129.11 134.141 128.915 130.221 125.08C126.301 121.246 126.004 115.06 129.539 110.873C128.189 109.047 148.608 103.811 148.571 104.986Z" fill="black"/>
</g>
<g opacity="0.2">
<path d="M109.188 136.189C109.182 136.41 109.156 136.629 109.112 136.845C107.681 136.619 106.242 136.415 104.794 136.232C104.794 136.175 104.794 136.116 104.794 136.056C104.808 135.444 104.985 134.845 105.308 134.323C105.732 133.657 106.376 133.24 107.085 133.263C107.794 133.285 108.409 133.741 108.789 134.43C109.077 134.971 109.215 135.578 109.188 136.189Z" fill="#3F3D56"/>
<path d="M109.304 132.698C109.354 131.118 108.411 129.806 107.196 129.767C105.982 129.729 104.957 130.98 104.906 132.56C104.856 134.141 105.8 135.453 107.014 135.491C108.229 135.529 109.254 134.279 109.304 132.698Z" fill="#3F3D56"/>
<path d="M109.416 129.198C109.467 127.618 108.523 126.306 107.309 126.267C106.094 126.229 105.069 127.48 105.019 129.06C104.968 130.641 105.912 131.953 107.127 131.991C108.341 132.029 109.366 130.779 109.416 129.198Z" fill="#3F3D56"/>
<path d="M109.527 125.698C109.577 124.118 108.633 122.806 107.419 122.767C106.204 122.729 105.179 123.98 105.129 125.56C105.079 127.141 106.023 128.453 107.237 128.491C108.451 128.529 109.477 127.279 109.527 125.698Z" fill="#3F3D56"/>
<path d="M109.637 122.198C109.687 120.618 108.743 119.306 107.529 119.267C106.314 119.229 105.289 120.48 105.239 122.06C105.189 123.641 106.132 124.953 107.347 124.991C108.561 125.029 109.586 123.779 109.637 122.198Z" fill="#3F3D56"/>
<path d="M99.9569 97.922C99.6673 97.5323 99.4062 97.1225 99.1755 96.6958L104.986 95.9334L98.7314 95.7842C97.6034 93.1245 97.6264 90.1205 98.7952 87.4782L107.044 92.0666L99.4881 86.1723C101.566 82.8318 105.348 80.9264 109.287 81.2358C113.225 81.5453 116.66 84.0177 118.184 87.6412C119.708 91.2647 119.066 95.431 116.521 98.435C116.971 99.0412 117.354 99.6943 117.662 100.383L110.036 104.021L118.122 101.603C119.157 104.996 118.397 108.68 116.103 111.395C119.366 115.795 118.678 121.95 114.523 125.531C110.368 129.113 104.141 128.918 100.221 125.083C96.3006 121.249 96.004 115.063 99.5395 110.876C96.6525 106.981 96.8224 101.628 99.9507 97.922H99.9569Z" fill="#00B476"/>
<path opacity="0.1" d="M118.571 104.986C118.499 107.337 117.629 109.594 116.103 111.392C119.366 115.792 118.678 121.947 114.523 125.528C110.368 129.11 104.141 128.915 100.221 125.08C96.3006 121.246 96.004 115.06 99.5395 110.873C98.1886 109.047 118.608 103.811 118.571 104.986Z" fill="black"/>
</g>
<g opacity="0.2">
<path d="M194.136 137.568C194.121 137.985 194.071 138.399 193.988 138.808C191.256 138.371 188.504 137.981 185.732 137.638C185.732 137.528 185.732 137.416 185.732 137.301C185.758 136.124 186.098 134.976 186.715 133.973C187.531 132.695 188.754 131.894 190.106 131.935C191.457 131.976 192.634 132.854 193.368 134.177C193.921 135.219 194.187 136.39 194.136 137.568Z" fill="#3F3D56"/>
<path d="M194.359 130.855C194.455 127.82 192.652 125.3 190.333 125.227C188.013 125.153 186.055 127.555 185.959 130.59C185.863 133.625 187.665 136.145 189.985 136.219C192.305 136.292 194.263 133.891 194.359 130.855Z" fill="#3F3D56"/>
<path d="M194.571 124.14C194.667 121.105 192.864 118.585 190.544 118.512C188.225 118.438 186.267 120.84 186.171 123.875C186.075 126.91 187.877 129.431 190.197 129.504C192.517 129.577 194.475 127.176 194.571 124.14Z" fill="#3F3D56"/>
<path d="M194.785 117.422C194.88 114.386 193.078 111.866 190.758 111.793C188.439 111.72 186.481 114.121 186.385 117.156C186.289 120.192 188.091 122.712 190.411 122.785C192.73 122.858 194.689 120.457 194.785 117.422Z" fill="#3F3D56"/>
<path d="M194.757 110.398C194.848 107.361 193.041 104.843 190.72 104.773C188.399 104.703 186.444 107.109 186.353 110.146C186.262 113.183 188.069 115.701 190.39 115.771C192.711 115.84 194.666 113.435 194.757 110.398Z" fill="#3F3D56"/>
<path d="M176.511 64.1032C175.961 63.355 175.463 62.5698 175.021 61.7532L186.112 60.2899L174.174 60.0025C172.019 54.8969 172.062 49.1296 174.293 44.0565L190.043 52.8631L175.62 41.5476C179.595 35.1502 186.811 31.5074 194.321 32.1071C201.83 32.7068 208.376 37.4486 211.285 44.3957C214.193 51.3428 212.977 59.3319 208.133 65.0998C208.992 66.2644 209.723 67.5183 210.313 68.8397L195.753 75.8283L211.189 71.1815C213.166 77.6881 211.722 84.7525 207.35 89.9625C213.578 98.411 212.264 110.226 204.332 117.1C196.4 123.975 184.514 123.6 177.03 116.24C169.547 108.879 168.98 97.0055 175.728 88.9659C170.22 81.4894 170.543 71.2165 176.511 64.1011V64.1032Z" fill="#00B476"/>
<path opacity="0.1" d="M212.048 77.6664C211.914 82.1765 210.262 86.5095 207.359 89.9642C213.587 98.4128 212.272 110.227 204.34 117.102C196.408 123.977 184.522 123.602 177.039 116.242C169.555 108.881 168.988 97.0072 175.736 88.9676C173.139 85.4601 212.119 75.4102 212.048 77.6664Z" fill="black"/>
</g>
<path d="M32 138L34.1514 137.994H37.1846L41.0198 75.6664L79 12.2619L77.349 10.4892V6L36.274 74.1974L32 138Z" fill="#F1C0C0"/>
<path opacity="0.1" d="M35 138H37.7647L41.5466 75.9193L79 12.7657L77.3719 11L38.7395 74.9731L35 138Z" fill="black"/>
<path d="M26 139.395L124.509 146.994L124.593 147L219.928 141.09L220 141.086V137.028L114.953 135.085L27.3118 135H26.6713L26.6015 135.455L26 139.395Z" fill="#F1C0C0"/>
<path opacity="0.1" d="M26 139.395L124.509 146.994L124.593 147L219.928 141.09L220 141.011V137.113H219.916L124.509 140.324L27.3118 135H27.2974L27.125 135.114L26.6015 135.455L26 139.395Z" fill="black"/>
<path opacity="0.1" d="M26 139.325L125 147V140.263L27.1306 135L26.6045 135.345L26 139.325Z" fill="black"/>
<path d="M78 12.314L121.545 58.431L120.199 139.551L123.898 139.992L123.96 140H127.659L128.101 61.9142L209.64 88.7891L211.015 136.641L213.991 136.97L215 137.081L212.666 85.4704L127.428 55.9429L80.6903 8H78V12.314Z" fill="#F1C0C0"/>
<path opacity="0.1" d="M128 59L128.335 60.5016L209.66 87.5351L211.031 135.669L214 136L211.672 86.534L128 59Z" fill="black"/>
<path opacity="0.1" d="M78 12.3142L121.632 58.4341L120.283 139.559L123.989 140L125 55.7793L78 8V12.3142Z" fill="black"/>
<path d="M128 92.2034L158.014 97.9423L158.025 97.9443L210.593 108L213 107.063L212.992 106.899L212.835 103.639L128.031 87L128 92.2034Z" fill="#F1C0C0"/>
<path opacity="0.1" d="M158 99L209.636 109L212 108.068L211.992 107.905L158 99Z" fill="black"/>
<path d="M160 71L160.784 115.282L161.188 138L164.755 137.877L167 137.799L166.302 71.6407L164.755 71.1126L164.416 71H160Z" fill="#F1C0C0"/>
<path opacity="0.1" d="M159 71V71.0102L159.796 115.285L160.224 138L164 137.877V71H159Z" fill="black"/>
<path d="M102.122 82.7488C102.34 82.8627 102.549 82.9928 102.745 83.138C102.978 83.3338 103.187 83.5541 103.368 83.7947C104.259 84.9024 105.081 86.1898 104.994 87.5869C104.997 87.9975 104.831 88.3925 104.531 88.6846C104.163 88.986 103.636 89 103.154 89C102.631 89 102.081 89 101.628 88.7405C101.176 88.4811 100.798 87.9761 100.262 87.9881C100.187 88.0001 100.109 88.0001 100.034 87.9881C99.8491 87.9302 99.8117 87.6967 99.6913 87.549C99.4837 87.2835 99.0456 87.3494 98.7197 87.4652C98.3937 87.5809 98.0325 87.7546 97.7107 87.6208C97.5239 87.5261 97.3712 87.3793 97.2726 87.1997C96.5024 86.0022 96.3384 84.5631 96.193 83.172C96.1038 82.3257 95.4228 79.4396 97.3017 80.0963C98.1321 80.3837 98.9086 80.9585 99.6643 81.3797L102.122 82.7488Z" fill="#3F3D56"/>
<path d="M100.419 83.0624C100.798 83.2958 101.313 83.2781 101.669 83.0195C102.008 82.757 102.224 82.3979 102.277 82.0091C102.504 81.9486 102.62 82.2041 102.766 82.3602C103.021 82.6255 103.54 82.6216 103.772 82.9044C103.934 83.0995 103.897 83.3706 104.011 83.591C104.159 83.8758 104.526 84.0241 104.776 84.2542C105.012 84.5057 105.183 84.7977 105.277 85.1105L105.65 86.0702C105.829 86.4693 105.944 86.8873 105.992 87.3128C106.039 87.7424 105.883 88.1704 105.559 88.5007C105.058 88.963 104.236 89.0117 103.51 88.9981C103.268 89.0025 103.026 88.9782 102.791 88.9259C102.147 88.7543 101.735 88.1983 101.564 87.6385C101.393 87.0787 101.411 86.4916 101.311 85.9181C101.203 85.3548 101.012 84.8055 100.742 84.2835C100.542 83.8778 99.991 83.2731 100 82.842C100.164 82.842 100.282 82.9707 100.419 83.0624Z" fill="#3F3D56"/>
<path d="M100.961 80.779C100.859 80.4729 100.8 80.1545 100.785 79.8326C100.785 79.1858 101.082 78.5778 101.382 78L98.9009 78.3342C98.6014 78.3751 98.2672 78.4355 98.0979 78.6834C97.9674 78.9328 97.9674 79.2296 98.0979 79.479C98.2222 79.725 98.3211 79.9828 98.3931 80.2487C98.3987 80.4813 98.4256 80.7129 98.4734 80.9407C98.5506 81.108 98.6588 81.2594 98.7924 81.387C99.5022 82.1674 100.034 83.088 100.564 84C100.548 83.9741 102.059 82.8121 101.998 82.4326C101.963 82.217 101.527 81.9583 101.388 81.7513C101.196 81.4509 101.052 81.123 100.961 80.779Z" fill="#BE6F72"/>
<path d="M122 73V75.0499L87.0652 81.897L85.2529 83H79V81.845L113.324 73.512L122 73Z" fill="#F1C0C0"/>
<path opacity="0.1" d="M122 76L87.0652 82.0288L85.2529 83H79L113.579 76.4526L122 76Z" fill="black"/>
<path d="M94.2002 130.076C93.3462 129.014 91.8918 128.697 90.6908 129.31C90.566 129.37 90.4559 129.459 90.3686 129.568C90.1479 129.886 90.2891 130.323 90.309 130.715C90.3597 131.671 89.6181 132.448 88.9516 133.116C88.594 133.474 88.2298 133.857 88.0687 134.344C87.9076 134.832 88.0268 135.45 88.4594 135.704C88.6482 135.801 88.8536 135.859 89.0641 135.876C89.7696 136.017 90.493 136.038 91.2051 135.937C91.9092 135.799 92.6 135.389 92.9046 134.723C92.9634 134.542 93.0607 134.377 93.1893 134.24C93.5778 133.925 94.1738 134.295 94.6152 134.07C94.9794 133.885 94.9948 133.592 94.9992 133.207C95.0125 132.142 94.858 130.937 94.2002 130.076Z" fill="#00B476"/>
<path d="M97.655 129.67C97.9195 130.394 97.956 131.182 97.9904 131.956C98.0098 132.402 98.0227 132.881 97.7904 133.258C97.5582 133.636 97.1045 133.835 96.6702 133.929C95.7735 134.121 94.735 133.94 94.1565 133.2C93.7136 132.635 93.6211 131.859 93.7028 131.126C93.7717 130.525 93.9179 129.821 93.5029 129.395C93.3954 129.281 93.2556 129.2 93.1567 129.077C92.9417 128.805 92.9761 128.394 93.0922 128.058C93.2434 127.738 93.3568 127.399 93.4298 127.051C93.447 126.885 96.3412 127.167 96.6078 127.303C96.9712 127.489 96.9153 127.799 97.025 128.175C97.1776 128.697 97.4701 129.169 97.655 129.67Z" fill="#00B476"/>
<path d="M98.0636 101.617C98.595 101.959 98.8003 102.629 98.8828 103.252C99.1103 104.959 98.7117 106.684 98.6815 108.407C98.6534 110.821 99.3578 113.279 98.756 115.616C98.3957 117.014 98.7017 118.611 98.3635 120.023C98.2629 120.442 98.0777 120.837 97.9811 121.257C97.7798 122.165 97.9912 123.115 98.275 124.004C98.3656 124.243 98.4231 124.494 98.4461 124.748C98.4324 125.141 98.3321 125.525 98.1522 125.874L96.9446 128.707C96.8097 129.025 96.2784 129.077 95.9382 129.119C95.2982 129.195 94.5836 129.248 94.0744 128.855C93.5652 128.462 93.4424 127.803 93.3639 127.188C93.2134 126.008 93.1461 124.818 93.1627 123.628C93.1848 123.318 93.1569 123.006 93.0801 122.704C92.9694 122.363 92.7259 122.067 92.6595 121.706C92.575 121.239 92.8145 120.779 92.903 120.308C92.9638 119.878 92.957 119.441 92.8829 119.012C92.8044 118.374 92.7138 117.735 92.6112 117.1C92.4663 116.211 92.6736 115.335 92.8125 114.445C92.9433 113.608 92.7762 112.755 92.6112 111.925C92.6255 112.599 92.5407 113.272 92.3596 113.921C92.2529 114.239 92.1 114.542 92.0074 114.866C91.5948 116.317 92.4743 117.841 92.3495 119.344C92.2912 120.047 92.0134 120.741 92.0919 121.434C92.1462 121.941 92.3837 122.406 92.5468 122.89C92.7098 123.373 92.7943 123.926 92.5468 124.377C91.8926 125.603 92.3817 127.27 92.9674 128.528C93.0863 128.751 93.1899 128.982 93.2774 129.218C93.4505 129.785 93.3056 130.394 93.3519 130.985C93.0103 131.041 92.662 130.937 92.4079 130.704C92.3193 130.612 92.2469 130.504 92.1603 130.408C91.9185 130.18 91.6322 130.002 91.319 129.887C91.1351 129.785 90.9256 129.737 90.7152 129.75C90.494 129.811 90.295 129.933 90.1416 130.103C89.9425 130.277 89.7313 130.436 89.5096 130.58C89.4151 130.652 89.3047 130.701 89.1876 130.722C89.0667 130.74 88.9475 130.68 88.8917 130.572C88.8791 130.539 88.8716 130.504 88.8695 130.468C88.7948 129.865 88.7551 129.259 88.7508 128.651C88.7508 127.607 87.4908 126.889 87.3318 125.856C87.205 125.024 87.4405 124.175 87.362 123.337C87.3238 122.906 87.203 122.482 87.2111 122.051C87.2111 121.772 87.2755 121.498 87.2976 121.221C87.3161 120.913 87.3114 120.604 87.2835 120.296L87.2211 119.332C87.1607 118.38 87.0943 117.407 86.7159 116.537C86.2672 115.52 86.0016 114.434 85.931 113.326C85.8907 112.628 85.9169 111.929 85.8364 111.228C85.7639 110.595 85.6029 109.966 85.6492 109.332C85.6874 108.84 85.8505 108.365 85.8887 107.874C85.9672 106.93 85.6049 106.011 85.3211 105.107C85.0373 104.203 84.828 103.2 85.2004 102.328C85.2536 102.185 85.3421 102.057 85.458 101.957C85.6007 101.863 85.7632 101.803 85.933 101.781C89.3863 101.061 92.9259 100.837 96.4434 101.116C97.0168 101.148 97.5734 101.32 98.0636 101.617Z" fill="#3F3D56"/>
<path d="M86.5 79C88.433 79 90 77.433 90 75.5C90 73.567 88.433 72 86.5 72C84.567 72 83 73.567 83 75.5C83 77.433 84.567 79 86.5 79Z" fill="#BE6F72"/>
<path d="M86.3082 79.3551C86.3569 79.5508 86.3569 79.7556 86.3082 79.9513C86.2549 80.088 86.1798 80.2151 86.0859 80.3274C85.7577 80.7549 85.3944 81.1538 85 81.5198C85.2009 81.9729 85.5627 82.3335 86.014 82.5306C86.462 82.7232 86.932 82.8588 87.4132 82.9345C87.6534 82.9983 87.9033 83.0157 88.1498 82.9858C88.3771 82.9282 88.5922 82.8297 88.7849 82.6952L90.6689 81.5562C90.9531 81.4007 91.2164 81.209 91.4521 80.9856C91.7976 80.6271 91.9932 80.148 91.9982 79.6478C92.007 79.5582 91.9829 79.4685 91.9305 79.3957C91.8583 79.3322 91.7677 79.294 91.6722 79.2867C91.0097 79.1392 90.4868 78.5964 90.1905 77.981C89.9226 77.3501 89.7492 76.6824 89.6761 76L87.6672 77.0685C87.3687 77.2288 87.0724 77.389 86.7633 77.5279C86.5665 77.6177 86.1685 77.6925 86.0288 77.8741C85.7621 78.2096 86.2383 78.9512 86.3082 79.3551Z" fill="#BE6F72"/>
<path d="M85.6832 81.063C85.4059 81.2869 85.1893 81.5751 85.053 81.9018C84.9258 82.306 85.053 82.7325 85.168 83.1327C85.7068 84.8385 86.1184 86.5807 86.3997 88.3455C86.5721 89.5582 86.6357 90.7891 86.7199 92.016C86.8923 94.5183 87.1428 98.5082 87.4774 100.994C88.7091 101.049 89.9099 100.695 91.1314 100.566C93.4141 100.327 95.7645 100.873 98 100.364C97.4581 98.2556 96.9161 94.6557 96.3742 92.5496C96.1344 91.7198 95.9682 90.8711 95.8774 90.013C95.8302 89.3965 95.8589 88.778 95.8671 88.1575C95.8856 86.9448 95.8179 85.732 95.7501 84.5193C95.6721 83.1044 95.5941 81.6896 95.2534 80.305C95.2296 80.1286 95.1457 79.9654 95.0152 79.8422C94.81 79.6946 94.5431 79.7472 94.2988 79.7795C93.5508 79.873 92.7938 79.6964 92.168 79.2823C91.897 79.1004 91.5337 78.878 91.2812 79.0802C91.1735 79.2021 91.1024 79.3512 91.0759 79.5107C90.8499 80.0892 90.3816 80.5436 89.7909 80.7578C89.2059 80.9664 88.5932 81.0903 87.9721 81.1256C87.782 81.1658 87.5838 81.1438 87.4076 81.063C87.1161 80.8871 87.0956 80.2545 86.7281 80.212C86.4058 80.1757 85.9008 80.8588 85.6832 81.063Z" fill="#3F3D56"/>
<path d="M89.9522 87.0391C89.2137 86.3075 88.8896 85.2464 88.3513 84.3448C87.9847 83.7386 87.5164 83.2051 86.9685 82.7697C86.693 82.5813 86.4404 82.3593 86.2161 82.1085C86.026 81.866 85.8819 81.5427 85.5937 81.4495C85.352 81.395 85.0999 81.467 84.9193 81.6422C84.7429 81.8163 84.5759 82.0004 84.4191 82.1935C83.5706 83.1034 82.0797 83.2298 81.4074 84.2826C81.226 84.5059 81.1027 84.7734 81.0492 85.0598C80.8556 86.5922 81.2382 88.1431 82.1178 89.3915C82.2881 89.6809 82.5496 89.9005 82.8582 90.0132C82.8163 90.3997 82.8658 90.7909 83.0023 91.1532C83.3728 92.4649 83.8281 93.7493 84.365 94.9977C84.2366 95.4861 84.147 95.9845 84.0969 96.4879C83.9568 97.7542 84.0869 99.0392 83.9548 100.308C83.8467 101.344 83.5546 102.353 83.5446 103.392C83.5446 103.557 83.5586 103.754 83.6967 103.839C83.7701 103.878 83.8524 103.896 83.9348 103.891L86.3962 103.968C87.825 104.011 89.2678 104.055 90.6746 103.781C90.8619 103.753 91.0436 103.693 91.2129 103.605C91.6891 103.329 91.8472 102.708 91.9233 102.154C92.0226 101.436 92.0621 100.711 92.0413 99.9864C92.3395 100.963 92.6937 101.972 93.5942 102.395C94.0705 102.619 94.6148 102.602 95.1371 102.587C96.2628 102.536 97.3847 102.416 98.497 102.229C98.636 102.247 98.7749 102.195 98.8716 102.09C98.9682 101.985 99.0111 101.839 98.9872 101.696L98.9992 100.565C99.0233 98.2662 98.4729 96.0693 98.2588 93.7812C98.1908 93.0599 98.1968 92.3304 98.0267 91.6236C97.9567 91.3272 97.8546 91.0371 97.7926 90.7386C97.7392 90.4465 97.7057 90.1507 97.6925 89.8537L97.5364 87.5739C97.4624 86.5189 97.3563 85.5013 97.2783 84.4484C97.2354 83.4232 97.0919 82.4052 96.85 81.4101C96.6759 80.7883 96.3137 80.0836 95.6874 80.007C95.3532 79.9676 95.029 80.1189 94.7108 80.2246C93.9288 80.4796 93.0895 80.476 92.3095 80.2142C92.0685 80.1157 91.8174 80.0461 91.5611 80.007C91.2984 79.9699 91.0368 80.0824 90.8767 80.3013C90.799 80.4632 90.7625 80.6429 90.7706 80.8235C90.6766 82.894 90.5025 85.0267 89.9522 87.0391Z" fill="#00B476"/>
<path d="M86.9843 86.0018C85.9903 85.0094 84.9704 83.9986 83.6897 83.3677C83.1851 83.1185 82.6116 82.9307 82.0531 83.0246C81.4947 83.1185 80.9751 83.578 81.0009 84.115C81.0182 84.4479 81.2316 84.7419 81.2985 85.0686C81.3761 85.4362 81.264 85.8282 81.3847 86.1835C81.4828 86.4176 81.6295 86.6308 81.816 86.8104L83.3425 88.5236C83.9894 89.2383 84.6362 89.9631 85.4685 90.4573C86.3008 90.9514 87.3789 91.1822 88.2931 90.831C88.9435 90.5447 89.4844 90.0746 89.8412 89.4853C90.2207 88.9136 90.4881 88.2887 90.8438 87.6986C91.3975 86.7557 92.1282 85.9164 93 85.2218C92.5515 85.1115 91.9888 84.9563 91.7063 84.6092C91.6259 84.4988 91.5573 84.3812 91.5015 84.258L91.1522 83.5433C90.912 83.5314 90.6775 83.6151 90.5053 83.774C90.3555 83.938 90.1949 84.0928 90.0245 84.2375C89.7205 84.454 89.3086 84.5132 89.0327 84.7603C88.9259 84.8663 88.8292 84.9811 88.7437 85.1033C88.3214 85.629 87.6801 85.9565 86.9843 86.0018Z" fill="#3F3D56"/>
<path d="M92.276 81.9863C93.018 80.6534 92.9838 79.0551 93.1955 77.5494C93.2184 77.1507 93.3605 76.7675 93.6039 76.4481C94.0316 75.9722 94.7864 75.9658 95.4322 76.0269C95.6225 76.048 95.8599 76.1364 95.8492 76.3238C95.8342 76.391 95.8009 76.4529 95.753 76.5028C95.127 77.2984 94.7589 78.2611 94.6966 79.2656C95.0323 79.4952 95.552 79.0235 95.8749 79.2656C96.0887 79.4425 95.9903 79.7921 95.862 80.0448C95.5641 80.6302 95.2569 81.2114 94.9404 81.7884C94.6878 82.297 94.3583 82.7649 93.9632 83.1761C93.6916 83.433 93.373 83.6352 93.0971 83.8879C92.4556 84.4796 92.0686 85.3156 91.4057 85.8926C91.3497 85.9524 91.2738 85.9904 91.1918 86C91.1075 85.9941 91.028 85.959 90.9673 85.901C90.6362 85.6358 90.3615 85.3087 90.159 84.9387C89.9067 84.4796 89.9452 84.3448 90.3429 84.0205C91.0871 83.4414 91.812 82.8202 92.276 81.9863Z" fill="#BE6F72"/>
<path d="M85.8314 84.9158C85.954 84.9688 86.1052 85.029 86.24 84.9845C86.2951 84.9612 86.3419 84.9293 86.3769 84.8914C86.6104 84.6729 86.8053 84.4353 86.9571 84.1838C86.9832 84.1482 86.9979 84.1091 87 84.0692C87 83.9775 86.8835 83.9101 86.7753 83.8571C86.1951 83.5979 85.5713 83.39 84.9182 83.2383C84.3788 83.095 83.8149 82.9704 83.2429 83.0062C82.8086 83.0267 82.405 83.1705 82.1254 83.4045C81.7168 83.7726 82.4012 83.8844 82.8302 84.0176C83.8231 84.3342 84.8977 84.5175 85.8314 84.9158Z" fill="#00B476"/>
<path opacity="0.1" d="M85.0047 88.7561C84.9843 88.8457 85.0308 88.9363 85.1299 89C85.2163 88.7251 85.1031 88.4348 85.1925 88.158C85.3236 87.7419 85.9464 87.4283 86 87.0102C84.8587 86.8651 85.0137 88.3071 85.0047 88.7561Z" fill="black"/>
<path opacity="0.2" d="M121 73V74.599L113.235 75L113 73.3994L121 73Z" fill="black"/>
<path d="M83.9772 76.9011C84.4852 76.4723 84.1912 75.5733 84.5352 74.9974C84.7352 74.6825 85.0732 74.5168 85.4052 74.3759C85.8059 74.1818 86.2352 74.0585 86.6752 74.0114C87.1216 73.9669 87.5633 74.1354 87.8752 74.4692C88.0052 74.6224 88.0932 74.8089 88.2152 74.9684C88.523 75.3475 89.0069 75.521 89.4752 75.42C89.7412 75.3578 90.0172 75.1486 89.9992 74.8669C89.9691 74.6955 89.8846 74.5395 89.7592 74.4236L89.1872 73.7669C88.5372 73.0212 87.8152 72.2299 86.8612 72.0435C86.1972 71.913 85.5172 72.0973 84.8772 72.319C84.6192 72.408 84.3292 72.5406 84.2572 72.812C84.2092 72.9984 84.2812 73.2014 84.2392 73.3899C84.1572 73.7649 83.6932 73.8912 83.4772 74.2061C83.2612 74.5209 83.3272 74.8938 83.2652 75.2418C83.2032 75.5898 83.0232 75.9296 83.0012 76.29C82.9872 76.5075 83.0932 76.9114 83.3292 76.9901C83.5652 77.0689 83.8312 76.6421 83.9772 76.9011Z" fill="#3F3D56"/>
<path d="M90 74.5715C89.8308 73.5956 89.4659 72.674 88.9322 71.8743C88.4577 71.1271 87.7976 70.5478 87.0316 70.2063C86.2558 69.8713 85.3839 69.9473 84.6653 70.4126C84.1387 70.828 83.7289 71.3993 83.4831 72.0606C82.9633 73.2983 82.7706 74.8111 83.3747 76C83.6156 75.6762 84.029 75.8226 84.3943 75.705C84.8519 75.5608 85.2393 75.2237 85.6748 75.0129C86.9894 74.3719 88.5951 74.8909 90 74.5715Z" fill="#FED253"/>
<path opacity="0.1" d="M84.07 73.9678C84.0125 73.6458 83.975 73.272 84.295 73.043C84.3273 73.0146 84.3763 72.9987 84.4275 73.0001C84.4726 73.0106 84.5096 73.0339 84.53 73.0645C84.7147 73.2731 84.872 73.4934 85 73.7227C84.6188 73.6599 84.2225 73.7697 84 74" fill="black"/>
<path opacity="0.1" d="M88.0965 72.917L88.0226 72.2584C88.0107 72.2042 88.0156 72.148 88.037 72.0961C88.1011 72.0061 88.2305 71.9742 88.3368 72.0223C88.4378 72.0726 88.521 72.1474 88.577 72.2381C88.7479 72.4739 88.8898 72.7256 89 72.9889C88.6693 72.9317 88.3291 72.9355 88 73" fill="black"/>
<path opacity="0.1" d="M90 103V104.893L88.5623 105H81V103H90Z" fill="black"/>
<path d="M90 102.28V104H81.2487L58 75.3532V74H62.8738L90 102.28Z" fill="#F1C0C0"/>
<path opacity="0.1" d="M90 102.28V104H81.2487L58 75.3532V74H62.8738L90 102.28Z" fill="black"/>
<path opacity="0.1" d="M90 102.28V104H81.2487L58 75.3532V74L81.3745 102.28H90Z" fill="black"/>
<path d="M60.4039 132.45C60.4346 132.625 60.3952 132.807 60.2951 132.95C60.1951 133.094 60.0435 133.186 59.8767 133.206C59.3174 133.407 58.7238 133.607 58.3274 134.063C57.931 134.519 57.8525 135.366 58.3274 135.736C58.5701 135.892 58.8488 135.973 59.1322 135.97C60.0437 136.036 60.9935 136.023 61.8205 135.612C62.412 135.321 62.9694 134.824 63.6193 134.869C63.9553 134.89 64.3135 135.057 64.6133 134.894C64.9131 134.731 64.9976 134.277 64.9996 133.898C65.0073 133.106 64.8952 132.319 64.6676 131.565C64.6374 131.462 63.3577 131.383 63.2048 131.351L61.6534 131.136C61.3597 131.096 60.7259 130.86 60.4945 131.121C60.2631 131.383 60.4039 132.139 60.4039 132.45Z" fill="#00B476"/>
<path d="M70.0587 126.213C70.1303 126.603 70.2467 126.983 70.4055 127.347C70.6403 127.935 70.9411 128.561 71.5161 128.846C72.0385 129.104 72.6794 129.011 73.2106 128.766C73.4323 128.676 73.6266 128.53 73.7747 128.344C73.9461 128.05 74.0226 127.711 73.9942 127.373C73.9942 126.535 73.9437 125.67 73.5552 124.926C73.2216 124.277 72.6399 123.718 72.6312 123L70.6316 123.381C70.5245 123.391 70.4226 123.431 70.3374 123.495C70.2741 123.561 70.2301 123.643 70.2101 123.731C69.9966 124.541 69.9452 125.384 70.0587 126.213Z" fill="#00B476"/>
<path d="M48.0298 107.325C47.9634 107.973 47.9914 108.668 48.285 109.227C48.5785 109.787 49.1971 110.157 49.7319 109.934C49.7872 109.918 49.8345 109.876 49.8629 109.819C49.8772 109.751 49.8691 109.679 49.8402 109.618C49.6041 108.892 49.6236 108.089 49.8944 107.379C49.9293 107.287 50.0045 107.178 50.0866 107.214C50.121 107.234 50.1486 107.267 50.1652 107.307C50.2498 107.475 50.2922 107.668 50.2876 107.862C50.2629 108.039 50.2582 108.218 50.2736 108.396C50.3068 108.569 50.4676 108.732 50.6073 108.658C50.689 108.6 50.7465 108.506 50.7664 108.398C51.1561 107.099 50.9796 105.68 50.8013 104.321C50.8043 104.258 50.7829 104.197 50.7427 104.153C50.7026 104.11 50.6479 104.09 50.5934 104.098C49.7686 104.003 49.3177 103.776 48.8459 104.659C48.4405 105.404 48.0298 106.429 48.0298 107.325Z" fill="#00B476"/>
<path d="M59.6113 103.589C59.3162 104.782 59.019 105.989 59 107.215C59.0052 107.978 59.0643 108.741 59.1771 109.496L59.3984 111.272C59.4743 111.87 59.548 112.467 59.6555 113.059C59.7241 113.364 59.7615 113.675 59.7673 113.988C59.7466 114.296 59.6965 114.601 59.6176 114.9C59.4851 115.528 59.411 116.166 59.3963 116.806C59.3731 117.831 59.5038 118.856 59.586 119.881C59.7501 121.924 59.7254 123.976 59.5122 126.014C59.4271 126.564 59.5499 127.126 59.8579 127.595C59.9829 127.743 60.0858 127.907 60.1635 128.083C60.3216 128.552 59.9528 129.022 59.8579 129.503C59.7316 130.285 60.2806 131.019 61.0847 131.143C62.771 131.338 64.5036 131.25 66.0234 132C66.1836 131.545 65.8337 131.028 65.9939 130.565C66.0951 130.278 66.3733 130.092 66.563 129.85C66.8179 129.481 66.9449 129.043 66.9256 128.599C66.933 128.02 66.8271 127.445 66.6136 126.904C66.4344 126.453 66.1773 126.008 66.192 125.524C66.192 125.287 66.2784 125.037 66.1794 124.817C66.1114 124.691 66.0191 124.579 65.9075 124.487C65.2775 123.816 64.8904 122.963 64.805 122.058C64.7228 121.16 64.7526 120.256 64.8936 119.365C64.9969 118.516 65.136 117.62 65.6903 116.958C65.4333 114.95 65.5844 112.913 66.1351 110.962C66.1899 110.782 66.2763 110.573 66.466 110.53C66.619 110.514 66.77 110.572 66.8707 110.685C67.2017 110.987 67.3598 111.423 67.5031 111.841C67.6612 112.294 67.8214 112.778 67.7012 113.242C67.6507 113.447 67.5495 113.627 67.4905 113.824C67.3622 114.219 67.3847 114.646 67.5537 115.027C67.6361 115.166 67.6878 115.32 67.7055 115.48C67.6859 115.617 67.6432 115.75 67.579 115.874C67.4209 116.364 67.4845 116.897 67.7539 117.339C68.0226 117.775 68.3541 118.17 68.7383 118.514C68.5547 119.301 68.6022 120.122 68.8753 120.883C68.9151 120.953 68.925 121.035 68.9027 121.111C68.8648 121.189 68.7678 121.218 68.6919 121.273C68.4812 121.441 68.6118 121.759 68.7531 121.978C69.1401 122.58 69.5675 123.157 70.0325 123.704C70.4541 124.194 70.4162 125.139 71.0443 125.315C71.3083 125.371 71.5813 125.371 71.8453 125.315C72.465 125.223 73.1564 125.049 73.4599 124.516C73.5843 124.297 73.6349 124.03 73.8288 123.866C74.0227 123.702 74.2735 123.673 74.3811 123.477C74.4886 123.28 74.3684 123.022 74.4042 122.794C74.4401 122.566 74.6445 122.384 74.7099 122.144C74.8659 121.591 74.2019 121.136 74.1112 120.57C73.9806 119.75 75.0429 119.135 74.9987 118.315C74.9059 116.534 74.8469 114.744 74.752 112.963C74.633 111.367 74.6161 109.766 74.7014 108.168C74.7752 107.174 74.9122 106.133 74.537 105.208C73.9974 103.904 72.5093 103.173 71.0696 103.033C69.6299 102.894 68.1945 103.226 66.7675 103.443C64.3991 103.798 61.9928 103.847 59.6113 103.589Z" fill="#3F3D56"/>
<path d="M63.5 85C65.433 85 67 83.433 67 81.5C67 79.567 65.433 78 63.5 78C61.567 78 60 79.567 60 81.5C60 83.433 61.567 85 63.5 85Z" fill="#FBBEBE"/>
<path d="M62.3414 85.288C62.1172 85.8768 61.5949 86.2493 61.027 86.2255C60.9103 86.7703 61.1901 87.3196 61.5101 87.7486C62.8633 89.5244 64.9622 90.3362 66.997 89.8709C67.3858 89.7924 67.7548 89.6188 68.0778 89.3624C68.5134 88.9523 68.8058 88.3812 68.9031 87.7508C68.9957 87.1248 69.0221 86.4886 68.9816 85.8555C68.9929 85.7305 68.9612 85.6054 68.893 85.5059C68.8125 85.4356 68.713 85.3988 68.6112 85.4015C67.9309 85.3334 67.2204 85.3039 66.6226 84.9271C66.0248 84.5503 65.6001 83.6991 65.8879 83C65.8416 83.109 64.6662 83.1612 64.5112 83.1839C64.0261 83.261 63.541 83.3473 63.0579 83.4472C62.8258 83.4615 62.5964 83.5104 62.3756 83.5924C62.0838 83.7627 62.1924 83.6787 62.2609 83.9874C62.3635 84.4595 62.5145 84.7977 62.3414 85.288Z" fill="#FBBEBE"/>
<path d="M64.9007 86.4644C64.4559 86.4697 64.0121 86.4193 63.5793 86.3143C63.1422 86.2097 62.7569 85.9461 62.4949 85.5725C62.3423 85.3358 62.2434 85.0378 62.0001 84.9046C61.6022 84.6933 61.1487 85.0504 60.8312 85.378C60.5422 85.7011 60.2072 85.9776 59.8375 86.1981C59.3964 86.4369 58.881 86.5215 58.4646 86.8026C58.1392 87.0546 57.86 87.3637 57.6399 87.7156L54.7187 91.7947C53.5457 93.4348 52.5252 95.1954 51.48 96.9263C50.575 98.4248 50.1009 100.149 49.4185 101.766C49.3644 101.865 49.3421 101.979 49.3546 102.092C49.3793 102.202 49.5092 102.29 49.5999 102.227C49.2927 102.54 49.5628 103.072 49.4906 103.512C49.4086 103.82 49.2375 104.095 49 104.3C49.4538 104.24 49.9144 104.262 50.3606 104.366C50.8218 104.5 51.2569 104.714 51.647 105C51.8965 104.96 51.8738 104.505 52.0593 104.336C52.1707 104.237 52.3356 104.25 52.482 104.22C53.0324 104.11 53.2509 103.432 53.6735 103.049C54.026 102.73 54.5249 102.627 54.8981 102.326C55.5042 101.838 55.6341 100.97 55.9515 100.249C56.2216 99.638 56.6463 99.1054 56.8834 98.4798C57.038 98.074 57.1122 97.6344 57.3328 97.2603C57.6853 96.6558 58.3491 96.3346 58.982 96.045C59.3819 95.8611 59.8066 95.6709 60.2375 95.7005C60.2148 96.6833 60.0932 97.6513 60.3014 98.6108C60.3735 98.949 60.4746 99.2787 60.5611 99.6147C60.9549 101.128 61.0477 102.705 61.0662 104.264C62.0134 104.042 62.9808 103.923 63.9524 103.909C64.7172 103.886 65.48 103.988 66.2448 103.973C67.1519 103.956 68.0487 103.776 68.9558 103.713C69.8628 103.649 70.8112 103.713 71.6131 104.136C71.548 102.796 71.5845 101.454 71.7224 100.12L71.9409 98.019C71.9902 97.4087 72.0818 96.8027 72.2151 96.2056C72.3346 95.7237 72.5078 95.2588 72.6397 94.779C73.1036 93.0882 73.0191 91.2832 72.9304 89.5227C72.8851 88.6181 72.5449 87.7283 72.145 86.923C72.0002 86.6239 71.8349 86.3357 71.6502 86.0607C70.6679 84.6731 69.0599 83.8991 67.3911 84.0106C67.2862 84.0139 67.1828 84.0368 67.0859 84.0782C66.9119 84.1924 66.776 84.3583 66.6963 84.5538C66.2698 85.3397 65.6509 85.9982 64.9007 86.4644Z" fill="#3F3D56"/>
<path d="M61.0098 81.9451C61.1024 81.7444 61.3516 81.6702 61.504 81.5096C61.7964 81.2046 61.6646 80.7169 61.7099 80.3055C61.784 79.7035 62.2968 79.1997 62.8837 78.985C63.4821 78.7978 64.119 78.7585 64.7369 78.8706C65.0344 78.8918 65.3217 78.9849 65.573 79.1415C65.6801 79.2178 65.7789 79.3161 65.8798 79.3864C66.2623 79.6117 66.7594 79.4986 67 79.1315C66.271 78.2766 65.4638 77.3735 64.356 77.1106C63.9759 77.035 63.5886 76.9993 63.2008 77.0042C62.688 76.9942 62.1588 76.9862 61.6852 77.1768C61.0407 77.4357 60.5876 78.0317 60.355 78.6739C60.1515 79.3249 60.0426 80.0004 60.0317 80.6808C59.9894 81.1348 59.9894 81.5915 60.0317 82.0455C60.1113 82.6654 60.3476 83.2564 60.7194 83.7653C60.7697 83.8444 60.8408 83.9088 60.9254 83.952C61.8644 84.3533 60.9336 82.1117 61.0098 81.9451Z" fill="#3F3D56"/>
<path d="M66 79.6684C65.8954 78.7306 65.2564 77.9561 64.5774 77.3329C64.0302 76.7925 63.3783 76.3817 62.666 76.1283C61.949 75.9073 61.1236 75.9551 60.5093 76.4031C60.0148 76.7635 59.701 77.3369 59.4595 77.9143C59.1422 78.5957 58.985 79.3466 59.0011 80.1045C59.0487 80.8571 59.3986 81.6197 60.0224 82C60.2468 81.6536 60.6367 81.4744 61.0114 81.333C62.6444 80.6844 64.3097 80.1287 66 79.6684Z" fill="#FED253"/>
<path opacity="0.1" d="M60.2812 79.0001C60.3639 79.0001 60.4182 79.0684 60.4596 79.1242C60.6701 79.3866 60.851 79.6635 61 79.9517C60.6975 80.0034 60.1778 80.0613 60.0278 79.8482C59.9477 79.7407 60.0433 78.9898 60.2812 79.0001Z" fill="black"/>
<path opacity="0.1" d="M65.1171 77.9878C65.0631 78.0338 65.0002 77.9398 65.0002 77.8718V77.0956C64.9988 77.074 65.0042 77.0525 65.016 77.0336C65.0348 77.0144 65.0615 77.0029 65.0901 77.0016C65.2721 76.9836 65.4226 77.1216 65.5394 77.2536C65.7167 77.4676 65.8709 77.696 66 77.9358L65.0497 77.9098" fill="black"/>
<path d="M75.7309 91.1909C75.9242 91.0145 76.1307 90.8518 76.3486 90.7042C76.9306 90.3306 77.6344 90.1832 78.2878 89.9449C78.9413 89.7066 79.6052 89.3209 79.8594 88.6949C79.9867 88.3035 80.0282 87.8909 79.9813 87.4833C79.9874 87.3126 79.9559 87.1426 79.8888 86.9845C79.8089 86.8447 79.695 86.7256 79.5569 86.6372C78.6702 86.0071 77.481 85.9566 76.3801 86.0212C73.9529 86.1659 71.5737 86.7367 69.3605 87.7054C69.2434 87.7426 69.1409 87.813 69.0663 87.9074C69.0233 87.9949 69.0037 88.0914 69.0096 88.1881C68.9705 88.7836 69.0511 89.3807 69.247 89.9469C69.537 90.6658 70.1337 91.2454 70.3837 91.9785C70.4972 92.3076 70.535 92.657 70.6337 92.9881C70.7147 93.3302 70.9252 93.631 71.2241 93.8323C72.054 94.3088 72.8377 93.6687 73.4134 93.1719L75.7309 91.1909Z" fill="#3F3D56"/>
<path d="M65.3726 93.8507L64.3295 91.5685C64.1766 91.2522 64.0446 90.9261 63.9345 90.5924C63.8152 90.1942 63.7575 89.7815 63.6464 89.3811C63.2802 88.0481 62.3565 86.9379 61.9059 85.6317C61.8774 85.5138 61.8193 85.4051 61.7372 85.316C61.6041 85.2215 61.436 85.1913 61.2784 85.2335C60.6488 85.3428 60.1571 85.8236 59.581 86.096C59.3136 86.2198 59.0255 86.3024 58.7581 86.4448C58.4876 86.5733 58.2863 86.8136 58.2067 87.103C58.1429 87.4187 58.2993 87.7221 58.431 88.0295C58.9906 89.2965 59.1181 90.7121 59.1428 92.0988C59.1613 93.0315 59.114 94.0323 58.5647 94.7814C57.5092 96.2259 58.1841 98.3472 58.5791 100.095C58.6264 100.301 58.682 100.524 58.7149 100.743C58.7497 101.017 58.7655 101.292 58.7622 101.568C58.7622 102.495 58.7108 103.45 58.324 104.29C58.7058 104.494 59.1267 104.614 59.5584 104.641C60.7531 104.794 61.9525 104.901 63.1568 104.963C63.5341 104.998 63.9146 104.979 64.2863 104.905C65.1945 104.659 65.8205 103.826 65.8067 102.883C65.8725 103.454 65.9939 104.076 66.4075 104.472C66.821 104.868 67.4238 104.928 67.9855 104.959C69.5707 105.043 71.1601 104.998 72.7381 104.825C72.8388 104.82 72.9378 104.797 73.0302 104.756C73.3347 104.604 73.3512 104.183 73.3265 103.844C73.2812 103.211 73.2339 102.577 73.1578 101.948C73.0932 101.547 73.0602 101.141 73.059 100.735C73.0904 100.317 73.1592 99.9022 73.2648 99.4966C73.5404 98.2089 73.7585 96.8944 73.6659 95.5759C73.6294 95.2546 73.6163 94.9312 73.6269 94.6081C73.6803 93.8796 74.063 93.1863 73.991 92.462C73.7853 90.3324 73.6186 88.1472 73.0261 86.0919C72.9191 85.7246 72.7833 85.3304 72.4644 85.12C72.0529 84.8435 71.4748 84.9879 71.0037 84.8125C70.7826 84.7093 70.5724 84.5842 70.3762 84.439C69.9498 84.1716 69.4611 84.0208 68.9586 84.0015C68.5801 83.9871 68.1583 84.0717 67.9299 84.3771C67.8242 84.549 67.7542 84.7407 67.7242 84.9404C67.4259 86.1992 67.0761 87.4435 66.7264 88.6878L66.391 89.8805L65.4919 93.0831C65.4035 93.4236 65.4631 93.5288 65.3726 93.8507Z" fill="#00B476"/>
<path d="M69.9558 82L90 102.28V104H81.0627L66 85.0725" fill="#F1C0C0"/>
<path opacity="0.1" d="M69.9558 82L90 102.28V104H81.0627L66 85.0725" fill="black"/>
<path opacity="0.1" d="M66.3191 85L66.3834 85.0229L81.1912 103.208H90V105H81.0627L66 85.2786L66.3191 85Z" fill="black"/>
<path d="M68.9793 84.7757C68.1772 85.0597 67.2858 85.4235 67.0452 86.1065C66.9977 86.2264 66.9874 86.3539 67.0154 86.4778C67.1354 86.7759 67.4698 86.9833 67.8564 86.9993C68.2338 87.0068 68.609 86.9512 68.9587 86.836L73.6908 85.5701C73.8191 85.5367 73.9658 85.4866 73.9979 85.3845C74.0061 85.3203 73.9901 85.2556 73.9521 85.1989C73.8054 84.9093 73.661 84.3172 73.3539 84.1149C73.1019 83.9516 72.6023 84.0091 72.2975 84.0128C71.1242 84.0202 70.022 84.4045 68.9793 84.7757Z" fill="#00B476"/>
<path d="M72.9217 86.3359C73.6488 86.3338 74.3718 86.4442 75.0641 86.663C75.7595 86.8852 76.3754 87.2993 76.8386 87.8561C76.9734 88.0118 77.0694 88.1964 77.1186 88.3951C77.1604 88.6008 77.8418 88.7243 77.6913 88.8642C78.149 88.7922 78.0404 89.0041 78.5044 88.9999C78.9684 88.9958 79.47 88.8786 79.748 88.5144C79.9411 88.2153 80.0272 87.8613 79.9925 87.5085C79.9986 87.2642 79.9516 87.0216 79.8546 86.7967C79.6455 86.3647 79.1648 86.1322 78.7217 85.9327L74.9888 84.2519C74.7723 84.1386 74.5398 84.0574 74.2991 84.0112C74.0965 83.9924 73.8923 83.9972 73.6909 84.0256L72 84.217C72.7523 84.6962 73.1918 85.5307 73.1558 86.412" fill="#3F3D56"/>
</svg>
