<svg width="184" height="132" viewBox="0 0 184 132" fill="none" xmlns="http://www.w3.org/2000/svg">
<rect opacity="0.3" x="113" y="8" width="13" height="5" fill="#00B476"/>
<rect opacity="0.3" x="134" width="13" height="5" fill="#00B476"/>
<rect opacity="0.3" x="134" y="15" width="13" height="5" fill="#00B476"/>
<rect opacity="0.3" x="93" y="21" width="13" height="5" fill="#00B476"/>
<rect opacity="0.3" x="89" y="40" width="13" height="5" fill="#00B476"/>
<rect opacity="0.3" x="109" y="40" width="13" height="5" fill="#00B476"/>
<path d="M133.151 3L125 11.1651L134 18" stroke="#3F3D56"/>
<path d="M112 10L99 20" stroke="#3F3D56"/>
<path d="M96 41L100.201 26L116 40.5572" stroke="#3F3D56"/>
<rect opacity="0.3" x="23" y="13" width="13" height="5" fill="#00B476"/>
<rect opacity="0.3" x="45" y="5" width="13" height="5" fill="#00B476"/>
<rect opacity="0.3" x="46" y="20" width="13" height="5" fill="#00B476"/>
<rect opacity="0.3" x="4" y="26" width="13" height="5" fill="#00B476"/>
<rect opacity="0.3" y="46" width="13" height="5" fill="#00B476"/>
<rect opacity="0.3" x="20" y="45" width="13" height="5" fill="#00B476"/>
<path d="M45.151 8L37 16.1651L46 23" stroke="#3F3D56"/>
<path d="M24 16L11 26" stroke="#3F3D56"/>
<path d="M6 45L10.2008 30L26 44.5572" stroke="#3F3D56"/>
<path d="M59 22.9991H74" stroke="#3F3D56"/>
<rect x="67" y="20" width="16" height="5" fill="#00B476"/>
<path d="M82 22.9991H92" stroke="#3F3D56"/>
<path d="M67 23L58 8" stroke="#3F3D56"/>
<path d="M112.5 132C151.988 132 184 124.837 184 116C184 107.163 151.988 100 112.5 100C73.0116 100 41 107.163 41 116C41 124.837 73.0116 132 112.5 132Z" fill="#F2F2F2"/>
<path d="M145 64L138.126 99H136.638L136.474 98.7415L136 97.9919L141.953 65.2962L142.856 64.9116L145 64Z" fill="#47465A"/>
<path opacity="0.1" d="M143 64L136.484 98L136 97.2466L142.077 64.3865L143 64Z" fill="black"/>
<path d="M156 112.281L154.161 112.859L153.713 113L153.123 111.706L143 66.7129L144.053 66.483L146.264 66L156 112.281Z" fill="#47465A"/>
<path opacity="0.1" d="M154 112.858L153.559 113L152.978 111.693L143 66.2323L144.037 66L154 112.858Z" fill="black"/>
<path d="M71 64L69.4286 108.575L67.6278 108.972L67.5001 109L67 108.08L68 64.4244L68.9621 64.2886L71 64Z" fill="#47465A"/>
<path opacity="0.1" d="M68 64L66.6399 108.972L66.5098 109L66 108.074L67.0193 64.1367L68 64Z" fill="black"/>
<path d="M80 125.64L78.0917 125.964L77.878 126L77.2927 124.776L68 65.5041L68.2678 65.4241L69.683 65L80 125.64Z" fill="#47465A"/>
<path opacity="0.1" d="M78 124.964L77.7882 125L77.2083 123.787L68 65.0792L68.2654 65L78 124.964Z" fill="black"/>
<path d="M120 60.3978L127.036 69.1479C127.527 69.7578 128.308 70.075 129.099 69.9849L157.984 66.6926C159.133 66.5615 160 65.6135 160 64.487V58L120 60.3978Z" fill="#7A799C"/>
<path d="M143 61H145V64.181C145 64.6333 144.667 65 144.257 65H143.743C143.333 65 143 64.6333 143 64.181V61Z" fill="#47465A"/>
<path d="M68 65.3978L75.0364 74.1479C75.5268 74.7578 76.3083 75.075 77.0987 74.9849L105.984 71.6926C107.133 71.5615 108 70.6135 108 69.487V63L68 65.3978Z" fill="#7A799C"/>
<path d="M92 66H94V69.181C94 69.6333 93.6673 70 93.2569 70H92.7431C92.3327 70 92 69.6333 92 69.181V66H92Z" fill="#47465A"/>
<path d="M75.3867 69.9439L160.888 59.9694C161.44 59.905 161.884 59.4859 161.981 58.9382C162.078 58.3906 161.804 57.8441 161.308 57.5939L146.014 49.8903C143.001 48.373 139.619 47.7489 136.264 48.0915L60.3027 55.8486C59.7485 55.9067 59.2762 56.2768 59.0867 56.8017C58.8972 57.3265 59.0239 57.9136 59.4128 58.3132L68.2585 67.4025C70.1138 69.3089 72.746 70.2473 75.3867 69.9439Z" fill="#47465A"/>
<path d="M171 58.49L170.046 58C170.046 58 169.016 58.7045 168.178 61.6725C167.339 64.6405 169.745 61.7047 169.745 61.7047L170.798 59.6776L171 58.49Z" fill="#47465A"/>
<path d="M161 87.1889C161 87.1889 160.066 91.4782 159.636 92.6736C159.424 93.2587 158.405 93.7938 157.274 94.203C156.272 94.5686 155.235 94.8336 154.178 94.9941C152.957 95.1347 137.301 92.7439 129.689 91.1267C124.561 90.0375 123.898 88.7879 124.011 88.089C124.048 87.8809 124.15 87.6892 124.303 87.5405C124.303 87.5405 131.843 82.548 134.5 80.1573C137.158 77.7665 142.4 79.6651 148.145 80.6495C153.89 81.6339 161 87.1889 161 87.1889Z" fill="#47465A"/>
<path d="M170.445 59C170.445 59 174.074 61.2722 161.855 65.9586C161.855 65.9586 155.213 69.549 156.078 84.3395C156.119 85.0046 156.33 85.6498 156.693 86.218C157.953 88.2062 160.655 93.2391 156.152 93.8639V95C156.152 95 164.299 91.0947 165.187 87.7574C166.076 84.4201 169.038 65.8876 170.519 64.1834C172 62.4793 172.963 59.7811 170.445 59Z" fill="#47465A"/>
<path opacity="0.1" d="M158 94.1927C156.976 94.563 155.916 94.8315 154.836 94.994C153.588 95.1364 137.591 92.7149 129.813 91.0768C124.573 89.9736 123.896 88.7079 124.012 88C127.456 89.1431 138.641 92.7712 142.655 93.071C147.424 93.4271 156.537 94.4171 157.227 93.744C157.493 93.4848 157.765 93.7583 158 94.1927Z" fill="black"/>
<path d="M116 123L122.604 92.1338C122.604 92.1338 123.786 88.8623 126.497 89.0045L129 90.2847C129 90.2847 124.829 89.289 123.925 92.5605C123.021 95.8321 117.251 123 117.251 123H116Z" fill="#47465A"/>
<path d="M133 110L135.764 90H137L134.164 110H133Z" fill="#47465A"/>
<path d="M158.667 128L156 98.4062C156 98.4062 156 95.9043 157.333 94.6891C158.667 93.4738 162.971 90.0073 162.971 90.0073C162.971 90.0073 164.074 89.7567 164.963 92.1872C165.852 94.6176 172 118.922 172 118.922L170.815 119.422L163.185 91.4009L157.926 96.1902C157.926 96.1902 156.889 97.9773 157.407 99.6214C157.926 101.265 159.852 128 159.852 128H158.667Z" fill="#47465A"/>
<path d="M151 94L157.545 96L159 94.5384L155.218 94H151Z" fill="#47465A"/>
<path d="M93.0035 41.4937L94.0532 58L117 55.6624L116.087 39.5268C116.062 39.0902 115.87 38.6825 115.555 38.3962C115.24 38.1099 114.827 37.9691 114.412 38.0057L94.4184 39.7686C93.5769 39.8428 92.9473 40.6104 93.0035 41.4937Z" fill="#7A799C"/>
<path d="M126 59.5162L102.695 61.9097L101.816 62L95 57.8605V56.9635L118.158 55L126 59.5162Z" fill="#7A799C"/>
<path opacity="0.1" d="M103 62.9086L102.086 63L95 58.8125V58L103 62.9086Z" fill="black"/>
<path d="M95 41.5556L95.7561 56L115 54.0742L114.313 40L95 41.5556Z" fill="#9493B6"/>
<path opacity="0.1" d="M107 59.5625L109.482 61L117 60.3749L114.445 59L107 59.5625Z" fill="black"/>
<path d="M97 56.7932L100.11 59L120 57.207L116.456 55L97 56.7932Z" fill="#9493B6"/>
<rect x="132" y="36" width="14" height="15" fill="#FF6584"/>
<rect opacity="0.1" x="132" y="36" width="14" height="15" fill="black"/>
<path d="M137.284 42.7579C137.284 42.7579 139.277 48.4754 137.284 49.5309C135.291 50.5864 144.426 49.5309 144.426 49.5309L147 47.3319C147 47.3319 141.187 45.5727 142.018 41.5265C142.848 37.4803 137.284 42.7579 137.284 42.7579Z" fill="#FBBEBE"/>
<path opacity="0.1" d="M137.284 42.7579C137.284 42.7579 139.277 48.4754 137.284 49.5309C135.291 50.5864 144.426 49.5309 144.426 49.5309L147 47.3319C147 47.3319 141.187 45.5727 142.018 41.5265C142.848 37.4803 137.284 42.7579 137.284 42.7579Z" fill="black"/>
<path d="M121 99.0461C121 99.0461 128.357 109.606 127.131 112.516C125.905 115.426 126.559 117.256 124.106 118.253C121.654 119.251 121 121.08 123.125 120.997C125.251 120.914 128.03 120.332 128.439 119.584C128.848 118.835 129.828 115.26 131.218 114.761C132.608 114.262 135.224 112.35 133.343 110.022C131.463 107.694 126.726 99.1181 127.092 98.2506C127.458 97.3831 121 99.0461 121 99.0461Z" fill="#FBBEBE"/>
<path d="M135.106 78C135.106 78 119.277 79.0136 115.192 82.8146C111.107 86.6156 118.766 100.806 119.617 100.975C120.468 101.144 127.106 100.468 126.851 98.6099C126.596 96.7516 122.085 89.1496 122.085 89.1496C122.085 89.1496 127.958 87.038 131.192 86.5312C134.426 86.0244 138 83.6593 138 83.6593L135.106 78Z" fill="#9493B6"/>
<path d="M129 74.3358C129 74.3358 129.276 83.6532 131.854 83.989C134.432 84.3248 131.854 76.854 131.854 76.854L131.762 74L129 74.3358Z" fill="#FBBEBE"/>
<path d="M136 49.2356C136 49.2356 131.527 47.9529 130.667 51.3733C129.806 54.7937 129.548 66.594 129.548 66.594L128 76C128 76 130.839 75.1449 131.441 75.5725L135.054 71.0405L136 49.2356Z" fill="#00B476"/>
<path opacity="0.1" d="M136 49.2356C136 49.2356 131.527 47.9529 130.667 51.3733C129.806 54.7937 129.548 66.594 129.548 66.594L128 76C128 76 130.839 75.1449 131.441 75.5725L135.054 71.0405L136 49.2356Z" fill="black"/>
<path d="M142.483 101C142.483 101 145.407 106.908 147.164 106.822C148.921 106.736 150.594 105.618 151.431 109.144C152.267 112.669 151.263 111.723 152.267 113.787C153.271 115.851 153.439 119.463 151.514 120.322C149.59 121.182 147.833 121.268 147.749 120.322C147.666 119.377 149.423 119.377 147.415 116.023C145.407 112.669 141.14 106.564 139.383 105.962C137.626 105.36 142.483 101 142.483 101Z" fill="#FBBEBE"/>
<path d="M150.434 73C150.434 73 156.708 83.488 152.612 86.547C148.517 89.606 136.318 95.4618 136.318 95.4618C136.318 95.4618 142.853 99.9192 143.202 101.405C143.55 102.891 140.065 106.911 138.845 106.999C137.625 107.086 134.053 102.978 130.219 101.929C126.385 100.881 124.032 93.3642 128.215 90.5674C132.397 87.7706 136.318 83.1384 136.318 83.1384L135.099 76.4095L150.434 73Z" fill="#9493B6"/>
<path d="M145 39.4425C145 43.0324 141.26 46 137.61 46C133.959 46 131 43.0899 131 39.5C131 35.9101 133.959 33 137.61 33C141.26 33 145 35.8527 145 39.4425Z" fill="#FBBEBE"/>
<path d="M139.099 48.9987C139.099 48.9987 144.971 46.4096 144.971 46.0644C144.971 45.7192 148.375 46.8412 149.141 47.5316C149.907 48.222 150.332 48.1357 150.843 49.5166C151.354 50.8974 148.29 63.7566 148.29 63.7566C148.29 63.7566 149.992 73.6815 150.928 74.6308C151.864 75.5802 143.354 76.961 143.354 76.961C143.354 76.961 137.737 77.9967 136.801 78.4282C135.865 78.8597 134.163 79.4638 134.504 78.4282C134.844 77.3925 136.291 76.6158 133.823 75.3213C133.823 75.3213 134.674 71.0924 133.823 69.1937C132.972 67.295 129.057 60.3908 132.206 55.3852C135.355 50.3796 136.801 48.5672 136.801 48.5672C136.801 48.5672 137.908 49.5166 139.099 48.9987Z" fill="#00B476"/>
<path d="M141.005 73C141.005 73 134.521 76.0083 132.568 76.2867C130.614 76.5652 124.712 78.1304 127.954 79.5217C131.196 80.913 136.1 78.8261 136.1 78.8261L143 75.7826L141.005 73Z" fill="#FBBEBE"/>
<path opacity="0.1" d="M148.468 49.1526C148.468 49.1526 150.853 47.9912 151.515 52.0758C152.178 56.1605 154.496 69.0812 151.515 70.9984C148.534 72.9157 141.662 76 141.662 76C141.662 76 137.604 73.2491 139.509 72.2488C141.413 71.2485 145.967 68.4143 146.63 67.414C147.292 66.4137 147.962 55.2481 146.802 53.4142C145.643 51.5803 148.468 49.1526 148.468 49.1526Z" fill="black"/>
<path d="M147.541 48.001C147.541 48.001 150.853 47.8333 151.515 51.9409C152.178 56.0486 154.496 69.0422 151.515 70.9702C148.534 72.8983 141.662 76 141.662 76C141.662 76 137.604 73.2336 139.509 72.2277C141.413 71.2217 145.967 68.3715 146.63 67.3656C147.292 66.3596 146.133 55.8809 144.974 54.0367C143.814 52.1924 147.541 48.001 147.541 48.001Z" fill="#00B476"/>
<path d="M135.716 29.0805C134.643 29.22 133.492 29.595 132.952 30.4917C132.688 30.9305 132.603 31.4453 132.399 31.9127C131.838 33.2025 130.474 33.9727 129.489 35.0053C128.206 36.3511 127.568 38.3792 128.325 40.05C128.618 40.6969 129.094 41.2512 129.455 41.8661C130.462 43.5815 130.516 45.6417 130.545 47.6083L130.601 51.475C130.609 52.0654 130.616 52.6678 130.43 53.2309C130.244 53.794 129.829 54.3214 129.239 54.4992C130.577 54.9423 132.059 54.4588 132.834 53.3264C132.997 54.3153 132.636 55.3171 131.87 56C133.472 55.6395 134.816 54.5261 135.663 53.1773C136.509 51.8285 136.902 50.2596 137.078 48.696C137.171 47.869 137.203 47.0138 136.93 46.2241C136.737 45.6679 136.401 45.1692 136.082 44.6689C135.26 43.3789 134.52 42.0069 134.255 40.518C133.989 39.029 134.256 37.3953 135.268 36.235C136.055 35.3267 137.232 34.8109 138.466 34.8339C139.705 34.8796 140.829 35.5373 141.435 36.5702C141.669 36.9907 142.002 37.5605 142.476 37.4128C142.563 37.3773 142.649 37.3371 142.732 37.2925C143.26 37.0628 143.861 37.5159 144.094 38.0239C144.828 39.626 143.475 41.3749 143.335 43.1189C143.205 44.7412 144.151 46.2713 145.283 47.4872C147.238 49.5789 149.791 51.0776 152.628 51.7983C152.213 51.6983 151.84 51.4773 151.563 51.166C152.716 51.21 153.87 51.1176 155 50.8907C153.77 50.0053 152.532 49.1124 151.505 48.016C150.478 46.9196 149.665 45.5929 149.444 44.1371C149.146 42.1833 149.908 40.0675 149.037 38.2771C148.241 36.6402 146.266 35.7255 145.545 34.0571C144.813 32.3625 144.338 30.8903 142.398 30.1525C140.282 29.3474 138.003 28.7832 135.716 29.0805Z" fill="#FF6584"/>
</svg>
