<svg width="135" height="136" viewBox="0 0 135 136" fill="none" xmlns="http://www.w3.org/2000/svg">
<path opacity="0.213053" fill-rule="evenodd" clip-rule="evenodd" d="M62.7654 3.30605C63.7852 1.5437 65.6667 0.471715 67.6896 0.500571H115.368C126.144 0.500571 135 9.43293 135 20.3023V45.7618C135.029 47.8021 133.966 49.7 132.219 50.7286C130.471 51.7572 128.31 51.7572 126.563 50.7286C124.816 49.7 123.753 47.8021 123.782 45.7618V20.3023C123.782 15.5453 120.084 11.8159 115.368 11.8159H67.6896C65.6667 11.8447 63.7852 10.7727 62.7654 9.0104C61.7456 7.24805 61.7456 5.06839 62.7654 3.30605ZM15.5946 20.25C15.5946 9.45522 22.1384 0.494362 33.5005 0.500005C40.3233 0.500005 41.5992 5.28993 41.6348 5.42364L41.6352 5.42514C41.6355 5.42609 41.6356 5.42654 41.6356 5.42648C48.3021 5.42648 51.4064 12.2487 51.4064 20.239C51.4064 24.2285 49.6944 27.535 49.6944 27.535C50.3867 27.9357 51.5276 29.2122 51.2429 31.4806C50.7069 35.7071 48.8981 36.7687 47.7424 36.859C47.3013 40.7977 43.104 45.8461 41.6356 46.5797V53.1593C42.8788 56.9244 46.8612 58.2974 51.3134 59.8325C58.5384 62.3235 67.0005 65.2411 67.0005 79.5H0.000525271C0.000525271 65.2398 8.46423 62.325 15.6897 59.8367C20.141 58.3038 24.1224 56.9327 25.3654 53.1703V46.5907C23.9026 45.8571 19.6997 40.8033 19.2587 36.859C18.1029 36.7687 16.2942 35.7015 15.7582 31.4806C15.4734 29.2178 16.6143 27.941 17.3067 27.546C17.3067 27.546 15.5946 23.884 15.5946 20.25ZM107.427 56.5C103.597 56.5 100.624 59.9381 100.624 59.9381C86.3992 59.9381 86.5095 75.7247 86.5975 88.3135C86.6453 95.1569 86.6865 101.055 84.4146 102.959C84.4146 102.959 87.8441 108.083 100.186 108.083V112.469C98.8162 116.205 95.127 117.885 91.2034 119.672C85.3617 122.332 79.0005 125.229 79.0005 135.5H135.001C135.001 125.23 128.642 122.333 122.803 119.672C118.881 117.885 115.194 116.205 113.826 112.469V108.039C126.23 108.039 129.105 103.091 129.105 103.091C126.786 101.173 126.592 95.3373 126.363 88.416C125.906 74.6166 125.306 56.5 107.427 56.5ZM0.00106401 96.1927C-0.0414505 93.0957 2.43764 90.5491 5.54214 90.5007C7.06362 90.477 8.52992 91.0687 9.60694 92.141C10.684 93.2133 11.28 94.6749 11.2591 96.1927V115.846C11.2591 120.567 14.9697 124.269 19.7027 124.269H56.2913C58.3214 124.24 60.2096 125.304 61.233 127.053C62.2564 128.803 62.2564 130.966 61.233 132.715C60.2096 134.464 58.3214 135.528 56.2913 135.499H19.7027C8.88824 135.499 0.00106401 126.634 0.00106401 115.846V96.1927Z" fill="#7F879D"/>
</svg>
