<?xml version="1.0" encoding="UTF-8"?>
<svg width="1044px" height="639px" viewBox="0 0 1044 639" version="1.1" xmlns="http://www.w3.org/2000/svg" xmlns:xlink="http://www.w3.org/1999/xlink">
    <!-- Generator: Sketch 52.6 (67491) - http://www.bohemiancoding.com/sketch -->
    <title>undraw_update_uxn2</title>
    <desc>Created with Sketch.</desc>
    <defs>
        <linearGradient x1="50.0061284%" y1="100.005837%" x2="50.0061284%" y2="0.283965471%" id="linearGradient-1">
            <stop stop-color="#808080" stop-opacity="0.25" offset="0%"></stop>
            <stop stop-color="#808080" stop-opacity="0.12" offset="54%"></stop>
            <stop stop-color="#808080" stop-opacity="0.1" offset="100%"></stop>
        </linearGradient>
    </defs>
    <g id="iOS---1.2" stroke="none" stroke-width="1" fill="none" fill-rule="evenodd">
        <g id="Artboard" transform="translate(-1774.000000, -1443.000000)">
            <g id="undraw_update_uxn2" transform="translate(1774.000000, 1443.000000)">
                <path d="M631,215.58 C625.352403,214.508616 619.513603,215.145766 614.23,217.41 C607.782798,220.268254 600.421515,220.235505 594,217.32 C586.420066,213.998716 577.765228,214.166842 570.32,217.78 C568.219328,218.895546 565.878489,219.482472 563.5,219.49 C553.9,219.49 545.91,209.82 544.25,197.06 C546.166447,195.656079 547.795874,193.897655 549.05,191.88 C554.68,182.81 563.4,176.99 573.19,176.99 C582.98,176.99 591.59,182.74 597.19,191.72 C600.617272,197.244669 606.689213,200.569057 613.19,200.48 L613.44,200.48 C621.11,200.52 627.73,206.65 631,215.58 Z" id="Path" fill="#00B476" opacity="0.1"></path>
                <path d="M660.2,175.53 L644.68,185.38 L654.1,168.24 C651.42804,166.113044 648.124868,164.934596 644.71,164.89 L644.46,164.89 C643.381967,164.909075 642.304377,164.832104 641.24,164.66 L636,167.99 L638.26,163.89 C634.530314,162.588152 631.309357,160.137423 629.06,156.89 L619.64,162.89 L625.64,152.08 C620.13,145.47 612.71,141.41 604.55,141.41 C594.76,141.41 586.04,147.24 580.41,156.31 C577.02026,161.854873 570.904779,165.141944 564.41,164.91 L563.88,164.91 C553.07,164.91 544.31,177.17 544.31,192.28 C544.31,207.39 553.07,219.65 563.88,219.65 C566.257255,219.642359 568.597293,219.059065 570.7,217.95 C578.142459,214.328248 586.799691,214.156419 594.38,217.48 C600.781628,220.355921 608.104171,220.3741 614.52,217.53 C622.04218,214.270905 630.608221,214.435075 638,217.98 C640.080372,219.068754 642.391966,219.641508 644.74,219.65 C655.55,219.65 664.31,207.4 664.31,192.28 C664.368891,186.440051 662.955382,180.679402 660.2,175.53 Z" id="Path" fill="#00B476" opacity="0.1"></path>
                <path d="M500.47,280.17 C501.08,280.08 501.69,279.96 502.29,279.81 C502.213427,280.413392 502.041272,281.000744 501.78,281.55 C501.062882,282.612647 500.085016,283.473445 498.94,284.05 C498.636764,283.767749 498.176568,283.738464 497.84,283.98 C496.55,284.74 495.52,285.86 494.15,286.52 C493.67,286.76 493.15,286.95 492.7,287.21 C491.580548,287.907836 490.652601,288.873588 490,290.02 C489.53869,290.579377 489.416252,291.344614 489.68,292.02 C489.823275,292.2234 490.011472,292.391067 490.23,292.51 C490.786664,292.897091 491.452185,293.096747 492.13,293.08 C492.54,293.08 492.93,292.9 493.33,292.83 C493.73,292.76 494.41,292.83 494.95,292.73 C495.732306,292.632702 496.498694,292.434382 497.23,292.14 L499.9,291.21 C500.660191,290.96728 501.39931,290.662937 502.11,290.3 C502.53,290.08 502.93,289.81 503.37,289.6 C503.854957,289.38334 504.356579,289.2061 504.87,289.07 L506.39,288.62 C506.610841,288.540684 506.846203,288.509985 507.08,288.53 C507.29,288.53 507.47,288.7 507.68,288.76 C508.015093,288.826015 508.362079,288.794786 508.68,288.67 L510.45,288.16 C510.822022,288.077789 511.177176,287.932345 511.5,287.73 C512.220597,287.02382 512.568538,286.020713 512.44,285.02 C512.432292,283.508766 512.257904,282.002993 511.92,280.53 C511.696478,280.622446 511.500275,280.770459 511.35,280.96 C511.17,280.7 510.96,280.46 510.77,280.23 C509.95807,279.288505 509.357864,278.18358 509.01,276.99 C509.651963,276.518085 510.189811,275.918963 510.59,275.23 C509.66,271.68 508.7,268.07 506.81,264.93 C506.19,263.93 505.48,262.93 504.81,261.93 C502.97,259.01 502.59,255.32 500.49,252.59 C500.07477,252.021036 500.07477,251.248964 500.49,250.68 C500.73,250.37 501.12,250.06 501.04,249.68 C500.96,249.3 500.7,249.13 500.81,248.87 C500.92,248.61 500.99,248.67 501.1,248.57 C501.45,248.24 501.41,247.67 501.44,247.18 C501.638593,245.951794 502.167465,244.800719 502.97,243.85 C503.110334,243.608545 503.301398,243.400422 503.53,243.24 C503.72,243.12 503.94,243.07 504.13,242.95 C504.81,242.53 504.76,241.54 505.08,240.81 C505.5,239.81 506.56,239.35 507.26,238.57 C508.14,237.57 508.36,236.18 509.26,235.31 C509.353273,235.218911 509.453584,235.135318 509.56,235.06 C509.160446,236.545891 508.978552,238.081885 509.02,239.62 C508.93,244.89 510.23,250.35 509.62,255.62 C509.14,259.77 511.68,263.92 515.27,265.99 C516.678486,266.742214 518.150923,267.368 519.67,267.86 C521.93,268.67 524.17,269.5 526.38,270.42 C527.94,271.086667 529.48,271.79 531,272.53 C532.869006,273.450181 534.688197,274.46826 536.45,275.58 C538.691944,276.833386 540.684931,278.487429 542.33,280.46 C543.27767,280.396444 544.183986,280.047861 544.93,279.46 C545.52,279.93 546.24,280.28 546.8,280.8 C547.56287,281.606191 548.073772,282.617568 548.27,283.71 L548.04,283.71 L548.12,285.27 C548.140238,285.403077 548.119302,285.53916 548.06,285.66 C548.002349,285.735772 547.931145,285.800195 547.85,285.85 L546.65,286.66 C545.78,287.25 544.82,287.99 544.77,289.05 C544.740964,289.359627 544.83429,289.668319 545.03,289.91 C545.325174,290.181805 545.700717,290.350272 546.1,290.39 C548.164541,290.944889 550.309046,291.141074 552.44,290.97 C553.461953,290.903111 554.423319,290.461595 555.14,289.73 C555.696702,288.970396 556.041787,288.076627 556.14,287.14 C556.4,285.57 556.62,283.99 556.79,282.4 C556.839668,281.326534 557.055569,280.267272 557.43,279.26 C557.458169,279.171073 557.518888,279.096068 557.6,279.05 C557.69,279.05 557.8,279.05 557.89,279.05 C557.994572,278.983009 558.064135,278.873173 558.08,278.75 C558.460621,277.20918 558.648723,275.627111 558.64,274.04 C558.652728,273.628344 558.588285,273.217943 558.45,272.83 C558.119997,272.167159 557.504703,271.691872 556.78,271.54 C556.071617,271.39649 555.352412,271.312861 554.63,271.29 C554.024037,271.23273 553.42476,271.1189 552.84,270.95 C552.602878,270.866265 552.35028,270.835544 552.1,270.86 C551.838679,270.894805 551.642666,271.116385 551.64,271.38 C551.653963,271.469833 551.688157,271.555319 551.74,271.63 L551.13,271.51 C550.64,271.42 549.94,271.2 549.22,271.03 L549.22,270.65 C549.218669,270.365008 549.055927,270.105395 548.8,269.98 L538.51,264.48 L536.58,263.48 C532.36,261.22 528,259.14 523.78,256.88 C523.49,256.97 523.26,256.64 523.18,256.36 C523.1,256.08 523.04,255.72 522.77,255.6 C522.5,255.48 522.46,255.53 522.36,255.42 C522.291057,255.321049 522.265752,255.198137 522.29,255.08 C522.43,253.02 523.9,251.13 523.6,249.08 C523.321608,248.249464 523.196243,247.375302 523.23,246.5 C523.442995,245.935398 523.703948,245.390072 524.01,244.87 C524.51,243.62 524.01,242.11 524.56,240.87 C524.928617,240.062971 525.181123,239.207819 525.31,238.33 C525.577601,236.593558 526.10695,234.907731 526.88,233.33 C527.250506,232.525194 527.739241,231.780296 528.33,231.12 C528.64,230.78 528.99,230.48 529.28,230.12 C530.100096,228.979906 530.610073,227.646386 530.76,226.25 C531.348661,223.767804 531.420144,221.191014 530.97,218.68 C530.707339,217.852571 530.546159,216.9963 530.49,216.13 C530.49,215.13 530.9,213.91 530.4,213.08 C530.9316,212.668999 531.288685,212.072668 531.4,211.41 C531.404958,211.176709 531.4524,210.946276 531.54,210.73 C531.703356,210.481589 531.926978,210.278609 532.19,210.14 C533.006053,209.509666 533.393679,208.470831 533.19,207.46 C533.72,207.7 534.28,207.16 534.53,206.63 C534.78,206.1 534.98,205.44 535.53,205.22 C535.915045,205.133315 536.306207,205.076479 536.7,205.05 C537.32,204.89 537.7,204.29 538.14,203.82 C539.112663,202.945289 540.23355,202.251084 541.45,201.77 C544.9,200.02 547.72,197.24 550.45,194.5 C551.88099,193.16435 553.180297,191.694258 554.33,190.11 C554.64027,189.656774 554.924077,189.185989 555.18,188.7 L555.25,188.7 L555.25,188.78 C555.25,188.95 555.34,189.12 555.39,189.29 C555.51,189.7 555.66,190.1 555.8,190.5 C556.135951,191.710304 556.725686,192.835232 557.53,193.8 C557.652931,193.924311 557.783162,194.041185 557.92,194.15 C558.07785,194.275786 558.244994,194.389444 558.42,194.49 C559.130924,194.867401 559.908918,195.101819 560.71,195.18 C561.01,195.18 561.32,195.24 561.63,195.25 L562.55,195.25 L568.85,195.42 C566.69,192.27 566.52,188.19 566.66,184.36 C567.02,174.54 568.93,164.63 567.16,154.97 C567.015251,153.797926 566.601104,152.675279 565.95,151.69 C564.906482,150.527442 563.493514,149.760906 561.95,149.52 C560.430388,149.283061 558.936922,148.901323 557.49,148.38 C556.381995,147.701426 555.205482,147.141661 553.98,146.71 C553.054388,146.540222 552.105612,146.540222 551.18,146.71 C550.04,146.88 548.91,147.08 547.78,147.31 L547.51,147.37 L547.33,147.37 L547.28,147.37 L547.11,147.37 L547.05,147.37 L546.89,147.37 L546.82,147.37 L546.67,147.37 L546.59,147.37 L546.46,147.37 L546.37,147.37 L546.25,147.37 L546.16,147.37 L546.05,147.42 L545.95,147.47 L545.85,147.52 L545.75,147.57 L545.65,147.63 L545.56,147.69 L545.47,147.75 L545.38,147.82 L545.3,147.88 L545.21,147.96 L545.14,148.02 L545.05,148.11 L544.99,148.18 C544.954708,148.211997 544.924375,148.24907 544.9,148.29 L544.9,148.35 L544.79,148.51 C544.702575,148.659676 544.628939,148.81699 544.57,148.98 C544.542074,149.058588 544.518702,149.138721 544.5,149.22 C544.460321,149.388149 544.430272,149.558426 544.41,149.73 C544.41,149.82 544.41,149.9 544.41,149.99 C544.41,150.08 544.41,150.34 544.41,150.51 C544.41,150.68 544.41,151.12 544.5,151.38 C541.691012,153.041479 539.931504,156.028517 539.840151,159.290813 C539.748799,162.55311 541.338392,165.633931 544.05,167.45 C544.05871,167.606546 544.05871,167.763454 544.05,167.92 L544.05,168.02 C544.028527,168.569744 543.971743,169.11754 543.88,169.66 C542.33545,169.358676 540.763405,169.221248 539.19,169.25 C538.25,169.25 537.31,169.33 536.36,169.41 C535.36,168.21 534.44,166.89 533.54,165.59 L531.46,162.54 C530.730951,161.537866 530.063069,160.492632 529.46,159.41 C528.95,158.41 528.55,157.41 527.99,156.41 C526.82,154.41 524.9,152.75 524.67,150.46 L524.12,150.58 C523.82,150.08 523.44,149.58 523.3,149.28 C522.545357,147.652591 521.965446,145.949734 521.57,144.2 C521.450497,143.281268 521.169506,142.390899 520.74,141.57 C520.403222,141.085 519.995313,140.653493 519.53,140.29 C518.777499,139.580398 517.894534,139.023452 516.93,138.65 C516.06387,138.3318 515.10469,138.386093 514.28,138.8 C514.14,138.75 514.01,138.69 513.87,138.65 C512.892887,138.279566 511.796774,138.406327 510.93,138.99 C510.156161,139.694854 509.689445,140.674958 509.63,141.72 C509.418684,143.139311 509.66381,144.589059 510.33,145.86 C511.12,147.26 512.5,148.2 513.66,149.31 C514.461706,150.08672 515.163755,150.960082 515.75,151.91 C515.932042,154.016056 515.878377,156.135853 515.59,158.23 C515.44,159.13 515.21,160.01 515.13,160.91 C514.84,164.18 516.54,167.45 515.94,170.67 C515.728931,171.658914 516.171327,172.672403 517.04,173.19 C517.955881,173.561585 518.912542,173.823408 519.89,173.97 C521.77,174.45 523.41,175.66 525.3,176.11 C526.18,176.32 527.09,176.36 527.96,176.59 L528.1,176.59 C527.426523,177.351395 526.946318,178.263785 526.7,179.25 C526.32,180.89 526.7,182.64 526.29,184.25 C525.882715,185.579675 525.235371,186.823525 524.38,187.92 L519.8,194.54 C518.774186,196.088372 517.648463,197.568181 516.43,198.97 C514.33,201.26 510.7,203.08 509.64,205.84 L509.55,205.64 C508.04,206.75 507.48,208.82 506.27,210.26 C505.69,210.96 504.96,211.53 504.32,212.17 C503.52165,213.155299 502.812207,214.209424 502.2,215.32 C500.328954,217.74823 498.694823,220.350114 497.32,223.09 C496.65,224.54 496.13,226.09 495.6,227.55 C493.5,233.46 490.08,239.07 488.66,245.19 C488.31,246.68 487.4,248.03 487.26,249.56 C487.259503,251.203317 487.735372,252.811547 488.63,254.19 C489.81,256.39 491.1,258.53 492.15,260.79 C492.77,262.11 493.3,263.47 493.98,264.79 C494.66,266.11 495.64,267.49 496.41,268.88 C498.238978,272.454917 499.603373,276.249012 500.47,280.17 Z M526.25,168.48 L526.07,168.39 C525.367118,168.090108 524.723627,167.666759 524.17,167.14 C522.5,165.34 521.77,162.64 521.25,160.23 C521.19,159.95 521.13,159.66 521.08,159.37 C523.186859,162.172402 524.924453,165.234197 526.25,168.48 Z" id="Shape" fill="url(#linearGradient-1)" fill-rule="nonzero"></path>
                <path d="M518.6,145.07 C518.480472,144.157625 518.199418,143.273827 517.77,142.46 C517.429591,141.974758 517.018353,141.543296 516.55,141.18 C515.79578,140.477558 514.91293,139.927475 513.95,139.56 C512.955076,139.17201 511.832861,139.299194 510.95,139.9 C510.175595,140.596064 509.708213,141.570375 509.65,142.61 C509.439589,144.019588 509.684836,145.459536 510.35,146.72 C511.15,148.11 512.53,149.04 513.68,150.15 C514.52477,150.951611 515.257997,151.8631 515.86,152.86 C516.135853,153.380552 516.471452,153.867169 516.86,154.31 C517.254983,154.754544 517.837854,154.984723 518.43,154.93 C518.918122,154.803926 519.3614,154.544192 519.71,154.18 C520.18,153.77 521.46,153.02 521.5,152.36 C521.54,151.7 520.5,150.62 520.29,150.12 C519.550722,148.500751 518.984257,146.808058 518.6,145.07 Z" id="Path" fill="#FBBEBE"></path>
                <path d="M545.56,170.73 C543.503319,170.177085 541.379412,169.914542 539.25,169.95 C535.7,170 532.04,170.86 528.66,169.77 C527.786888,169.467698 526.937815,169.099989 526.12,168.67 C525.422608,168.369862 524.782997,167.950223 524.23,167.43 C522.55,165.64 521.82,162.96 521.3,160.57 C520.834008,158.16266 520.566443,155.721126 520.5,153.27 C519.653199,153.743523 518.700189,153.994677 517.73,154 C516.729345,153.97045 515.904678,153.205604 515.8,152.21 C516.016932,154.474177 515.973314,156.755769 515.67,159.01 C515.52,159.9 515.29,160.77 515.21,161.67 C514.92,164.91 516.63,168.16 516.02,171.36 C515.811839,172.343078 516.254576,173.349299 517.12,173.86 C518.038897,174.232885 518.999024,174.494738 519.98,174.64 C521.86,175.12 523.51,176.31 525.4,176.76 C526.28,176.97 527.19,177.01 528.06,177.24 C529.31,177.57 530.44,178.24 531.71,178.51 C532.66,178.68 533.64,178.56 534.61,178.64 C535.58,178.72 536.27,178.93 537.1,178.96 C539.190167,178.890528 541.148191,177.920632 542.47,176.3 C543.752377,174.595001 544.792269,172.720503 545.56,170.73 Z" id="Path" fill="#F86D70"></path>
                <path d="M545.56,170.73 C543.503319,170.177085 541.379412,169.914542 539.25,169.95 C535.7,170 532.04,170.86 528.66,169.77 C527.786888,169.467698 526.937815,169.099989 526.12,168.67 C525.422608,168.369862 524.782997,167.950223 524.23,167.43 C522.55,165.64 521.82,162.96 521.3,160.57 C520.834008,158.16266 520.566443,155.721126 520.5,153.27 C519.653199,153.743523 518.700189,153.994677 517.73,154 C516.729345,153.97045 515.904678,153.205604 515.8,152.21 C516.016932,154.474177 515.973314,156.755769 515.67,159.01 C515.52,159.9 515.29,160.77 515.21,161.67 C514.92,164.91 516.63,168.16 516.02,171.36 C515.811839,172.343078 516.254576,173.349299 517.12,173.86 C518.038897,174.232885 518.999024,174.494738 519.98,174.64 C521.86,175.12 523.51,176.31 525.4,176.76 C526.28,176.97 527.19,177.01 528.06,177.24 C529.31,177.57 530.44,178.24 531.71,178.51 C532.66,178.68 533.64,178.56 534.61,178.64 C535.58,178.72 536.27,178.93 537.1,178.96 C539.190167,178.890528 541.148191,177.920632 542.47,176.3 C543.752377,174.595001 544.792269,172.720503 545.56,170.73 Z" id="Path" fill="#000000" opacity="0.1"></path>
                <g id="Group" opacity="0.1" transform="translate(303.000000, 137.000000)">
                    <path d="M102.66,399.11 L102.66,404.26 C102.66,414.919096 94.0190957,423.56 83.36,423.56 C72.7009043,423.56 64.06,414.919096 64.06,404.26 L64.06,399.11 C64.06,388.450904 72.7009043,379.81 83.36,379.81 C94.0190957,379.81 102.66,388.450904 102.66,399.11 Z" id="Path" fill="#3F3D56"></path>
                    <path d="M64.06,316.75 L64.06,311.61 C64.06,300.950904 72.7009043,292.31 83.36,292.31 C94.0190957,292.31 102.66,300.950904 102.66,311.61 L102.66,316.75 C102.661354,318.640852 102.381631,320.521402 101.83,322.33 C99.0822158,331.510925 90.0111064,337.282523 80.5307047,335.881924 C71.050303,334.481324 64.0356313,326.333272 64.06,316.75 Z" id="Path" fill="#3F3D56"></path>
                    <path d="M102.66,355.32 L102.66,360.47 C102.66,371.129096 94.0190957,379.77 83.36,379.77 C72.7009043,379.77 64.06,371.129096 64.06,360.47 L64.06,355.32 C64.06,344.660904 72.7009043,336.02 83.36,336.02 C94.0190957,336.02 102.66,344.660904 102.66,355.32 Z" id="Path" fill="#3F3D56"></path>
                    <path d="M83.36,423.56 C94.0093105,423.592969 102.632548,432.220674 102.66,442.87 L102.66,448.01 C102.66,458.669096 94.0190957,467.31 83.36,467.31 C72.7009043,467.31 64.06,458.669096 64.06,448.01 L64.06,442.87 C64.0874525,432.220674 72.7106895,423.592969 83.36,423.56 Z" id="Path" fill="#3F3D56"></path>
                    <path d="M64.05996,312.1 L64.06,316.75 C64.0406414,326.331356 71.0568153,334.474715 80.5356724,335.872577 C90.0145295,337.270438 99.0827304,331.499066 101.83,322.32 L64.05996,312.1 Z" id="Path" fill="#000000"></path>
                    <path d="M64.06,355.85 L64.06,360.51 C64.0694117,370.072434 71.079535,378.186219 80.5392962,379.583769 C89.9990574,380.981319 99.055904,375.241209 101.83,366.09 L64.06,355.85 Z" id="Path" fill="#000000"></path>
                    <path d="M64.06,399.61 L64.06,404.26 C64.0694117,413.822434 71.079535,421.936219 80.5392962,423.333769 C89.9990574,424.731319 99.055904,418.991209 101.83,409.84 L64.06,399.61 Z" id="Path" fill="#000000"></path>
                    <path d="M64.0599367,443.32 L64.06,447.97 C64.0356313,457.553272 71.050303,465.701324 80.5307047,467.101924 C90.0111064,468.502523 99.0822158,462.730925 101.83,453.55 L64.0599367,443.32 Z" id="Path" fill="#000000"></path>
                    <path d="M23.76,360.84 L25.3,362.02 C28.1613963,364.207452 32.1914119,363.977377 34.7852633,361.478483 C37.3791147,358.97959 37.7592626,354.960952 35.68,352.02 C35.269832,351.435992 34.7743094,350.916873 34.21,350.48 L32.67,349.32 C29.4805556,346.859571 24.9004286,347.450556 22.44,350.64 C19.9795714,353.829444 20.5705556,358.409571 23.76,360.87 L23.76,360.84 Z" id="Path" fill="#3F3D56"></path>
                    <path d="M45.76,359.38 L47.3,360.57 C50.4894441,363.030429 51.0804281,367.610555 48.6199997,370.8 C46.1595712,373.989444 41.5794444,374.580428 38.39,372.12 L36.85,370.93 C33.6605559,368.469571 33.0695719,363.889445 35.5300003,360.7 C37.9904288,357.510556 42.5705556,356.919572 45.76,359.38 Z" id="Path" fill="#3F3D56"></path>
                    <path d="M58.84,369.48 L60.38,370.67 C63.5694444,373.130429 64.1604286,377.710556 61.7,380.9 C59.2395714,384.089444 54.6594444,384.680429 51.47,382.22 L49.93,381.03 C46.7405559,378.569571 46.1495719,373.989445 48.6100003,370.8 C51.0704288,367.610556 55.6505556,367.019572 58.84,369.48 Z" id="Path" fill="#3F3D56"></path>
                    <path d="M71.93,379.58 L73.47,380.77 C75.5332088,382.361618 76.5905741,384.933043 76.2437967,387.515643 C75.8970193,390.098243 74.1987829,392.299661 71.7887967,393.290643 C69.3788105,394.281625 66.6232088,393.911618 64.56,392.32 L63,391.13 C60.9367912,389.538382 59.8794259,386.966957 60.2262033,384.384357 C60.5729807,381.801757 62.2712171,379.600339 64.6812033,378.609357 C67.0911895,377.618375 69.8467912,377.988382 71.91,379.58 L71.93,379.58 Z" id="Path" fill="#3F3D56"></path>
                    <path d="M23.9,360.95 L25.3,362.02 C28.1613963,364.207452 32.1914119,363.977377 34.7852633,361.478483 C37.3791147,358.97959 37.7592626,354.960952 35.68,352.02 L23.9,360.95 Z" id="Path" fill="#000000"></path>
                    <path d="M37,371.05 L38.4,372.12 C41.2613963,374.307452 45.2914119,374.077377 47.8852633,371.578483 C50.4791147,369.07959 50.8592626,365.060952 48.78,362.12 L37,371.05 Z" id="Path" fill="#000000"></path>
                    <path d="M50.08,381.15 L51.47,382.22 C54.3303313,384.423882 58.3730262,384.201752 60.9746783,381.697756 C63.5763304,379.193759 63.9528908,375.162516 61.86,372.22 L50.08,381.15 Z" id="Path" fill="#000000"></path>
                    <path d="M30.6,121.15 C22.6733218,120.980511 15.2751473,125.112396 11.2620723,131.950245 C7.24899736,138.788095 7.24899736,147.261905 11.2620723,154.099755 C15.2751473,160.937604 22.6733218,165.069489 30.6,164.9 C22.6733218,164.730511 15.2751473,168.862396 11.2620723,175.700245 C7.24899736,182.538095 7.24899736,191.011905 11.2620723,197.849755 C15.2751473,204.687604 22.6733218,208.819489 30.6,208.65 C18.5160097,208.65 8.72,218.44601 8.72,230.53 C8.72,242.61399 18.5160097,252.41 30.6,252.41 C22.6733218,252.240511 15.2751473,256.372396 11.2620723,263.210245 C7.24899736,270.048095 7.24899736,278.521905 11.2620723,285.359755 C15.2751473,292.197604 22.6733218,296.329489 30.6,296.16 L136.12,296.16 C144.046678,296.329489 151.444853,292.197604 155.457928,285.359755 C159.471003,278.521905 159.471003,270.048095 155.457928,263.210245 C151.444853,256.372396 144.046678,252.240511 136.12,252.41 C148.20399,252.41 158,242.61399 158,230.53 C158,218.44601 148.20399,208.65 136.12,208.65 C144.046678,208.819489 151.444853,204.687604 155.457928,197.849755 C159.471003,191.011905 159.471003,182.538095 155.457928,175.700245 C151.444853,168.862396 144.046678,164.730511 136.12,164.9 C144.046678,165.069489 151.444853,160.937604 155.457928,154.099755 C159.471003,147.261905 159.471003,138.788095 155.457928,131.950245 C151.444853,125.112396 144.046678,120.980511 136.12,121.15 C148.20399,121.15 158,111.35399 158,99.27 C158,87.1860097 148.20399,77.39 136.12,77.39 C144.046678,77.5594892 151.444853,73.4276038 155.457928,66.5897545 C159.471003,59.7519052 159.471003,51.2780948 155.457928,44.4402455 C151.444853,37.6023962 144.046678,33.4705108 136.12,33.64 L131.3,33.64 C128.53,14.82 107.3,0.18 81.43,0.18 C55.56,0.18 34.33,14.82 31.56,33.64 L30.56,33.64 C22.6333218,33.4705108 15.2351473,37.6023962 11.2220723,44.4402455 C7.20899736,51.2780948 7.20899736,59.7519052 11.2220723,66.5897545 C15.2351473,73.4276038 22.6333218,77.5594892 30.56,77.39 C18.4760097,77.39 8.68,87.1860097 8.68,99.27 C8.68,111.35399 18.4760097,121.15 30.56,121.15 L30.6,121.15 Z" id="Path" fill="#00B476"></path>
                    <path d="M8.72,55.51 C8.75296416,67.5803098 18.5296902,77.3570358 30.6,77.39 L136.12,77.39 L31.24,33.64 L30.6,33.64 C18.5335793,33.6729373 8.75845334,43.4435957 8.72,55.51 Z" id="Path" fill="#000000"></path>
                    <path d="M157.36,99.32 C157.294413,111.376719 147.536719,121.134413 135.48,121.2 L30,121.2 L134.89,77.44 L135.53,77.44 C147.567188,77.5328403 157.294699,87.2826307 157.36,99.32 Z" id="Path" fill="#000000"></path>
                    <path d="M157.36,186.78 C157.321547,198.846404 147.546421,208.617063 135.48,208.65 L30,208.65 L134.89,164.9 L135.53,164.9 C147.580779,164.960375 157.327195,174.729114 157.36,186.78 Z" id="Path" fill="#000000"></path>
                    <path d="M157.36,274.32 C157.321547,286.386404 147.546421,296.157063 135.48,296.19 L30,296.19 L134.89,252.44 L135.53,252.44 C147.580779,252.500375 157.327195,262.269114 157.36,274.32 Z" id="Path" fill="#000000"></path>
                    <path d="M8.72,143.02 C8.75296416,155.09031 18.5296902,164.867036 30.6,164.9 L136.12,164.9 L31.24,121.15 L30.6,121.15 C18.5335793,121.182937 8.75845334,130.953596 8.72,143.02 Z" id="Path" fill="#000000"></path>
                    <path d="M8.72,230.53 C8.78558651,242.586719 18.543281,252.344413 30.6,252.41 L136.12,252.41 L31.24,208.65 L30.6,208.65 C18.543281,208.715587 8.78558651,218.473281 8.72,230.53 Z" id="Path" fill="#000000"></path>
                    <path d="M20.81,383.42 L55.56,364.71 C59.3544179,362.480457 60.7047289,357.648386 58.6158261,353.774763 C56.5269233,349.90114 51.7476168,348.374547 47.8,350.32 C50.3740986,348.935596 52.0140929,346.283088 52.102213,343.361652 C52.1903331,340.440215 50.7131915,337.693684 48.227213,336.156652 C45.7412346,334.619619 42.6240986,334.525596 40.05,335.91 L38.46,336.77 C34.21,331.06 24.61,330.01 16.1,334.59 C7.59,339.17 3.19,347.76 5.61,354.45 L5.3,354.62 C2.72590142,356.004404 1.08590708,358.656912 0.997786966,361.578348 C0.909666851,364.499785 2.38680851,367.246316 4.87278697,368.783348 C7.35876543,370.320381 10.4759014,370.414404 13.05,369.03 C9.07078838,371.172865 7.58213517,376.135788 9.725,380.115 C11.8678648,384.094212 16.8307884,385.582865 20.81,383.44 L20.81,383.42 Z" id="Path" fill="#00B476"></path>
                    <path d="M2,365.68 C4.15101036,369.645827 9.09906707,371.132924 13.08,369.01 L47.8,350.32 L5.51,354.51 L5.3,354.62 C1.3569699,356.781002 -0.114210079,361.711684 2,365.68 Z" id="Path" fill="#000000"></path>
                    <path d="M58.67,353.74 C60.8003738,357.717715 59.316713,362.66921 55.35,364.82 L20.6,383.53 L47.38,350.53 L47.59,350.41 C51.5709329,348.287076 56.5189896,349.774173 58.67,353.74 Z" id="Path" fill="#000000"></path>
                </g>
                <g id="Group" opacity="0.1" transform="translate(188.000000, 468.000000)">
                    <path d="M30.14,115.15 L30.14,116.62 C30.0139246,119.585453 27.5731314,121.924681 24.605,121.924681 C21.6368686,121.924681 19.1960754,119.585453 19.07,116.62 L19.07,115.15 C18.9835427,113.116414 20.0191908,111.199186 21.7673289,110.156612 C23.515467,109.114037 25.694533,109.114037 27.4426711,110.156612 C29.1908092,111.199186 30.2264573,113.116414 30.14,115.15 Z" id="Path" fill="#3F3D56"></path>
                    <path d="M19.07,91.54 L19.07,90.06 C19.1960754,87.0945475 21.6368686,84.7553189 24.605,84.7553189 C27.5731314,84.7553189 30.0139246,87.0945475 30.14,90.06 L30.14,91.54 C30.1415718,92.082416 30.0606467,92.6219168 29.9,93.14 C29.1151439,95.7759145 26.5124884,97.4344644 23.7917395,97.0325071 C21.0709906,96.6305497 19.0591148,94.2902592 19.07,91.54 Z" id="Path" fill="#3F3D56"></path>
                    <path d="M30.14,102.61 L30.14,104.08 C30.0139246,107.045453 27.5731314,109.384681 24.605,109.384681 C21.6368686,109.384681 19.1960754,107.045453 19.07,104.08 L19.07,102.61 C18.9835427,100.576414 20.0191908,98.6591862 21.7673289,97.6166118 C23.515467,96.5740375 25.694533,96.5740375 27.4426711,97.6166118 C29.1908092,98.6591862 30.2264573,100.576414 30.14,102.61 Z" id="Path" fill="#3F3D56"></path>
                    <path d="M24.61,122.15 C27.6634689,122.160999 30.134518,124.636516 30.14,127.69 L30.14,129.16 C30.2264573,131.193586 29.1908092,133.110814 27.4426711,134.153388 C25.694533,135.195963 23.515467,135.195963 21.7673289,134.153388 C20.0191908,133.110814 18.9835427,131.193586 19.07,129.16 L19.07,127.69 C19.0755038,124.632625 21.5526252,122.155504 24.61,122.15 Z" id="Path" fill="#3F3D56"></path>
                    <path d="M19.069956,90.21 L19.07,91.54 C19.0591148,94.2902592 21.0709906,96.6305497 23.7917395,97.0325071 C26.5124884,97.4344644 29.1151439,95.7759145 29.9,93.14 L19.069956,90.21 Z" id="Path" fill="#000000"></path>
                    <path d="M19.069956,102.75 L19.07,104.08 C19.0591148,106.830259 21.0709906,109.17055 23.7917395,109.572507 C26.5124884,109.974464 29.1151439,108.315914 29.9,105.68 L19.069956,102.75 Z" id="Path" fill="#000000"></path>
                    <path d="M19.069956,115.32 L19.07,116.65 C19.0591148,119.400259 21.0709906,121.74055 23.7917395,122.142507 C26.5124884,122.544464 29.1151439,120.885914 29.9,118.25 L19.069956,115.32 Z" id="Path" fill="#000000"></path>
                    <path d="M19.069956,127.83 L19.07,129.16 C19.0591148,131.910259 21.0709906,134.25055 23.7917395,134.652507 C26.5124884,135.054464 29.1151439,133.395914 29.9,130.76 L19.069956,127.83 Z" id="Path" fill="#000000"></path>
                    <path d="M7.52,104.17 L7.96,104.52 C8.77703697,105.195955 9.97079715,105.152918 10.7370369,104.419882 C11.5032767,103.686846 11.5991214,102.496161 10.96,101.65 C10.8440602,101.479225 10.7023826,101.327428 10.54,101.2 L10.1,100.86 C9.50872546,100.4027 8.71839855,100.295578 8.02672783,100.578987 C7.3350571,100.862396 6.84712381,101.493279 6.74672773,102.233987 C6.64633165,102.974696 6.94872534,103.7127 7.54,104.17 L7.52,104.17 Z" id="Path" fill="#3F3D56"></path>
                    <path d="M13.83,103.76 L14.27,104.1 C14.885415,104.547124 15.2092975,105.293313 15.1156226,106.048217 C15.0219477,106.803122 14.5255098,107.447518 13.8194765,107.730666 C13.1134431,108.013814 12.3093211,107.890995 11.72,107.41 L11.27,107.07 C10.3559689,106.363075 10.1880758,105.049031 10.8950002,104.135 C11.6019246,103.220969 12.9159687,103.053076 13.83,103.76 Z" id="Path" fill="#3F3D56"></path>
                    <path d="M17.58,106.65 L18.02,106.99 C18.9297096,107.700976 19.099044,109.01109 18.4,109.93 C17.6925661,110.840376 16.3815411,111.005932 15.47,110.3 L15.03,109.96 C14.1534877,109.244603 14.005395,107.961614 14.695876,107.065343 C15.386357,106.169071 16.6646776,105.98498 17.58,106.65 Z" id="Path" fill="#3F3D56"></path>
                    <path d="M21.33,109.55 L21.77,109.89 C22.385415,110.337124 22.7092975,111.083313 22.6156226,111.838217 C22.5219477,112.593122 22.0255098,113.237518 21.3194765,113.520666 C20.6134431,113.803814 19.8093211,113.680995 19.22,113.2 L18.78,112.86 C17.9034877,112.144603 17.755395,110.861614 18.445876,109.965343 C19.136357,109.069071 20.4146776,108.88498 21.33,109.55 Z" id="Path" fill="#3F3D56"></path>
                    <path d="M7.56,104.21 L7.96,104.52 C8.77703697,105.195955 9.97079715,105.152918 10.7370369,104.419882 C11.5032767,103.686846 11.5991214,102.496161 10.96,101.65 L7.56,104.21 Z" id="Path" fill="#000000"></path>
                    <path d="M11.32,107.1 L11.72,107.41 C12.537037,108.085955 13.7307971,108.042918 14.4970369,107.309882 C15.2632767,106.576846 15.3591214,105.386161 14.72,104.54 L11.32,107.1 Z" id="Path" fill="#000000"></path>
                    <path d="M15.07,110 L15.47,110.3 C16.3815411,111.005932 17.6925661,110.840376 18.4,109.93 C18.9436278,109.185326 18.9436278,108.174674 18.4,107.43 L15.07,110 Z" id="Path" fill="#000000"></path>
                    <path d="M9.48,35.47 C6.01717491,35.4700004 3.21000075,38.2771749 3.21000075,41.74 C3.21000075,45.2028251 6.01717491,48.0099996 9.48,48.01 C6.11180762,48.1444858 3.4505494,50.9141238 3.4505494,54.285 C3.4505494,57.6558762 6.11180762,60.4255142 9.48,60.56 C6.01717462,60.56 3.21,63.3671746 3.21,66.83 C3.21,70.2928254 6.01717462,73.1 9.48,73.1 C6.01717491,73.1000004 3.21000075,75.9071749 3.21000075,79.37 C3.21000075,82.8328251 6.01717491,85.6399996 9.48,85.64 L39.73,85.64 C43.1928251,85.6399996 45.9999993,82.8328251 45.9999993,79.37 C45.9999993,75.9071749 43.1928251,73.1000004 39.73,73.1 C43.1928251,73.0999996 45.9999993,70.2928251 45.9999993,66.83 C45.9999993,63.3671749 43.1928251,60.5600004 39.73,60.56 C43.0981924,60.4255142 45.7594506,57.6558762 45.7594506,54.285 C45.7594506,50.9141238 43.0981924,48.1444858 39.73,48.01 C43.1928251,48.0099996 45.9999993,45.2028251 45.9999993,41.74 C45.9999993,38.2771749 43.1928251,35.4700004 39.73,35.47 C43.1928251,35.4699996 45.9999993,32.6628251 45.9999993,29.2 C45.9999993,25.7371749 43.1928251,22.9300004 39.73,22.93 C43.1928254,22.93 46,20.1228254 46,16.66 C46,13.1971746 43.1928254,10.39 39.73,10.39 L38.35,10.39 C37.55,5 31.46,0.8 24.05,0.8 C16.64,0.8 10.55,5 9.76,10.39 L9.48,10.39 C6.01717462,10.39 3.21,13.1971746 3.21,16.66 C3.21,20.1228254 6.01717462,22.93 9.48,22.93 C6.01717491,22.9300004 3.21000075,25.7371749 3.21000075,29.2 C3.21000075,32.6628251 6.01717491,35.4699996 9.48,35.47 Z" id="Path" fill="#00B476"></path>
                    <path d="M3.21,16.66 C3.22097871,20.1182676 6.02173236,22.9190213 9.48,22.93 L39.73,22.93 L9.67,10.39 L9.48,10.39 C6.02173236,10.4009787 3.22097871,13.2017324 3.21,16.66 Z" id="Path" fill="#000000"></path>
                    <path d="M45.82,29.2 C45.8090213,32.6582676 43.0082676,35.4590213 39.55,35.47 L9.3,35.47 L39.36,22.93 L39.55,22.93 C43.0082676,22.9409787 45.8090213,25.7417324 45.82,29.2 Z" id="Path" fill="#000000"></path>
                    <path d="M45.82,54.32 C45.8035817,57.7760018 43.0060018,60.5735817 39.55,60.59 L9.3,60.59 L39.36,48.04 L39.55,48.04 C43.0098846,48.0564585 45.8090553,50.8600936 45.82,54.32 Z" id="Path" fill="#000000"></path>
                    <path d="M45.82,79.37 C45.8090213,82.8282676 43.0082676,85.6290213 39.55,85.64 L9.3,85.64 L39.36,73.1 L39.55,73.1 C43.0082676,73.1109787 45.8090213,75.9117324 45.82,79.37 Z" id="Path" fill="#000000"></path>
                    <path d="M3.21,41.74 C3.22097871,45.1982676 6.02173236,47.9990213 9.48,48.01 L39.73,48.01 L9.67,35.47 L9.48,35.47 C6.02173236,35.4809787 3.22097871,38.2817324 3.21,41.74 Z" id="Path" fill="#000000"></path>
                    <path d="M3.21,66.83 C3.22097871,70.2882676 6.02173236,73.0890213 9.48,73.1 L39.73,73.1 L9.67,60.56 L9.48,60.56 C6.02173236,60.5709787 3.22097871,63.3717324 3.21,66.83 Z" id="Path" fill="#000000"></path>
                    <path d="M6.68,110.65 L16.68,105.28 C15.5392703,104.483701 14.7635919,103.264997 14.5251478,101.894413 C14.2867037,100.523828 14.6052224,99.1147642 15.41,97.98 C15.1156148,97.4309799 14.6144599,97.0220087 14.0175612,96.8436899 C13.4206625,96.6653711 12.7772984,96.7324263 12.23,97.03 L11.78,97.27 C10.56,95.64 7.78,95.33 5.37,96.65 C2.96,97.97 1.67,100.42 2.37,102.34 L2.28,102.39 C3.42072971,103.186299 4.19640807,104.405003 4.43485218,105.775587 C4.67329628,107.146172 4.35477759,108.555236 3.55,109.69 C4.16213829,110.803673 5.54871881,111.22895 6.68,110.65 Z" id="Path" fill="#00B476"></path>
                    <path d="M1.28,105.56 C1.56766287,106.115703 2.06507404,106.533731 2.66199899,106.721443 C3.25892393,106.909155 3.90606318,106.851049 4.46,106.56 L14.46,101.2 L2.29,102.32 L2.23,102.32 C1.66676105,102.616173 1.24771486,103.128106 1.0686652,103.73876 C0.889615538,104.349413 0.965871795,105.006574 1.28,105.56 Z" id="Path" fill="#000000"></path>
                    <path d="M17.53,102.14 C18.1380234,103.281256 17.7144,104.699279 16.58,105.32 L6.58,110.68 L14.25,101.22 L14.31,101.22 C14.8585317,100.91282 15.5069561,100.8372 16.1114533,101.009913 C16.7159504,101.182627 17.2265495,101.589396 17.53,102.14 Z" id="Path" fill="#000000"></path>
                </g>
                <g id="Group" opacity="0.1" transform="translate(688.000000, 38.000000)">
                    <path d="M68.26,486.32 L68.26,492.59 C68.26,505.58526 78.7947398,516.12 91.79,516.12 C104.78526,516.12 115.32,505.58526 115.32,492.59 L115.32,486.32 C115.32,473.32474 104.78526,462.79 91.79,462.79 C78.7947398,462.79 68.26,473.32474 68.26,486.32 Z" id="Path" fill="#3F3D56"></path>
                    <path d="M115.32,385.92 L115.32,379.65 C115.32,366.65474 104.78526,356.12 91.79,356.12 C78.7947398,356.12 68.26,366.65474 68.26,379.65 L68.26,385.92 C68.2526713,388.22383 68.5897282,390.515817 69.26,392.72 C72.6759322,403.82385 83.6872645,410.770322 95.1797765,409.071429 C106.672289,407.372536 115.202841,397.537263 115.26,385.92 L115.32,385.92 Z" id="Path" fill="#3F3D56"></path>
                    <path d="M68.26,432.98 L68.26,439.26 C68.26,452.25526 78.7947398,462.79 91.79,462.79 C104.78526,462.79 115.32,452.25526 115.32,439.26 L115.32,432.98 C115.32,419.98474 104.78526,409.45 91.79,409.45 C78.7947398,409.45 68.26,419.98474 68.26,432.98 Z" id="Path" fill="#3F3D56"></path>
                    <path d="M91.79,516.12 C78.810696,516.158441 68.2984412,526.670696 68.26,539.65 L68.26,545.92 C68.26,558.91526 78.7947398,569.45 91.79,569.45 C104.78526,569.45 115.32,558.91526 115.32,545.92 L115.32,539.65 C115.287024,526.668424 104.771576,516.152976 91.79,516.12 Z" id="Path" fill="#3F3D56"></path>
                    <path d="M115.32,380.25 L115.32,385.92 C115.262841,397.537263 106.732289,407.372536 95.2397765,409.071429 C83.7472645,410.770322 72.7359322,403.82385 69.32,392.72 L115.32,380.25 Z" id="Path" fill="#000000"></path>
                    <path d="M115.32,433.59 L115.32,439.26 C115.262841,450.877263 106.732289,460.712536 95.2397765,462.411429 C83.7472645,464.110322 72.7359322,457.16385 69.32,446.06 L115.32,433.59 Z" id="Path" fill="#000000"></path>
                    <path d="M115.32,486.92 L115.32,492.59 C115.262841,504.207263 106.732289,514.042536 95.2397765,515.741429 C83.7472645,517.440322 72.7359322,510.49385 69.32,499.39 L115.32,486.92 Z" id="Path" fill="#000000"></path>
                    <path d="M115.32,540.25 L115.32,545.92 C115.262841,557.537263 106.732289,567.372536 95.2397765,569.071429 C83.7472645,570.770322 72.7359322,563.82385 69.32,552.72 L115.32,540.25 Z" id="Path" fill="#000000"></path>
                    <path d="M164.45,439.66 L162.57,441.11 C159.079131,443.80052 154.143977,443.527157 150.971612,440.467554 C147.799248,437.407952 147.347528,432.485917 149.91,428.9 C150.411939,428.189192 151.01885,427.55868 151.71,427.03 L153.59,425.58 C157.478085,422.581094 163.061094,423.301915 166.06,427.19 C169.058906,431.078085 168.338085,436.661094 164.45,439.66 Z" id="Path" fill="#3F3D56"></path>
                    <path d="M137.63,437.89 L135.76,439.32 C133.149422,441.226315 131.77933,444.399438 132.181931,447.606784 C132.584531,450.81413 134.696369,453.550185 137.697112,454.752143 C140.697854,455.9541 144.11455,455.432517 146.62,453.39 L148.49,451.95 C151.00515,450.010048 152.294292,446.875642 151.871819,443.727482 C151.449346,440.579322 149.379442,437.895689 146.441819,436.687482 C143.504196,435.479274 140.14515,435.930048 137.63,437.87 L137.63,437.89 Z" id="Path" fill="#3F3D56"></path>
                    <path d="M121.68,450.2 L119.8,451.65 C117.189422,453.556315 115.81933,456.729438 116.221931,459.936784 C116.624531,463.14413 118.736369,465.880185 121.737112,467.082143 C124.737854,468.2841 128.15455,467.762517 130.66,465.72 L132.54,464.28 C135.05515,462.340048 136.344292,459.205642 135.921819,456.057482 C135.499346,452.909322 133.429442,450.225689 130.491819,449.017482 C127.554196,447.809274 124.19515,448.260048 121.68,450.2 Z" id="Path" fill="#3F3D56"></path>
                    <path d="M105.72,462.51 L103.85,463.95 C99.9619156,466.948906 99.2410942,472.531915 102.24,476.42 C105.238906,480.308084 110.821915,481.028906 114.71,478.03 L116.58,476.58 C119.190578,474.673685 120.56067,471.500562 120.158069,468.293216 C119.755469,465.08587 117.643631,462.349815 114.642888,461.147857 C111.642146,459.9459 108.22545,460.467483 105.72,462.51 Z" id="Path" fill="#3F3D56"></path>
                    <path d="M164.27,439.8 L162.57,441.11 C159.079131,443.80052 154.143977,443.527157 150.971612,440.467554 C147.799248,437.407952 147.347528,432.485917 149.91,428.9 L164.27,439.8 Z" id="Path" fill="#000000"></path>
                    <path d="M148.31,452.11 L146.62,453.41 C143.126429,456.023731 138.252424,455.715873 135.11549,452.683338 C131.978555,449.650802 131.505967,444.790004 134,441.21 L148.31,452.11 Z" id="Path" fill="#000000"></path>
                    <path d="M132.36,464.41 L130.66,465.72 C127.170201,468.397285 122.247178,468.120087 119.079981,465.06797 C115.912785,462.015854 115.453652,457.106455 118,453.52 L132.36,464.41 Z" id="Path" fill="#000000"></path>
                    <path d="M156.11,147.49 C170.839434,147.490001 182.779999,159.430566 182.779999,174.16 C182.779999,188.889434 170.839434,200.829999 156.11,200.83 C170.635431,201.111306 182.263594,212.966845 182.263594,227.495 C182.263594,242.023155 170.635431,253.878694 156.11,254.16 C170.635431,254.441306 182.263594,266.296845 182.263594,280.825 C182.263594,295.353155 170.635431,307.208694 156.11,307.49 C170.839434,307.49 182.78,319.430566 182.78,334.16 C182.78,348.889434 170.839434,360.83 156.11,360.83 L27.48,360.83 C12.7505657,360.83 0.81,348.889434 0.81,334.16 C0.81,319.430566 12.7505657,307.49 27.48,307.49 C17.8304255,307.676878 8.83279158,302.635826 3.95325019,294.308804 C-0.926291196,285.981783 -0.926291196,275.668217 3.95325019,267.341196 C8.83279158,259.014174 17.8304255,253.973122 27.48,254.16 C17.8304255,254.346878 8.83279158,249.305826 3.95325019,240.978804 C-0.926291196,232.651783 -0.926291196,222.338217 3.95325019,214.011196 C8.83279158,205.684174 17.8304255,200.643122 27.48,200.83 C12.7505657,200.83 0.81,188.889434 0.81,174.16 C0.81,159.430566 12.7505657,147.49 27.48,147.49 C17.8304255,147.676878 8.83279158,142.635826 3.95325019,134.308804 C-0.926291196,125.981783 -0.926291196,115.668217 3.95325019,107.341196 C8.83279158,99.0141745 17.8304255,93.9731222 27.48,94.16 C17.8304255,94.3468778 8.83279158,89.3058255 3.95325019,80.978804 C-0.926291196,72.6517825 -0.926291196,62.3382175 3.95325019,54.011196 C8.83279158,45.6841745 17.8304255,40.6431222 27.48,40.83 L33.36,40.83 C36.74,17.89 62.66,0.04 94.15,0.04 C125.64,0.04 151.56,17.89 154.94,40.83 L156.11,40.83 C170.635431,41.1113057 182.263594,52.9668453 182.263594,67.495 C182.263594,82.0231547 170.635431,93.8786943 156.11,94.16 C170.635431,94.4413057 182.263594,106.296845 182.263594,120.825 C182.263594,135.353155 170.635431,147.208694 156.11,147.49 Z" id="Path" fill="#00B476"></path>
                    <path d="M182.77,67.5 C182.726069,82.2056763 170.815676,94.1160694 156.11,94.16 L27.48,94.16 L155.32,40.83 L156.11,40.83 C170.819566,40.8739576 182.731559,52.7904186 182.77,67.5 Z" id="Path" fill="#000000"></path>
                    <path d="M1.6,120.83 C1.64395764,135.539566 13.5604186,147.451559 28.27,147.49 L156.89,147.49 L29.05,94.16 L28.27,94.16 C13.5588008,94.2039307 1.64393071,106.118801 1.6,120.83 Z" id="Path" fill="#000000"></path>
                    <path d="M1.6,227.49 C1.64393071,242.201199 13.5588008,254.116069 28.27,254.16 L156.89,254.16 L29.05,200.83 L28.27,200.83 C13.5604186,200.868441 1.64395764,212.780434 1.6,227.49 Z" id="Path" fill="#000000"></path>
                    <path d="M1.6,334.16 C1.64393071,348.871199 13.5588008,360.786069 28.27,360.83 L156.89,360.83 L29.05,307.49 L28.27,307.49 C13.5588008,307.533931 1.64393071,319.448801 1.6,334.16 Z" id="Path" fill="#000000"></path>
                    <path d="M182.77,174.16 C182.731559,188.869581 170.819566,200.786042 156.11,200.83 L27.48,200.83 L155.32,147.49 L156.11,147.49 C170.819566,147.533958 182.731559,159.450419 182.77,174.16 Z" id="Path" fill="#000000"></path>
                    <path d="M182.77,280.83 C182.726069,295.535676 170.815676,307.446069 156.11,307.49 L27.48,307.49 L155.32,254.16 L156.11,254.16 C170.819566,254.203958 182.731559,266.120419 182.77,280.83 Z" id="Path" fill="#000000"></path>
                    <path d="M168,467.18 L125.64,444.38 C121.223293,441.563916 119.728097,435.816795 122.212416,431.205311 C124.696735,426.593827 130.318614,424.680847 135.1,426.82 C131.666169,425.298558 129.374385,421.981346 129.166284,418.231322 C128.958183,414.481299 130.868859,410.930879 134.113264,409.038839 C137.35767,407.146799 141.388658,407.232218 144.55,409.26 L146.49,410.26 C151.67,403.26 163.36,402.02 173.73,407.6 C184.1,413.18 189.48,423.66 186.52,431.81 L186.91,432.02 C190.331405,433.550709 192.609532,436.866194 192.811617,440.608954 C193.013701,444.351713 191.105807,447.893216 187.869109,449.783419 C184.63241,451.673622 180.610453,451.595099 177.45,449.58 C180.780137,451.165388 182.967252,454.455122 183.140491,458.139312 C183.313731,461.823501 181.444966,465.303952 178.278292,467.194836 C175.111618,469.08572 171.161202,469.080018 168,467.18 Z" id="Path" fill="#00B476"></path>
                    <path d="M191,445.57 C188.360053,450.388134 182.327536,452.174223 177.49,449.57 L135.14,426.77 L186.69,431.87 L186.95,432.01 C189.286596,433.269759 191.026427,435.406867 191.78611,437.950399 C192.545793,440.49393 192.262983,443.235146 191,445.57 Z" id="Path" fill="#000000"></path>
                    <path d="M121.89,431.01 C119.293656,435.860674 121.103383,441.897563 125.94,444.52 L168.3,467.32 L135.65,427.1 L135.4,426.96 C130.549326,424.363656 124.512437,426.173383 121.89,431.01 Z" id="Path" fill="#000000"></path>
                </g>
                <ellipse id="Oval" fill="#3F3D56" cx="522" cy="615.64" rx="522" ry="23"></ellipse>
                <ellipse id="Oval" fill="#000000" opacity="0.1" cx="502" cy="614.64" rx="113" ry="15.07"></ellipse>
                <path d="M509.83,614.7 C502.653962,616.097559 495.240914,614.000273 489.860703,609.050321 C484.480492,604.100369 481.77402,596.887401 482.57,589.62 C485.19,566.46 493.34,529.15 515.63,473.14 C541.47,408.2 532.15,392.51 504.46,345.94 C495.52,330.89 485.38,313.84 474.46,291.94 C446.3,235.68 457,192.32 470.9,165.93 C485.68,137.84 506.82,123.13 509.18,121.54 L531,157.64 L529,159.64 C528.95,159.64 530,159.64 531.52,162.41 C522.980105,169.810808 515.959958,178.800809 510.85,188.88 C498.75,213.11 500.35,240.88 515.6,271.35 C525.81,291.77 535.49,308.06 544.03,322.43 C559.37,348.23 571.48,368.61 575.49,394.34 C579.64,420.97 574.49,449.62 558.4,490.14 C537.19,543.43 530.4,576.78 528.33,594.68 C527.188283,604.658719 519.71653,612.74941 509.86,614.68 L509.83,614.7 Z" id="Path" fill="#3F3D56"></path>
                <polygon id="Path" fill="#00B476" points="409 92.55 501.55 0 595 92.55 531.49 92.55 531.49 163.32 472.51 163.32 472.51 93"></polygon>
                <ellipse id="Oval" fill="#000000" opacity="0.1" cx="704" cy="606.38" rx="59" ry="7.87"></ellipse>
                <path d="M708.09,606.41 C704.343951,607.142228 700.472988,606.048658 697.663825,603.464543 C694.854662,600.880429 693.442402,597.114029 693.86,593.32 C695.22,581.23 699.48,561.75 711.12,532.51 C724.61,498.6 719.74,490.41 705.29,466.09 C700.62,458.24 695.29,449.33 689.6,437.89 C674.92,408.52 680.5,385.89 687.76,372.11 C692.544687,362.940849 699.39071,355.006309 707.76,348.93 L719.15,367.78 L718.09,368.78 C718.09,368.78 718.63,368.78 719.41,370.23 C714.947401,374.092281 711.2792,378.78622 708.61,384.05 C702.3,396.7 703.14,411.19 711.1,427.11 C716.43,437.77 721.48,446.28 725.94,453.78 C733.94,467.25 740.27,477.89 742.37,491.33 C744.53,505.23 741.86,520.19 733.44,541.33 C722.37,569.15 718.82,586.56 717.74,595.91 C717.158111,601.126837 713.253058,605.360011 708.1,606.36 L708.09,606.41 Z" id="Path" fill="#3F3D56"></path>
                <polygon id="Path" fill="#00B476" points="655.44 333.78 703.76 285.46 752.56 333.78 719.4 333.78 719.4 370.73 688.6 370.73 688.6 334.02"></polygon>
                <ellipse id="Oval" fill="#000000" opacity="0.1" cx="300" cy="606.38" rx="59" ry="7.87"></ellipse>
                <path d="M295.91,606.41 C299.656049,607.142228 303.527012,606.048658 306.336175,603.464543 C309.145338,600.880429 310.557598,597.114029 310.14,593.32 C308.78,581.23 304.52,561.75 292.88,532.51 C279.39,498.6 284.26,490.41 298.71,466.09 C303.38,458.24 308.71,449.33 314.4,437.89 C329.08,408.52 323.5,385.89 316.24,372.11 C311.455313,362.940849 304.60929,355.006309 296.24,348.93 L284.85,367.78 L285.91,368.78 C285.91,368.78 285.37,368.78 284.59,370.23 C289.052599,374.092281 292.7208,378.78622 295.39,384.05 C301.7,396.7 300.86,411.19 292.9,427.11 C287.57,437.77 282.52,446.28 278.06,453.78 C270.06,467.25 263.73,477.89 261.63,491.33 C259.47,505.23 262.14,520.19 270.56,541.33 C281.63,569.15 285.18,586.56 286.26,595.91 C286.841889,601.126837 290.746942,605.360011 295.9,606.36 L295.91,606.41 Z" id="Path" fill="#3F3D56"></path>
                <polygon id="Path" fill="#00B476" points="348.56 333.78 300.24 285.46 251.44 333.78 284.6 333.78 284.6 370.73 315.4 370.73 315.4 334.02"></polygon>
                <ellipse id="Oval" fill="#000000" opacity="0.1" transform="translate(501.300689, 290.216957) rotate(-16.490000) translate(-501.300689, -290.216957) " cx="501.300689" cy="290.216957" rx="21" ry="2.5"></ellipse>
                <ellipse id="Oval" fill="#000000" opacity="0.1" transform="translate(510.297473, 310.219711) rotate(-16.490000) translate(-510.297473, -310.219711) " cx="510.297473" cy="310.219711" rx="21" ry="2.5"></ellipse>
                <ellipse id="Oval" fill="#000000" opacity="0.1" transform="translate(520.293885, 325.214270) rotate(-16.490000) translate(-520.293885, -325.214270) " cx="520.293885" cy="325.21427" rx="21" ry="2.5"></ellipse>
                <ellipse id="Oval" fill="#000000" opacity="0.1" transform="translate(528.302560, 340.216525) rotate(-16.490000) translate(-528.302560, -340.216525) " cx="528.30256" cy="340.216525" rx="21" ry="2.5"></ellipse>
                <path d="M881.2,608.04 L838.72,608.04 C833.854371,608.04 829.91,604.095629 829.91,599.23 C829.91,594.364371 833.854371,590.42 838.72,590.42 C835.503511,590.528412 832.483851,588.874303 830.843494,586.105408 C829.203136,583.336513 829.203136,579.893487 830.843494,577.124592 C832.483851,574.355697 835.503511,572.701588 838.72,572.81 L840.66,572.81 C841.77,565.23 850.32,559.33 860.72,559.32 C871.12,559.31 879.72,565.2 880.81,572.77 L881.2,572.77 C884.416489,572.661588 887.436149,574.315697 889.076506,577.084592 C890.716864,579.853487 890.716864,583.296513 889.076506,586.065408 C887.436149,588.834303 884.416489,590.488412 881.2,590.38 C886.065629,590.38 890.01,594.324371 890.01,599.19 C890.01,604.055629 886.065629,608 881.2,608 L881.2,608.04 Z" id="Path" fill="#00B476"></path>
                <path d="M890,581.61 C889.994503,586.469448 886.059438,590.408984 881.2,590.42 L838.73,590.42 L880.93,572.77 L881.19,572.77 C886.062768,572.781034 890.005531,576.737223 890,581.61 Z" id="Path" fill="#000000" opacity="0.1"></path>
                <path d="M830.17,599.32 C830.18649,604.17716 834.122824,608.109026 838.98,608.12 L881.46,608.12 L839.23,590.55 L839,590.55 C834.148909,590.555336 830.208411,594.469058 830.17,599.32 Z" id="Path" fill="#000000" opacity="0.1"></path>
                <path d="M623,597.52 L598.89,597.52 C596.128576,597.52 593.89,595.281424 593.89,592.52 C593.89,589.758576 596.128576,587.52 598.89,587.52 C596.128576,587.52 593.89,585.281424 593.89,582.52 C593.89,579.758576 596.128576,577.52 598.89,577.52 L600,577.52 C600.62,573.22 605.48,569.87 611.38,569.87 C617.28,569.87 622.14,573.2 622.78,577.5 L623,577.5 C625.761424,577.5 628,579.738576 628,582.5 C628,585.261424 625.761424,587.5 623,587.5 C625.761424,587.5 628,589.738576 628,592.5 C628,595.261424 625.761424,597.5 623,597.5 L623,597.52 Z" id="Path" fill="#00B476"></path>
                <path d="M628,582.52 C628,585.281424 625.761424,587.52 623,587.52 L598.89,587.52 L622.89,577.52 L623,577.52 C625.761424,577.52 628,579.758576 628,582.52 Z" id="Path" fill="#000000" opacity="0.1"></path>
                <path d="M594.05,592.55 C594.05,595.311424 596.288576,597.55 599.05,597.55 L623.15,597.55 L599.15,587.55 L599,587.55 C596.258122,587.57742 594.049863,589.807985 594.05,592.55 Z" id="Path" fill="#000000" opacity="0.1"></path>
                <path d="M171.45,625.89 L120.45,625.89 C116.59798,626.008524 112.986742,624.02117 111.025703,620.703577 C109.064663,617.385984 109.064663,613.264016 111.025703,609.946423 C112.986742,606.62883 116.59798,604.641476 120.45,604.76 C116.59798,604.878524 112.986742,602.89117 111.025703,599.573577 C109.064663,596.255984 109.064663,592.134016 111.025703,588.816423 C112.986742,585.49883 116.59798,583.511476 120.45,583.63 L122.77,583.63 C124.1,574.54 134.37,567.46 146.84,567.45 C159.31,567.44 169.59,574.5 170.94,583.58 L171.4,583.58 C177.108378,583.755642 181.644923,588.43392 181.644923,594.145 C181.644923,599.85608 177.108378,604.534358 171.4,604.71 C177.108378,604.885642 181.644923,609.56392 181.644923,615.275 C181.644923,620.98608 177.108378,625.664358 171.4,625.84 L171.45,625.89 Z" id="Path" fill="#00B476"></path>
                <path d="M182,594.19 C181.98904,600.015304 177.275273,604.738007 171.45,604.76 L120.45,604.76 L171.07,583.58 L171.38,583.58 C174.195679,583.577346 176.896944,584.694011 178.888868,586.684059 C180.880793,588.674108 182.000001,591.37432 182,594.19 Z" id="Path" fill="#000000" opacity="0.1"></path>
                <path d="M110.22,615.39 C110.247475,621.216889 114.973057,625.929071 120.8,625.94 L171.8,625.94 L121.13,604.86 L120.82,604.86 C114.995259,604.865324 110.263916,609.565422 110.22,615.39 Z" id="Path" fill="#000000" opacity="0.1"></path>
                <path d="M276,153.06 C272.032131,152.298544 267.92734,152.737224 264.21,154.32 C259.72405,156.326025 254.59595,156.326025 250.11,154.32 C244.802711,151.995681 238.74365,152.112623 233.53,154.64 C232.060384,155.419717 230.423628,155.831479 228.76,155.84 C222.04,155.84 216.45,149.07 215.29,140.13 C216.632032,139.150252 217.772808,137.921202 218.65,136.51 C222.59,130.16 228.65,126.09 235.54,126.09 C242.43,126.09 248.43,130.09 252.37,136.4 C254.766233,140.249928 258.995462,142.572973 263.53,142.53 L263.71,142.53 C269.06,142.52 273.69,146.81 276,153.06 Z" id="Path" fill="#00B476" opacity="0.1"></path>
                <path d="M296.42,125.03 L285.56,131.92 L292.15,119.92 C290.284492,118.423863 287.971202,117.596431 285.58,117.57 L285.41,117.57 C284.65664,117.587431 283.903313,117.533861 283.16,117.41 L279.47,119.74 L281.05,116.87 C278.442367,115.958061 276.188798,114.246887 274.61,111.98 L268,116.17 L272.16,108.6 C268.31,103.98 263.11,101.14 257.4,101.14 C250.55,101.14 244.4,105.21 240.5,111.56 C238.120112,115.416331 233.859251,117.705066 229.33,117.56 L229,117.56 C221.44,117.56 215.3,126.14 215.3,136.72 C215.3,147.3 221.44,155.88 229,155.88 C230.664235,155.876311 232.302135,155.464261 233.77,154.68 C238.98365,152.152623 245.042711,152.035681 250.35,154.36 C252.581295,155.356102 254.996466,155.873882 257.44,155.88 C259.851714,155.876971 262.23612,155.369433 264.44,154.39 C269.704191,152.110309 275.698569,152.227058 280.87,154.71 C282.326563,155.47334 283.945544,155.874655 285.59,155.88 C293.16,155.88 299.29,147.3 299.29,136.72 C299.326723,132.644553 298.339905,128.625077 296.42,125.03 Z" id="Path" fill="#00B476" opacity="0.1"></path>
                <path d="M132.62,263.06 C136.571785,262.308711 140.657646,262.747228 144.36,264.32 C148.842286,266.326864 153.967714,266.326864 158.45,264.32 C163.757289,261.995681 169.81635,262.112623 175.03,264.64 C176.500046,265.418598 178.136523,265.83029 179.8,265.84 C186.52,265.84 192.12,259.07 193.28,250.13 C191.93544,249.1531 190.794164,247.923511 189.92,246.51 C185.98,240.16 179.87,236.09 173.02,236.09 C166.17,236.09 160.14,240.09 156.2,246.4 C153.793911,250.258367 149.54673,252.579148 145,252.52 L144.83,252.52 C139.51,252.52 134.87,256.81 132.62,263.06 Z" id="Path" fill="#00B476" opacity="0.1"></path>
                <path d="M112.14,235.03 L123,241.92 L116.4,229.92 C118.266271,228.425228 120.579074,227.597969 122.97,227.57 L123.15,227.57 C123.90336,227.587431 124.656687,227.533861 125.4,227.41 L129.08,229.74 L127.5,226.87 C130.110653,225.958684 132.367601,224.247602 133.95,221.98 L140.54,226.16 L136.37,218.59 C140.23,213.97 145.42,211.13 151.14,211.13 C157.99,211.13 164.09,215.2 168.04,221.55 C170.418413,225.407896 174.680259,227.69716 179.21,227.55 L179.57,227.55 C187.14,227.55 193.27,236.13 193.27,246.71 C193.27,257.29 187.14,265.87 179.57,265.87 C177.90607,265.86388 176.268747,265.451975 174.8,264.67 C169.58635,262.142623 163.527289,262.025681 158.22,264.35 C155.992246,265.346151 153.580322,265.863965 151.14,265.87 C148.728067,265.869045 146.343235,265.361416 144.14,264.38 C138.872425,262.099916 132.874856,262.216657 127.7,264.7 C126.24386,265.464452 124.624602,265.865836 122.98,265.87 C115.42,265.87 109.28,257.29 109.28,246.71 C109.241878,242.638792 110.225195,238.623008 112.14,235.03 Z" id="Path" fill="#00B476" opacity="0.1"></path>
                <path d="M551.19,271.07 C551.826475,271.146846 552.443396,271.340058 553.01,271.64 C553.751163,272.164761 554.307634,272.910222 554.6,273.77 C555.353065,275.911119 555.712192,278.170909 555.66,280.44 C555.779198,282.2709 555.544938,284.107631 554.97,285.85 C554.792876,286.387983 554.483399,286.872831 554.07,287.26 C553.706532,287.549889 553.282874,287.754885 552.83,287.86 C551.856856,288.199619 550.781043,288.066529 549.92,287.5 C549.139134,286.690381 548.680459,285.623694 548.63,284.5 C548.526702,282.954797 547.918908,281.486254 546.9,280.32 C546.07,279.55 544.9,279.16 544.29,278.21 C543.57,277.07 543.95,275.59 544.41,274.33 C544.8,273.23 545.41,271.01 546.53,270.45 C547.65,269.89 550,270.85 551.19,271.07 Z" id="Path" fill="#FBBEBE"></path>
                <path d="M509,276.45 C509.343139,277.6727 509.954649,278.803481 510.79,279.76 C511.3,280.35 511.93,281.06 511.66,281.76 C511.554565,282.012095 511.389915,282.235059 511.18,282.41 C507.42,286.09 502.18,287.88 496.93,288.53 C496.847859,288.549935 496.762141,288.549935 496.68,288.53 C496.53,288.46 496.49,288.27 496.47,288.1 C496.385071,287.556632 496.385071,287.003368 496.47,286.46 C496.87116,285.206133 497.761902,284.167535 498.94,283.58 C500.101855,282.990708 501.098549,282.121178 501.84,281.05 C502.6,279.62 502.28,277.76 503.18,276.42 C504.025839,275.395646 505.254828,274.763078 506.58,274.67 C507.02,274.6 507.98,274.1 508.36,274.33 C508.74,274.56 508.85,276 509,276.45 Z" id="Path" fill="#FBBEBE"></path>
                <path d="M551.7,270.94 C551.702666,270.676385 551.898679,270.454805 552.16,270.42 C552.411119,270.393335 552.664965,270.427638 552.9,270.52 C553.486526,270.679261 554.085241,270.789639 554.69,270.85 C555.415718,270.872867 556.138245,270.956493 556.85,271.1 C557.571485,271.252397 558.18535,271.722904 558.52,272.38 C558.658906,272.76432 558.723387,273.171567 558.71,273.58 C558.718304,275.157196 558.53019,276.72929 558.15,278.26 C558.15,278.37 558.07,278.51 557.96,278.55 C557.85,278.59 557.76,278.55 557.67,278.55 C557.591376,278.594358 557.531112,278.665257 557.5,278.75 C557.125489,279.753787 556.909569,280.809771 556.86,281.88 C556.68,283.45 556.47,285.02 556.21,286.58 C556.112112,287.510587 555.76682,288.397986 555.21,289.15 C554.488494,289.874708 553.529873,290.314963 552.51,290.39 C550.37246,290.556897 548.22209,290.360794 546.15,289.81 C545.750717,289.770272 545.375174,289.601805 545.08,289.33 C544.890407,289.088983 544.79768,288.785838 544.82,288.48 C544.82,287.48 545.82,286.69 546.7,286.11 L548,285.32 C548.08331,285.273143 548.155066,285.20822 548.21,285.13 C548.265927,285.008124 548.286708,284.873051 548.27,284.74 L548.19,283.2 C549.808525,283.244214 551.271996,284.173767 552,285.62 C552.17,285.95 552.33,286.34 552.67,286.47 C553.134804,286.571619 553.597332,286.289698 553.72,285.83 C553.834754,285.387316 553.834754,284.922684 553.72,284.48 C553.02,280.71 553.19,276.83 552.72,273.02 C552.693004,272.593564 552.558865,272.180829 552.33,271.82 C552.13,271.54 551.75,271.32 551.7,270.94 Z" id="Path" fill="#F86D70"></path>
                <path d="M499.28,285.55 C499.1,285.84 498.82,286.06 498.66,286.37 C498.465556,286.662243 498.521506,287.053891 498.79,287.28 C498.96525,287.360093 499.16176,287.381147 499.35,287.34 C503.118824,286.868689 506.65702,285.268657 509.5,282.75 C509.972057,282.350135 510.389022,281.889455 510.74,281.38 C511.07,280.88 511.35,280.27 511.91,280.06 C512.251173,281.522472 512.428929,283.018301 512.44,284.52 C512.554878,285.52485 512.183372,286.524202 511.44,287.21 C511.133393,287.408873 510.795259,287.554271 510.44,287.64 L508.67,288.14 C508.352079,288.264786 508.005093,288.296015 507.67,288.23 C507.472301,288.141896 507.268424,288.068367 507.06,288.01 C506.830198,287.981607 506.596938,288.00905 506.38,288.09 L504.86,288.54 C504.341756,288.666563 503.836284,288.840633 503.35,289.06 C502.91,289.27 502.51,289.54 502.09,289.77 C501.376939,290.122214 500.638145,290.419737 499.88,290.66 L497.2,291.59 C496.467576,291.88097 495.701629,292.079176 494.92,292.18 C494.38,292.18 493.84,292.18 493.3,292.27 C492.76,292.36 492.51,292.48 492.09,292.52 C491.413825,292.535584 490.749634,292.339823 490.19,291.96 C489.975218,291.831598 489.78823,291.66161 489.64,291.46 C489.26,290.87 489.64,290.08 489.97,289.46 C490.619765,288.310828 491.552662,287.346949 492.68,286.66 C493.15,286.4 493.68,286.21 494.13,285.98 C495.5,285.32 496.53,284.21 497.82,283.45 C499.11,282.69 499.85,284.61 499.28,285.55 Z" id="Path" fill="#F86D70"></path>
                <path d="M536.92,177.63 C538.336805,178.602793 539.958808,179.235853 541.66,179.48 C542.549207,179.586437 543.444543,179.633208 544.34,179.62 C548.078969,179.610916 551.811099,179.299905 555.5,178.69 C553.913127,177.174465 552.709944,175.302846 551.99,173.23 C551.718625,172.110855 551.660949,170.950541 551.82,169.81 C552.034059,168.348243 552.36853,166.906673 552.82,165.5 C551.246046,165.589977 549.667349,165.549841 548.1,165.38 C547.21,165.29 545.02,164.48 544.24,165.1 C543.46,165.72 544.06,167.69 544.08,168.63 C544.084405,168.663188 544.084405,168.696812 544.08,168.73 C544.042386,170.147787 543.737022,171.545676 543.18,172.85 C542.11886,175.463942 539.721133,177.294794 536.92,177.63 Z" id="Path" fill="#FBBEBE"></path>
                <path d="M544.13,168.63 C546.403592,170.112936 549.20638,170.543012 551.82,169.81 C552.034059,168.348243 552.36853,166.906673 552.82,165.5 C551.246046,165.589977 549.667349,165.549841 548.1,165.38 C547.21,165.29 545.02,164.48 544.24,165.1 C543.46,165.72 544.11,167.69 544.13,168.63 Z" id="Path" fill="#000000" opacity="0.1"></path>
                <circle id="Oval" fill="#FBBEBE" cx="549.27" cy="160.33" r="9.4"></circle>
                <path d="M509.4,207.87 C509.395632,209.41175 510.200354,210.842788 511.52,211.64 C512.241276,212.024798 513.016772,212.297907 513.82,212.45 C518.090391,213.629645 522.510929,214.175473 526.94,214.07 C527.895644,214.059998 528.840081,213.862957 529.72,213.49 C530.607771,213.094281 531.248809,212.292983 531.44,211.34 C531.385919,210.792116 531.705484,210.275895 532.22,210.08 C533.038715,209.460599 533.427907,208.425349 533.22,207.42 C533.76,207.66 534.32,207.12 534.57,206.59 C534.82,206.06 535.02,205.41 535.57,205.19 C535.954919,205.102634 536.346134,205.045791 536.74,205.02 C537.36,204.86 537.74,204.26 538.18,203.8 C539.157268,202.93894 540.281976,202.261405 541.5,201.8 C544.96,200.05 547.77,197.29 550.5,194.57 C551.930391,193.248323 553.229759,191.791557 554.38,190.22 C554.69,189.76 554.98,189.29 555.24,188.81 C556.074995,187.211237 556.80001,185.557402 557.41,183.86 C557.831935,182.975532 558.021238,181.99804 557.96,181.02 C557.964737,180.933398 557.964737,180.846602 557.96,180.76 C557.781202,180.140682 557.49336,179.558226 557.11,179.04 C556.245284,177.558428 554.879993,176.43428 553.26,175.87 C551.64,175.44 549.98,175.96 548.26,176.31 C547.706727,176.435625 547.145364,176.522503 546.58,176.57 C544.802723,176.596037 543.034025,176.318727 541.35,175.75 L539.48,175.24 C538.55,174.98 538.08,173.85 537.14,173.65 C536.716023,173.593477 536.285197,173.617223 535.87,173.72 C533.934084,174.004935 532.060716,174.616993 530.33,175.53 C529.955139,175.745531 529.597417,175.989585 529.26,176.26 C528.038048,177.176373 527.157968,178.475372 526.76,179.95 C526.37,181.58 526.76,183.31 526.34,184.95 C525.936389,186.272028 525.288534,187.506682 524.43,188.59 L519.85,195.17 C518.826153,196.709696 517.696778,198.176547 516.47,199.56 C514,202.2 509.47,204.23 509.4,207.87 Z" id="Path" fill="#F86D70"></path>
                <path d="M521.66,145.07 C521.540472,144.157625 521.259418,143.273827 520.83,142.46 C520.489591,141.974758 520.078353,141.543296 519.61,141.18 C518.85578,140.477558 517.97293,139.927475 517.01,139.56 C516.015076,139.17201 514.892861,139.299194 514.01,139.9 C513.235595,140.596064 512.768213,141.570375 512.71,142.61 C512.499589,144.019588 512.744836,145.459536 513.41,146.72 C514.21,148.11 515.59,149.04 516.74,150.15 C517.58477,150.951611 518.317997,151.8631 518.92,152.86 C519.195853,153.380552 519.531452,153.867169 519.92,154.31 C520.314983,154.754544 520.897854,154.984723 521.49,154.93 C521.978122,154.803926 522.4214,154.544192 522.77,154.18 C523.24,153.77 524.52,153.02 524.56,152.36 C524.6,151.7 523.56,150.62 523.35,150.12 C522.610722,148.500751 522.044257,146.808058 521.66,145.07 Z" id="Path" fill="#FBBEBE"></path>
                <path d="M488.63,253.91 C489.81,256.09 491.11,258.21 492.16,260.46 C492.77,261.77 493.31,263.12 493.99,264.39 C494.67,265.66 495.65,267.08 496.43,268.45 C498.254299,272.009427 499.618575,275.786386 500.49,279.69 C503.309952,279.265978 506.024298,278.312564 508.49,276.88 C508.65,276.78 508.81,276.68 508.96,276.57 C509.619321,276.097365 510.171371,275.490792 510.58,274.79 C509.65,271.26 508.69,267.68 506.79,264.57 C506.18,263.57 505.47,262.57 504.79,261.57 C502.94,258.67 502.56,255.01 500.46,252.29 C500.044934,251.728365 500.044934,250.961635 500.46,250.4 C500.7,250.09 501.09,249.79 501.01,249.4 C500.93,249.01 500.66,248.85 500.78,248.59 C500.9,248.33 500.96,248.39 501.07,248.3 C501.42,247.97 501.38,247.4 501.41,246.92 C501.608868,245.694873 502.137815,244.547092 502.94,243.6 C503.086207,243.365743 503.276371,243.161996 503.5,243 C503.69,242.88 503.92,242.83 504.11,242.71 C504.78,242.29 504.73,241.31 505.05,240.58 C505.48,239.58 506.54,239.14 507.23,238.36 C508.12,237.36 508.34,235.99 509.23,235.13 C509.32679,235.038864 509.430427,234.955285 509.54,234.88 C509.131251,236.354017 508.945856,237.880996 508.99,239.41 C508.9,244.64 510.21,250.06 509.59,255.26 C509.11,259.39 511.65,263.51 515.25,265.57 C516.662521,266.315609 518.138282,266.934693 519.66,267.42 C521.92,268.22 524.17,269.05 526.38,269.97 C527.94,270.636667 529.48,271.333333 531,272.06 C532.873328,272.959718 534.69605,273.961214 536.46,275.06 C538.702182,276.300469 540.698402,277.940826 542.35,279.9 C543.858287,279.782228 545.242837,279.020726 546.15,277.81 C547.044472,276.611539 547.749373,275.282683 548.24,273.87 C548.791197,272.702601 549.12983,271.446274 549.24,270.16 C549.250569,269.874521 549.089011,269.610512 548.83,269.49 L538.52,264.02 L536.59,263.02 C532.37,260.78 527.99,258.71 523.77,256.47 C523.49,256.55 523.25,256.23 523.17,255.95 C523.09,255.67 523.03,255.32 522.76,255.19 C522.49,255.06 522.45,255.13 522.35,255.02 C522.281057,254.921049 522.255752,254.798137 522.28,254.68 C522.42,252.68 523.89,250.76 523.59,248.73 C523.311619,247.906362 523.186222,247.038755 523.22,246.17 C523.439122,245.611254 523.699854,245.069734 524,244.55 C524.51,243.31 524,241.81 524.56,240.55 C524.929501,239.747556 525.178841,238.895081 525.3,238.02 C525.56879,236.282555 526.101612,234.596412 526.88,233.02 C527.252789,232.219504 527.741356,231.478228 528.33,230.82 C528.64,230.49 528.99,230.19 529.33,229.82 C530.149752,228.690961 530.659968,227.36716 530.81,225.98 C531.398303,223.514698 531.469803,220.954292 531.02,218.46 C530.76221,217.638189 530.601122,216.789123 530.54,215.93 C530.54,214.79 531.05,213.46 530.26,212.64 C529.934216,212.347081 529.537951,212.14378 529.11,212.05 C527.275507,211.571804 525.406503,211.237456 523.52,211.05 L514.9,209.93 C513.905592,209.864248 512.932224,209.613275 512.03,209.19 C510.888482,208.475242 510.035219,207.381224 509.62,206.1 C508.1,207.2 507.54,209.26 506.33,210.68 C505.74,211.38 505.02,211.94 504.33,212.58 C503.544862,213.411726 502.822859,214.300859 502.17,215.24 C500.297245,217.649282 498.662907,220.234752 497.29,222.96 C496.62,224.4 496.1,225.9 495.56,227.39 C493.46,233.26 490.03,238.83 488.56,244.9 C488.21,246.39 487.3,247.73 487.16,249.24 C487.176022,250.908002 487.687708,252.533564 488.63,253.91 Z" id="Path" fill="#434175"></path>
                <path d="M533.74,205.15 C533.951075,205.539536 534.057863,205.977023 534.05,206.42 C533.86,205.42 532.55,204.94 532.47,204 C532.47,203.57 532.47,203.59 532.78,203.82 C533.09,204.05 533.36,204.78 533.74,205.15 Z" id="Path" fill="#000000" opacity="0.1"></path>
                <path d="M529.76,208.03 C530.032199,208.264961 530.236017,208.568962 530.35,208.91 C530.573056,209.392418 530.615635,209.938852 530.47,210.45 C530.28,210.36 530.22,210.12 530.16,209.92 C530.064718,209.599669 529.926817,209.293596 529.75,209.01 C529.6,208.76 528.88,208.18 528.89,207.91 C528.9,207.64 529.57,207.89 529.76,208.03 Z" id="Path" fill="#000000" opacity="0.1"></path>
                <path d="M529.3,176.23 C529.911347,176.748576 530.582833,177.191757 531.3,177.55 C533.16,178.49 535.22,178.99 537.1,179.9 C538.03,180.36 538.91,180.9 539.79,181.47 L545.36,185 C545.804777,185.261103 546.217568,185.573214 546.59,185.93 C547.25,186.65 547.25,187.93 547.86,188.67 C548.548532,189.447644 549.531517,189.901051 550.57,189.92 C551.591863,189.923486 552.606694,189.750964 553.57,189.41 C554.155311,189.234269 554.729657,189.023898 555.29,188.78 C555.874668,188.531868 556.428408,188.216404 556.94,187.84 C557.993452,187.12379 558.714288,186.013704 558.94,184.76 C559.004382,183.909526 558.892025,183.054931 558.61,182.25 C558.454455,181.726893 558.253699,181.218309 558.01,180.73 C557.878831,180.449151 557.721468,180.181298 557.54,179.93 C556.26,178.12 554.01,177.27 551.83,176.84 C550.68,176.62 549.51,176.48 548.36,176.28 C547.806727,176.405625 547.245364,176.492503 546.68,176.54 C544.902723,176.566037 543.134025,176.288727 541.45,175.72 L539.58,175.21 C538.65,174.95 538.18,173.82 537.24,173.62 C536.816023,173.563477 536.385197,173.587223 535.97,173.69 C534.034084,173.974935 532.160716,174.586993 530.43,175.5 C530.034488,175.712842 529.656618,175.956952 529.3,176.23 Z" id="Path" fill="#000000" opacity="0.1"></path>
                <path d="M524.76,151.32 C525,153.59 526.91,155.26 528.08,157.22 C528.65,158.22 529.08,159.22 529.56,160.22 C530.163252,161.292895 530.83115,162.328136 531.56,163.32 L533.65,166.32 C534.805481,168.143025 536.145907,169.842014 537.65,171.39 C540.39,171.86 542.65,173.89 545.27,174.87 C547.401347,175.496611 549.582762,175.938247 551.79,176.19 C553.97,176.62 556.22,177.47 557.5,179.28 C557.972291,179.998172 558.333051,180.783753 558.57,181.61 C558.853449,182.414591 558.965846,183.269486 558.9,184.12 C558.671789,185.370046 557.951221,186.476117 556.9,187.19 C555.880194,187.911688 554.738589,188.443534 553.53,188.76 C552.567941,189.10574 551.552264,189.278405 550.53,189.27 C549.490386,189.256014 548.50549,188.801727 547.82,188.02 C547.21,187.26 547.22,186.02 546.55,185.29 C546.18085,184.929381 545.767571,184.616901 545.32,184.36 L539.75,180.83 C538.884385,180.25519 537.986215,179.730979 537.06,179.26 C535.18,178.34 533.12,177.85 531.26,176.9 C529.4,175.95 527.66,174.41 527.26,172.35 C526.13,166.04 521.76,160.72 518.03,155.51 C518.15,155.51 518.11,155.21 518.16,155.09 C518.69641,153.863398 519.669333,152.879783 520.89,152.33 C522.132677,151.832789 523.432833,151.493472 524.76,151.32 Z" id="Path" fill="#F86D70"></path>
                <path d="M544.45,151.32 C544.370507,150.629062 544.506736,149.930451 544.84,149.32 C545.601693,148.374459 546.71953,147.784791 547.93,147.69 C549.06,147.45 550.19,147.26 551.33,147.09 C552.255937,146.903553 553.208016,146.886612 554.14,147.04 C555.363617,147.47202 556.539756,148.028257 557.65,148.7 C559.097278,149.220163 560.590633,149.601872 562.11,149.84 C563.651628,150.073183 565.064994,150.832868 566.11,151.99 C566.766768,152.989108 567.174806,154.13093 567.3,155.32 C569.08,164.92 567.16,174.76 566.8,184.52 C566.66,188.31 566.8,192.37 569,195.52 L562.68,195.36 C561.07,195.31 559.33,195.23 558.05,194.23 C557.014803,193.244411 556.279793,191.98588 555.93,190.6 C555.499054,189.563249 555.226018,188.467733 555.12,187.35 C555.02,185.05 556.32,182.8 555.9,180.55 C555.454191,178.845873 554.428796,177.350212 553,176.32 C551.616137,175.309773 550.333471,174.167764 549.17,172.91 C547.28,170.51 546.92,167.24 547.17,164.19 C547.42238,162.39495 547.526066,160.58212 547.48,158.77 C547.400922,157.384331 546.902176,156.055504 546.05,154.96 C545.062735,154.001506 544.488652,152.695467 544.45,151.32 Z" id="Path" fill="#434175"></path>
                <path d="M544.84,149.32 C545.576375,148.392454 546.660535,147.807008 547.84,147.7 C547.222693,147.915586 546.69487,148.330807 546.34,148.88 C546.006736,149.490451 545.870507,150.189062 545.95,150.88 C545.989666,152.259307 546.571793,153.567297 547.57,154.52 C548.420286,155.612738 548.918926,156.937795 549,158.32 C549.046253,160.135447 548.942568,161.951613 548.69,163.75 C548.46,166.75 548.82,170.06 550.69,172.46 C551.853471,173.717764 553.136137,174.859773 554.52,175.87 C555.917043,176.888319 556.925725,178.351966 557.38,180.02 C557.8,182.28 556.5,184.53 556.6,186.82 C556.704968,187.937913 556.978043,189.033583 557.41,190.07 C557.759793,191.45588 558.494803,192.714411 559.53,193.7 C560.81,194.7 562.53,194.79 564.16,194.83 L568.64,194.95 C568.74,195.11 568.84,195.27 568.95,195.43 L562.63,195.27 C561.02,195.22 559.28,195.14 558,194.14 C556.964803,193.154411 556.229793,191.89588 555.88,190.51 C555.449054,189.473249 555.176018,188.377733 555.07,187.26 C554.97,184.96 556.27,182.71 555.85,180.46 C555.398487,178.796032 554.393193,177.33571 553,176.32 C551.616137,175.309773 550.333471,174.167764 549.17,172.91 C547.28,170.51 546.92,167.24 547.17,164.19 C547.42238,162.39495 547.526066,160.58212 547.48,158.77 C547.400922,157.384331 546.902176,156.055504 546.05,154.96 C545.055372,154.00478 544.473931,152.698333 544.43,151.32 C544.356584,150.626977 544.499825,149.928237 544.84,149.32 Z" id="Path" fill="#000000" opacity="0.1"></path>
                <path d="M497.37,248.32 L509,276.57 C509.659321,276.097365 510.211371,275.490792 510.62,274.79 C509.69,271.26 508.73,267.68 506.83,264.57 C506.22,263.57 505.51,262.57 504.83,261.57 C502.98,258.67 502.6,255.01 500.5,252.29 C500.084934,251.728365 500.084934,250.961635 500.5,250.4 C500.74,250.09 501.13,249.79 501.05,249.4 C500.97,249.01 500.7,248.85 500.82,248.59 C500.94,248.33 501,248.39 501.11,248.3 C501.46,247.97 501.42,247.4 501.45,246.92 C501.648868,245.694873 502.177815,244.547092 502.98,243.6 C503.126207,243.365743 503.316371,243.161996 503.54,243 C503.73,242.88 503.96,242.83 504.15,242.71 C504.82,242.29 504.77,241.31 505.09,240.58 C505.52,239.58 506.58,239.14 507.27,238.36 C508.16,237.36 508.38,235.99 509.27,235.13 L509.35,234.93 L508.47,229.47 L497.37,248.32 Z" id="Path" fill="#000000" opacity="0.1"></path>
            </g>
        </g>
    </g>
</svg>