<?xml version="1.0" encoding="UTF-8"?>
<svg width="821px" height="781px" viewBox="0 0 821 781" version="1.1" xmlns="http://www.w3.org/2000/svg" xmlns:xlink="http://www.w3.org/1999/xlink">
    <!-- Generator: Sketch 52.6 (67491) - http://www.bohemiancoding.com/sketch -->
    <title>undraw_no_data_qbuo</title>
    <desc>Created with Sketch.</desc>
    <defs>
        <linearGradient x1="49.9988159%" y1="100%" x2="49.9988159%" y2="0%" id="linearGradient-1">
            <stop stop-color="#808080" stop-opacity="0.25" offset="0%"></stop>
            <stop stop-color="#808080" stop-opacity="0.12" offset="54%"></stop>
            <stop stop-color="#808080" stop-opacity="0.1" offset="100%"></stop>
        </linearGradient>
        <linearGradient x1="50%" y1="100%" x2="50%" y2="0%" id="linearGradient-2">
            <stop stop-color="#808080" stop-opacity="0.25" offset="0%"></stop>
            <stop stop-color="#808080" stop-opacity="0.12" offset="54%"></stop>
            <stop stop-color="#808080" stop-opacity="0.1" offset="100%"></stop>
        </linearGradient>
        <linearGradient x1="60.7608548%" y1="98.8803643%" x2="39.2987348%" y2="1.02948481%" id="linearGradient-3">
            <stop stop-color="#808080" stop-opacity="0.25" offset="0%"></stop>
            <stop stop-color="#808080" stop-opacity="0.12" offset="54%"></stop>
            <stop stop-color="#808080" stop-opacity="0.1" offset="100%"></stop>
        </linearGradient>
        <linearGradient x1="50%" y1="99.9144422%" x2="50%" y2="-0.0855578371%" id="linearGradient-4">
            <stop stop-color="#808080" stop-opacity="0.25" offset="0%"></stop>
            <stop stop-color="#808080" stop-opacity="0.12" offset="54%"></stop>
            <stop stop-color="#808080" stop-opacity="0.1" offset="100%"></stop>
        </linearGradient>
    </defs>
    <g id="iOS---1.2" stroke="none" stroke-width="1" fill="none" fill-rule="evenodd">
        <g id="Artboard" transform="translate(-322.000000, -2533.000000)">
            <g id="undraw_no_data_qbuo" transform="translate(322.000000, 2533.000000)">
                <rect id="Rectangle" fill="#E0E0E0" transform="translate(346.104889, 384.840153) rotate(-12.110000) translate(-346.104889, -384.840153) " x="127.594889" y="82.9301529" width="437.02" height="603.82"></rect>
                <g id="Group" opacity="0.5" transform="translate(78.000000, 55.000000)" fill="url(#linearGradient-1)">
                    <rect id="Rectangle" transform="translate(268.110827, 329.843993) rotate(-12.110000) translate(-268.110827, -329.843993) " x="56.9858269" y="38.1389927" width="422.25" height="583.41"></rect>
                </g>
                <rect id="Rectangle" fill="#FAFAFA" transform="translate(345.654346, 382.741290) rotate(-12.110000) translate(-345.654346, -382.741290) " x="139.904346" y="97.4812901" width="411.5" height="570.52"></rect>
                <rect id="Rectangle" fill="url(#linearGradient-2)" transform="translate(286.335659, 103.708356) rotate(-12.110000) translate(-286.335659, -103.708356) " x="184.265659" y="78.9833557" width="204.14" height="49.45"></rect>
                <path d="M271.01,32.31 C255.6,35.62 245.85,51.09 249.24,66.86 C252.63,82.63 267.86,92.75 283.24,89.44 C298.62,86.13 308.4,70.66 305.01,54.89 C301.62,39.12 286.42,29 271.01,32.31 Z M280.68,77.41 C274.018519,78.9986712 267.05788,76.4000803 263.067205,70.8346772 C259.076529,65.2692741 258.848749,57.8428828 262.490844,52.0433697 C266.132938,46.2438566 272.921236,43.2235626 279.667558,44.4009937 C286.41388,45.5784249 291.777757,50.7196303 293.24,57.41 C294.237608,61.728519 293.473264,66.2665514 291.116085,70.0200212 C288.758906,73.7734909 285.003219,76.4329601 280.68,77.41 Z" id="Shape" fill="url(#linearGradient-3)" fill-rule="nonzero"></path>
                <rect id="Rectangle" fill="#00B476" transform="translate(285.661831, 100.568790) rotate(-12.110000) translate(-285.661831, -100.568790) " x="185.741831" y="76.9337901" width="199.84" height="47.27"></rect>
                <path d="M271.01,32.31 C255.928583,35.5469892 246.326547,50.3967162 249.562951,65.4782584 C252.799355,80.5598006 267.64871,90.162413 282.730378,86.9265941 C297.812045,83.6907751 307.415234,68.8417933 304.18,53.76 C302.626225,46.516718 298.258499,40.1874297 292.037806,36.1647026 C285.817113,32.1419756 278.253101,30.7553821 271.01,32.31 Z M280.25,75.41 C273.874881,76.7779251 267.303502,74.1706938 263.600322,68.8041473 C259.897142,63.4376008 259.791509,56.368689 263.332681,50.8938869 C266.873854,45.4190849 273.364394,42.6166637 279.777541,43.7934882 C286.190687,44.9703126 291.263361,49.8946052 292.63,56.27 C294.495767,64.9738323 288.953456,73.542478 280.25,75.41 Z" id="Shape" fill="#00B476" fill-rule="nonzero"></path>
                <rect id="Rectangle" fill="#E0E0E0" x="257.89" y="116.91" width="437.02" height="603.82"></rect>
                <g id="Group" opacity="0.5" transform="translate(265.000000, 127.000000)" fill="url(#linearGradient-1)">
                    <rect id="Rectangle" x="0.28" y="0.12" width="422.25" height="583.41"></rect>
                </g>
                <rect id="Rectangle" fill="#FFFFFF" x="270.65" y="131.42" width="411.5" height="570.52"></rect>
                <rect id="Rectangle" fill="url(#linearGradient-2)" x="374.87" y="106.68" width="204.14" height="49.45"></rect>
                <path d="M476.94,58.41 C461.18,58.41 448.4,71.49 448.4,87.63 C448.4,103.77 461.18,116.85 476.94,116.85 C492.7,116.85 505.48,103.77 505.48,87.63 C505.48,71.49 492.7,58.41 476.94,58.41 Z M476.94,104.49 C470.086708,104.652638 463.817246,100.649552 461.081141,94.3640293 C458.345036,88.0785069 459.687094,80.762105 464.475931,75.856893 C469.264767,70.951681 476.546843,69.4343715 482.896237,72.0187969 C489.245632,74.6032223 493.39807,80.7747787 493.4,87.63 C493.466712,96.8002317 486.109816,104.300153 476.94,104.41 L476.94,104.49 Z" id="Shape" fill="url(#linearGradient-4)" fill-rule="nonzero"></path>
                <rect id="Rectangle" fill="#00B476" x="377.02" y="104.56" width="199.84" height="47.27"></rect>
                <path d="M476.94,58.41 C465.64337,58.41 455.459078,65.214926 451.136045,75.6516517 C446.813011,86.0883774 449.202584,98.1015684 457.190508,106.089492 C465.178432,114.077416 477.191623,116.466989 487.628348,112.143955 C498.065074,107.820922 504.87,97.6366305 504.87,86.34 C504.87,70.9146869 492.365313,58.41 476.94,58.41 Z M476.94,102.46 C468.044994,102.448937 460.840034,95.2349961 460.84005,86.3399835 C460.840066,77.4449709 468.045052,70.2310563 476.940058,70.2200249 C485.835064,70.2089934 493.057921,77.4050148 493.08,86.3 C493.07735,90.5770243 491.375082,94.6776732 488.347956,97.6991721 C485.320831,100.720671 481.217022,102.415307 476.94,102.41 L476.94,102.46 Z" id="Shape" fill="#00B476" fill-rule="nonzero"></path>
                <g id="Group" opacity="0.5" transform="translate(6.000000, 737.000000)" fill="#47E6B1">
                    <rect id="Rectangle" x="9.27" y="0.05" width="3.76" height="21.33"></rect>
                    <rect id="Rectangle" transform="translate(11.155000, 10.720000) rotate(90.000000) translate(-11.155000, -10.720000) " x="9.275" y="0.055" width="3.76" height="21.33"></rect>
                </g>
                <g id="Group" opacity="0.5" transform="translate(442.000000, 0.000000)" fill="#47E6B1">
                    <rect id="Rectangle" x="9.49" y="0" width="3.76" height="21.33"></rect>
                    <rect id="Rectangle" transform="translate(11.375000, 10.660000) rotate(90.000000) translate(-11.375000, -10.660000) " x="9.495" y="-0.005" width="3.76" height="21.33"></rect>
                </g>
                <path d="M771.08,772.56 C768.9331,771.625433 767.827806,769.229912 768.51,766.99 C768.563186,766.824502 768.596749,766.653329 768.61,766.48 C768.671268,765.46308 768.059116,764.526089 767.103245,764.173683 C766.147373,763.821277 765.073498,764.136673 764.46,764.95 C764.356014,765.089303 764.268749,765.240338 764.2,765.4 C763.265433,767.5469 760.869912,768.652194 758.63,767.97 C758.464502,767.916814 758.293329,767.883251 758.12,767.87 C757.10308,767.808732 756.166089,768.420884 755.813683,769.376755 C755.461277,770.332627 755.776673,771.406502 756.59,772.02 C756.729303,772.123986 756.880338,772.211251 757.04,772.28 C759.1869,773.214567 760.292194,775.610088 759.61,777.85 C759.556814,778.015498 759.523251,778.186671 759.51,778.36 C759.448732,779.37692 760.060884,780.313911 761.016755,780.666317 C761.972627,781.018723 763.046502,780.703327 763.66,779.89 C763.763986,779.750697 763.851251,779.599662 763.92,779.44 C764.854567,777.2931 767.250088,776.187806 769.49,776.87 C769.655498,776.923186 769.826671,776.956749 770,776.97 C771.01692,777.031268 771.953911,776.419116 772.306317,775.463245 C772.658723,774.507373 772.343327,773.433498 771.53,772.82 C771.390697,772.716014 771.239662,772.628749 771.08,772.56 Z" id="Path" fill="#4D8AF0" opacity="0.5"></path>
                <path d="M136.67,567.5 C134.5231,566.565433 133.417806,564.169912 134.1,561.93 C134.153186,561.764502 134.186749,561.593329 134.2,561.42 C134.261268,560.40308 133.649116,559.466089 132.693245,559.113683 C131.737373,558.761277 130.663498,559.076673 130.05,559.89 C129.946014,560.029303 129.858749,560.180338 129.79,560.34 C128.855433,562.4869 126.459912,563.592194 124.22,562.91 C124.054502,562.856814 123.883329,562.823251 123.71,562.81 C122.69308,562.748732 121.756089,563.360884 121.403683,564.316755 C121.051277,565.272627 121.366673,566.346502 122.18,566.96 C122.319303,567.063986 122.470338,567.151251 122.63,567.22 C124.7769,568.154567 125.882194,570.550088 125.2,572.79 C125.146814,572.955498 125.113251,573.126671 125.1,573.3 C125.038732,574.31692 125.650884,575.253911 126.606755,575.606317 C127.562627,575.958723 128.636502,575.643327 129.25,574.83 C129.353986,574.690697 129.441251,574.539662 129.51,574.38 C130.444567,572.2331 132.840088,571.127806 135.08,571.81 C135.245498,571.863186 135.416671,571.896749 135.59,571.91 C136.60692,571.971268 137.543911,571.359116 137.896317,570.403245 C138.248723,569.447373 137.933327,568.373498 137.12,567.76 C136.980697,567.656014 136.829662,567.568749 136.67,567.5 Z" id="Path" fill="#FDD835" opacity="0.5"></path>
                <path d="M665.08,68.18 C662.9331,67.2454327 661.827806,64.8499123 662.51,62.61 C662.563186,62.4445015 662.596749,62.2733289 662.61,62.1 C662.671268,61.0830796 662.059116,60.1460888 661.103245,59.793683 C660.147373,59.4412772 659.073498,59.7566727 658.46,60.57 C658.356014,60.7093031 658.268749,60.8603378 658.2,61.02 C657.265433,63.1669001 654.869912,64.272194 652.63,63.59 C652.464502,63.5368141 652.293329,63.5032509 652.12,63.49 C651.10308,63.4287318 650.166089,64.0408836 649.813683,64.9967554 C649.461277,65.9526273 649.776673,67.0265022 650.59,67.64 C650.729303,67.7439861 650.880338,67.8312506 651.04,67.9 C653.1869,68.8345673 654.292194,71.2300877 653.61,73.47 C653.556814,73.6354985 653.523251,73.8066711 653.51,73.98 C653.448732,74.9969204 654.060884,75.9339112 655.016755,76.286317 C655.972627,76.6387228 657.046502,76.3233273 657.66,75.51 C657.763986,75.3706969 657.851251,75.2196622 657.92,75.06 C658.854567,72.9130999 661.250088,71.807806 663.49,72.49 C663.655498,72.5431859 663.826671,72.5767491 664,72.59 C665.01692,72.6512682 665.953911,72.0391164 666.306317,71.0832446 C666.658723,70.1273727 666.343327,69.0534978 665.53,68.44 C665.390697,68.3360139 665.239662,68.2487494 665.08,68.18 Z" id="Path" fill="#FDD835" opacity="0.5"></path>
                <circle id="Oval" fill="#F55F44" opacity="0.5" cx="812.64" cy="314.47" r="7.53"></circle>
                <circle id="Oval" fill="#F55F44" opacity="0.5" cx="230.73" cy="746.65" r="7.53"></circle>
                <circle id="Oval" fill="#F55F44" opacity="0.5" cx="735.31" cy="477.23" r="7.53"></circle>
                <circle id="Oval" fill="#4D8AF0" opacity="0.5" cx="87.14" cy="96.35" r="7.53"></circle>
                <circle id="Oval" fill="#47E6B1" opacity="0.5" cx="7.53" cy="301.76" r="7.53"></circle>
            </g>
        </g>
    </g>
</svg>