<?xml version="1.0" encoding="UTF-8"?>
<svg width="855px" height="1008px" viewBox="0 0 855 1008" version="1.1" xmlns="http://www.w3.org/2000/svg" xmlns:xlink="http://www.w3.org/1999/xlink">
    <!-- Generator: Sketch 52.6 (67491) - http://www.bohemiancoding.com/sketch -->
    <title>undraw_relaxation_1_wbr7</title>
    <desc>Created with Sketch.</desc>
    <defs>
        <linearGradient x1="148.200704%" y1="87.5374914%" x2="-52.5081878%" y2="13.9655556%" id="linearGradient-1">
            <stop stop-color="#808080" stop-opacity="0.25" offset="0%"></stop>
            <stop stop-color="#808080" stop-opacity="0.12" offset="54%"></stop>
            <stop stop-color="#808080" stop-opacity="0.1" offset="100%"></stop>
        </linearGradient>
        <linearGradient x1="63.2749204%" y1="184.960438%" x2="36.1472028%" y2="-28.4112931%" id="linearGradient-2">
            <stop stop-color="#808080" stop-opacity="0.25" offset="0%"></stop>
            <stop stop-color="#808080" stop-opacity="0.12" offset="54%"></stop>
            <stop stop-color="#808080" stop-opacity="0.1" offset="100%"></stop>
        </linearGradient>
        <linearGradient x1="68.6829088%" y1="92.3571384%" x2="31.3195156%" y2="7.63815851%" id="linearGradient-3">
            <stop stop-color="#808080" stop-opacity="0.25" offset="0%"></stop>
            <stop stop-color="#808080" stop-opacity="0.12" offset="54%"></stop>
            <stop stop-color="#808080" stop-opacity="0.1" offset="100%"></stop>
        </linearGradient>
    </defs>
    <g id="iOS---1.2" stroke="none" stroke-width="1" fill="none" fill-rule="evenodd">
        <g id="Artboard" transform="translate(-382.000000, -1258.000000)">
            <g id="undraw_relaxation_1_wbr7" transform="translate(376.000000, 1258.000000)">
                <polygon id="Path" fill="url(#linearGradient-1)" points="458.360536 492 434 489.718722 503.794559 0 530 2.82878491"></polygon>
                <polygon id="Rectangle" fill="#263238" transform="translate(477.114857, 281.161037) rotate(-81.390000) translate(-477.114857, -281.161037) " points="265.943182 275.720736 688.286921 275.705665 688.286532 286.601339 265.942793 286.61641"></polygon>
                <path d="M506,74 L515,9" id="Path" stroke="#263238" stroke-width="8"></path>
                <path d="M846,211 C460.025653,-119.32379 130,130.611409 130,130.611409 L846,211 Z" id="Path" fill="url(#linearGradient-2)"></path>
                <path d="M823,202 C463.552497,-105.347147 156,127.505858 156,127.505858 L823,202 Z" id="Path" fill="#00B476"></path>
                <polygon id="Path" fill="url(#linearGradient-3)" points="31 398.00761 50.7057247 458.144581 71.3498173 521.15143 91.055542 581.288401 111.699635 644.295249 131.405359 704.432221 152.062485 767.439069 171.76821 827.576041 192.412302 890.582889 212.118027 950.719861 230.885384 1008 566 897.979346 547.232643 840.699206 527.526918 780.562235 506.882826 717.555386 487.177101 657.418415 466.519976 594.411566 446.814251 534.274595 426.170158 471.280791 406.464434 411.130775 385.820341 348.136971 366.114616 288"></polygon>
                <polygon id="Rectangle" fill="#00B476" transform="translate(299.683536, 646.410284) rotate(-18.160000) translate(-299.683536, -646.410284) " points="130.865294 336.331572 468.546056 336.307459 468.501779 956.488995 130.821016 956.513108"></polygon>
                <polygon id="Rectangle" fill="#FFFFFF" opacity="0.5" transform="translate(212.580223, 380.814603) rotate(-18.160000) translate(-212.580223, -380.814603) " points="43.7420242 350.257544 381.422786 350.23343 381.418422 411.371663 43.7376592 411.395776"></polygon>
                <polygon id="Rectangle" fill="#FFFFFF" opacity="0.5" transform="translate(251.591136, 499.777522) rotate(-18.160000) translate(-251.591136, -499.777522) " points="82.7529371 469.220463 420.433699 469.19635 420.429334 530.334582 82.7485722 530.358695"></polygon>
                <polygon id="Rectangle" fill="#FFFFFF" opacity="0.5" transform="translate(290.597338, 618.737028) rotate(-18.160000) translate(-290.597338, -618.737028) " points="121.759139 588.179969 459.439901 588.155855 459.435536 649.294088 121.754774 649.318201"></polygon>
                <polygon id="Rectangle" fill="#FFFFFF" opacity="0.5" transform="translate(329.608250, 737.699947) rotate(-18.160000) translate(-329.608250, -737.699947) " points="160.770052 707.142888 498.450814 707.118774 498.446449 768.257007 160.765687 768.28112"></polygon>
                <polygon id="Rectangle" fill="#FFFFFF" opacity="0.5" transform="translate(368.619163, 856.662867) rotate(-18.160000) translate(-368.619163, -856.662867) " points="199.780965 826.105807 537.461727 826.081694 537.457362 887.219926 199.7766 887.244039"></polygon>
                <path d="M296.560335,552 C296.560335,552 359.696943,470.148083 312.461599,447.398447 C265.226255,424.648811 216,437.75811 216,437.75811 L220.983784,452.920203 C220.983784,452.920203 341.323305,465.431854 265.629642,532.966181 L296.560335,552 Z" id="Path" fill="#FFE0D6"></path>
                <path d="M196.219318,585 C196.219318,585 96.207947,556.351502 120.929418,509.953958 C145.650888,463.556413 193.405598,445 193.405598,445 L198.417945,460.196726 C198.417945,460.196726 108.365833,541.62357 210,551.351037 L196.219318,585 Z" id="Path" fill="#FFE0D6"></path>
                <path d="M126.073477,508.599665 C146.418707,470.379965 182.342792,451.029207 194.304429,445.416705 L194.173843,445 C194.173843,445 146.588468,463.621524 121.920857,509.953958 C97.2532459,556.286392 197.046725,585 197.046725,585 L198,582.656032 C181.167522,577.238862 104.122046,549.931634 126.073477,508.599665 Z" id="Path" fill="#000000" opacity="0.2"></path>
                <path d="M308.315172,448.749022 C269.353849,430.011556 229.052173,435.624999 216.130131,438.158845 L216,437.743035 C216,437.743035 265.241699,424.670988 312.466362,447.384644 C359.691025,470.0983 296.564312,552 296.564312,552 L294.404132,550.700592 C304.736561,536.316143 350.4517,469.006797 308.315172,448.749022 Z" id="Path" fill="#000000" opacity="0.2"></path>
                <ellipse id="Oval" fill="#FF7185" transform="translate(212.854699, 466.288819) rotate(-18.160000) translate(-212.854699, -466.288819) " cx="212.854699" cy="466.288819" rx="78.6040633" ry="78.6193346"></ellipse>
                <path d="M287.511367,694.284235 C259.345282,703.498998 237.777363,715.668212 228.649465,687.620452 L198.6578,596.514038 C189.475708,568.300729 204.844308,537.982161 233.056935,528.652775 C261.323684,519.488043 291.699679,534.827587 301.046736,562.986878 L331.038401,654.093291 C340.231499,682.141052 315.664413,685.017411 287.511367,694.284235 Z" id="Path" fill="#FF8976"></path>
                <g id="Group" opacity="0.2" transform="translate(195.000000, 527.000000)" fill="#000000">
                    <path d="M96.6130682,165.901168 L94.5352273,166.59365 C101.500568,164.372482 108.191477,162.477956 114.1375,160.452774 C108.675,162.190511 102.728977,163.902117 96.6130682,165.901168 Z" id="Path"></path>
                    <path d="M37.5710227,159.15927 L7.51420455,67.6994161 C-1.44038767,40.1522898 12.875396,10.4380134 40.0017045,0.267372263 C39.2960227,0.463357664 38.6034091,0.672408759 37.8977273,0.894525547 C9.61858073,10.2546358 -5.79009593,40.692507 3.41079545,69.0190511 L33.4676136,160.478905 C40.7204545,182.572993 55.5136364,179.868394 75.1551136,173.217956 C57.5392045,178.875401 44.3011364,179.672409 37.5710227,159.15927 Z" id="Path"></path>
                </g>
                <path d="M333.396524,662 C333.396524,662 398.030308,717.933601 398.394295,766.386799 C398.380743,774.313504 398.888829,782.232471 399.915243,790.092116 L407,859.162034 L377.582009,867.307071 L366.1554,780.748129 C365.5135,775.90212 363.667383,771.295453 360.786584,767.351172 L335.736443,732.946534 C330.209667,725.358622 320.437384,722.201784 311.531273,725.127298 C305.573967,727.087401 300.758124,731.542401 298.33138,737.338143 C295.904637,743.133886 296.105782,749.700075 298.882707,755.335613 L324.205839,806.734057 L347.605036,915.460532 L318.577032,925 C318.577032,925 294.189868,841.112631 273.71557,801.899163 C253.241272,762.685694 232,695.375105 232,695.375105 L333.396524,662 Z" id="Path" fill="#5CAADE"></path>
                <path d="M229.629881,506.700732 L236.920457,506.699069 C241.338735,506.698753 244.920712,510.280219 244.921028,514.698497 C244.921028,514.698878 244.921028,514.699259 244.921028,514.69964 L244.916768,542.369806 C244.916452,546.787637 241.335171,550.368919 236.917339,550.369234 L229.626763,550.37204 C225.208485,550.372355 221.626508,546.790889 221.626192,542.372611 C221.626192,542.37223 221.626192,542.37185 221.626192,542.371469 L221.630453,514.701303 C221.630768,510.283471 225.212049,506.70219 229.629881,506.701874 Z" id="Rectangle" fill="#FFE0D6" transform="translate(233.273610, 528.535554) rotate(-18.160000) translate(-233.273610, -528.535554) "></path>
                <path d="M218,520.207385 C218,520.207385 229.538186,524.526516 240,513" id="Path" fill="#000000" opacity="0.2"></path>
                <ellipse id="Oval" fill="#FFE0D6" transform="translate(212.854699, 466.288819) rotate(-18.160000) translate(-212.854699, -466.288819) " cx="212.854699" cy="466.288819" rx="53.8537539" ry="53.8642166"></ellipse>
                <path d="M162,429.648603 C162,429.648603 166.873826,472.435301 258,427.343903 L224.44508,400 L191.661086,403.059913 L162,429.648603 Z" id="Path" fill="#FF7185"></path>
                <path d="M236.881682,485.775205 C237.897047,488.803273 232.279577,494.833528 223.787439,497.589847 C215.295301,500.346165 207.11964,498.715667 206.104276,495.674658 C205.088912,492.63365 211.616254,489.333832 220.121578,486.616335 C228.626902,483.898837 235.866318,482.798898 236.881682,485.775205 Z" id="Path" fill="#FFFFFF"></path>
                <path d="M210.752721,473.137261 L220.391492,473.13643 C220.943776,473.13639 221.391524,473.584073 221.391563,474.136358 C221.391563,474.136406 221.391563,474.136453 221.391563,474.136501 L221.391213,475.0435 C221.391173,475.595729 220.943513,476.043389 220.391284,476.043429 L210.752513,476.044403 C210.200228,476.044442 209.752481,475.596759 209.752442,475.044474 C209.752442,475.044426 209.752442,475.044379 209.752442,475.044331 L209.752792,474.137332 C209.752831,473.585103 210.200492,473.137443 210.752721,473.137404 Z" id="Rectangle" fill="#000000" opacity="0.1" transform="translate(215.572002, 474.590416) rotate(-18.160000) translate(-215.572002, -474.590416) "></path>
                <ellipse id="Oval" fill="#383F4D" transform="translate(184.803776, 460.163487) rotate(-18.160000) translate(-184.803776, -460.163487) " cx="184.803776" cy="460.163487" rx="2.90643444" ry="2.90699911"></ellipse>
                <ellipse id="Oval" fill="#383F4D" transform="translate(231.834486, 444.734053) rotate(-18.160000) translate(-231.834486, -444.734053) " cx="231.834486" cy="444.734053" rx="2.90643444" ry="2.90699911"></ellipse>
                <path d="M167.243304,459.357393 L171.261359,471.454824 C172.159671,474.136279 175.074875,475.608642 177.805423,474.759992 L198.406135,468.098013 C201.124417,467.211871 202.617001,464.336162 201.756696,461.642607 L197.738641,449.545176 C196.840329,446.863721 193.925125,445.391358 191.194577,446.240008 L170.593865,452.901987 C167.875583,453.788129 166.382999,456.663838 167.243304,459.357393 Z M195.042487,467.000594 L179.99114,471.86797 C177.260592,472.71662 174.345388,471.244257 173.447076,468.562802 L170.750922,460.441901 C169.890617,457.748346 171.383202,454.872637 174.101483,453.986495 L189.152829,449.119119 C191.883377,448.270469 194.798581,449.742832 195.696893,452.424287 L198.393047,460.545188 C199.251057,463.246229 197.745077,466.125255 195.01631,467.000594 L195.042487,467.000594 Z" id="Shape" fill="#E75F7E" fill-rule="nonzero"></path>
                <path d="M175.283968,449.97044 L194.320978,449.968569 C196.298157,449.968428 197.901092,451.571134 197.901233,453.548314 C197.901233,453.548484 197.901233,453.548655 197.901233,453.548825 L197.899267,466.76389 C197.899126,468.74087 196.296503,470.343494 194.319523,470.343635 L175.282513,470.346017 C173.305334,470.346158 171.702398,468.743452 171.702257,466.766272 C171.702257,466.766102 171.702257,466.765932 171.702257,466.765761 L171.704223,453.550696 C171.704364,451.573716 173.306988,449.971093 175.283968,449.970951 Z" id="Rectangle" fill="#E75F7E" opacity="0.2" transform="translate(184.801745, 460.157293) rotate(-18.160000) translate(-184.801745, -460.157293) "></path>
                <path d="M199.282874,456 L198,455.238553 C198.076972,455.120398 206.685055,442.714069 218,448.569331 L217.358563,449.88217 C207.262348,444.630814 199.552277,455.553635 199.282874,456 Z" id="Path" fill="#E75F7E"></path>
                <ellipse id="Oval" fill="#FFE0D6" transform="translate(264.026732, 449.487334) rotate(-4.970000) translate(-264.026732, -449.487334) " cx="264.026732" cy="449.487334" rx="4.36607397" ry="10.194271"></ellipse>
                <ellipse id="Oval" fill="#FFE0D6" transform="translate(161.678826, 483.075389) rotate(-31.350000) translate(-161.678826, -483.075389) " cx="161.678826" cy="483.075389" rx="4.36635117" ry="10.1936242"></ellipse>
                <path d="M164.221315,426.996026 L162,428.954967 C162,428.954967 166.873826,471.027371 258,426.688742 L254.641895,424 C183.050225,457.558056 167.474888,435.587196 164.221315,426.996026 Z" id="Path" fill="#FFFFFF" opacity="0.2"></path>
                <path d="M214.252142,443.3852 L218.269176,455.461126 C219.16726,458.137814 222.081722,459.60756 224.811575,458.760419 L245.407049,452.110282 C248.124639,451.225716 249.616844,448.355119 248.756758,445.666351 L244.792064,433.538874 C243.89398,430.862186 240.979518,429.39244 238.249664,430.239581 L217.65419,436.889718 C216.32644,437.303745 215.220974,438.221913 214.582471,439.440997 C213.943969,440.660081 213.825088,442.079541 214.252142,443.3852 Z M242.044256,451.014814 L226.996737,455.873538 C224.266883,456.720679 221.352421,455.250933 220.454337,452.574245 L217.758869,444.46778 C216.898783,441.779013 218.390987,438.908416 221.108577,438.02385 L236.156096,433.165126 C238.88595,432.317985 241.800412,433.78773 242.698496,436.464418 L245.393965,444.570883 C246.252896,447.263383 244.754001,450.135631 242.031171,451.014814 L242.044256,451.014814 Z" id="Shape" fill="#E75F7E" fill-rule="nonzero"></path>
                <path d="M222.314677,434.541007 L241.351687,434.539136 C243.328867,434.538995 244.931802,436.141701 244.931943,438.11888 C244.931943,438.119051 244.931943,438.119221 244.931943,438.119391 L244.929977,451.334457 C244.929836,453.311437 243.327213,454.91406 241.350233,454.914201 L222.313223,454.916583 C220.336043,454.916724 218.733108,453.314018 218.732967,451.336839 C218.732967,451.336668 218.732967,451.336498 218.732967,451.336328 L218.734933,438.121262 C218.735074,436.144282 220.337698,434.541659 222.314677,434.541518 Z" id="Rectangle" fill="#E75F7E" opacity="0.2" transform="translate(231.832455, 444.727860) rotate(-18.160000) translate(-231.832455, -444.727860) "></path>
                <g id="Group" opacity="0.2" transform="translate(232.000000, 693.000000)" fill="#000000">
                    <path d="M47.6264789,106.609553 C26.9961972,67.4421229 5.59309859,0.210558659 5.59309859,0.210558659 L0.0392957746,2.01988827 C0.0392957746,2.01988827 21.4423944,69.2384358 42.0726761,108.418883 C62.7029577,147.59933 87.2497183,231.323128 87.2497183,231.323128 L92.8035211,229.513799 C92.8035211,229.513799 68.243662,145.724916 47.6264789,106.609553 Z" id="Path"></path>
                </g>
                <path d="M319,924.528732 L328.102766,952 L371.288887,948.538542 C371.288887,948.538542 377.309716,938.957954 366.763512,934.783462 C356.217308,930.60897 348.024819,915 348.024819,915 L319,924.528732 Z" id="Path" fill="#FFFAFA"></path>
                <path d="M376.797545,859.453368 L374,884.829016 L415.332736,899 C415.332736,899 424.802359,892.65285 416.764344,884.608808 C408.726328,876.564767 407.570535,859 407.570535,859 L376.797545,859.453368 Z" id="Path" fill="#FFFAFA"></path>
                <path d="M321.774321,924 L319,924.927788 L328.147407,953 L371.607407,949.461152 C371.607407,949.461152 371.777531,949.196069 372,948.732176 L330.921728,952.072212 L321.774321,924 Z" id="Path" fill="#000000" opacity="0.2"></path>
                <ellipse id="Oval" fill="#000000" opacity="0.1" transform="translate(433.500986, 530.974129) rotate(-86.980000) translate(-433.500986, -530.974129) " cx="433.500986" cy="530.974129" rx="121.353678" ry="427.509836"></ellipse>
            </g>
        </g>
    </g>
</svg>