<?xml version="1.0" encoding="UTF-8"?>
<svg width="340px" height="261px" viewBox="0 0 340 261" version="1.1" xmlns="http://www.w3.org/2000/svg" xmlns:xlink="http://www.w3.org/1999/xlink">
    <!-- Generator: Sketch 53.2 (72643) - https://sketchapp.com -->
    <title>undraw_bug_fixing_oc7a</title>
    <desc>Created with Sketch.</desc>
    <defs>
        <linearGradient x1="50.834416%" y1="100.420433%" x2="48.7766002%" y2="0.0198459433%" id="linearGradient-1">
            <stop stop-color="#808080" stop-opacity="0.25" offset="0%"></stop>
            <stop stop-color="#808080" stop-opacity="0.12" offset="54%"></stop>
            <stop stop-color="#808080" stop-opacity="0.1" offset="100%"></stop>
        </linearGradient>
    </defs>
    <g id="Web---1.3" stroke="none" stroke-width="1" fill="none" fill-rule="evenodd">
        <g id="Artboard" transform="translate(-470.000000, -123.000000)" fill-rule="nonzero">
            <g id="undraw_bug_fixing_oc7a" transform="translate(470.000000, 123.000000)">
                <ellipse id="Oval" fill="#E32C66" opacity="0.1" cx="155.5" cy="219" rx="141.5" ry="11"></ellipse>
                <g id="Group" opacity="0.1" transform="translate(226.000000, 31.000000)">
                    <path d="M55.0281977,126.426393 C54.1864535,123.866926 50.7730814,122.688443 47.4061047,123.797213 C46.9209982,123.955614 46.4516981,124.158995 46.0043023,124.404713 C45.7888953,124.344959 45.5668605,124.291844 45.3415116,124.252008 C45.5254319,123.515715 45.5958392,122.755572 45.5502907,121.997951 C47.9120974,120.415166 49.2807439,117.714657 49.1625,114.870615 C51.5177624,113.283367 52.8806473,110.584321 52.7614535,107.743279 C53.9286187,106.972758 54.8699796,105.904882 55.4888372,104.649344 C57.1126744,101.429262 56.4399419,97.8108197 53.9843023,96.5659426 C51.5286628,95.3210656 48.2180233,96.9244672 46.594186,100.144549 C45.9504154,101.387326 45.6495324,102.779735 45.7226163,104.177951 C43.3673539,105.765199 42.0044689,108.464244 42.1236628,111.305287 C39.7684004,112.892535 38.4055154,115.59158 38.5247093,118.432623 C36.1638716,120.017812 34.7956979,122.718645 34.9125,125.563279 C33.7453348,126.333799 32.8039739,127.401676 32.1851163,128.657213 C31.8798812,129.262381 31.6484503,129.902144 31.495814,130.562705 C31.0887544,129.966718 30.5924689,129.437106 30.0244186,128.9925 C29.9594192,128.48551 29.8484967,127.985497 29.6930233,127.498648 C28.5861628,124.122541 25.6168605,122.064344 23.0651163,122.907541 C20.5133721,123.750738 19.3336047,127.16668 20.4404651,130.542787 C20.8934787,131.990356 21.7654591,133.270543 22.945814,134.220984 C23.0108134,134.727973 23.1217359,135.227986 23.2772093,135.714836 C23.9201163,137.673443 25.1893605,139.187213 26.6408721,139.947418 C26.5123134,140.370281 26.4202884,140.803433 26.365814,141.24209 C24.9971837,142.560755 24.1161718,144.305921 23.867093,146.191721 C22.4973679,147.510928 21.6162208,149.257533 21.3683721,151.144672 C20.6901868,151.797014 20.1296163,152.561828 19.7113953,153.405369 C18.0842442,156.625451 18.7569767,160.247213 21.2126163,161.48877 C23.6682558,162.730328 26.9788953,161.133566 28.6060465,157.910164 C29.0349673,157.069606 29.3152749,156.160965 29.4345349,155.224549 C30.8031652,153.905884 31.684177,152.160718 31.9332558,150.274918 C33.302981,148.955711 34.1841281,147.209106 34.4319767,145.321967 C35.7913574,144.000215 36.6619284,142.254897 36.9008721,140.372336 C38.2756659,139.053344 39.1595604,137.303586 39.4062209,135.412746 C39.8277735,135.01235 40.2044773,134.567095 40.5296512,134.084877 C41.8836427,134.363274 43.2872475,134.275039 44.5958721,133.829262 C45.0809786,133.670862 45.5502786,133.467481 45.9976744,133.221762 C47.4633835,133.608978 49.0106528,133.553541 50.445,133.062418 C53.8020349,131.963607 55.8666279,128.98918 55.0281977,126.426393 Z" id="Path" fill="#3F3D56"></path>
                    <g transform="translate(18.889535, 104.901639)" fill="#000000" id="Path">
                        <path d="M30.1967442,11.4329508 C29.8489414,11.7755417 29.4669377,12.0814495 29.0567442,12.3458607 C29.1088189,13.2934826 28.9840713,14.2425246 28.6888953,15.1443443 C28.9496752,14.783232 29.1823382,14.4025598 29.3848256,14.0056967 C29.795775,13.1990513 30.0701467,12.3296432 30.1967442,11.4329508 L30.1967442,11.4329508 Z"></path>
                        <path d="M33.7956977,4.30561475 C33.4478949,4.64820568 33.0658912,4.95411347 32.6556977,5.21852459 C32.7077724,6.16614657 32.5830248,7.11518852 32.2878488,8.0170082 C32.5493671,7.6552264 32.7820619,7.27339226 32.9837791,6.87504098 C33.3931974,6.06894122 33.6674967,5.20088398 33.7956977,4.30561475 L33.7956977,4.30561475 Z"></path>
                        <path d="M25.6334302,1.65319672 C25.6029736,1.16454929 25.6218484,0.67406994 25.6897674,0.189221311 C25.0462367,0.824566566 24.5111083,1.5613575 24.1056977,2.3702459 C23.9056244,2.76911601 23.7371975,3.18314005 23.6019767,3.60848361 C24.150469,2.83464931 24.8396502,2.17130804 25.6334302,1.65319672 L25.6334302,1.65319672 Z"></path>
                        <path d="M2.79034884,44.7856967 C3.07989674,44.3814188 3.40724878,44.0057038 3.76796512,43.6636475 C3.82434021,43.2132964 3.92082959,42.7689015 4.05627907,42.3357787 C3.76811842,42.7234755 3.51419489,43.1355637 3.29738372,43.567377 C3.09708431,43.959696 2.92756109,44.3670318 2.79034884,44.7856967 Z"></path>
                        <path d="M5.28906977,39.8393852 C5.57861767,39.4351073 5.90596971,39.0593923 6.26668605,38.7173361 C6.32078527,38.2786162 6.41281706,37.8454314 6.54174419,37.4226639 L6.54174419,37.4226639 C6.26656517,37.7992573 6.02272252,38.1978508 5.81267442,38.6144262 C5.60777105,39.0090387 5.43274389,39.4185101 5.28906977,39.8393852 Z"></path>
                        <path d="M26.5944767,18.5602869 C26.2486399,18.9027635 25.867627,19.2076547 25.4577907,19.469877 C25.5031829,20.2274956 25.4327779,20.9876147 25.2490116,21.7239344 C25.4725591,21.7626774 25.6938207,21.8136553 25.9118023,21.8766393 C26.3591981,21.6309209 26.8284982,21.42754 27.3136047,21.2691393 C30.6872093,20.1603689 34.0972674,21.3388525 34.9356977,23.8983197 C35.143838,24.54163 35.1803965,25.2282851 35.0417442,25.890123 C36.1519186,24.5821721 36.6125581,22.9887295 36.1353488,21.5280738 C35.2936047,18.9686066 31.8802326,17.790123 28.5132558,18.8988934 C28.0281493,19.0572941 27.5588493,19.260675 27.1114535,19.5063934 C26.8960465,19.4466393 26.6740116,19.3935246 26.4486628,19.3536885 C26.5116279,19.0881148 26.5580233,18.8258607 26.5944767,18.5602869 Z"></path>
                        <path d="M1.55755814,47.2721311 C1.26939749,47.659828 1.01547396,48.0719162 0.798662791,48.5037295 C0.597290893,48.9039862 0.426680048,49.3190418 0.288313953,49.7452869 C0.584137154,49.339057 0.916959835,48.9612071 1.2825,48.6165984 C1.33356825,48.1610576 1.42562869,47.7110718 1.55755814,47.2721311 Z"></path>
                        <path d="M22.017907,8.78053279 C21.987653,8.29188296 22.006527,7.80142402 22.0742442,7.31655738 C21.4307134,7.95190263 20.895585,8.68869357 20.4901744,9.49758197 C20.2901012,9.89645208 20.1216742,10.3104761 19.9864535,10.7358197 C20.5349458,9.96198537 21.224127,9.29864411 22.017907,8.78053279 L22.017907,8.78053279 Z"></path>
                        <path d="M16.818314,37.847582 C16.7529277,38.3414688 16.6419881,38.8282225 16.4869186,39.3015984 C16.7461775,38.9389631 16.9777088,38.5572204 17.1795349,38.1596311 C17.3967735,37.733115 17.5774802,37.2888976 17.7197093,36.8317623 C17.4483913,37.1952366 17.14685,37.5350559 16.818314,37.847582 Z"></path>
                        <path d="M11.8208721,47.7468443 C11.7557497,48.2407787 11.6448046,48.7275566 11.4894767,49.2008607 C11.750995,48.8390789 11.9836898,48.4572447 12.185407,48.0588934 C12.401276,47.6317504 12.5819354,47.1876493 12.7255814,46.7310246 C12.4540454,47.0953174 12.1513302,47.43521 11.8208721,47.7468443 L11.8208721,47.7468443 Z"></path>
                        <path d="M14.319593,42.7938934 C14.2545465,43.2878415 14.1435999,43.7746265 13.9881977,44.2479098 C14.2523021,43.8922062 14.4893641,43.5171349 14.6973837,43.1258607 C14.9146223,42.6993445 15.0953291,42.2551271 15.2375581,41.7979918 C14.960088,42.1552408 14.6530095,42.4883907 14.319593,42.7938934 Z"></path>
                        <path d="M19.3170349,32.8979508 C19.2519952,33.3908146 19.1410462,33.8764984 18.9856395,34.3486475 C19.2455987,33.9876378 19.4771674,33.6069433 19.6782558,33.21 C19.8978665,32.7761244 20.0797034,32.3240797 20.2217442,31.8588934 C19.9517641,32.2316218 19.6489834,32.5793649 19.3170349,32.8979508 L19.3170349,32.8979508 Z"></path>
                        <path d="M2.95604651,20.3794672 C5.5144186,19.5395902 8.48372093,21.5944672 9.58395349,24.9705738 C9.73909527,25.4586447 9.85000904,25.9597289 9.91534884,26.4677459 C10.4833992,26.9123514 10.9796846,27.4419642 11.3867442,28.0379508 C11.5393424,27.3763154 11.7707694,26.7354495 12.0760465,26.1291393 C12.1920349,25.9034016 12.3179651,25.687623 12.4472093,25.4652049 C12.0711468,24.9438062 11.6250822,24.4768643 11.1216279,24.077582 C11.0566285,23.5705921 10.945706,23.0705794 10.7902326,22.5837295 C9.68337209,19.207623 6.71406977,17.1494262 4.16232558,17.992623 C2.70418605,18.4706557 1.69674419,19.7885656 1.30569767,21.455041 C1.75416697,20.9601282 2.32264272,20.5896383 2.95604651,20.3794672 L2.95604651,20.3794672 Z"></path>
                        <path d="M14.82,23.0352049 C14.7907288,22.5475498 14.8107139,22.0581798 14.8796512,21.5745492 C14.2340229,22.2088478 13.6976471,22.9458144 13.2922674,23.7555738 C13.0916432,24.1530478 12.9231952,24.5660135 12.7885465,24.9904918 C13.3385277,24.2179444 14.0274442,23.5548579 14.82,23.0352049 Z"></path>
                        <path d="M18.4189535,15.9045492 C18.3896822,15.416894 18.4096674,14.927524 18.4786047,14.4438934 C17.8322953,15.0763438 17.2958079,15.8123418 16.8912209,16.6215984 C16.6911477,17.0204685 16.5227207,17.4344925 16.3875,17.8598361 C16.9359923,17.0860018 17.6251735,16.4226605 18.4189535,15.9045492 Z"></path>
                        <path d="M9.32215116,52.6964754 C9.25704165,53.1914978 9.14609846,53.6793788 8.99075581,54.1538115 C9.53546413,53.3981137 9.95301905,52.5581986 10.2268605,51.667377 C9.95593673,52.036271 9.6532047,52.3806259 9.32215116,52.6964754 L9.32215116,52.6964754 Z"></path>
                    </g>
                    <path d="M59.9394767,93.4886066 C61.1074887,92.7190634 62.0490757,91.6509304 62.6668605,90.3946721 C64.2940116,87.1745902 63.6212791,83.5528279 61.1656395,82.3079508 C58.71,81.0630738 55.3993605,82.6664754 53.7722093,85.889877 C53.1276937,87.1358698 52.8278987,88.531978 52.9039535,89.9332377 C50.5486911,91.5204858 49.1858061,94.2195313 49.305,97.0605738 C48.1362425,97.8292558 47.1944556,98.8976154 46.5776163,100.154508 C46.3781214,100.548647 46.2107736,100.958302 46.0772093,101.379467 C46.9423428,100.1245 48.1970348,99.1909019 49.6463372,98.7237295 C49.9795867,99.756578 50.7115239,100.612923 51.6789634,101.101843 C52.6464029,101.590763 53.7689097,101.671607 54.7962209,101.326352 C55.2855907,102.76976 55.2855907,104.334626 54.7962209,105.778033 C55.0550566,105.42041 55.285529,105.043026 55.4855233,104.649344 C56.1283,103.406305 56.4280443,102.01387 56.3537791,100.615943 C58.7120481,99.0313564 60.0758485,96.330498 59.9527326,93.4886066 L59.9394767,93.4886066 Z" id="Path" fill="#3F3D56"></path>
                    <path d="M99.4948256,47.7966393 C100.493903,47.3296901 101.459473,46.7939392 102.384593,46.1932377 L91.6705814,38.3521721 L104.263605,44.8487705 C109.41246,40.7515164 112.648944,34.7104616 113.211279,28.1475 L91.8097674,28.3665984 L113.257674,24.7747131 C112.653446,15.917756 107.198527,8.12592914 99.0914974,4.53969329 C90.9844677,0.953457449 81.561089,2.16370165 74.6194115,7.68264243 C67.6777339,13.2015832 64.3615088,22.1198878 66.0073256,30.8430738 C64.4516116,31.5676923 62.9783456,32.4580743 61.6130233,33.4988115 L72.7976163,49.0780328 L59.3694767,35.4408197 C53.6120261,41.1040171 51.0979181,49.2961476 52.6852326,57.2211885 C41.4114059,62.4924287 36.0730845,75.5564259 40.4214005,87.2333692 C44.7697166,98.9103125 57.3450331,105.280501 69.3109254,101.86773 C81.2768177,98.4549594 88.616591,86.4048234 86.1727326,74.1847131 C96.1641157,69.5261287 101.670582,58.6190561 99.4948256,47.7966393 Z" id="Path" fill="#E32C66"></path>
                    <path d="M54.7962209,41.715 C52.3719153,46.4989597 51.6304467,51.9625443 52.6918605,57.2211885 C41.4180339,62.4924287 36.0797124,75.5564259 40.4280284,87.2333692 C44.7763445,98.9103125 57.351661,105.280501 69.3175533,101.86773 C81.2834456,98.4549594 88.6232189,86.4048234 86.1793605,74.1847131 C90.8619767,72.0070082 55.9958721,39.3215164 54.7962209,41.715 Z" id="Path" fill="#000000"></path>
                    <ellipse id="Oval" fill="#E32C66" cx="81.6856395" cy="3.55868852" rx="3.54261628" ry="3.54872951"></ellipse>
                    <ellipse id="Oval" fill="#E32C66" cx="102.377965" cy="5.83598361" rx="3.54261628" ry="3.54872951"></ellipse>
                    <ellipse id="Oval" fill="#E32C66" cx="110.357965" cy="37.7247541" rx="3.54261628" ry="3.54872951"></ellipse>
                    <ellipse id="Oval" fill="#E32C66" cx="99.5876163" cy="53.6492213" rx="3.54261628" ry="3.54872951"></ellipse>
                    <ellipse id="Oval" fill="#E32C66" cx="84.8736628" cy="86.7231148" rx="3.54261628" ry="3.54872951"></ellipse>
                    <ellipse id="Oval" fill="#000000" cx="84.8736628" cy="86.7231148" rx="3.54261628" ry="3.54872951"></ellipse>
                    <ellipse id="Oval" fill="#E32C66" cx="52.158314" cy="49.2639344" rx="3.54261628" ry="3.54872951"></ellipse>
                    <ellipse id="Oval" fill="#000000" cx="52.158314" cy="49.2639344" rx="3.54261628" ry="3.54872951"></ellipse>
                    <path d="M48.380407,107.63373 C46.024186,106.441967 45.311686,103.065861 46.6869767,99.9520082 C46.6140698,100.078156 46.5444767,100.207623 46.4781977,100.34373 C44.8510465,103.563811 45.5237791,107.182254 47.9794186,108.427131 C50.4350581,109.672008 53.7456977,108.068607 55.3695349,104.848525 C55.4391279,104.715738 55.4987791,104.579631 55.5584302,104.446844 C53.8716279,107.404672 50.733314,108.828811 48.380407,107.63373 Z" id="Path" fill="#000000"></path>
                    <path d="M44.8808721,114.565205 C42.5279651,113.373443 41.8121512,109.997336 43.1907558,106.880164 C43.1178488,107.009631 43.0449419,107.139098 42.9786628,107.271885 C41.3515116,110.491967 42.0242442,114.11373 44.4798837,115.355287 C46.9355233,116.596844 50.2461628,115.000082 51.873314,111.77668 C51.939593,111.643893 52.0025581,111.511107 52.0622093,111.375 C50.372093,114.332828 47.237093,115.756967 44.8808721,114.565205 Z" id="Path" fill="#000000"></path>
                    <path d="M41.3813372,121.493361 C39.0284302,120.301598 38.3126163,116.925492 39.6912209,113.811639 C39.618314,113.937787 39.545407,114.067254 39.4791279,114.203361 C37.8519767,117.423443 38.5280233,121.041885 40.9836628,122.286762 C43.4393023,123.531639 46.7466279,121.928238 48.3737791,118.708156 C48.4400581,118.575369 48.5030233,118.439262 48.5626744,118.306475 C46.8758721,121.264303 43.7375581,122.688443 41.3813372,121.493361 Z" id="Path" fill="#000000"></path>
                    <path d="M37.8950581,128.441434 C35.5388372,127.249672 34.8263372,123.873566 36.2016279,120.759713 C36.1287209,120.885861 36.0591279,121.015328 35.9895349,121.148115 C34.3656977,124.368197 35.0384302,127.989959 37.4940698,129.234836 C39.9497093,130.479713 43.2603488,128.876311 44.884186,125.65291 C44.9537791,125.520123 45.0134302,125.387336 45.0730814,125.25123 C43.3763372,128.192459 40.2380233,129.616598 37.8950581,128.441434 Z" id="Path" fill="#000000"></path>
                    <path d="M34.3855814,135.352992 C32.0293605,134.16123 31.3168605,130.785123 32.6921512,127.67127 C32.6192442,127.797418 32.5496512,127.926885 32.4833721,128.062992 C30.8562209,131.283074 31.5289535,134.901516 33.984593,136.146393 C36.4402326,137.39127 39.7508721,135.787869 41.3780233,132.567787 C41.4443023,132.435 41.5072674,132.298893 41.5669186,132.166107 C39.8834302,135.123934 36.7384884,136.548074 34.3855814,135.352992 Z" id="Path" fill="#000000"></path>
                    <path d="M30.8860465,142.284467 C28.5331395,141.092705 27.8173256,137.716598 29.1959302,134.602746 C29.1230233,134.728893 29.0501163,134.858361 28.9838372,134.991148 C27.356686,138.21123 28.0294186,141.832992 30.4883721,143.077869 C32.9473256,144.322746 36.2380814,142.716025 37.8950581,139.495943 C37.9613372,139.363156 38.0243023,139.230369 38.0839535,139.094262 C36.3772674,142.05209 33.2555233,143.47623 30.8860465,142.284467 Z" id="Path" fill="#000000"></path>
                    <path d="M27.3865116,149.212623 C25.0336047,148.020861 24.3177907,144.644754 25.6963953,141.530902 C25.6234884,141.660369 25.5538953,141.786516 25.4843023,141.922623 C23.8604651,145.142705 24.5331977,148.761148 26.9888372,150.006025 C29.4444767,151.250902 32.7551163,149.6475 34.3789535,146.427418 C34.4485465,146.294631 34.5081977,146.158525 34.5678488,146.025738 C32.8810465,148.983566 29.7427326,150.407705 27.3865116,149.212623 Z" id="Path" fill="#000000"></path>
                    <path d="M23.8902907,156.144098 C21.5340698,154.952336 20.8215698,151.57623 22.1968605,148.462377 C22.1239535,148.588525 22.0543605,148.717992 21.9880814,148.850779 C20.3609302,152.070861 21.0336628,155.692623 23.4893023,156.9375 C25.9449419,158.182377 29.2555814,156.578975 30.8827326,153.355574 C30.9490116,153.222787 31.0086628,153.09 31.068314,152.953893 C29.3815116,155.911721 26.2431977,157.322582 23.8902907,156.144098 Z" id="Path" fill="#000000"></path>
                    <path d="M21.590407,160.698689 C19.2375,159.503607 18.521686,156.13082 19.9002907,153.013648 C19.8273837,153.143115 19.7544767,153.272582 19.6881977,153.405369 C18.0610465,156.625451 18.7337791,160.247213 21.1894186,161.48877 C23.6450581,162.730328 26.9556977,161.133566 28.5828488,157.910164 C28.6491279,157.777377 28.712093,157.64459 28.7717442,157.508484 C27.0816279,160.466311 23.943314,161.890451 21.590407,160.698689 Z" id="Path" fill="#000000"></path>
                    <path d="M84.8173256,129.855615 C85.1823782,128.806869 85.4052975,127.713796 85.4801163,126.605656 C86.1436059,126.604182 86.7505289,126.231055 87.0522628,125.639123 C87.3539967,125.047191 87.2998405,124.335918 86.9119791,123.796673 C86.5241176,123.257428 85.8677239,122.980822 85.211686,123.080164 C84.4139838,119.441466 82.0236355,116.355717 78.7030814,114.678074 C79.1441707,113.80354 78.7940157,112.7364 77.9209884,112.294549 C77.047961,111.852699 75.982659,112.203458 75.5415698,113.077992 C75.4648869,113.227261 75.4112535,113.38732 75.3825,113.552705 C71.4374208,112.816447 67.3802617,114.034335 64.4895349,116.822582 C63.4136245,116.648211 62.3195402,116.615845 61.2352326,116.726311 L59.8002907,123.269385 L59.7141279,116.962008 C55.2269466,117.947286 51.6511097,121.336647 50.4212212,125.770299 C49.1913327,130.203951 50.5089135,134.955427 53.8453583,138.118464 C57.181803,141.281501 61.9904252,142.337826 66.3420349,140.863648 C66.5128287,141.172426 66.7727168,141.422349 67.0876744,141.580697 C67.7525224,141.919005 68.5577384,141.80352 69.1011119,141.291927 C69.6444854,140.780334 69.8094034,139.982425 69.5134884,139.296762 C70.0787921,138.907882 70.6108557,138.472614 71.104186,137.995451 C76.4116679,138.859836 81.671099,136.202129 84.1313372,131.412541 L77.4537209,130.287172 L84.8173256,129.855615 Z" id="Path" fill="#E32C66"></path>
                    <path d="M74.5009884,133.032541 C72.035407,129.772623 70.5242442,125.911844 68.7844186,122.20709 C68.0858779,120.686479 67.3036885,119.205845 66.4414535,117.772008 L65.1357558,116.248279 C64.9170349,116.43418 64.698314,116.626721 64.4729651,116.829221 C63.3970547,116.65485 62.3029704,116.622484 61.2186628,116.732951 L59.7837209,123.276025 L59.6975581,116.968648 C55.2103768,117.953926 51.6345399,121.343286 50.4046514,125.776938 C49.1747629,130.21059 50.4923437,134.962066 53.8287885,138.125103 C57.1652333,141.28814 61.9738554,142.344465 66.3254651,140.870287 C66.4962589,141.179065 66.756147,141.428988 67.0711047,141.587336 C67.7359526,141.925644 68.5411687,141.810159 69.0845421,141.298566 C69.6279156,140.786973 69.7928337,139.989065 69.4969186,139.303402 C70.0622223,138.914521 70.5942859,138.479253 71.0876163,138.00209 C73.6205937,138.412788 76.2183827,138.027782 78.5241279,136.899959 C76.9850078,135.834927 75.6266593,134.529155 74.5009884,133.032541 L74.5009884,133.032541 Z" id="Path" fill="#000000"></path>
                    <path d="M30.8396512,119.023525 C31.1174978,118.473202 31.0898623,117.817779 30.7666798,117.292887 C30.4434973,116.767994 29.8712175,116.449073 29.2555814,116.450779 C28.7532935,113.782918 27.3912158,111.353769 25.3782558,109.535902 C25.7026717,108.268447 25.8256919,106.957701 25.7427907,105.651885 L19.2308721,104.539795 L25.5538953,104.141434 C25.4403367,103.546695 25.2841771,102.960919 25.0866279,102.388648 C25.3327909,102.218974 25.5331743,101.990872 25.6698837,101.724713 C25.9962317,101.075462 25.8946754,100.292536 25.4135272,99.7483908 C24.9323789,99.2042452 24.168779,99.0087383 23.4859884,99.254877 C20.0305805,94.3636987 13.5820538,92.6405471 8.15378987,95.1578634 C2.72552598,97.6751796 -0.135180768,103.715418 1.35209302,109.519303 C0.968613965,109.681411 0.655857355,109.975862 0.470581395,110.349221 C0.137690814,111.007477 0.246676979,111.803459 0.744203011,112.347622 C1.24172904,112.891784 2.02372943,113.070305 2.7075,112.79582 C3.34312354,113.865178 4.13511368,114.833095 5.05709302,115.667336 C4.38587002,118.28919 4.58835648,121.058949 5.63372093,123.554877 L14.3659884,121.284221 L6.57819767,125.387336 C9.40119418,129.88088 14.7630325,132.080462 19.9215367,130.861161 C25.0800409,129.641861 28.8947191,125.273252 29.4146512,119.989549 C30.024695,119.936729 30.5639125,119.571187 30.8396512,119.023525 L30.8396512,119.023525 Z" id="Path" fill="#E32C66"></path>
                    <path d="M30.8396512,119.023525 C31.1174978,118.473202 31.0898623,117.817779 30.7666798,117.292887 C30.4434973,116.767994 29.8712175,116.449073 29.2555814,116.450779 C28.7532935,113.782918 27.3912158,111.353769 25.3782558,109.535902 C25.4312791,109.326762 25.4776744,109.120943 25.5174419,108.911803 C25.2862343,109.079628 25.0720117,109.269759 24.8778488,109.479467 C23.7013953,110.77082 23.0982558,112.507008 21.9350581,113.811639 C20.5630814,115.351967 18.5084302,116.155328 16.457093,116.371107 C14.4057558,116.586885 12.3411628,116.271516 10.3163372,115.876475 C8.63947674,115.544508 6.9394186,115.159426 5.23936047,115.32209 C5.07366279,115.32209 4.90796512,115.358607 4.75552326,115.385164 C4.85494186,115.481434 4.95436047,115.577705 5.05709302,115.670656 C4.38587002,118.29251 4.58835648,121.062269 5.63372093,123.558197 L14.3659884,121.284221 L6.57819767,125.387336 C9.40119418,129.88088 14.7630325,132.080462 19.9215367,130.861161 C25.0800409,129.641861 28.8947191,125.273252 29.4146512,119.989549 C30.024695,119.936729 30.5639125,119.571187 30.8396512,119.023525 L30.8396512,119.023525 Z" id="Path" fill="#000000"></path>
                </g>
                <g id="Group" opacity="0.1" transform="translate(0.000000, 106.000000)">
                    <path d="M29.4851445,63.8205668 C29.9068786,62.5291498 31.6168786,61.9348988 33.303815,62.4926316 C33.5464526,62.5727888 33.7813511,62.6750183 34.0056069,62.7980567 C34.1143353,62.7681781 34.2263584,62.7416194 34.3350867,62.7217004 C34.2425212,62.3508991 34.206963,61.9679832 34.2296532,61.5863158 C33.0522828,60.7840468 32.370521,59.4252305 32.4273988,57.994251 C31.8432513,57.6068696 31.3723513,57.0693562 31.0633526,56.437247 C30.7413702,55.8110234 30.5901506,55.1098974 30.6251445,54.4055061 C30.0413939,54.0162387 29.5706775,53.4777891 29.2610983,52.8451822 C28.450578,51.2251012 28.7800578,49.4025101 30.0156069,48.7717409 C31.2511561,48.1409717 32.9051445,48.954332 33.7189595,50.574413 C34.0403747,51.201938 34.1904703,51.9042703 34.1538728,52.6094737 C35.334682,53.4071433 36.0176619,54.7671293 35.9561272,56.1982186 C37.1364688,56.997847 37.8191314,58.3584586 37.7583815,59.7902834 C38.9391907,60.587953 39.6221705,61.947939 39.5606358,63.3790283 C40.1455977,63.7678484 40.6174863,64.3063381 40.9279769,64.9393522 C41.0761267,65.2456272 41.1867653,65.5689175 41.2574566,65.9021053 C41.4604297,65.6011371 41.708256,65.333511 41.9921965,65.108664 C42.0260582,64.8526655 42.0834137,64.6003838 42.163526,64.3550607 C42.7203468,62.6553036 44.2063006,61.6195142 45.4879769,62.0311741 C46.7696532,62.442834 47.3561272,64.1791093 46.805896,65.8788664 C46.5784806,66.6087784 46.1416856,67.254511 45.550578,67.7346559 C45.5163514,67.9895018 45.4590014,68.240648 45.3792486,68.4849393 C45.1088098,69.3859866 44.5063954,70.1485881 43.6956069,70.6162753 C43.7591687,70.8335417 43.8054424,71.0555673 43.8339884,71.2802429 C44.1741546,71.6092321 44.4560675,71.994335 44.6675723,72.4189474 C44.8831456,72.8426554 45.0236369,73.3010371 45.0827168,73.7734413 C45.424156,74.1020791 45.707208,74.4872156 45.9195954,74.9121457 C46.1347319,75.3360328 46.2751991,75.7943358 46.3347399,76.2666397 C46.6769782,76.5958341 46.960113,76.9822065 47.1716185,77.408664 C47.9854335,79.0287449 47.6493642,80.8546559 46.4204046,81.4787854 C45.1914451,82.102915 43.5308671,81.2995142 42.717052,79.6761134 C42.5024697,79.2519995 42.362033,78.7937958 42.3019075,78.3216194 C41.6154449,77.6581058 41.1738398,76.7787219 41.0498844,75.8284211 C40.3634217,75.1649075 39.9218167,74.2855236 39.7978613,73.3352227 C39.4566654,73.0063687 39.1736463,72.6212769 38.9609827,72.1965182 C38.7478985,71.7717933 38.6075428,71.3138541 38.5458382,70.8420243 C38.205672,70.5130351 37.9237591,70.1279322 37.7122543,69.7033198 C37.496681,69.2796118 37.3561897,68.8212301 37.2971098,68.3488259 C37.0849821,68.1496924 36.8959691,67.9269445 36.7336994,67.6848583 C36.0558136,67.8245765 35.3533053,67.7810519 34.6975145,67.5587045 C34.4539564,67.4768177 34.2180184,67.3735047 33.9924277,67.2499595 C33.2596437,67.4460669 32.4855501,67.4183344 31.7684393,67.1702834 C30.0979769,66.6092308 29.0667052,65.1119838 29.4851445,63.8205668 Z" id="Path" fill="#3F3D56"></path>
                    <g transform="translate(29.323699, 52.785425)" fill="#000000" id="Path">
                        <path d="M3.1366474,5.94582996 C3.31132724,6.11928702 3.50346204,6.27394052 3.7099422,6.40728745 C3.68203971,6.88404475 3.74466201,7.36178852 3.89445087,7.81489879 C3.76206008,7.63379481 3.64522148,7.44165615 3.54520231,7.2405668 C3.33912769,6.83462591 3.20108118,6.39714763 3.1366474,5.94582996 L3.1366474,5.94582996 Z"></path>
                        <path d="M1.33439306,2.36040486 C1.50997042,2.53186106 1.70201083,2.6853265 1.90768786,2.81854251 C1.88000937,3.29638056 1.94262094,3.77516897 2.09219653,4.22947368 C1.69308919,3.6774867 1.43303194,3.03607383 1.33439306,2.36040486 L1.33439306,2.36040486 Z"></path>
                        <path d="M5.42982659,1.02251012 C5.44549911,0.776571763 5.43666885,0.529669851 5.40346821,0.285506073 C5.72557094,0.605956725 5.99375961,0.977098227 6.19751445,1.38437247 C6.29698334,1.58552894 6.38070618,1.7942068 6.44791908,2.00850202 C6.173353,1.61804299 5.82790639,1.28348835 5.42982659,1.02251012 Z"></path>
                        <path d="M16.8627746,22.75417 C16.718717,22.5506074 16.5554096,22.3615988 16.3751445,22.1897976 C16.3450721,21.9648261 16.2965831,21.7427465 16.2301734,21.52583 C16.3731691,21.7207717 16.4999025,21.927307 16.6090751,22.1433198 C16.7090426,22.3400895 16.7938586,22.5443072 16.8627746,22.75417 Z"></path>
                        <path d="M15.6008671,20.2609717 C15.4568095,20.057409 15.2935021,19.8684004 15.113237,19.6965992 C15.0863353,19.4716472 15.040033,19.2494846 14.9748555,19.0326316 L14.9748555,19.0326316 C15.2462924,19.4029649 15.455549,19.8156867 15.5942775,20.254332 L15.6008671,20.2609717 Z"></path>
                        <path d="M4.94219653,9.54453441 C5.11515706,9.71664253 5.3062954,9.86915677 5.51219653,9.99935223 C5.48756532,10.3810499 5.5231516,10.7642687 5.61763006,11.1347368 C5.506579,11.1544909 5.39660767,11.1799765 5.28815029,11.2110931 C5.0624685,11.088641 4.82652947,10.9864384 4.58306358,10.905668 C2.89612717,10.3479352 1.18612717,10.9421862 0.767687861,12.2336032 C0.662819257,12.5549239 0.64350501,12.8983539 0.711676301,13.2295547 C0.160330748,12.6451885 -0.047172689,11.8126452 0.164739884,11.0351417 C0.586473988,9.7437247 2.29647399,9.14947368 3.9834104,9.70720648 C4.22604801,9.78736369 4.46094643,9.88959325 4.68520231,10.0126316 C4.79393064,9.98275304 4.90595376,9.95619433 5.01468208,9.9362753 C4.9829976,9.80722263 4.95879483,9.67642114 4.94219653,9.54453441 L4.94219653,9.54453441 Z"></path>
                        <path d="M17.4821965,24.005749 C17.6259219,24.2013612 17.7526893,24.4090627 17.8610983,24.6265587 C17.9616933,24.8276151 18.0465188,25.0362954 18.1147977,25.2506883 C17.9707639,25.046087 17.8074631,24.8559744 17.6271676,24.682996 C17.5978167,24.4535434 17.5493213,24.2269923 17.4821965,24.005749 Z"></path>
                        <path d="M7.23208092,4.61789474 C7.24782006,4.37195733 7.23898957,4.12504869 7.20572254,3.88089069 C7.52859294,4.20067501 7.79687903,4.57195134 7.99976879,4.97975709 C8.09923874,5.179769 8.18296439,5.38734384 8.25017341,5.6005668 C7.97552982,5.21109096 7.63005973,4.87764011 7.23208092,4.61789474 L7.23208092,4.61789474 Z"></path>
                        <path d="M9.8382659,19.2583806 C9.86910442,19.5064201 9.92316023,19.7509641 9.99971098,19.9887449 C9.72515323,19.6094352 9.51576715,19.1863582 9.38028902,18.737166 C9.51718525,18.9243432 9.67045751,19.0987794 9.8382659,19.2583806 Z"></path>
                        <path d="M12.3390173,24.2447773 C12.3722492,24.4926869 12.4273814,24.737112 12.5037572,24.9751417 C12.3713664,24.7940377 12.2545278,24.6018991 12.1545087,24.4008097 C12.0461459,24.187506 11.9557699,23.9654015 11.8843353,23.7368421 C12.0223201,23.9180082 12.1743582,24.0878533 12.3390173,24.2447773 Z"></path>
                        <path d="M11.090289,21.7515789 C11.1211275,21.9996185 11.1751833,22.2441625 11.2517341,22.4819433 C11.1205109,22.3000504 11.0037325,22.1080108 10.9024855,21.9076113 C10.7937181,21.6944953 10.7033278,21.4723556 10.6323121,21.2436437 C10.7698256,21.4262165 10.9230805,21.5961891 11.090289,21.7515789 L11.090289,21.7515789 Z"></path>
                        <path d="M8.58624277,16.7618623 C8.61671856,17.011051 8.67077977,17.2567311 8.74768786,17.4955466 C8.62275451,17.3133144 8.51257256,17.1212509 8.41820809,16.9212146 C8.30774769,16.7084745 8.21623302,16.4862813 8.14473988,16.257247 C8.27637354,16.4386287 8.42415346,16.6075337 8.58624277,16.7618623 Z"></path>
                        <path d="M16.7804046,10.4574899 C15.4987283,10.0325506 14.0127746,11.0683401 13.4592486,12.7813765 C13.3791363,13.0266996 13.3217807,13.2789813 13.2879191,13.5349798 C13.0029547,13.7584438 12.7540013,14.0249671 12.5498844,14.3251012 C12.4734074,13.9913341 12.3572504,13.6680814 12.2039306,13.3623482 C12.1479191,13.2494737 12.0853179,13.139919 12.019422,13.0303644 C12.2064358,12.7687353 12.4281518,12.5341643 12.6783815,12.3331984 C12.7122432,12.0772 12.7695987,11.8249182 12.849711,11.5795951 C13.4065318,9.87983806 14.8924855,8.84404858 16.1741618,9.2557085 C16.9217283,9.54486884 17.4643276,10.2074872 17.604104,11.0019433 C17.3801971,10.7525485 17.0966168,10.565106 16.7804046,10.4574899 Z"></path>
                        <path d="M10.8365896,11.7953846 C10.8522621,11.5494463 10.8434319,11.3025443 10.8102312,11.0583806 C11.1331016,11.3781649 11.4013877,11.7494412 11.6042775,12.157247 C11.7037463,12.3584034 11.7874692,12.5670813 11.8546821,12.7813765 C11.580974,12.3901741 11.2353726,12.0554696 10.8365896,11.7953846 Z"></path>
                        <path d="M9.03433526,8.20331984 C9.04996357,7.95738086 9.04113347,7.7104834 9.00797688,7.46631579 C9.32933206,7.78741388 9.59742722,8.15842597 9.80202312,8.56518219 C9.90149201,8.76633865 9.98521486,8.97501652 10.0524277,9.18931174 C9.77786167,8.79885271 9.43241506,8.46429807 9.03433526,8.20331984 L9.03433526,8.20331984 Z"></path>
                        <path d="M13.5910405,26.7379757 C13.6226686,26.9872601 13.6778318,27.2329349 13.7557803,27.4716599 C13.6240912,27.2889164 13.5072939,27.0957354 13.4065318,26.8940081 C13.298169,26.6807043 13.207793,26.4585999 13.1363584,26.2300405 C13.2743432,26.4112066 13.4263813,26.5810516 13.5910405,26.7379757 L13.5910405,26.7379757 Z"></path>
                    </g>
                    <path d="M27.0239306,47.2246964 C26.439783,46.8373149 25.9688831,46.2998016 25.6598844,45.6676923 C24.8460694,44.0442915 25.1821387,42.2217004 26.4110983,41.594251 C27.6400578,40.9668016 29.3006358,41.7735223 30.1144509,43.3969231 C30.4363474,44.0230811 30.5864887,44.7244815 30.5493642,45.428664 C31.7297058,46.2282923 32.4123684,47.588904 32.3516185,49.0207287 C32.9361388,49.4086355 33.4079875,49.9459341 33.7189595,50.5777328 C33.8178416,50.7768695 33.9015512,50.9832946 33.9693642,51.1952227 C33.532916,50.5676091 32.9045591,50.1012132 32.180289,49.8672874 C32.0173159,50.3911487 31.6521461,50.826986 31.1669384,51.0767409 C30.6817307,51.3264958 30.1172372,51.3691918 29.6004624,51.1952227 C29.3561746,51.9219084 29.3561746,52.7094276 29.6004624,53.4361134 C29.4766686,53.2554717 29.3665315,53.0657059 29.2709827,52.8684211 C28.9490003,52.2421975 28.7977806,51.5410715 28.8327746,50.8366802 C27.6539226,50.0357269 26.9717124,48.6760169 27.0305202,47.2446154 L27.0239306,47.2246964 Z" id="Path" fill="#3F3D56"></path>
                    <path d="M7.21560694,24.2049393 C6.71581879,23.9694945 6.23255762,23.6999616 5.76919075,23.3982186 L11.1331214,19.4476113 L4.82687861,22.7176518 C2.2499528,20.6530371 0.630455518,17.6103624 0.349248555,14.3051822 L11.0705202,14.4180567 L0.326184971,12.6054251 C0.57834522,8.10385806 3.30396718,4.12091459 7.39004899,2.28302108 C11.4761308,0.445127563 16.2387087,1.05992654 19.7329943,3.87636618 C23.2272798,6.69280582 24.8683692,11.239446 23.9861272,15.6596761 C24.7643904,16.0224999 25.5021761,16.4676454 26.187052,16.9876113 L20.585896,24.8357085 L27.310578,17.9702834 C30.1934249,20.8235459 31.452409,24.9500868 30.6580925,28.9423482 C36.3118904,31.595806 38.9917646,38.182404 36.8134928,44.0710987 C34.635221,49.9597934 28.3306028,53.1722531 22.3324213,51.4497944 C16.3342399,49.7273357 12.6576094,43.6486257 13.8875723,37.4876113 C8.89049685,35.1410806 6.13429724,29.6553588 7.21560694,24.2082591 L7.21560694,24.2049393 Z" id="Path" fill="#E32C66"></path>
                    <path d="M29.6037572,21.1440486 C30.818916,23.5537585 31.1904498,26.3064552 30.6580925,28.9556275 C36.3118904,31.6090854 38.9917646,38.1956833 36.8134928,44.084378 C34.635221,49.9730727 28.3306028,53.1855325 22.3324213,51.4630738 C16.3342399,49.7406151 12.6576094,43.6619051 13.8875723,37.5008907 C11.5383815,36.4020243 29.0008092,19.9389474 29.6037572,21.1440486 Z" id="Path" fill="#000000"></path>
                    <ellipse id="Oval" fill="#E32C66" cx="16.1346243" cy="1.9188664" rx="1.77589595" ry="1.78939271"></ellipse>
                    <ellipse id="Oval" fill="#E32C66" cx="5.76919075" cy="3.06753036" rx="1.77589595" ry="1.78939271"></ellipse>
                    <ellipse id="Oval" fill="#E32C66" cx="1.77589595" cy="19.1322267" rx="1.77589595" ry="1.78939271"></ellipse>
                    <ellipse id="Oval" fill="#E32C66" cx="7.16947977" cy="27.1562753" rx="1.77589595" ry="1.78939271"></ellipse>
                    <ellipse id="Oval" fill="#E32C66" cx="14.5366474" cy="43.8185425" rx="1.77589595" ry="1.78939271"></ellipse>
                    <ellipse id="Oval" fill="#000000" cx="14.5366474" cy="43.8185425" rx="1.77589595" ry="1.78939271"></ellipse>
                    <ellipse id="Oval" fill="#E32C66" cx="30.9216763" cy="24.9452632" rx="1.77589595" ry="1.78939271"></ellipse>
                    <ellipse id="Oval" fill="#000000" cx="30.9216763" cy="24.9452632" rx="1.77589595" ry="1.78939271"></ellipse>
                    <path d="M32.816185,54.3523887 C33.9957225,53.751498 34.3515607,52.0517409 33.662948,50.4814575 C33.6991908,50.5478543 33.7354335,50.6109312 33.7683815,50.6773279 C34.5821965,52.3007287 34.2461272,54.1233198 33.0138728,54.7507692 C31.7816185,55.3782186 30.1276301,54.571498 29.313815,52.9480972 C29.2808671,52.8817004 29.2479191,52.8153036 29.2182659,52.745587 C30.0650289,54.2361943 31.6366474,54.9532794 32.816185,54.3523887 Z" id="Path" fill="#000000"></path>
                    <path d="M34.5657225,57.8448583 C35.7452601,57.2439676 36.1043931,55.5408907 35.4157803,53.9739271 C35.4520231,54.037004 35.4882659,54.1034008 35.5212139,54.1697976 C36.3350289,55.7931984 35.9989595,57.6157895 34.7667052,58.2432389 C33.5344509,58.8706883 31.8804624,58.0639676 31.0666474,56.4405668 C31.0304046,56.37417 31.0007514,56.3044534 30.9710983,56.2380567 C31.8178613,57.7353036 33.3927746,58.445749 34.5657225,57.8448583 Z" id="Path" fill="#000000"></path>
                    <path d="M36.3185549,61.3340081 C37.4980925,60.7331174 37.8572254,59.0333603 37.1653179,57.4630769 C37.2048555,57.5294737 37.2378035,57.5925506 37.2740462,57.6622672 C38.0878613,59.2823482 37.7484971,61.1082591 36.5195376,61.7323887 C35.290578,62.3565182 33.6332948,61.5531174 32.8194798,59.9297166 C32.783237,59.8633198 32.7535838,59.7969231 32.7239306,59.7272065 C33.5673988,61.2178138 35.1390173,61.9348988 36.3185549,61.3340081 Z" id="Path" fill="#000000"></path>
                    <path d="M38.0713873,64.8264777 C39.2509249,64.225587 39.6100578,62.52583 38.9181503,60.9555466 C38.9543931,61.0186235 38.9906358,61.0850202 39.0235838,61.151417 C39.8406936,62.7748178 39.5013295,64.5974089 38.2723699,65.2248583 C37.0434104,65.8523077 35.3828324,65.045587 34.5690173,63.4221862 C34.5360694,63.3557895 34.5064162,63.2860729 34.476763,63.2196761 C35.3202312,64.7069636 36.8918497,65.4273684 38.0713873,64.8264777 Z" id="Path" fill="#000000"></path>
                    <path d="M39.8242197,68.3156275 C41.0037572,67.7147368 41.3595954,66.0149798 40.6709827,64.4480162 C40.7072254,64.5110931 40.7434682,64.5774899 40.7764162,64.6438866 C41.5902312,66.2672874 41.2541618,68.0898785 40.0252023,68.7173279 C38.7962428,69.3447773 37.1356647,68.5347368 36.3218497,66.9146559 C36.2889017,66.8449393 36.2592486,66.7785425 36.2263006,66.7121457 C37.0730636,68.1994332 38.6446821,68.9165182 39.8242197,68.3156275 Z" id="Path" fill="#000000"></path>
                    <path d="M41.577052,71.8080972 C42.7565896,71.2072065 43.1124277,69.5074494 42.423815,67.937166 C42.4600578,68.0035628 42.4963006,68.0666397 42.5292486,68.1330364 C43.3430636,69.7564372 43.0069942,71.5790283 41.7780347,72.2064777 C40.5490751,72.8339271 38.8884971,72.0272065 38.0746821,70.4038057 C38.0417341,70.3374089 38.0087861,70.2710121 37.9791329,70.2012955 C38.825896,71.6786235 40.3975145,72.4089879 41.577052,71.8080972 Z" id="Path" fill="#000000"></path>
                    <path d="M43.3298844,75.3005668 C44.5061272,74.6996761 44.8652601,72.9965992 44.1766474,71.4296356 C44.2128902,71.4927126 44.2491329,71.5591093 44.2820809,71.6255061 C45.095896,73.2489069 44.7598266,75.071498 43.5275723,75.6989474 C42.2953179,76.3263968 40.6413295,75.5163563 39.8275145,73.8962753 C39.7945665,73.8265587 39.7616185,73.7601619 39.7319653,73.6937652 C40.5787283,75.1810526 42.1503468,75.9014575 43.3298844,75.3005668 Z" id="Path" fill="#000000"></path>
                    <path d="M45.079422,78.7897166 C46.2589595,78.1888259 46.6180925,76.4890688 45.926185,74.9187854 C45.9657225,74.9851822 45.9986705,75.0482591 46.0349133,75.1179757 C46.8487283,76.7380567 46.5093642,78.5639676 45.2804046,79.1880972 C44.0514451,79.8122267 42.3941618,79.0088259 41.5803468,77.3854251 C41.544104,77.3190283 41.5144509,77.2526316 41.4847977,77.182915 C42.3315607,78.6735223 43.8998844,79.3906073 45.079422,78.7897166 Z" id="Path" fill="#000000"></path>
                    <path d="M46.2424855,81.0837247 C47.4220231,80.482834 47.7778613,78.7830769 47.0892486,77.2127935 C47.1254913,77.2791903 47.1617341,77.3422672 47.1946821,77.4119838 C48.0084971,79.0320648 47.6724277,80.8579757 46.4434682,81.4821053 C45.2145087,82.1062348 43.5539306,81.302834 42.7401156,79.6794332 C42.7071676,79.6130364 42.6742197,79.5466397 42.6445665,79.4769231 C43.4814451,80.97417 45.0530636,81.6846154 46.2424855,81.0837247 Z" id="Path" fill="#000000"></path>
                    <path d="M14.5663006,65.5468826 C14.3833073,65.0189057 14.272464,64.468295 14.2368208,63.9102024 C13.9047256,63.9090224 13.6011511,63.720876 13.4503248,63.4227557 C13.2994985,63.1246354 13.3267319,62.7665716 13.5208807,62.4950897 C13.7150295,62.2236077 14.0435119,62.0842674 14.3719075,62.1340891 C14.7722479,60.3017452 15.9686251,58.7476768 17.6304624,57.9012955 C17.4093729,57.4603398 17.5849136,56.9222839 18.0225434,56.6995142 C18.4601731,56.4767444 18.9941706,56.6536191 19.2152601,57.0945749 C19.2538303,57.1696076 19.2805114,57.2502591 19.2943353,57.3336032 C21.2723218,56.967734 23.3039923,57.5858232 24.7505202,58.9935223 C25.2951021,58.9036851 25.8492014,58.8880524 26.3979191,58.9470445 L27.116185,62.2403239 L27.132659,59.0632389 C29.3577031,59.5815041 31.1209691,61.2883598 31.7240579,63.50775 C32.3271468,65.7271402 31.6727552,68.1009849 30.0200762,69.6890456 C28.3673973,71.2771063 25.9830769,71.8231626 23.8115029,71.1109312 C23.7247827,71.2653252 23.5954448,71.3910329 23.4391908,71.4727935 C23.1056049,71.6424499 22.7023516,71.5839694 22.4297905,71.3264086 C22.1572293,71.0688477 22.0734646,70.6671131 22.2201156,70.3208097 C21.937604,70.1220755 21.6720045,69.8999859 21.4260694,69.6568421 C18.7673963,70.0908201 16.1337329,68.7505781 14.9023699,66.337004 L18.2465896,65.7693117 L14.5663006,65.5468826 Z" id="Path" fill="#E32C66"></path>
                    <path d="M19.7325434,67.1470445 C20.9680925,65.4871255 21.725896,63.5616194 22.5957225,61.6958704 C22.9440545,60.9280945 23.3356765,60.181018 23.7686705,59.4582996 L24.4276301,58.691417 C24.5396532,58.7876923 24.6483815,58.8839676 24.7571098,58.9835628 C25.3016917,58.8937256 25.855791,58.8780929 26.4045087,58.937085 L27.1227746,62.2303644 L27.132659,59.0632389 C29.3577031,59.5815041 31.1209691,61.2883598 31.7240579,63.50775 C32.3271468,65.7271402 31.6727552,68.1009849 30.0200762,69.6890456 C28.3673973,71.2771063 25.9830769,71.8231626 23.8115029,71.1109312 C23.7247827,71.2653252 23.5954448,71.3910329 23.4391908,71.4727935 C23.1056049,71.6424499 22.7023516,71.5839694 22.4297905,71.3264086 C22.1572293,71.0688477 22.0734646,70.6671131 22.2201156,70.3208097 C21.937604,70.1220755 21.6720045,69.8999859 21.4260694,69.6568421 C20.1568987,69.8618986 18.8558454,69.668329 17.6996532,69.1024291 C18.4773024,68.5651121 19.1637634,67.904823 19.7325434,67.1470445 L19.7325434,67.1470445 Z" id="Path" fill="#000000"></path>
                    <path d="M41.6001156,60.0890688 C41.4936784,59.8778766 41.4752118,59.6326378 41.5488068,59.4076822 C41.6224018,59.1827266 41.7819828,58.9966255 41.9921965,58.8906073 C42.1165662,58.826452 42.254444,58.7934287 42.3941618,58.794332 C42.645491,57.4498852 43.3271511,56.2254664 44.3347977,55.308502 C44.171865,54.6705138 44.110696,54.0104709 44.1535838,53.3531174 L47.4121387,52.8020243 L44.2458382,52.5995142 C44.3031924,52.2996634 44.3824839,52.0044989 44.4830636,51.7164372 C44.3586334,51.6329995 44.2576408,51.5186623 44.1898266,51.3844534 C44.0277376,51.0572884 44.079131,50.6637155 44.3196928,50.3899314 C44.5602547,50.1161474 44.9417514,50.0170471 45.2836994,50.1395142 C45.8656189,49.3053236 46.6431979,48.6290373 47.5472254,48.1708502 C49.7220811,47.0588291 52.341681,47.3330785 54.2431913,48.8718598 C56.1447015,50.4106412 56.9757353,52.9287883 56.3673988,55.308502 C56.6835581,55.4450478 56.8927541,55.7535841 56.9040491,56.0999899 C56.9153442,56.4463957 56.7266981,56.7681022 56.4201156,56.9252632 C56.1923318,57.041602 55.9259127,57.0536941 55.6886705,56.9584615 C55.3706918,57.4955725 54.9741534,57.9813025 54.5124277,58.3992713 C54.8501142,59.723215 54.7494631,61.1220571 54.2257803,62.3830769 L49.866763,61.2277733 L53.7645087,63.2960324 C52.5730448,65.2117865 50.4491267,66.3315521 48.2078123,66.2256167 C45.9664979,66.1196814 43.9559375,64.8045005 42.9476879,62.7847773 C42.6029261,62.09426 42.3863042,61.3460728 42.3084971,60.577085 C42.0043,60.5493549 41.7361494,60.3646213 41.6001156,60.0890688 Z" id="Path" fill="#E32C66"></path>
                    <path d="M41.6001156,60.0890688 C41.4936784,59.8778766 41.4752118,59.6326378 41.5488068,59.4076822 C41.6224018,59.1827266 41.7819828,58.9966255 41.9921965,58.8906073 C42.1165662,58.826452 42.254444,58.7934287 42.3941618,58.794332 C42.645491,57.4498852 43.3271511,56.2254664 44.3347977,55.308502 C44.3084393,55.205587 44.2853757,55.0993522 44.2656069,54.9964372 C44.3837921,55.0813504 44.4940724,55.1769123 44.5950867,55.2819433 C45.1848555,55.9459109 45.4879769,56.805749 46.0678613,57.4630769 C46.7944497,58.2183064 47.7712942,58.6779467 48.8124277,58.7544939 C49.843697,58.8260152 50.8797857,58.7420953 51.886474,58.5055061 C52.7166961,58.2900057 53.5731911,58.1949858 54.4300578,58.2233198 L54.6738728,58.2565182 L54.5223121,58.3992713 C54.8599986,59.723215 54.7593475,61.1220571 54.2356647,62.3830769 L49.866763,61.2277733 L53.7645087,63.2960324 C52.5730448,65.2117865 50.4491267,66.3315521 48.2078123,66.2256167 C45.9664979,66.1196814 43.9559375,64.8045005 42.9476879,62.7847773 C42.6029261,62.09426 42.3863042,61.3460728 42.3084971,60.577085 C42.0043,60.5493549 41.7361494,60.3646213 41.6001156,60.0890688 Z" id="Path" fill="#000000"></path>
                </g>
                <path d="M115,17.0588235 C113.696492,16.8065589 112.348804,16.9563605 111.129245,17.4890756 C109.649752,18.1612383 107.959875,18.1612383 106.480382,17.4890756 C104.730411,16.7070216 102.73191,16.7475742 101.013848,17.6 C100.529062,17.8610476 99.9893978,17.9983057 99.4411474,18 C97.2255193,18 95.3824596,15.7243697 95,12.7226891 C95.4417696,12.3925517 95.8177529,11.9795772 96.107814,11.5058824 C97.4068579,9.37142857 99.4048797,8 101.676558,8 C103.948236,8 105.926475,9.34453782 107.225519,11.4655462 C108.014772,12.7609265 109.409322,13.5431375 110.905045,13.5294118 L110.964392,13.5294118 C112.711836,13.5193277 114.238378,14.9613445 115,17.0588235 Z" id="Path" fill="#E32C66" opacity="0.1"></path>
                <path d="M122.039833,7.86225795 L118.419855,10.1278772 L120.616508,6.18195104 C119.993607,5.69227973 119.22296,5.42151165 118.426522,5.41249543 L118.369855,5.41249543 C118.118681,5.41552484 117.867722,5.39681965 117.61986,5.35659481 L116.389868,6.12605042 L116.916531,5.1823164 C116.049791,4.88475338 115.299167,4.3270923 114.769878,3.58750457 L112.566558,4.94556083 L113.953216,2.45633906 C112.669891,0.9338692 110.936568,0 109.033247,0 C106.749927,0 104.69994,1.34161491 103.399948,3.42966752 C102.608135,4.69928095 101.18687,5.45240189 99.6766377,5.40263062 L99.5666384,5.40263062 C97.046654,5.40263062 95,8.22067958 95,11.7029594 C95,15.1852393 97.046654,18 99.5666384,18 C100.120916,17.9983425 100.666514,17.8640683 101.156629,17.6086957 C102.893636,16.7740748 104.914901,16.7355908 106.683261,17.503471 C108.179465,18.1589501 109.887028,18.1589501 111.383232,17.503471 C113.137601,16.7520952 115.136484,16.7905006 116.859865,17.6086957 C117.346179,17.857239 117.88549,17.9879906 118.433188,17.9901352 C120.956506,17.9901352 122.999827,15.1720862 122.999827,11.6930946 C123.00867,10.3571557 122.678658,9.04025001 122.039833,7.86225795 L122.039833,7.86225795 Z" id="Path" fill="#E32C66" opacity="0.1"></path>
                <path d="M40,62.7020925 C38.1103319,62.3501426 36.1570394,62.5588148 34.3880683,63.3016208 C32.2410682,64.2384989 29.790644,64.2325105 27.648396,63.2851502 C25.1117127,62.1903258 22.2146469,62.2469281 19.7240942,63.4399734 C19.0202991,63.8049434 18.2373196,63.997064 17.4418417,63.9999723 C14.2292869,63.9999723 11.5555043,60.8145669 11,56.6112811 C11.641948,56.1508322 12.1873863,55.5725313 12.6062774,54.9082256 C14.4903069,51.9204668 17.4083776,50 20.6845142,50 C23.9606508,50 26.8419109,51.897408 28.7159012,54.8522257 C29.8615167,56.6738657 31.8938944,57.7704524 34.0701592,57.7411612 L34.1538195,57.7411612 C36.6903993,57.7378671 38.9057235,59.7571572 40,62.7020925 Z" id="Path" fill="#E32C66" opacity="0.1"></path>
                <path d="M49.6523955,50.348403 L44.4791877,53.6183381 L47.6191115,47.9258595 C46.729231,47.217704 45.627722,46.8259233 44.4891875,46.8126194 L44.4058562,46.8126194 C44.0464214,46.8178599 43.6872329,46.7911696 43.3325489,46.7328649 L41.5859246,47.8593974 L42.3392396,46.4969245 C41.0962609,46.0638992 40.0227501,45.2495842 39.2726474,44.1707511 L36.1327235,46.164614 L38.1093423,42.5424297 C36.2727202,40.3458575 33.7994468,39 31.0795128,39 C27.8162587,39 24.9096625,40.934047 23.0330414,43.9481031 C21.9014955,45.7893661 19.8645642,46.8821527 17.6998374,46.8092963 L17.5231751,46.8092963 C13.9199292,46.8092963 11,50.8800997 11,55.9046342 C11,60.9291687 13.9199292,64.9999721 17.5231751,64.9999721 C18.3160357,64.9978717 19.0963918,64.8028063 19.7964532,64.4317212 C22.277704,63.2292396 25.1633733,63.1733542 27.6895951,64.2788583 C29.8234193,65.234557 32.2642079,65.2405981 34.4027655,64.2954739 C36.9097479,63.2106752 39.7657935,63.2652454 42.2292423,64.4450136 C42.9226828,64.8068181 43.6931956,64.9971503 44.4758545,64.9999721 C48.0791004,64.9999721 50.9990295,60.9258456 50.9990295,55.9046342 C51.0241536,53.9693304 50.5610979,52.0587562 49.6523955,50.348403 Z" id="Path" fill="#E32C66" opacity="0.1"></path>
                <path d="M249,30.0604027 C250.303516,29.808767 251.651144,29.9583107 252.870755,30.4899329 C254.349041,31.1612442 256.038034,31.1612442 257.51632,30.4899329 C259.266292,29.709191 261.264793,29.7496756 262.982855,30.6006711 C263.467782,30.8609045 264.007354,30.9979089 264.555556,31 C266.771184,31 268.61754,28.7281879 269,25.7315436 C268.557468,25.4028322 268.181336,24.9903874 267.892186,24.5167785 C266.599736,22.3791946 264.578635,21 262.313551,21 C260.048467,21 258.06693,22.3422819 256.767887,24.4597315 C255.979822,25.7588496 254.5818,26.5441095 253.081767,26.5302013 L253.025717,26.5302013 C251.271678,26.5268456 249.74184,27.966443 249,30.0604027 Z" id="Path" fill="#E32C66" opacity="0.1"></path>
                <path d="M241.940673,20.8458166 L245.560583,23.1048593 L243.360638,19.1589331 C243.983778,18.669706 244.75425,18.398994 245.550583,18.3894775 L245.610582,18.3894775 C245.861745,18.3923226 246.112684,18.3736187 246.360563,18.3335769 L247.587199,19.1030325 L247.060546,18.1592985 C247.933488,17.8667055 248.691312,17.3111829 249.227158,16.5710632 L251.42377,17.9455608 L250.033805,15.4563391 C251.32044,13.9338692 253.03373,13 254.957016,13 C257.240292,13 259.290241,14.3416149 260.590209,16.4296675 C261.381513,17.6997985 262.803082,18.4530947 264.31345,18.4026306 L264.433447,18.4026306 C266.956717,18.4026306 269,21.2206796 269,24.7029594 C269,28.1852393 266.956717,31 264.433447,31 C263.879278,30.9975617 263.333877,30.8633332 262.843486,30.6086957 C261.106511,29.7740748 259.085284,29.7355908 257.316957,30.503471 C255.821911,31.1588025 254.115454,31.1588025 252.620407,30.503471 C250.864943,29.7519678 248.865034,29.7903702 247.140544,30.6086957 C246.654375,30.8575967 246.114985,30.9883699 245.567249,30.9901352 C243.047312,30.9901352 241.000696,28.1720862 241.000696,24.6930946 C240.982912,23.3532966 241.3061,22.0305016 241.940673,20.8458166 L241.940673,20.8458166 Z" id="Path" fill="#E32C66" opacity="0.1"></path>
                <ellipse id="Oval" fill="#E32C66" opacity="0.1" cx="205" cy="251.5" rx="38" ry="6.5"></ellipse>
                <polygon id="Path" fill="#D0D2D5" points="184 220 125 219.248267 125.175487 217.748085 128.02632 193 179.841293 193 183.652337 217.748085 183.943712 219.625775"></polygon>
                <polygon id="Path" fill="#000000" opacity="0.1" points="184 219 154.529828 219 125 218.597902 125.175654 217 183.708347 217"></polygon>
                <rect id="Rectangle" fill="#D0D2D5" x="115" y="218" width="79" height="2"></rect>
                <path d="M268.999971,41.959079 C269.009159,39.2320125 266.810834,37.0128221 264.087519,37 L44.9125068,37 C43.6034769,37.0061561 42.3505052,37.5327914 41.4292387,38.4640489 C40.5079721,39.3953065 39.9938783,40.6549002 40.000055,41.9657265 L40,175 L269,175 L268.999971,41.959079 Z" id="Path" fill="#3F3D56"></path>
                <path d="M40,174 L40,189.201038 C40,191.851431 42.1993804,194 44.9124536,194 L264.087546,194 C266.80062,194 269,191.851431 269,189.201038 L269,174 L40,174 Z" id="Path" fill="#D0D2D5"></path>
                <rect id="Rectangle" fill="#FFFFFF" x="49" y="46" width="211" height="119"></rect>
                <path d="M155.996575,187.999997 C157.532569,188.00171 158.984013,187.297784 159.932538,186.091123 L159.932538,186.091123 C160.074826,185.909808 160.204905,185.719258 160.321916,185.52073 L157.573556,185.057285 L160.542564,185.07673 C161.117894,183.826852 161.151934,182.395375 160.636664,181.119625 L156.655273,183.18082 L160.328406,180.484414 C159.388215,178.870308 157.62545,177.914414 155.758038,178.006044 C153.890626,178.097674 152.230158,179.221539 151.4529,180.919917 C150.675643,182.618295 150.911285,184.607801 152.063858,186.07816 L152.063858,186.07816 C153.009057,187.288791 154.459502,187.997593 155.996575,187.999997 L155.996575,187.999997 Z" id="Path" fill="#E32C66"></path>
                <polygon id="Path" fill="#000000" opacity="0.1" points="161 194 185 218 181.316782 194"></polygon>
                <rect id="Rectangle" fill="#444053" opacity="0.1" x="49" y="45" width="212" height="7"></rect>
                <rect id="Rectangle" fill="#E32C66" opacity="0.3" x="122" y="47" width="64" height="4" rx="0.58"></rect>
                <path d="M184.136575,48.8794105 L183.999013,48.8794105 L183.949256,48.8352928 C184.119577,48.6296362 184.212785,48.370499 184.212674,48.1029391 C184.207828,47.4897177 183.709778,46.9962412 183.099534,47.0000216 C182.48929,47.003802 181.997332,47.5034115 182.000011,48.1166463 C182.002689,48.7298811 182.498993,49.2251315 183.109246,49.2235285 C183.375824,49.2225664 183.63366,49.1278765 183.838035,48.9558812 L183.887792,48.9999989 L183.887792,49.1382343 L184.745363,50 L185,49.7411762 L184.136575,48.8794105 Z M183.109246,48.8794105 C182.796458,48.8806011 182.51381,48.6921767 182.393289,48.4021255 C182.272768,48.1120742 182.338152,47.7776188 182.558908,47.5549392 C182.779664,47.3322597 183.112241,47.2652872 183.401336,47.3852959 C183.690431,47.5053045 183.879009,47.7886185 183.879011,48.1029391 C183.880577,48.3088401 183.800074,48.5068067 183.65546,48.652681 C183.510846,48.7985553 183.31415,48.8802024 183.109246,48.8794105 Z" id="Shape" fill="#3F3D56"></path>
                <circle id="Oval" fill="#FA5959" opacity="0.8" cx="52.5" cy="48.5" r="1.5"></circle>
                <circle id="Oval" fill="#FED253" opacity="0.8" cx="56.5" cy="48.5" r="1.5"></circle>
                <circle id="Oval" fill="#8CCF4D" opacity="0.8" cx="59.5" cy="48.5" r="1.5"></circle>
                <path d="M166,97.1922294 C163.045685,93.3957251 158.764805,91 154,91 C149.235195,91 144.954315,93.3957251 142,97.1922294 C142.653067,98.7415608 143.619517,100.149143 144.84264,101.332383 C147.912586,104.300009 152.315291,105.583457 156.569615,104.750954 C160.823939,103.918452 164.364426,101.08065 166,97.1922294 L166,97.1922294 Z" id="Path" fill="#E32C66"></path>
                <path d="M141.035838,99.5669656 C140.826909,99.4786959 140.628568,99.3679709 140.44444,99.2368138 C140.165979,99.012751 139.943058,98.7293708 139.792559,98.4081327 C140.325531,97.3323946 139.959088,96.035052 138.938101,95.3830399 C137.917115,94.7310278 136.56166,94.9287492 135.777504,95.8440789 C134.993349,96.7594087 135.026322,98.1053949 135.85439,98.9825969 C136.02287,99.1583071 136.215071,99.3104933 136.425626,99.4349049 C136.699179,99.5904809 136.921839,99.8195599 137.067427,100.095209 C137.342364,100.640597 137.721046,101.129215 138.183017,101.53467 C138.657018,101.934153 139.169004,102.287942 139.711914,102.591156 C138.964539,104.669316 138.540855,106.846452 138.455194,109.048926 C137.586332,109.063333 136.724061,109.200087 135.894713,109.455013 C135.470066,109.584691 135.069523,109.780907 134.708558,110.03608 C134.611522,110.024555 134.513947,110.017943 134.416219,110.016271 C133.19363,110.016242 132.163714,110.913572 132.017507,112.106186 C131.871301,113.298799 132.654891,114.410755 133.842518,114.695971 C135.030146,114.981187 136.24744,114.349756 136.677642,113.225346 C136.872182,112.692259 137.353017,112.310234 137.924281,112.234891 C138.130591,112.210419 138.338122,112.197193 138.54592,112.195273 C138.83456,115.301862 139.815412,118.30799 141.418902,121.000422 C139.994172,122.086621 139.117156,123.271866 138.747533,124.58587 C138.678516,124.623469 138.614232,124.668901 138.556001,124.721232 C138.454716,124.799125 138.360296,124.88527 138.273743,124.978751 C137.477136,125.839471 137.433974,127.140971 138.171864,128.050817 C138.909755,128.960664 140.210588,129.209922 141.24236,128.639168 C142.274131,128.068414 142.731866,126.846353 142.322799,125.754608 C142.098318,125.168762 142.253258,124.507782 142.715944,124.077436 C142.877234,123.928868 143.051965,123.770395 143.28718,123.595415 C146.012312,126.721952 149.254917,128.725974 153.303973,128.963683 L153.303973,107.751429 C147.951155,107.464197 143.28718,104.040523 141.035838,99.5669656 Z M174.580837,110.039381 C174.483095,110.040711 174.385501,110.047324 174.288499,110.05919 C173.924052,109.809733 173.52444,109.613973 173.102344,109.478123 C172.273199,109.222348 171.410803,109.085574 170.541862,109.072036 C170.448611,106.871495 170.025137,104.696546 169.285143,102.617568 C169.828052,102.314354 170.340039,101.960565 170.814039,101.561083 C171.290811,101.132551 171.682719,100.621 171.969952,100.052289 C172.104575,99.8053281 172.311845,99.6039792 172.56471,99.4745231 C173.707816,98.8431566 174.128346,97.4303006 173.511597,96.2932613 C172.894848,95.156222 171.466685,94.7114021 170.295868,95.2916812 C169.125051,95.8719603 168.640354,97.2648305 169.204497,98.4279419 C169.056519,98.7506737 168.833184,99.0345806 168.552616,99.2566229 C168.364019,99.4096895 168.166556,99.551893 167.961219,99.6825188 C165.709877,104.152774 161.049262,107.480705 155.703164,107.767937 L155.703164,129 C159.735419,128.762291 162.998185,126.748365 165.719957,123.631731 C165.931651,123.796807 166.109742,123.945376 166.260951,124.084039 C166.74299,124.52338 166.909856,125.203907 166.684338,125.810733 C166.27754,126.901097 166.734606,128.120476 167.764018,128.69114 C168.793429,129.261803 170.092041,129.015701 170.831588,128.109799 C171.571135,127.203897 171.533834,125.904968 170.743475,125.04148 C170.656922,124.947999 170.562502,124.861854 170.461217,124.783961 C170.35033,124.698122 170.269685,124.648599 170.269685,124.648599 C169.900061,123.327992 169.026406,122.14935 167.581515,121.06315 C169.185004,118.370719 170.165857,115.364591 170.454496,112.258001 C170.653345,112.260322 170.851906,112.273548 171.049254,112.29762 C171.631889,112.371642 172.127479,112.751071 172.342936,113.288075 C172.75632,114.322977 173.846174,114.936571 174.963928,114.763709 C176.081682,114.590847 176.926998,113.677976 176.99683,112.568344 C177.030684,111.914825 176.792253,111.275933 176.336454,110.798821 C175.880655,110.32171 175.246784,110.047511 174.580837,110.039381 L174.580837,110.039381 Z" id="Shape" fill="#E32C66"></path>
                <path d="M225.866944,247.412084 C225.675369,247.104892 225.433299,246.833051 225.151181,246.608293 C223.709758,245.230843 223.040173,243.209693 222.683941,241.228566 C222.327708,239.247439 222.225456,237.226289 221.654824,235.28852 C221.34447,234.294953 220.95622,233.328004 220.49377,232.396875 C220.163925,231.683136 219.74832,230.285674 219.144704,229.785389 C219.026268,229.681807 218.882914,229.611632 218.729099,229.58194 C218.443964,228.969173 218.03758,228.422043 217.535061,227.974359 C216.591704,227.110534 215.440545,226.423477 214.810541,225.306174 C214.637375,224.918645 214.423977,224.550817 214.173941,224.208884 C213.748441,223.735281 213.075557,223.541837 212.683041,223.041553 C212.171782,222.394518 212.287227,221.467324 212.353196,220.643522 C212.419165,219.81972 212.353196,218.832491 211.647328,218.398911 C211.225127,218.135428 210.680882,218.16211 210.242189,217.928644 C209.582499,217.595121 209.321921,216.754643 209.335115,216.004216 C209.348309,215.253789 209.5792,214.523373 209.638572,213.772946 C209.823286,211.384921 208.266417,209.010237 208.866735,206.695587 C209.094328,205.818421 209.615483,205.057988 210.001402,204.240857 C210.135981,203.968925 210.246365,203.685424 210.331247,203.393708 C211.36042,203.806251 212.441948,204.070104 213.543937,204.177487 C211.726491,200.055142 212.188274,195.265751 211.340572,190.836564 L211.449421,190.686479 C212.305563,189.544559 212.791731,188.162984 212.841367,186.730895 C212.841367,185.083291 212.079425,183.542415 211.736386,181.928163 C211.442824,180.557383 211.456018,179.123234 211.076696,177.775801 C210.813531,176.938461 210.464181,176.131361 210.034386,175.367764 C209.62318,174.596214 209.191083,173.836893 208.738096,173.089801 C208.315894,171.675664 207.892593,170.261526 207.468193,168.847388 C206.874472,166.862925 206.264258,164.845111 205.109801,163.130802 C204.6876,162.503779 204.55896,161.229721 203.909165,160.849504 C203.381555,160.573439 202.782944,160.467514 202.193972,160.545998 C201.277003,160.025702 200.472181,159.275275 200.356735,158.248024 C200.345327,158.023584 200.367568,157.79869 200.422704,157.580978 L200.534851,157.580978 C201.986169,157.447569 202.721724,156.153499 203.477069,155.019521 C204.697495,153.185144 204.232413,150.703732 203.477069,148.615878 C203.28982,147.956928 202.950697,147.352272 202.487534,146.851541 C201.428731,145.850972 199.753119,146.071097 198.387561,145.587488 C197.929076,145.427397 197.500278,145.183925 197.031898,145.070528 C196.124824,144.857073 195.174871,145.157244 194.343662,145.580818 C193.512452,146.004392 192.737317,146.55137 191.866526,146.884893 C190.995735,147.218416 189.920441,147.481899 189.706041,148.385747 C189.645947,148.690167 189.671079,149.005504 189.778607,149.296265 C189.979004,149.876206 190.331257,150.390306 190.797828,150.783778 C190.047458,152.348124 190.012569,154.166352 190.702362,155.758952 C191.392154,157.351553 192.73737,158.55862 194.383243,159.061821 C194.633925,159.468719 194.868115,159.882287 195.082514,160.305862 C195.465134,161.052953 195.788383,161.933454 195.656445,162.73391 C195.417824,162.990267 195.19738,163.263322 194.996755,163.551041 C194.0501,164.885134 193.512452,166.449357 193.017685,168.010245 C192.353082,170.003277 191.820848,172.038962 191.424534,174.103712 C190.619712,175.834696 189.636774,177.488971 189.052948,179.306672 C188.007629,179.30802 186.966915,179.166664 185.959003,178.886432 L183.175111,178.249403 C182.205367,178.025943 181.196041,177.785806 180.437398,177.138772 C180.034987,176.805248 179.721635,176.361663 179.312627,176.031475 C178.903619,175.701287 178.082305,175.3144 177.633716,175.587889 C177.551721,175.638269 177.475405,175.697542 177.406123,175.764656 C176.997115,174.927514 176.607898,174.097041 176.132921,173.28658 C175.450142,172.152602 174.43422,171.115345 173.147824,170.898555 C172.361828,170.770692 171.5576,170.959918 170.908177,171.425521 C170.156131,171.965829 169.684452,173.093137 170.248487,173.853569 C170.389413,174.022784 170.54267,174.181094 170.706972,174.327172 C171.088802,174.771965 171.429941,175.250865 171.726193,175.757986 C172.789436,177.267062 174.379916,178.311389 176.175801,178.679648 L176.060355,179.013171 C175.826166,179.706899 175.3281,180.544042 175.453441,181.264452 L187.835821,185.550224 C188.630178,185.876231 189.473194,186.064529 190.329448,186.107207 C190.663489,186.104405 190.995887,186.059591 191.318983,185.973798 L191.318983,186.614162 L191.318983,186.640844 C191.351968,191.040013 190.659293,195.409166 190.530654,199.805 C190.507565,200.608791 190.530654,201.472615 191.032018,202.099639 C191.592755,202.786696 192.588886,202.923441 193.456379,202.766685 C193.66528,202.731109 193.869784,202.684416 194.06989,202.626605 C194.36331,203.733162 194.574993,204.860239 194.703193,205.998523 L195.521208,211.955246 C195.626461,212.565083 195.669567,213.18423 195.649848,213.802963 C195.554193,215.200425 194.825235,216.451137 194.297483,217.741871 C193.769731,219.032605 193.456379,220.576817 194.149053,221.784171 C194.366751,222.157717 194.66691,222.474564 194.861518,222.86145 C195.108854,223.460429 195.221516,224.107484 195.191363,224.755861 C195.241939,226.552439 195.290317,228.35124 195.336495,230.152265 C195.192547,230.128366 195.04491,230.157986 194.92089,230.235646 C194.234813,230.775953 194.310677,233.347416 194.2612,234.144536 C194.208425,235.478628 194.2612,236.839402 194.188634,238.186836 C194.102871,240.00275 193.814067,241.803009 193.327739,243.553222 C193.208847,244.122165 192.948933,244.651232 192.572394,245.090763 C192.186653,245.430004 191.726415,245.671264 191.229925,245.794497 C189.586535,246.3149 187.868193,246.551679 186.147014,246.494896 C185.451041,246.471549 184.725383,246.404844 184.078886,246.671663 C183.43239,246.938481 182.911235,247.672232 183.145425,248.339278 C183.346631,248.899597 183.956844,249.166415 184.507685,249.376535 C185.766032,249.82465 186.980647,250.389603 188.135979,251.064162 C188.580667,251.370515 189.049529,251.639352 189.537821,251.867952 C190.005854,252.037964 190.489994,252.158672 190.982541,252.228157 L196.830693,253.248738 C198.02803,253.455522 199.469452,253.582261 200.231394,252.581692 C200.6437,252.041384 200.703072,251.307634 200.683282,250.620576 C200.650297,249.286484 200.386421,247.929045 200.557941,246.594953 C200.688191,245.806298 200.893653,245.032249 201.171452,244.283638 C201.754178,242.533753 202.339103,240.78498 202.926227,239.03732 C203.513351,237.282988 204.107072,235.511981 204.334665,233.670933 C204.417127,233.003887 204.41053,232.243454 203.905867,231.826551 C203.778224,231.720679 203.629828,231.64338 203.470472,231.599755 C203.450681,229.992174 203.242879,228.381257 203.331937,226.773676 C203.355026,226.373448 203.394607,225.973221 203.427592,225.569658 C203.733325,225.863417 204.006508,226.189971 204.242309,226.543545 C204.806344,227.437387 205.014146,228.618059 205.875041,229.21173 C206.607297,229.718685 207.692487,229.692003 208.207045,230.425754 C208.37235,230.707597 208.496763,231.011988 208.576472,231.329601 C208.875132,232.115973 209.32338,232.835503 209.895851,233.447473 C210.092332,234.179592 210.365448,234.888444 210.710569,235.562009 C211.19654,236.600378 211.680313,237.635411 212.161886,238.667109 C212.656958,239.780697 213.207402,240.868259 213.811111,241.925629 C214.272034,242.591253 214.643601,243.315758 214.916092,244.080189 C215.381173,245.727793 214.62253,247.535488 213.421894,248.749512 C212.221258,249.963536 210.638003,250.660599 209.077836,251.310969 C208.913462,251.367214 208.762798,251.458166 208.635844,251.577787 C208.500643,251.739725 208.429033,251.946267 208.434638,252.158117 C208.434638,252.928556 209.061344,253.588931 209.780406,253.825733 C210.51546,254.025396 211.285724,254.053905 212.033247,253.909114 C216.248665,253.392153 220.45089,252.351561 224.178138,250.280383 C224.73563,250.013218 225.229543,249.627561 225.626158,249.149739 C226.016391,248.659391 226.108872,247.991995 225.866944,247.412084 L225.866944,247.412084 Z" id="Path" fill="url(#linearGradient-1)"></path>
                <path d="M208.459309,173.35034 C209.126904,174.444973 209.752775,175.566359 210.336921,176.714498 C210.746113,177.473941 211.078647,178.277689 211.328925,179.112213 C211.69193,180.44985 211.682542,181.877778 211.954796,183.242168 C212.267731,184.847333 213,186.378927 213,188.024221 C212.95222,189.449758 212.490708,190.824121 211.679413,191.956875 C210.870469,193.079927 209.944473,194.10088 208.919324,195 C206.55624,188.458099 205.236135,181.53915 205.013891,174.530805 C204.982597,173.561018 204.976339,172.561134 205.30805,171.654884 C205.511458,171.086389 206.487816,169.528041 207.116816,170.14001 C207.345259,170.364064 207.404717,171.373981 207.545538,171.711734 C207.809241,172.282816 208.114784,172.830725 208.459309,173.35034 Z" id="Path" fill="#2F2E41"></path>
                <path d="M208.459309,173.35034 C209.126904,174.444973 209.752775,175.566359 210.336921,176.714498 C210.746113,177.473941 211.078647,178.277689 211.328925,179.112213 C211.69193,180.44985 211.682542,181.877778 211.954796,183.242168 C212.267731,184.847333 213,186.378927 213,188.024221 C212.95222,189.449758 212.490708,190.824121 211.679413,191.956875 C210.870469,193.079927 209.944473,194.10088 208.919324,195 C206.55624,188.458099 205.236135,181.53915 205.013891,174.530805 C204.982597,173.561018 204.976339,172.561134 205.30805,171.654884 C205.511458,171.086389 206.487816,169.528041 207.116816,170.14001 C207.345259,170.364064 207.404717,171.373981 207.545538,171.711734 C207.809241,172.282816 208.114784,172.830725 208.459309,173.35034 Z" id="Path" fill="#000000" opacity="0.1"></path>
                <path d="M121.016274,127.400396 C118.368193,130.044265 118.050156,131.208906 116.459968,131.734333 C114.869781,132.25976 109.148454,135.221563 110.946203,138.504645 L115.780372,141.697368 L115.920978,141.791075 L116.660834,144.013263 L109.34932,157.025114 C109.34932,157.025114 97.2973734,151.516496 96.1156131,159.665636 C94.9338528,167.814776 95.6837517,170.040312 95.3657142,174.390982 C95.0476767,178.741652 95.4694948,180 94.408254,180 C93.3470132,180 92.9285428,177.141944 92.9285428,177.141944 C92.9285428,177.141944 92.8615875,177.011424 92.7444158,176.767117 C91.1676195,173.490728 80.4648215,149.438214 97.6087153,132.905667 C97.6087153,132.905667 105.549609,132.383587 107.461182,123.280646 C108.7802,116.988907 113.393417,117.531068 116.459968,118.812842 C117.45664,119.203514 118.385361,119.749044 119.211829,120.429284 C119.955547,121.133179 120.617047,121.919086 121.183662,122.771952 C122.057428,124.15078 122.53281,125.881008 121.016274,127.400396 Z" id="Path" fill="#D0D2D5"></path>
                <path d="M115.279909,142.076399 L116,144.281993 L108.883809,157.196678 C108.883809,157.196678 97.1538226,151.729196 96.0036323,159.817483 C94.853442,167.905769 95.5833078,170.114685 95.2737665,174.432867 C94.9642252,178.751049 95.3747747,180 94.3418843,180 C93.3089938,180 92.9017026,177.163287 92.9017026,177.163287 C92.9017026,177.163287 92.8365361,177.033741 92.7224945,176.791259 C92.2044201,172.752098 89.5782066,149.125 99.0990452,150.380594 C99.0990452,150.380594 106.824544,154.061014 108.059451,152.592832 C109.03695,151.430245 113.377045,144.743706 115.143059,142 L115.279909,142.076399 Z" id="Path" fill="#000000" opacity="0.1"></path>
                <path d="M121,123.039049 L116.357946,128.646561 C116.357946,128.646561 110.966862,136.314604 109.84814,135.989976 C109.513184,135.912346 109.171845,135.869997 108.829074,135.863542 C108.067391,135.801526 107.407189,135.27934 107.1325,134.521639 C106.85781,133.763939 107.017624,132.905858 107.543186,132.31656 C109.382005,130.266281 112.770319,126.374169 112.992135,125.509635 C113.21395,124.645101 115.371027,120.855502 116.451173,119 C117.408235,119.398897 118.300048,119.955913 119.093672,120.650474 C119.812145,121.367374 120.451688,122.168702 121,123.039049 L121,123.039049 Z" id="Path" fill="#000000" opacity="0.1"></path>
                <path d="M256.715079,201.526857 C255.900975,203.151442 251.730767,209.24529 249.906508,211.907619 L249.052529,213.160869 C249.052529,213.160869 248.720242,215.362347 243.27405,212.633708 C237.827858,209.90507 109.86727,156.031869 109.86727,156.031869 L109,153.432535 L115.313462,144 L255.562041,198.065498 C255.562041,198.065498 257.76843,199.42816 256.715079,201.526857 Z" id="Path" fill="#454B69"></path>
                <path d="M250,211.892676 L249.145455,213.154877 C249.145455,213.154877 248.812947,215.372076 243.363141,212.623951 C237.913336,209.875827 109.867846,155.617898 109.867846,155.617898 L109,153 L250,211.892676 Z" id="Path" fill="#000000" opacity="0.1"></path>
                <path d="M172.777154,177.093311 C171.494045,176.884573 170.069827,176.98568 169.072217,177.814109 C168.469241,178.321569 168.088046,179.041876 168.008976,179.823211 C167.923654,180.726655 168.451993,181.799698 169.364281,181.86819 C169.583821,181.870646 169.80323,181.856472 170.020602,181.82579 C170.596919,181.823325 171.172333,181.871346 171.740166,181.969297 C174.008061,182.181287 176.23844,181.286325 177.72254,179.568812 C178.506844,178.590353 177.473137,178.166354 176.547724,177.970662 C175.281022,177.703217 174.043856,177.295526 172.777154,177.093311 Z" id="Path" fill="#FBBEBE"></path>
                <path d="M195.306488,206.331822 L196.153577,212.129755 C196.261446,212.72821 196.304942,213.335789 196.283373,213.942844 C196.184318,215.308418 195.429453,216.532499 194.88636,217.796067 C194.343266,219.059635 194.011945,220.573284 194.732654,221.744717 C194.954673,222.109967 195.2655,222.422568 195.467025,222.80098 C195.723081,223.386178 195.839795,224.019204 195.808593,224.653555 L196.04086,232.879908 C198.677543,233.053224 201.323907,233.038926 203.958407,232.837131 C204.061495,232.841864 204.163037,232.811586 204.245324,232.751577 C204.314834,232.666583 204.350023,232.560205 204.344379,232.452138 C204.460512,230.527171 204.112112,228.598914 204.22483,226.673947 C204.265818,225.969772 204.368288,225.268886 204.381951,224.56142 C204.422939,221.695359 202.954197,218.888527 203.398235,216.055371 C203.537663,215.340486 203.720141,214.63402 203.944744,213.939553 C205.348589,209.003741 205.051424,203.817848 204.740597,198.7208 C204.745901,198.638747 204.721784,198.55743 204.672284,198.490462 C204.621898,198.441849 204.557733,198.408652 204.487837,198.395036 C201.455242,197.518442 198.169493,198.120083 195.682213,200.007402 C195.309904,200.296969 194.370592,200.576665 194.124663,200.922172 C193.783095,201.402591 194.230549,201.88301 194.428658,202.393044 C194.867487,203.671728 195.161801,204.992298 195.306488,206.331822 L195.306488,206.331822 Z" id="Path" fill="#3F3D56"></path>
                <path d="M195.306488,206.331822 L196.153577,212.129755 C196.261446,212.72821 196.304942,213.335789 196.283373,213.942844 C196.184318,215.308418 195.429453,216.532499 194.88636,217.796067 C194.343266,219.059635 194.011945,220.573284 194.732654,221.744717 C194.954673,222.109967 195.2655,222.422568 195.467025,222.80098 C195.723081,223.386178 195.839795,224.019204 195.808593,224.653555 L196.04086,232.879908 C198.677543,233.053224 201.323907,233.038926 203.958407,232.837131 C204.061495,232.841864 204.163037,232.811586 204.245324,232.751577 C204.314834,232.666583 204.350023,232.560205 204.344379,232.452138 C204.460512,230.527171 204.112112,228.598914 204.22483,226.673947 C204.265818,225.969772 204.368288,225.268886 204.381951,224.56142 C204.422939,221.695359 202.954197,218.888527 203.398235,216.055371 C203.537663,215.340486 203.720141,214.63402 203.944744,213.939553 C205.348589,209.003741 205.051424,203.817848 204.740597,198.7208 C204.745901,198.638747 204.721784,198.55743 204.672284,198.490462 C204.621898,198.441849 204.557733,198.408652 204.487837,198.395036 C201.455242,197.518442 198.169493,198.120083 195.682213,200.007402 C195.309904,200.296969 194.370592,200.576665 194.124663,200.922172 C193.783095,201.402591 194.230549,201.88301 194.428658,202.393044 C194.867487,203.671728 195.161801,204.992298 195.306488,206.331822 L195.306488,206.331822 Z" id="Path" fill="#000000" opacity="0.1"></path>
                <path d="M210.136181,204.651899 C209.754362,205.456891 209.242008,206.205566 209.013569,207.070187 C208.41963,209.352654 209.956693,211.708 209.773943,214.046783 C209.715201,214.785521 209.490026,215.504382 209.473709,216.243119 C209.457392,216.981857 209.724992,217.803412 210.371146,218.144623 C210.805178,218.369888 211.350167,218.346699 211.758092,218.605091 C212.446671,219.032432 212.524992,220.003061 212.456461,220.817991 C212.387929,221.632921 212.27371,222.54392 212.782801,223.179963 C213.171146,223.673558 213.836881,223.865696 214.254597,224.33279 C214.503142,224.668087 214.714373,225.030274 214.884434,225.412738 C215.507744,226.519188 216.646672,227.194984 217.580006,228.062917 C218.513339,228.930851 219.303083,230.202937 218.885367,231.405455 C218.578607,232.28664 217.717069,232.829927 216.888164,233.244017 C215.375792,234.002814 213.779563,234.575553 212.133384,234.95007 C211.956719,235.004308 211.76978,235.014535 211.588395,234.979884 C211.404705,234.911801 211.240852,234.797877 211.111938,234.648612 C210.149234,233.691235 209.153896,232.68748 208.710073,231.39883 C208.631145,231.086518 208.508031,230.787471 208.344572,230.51102 C207.835481,229.785534 206.761821,229.812035 206.037345,229.311814 C205.18886,228.725462 204.983265,227.562696 204.428486,226.684824 C203.873708,225.806952 203.06112,225.283542 202.470444,224.511677 C201.471842,223.226341 201.227087,221.51035 200.512401,220.042813 C200.208905,219.420021 199.82056,218.836982 199.579068,218.187688 C199.335352,217.409432 199.185233,216.604117 199.131981,215.789276 C198.671841,211.920015 197.500279,208.024252 198.237809,204.194743 C198.400979,203.353311 198.652261,202.538381 198.75669,201.670448 C198.936177,200.169784 198.652261,198.63268 198.870909,197.135329 C198.881727,196.754519 199.06318,196.399547 199.363683,196.171326 C199.540021,196.090969 199.731738,196.051367 199.924989,196.055381 C201.859616,195.950411 203.799302,195.994708 205.727321,196.18789 C206.706343,196.283959 207.802846,196.486035 208.390259,197.297652 C208.88956,197.993324 208.863453,198.9242 209.02336,199.768944 C209.222427,200.809139 209.741309,201.375615 210.286297,202.190545 C210.831286,203.005475 210.537579,203.810467 210.136181,204.651899 Z" id="Path" fill="#3F3D56"></path>
                <path d="M202.058669,231.379809 C202.573038,231.379809 203.14275,231.346596 203.539921,231.678727 C204.034757,232.093891 204.041268,232.854471 203.963136,233.502126 C203.735251,235.322204 203.152516,237.072535 202.569782,238.816222 L200.837857,244.000787 C200.563731,244.740596 200.360932,245.505901 200.232334,246.285849 C200.063048,247.614373 200.323488,248.942897 200.356043,250.271421 C200.356043,250.935683 200.313722,251.673013 199.906784,252.207744 C199.171042,253.174246 197.735367,253.061321 196.553621,252.872006 L190.788132,251.875613 C190.301739,251.809527 189.823699,251.690385 189.362224,251.520233 C188.881073,251.293591 188.41841,251.028151 187.978637,250.72644 C186.837725,250.061368 185.63893,249.505446 184.397589,249.065785 C183.857176,248.859864 183.251653,248.59748 183.056323,248.042822 C182.825183,247.37856 183.339552,246.647871 183.977629,246.382167 C184.615707,246.116462 185.328661,246.182888 186.018827,246.202816 C187.715979,246.257942 189.410289,246.024474 191.032295,245.511983 C191.520865,245.389747 191.973917,245.150672 192.354027,244.814508 C192.740219,244.371747 193.003245,243.831621 193.115814,243.250171 C193.607043,241.519177 193.899824,239.735897 193.988288,237.936075 C194.056653,236.607551 194.011076,235.279027 194.063164,233.950503 C194.095719,233.163353 194.020843,230.629193 194.697986,230.08782 C195.215611,229.68262 197.344707,230.801901 198.044639,230.964646 C199.360596,231.272327 200.708961,231.411786 202.058669,231.379809 L202.058669,231.379809 Z" id="Path" fill="#2F2E41"></path>
                <path d="M222.547493,235.611313 C223.132231,237.501132 223.223491,239.499789 223.60205,241.442377 C223.98061,243.384966 224.649848,245.367132 226.126905,246.719358 C226.414349,246.942042 226.662165,247.209484 226.860364,247.510905 C227.114633,248.086693 227.016716,248.752961 226.606864,249.235819 C226.198804,249.704968 225.692964,250.083872 225.123047,250.347283 C221.307035,252.37892 217.011064,253.404634 212.681293,253.912543 C211.916165,254.052399 211.128719,254.024233 210.376138,253.83009 C209.6393,253.58603 208.986961,252.9396 209.000481,252.181034 C208.993355,251.972902 209.065618,251.769592 209.203281,251.61046 C209.334799,251.493117 209.490317,251.404315 209.65958,251.349909 C211.254936,250.710075 212.873953,250.014173 214.10765,248.833449 C215.341348,247.652724 216.115366,245.865147 215.638787,244.262264 C215.35656,243.511527 214.973534,242.800631 214.499729,242.148174 C213.881785,241.111235 213.317739,240.044594 212.809733,238.952302 L211.322536,235.908144 C210.886517,235.017653 210.447118,234.100778 210.372758,233.11794 C212.240997,233.199602 214.106628,232.907793 215.855107,232.26043 C216.671278,231.935705 217.431597,231.490787 218.109562,230.941185 C218.684161,230.472853 219.20806,229.598853 219.982078,230.209004 C220.603997,230.697125 220.996076,232.072438 221.361115,232.76834 C221.835335,233.682857 222.232117,234.633683 222.547493,235.611313 Z" id="Path" fill="#2F2E41"></path>
                <path d="M200.520967,159.24909 C200.662442,160.460477 201.858552,161.258605 203,161.738112 L195.775115,164 C196.24134,163.123006 195.865144,162.050423 195.402134,161.160811 C195.025043,160.456452 194.595148,159.780548 194.115995,159.138677 C194.045258,159.040883 193.964874,158.917851 194.01632,158.804283 C194.062204,158.7301 194.134308,158.675078 194.218886,158.649705 C195.704377,157.999846 197.234882,157.327905 198.858633,157.091306 C199.328073,157.025058 200.215509,156.842088 200.565982,157.308977 C200.916455,157.775866 200.453445,158.690716 200.520967,159.24909 Z" id="Path" fill="#FBBEBE"></path>
                <path d="M200.520967,159.24909 C200.662442,160.460477 201.858552,161.258605 203,161.738112 L195.775115,164 C196.24134,163.123006 195.865144,162.050423 195.402134,161.160811 C195.025043,160.456452 194.595148,159.780548 194.115995,159.138677 C194.045258,159.040883 193.964874,158.917851 194.01632,158.804283 C194.062204,158.7301 194.134308,158.675078 194.218886,158.649705 C195.704377,157.999846 197.234882,157.327905 198.858633,157.091306 C199.328073,157.025058 200.215509,156.842088 200.565982,157.308977 C200.916455,157.775866 200.453445,158.690716 200.520967,159.24909 Z" id="Path" fill="#000000" opacity="0.1"></path>
                <circle id="Oval" fill="#FBBEBE" cx="196" cy="155" r="6"></circle>
                <path d="M191.497291,202.979346 C192.06126,203.658418 193.053978,203.79092 193.92137,203.641855 C195.949681,203.310601 197.608609,201.810017 199.594045,201.270071 C202.028018,200.607562 204.603808,201.458887 206.90256,202.502339 C209.201313,203.545792 211.486873,204.821122 214,205 C211.727632,199.911927 213.02707,193.790339 210.853644,188.659203 C210.322656,187.403747 209.580591,186.194667 209.46186,184.836523 C209.313447,183.150436 210.151156,181.523975 210.279781,179.847826 C210.398511,178.353867 209.949974,176.866533 209.521225,175.442138 C208.991336,173.693113 208.461447,171.944088 207.931557,170.195062 C207.337905,168.237347 206.727763,166.246506 205.576738,164.563732 C205.151287,163.944285 205.022662,162.68883 204.376241,162.314512 C202.964669,161.496313 200.824224,162.526515 199.293921,162.582828 C197.763618,162.639141 196.368535,163.732282 195.474759,164.967862 C194.528214,166.273006 193.990629,167.826591 193.495919,169.363613 C192.708202,171.652209 192.120032,174.005244 191.73805,176.396152 C191.688579,176.753907 191.645704,177.111662 191.612723,177.47273 C191.282917,180.874716 191.764434,184.296578 191.790819,187.715127 L191.790819,187.738315 C191.8238,192.074439 191.131206,196.384064 191.002581,200.716876 C190.989389,201.508575 191.009177,202.37315 191.497291,202.979346 Z" id="Path" fill="#2F2E41"></path>
                <path d="M191.308189,187 C192.510095,186.715473 193.597036,185.986168 194.530691,185.188185 C195.339326,184.508751 196.057546,183.740081 196.669735,182.898888 C197.440466,181.767926 198.059459,180.551936 198.512657,179.278528 C199.802447,175.87288 200.622006,172.326106 200.951307,168.724869 C201.041886,167.743742 201.069756,166.690665 200.446158,165.912304 C199.72527,165.044101 198.462096,164.756796 197.397846,165.218974 C196.575673,165.595073 196.042654,166.357082 195.547956,167.086387 C194.569012,168.531914 193.583101,169.997064 192.952536,171.606113 C192.673833,172.319065 192.46829,173.05164 192.196555,173.767863 C191.920216,174.474272 191.601521,175.165436 191.241997,175.838042 C191.189741,176.191248 191.144451,176.544454 191.109614,176.90093 C190.785622,180.259656 191.280319,183.624922 191.308189,187 Z" id="Path" fill="#000000" opacity="0.1"></path>
                <path d="M200.475108,165.912482 C201.064827,166.685442 201.038471,167.740954 200.956108,168.702283 C200.645344,172.278627 199.870292,175.800871 198.649944,179.182711 C198.225003,180.457941 197.639501,181.675599 196.907144,182.807179 C196.327206,183.641764 195.648106,184.404986 194.884309,185.080591 C193.764172,186.087388 192.400241,186.987009 190.881468,187 C190.02664,186.960328 189.184672,186.779175 188.390812,186.464124 L176.019892,182.313524 C175.8947,181.618509 176.392172,180.806577 176.626083,180.137544 L177.284987,178.21164 C177.472775,177.679012 177.690213,177.104163 178.181096,176.815115 C178.67198,176.526067 179.449486,176.92229 179.858007,177.243816 C180.266527,177.565341 180.576212,177.987546 180.978143,178.315567 C181.739177,178.939131 182.744006,179.172968 183.712594,179.387318 L186.489874,180.001139 C187.496729,180.272961 188.536206,180.409517 189.580133,180.407106 C190.354345,178.075235 191.826995,176.022669 192.660508,173.710284 C192.917481,173.002279 193.111858,172.271539 193.378714,171.563534 C193.971727,169.96565 194.907371,168.513914 195.83313,167.075169 C196.297658,166.354173 196.801719,165.597452 197.58252,165.220715 C198.592161,164.755932 199.793747,165.043293 200.475108,165.912482 Z" id="Path" fill="#2F2E41"></path>
                <path d="M198.479007,156.252231 C198.433594,155.880996 198.310978,155.521801 198.118149,155.195122 C197.912367,154.859448 197.498888,154.688257 197.096853,154.772279 C196.497693,154.948464 196.296838,155.819777 195.670443,155.848608 C195.248307,155.867828 194.945322,155.464204 194.812554,155.086208 C194.679785,154.708212 194.608295,154.275758 194.291693,154.00988 C194.071256,153.854782 193.818276,153.745586 193.549551,153.689544 C192.095906,153.25709 190.594601,152.459454 190.111187,151.098027 C189.997444,150.821647 189.970272,150.520381 190.032888,150.229916 C190.254169,149.368213 191.394616,149.108741 192.262718,148.798015 C193.13082,148.487289 193.964878,147.955532 194.815958,147.551909 C195.667038,147.148285 196.654291,146.863187 197.59048,147.068202 C198.06553,147.20879 198.532545,147.372379 198.989655,147.558315 C200.399044,148.019599 202.125035,147.804974 203.217822,148.762778 C203.695318,149.23788 204.045445,149.813334 204.239118,150.441338 C205.001686,152.433827 205.485099,154.797906 204.222096,156.54694 C203.442507,157.626472 202.686748,158.859765 201.188847,158.991102 C199.445834,159.128847 198.754757,157.642488 198.479007,156.252231 Z" id="Path" fill="#2F2E41"></path>
                <g id="Group" opacity="0.1" transform="translate(190.000000, 148.000000)" fill="#000000">
                    <path d="M5.80666667,5.7784375 C5.67666667,5.3728125 5.60666667,4.90875 5.3,4.6234375 C5.08416009,4.45700319 4.83645512,4.33982624 4.57333333,4.2796875 C3.14666667,3.815625 1.68,2.9596875 1.20333333,1.49875 C1.09469867,1.20145647 1.06928775,0.878658367 1.13,0.5671875 C1.16269143,0.420337498 1.22268785,0.281418903 1.30666667,0.158125 C0.763333333,0.4021875 0.29,0.7253125 0.156666667,1.2959375 C0.0953562099,1.60763238 0.121962355,1.93091873 0.233333333,2.2275 C0.706666667,3.6884375 2.17666667,4.544375 3.6,5.0084375 C3.86312179,5.06857624 4.11082676,5.18575319 4.32666667,5.3521875 C4.63666667,5.6375 4.70333333,6.098125 4.83666667,6.5071875 C4.97,6.91625 5.26333333,7.3459375 5.67666667,7.3253125 C6.09,7.3046875 6.29,6.91625 6.55333333,6.5896875 C6.19,6.5415625 5.92666667,6.1565625 5.80666667,5.7784375 Z" id="Path"></path>
                    <path d="M12.0466667,9.9584375 C10.3333333,10.12 9.65666667,8.51125 9.38,7.0296875 C9.34339247,6.63241507 9.23005566,6.24671572 9.04666667,5.8953125 C8.84442889,5.53596153 8.44020781,5.35254621 8.04666667,5.4415625 C7.74260382,5.59366052 7.48701563,5.83219022 7.31,6.1290625 C7.62009041,6.15971983 7.89861527,6.33764915 8.06333333,6.6103125 C8.25214132,6.96086855 8.37220057,7.3463182 8.41666667,7.7446875 C8.68666667,9.22625 9.36333333,10.8384375 11.0833333,10.6734375 C11.7631651,10.5961083 12.3906574,10.2603019 12.8433333,9.7315625 C12.5919091,9.85248666 12.3226351,9.9291706 12.0466667,9.9584375 L12.0466667,9.9584375 Z" id="Path"></path>
                </g>
                <ellipse id="Oval" fill="#E32C66" cx="270.5" cy="218" rx="10.5" ry="2"></ellipse>
                <ellipse id="Oval" fill="#3F3D56" cx="270" cy="216.5" rx="1" ry="1.5"></ellipse>
                <ellipse id="Oval" fill="#3F3D56" cx="270" cy="214.5" rx="1" ry="1.5"></ellipse>
                <ellipse id="Oval" fill="#3F3D56" cx="270" cy="212.5" rx="1" ry="1.5"></ellipse>
                <ellipse id="Oval" fill="#3F3D56" cx="270" cy="210.5" rx="1" ry="1.5"></ellipse>
                <ellipse id="Oval" fill="#3F3D56" cx="270" cy="208.5" rx="1" ry="1.5"></ellipse>
                <ellipse id="Oval" fill="#3F3D56" cx="270" cy="206.5" rx="1" ry="1.5"></ellipse>
                <ellipse id="Oval" fill="#3F3D56" cx="270" cy="204.5" rx="1" ry="1.5"></ellipse>
                <path d="M274.708266,190.769131 C274.879229,190.549758 275.03506,190.318842 275.174663,190.078006 L271.883238,189.5345 L275.444506,189.557985 C276.1315,188.045051 276.17244,186.314604 275.557774,184.770437 L270.780544,187.266538 L275.184657,184.005503 C274.05831,182.05291 271.94434,180.896313 269.704756,181.007333 C267.465172,181.118353 265.474212,182.478439 264.543724,184.532993 C263.613237,186.587546 263.898708,188.993248 265.283731,190.769131 C265.016168,191.109894 264.786068,191.478859 264.597462,191.869562 L268.871651,194.10733 L264.314293,192.567397 C263.667693,194.498921 264.032256,196.6286 265.283731,198.230593 C263.352293,200.706763 263.634227,204.261892 265.931431,206.397954 C268.228635,208.534015 271.770025,208.534015 274.067229,206.397954 C276.364433,204.261892 276.646367,200.706763 274.714929,198.230593 C276.428357,196.038972 276.428357,192.950687 274.714929,190.759066 L274.708266,190.769131 Z" id="Path" fill="#E32C66"></path>
                <path d="M264.000001,195.085035 C263.999419,196.382633 264.454822,197.64221 265.292068,198.658698 C263.361402,201.02636 263.643223,204.4257 265.939508,206.468157 C268.235794,208.510614 271.775768,208.510614 274.072053,206.468157 C276.368339,204.4257 276.65016,201.02636 274.719494,198.658698 C275.515381,197.673855 264.000001,194.437028 264.000001,195.085035 Z" id="Path" fill="#000000" opacity="0.1"></path>
                <ellipse id="Oval" fill="#E32C66" cx="49.5" cy="258" rx="15.5" ry="3"></ellipse>
                <ellipse id="Oval" fill="#3F3D56" cx="49" cy="256.5" rx="2" ry="2.5"></ellipse>
                <ellipse id="Oval" fill="#3F3D56" cx="49" cy="253.5" rx="2" ry="2.5"></ellipse>
                <ellipse id="Oval" fill="#3F3D56" cx="49" cy="250.5" rx="2" ry="2.5"></ellipse>
                <ellipse id="Oval" fill="#3F3D56" cx="49" cy="248.5" rx="2" ry="2.5"></ellipse>
                <ellipse id="Oval" fill="#3F3D56" cx="49" cy="245.5" rx="2" ry="2.5"></ellipse>
                <ellipse id="Oval" fill="#3F3D56" cx="49" cy="242.5" rx="2" ry="2.5"></ellipse>
                <ellipse id="Oval" fill="#3F3D56" cx="49" cy="239.5" rx="2" ry="2.5"></ellipse>
                <path d="M56.1826252,220.119397 C56.4223374,219.798536 56.6410704,219.461718 56.8373862,219.111158 L52.1820356,218.324731 L57.2171476,218.365061 C58.1924776,216.183271 58.25049,213.685655 57.377564,211.458623 L50.6269783,215.068119 L56.8472076,210.363003 C55.2594992,207.535018 52.2654666,205.854957 49.0894804,206.00986 C45.9134941,206.164762 43.0881063,208.128653 41.7687223,211.098426 C40.4493384,214.068199 40.8571936,217.545879 42.8255011,220.109314 C42.4431588,220.60003 42.1138485,221.131912 41.8433596,221.69561 L47.8900773,224.921975 L41.4439554,222.700488 C40.526034,225.498916 41.0509595,228.584159 42.8385963,230.897472 C40.1010253,234.469996 40.4980067,239.602527 43.750455,242.686797 C47.0029032,245.771068 52.0183184,245.771068 55.2707666,242.686797 C58.5232148,239.602527 58.9201962,234.469996 56.1826252,230.897472 C58.6057916,227.736626 58.6057916,223.283603 56.1826252,220.122757 L56.1826252,220.119397 Z" id="Path" fill="#E32C66"></path>
                <path d="M41.0001322,225.127598 C41.000437,227.017781 41.6412753,228.852843 42.8194252,230.337204 C40.0783418,233.798333 40.4758325,238.770826 43.7324537,241.758926 C46.9890749,244.747025 52.0109251,244.747025 55.2675463,241.758926 C58.5241675,238.770826 58.9216582,233.798333 56.1805748,230.337204 C57.3114867,228.89805 41.0001322,224.167077 41.0001322,225.127598 Z" id="Path" fill="#000000" opacity="0.1"></path>
            </g>
        </g>
    </g>
</svg>