<?xml version="1.0" encoding="UTF-8"?>
<svg width="164px" height="27px" viewBox="0 0 164 27" version="1.1" xmlns="http://www.w3.org/2000/svg" xmlns:xlink="http://www.w3.org/1999/xlink">
    <!-- Generator: Sketch 53.2 (72643) - https://sketchapp.com -->
    <title>Group 2</title>
    <desc>Created with Sketch.</desc>
    <g id="Web---1.3" stroke="none" stroke-width="1" fill="none" fill-rule="evenodd" opacity="0.453427269">
        <g id="Artboard" transform="translate(-4222.000000, -524.000000)" fill="#7F879D" fill-rule="nonzero">
            <g id="Drop-down" transform="translate(3640.000000, 102.000000)">
                <g id="Group-6" transform="translate(582.000000, 393.000000)">
                    <g id="Group-2" transform="translate(0.000000, 29.000000)">
                        <path d="M21.5002009,0.000100431837 C19.0152009,0.000100431837 17.0002009,2.01510043 17.0002009,4.50010043 C17.0002009,6.98510043 19.0152009,9.00010043 21.5002009,9.00010043 C23.9852009,9.00010043 26.0002009,6.98510043 26.0002009,4.50010043 C26.0002009,2.01510043 23.9852009,0.000100431837 21.5002009,0.000100431837 Z M21.5002009,1.69345983 C21.9462009,1.69345983 22.3068419,2.05410043 22.3068419,2.50010043 C22.3068419,2.94610043 21.9462009,3.30674103 21.5002009,3.30674103 C21.0542009,3.30674103 20.6935599,2.94610043 20.6935599,2.50010043 C20.6935599,2.05410043 21.0542009,1.69345983 21.5002009,1.69345983 Z M21.0002009,4.00010043 L22.0002009,4.00010043 L22.0002009,7.00010043 L21.0002009,7.00010043 L21.0002009,4.00010043 Z M0.984575864,5.98642853 C0.433059707,5.99504961 -0.00735180076,6.44856861 0.000200863687,7.00010043 L0.000200863687,24.0001004 C-0.00489942586,24.3607363 0.18457616,24.6961818 0.496073713,24.8779882 C0.807571267,25.0597945 1.19283046,25.0597945 1.50432801,24.8779882 C1.81582557,24.6961818 2.00530115,24.3607363 2.00020086,24.0001004 L2.00020086,23.0001004 L24.0002009,23.0001004 L24.0002009,24.0001004 C23.9951006,24.3607363 24.1845762,24.6961818 24.4960737,24.8779882 C24.8075713,25.0597945 25.1928305,25.0597945 25.504328,24.8779882 C25.8158256,24.6961818 26.0053012,24.3607363 26.0002009,24.0001004 L26.0002009,19.0001004 C26.0039023,18.7298001 25.8980242,18.4695138 25.7066912,18.2785487 C25.5153582,18.0875836 25.2548686,17.9822067 24.9845759,17.9864284 C24.9361313,17.9874784 24.887827,17.9920478 24.8400449,18.0001004 L2.00020086,18.0001004 L2.00020086,7.00010043 C2.0039023,6.72980012 1.89802415,6.46951382 1.70669116,6.27854878 C1.51535817,6.08758373 1.25486855,5.9822068 0.984575864,5.98642853 Z M6.50020086,11.0001004 C5.11948899,11.0001004 4.00020086,12.1193886 4.00020086,13.5001004 C4.00020086,14.8808123 5.11948899,16.0001004 6.50020086,16.0001004 C7.88091274,16.0001004 9.00020086,14.8808123 9.00020086,13.5001004 C9.00020086,12.1193886 7.88091274,11.0001004 6.50020086,11.0001004 Z M11.0002009,11.0001004 L11.0002009,16.0001004 L25.0002009,16.0001004 L25.0002009,14.0001004 C25.0002009,12.3431004 23.6572009,11.0001004 22.0002009,11.0001004 L11.0002009,11.0001004 Z" id="Shape"></path>
                        <path d="M48.0001004,1.00010043 C47.7485772,1.00088577 47.5065872,1.09642654 47.3223664,1.26767853 C47.3151238,1.27343821 47.3079614,1.27929814 47.3008814,1.28525663 L36.3926785,10.2071314 C36.3800796,10.2166033 36.3677064,10.2263717 36.3555692,10.2364284 L36.3184598,10.2676784 L36.3184598,10.2696314 C36.1157235,10.4585004 36.0004382,10.7230203 36.0001004,11.0001004 C36.0001004,11.5523852 36.4478157,12.0001004 37.0001004,12.0001004 L38.0001004,12.0001004 L38.0001004,23.0001004 C38.0001004,24.1051004 38.8951004,25.0001004 40.0001004,25.0001004 L56.0001004,25.0001004 C57.1051004,25.0001004 58.0001004,24.1051004 58.0001004,23.0001004 L58.0001004,12.0001004 L59.0001004,12.0001004 C59.5523852,12.0001004 60.0001004,11.5523852 60.0001004,11.0001004 C59.9997628,10.7230204 59.8844776,10.4585005 59.6817414,10.2696314 C59.6817421,10.2689804 59.6817421,10.2683294 59.6817414,10.2676784 L59.6661164,10.2559594 C59.6441795,10.2360768 59.6213703,10.2171782 59.5977564,10.1993194 L58.0001004,8.89267853 L58.0001004,5.00010043 C58.0001004,4.44810043 57.5521004,4.00010043 57.0001004,4.00010043 L56.0001004,4.00010043 C55.4481004,4.00010043 55.0001004,4.44810043 55.0001004,5.00010043 L55.0001004,6.43955353 L48.6915064,1.27939733 L48.6778344,1.26767853 C48.4936137,1.09642654 48.2516236,1.00088577 48.0001004,1.00010043 Z M40.0001004,13.0001004 L56.0001004,13.0001004 L56.0001004,17.0001004 L40.0001004,17.0001004 L40.0001004,13.0001004 Z M43.0001004,14.0001004 C42.4478157,14.0001004 42.0001004,14.4478157 42.0001004,15.0001004 C42.0001004,15.5523852 42.4478157,16.0001004 43.0001004,16.0001004 C43.5523852,16.0001004 44.0001004,15.5523852 44.0001004,15.0001004 C44.0001004,14.4478157 43.5523852,14.0001004 43.0001004,14.0001004 Z M40.0001004,19.0001004 L56.0001004,19.0001004 L56.0001004,23.0001004 L40.0001004,23.0001004 L40.0001004,19.0001004 Z M43.0001004,20.0001004 C42.4478157,20.0001004 42.0001004,20.4478157 42.0001004,21.0001004 C42.0001004,21.5523852 42.4478157,22.0001004 43.0001004,22.0001004 C43.5523852,22.0001004 44.0001004,21.5523852 44.0001004,21.0001004 C44.0001004,20.4478157 43.5523852,20.0001004 43.0001004,20.0001004 Z" id="Shape"></path>
                        <path d="M92.0001004,3.00010043 L74.0001004,3.00010043 C72.8951004,3.00010043 72.0001004,3.89510043 72.0001004,5.00010043 L72.0001004,23.0001004 C72.0001004,24.1051004 72.8951004,25.0001004 74.0001004,25.0001004 L92.0001004,25.0001004 C93.1051004,25.0001004 94.0001004,24.1051004 94.0001004,23.0001004 L94.0001004,5.00010043 C94.0001004,3.89510043 93.1051004,3.00010043 92.0001004,3.00010043 Z M90.0001004,8.00010043 L85.7541004,8.00010043 L81.9621004,21.2751004 C81.8491004,21.6711004 81.5031004,21.9581004 81.0931004,21.9961004 C81.0621004,21.9991004 81.0301004,22.0001004 81.0001004,22.0001004 C80.6241004,22.0001004 80.2761004,21.7881004 80.1051004,21.4471004 L77.3821004,16.0001004 L76.0001004,16.0001004 C75.4471004,16.0001004 75.0001004,15.5521004 75.0001004,15.0001004 C75.0001004,14.4481004 75.4471004,14.0001004 76.0001004,14.0001004 L78.0001004,14.0001004 C78.3791004,14.0001004 78.7251004,14.2141004 78.8951004,14.5531004 L80.7461004,18.2541004 L84.0391004,6.72610043 C84.1611004,6.29610043 84.5541004,6.00010043 85.0001004,6.00010043 L90.0001004,6.00010043 C90.5531004,6.00010043 91.0001004,6.44810043 91.0001004,7.00010043 C91.0001004,7.55210043 90.5531004,8.00010043 90.0001004,8.00010043 Z" id="Shape"></path>
                        <path d="M116.014343,4.00020086 C115.653707,3.99510057 115.318262,4.18457616 115.136455,4.49607371 C114.954649,4.80757127 114.954649,5.19283046 115.136455,5.50432801 C115.318262,5.81582557 115.653707,6.00530115 116.014343,6.00020086 L120.014343,6.00020086 C120.374979,6.00530115 120.710424,5.81582557 120.892231,5.50432801 C121.074037,5.19283046 121.074037,4.80757127 120.892231,4.49607371 C120.710424,4.18457616 120.374979,3.99510057 120.014343,4.00020086 L116.014343,4.00020086 Z M118.014343,8.00020086 C112.311343,8.00020086 107.62203,12.3396849 107.06903,17.8966849 C107.01003,18.4866849 107.477984,19.0002009 108.070984,19.0002009 L127.957702,19.0002009 C128.549702,19.0002009 129.018655,18.4866849 128.959655,17.8966849 C128.406655,12.3396849 123.717343,8.00020086 118.014343,8.00020086 Z M110.014343,21.0002009 C109.462343,21.0002009 109.014343,21.4482009 109.014343,22.0002009 L109.014343,23.0002009 L107.014343,23.0002009 C106.653707,22.9951006 106.318262,23.1845762 106.136455,23.4960737 C105.954649,23.8075713 105.954649,24.1928305 106.136455,24.504328 C106.318262,24.8158256 106.653707,25.0053012 107.014343,25.0002009 L129.014343,25.0002009 C129.374979,25.0053012 129.710424,24.8158256 129.892231,24.504328 C130.074037,24.1928305 130.074037,23.8075713 129.892231,23.4960737 C129.710424,23.1845762 129.374979,22.9951006 129.014343,23.0002009 L127.014343,23.0002009 L127.014343,22.0002009 C127.014343,21.4482009 126.566343,21.0002009 126.014343,21.0002009 L110.014343,21.0002009 Z" id="Shape"></path>
                        <path d="M146.000193,2.00010043 C144.343338,2.00010043 143.000193,3.34324618 143.000193,5.00010043 C143.000193,6.65695468 144.343338,8.00010043 146.000193,8.00010043 C147.657047,8.00010043 149.000193,6.65695468 149.000193,5.00010043 C149.000193,3.34324618 147.657047,2.00010043 146.000193,2.00010043 Z M158.000193,2.00010043 C156.343338,2.00010043 155.000193,3.34324618 155.000193,5.00010043 C155.000193,6.65695468 156.343338,8.00010043 158.000193,8.00010043 C159.657047,8.00010043 161.000193,6.65695468 161.000193,5.00010043 C161.000193,3.34324618 159.657047,2.00010043 158.000193,2.00010043 Z M161.002146,6.00205353 C161.002146,6.00205353 160.925146,7.42114733 161.752146,8.24814733 C162.579146,9.07514733 163.99824,8.99814733 163.99824,8.99814733 C163.99824,8.99814733 164.07524,7.57905353 163.24824,6.75205353 C162.42124,5.92505353 161.002146,6.00205353 161.002146,6.00205353 Z M145.000193,10.0001004 C143.355223,10.0001004 142.000193,11.3551304 142.000193,13.0001004 L142.000193,19.0001004 C141.996561,19.2676698 142.10031,19.5255344 142.288238,19.7160323 C142.476167,19.9065301 142.732599,20.0137703 143.000193,20.0137724 L143.000193,25.9668974 C143.000193,26.5368974 143.463396,27.0001004 144.033396,27.0001004 C144.577396,27.0001004 145.028646,26.5782564 145.064646,26.0352564 L145.502146,19.4649444 C145.520146,19.2039444 145.737193,19.0001004 146.000193,19.0001004 C146.263193,19.0001004 146.48024,19.2048974 146.49824,19.4668974 L146.93574,26.0352564 C146.97174,26.5772564 147.42299,27.0001004 147.96699,27.0001004 C148.53699,27.0001004 149.000193,26.5368974 149.000193,25.9668974 L149.000193,20.0137724 C149.267787,20.0137703 149.524219,19.9065301 149.712147,19.7160323 C149.900076,19.5255344 150.003824,19.2676698 150.000193,19.0001004 L150.000193,13.0001004 C150.000193,11.3551304 148.645163,10.0001004 147.000193,10.0001004 L145.000193,10.0001004 Z M157.99824,10.0001004 C156.367944,10.0001004 154.943529,11.1411074 154.590037,12.7325224 L154.59199,12.7325224 L153.023631,19.7833034 C152.957998,20.0794288 153.030266,20.3893398 153.220114,20.6258897 C153.409961,20.8624396 153.696881,21.0000778 154.000193,21.0001004 C154.003448,21.0001163 154.006703,21.0001163 154.009959,21.0001004 L155.000193,21.0001004 L155.000193,25.9668974 C155.000193,26.5368974 155.463396,27.0001004 156.033396,27.0001004 C156.577396,27.0001004 157.028646,26.5772564 157.064646,26.0352564 L157.400584,21.0001004 L158.599802,21.0001004 L158.93574,26.0352564 C158.97174,26.5782564 159.42299,27.0001004 159.96699,27.0001004 C160.53699,27.0001004 161.000193,26.5368974 161.000193,25.9668974 L161.000193,21.0001004 L161.947459,21.0001004 L162.000193,21.0001004 C162.303504,21.0000778 162.590424,20.8624396 162.780272,20.6258897 C162.970119,20.3893398 163.042387,20.0794288 162.976755,19.7833034 L161.408396,12.7325224 L161.410349,12.7325224 C161.05689,11.1416514 159.634395,10.0001004 158.004099,10.0001004 L157.99824,10.0001004 Z" id="Shape"></path>
                    </g>
                </g>
            </g>
        </g>
    </g>
</svg>