<svg width="164" height="56" viewBox="0 0 164 56" fill="none" xmlns="http://www.w3.org/2000/svg">
<path opacity="0.448382" d="M56.5786 12L52.0815 4.05322C52.1694 4.82471 52.2134 5.44482 52.2134 5.91357V12H50.2944V1.68018H52.7627L57.3257 9.69287C57.2378 8.95557 57.1938 8.28418 57.1938 7.67871V1.68018H59.1128V12H56.5786ZM68.7075 8.03027C68.7075 9.31445 68.3511 10.3228 67.6382 11.0552C66.9253 11.7827 65.939 12.1465 64.6792 12.1465C63.4438 12.1465 62.4746 11.7803 61.7715 11.0479C61.0684 10.3154 60.7168 9.30957 60.7168 8.03027C60.7168 6.75586 61.0684 5.75488 61.7715 5.02734C62.4746 4.29492 63.4585 3.92871 64.7231 3.92871C66.0171 3.92871 67.0034 4.28271 67.6821 4.99072C68.3657 5.69385 68.7075 6.70703 68.7075 8.03027ZM66.5542 8.03027C66.5542 7.08789 66.4004 6.4043 66.0928 5.97949C65.7852 5.55469 65.3384 5.34229 64.7524 5.34229C63.5024 5.34229 62.8774 6.23828 62.8774 8.03027C62.8774 8.91406 63.0288 9.58789 63.3315 10.0518C63.6392 10.5107 64.0811 10.7402 64.6572 10.7402C65.9219 10.7402 66.5542 9.83691 66.5542 8.03027ZM74.5229 12V5.93555C74.5229 5.50098 74.5156 5.13965 74.501 4.85156C74.4912 4.55859 74.479 4.2998 74.4644 4.0752H76.4272C76.4419 4.16309 76.4614 4.43164 76.4858 4.88086C76.5103 5.3252 76.5225 5.62061 76.5225 5.76709H76.5518C76.752 5.21045 76.9302 4.81982 77.0864 4.59521C77.2427 4.36572 77.4282 4.19727 77.6431 4.08984C77.8579 3.97754 78.1265 3.92139 78.4487 3.92139C78.7124 3.92139 78.9248 3.95801 79.0859 4.03125V5.75244C78.7539 5.6792 78.4609 5.64258 78.207 5.64258C77.6943 5.64258 77.2939 5.8501 77.0059 6.26514C76.7227 6.68018 76.5811 7.29541 76.5811 8.11084V12H74.5229ZM83.6123 12.1465C82.4209 12.1465 81.5054 11.7949 80.8657 11.0918C80.2261 10.3838 79.9062 9.35352 79.9062 8.00098C79.9062 6.69238 80.231 5.68652 80.8804 4.9834C81.5298 4.28027 82.4502 3.92871 83.6416 3.92871C84.7793 3.92871 85.6484 4.30713 86.249 5.06396C86.8496 5.81592 87.1499 6.91943 87.1499 8.37451V8.43311H82.0669C82.0669 9.20459 82.2085 9.78809 82.4917 10.1836C82.7798 10.5742 83.1875 10.7695 83.7148 10.7695C84.4424 10.7695 84.9014 10.4546 85.0918 9.82471L87.0327 9.99316C86.4712 11.4287 85.3311 12.1465 83.6123 12.1465ZM83.6123 5.2251C83.1289 5.2251 82.7554 5.39355 82.4917 5.73047C82.2329 6.06738 82.0962 6.53857 82.0815 7.14404H85.1577C85.1187 6.50439 84.9648 6.02588 84.6963 5.7085C84.4277 5.38623 84.0664 5.2251 83.6123 5.2251ZM95.397 9.68555C95.397 10.4521 95.082 11.0552 94.4521 11.4946C93.8271 11.9292 92.9604 12.1465 91.8521 12.1465C90.7632 12.1465 89.9282 11.9756 89.3472 11.6338C88.771 11.2871 88.3877 10.75 88.1973 10.0225L90.0063 9.75146C90.1089 10.1274 90.2847 10.3936 90.5337 10.5498C90.7876 10.7061 91.2271 10.7842 91.8521 10.7842C92.4282 10.7842 92.8481 10.7109 93.1118 10.5645C93.3755 10.418 93.5073 10.1885 93.5073 9.87598C93.5073 9.62207 93.3999 9.42188 93.1851 9.27539C92.9751 9.12402 92.6162 8.99707 92.1084 8.89453C90.9463 8.66504 90.1626 8.45264 89.7573 8.25732C89.3521 8.05713 89.042 7.80078 88.8271 7.48828C88.6172 7.1709 88.5122 6.78271 88.5122 6.32373C88.5122 5.56689 88.8027 4.97852 89.3838 4.55859C89.9697 4.13379 90.7974 3.92139 91.8667 3.92139C92.8091 3.92139 93.5659 4.10449 94.1372 4.4707C94.7134 4.83691 95.0723 5.3667 95.2139 6.06006L93.3901 6.25049C93.3315 5.92822 93.1875 5.68896 92.958 5.53271C92.7285 5.37158 92.3647 5.29102 91.8667 5.29102C91.3784 5.29102 91.0122 5.35449 90.7681 5.48145C90.5239 5.60352 90.4019 5.81104 90.4019 6.104C90.4019 6.3335 90.4946 6.5166 90.6802 6.65332C90.8706 6.78516 91.188 6.89502 91.6323 6.98291C92.2524 7.10986 92.8018 7.2417 93.2803 7.37842C93.7637 7.51025 94.1494 7.66895 94.4375 7.85449C94.7305 8.04004 94.9624 8.2793 95.1333 8.57227C95.3091 8.86035 95.397 9.23145 95.397 9.68555ZM99.0078 4.0752V8.521C99.0078 9.9126 99.4766 10.6084 100.414 10.6084C100.912 10.6084 101.312 10.396 101.615 9.97119C101.923 9.5415 102.077 8.99219 102.077 8.32324V4.0752H104.135V10.2275C104.135 10.9014 104.154 11.4922 104.193 12H102.23C102.172 11.2969 102.143 10.772 102.143 10.4253H102.106C101.833 11.0259 101.483 11.4629 101.059 11.7363C100.639 12.0098 100.138 12.1465 99.5571 12.1465C98.7173 12.1465 98.0728 11.8901 97.6235 11.3774C97.1743 10.8599 96.9497 10.103 96.9497 9.10693V4.0752H99.0078ZM106.237 12V1.13086H108.295V12H106.237ZM112.44 12.1318C111.835 12.1318 111.369 11.9683 111.042 11.6411C110.714 11.3091 110.551 10.8086 110.551 10.1396V5.4668H109.547V4.0752H110.653L111.298 2.21484H112.587V4.0752H114.088V5.4668H112.587V9.58301C112.587 9.96875 112.66 10.2544 112.807 10.4399C112.953 10.6206 113.18 10.7109 113.488 10.7109C113.649 10.7109 113.878 10.6768 114.176 10.6084V11.8828C113.668 12.0488 113.09 12.1318 112.44 12.1318ZM122.086 9.68555C122.086 10.4521 121.771 11.0552 121.142 11.4946C120.517 11.9292 119.65 12.1465 118.542 12.1465C117.453 12.1465 116.618 11.9756 116.037 11.6338C115.46 11.2871 115.077 10.75 114.887 10.0225L116.696 9.75146C116.798 10.1274 116.974 10.3936 117.223 10.5498C117.477 10.7061 117.917 10.7842 118.542 10.7842C119.118 10.7842 119.538 10.7109 119.801 10.5645C120.065 10.418 120.197 10.1885 120.197 9.87598C120.197 9.62207 120.089 9.42188 119.875 9.27539C119.665 9.12402 119.306 8.99707 118.798 8.89453C117.636 8.66504 116.852 8.45264 116.447 8.25732C116.042 8.05713 115.731 7.80078 115.517 7.48828C115.307 7.1709 115.202 6.78271 115.202 6.32373C115.202 5.56689 115.492 4.97852 116.073 4.55859C116.659 4.13379 117.487 3.92139 118.556 3.92139C119.499 3.92139 120.255 4.10449 120.827 4.4707C121.403 4.83691 121.762 5.3667 121.903 6.06006L120.08 6.25049C120.021 5.92822 119.877 5.68896 119.647 5.53271C119.418 5.37158 119.054 5.29102 118.556 5.29102C118.068 5.29102 117.702 5.35449 117.458 5.48145C117.213 5.60352 117.091 5.81104 117.091 6.104C117.091 6.3335 117.184 6.5166 117.37 6.65332C117.56 6.78516 117.877 6.89502 118.322 6.98291C118.942 7.10986 119.491 7.2417 119.97 7.37842C120.453 7.51025 120.839 7.66895 121.127 7.85449C121.42 8.04004 121.652 8.2793 121.823 8.57227C121.999 8.86035 122.086 9.23145 122.086 9.68555Z" fill="#7F879D"/>
<path opacity="0.453427" fill-rule="evenodd" clip-rule="evenodd" d="M17.0002 33.5C17.0002 31.015 19.0152 29 21.5002 29C23.9852 29 26.0002 31.015 26.0002 33.5C26.0002 35.985 23.9852 38 21.5002 38C19.0152 38 17.0002 35.985 17.0002 33.5ZM22.3069 31.5C22.3069 31.054 21.9462 30.6934 21.5002 30.6934C21.0542 30.6934 20.6936 31.054 20.6936 31.5C20.6936 31.946 21.0542 32.3066 21.5002 32.3066C21.9462 32.3066 22.3069 31.946 22.3069 31.5ZM22.0002 33V36H21.0002V33H22.0002ZM0.000222502 36C-0.00733016 35.4485 0.433081 34.9949 0.984598 34.9863C1.25489 34.9821 1.51538 35.0875 1.70671 35.2784C1.89805 35.4694 2.00392 35.7297 2.00022 36V47H24.8401C24.8878 46.9919 24.9362 46.9874 24.9846 46.9863C25.2549 46.9821 25.5154 47.0875 25.7067 47.2784C25.898 47.4694 26.0039 47.7297 26.0002 48V53C26.0053 53.3606 25.8158 53.6961 25.5043 53.8779C25.1929 54.0597 24.8076 54.0597 24.4961 53.8779C24.1846 53.6961 23.9951 53.3606 24.0002 53V52H2.00022V53C2.00532 53.3606 1.81585 53.6961 1.50435 53.8779C1.19285 54.0597 0.807593 54.0597 0.496095 53.8779C0.184598 53.6961 -0.00487779 53.3606 0.000222502 53V36ZM6.50022 40C5.11951 40 4.00022 41.1193 4.00022 42.5C4.00022 43.8807 5.11951 45 6.50022 45C7.88093 45 9.00022 43.8807 9.00022 42.5C9.00022 41.1193 7.88093 40 6.50022 40ZM25.0002 45H11.0002V40H22.0002C23.6572 40 25.0002 41.343 25.0002 43V45Z" fill="#7F879D"/>
<path opacity="0.453427" fill-rule="evenodd" clip-rule="evenodd" d="M48.0001 30C47.7486 30.0008 47.5066 30.0963 47.3224 30.2676C47.3151 30.2733 47.308 30.2792 47.3009 30.2852L36.3927 39.207C36.3801 39.2165 36.3677 39.2263 36.3556 39.2363L36.3185 39.2676V39.2695C36.1157 39.4584 36.0005 39.7229 36.0001 40C36.0001 40.5523 36.4478 41 37.0001 41H38.0001V52C38.0001 53.105 38.8951 54 40.0001 54H56.0001C57.1051 54 58.0001 53.105 58.0001 52V41H59.0001C59.5524 41 60.0001 40.5523 60.0001 40C59.9998 39.7229 59.8845 39.4584 59.6818 39.2695V39.2676L59.6661 39.2559C59.6442 39.236 59.6214 39.2171 59.5978 39.1992L58.0001 37.8926V34C58.0001 33.448 57.5521 33 57.0001 33H56.0001C55.4481 33 55.0001 33.448 55.0001 34V35.4395L48.6915 30.2793L48.6779 30.2676C48.4936 30.0963 48.2516 30.0008 48.0001 30ZM40.0001 42H56.0001V46H40.0001V42ZM42.0001 44C42.0001 43.4477 42.4478 43 43.0001 43C43.5524 43 44.0001 43.4477 44.0001 44C44.0001 44.5523 43.5524 45 43.0001 45C42.4478 45 42.0001 44.5523 42.0001 44ZM40.0001 48H56.0001V52H40.0001V48ZM42.0001 50C42.0001 49.4477 42.4478 49 43.0001 49C43.5524 49 44.0001 49.4477 44.0001 50C44.0001 50.5523 43.5524 51 43.0001 51C42.4478 51 42.0001 50.5523 42.0001 50Z" fill="#7F879D"/>
<path opacity="0.453427" fill-rule="evenodd" clip-rule="evenodd" d="M74.0001 32H92.0001C93.1051 32 94.0001 32.895 94.0001 34V52C94.0001 53.105 93.1051 54 92.0001 54H74.0001C72.8951 54 72.0001 53.105 72.0001 52V34C72.0001 32.895 72.8951 32 74.0001 32ZM85.7541 37H90.0001C90.5531 37 91.0001 36.552 91.0001 36C91.0001 35.448 90.5531 35 90.0001 35H85.0001C84.5541 35 84.1611 35.296 84.0391 35.726L80.7461 47.254L78.8951 43.553C78.7251 43.214 78.3791 43 78.0001 43H76.0001C75.4471 43 75.0001 43.448 75.0001 44C75.0001 44.552 75.4471 45 76.0001 45H77.3821L80.1051 50.447C80.2761 50.788 80.6241 51 81.0001 51C81.0301 51 81.0621 50.999 81.0931 50.996C81.5031 50.958 81.8491 50.671 81.9621 50.275L85.7541 37Z" fill="#7F879D"/>
<path opacity="0.453427" fill-rule="evenodd" clip-rule="evenodd" d="M116.014 33.0001C115.654 32.995 115.318 33.1845 115.136 33.496C114.955 33.8075 114.955 34.1927 115.136 34.5042C115.318 34.8157 115.654 35.0052 116.014 35.0001H120.014C120.375 35.0052 120.71 34.8157 120.892 34.5042C121.074 34.1927 121.074 33.8075 120.892 33.496C120.71 33.1845 120.375 32.995 120.014 33.0001H116.014ZM118.014 37.0001C112.311 37.0001 107.622 41.3396 107.069 46.8966C107.01 47.4866 107.478 48.0001 108.071 48.0001H127.958C128.55 48.0001 129.019 47.4866 128.96 46.8966C128.407 41.3396 123.717 37.0001 118.014 37.0001ZM109.014 51.0001C109.014 50.4481 109.462 50.0001 110.014 50.0001H126.014C126.566 50.0001 127.014 50.4481 127.014 51.0001V52.0001H129.014C129.375 51.995 129.71 52.1845 129.892 52.496C130.074 52.8075 130.074 53.1927 129.892 53.5042C129.71 53.8157 129.375 54.0052 129.014 54.0001H107.014C106.654 54.0052 106.318 53.8157 106.136 53.5042C105.955 53.1927 105.955 52.8075 106.136 52.496C106.318 52.1845 106.654 51.995 107.014 52.0001H109.014V51.0001Z" fill="#7F879D"/>
<path opacity="0.453427" fill-rule="evenodd" clip-rule="evenodd" d="M146 31C144.343 31 143 32.3431 143 34C143 35.6569 144.343 37 146 37C147.657 37 149 35.6569 149 34C149 32.3431 147.657 31 146 31ZM158 31C156.343 31 155 32.3431 155 34C155 35.6569 156.343 37 158 37C159.657 37 161 35.6569 161 34C161 32.3431 159.657 31 158 31ZM161.752 37.248C160.925 36.421 161.002 35.002 161.002 35.002C161.002 35.002 162.421 34.925 163.248 35.752C164.075 36.579 163.998 37.998 163.998 37.998C163.998 37.998 162.579 38.075 161.752 37.248ZM145 39C143.355 39 142 40.355 142 42V48C141.997 48.2676 142.1 48.5254 142.288 48.7159C142.476 48.9064 142.733 49.0137 143 49.0137V54.9668C143 55.5368 143.463 56 144.033 56C144.577 56 145.029 55.5782 145.065 55.0352L145.502 48.4648C145.52 48.2038 145.737 48 146 48C146.263 48 146.48 48.2048 146.498 48.4668L146.936 55.0352C146.972 55.5772 147.423 56 147.967 56C148.537 56 149 55.5368 149 54.9668V49.0137C149.268 49.0137 149.524 48.9064 149.712 48.7159C149.9 48.5254 150.004 48.2676 150 48V42C150 40.355 148.645 39 147 39H145ZM154.59 41.7324C154.944 40.141 156.368 39 157.998 39H158.004C159.634 39 161.057 40.1416 161.41 41.7324H161.408L162.977 48.7832C163.042 49.0793 162.97 49.3892 162.78 49.6258C162.59 49.8623 162.304 50 162 50H161.947H161V54.9668C161 55.5368 160.537 56 159.967 56C159.423 56 158.972 55.5782 158.936 55.0352L158.6 50H157.401L157.065 55.0352C157.029 55.5772 156.577 56 156.033 56C155.463 56 155 55.5368 155 54.9668V50H154.01H154C153.697 50 153.41 49.8623 153.22 49.6258C153.03 49.3892 152.958 49.0793 153.024 48.7832L154.592 41.7324H154.59Z" fill="#7F879D"/>
</svg>
