<?xml version="1.0" encoding="UTF-8"?>
<svg width="281px" height="211px" viewBox="0 0 281 211" version="1.1" xmlns="http://www.w3.org/2000/svg" xmlns:xlink="http://www.w3.org/1999/xlink">
    <!-- Generator: Sketch 53.2 (72643) - https://sketchapp.com -->
    <title>undraw_coolness_dtmq</title>
    <desc>Created with Sketch.</desc>
    <g id="Web---1.3" stroke="none" stroke-width="1" fill="none" fill-rule="evenodd">
        <g id="No-Access" transform="translate(-589.000000, -133.000000)">
            <g id="undraw_coolness_dtmq" transform="translate(589.000000, 134.000000)">
                <path d="M145.166606,4 L69.1753224,45.4711392 C72.7132149,51.6078774 72.6581229,59.1977152 69.0315246,65.2816627 C65.4049263,71.3656103 58.7809181,74.9805689 51.7419493,74.7172035 C44.7029806,74.453838 38.3633315,70.3538396 35.1945905,64.0156421 L9.2837274,78.1561195 L76.4008663,203 L212.283727,128.843898 L145.166606,4 Z" id="Path" fill="#ECF1FF" fill-rule="nonzero"></path>
                <polygon id="Rectangle" fill="#00B476" fill-rule="nonzero" opacity="0.2" transform="translate(58.692562, 117.995317) rotate(14.956540) translate(-58.692562, -117.995317) " points="51.4411989 110.724093 65.9324992 110.73552 65.9439259 125.266542 51.4526256 125.255115"></polygon>
                <path d="M87.7319268,169.103681 C76.6208017,186.224508 79.6652593,208 79.6652593,208 C79.6652593,208 100.724407,202.017145 111.835529,184.896319 C122.946651,167.775492 119.902196,146 119.902196,146 C119.902196,146 98.8430489,151.982858 87.7319268,169.103681 Z" id="Path" fill="#3F3D56" fill-rule="nonzero"></path>
                <path d="M78.2806298,208 C78.2806298,208 78.0103203,207.956612 77.5128214,207.855374 C77.1159841,207.774383 76.5696139,207.658683 75.9024671,207.499594 C69.9384046,206.085152 54.0821654,201.303816 43.7155091,188.732924 C30.7406539,172.99183 31.2870241,151 31.2870241,151 C31.2870241,151 51.1260292,154.242515 64.1986416,168.37826 C64.7651527,168.98569 65.3163157,169.615295 65.8521304,170.267076 C77.1418648,183.963158 78.1943464,202.391421 78.2777398,206.94714 C78.2892452,207.629769 78.2806298,208 78.2806298,208 Z" id="Path" fill="#00B476" fill-rule="nonzero"></path>
                <path d="M70.8355283,169.103681 C81.946653,186.224508 78.9021955,208 78.9021955,208 C78.9021955,208 57.843049,202.017145 46.7319244,184.896319 C35.6207998,167.775492 38.6652601,146 38.6652601,146 C38.6652601,146 59.7244066,151.982858 70.8355283,169.103681 Z" id="Path" stroke="#3F3D56" stroke-width="2"></path>
                <path d="M79.2837274,207.237365 C78.9764495,207.599311 78.705322,207.90829 78.4823949,208.161344 C77.9883553,208.71162 77.7081751,209 77.7081751,209 C77.7081751,209 77.3677775,208.582143 76.7953791,207.799397 C73.6533122,203.520778 63.5462801,188.307256 64.3265249,170.733726 C64.3687003,169.812675 64.4379884,168.901433 64.5343893,168 C65.1278694,168.617957 65.7052707,169.258475 66.266593,169.921553 C78.0937727,183.855029 79.196352,202.602685 79.2837274,207.237365 Z" id="Path" fill="#000000" fill-rule="nonzero" opacity="0.1"></path>
                <path d="M95.2428898,172.624583 C94.3594556,193.059122 79.1841238,209 79.1841238,209 C79.1841238,209 65.4411279,191.809953 66.324565,171.375417 C67.2080021,150.940881 82.3833223,135 82.3833223,135 C82.3833223,135 96.1263269,152.190047 95.2428898,172.624583 Z" id="Path" fill="#00B476" fill-rule="nonzero"></path>
                <circle id="Oval" fill="#FF6584" fill-rule="nonzero" cx="10.2837274" cy="178" r="2"></circle>
                <path d="M48.2837274,208 L127.283727,208" id="Path" stroke="#3F3D56" stroke-width="2"></path>
                <path d="M0.283727399,208 L38.2837274,208" id="Path" stroke="#3F3D56" stroke-width="2"></path>
                <path d="M19.2837274,209 L19.2837274,188" id="Path" stroke="#3F3D56" stroke-width="2" fill="#3F3D56" fill-rule="nonzero"></path>
                <circle id="Oval" fill="#3F3D56" fill-rule="nonzero" cx="19.2837274" cy="187" r="3"></circle>
                <path d="M20.2837274,200 C20.2837274,200 19.8186111,191.043086 10.2837274,192.084206" id="Path" fill="#3F3D56" fill-rule="nonzero"></path>
                <circle id="Oval" fill="#3F3D56" fill-rule="nonzero" cx="81.2837274" cy="124" r="6"></circle>
                <circle id="Oval" stroke="#3F3D56" stroke-width="2" cx="62.7837274" cy="123.5" r="4.5"></circle>
                <circle id="Oval" stroke="#3F3D56" stroke-width="2" cx="99.7837274" cy="123.5" r="4.5"></circle>
                <path d="M79.2837274,208 L83.2837274,135" id="Path" stroke="#3F3D56" stroke-width="2"></path>
                <circle id="Oval" fill="#3F3D56" fill-rule="nonzero" cx="265.283727" cy="79" r="6"></circle>
                <circle id="Oval" stroke="#3F3D56" stroke-width="2" cx="144.783727" cy="4.5" r="4.5"></circle>
                <circle id="Oval" stroke="#3F3D56" stroke-width="2" cx="95.7837274" cy="31.5" r="4.5"></circle>
                <circle id="Oval" fill="#E32C66" fill-rule="nonzero" cx="190.783727" cy="37.5" r="13.5"></circle>
                <polygon id="Path" fill="#FBBEBE" fill-rule="nonzero" points="222.283727 159.594447 229.783874 190 237.283727 188.783636 229.783874 154"></polygon>
                <path d="M232.119818,187.457347 C232.119818,187.457347 227.870376,188.882297 228.430538,189.840967 C228.990701,190.799636 228.990698,196.768018 227.065086,198.916634 C225.139474,201.065249 220.325447,207.749836 225.861581,207.988572 C231.397714,208.227308 236.933836,204.64628 236.933836,204.64628 L236.933836,198.439165 L237.896645,204.168808 L238.859454,204.168808 L238.859454,197.722959 C238.859454,197.722959 241.266476,193.664462 239.822263,191.277108 C238.378049,188.889754 237.436674,186.809254 235.620701,187.013932 C233.804728,187.218611 232.119818,187.457347 232.119818,187.457347 Z" id="Path" fill="#2F2E41" fill-rule="nonzero"></path>
                <polygon id="Path" fill="#FBBEBE" fill-rule="nonzero" points="193.426703 185 192.283727 192 200.283727 192 200.283727 185"></polygon>
                <path d="M194.637624,190.003907 C194.637624,190.003907 192.251734,189.753878 191.535978,193.254269 C190.820223,196.754659 184.37833,204.184157 181.992449,204.93424 C179.606567,205.684323 179.606558,208.184605 182.708213,208.684659 C185.809867,209.184714 193.683271,209.434743 195.591977,206.684429 C197.500684,203.934116 200.125154,199.50496 200.125154,199.50496 L198.932227,208.934679 L201.079522,208.934679 C201.079522,208.934679 202.988234,199.754986 204.896932,197.504736 C206.80563,195.254487 201.079516,190.003907 200.125163,190.003907 L194.637624,190.003907 Z" id="Path" fill="#2F2E41" fill-rule="nonzero"></path>
                <path d="M182.848487,87 C182.848487,87 181.180088,91.4517634 178.319982,92.1546729 C175.459877,92.8575823 154.24741,97.7779453 154.24741,97.7779453 C154.24741,97.7779453 135.65671,98.2465535 141.376924,102.229709 C147.097138,106.212864 156.39249,102.229709 156.39249,102.229709 C156.39249,102.229709 183.563513,98.9494516 185.708592,95.434913 C187.12069,93.0430784 188.316972,90.5342562 189.283727,87.937205 L182.848487,87 Z" id="Path" fill="#FBBEBE" fill-rule="nonzero"></path>
                <path d="M190.871165,67 C190.871165,67 177.81702,89.4578417 179.42016,89.9408048 C181.023301,90.4237678 195.909608,95.4948959 196.596668,93.5630379 C197.283727,91.6311798 197.283727,82.6963415 197.283727,82.6963415 L190.871165,67 Z" id="Path" fill="#2F2E41" fill-rule="nonzero"></path>
                <path d="M190.871165,67 C190.871165,67 177.81702,89.4578417 179.42016,89.9408048 C181.023301,90.4237678 195.909608,95.4948959 196.596668,93.5630379 C197.283727,91.6311798 197.283727,82.6963415 197.283727,82.6963415 L190.871165,67 Z" id="Path" fill="#000000" fill-rule="nonzero" opacity="0.1"></path>
                <path d="M226.261438,62 L257.10643,77.8017556 C257.10643,77.8017556 274.561347,82.3507472 270.735611,85.9420562 C266.909874,89.5333652 254.476237,82.8295899 254.476237,82.8295899 L220.283727,67.2672528 L226.261438,62 Z" id="Path" fill="#FBBEBE" fill-rule="nonzero"></path>
                <path d="M187.283727,49.5808661 C187.283727,49.5808661 193.406169,58.5700219 192.916372,60.6990307 C192.916372,60.6990307 193.406169,62.1183756 192.671477,63.0646056 C191.936784,64.0108355 192.18168,69.6881952 192.18168,69.6881952 L194.630665,73 L197.814336,62.8280625 L199.283727,51.9464524 C199.283727,51.9464524 195.977609,47.5701533 196.467404,45.4411445 C196.957198,43.3121357 187.283727,49.5808661 187.283727,49.5808661 Z" id="Path" fill="#FBBEBE" fill-rule="nonzero"></path>
                <path d="M206.203447,102 C206.203447,102 192.899773,137.711264 192.899773,153.424221 C192.899773,169.137179 187.910896,186.992811 191.711947,188.659339 C195.512997,190.325868 214.755808,190.563947 215.230941,188.659339 C215.706074,186.754732 212.855277,109.38033 211.429879,106.285366 C210.00448,103.190403 206.203447,102 206.203447,102 Z" id="Path" fill="#2F2E41" fill-rule="nonzero"></path>
                <path d="M206.203447,102 C206.203447,102 192.899773,137.711264 192.899773,153.424221 C192.899773,169.137179 187.910896,186.992811 191.711947,188.659339 C195.512997,190.325868 214.755808,190.563947 215.230941,188.659339 C215.706074,186.754732 212.855277,109.38033 211.429879,106.285366 C210.00448,103.190403 206.203447,102 206.203447,102 Z" id="Path" fill="#000000" fill-rule="nonzero" opacity="0.1"></path>
                <circle id="Oval" fill="#FBBEBE" fill-rule="nonzero" cx="190.283727" cy="42" r="9"></circle>
                <path d="M193.032762,68.8063614 L192.393751,63.421016 C192.393751,63.421016 190.407881,66.1814199 190.407881,68.3290977 C190.407881,70.4767756 189.214756,78.1129712 194.225903,82.8855906 C199.23705,87.6582099 200.191541,88.6127373 200.430167,89.5672617 C200.668793,90.5217862 201.861925,90.5217891 201.861925,90.5217891 L208.782066,118.441618 C208.782066,118.441618 210.929694,192.655874 214.270454,193.610398 C217.611214,194.564923 227.872109,193.610398 228.587985,192.417242 C229.303861,191.224086 227.394856,159.486158 227.394856,159.486158 C227.394856,159.486158 232.644618,187.64462 234.553623,187.64462 C236.462628,187.64462 237.655742,183.587878 237.178489,183.349258 C236.701237,183.110638 233.837721,164.736039 232.644603,159.008895 C231.451486,153.281751 231.928736,104.839662 231.928736,104.839662 C231.928736,104.839662 235.746757,98.6352542 222.622341,86.465071 C222.622341,86.465071 214.270448,62.1247047 213.793196,62.1247047 C213.315943,62.1247047 204.009548,49 204.009548,49 C204.009548,49 198.759789,49 197.805286,52.1022023 C196.850784,55.2044046 193.032762,68.8063614 193.032762,68.8063614 Z" id="Path" fill="#2F2E41" fill-rule="nonzero"></path>
                <path d="M201.283727,50.9348366 L204.13888,49 C204.13888,49 216.03531,56.2556108 224.362809,56.7393199 C232.690308,57.2230291 232.452382,62.0601029 229.121382,65.4460552 C225.790383,68.8320075 212.704311,80.4409888 212.228452,77.5387427 C211.752593,74.6364967 201.283727,50.9348366 201.283727,50.9348366 Z" id="Path" fill="#2F2E41" fill-rule="nonzero"></path>
                <ellipse id="Oval" fill="#E32C66" fill-rule="nonzero" cx="189.783727" cy="33" rx="9.5" ry="6"></ellipse>
                <ellipse id="Oval" fill="#E32C66" fill-rule="nonzero" cx="191.783727" cy="24" rx="5.5" ry="6"></ellipse>
                <path d="M183.604482,20.0000015 C183.604678,16.9282885 186.055832,14.3526988 189.283727,14.0324409 C189.064338,14.0108821 188.84392,14.0000541 188.623351,14 C185.122074,14 182.283727,16.6862915 182.283727,20 C182.283727,23.3137085 185.122074,26 188.623351,26 C188.84392,25.9999474 189.064338,25.9891194 189.283727,25.9675591 C186.055833,25.6473014 183.60468,23.0717133 183.604482,20.0000015 L183.604482,20.0000015 Z" id="Path" fill="#E32C66" fill-rule="nonzero"></path>
                <circle id="Oval" fill="#00B476" fill-rule="nonzero" cx="51.2837274" cy="54" r="16"></circle>
                <path d="M144.283727,208 L258.283727,208" id="Path" stroke="#3F3D56" stroke-width="2"></path>
                <path d="M256.401628,46.6013089 C255.185316,46.6028157 254.091078,47.3411679 253.633939,48.4688449 C253.1768,49.596522 253.447836,50.8888588 254.319478,51.7375909 L262.671443,60.0935446 L254.319478,68.449499 C253.538286,69.1998902 253.223605,70.3141754 253.496796,71.3626148 C253.769987,72.4110542 254.588361,73.2298184 255.6363,73.5031394 C256.684239,73.7764604 257.797992,73.461629 258.548025,72.6800643 L266.899991,64.3241113 L275.251957,72.6800643 C276.001988,73.4616398 277.115746,73.7764795 278.163692,73.5031598 C279.211638,73.2298401 280.030017,72.4110705 280.303206,71.3626243 C280.576395,70.314178 280.261706,69.1998875 279.480503,68.449499 L271.128538,60.0935446 L279.480503,51.7375909 C280.364932,50.8774794 280.630859,49.5623681 280.150147,48.4259492 C279.669435,47.2895304 278.540699,46.5649335 277.307826,46.6013089 C276.530936,46.6244686 275.793575,46.9493138 275.251957,47.5070241 L266.899991,55.8629778 L258.548025,47.5070241 C257.984321,46.9272891 257.210042,46.6005665 256.401628,46.6013089 Z" id="Path" fill="#F399B6" fill-rule="nonzero"></path>
                <path d="M256.001628,46.0013089 C254.785316,46.0028157 253.691078,46.7411679 253.233939,47.8688449 C252.7768,48.996522 253.047836,50.2888588 253.919478,51.1375909 L262.271443,59.4935446 L253.919478,67.849499 C253.138286,68.5998902 252.823605,69.7141754 253.096796,70.7626148 C253.369987,71.8110542 254.188361,72.6298184 255.2363,72.9031394 C256.284239,73.1764604 257.397992,72.861629 258.148025,72.0800643 L266.499991,63.7241113 L274.851957,72.0800643 C275.601988,72.8616398 276.715746,73.1764795 277.763692,72.9031598 C278.811638,72.6298401 279.630017,71.8110705 279.903206,70.7626243 C280.176395,69.714178 279.861706,68.5998875 279.080503,67.849499 L270.728538,59.4935446 L279.080503,51.1375909 C279.964932,50.2774794 280.230859,48.9623681 279.750147,47.8259492 C279.269435,46.6895304 278.140699,45.9649335 276.907826,46.0013089 C276.130936,46.0244686 275.393575,46.3493138 274.851957,46.9070241 L266.499991,55.2629778 L258.148025,46.9070241 C257.584321,46.3272891 256.810042,46.0005665 256.001628,46.0013089 Z" id="Path" fill="#E32C66" fill-rule="nonzero"></path>
            </g>
        </g>
    </g>
</svg>