<?xml version="1.0" encoding="UTF-8"?>
<svg width="398px" height="266px" viewBox="0 0 398 266" version="1.1" xmlns="http://www.w3.org/2000/svg" xmlns:xlink="http://www.w3.org/1999/xlink">
    <!-- Generator: Sketch 53.2 (72643) - https://sketchapp.com -->
    <title>No Rooms Pass Config</title>
    <desc>Created with Sketch.</desc>
    <defs>
        <linearGradient x1="50%" y1="100%" x2="50%" y2="0%" id="linearGradient-1">
            <stop stop-color="#808080" stop-opacity="0.25" offset="0%"></stop>
            <stop stop-color="#808080" stop-opacity="0.12" offset="54%"></stop>
            <stop stop-color="#808080" stop-opacity="0.1" offset="100%"></stop>
        </linearGradient>
        <linearGradient x1="50.0139799%" y1="100.014927%" x2="50.0139799%" y2="0.00226217574%" id="linearGradient-2">
            <stop stop-color="#808080" stop-opacity="0.25" offset="0%"></stop>
            <stop stop-color="#808080" stop-opacity="0.12" offset="54%"></stop>
            <stop stop-color="#808080" stop-opacity="0.1" offset="100%"></stop>
        </linearGradient>
    </defs>
    <g id="No-Rooms-Pass-Config" stroke="none" stroke-width="1" fill="none" fill-rule="evenodd">
        <g id="undraw_building_blocks_n0nc" opacity="0.848260789" transform="translate(160.000000, 118.000000) scale(-1, 1) translate(-160.000000, -118.000000) translate(13.000000, 26.000000)">
            <rect id="Rectangle" fill="#12C29E" fill-rule="nonzero" x="45" y="116" width="29" height="11" rx="5.5"></rect>
            <rect id="Rectangle" fill="#6C63FF" fill-rule="nonzero" x="75" y="116" width="29" height="11" rx="5.5"></rect>
            <rect id="Rectangle" fill="#F53D45" fill-rule="nonzero" x="75" y="116" width="29" height="11" rx="5.5"></rect>
            <rect id="Rectangle" fill="#5352E4" fill-rule="nonzero" x="105" y="116" width="29" height="11" rx="5.5"></rect>
            <rect id="Rectangle" fill="#6C63FF" fill-rule="nonzero" x="133" y="116" width="29" height="11" rx="5.5"></rect>
            <rect id="Rectangle" fill="#5352E4" fill-rule="nonzero" x="133" y="116" width="29" height="11" rx="5.5"></rect>
            <rect id="Rectangle" fill="#F53D45" fill-rule="nonzero" x="162" y="116" width="29" height="11" rx="5.5"></rect>
            <rect id="Rectangle" fill="#6C63FF" fill-rule="nonzero" x="192" y="116" width="29" height="11" rx="5.5"></rect>
            <rect id="Rectangle" fill="#04CD33" fill-rule="nonzero" x="192" y="116" width="29" height="11" rx="5.5"></rect>
            <rect id="Rectangle" fill="#5352E4" fill-rule="nonzero" transform="translate(206.500000, 110.500000) rotate(-180.000000) translate(-206.500000, -110.500000) " x="192" y="105" width="29" height="11" rx="5.5"></rect>
            <rect id="Rectangle" fill="#6C63FF" fill-rule="nonzero" transform="translate(176.500000, 110.500000) rotate(-180.000000) translate(-176.500000, -110.500000) " x="162" y="105" width="29" height="11" rx="5.5"></rect>
            <rect id="Rectangle" fill="#5352E4" fill-rule="nonzero" transform="translate(176.500000, 110.500000) rotate(-180.000000) translate(-176.500000, -110.500000) " x="162" y="105" width="29" height="11" rx="5.5"></rect>
            <rect id="Rectangle" fill="#F53D45" fill-rule="nonzero" transform="translate(147.500000, 110.500000) rotate(-180.000000) translate(-147.500000, -110.500000) " x="133" y="105" width="29" height="11" rx="5.5"></rect>
            <rect id="Rectangle" fill="#6C63FF" fill-rule="nonzero" transform="translate(119.500000, 110.500000) rotate(-180.000000) translate(-119.500000, -110.500000) " x="105" y="105" width="29" height="11" rx="5.5"></rect>
            <rect id="Rectangle" fill="#139BE6" fill-rule="nonzero" transform="translate(119.500000, 110.500000) rotate(-180.000000) translate(-119.500000, -110.500000) " x="105" y="105" width="29" height="11" rx="5.5"></rect>
            <rect id="Rectangle" fill="#5352E4" fill-rule="nonzero" transform="translate(89.500000, 110.500000) rotate(-180.000000) translate(-89.500000, -110.500000) " x="75" y="105" width="29" height="11" rx="5.5"></rect>
            <rect id="Rectangle" fill="#6C63FF" fill-rule="nonzero" transform="translate(59.500000, 110.500000) rotate(-180.000000) translate(-59.500000, -110.500000) " x="45" y="105" width="29" height="11" rx="5.5"></rect>
            <rect id="Rectangle" fill="#F53D45" fill-rule="nonzero" transform="translate(59.500000, 110.500000) rotate(-180.000000) translate(-59.500000, -110.500000) " x="45" y="105" width="29" height="11" rx="5.5"></rect>
            <rect id="Rectangle" fill="#12C29E" fill-rule="nonzero" x="45" y="93" width="29" height="11" rx="5.5"></rect>
            <rect id="Rectangle" fill="#6C63FF" fill-rule="nonzero" x="75" y="93" width="29" height="11" rx="5.5"></rect>
            <rect id="Rectangle" fill="#139BE6" fill-rule="nonzero" x="75" y="93" width="29" height="11" rx="5.5"></rect>
            <rect id="Rectangle" fill="#F53D45" fill-rule="nonzero" x="105" y="93" width="29" height="11" rx="5.5"></rect>
            <rect id="Rectangle" fill="#6C63FF" fill-rule="nonzero" x="133" y="93" width="29" height="11" rx="5.5"></rect>
            <rect id="Rectangle" fill="#5352E4" fill-rule="nonzero" x="133" y="93" width="29" height="11" rx="5.5"></rect>
            <rect id="Rectangle" fill="#F53D45" fill-rule="nonzero" x="162" y="93" width="29" height="11" rx="5.5"></rect>
            <rect id="Rectangle" fill="#6C63FF" fill-rule="nonzero" x="192" y="93" width="29" height="11" rx="5.5"></rect>
            <rect id="Rectangle" fill="#139BE6" fill-rule="nonzero" x="192" y="93" width="29" height="11" rx="5.5"></rect>
            <rect id="Rectangle" fill="#F53D45" fill-rule="nonzero" transform="translate(206.500000, 87.500000) rotate(-180.000000) translate(-206.500000, -87.500000) " x="192" y="82" width="29" height="11" rx="5.5"></rect>
            <rect id="Rectangle" fill="#6C63FF" fill-rule="nonzero" transform="translate(176.500000, 87.500000) rotate(-180.000000) translate(-176.500000, -87.500000) " x="162" y="82" width="29" height="11" rx="5.5"></rect>
            <rect id="Rectangle" fill="#5352E4" fill-rule="nonzero" transform="translate(176.500000, 87.500000) rotate(-180.000000) translate(-176.500000, -87.500000) " x="162" y="82" width="29" height="11" rx="5.5"></rect>
            <rect id="Rectangle" fill="#04CD33" fill-rule="nonzero" transform="translate(147.500000, 87.500000) rotate(-180.000000) translate(-147.500000, -87.500000) " x="133" y="82" width="29" height="11" rx="5.5"></rect>
            <rect id="Rectangle" fill="#6C63FF" fill-rule="nonzero" transform="translate(119.500000, 87.500000) rotate(-180.000000) translate(-119.500000, -87.500000) " x="105" y="82" width="29" height="11" rx="5.5"></rect>
            <rect id="Rectangle" fill="#139BE6" fill-rule="nonzero" transform="translate(119.500000, 87.500000) rotate(-180.000000) translate(-119.500000, -87.500000) " x="105" y="82" width="29" height="11" rx="5.5"></rect>
            <rect id="Rectangle" fill="#5352E4" fill-rule="nonzero" transform="translate(89.500000, 87.500000) rotate(-180.000000) translate(-89.500000, -87.500000) " x="75" y="82" width="29" height="11" rx="5.5"></rect>
            <rect id="Rectangle" fill="#6C63FF" fill-rule="nonzero" transform="translate(59.500000, 87.500000) rotate(-180.000000) translate(-59.500000, -87.500000) " x="45" y="82" width="29" height="11" rx="5.5"></rect>
            <rect id="Rectangle" fill="#5352E4" fill-rule="nonzero" transform="translate(59.500000, 87.500000) rotate(-180.000000) translate(-59.500000, -87.500000) " x="45" y="82" width="29" height="11" rx="5.5"></rect>
            <rect id="Rectangle" fill="#F53D45" fill-rule="nonzero" x="45" y="70" width="29" height="11" rx="5.5"></rect>
            <rect id="Rectangle" fill="#6C63FF" fill-rule="nonzero" x="75" y="70" width="29" height="11" rx="5.5"></rect>
            <rect id="Rectangle" fill="#F53D45" fill-rule="nonzero" x="75" y="70" width="29" height="11" rx="5.5"></rect>
            <rect id="Rectangle" fill="#12C29E" fill-rule="nonzero" x="105" y="70" width="29" height="11" rx="5.5"></rect>
            <rect id="Rectangle" fill="#6C63FF" fill-rule="nonzero" x="133" y="70" width="29" height="11" rx="5.5"></rect>
            <rect id="Rectangle" fill="#5352E4" fill-rule="nonzero" x="133" y="70" width="29" height="11" rx="5.5"></rect>
            <rect id="Rectangle" fill="#07ABC3" fill-rule="nonzero" x="162" y="70" width="29" height="11" rx="5.5"></rect>
            <rect id="Rectangle" fill="#6C63FF" fill-rule="nonzero" x="192" y="70" width="29" height="11" rx="5.5"></rect>
            <rect id="Rectangle" fill="#12C29E" fill-rule="nonzero" x="192" y="70" width="29" height="11" rx="5.5"></rect>
            <rect id="Rectangle" fill="#139BE6" fill-rule="nonzero" transform="translate(206.500000, 63.500000) rotate(-180.000000) translate(-206.500000, -63.500000) " x="192" y="58" width="29" height="11" rx="5.5"></rect>
            <rect id="Rectangle" fill="#6C63FF" fill-rule="nonzero" transform="translate(176.500000, 63.500000) rotate(-180.000000) translate(-176.500000, -63.500000) " x="162" y="58" width="29" height="11" rx="5.5"></rect>
            <rect id="Rectangle" fill="#5352E4" fill-rule="nonzero" transform="translate(176.500000, 63.500000) rotate(-180.000000) translate(-176.500000, -63.500000) " x="162" y="58" width="29" height="11" rx="5.5"></rect>
            <rect id="Rectangle" fill="#F53D45" fill-rule="nonzero" transform="translate(147.500000, 63.500000) rotate(-180.000000) translate(-147.500000, -63.500000) " x="133" y="58" width="29" height="11" rx="5.5"></rect>
            <rect id="Rectangle" fill="#6C63FF" fill-rule="nonzero" transform="translate(119.500000, 63.500000) rotate(-180.000000) translate(-119.500000, -63.500000) " x="105" y="58" width="29" height="11" rx="5.5"></rect>
            <rect id="Rectangle" fill="#07ABC3" fill-rule="nonzero" transform="translate(119.500000, 63.500000) rotate(-180.000000) translate(-119.500000, -63.500000) " x="105" y="58" width="29" height="11" rx="5.5"></rect>
            <rect id="Rectangle" fill="#5352E4" fill-rule="nonzero" transform="translate(89.500000, 63.500000) rotate(-180.000000) translate(-89.500000, -63.500000) " x="75" y="58" width="29" height="11" rx="5.5"></rect>
            <rect id="Rectangle" fill="#6C63FF" fill-rule="nonzero" transform="translate(59.500000, 63.500000) rotate(-180.000000) translate(-59.500000, -63.500000) " x="45" y="58" width="29" height="11" rx="5.5"></rect>
            <rect id="Rectangle" fill="#139BE6" fill-rule="nonzero" transform="translate(59.500000, 63.500000) rotate(-180.000000) translate(-59.500000, -63.500000) " x="45" y="58" width="29" height="11" rx="5.5"></rect>
            <rect id="Rectangle" fill="#F53D45" fill-rule="nonzero" x="45" y="48" width="29" height="11" rx="5.5"></rect>
            <rect id="Rectangle" fill="#6C63FF" fill-rule="nonzero" x="75" y="48" width="29" height="11" rx="5.5"></rect>
            <rect id="Rectangle" fill="#12C29E" fill-rule="nonzero" x="75" y="48" width="29" height="11" rx="5.5"></rect>
            <rect id="Rectangle" fill="#F53D45" fill-rule="nonzero" x="105" y="48" width="29" height="11" rx="5.5"></rect>
            <rect id="Rectangle" fill="#6C63FF" fill-rule="nonzero" x="133" y="48" width="29" height="11" rx="5.5"></rect>
            <rect id="Rectangle" fill="#139BE6" fill-rule="nonzero" x="133" y="48" width="29" height="11" rx="5.5"></rect>
            <rect id="Rectangle" fill="#04CD33" fill-rule="nonzero" x="162" y="48" width="29" height="11" rx="5.5"></rect>
            <rect id="Rectangle" fill="#6C63FF" fill-rule="nonzero" x="192" y="48" width="29" height="11" rx="5.5"></rect>
            <rect id="Rectangle" fill="#F53D45" fill-rule="nonzero" x="192" y="48" width="29" height="11" rx="5.5"></rect>
            <rect id="Rectangle" fill="url(#linearGradient-1)" fill-rule="nonzero" x="190" y="8" width="31" height="12" rx="6"></rect>
            <rect id="Rectangle" fill="#6C63FF" fill-rule="nonzero" transform="translate(205.500000, 14.500000) rotate(-180.000000) translate(-205.500000, -14.500000) " x="191" y="9" width="29" height="11" rx="5.5"></rect>
            <rect id="Rectangle" fill="#6C63FF" fill-rule="nonzero" transform="translate(176.500000, 40.500000) rotate(-180.000000) translate(-176.500000, -40.500000) " x="162" y="35" width="29" height="11" rx="5.5"></rect>
            <rect id="Rectangle" fill="#5352E4" fill-rule="nonzero" transform="translate(176.500000, 40.500000) rotate(-180.000000) translate(-176.500000, -40.500000) " x="162" y="35" width="29" height="11" rx="5.5"></rect>
            <rect id="Rectangle" fill="#04CD33" fill-rule="nonzero" transform="translate(147.500000, 40.500000) rotate(-180.000000) translate(-147.500000, -40.500000) " x="133" y="35" width="29" height="11" rx="5.5"></rect>
            <rect id="Rectangle" fill="#6C63FF" fill-rule="nonzero" transform="translate(119.500000, 40.500000) rotate(-180.000000) translate(-119.500000, -40.500000) " x="105" y="35" width="29" height="11" rx="5.5"></rect>
            <rect id="Rectangle" fill="#139BE6" fill-rule="nonzero" transform="translate(119.500000, 40.500000) rotate(-180.000000) translate(-119.500000, -40.500000) " x="105" y="35" width="29" height="11" rx="5.5"></rect>
            <rect id="Rectangle" fill="#F53D45" fill-rule="nonzero" transform="translate(89.500000, 40.500000) rotate(-180.000000) translate(-89.500000, -40.500000) " x="75" y="35" width="29" height="11" rx="5.5"></rect>
            <rect id="Rectangle" fill="#6C63FF" fill-rule="nonzero" transform="translate(59.500000, 40.500000) rotate(-180.000000) translate(-59.500000, -40.500000) " x="45" y="35" width="29" height="11" rx="5.5"></rect>
            <rect id="Rectangle" fill="#12C29E" fill-rule="nonzero" transform="translate(59.500000, 40.500000) rotate(-180.000000) translate(-59.500000, -40.500000) " x="45" y="35" width="29" height="11" rx="5.5"></rect>
            <ellipse id="Oval" fill="#F5F5F5" fill-rule="nonzero" cx="142" cy="151.5" rx="142" ry="32.5"></ellipse>
            <path d="M31.9378768,139 C31.9378768,139 34.6343007,130.229993 31.4345444,123.772891 C30.0783088,121.073483 29.6693176,118.023163 30.26909,115.08075 C30.565094,113.685731 30.9933201,112.319766 31.5483934,111" id="Path" stroke="#535461" stroke-width="2"></path>
            <path d="M30,105.219352 C30,106.445749 32,110 32,110 C32,110 34,106.445749 34,105.219352 C34,103.993638 33.1045695,103 32,103 C30.8954305,103 30,103.993638 30,105.219352 L30,105.219352 Z" id="Path" fill="#6C63FF" fill-rule="nonzero"></path>
            <path d="M27.291246,111.74573 C27.8378568,112.572912 31,114 31,114 C31,114 30.9426059,110.63313 30.387796,109.805948 C29.8313088,108.985252 28.6937671,108.753335 27.8419853,109.28692 C26.9902036,109.820505 26.7441173,110.919172 27.291246,111.74573 Z" id="Path" fill="#6C63FF" fill-rule="nonzero"></path>
            <path d="M25.9192393,121.732729 C26.7685476,122.226031 30,121.885418 30,121.885418 C30,121.885418 28.3141357,118.687766 27.4648274,118.194465 C26.6198847,117.729119 25.6068332,118.126856 25.1849023,119.089591 C24.7629714,120.052327 25.0869968,121.226767 25.9141383,121.732729 L25.9192393,121.732729 Z" id="Path" fill="#6C63FF" fill-rule="nonzero"></path>
            <path d="M28.669677,130.151515 C29.4971272,130.736495 33,131 33,131 C33,131 31.7091776,127.87747 30.8844855,127.29249 C30.0577928,126.773332 28.9504637,126.962527 28.3633596,127.723243 C27.7762554,128.483959 27.9144305,129.550505 28.6779515,130.151515 L28.669677,130.151515 Z" id="Path" fill="#6C63FF" fill-rule="nonzero"></path>
            <path d="M35.4046149,114.748681 C34.6273299,115.363696 31,116 31,116 C31,116 31.8879098,113.073948 32.6651948,112.451837 C33.1685859,112.054221 33.8948038,111.905021 34.5702892,112.060439 C35.2457746,112.215856 35.7679051,112.65228 35.9399993,113.205313 C36.1120935,113.758346 35.9080061,114.343969 35.4046149,114.741585 L35.4046149,114.748681 Z" id="Path" fill="#6C63FF" fill-rule="nonzero"></path>
            <path d="M36.109527,123.731472 C35.2542317,124.227094 32,123.884879 32,123.884879 C32,123.884879 33.6977483,120.672192 34.5530436,120.176571 C35.3999234,119.737738 36.3974389,120.143694 36.81486,121.097055 C37.232281,122.050417 36.9212121,123.212258 36.109527,123.731472 L36.109527,123.731472 Z" id="Path" fill="#6C63FF" fill-rule="nonzero"></path>
            <path d="M37.330323,131.151515 C36.5028728,131.736495 33,132 33,132 C33,132 34.2908224,128.87747 35.1155145,128.29249 C35.9422072,127.773332 37.0495363,127.962527 37.6366404,128.723243 C38.2237446,129.483959 38.0855695,130.550505 37.3220485,131.151515 L37.330323,131.151515 Z" id="Path" fill="#6C63FF" fill-rule="nonzero"></path>
            <path d="M168.852369,89 C168.852369,89 178.222371,98.322122 172.931981,112.153668 C167.641591,125.985214 182,149 182,149 C182,149 181.84616,148.977325 181.561271,148.926307 C162.317014,145.53361 152.756137,123.635552 163.456571,107.372148 C167.433622,101.323681 170.7013,94.2321791 168.852369,89 Z" id="Path" fill="#6C63FF" fill-rule="nonzero"></path>
            <path d="M168.852369,89 C168.852369,89 178.222371,98.322122 172.931981,112.153668 C167.641591,125.985214 182,149 182,149 C182,149 181.84616,148.977325 181.561271,148.926307 C162.317014,145.53361 152.756137,123.635552 163.456571,107.372148 C167.433622,101.323681 170.7013,94.2321791 168.852369,89 Z" id="Path" fill="#00B476" fill-rule="nonzero"></path>
            <path d="M169.123489,89 C169.123489,89 174.301419,100.427896 169.123489,109.752221 C163.945559,119.076545 168.2368,145.240786 182,149" id="Path" stroke="#535461"></path>
            <path d="M153,126.117036 C153,126.117036 163.285828,124.422584 164.223146,133.92846 C165.160463,143.434337 184,144.741889 184,144.741889 L183.64645,144.98476 C168.090266,155.507308 153.224737,151.686318 155.461144,137.715561 C156.294315,132.522065 156.220317,127.300329 153,126.117036 Z" id="Path" fill="#6C63FF" fill-rule="nonzero"></path>
            <path d="M153,126.117036 C153,126.117036 163.285828,124.422584 164.223146,133.92846 C165.160463,143.434337 184,144.741889 184,144.741889 L183.64645,144.98476 C168.090266,155.507308 153.224737,151.686318 155.461144,137.715561 C156.294315,132.522065 156.220317,127.300329 153,126.117036 Z" id="Path" fill="#00B476" fill-rule="nonzero"></path>
            <path d="M153,125 C153,125 160.983644,126.871081 160.328618,134.627723 C159.673592,142.384365 172.184864,151.681208 184,144.311081" id="Path" stroke="#535461"></path>
            <path d="M233,147.340781 C233,147.340781 217.207665,144.217901 212.994485,140.052192 C208.781305,135.886483 189.830503,128.600698 187.723913,133.806432 C185.617323,139.012167 159.297709,156.712224 177.210811,159.835104 C195.123912,162.957984 219.325595,163.99801 224.590652,161.917959 C229.855709,159.837908 233,147.340781 233,147.340781 Z" id="Path" fill="#7F879D" fill-rule="nonzero" opacity="0.551362537"></path>
            <path d="M177.197235,157.821429 C195.095967,160.989648 219.311566,162.044773 224.576567,159.934523 C228.585565,158.324818 231.38109,150.597663 232.472649,147 L233,147.110916 C233,147.110916 229.841567,159.783791 224.576567,161.899729 C219.311566,164.015667 195.090297,162.954854 177.197235,159.786635 C172.031467,158.870866 170.554318,156.723644 171.110021,154.004778 C171.526798,155.776592 173.338503,157.138869 177.197235,157.821429 Z" id="Path" fill="#000000" fill-rule="nonzero" opacity="0.2"></path>
            <path d="M265.774365,7.94664258 C265.491451,7.24914144 265.040626,6.6306302 264.461113,6.14492188 C260.202302,2.30463457 253.316988,3.46912698 248.029796,1.120405 C246.810551,0.579042917 245.562819,-0.170969142 244.241021,0.034861235 C242.395062,0.316820656 240.677294,2.40332037 239.067777,1.47849347 L239.181725,1.82530356 L239.067777,1.76609208 L240.252837,5.33569834 C240.70863,6.70602113 241.187212,8.11581823 242.07031,9.25775388 C239.413401,11.5508968 238.114676,15.022461 238.621996,18.4752859 C239.129315,21.9281108 241.373262,24.8897373 244.580017,26.3388556 C244.636991,26.4572785 244.691116,26.5785211 244.745241,26.6997636 L244.896223,26.7617947 C245.246861,27.5602451 245.508586,28.3941237 245.676767,29.2486768 C244.306541,29.4375896 241.91648,30.9404333 239.569149,33.1509952 L234.874487,32.9959175 C231.837981,32.8955818 228.899677,31.9065309 226.430932,30.1537665 L212.369736,20.1583051 C211.368099,20.2559462 210.424527,20.6690501 209.677712,21.3368955 C207.934306,19.5379944 206.45298,17.671423 206.578323,16.5435853 C206.578323,16.5435853 200.043399,4.43906739 197.667581,10.4899166 C195.291763,16.5407657 202.122952,22.8961311 202.122952,22.8961311 L206.455829,28.4535512 C206.284718,29.427922 206.176249,30.4120581 206.131077,31.4000272 C211.478092,37.4536959 230.188371,42.9293479 230.188371,42.9293479 L233.105442,43.0703276 L233.122535,43.2113073 C232.94303,43.9690135 232.855054,44.7451351 232.860454,45.5233746 C232.860454,45.6361583 232.860454,45.7517617 232.860454,45.8701847 C232.860454,45.9886076 232.860454,46.0252623 232.860454,46.1013914 C233.008586,55.7556819 234.344628,85.2937508 234.344628,85.2937508 C234.60386,85.1781475 234.874487,85.0738225 235.147962,84.9751367 L234.940007,87.6001789 C234.940007,87.6001789 222.465538,89.3285902 213.258531,92.7882323 C204.051524,96.2478743 203.755259,100.282714 203.755259,100.282714 L203.755259,135.88291 C201.125906,137.219398 196.975346,138.984464 194.844517,138.03426 C192.53137,137.013567 191.263697,137.870724 191.032953,138.764535 L191.032953,138.764535 C190.989016,138.941416 190.989016,139.126197 191.032953,139.303078 L191.032953,139.303078 C191.052478,139.382608 191.082153,139.459354 191.121262,139.531465 L191.121262,139.548383 C191.163656,139.622962 191.216394,139.691296 191.277941,139.751393 C192.169585,140.617009 211.475243,148.108671 215.930614,146.955457 C216.068454,146.919661 216.203617,146.874439 216.33513,146.820116 C216.37786,146.803198 216.414893,146.780642 216.457624,146.760905 C216.500354,146.741167 216.622849,146.684776 216.699764,146.639662 C216.776679,146.594548 216.788073,146.580451 216.830804,146.552255 C216.873535,146.524059 216.964693,146.464847 217.027364,146.416914 C217.090036,146.368981 217.109977,146.343605 217.149859,146.30695 C217.189741,146.270295 217.266655,146.208264 217.317932,146.151872 C217.369209,146.09548 217.391998,146.067284 217.429032,146.02499 C217.466065,145.982697 217.531585,145.912207 217.577164,145.850176 C217.622743,145.788145 217.639836,145.757129 217.67402,145.712016 C217.708204,145.666902 217.765178,145.582314 217.80506,145.514644 C217.844942,145.446974 217.859186,145.418778 217.884824,145.368025 C217.910462,145.317272 217.964588,145.224226 218.001621,145.148097 C218.038654,145.071968 218.0472,145.049411 218.067141,144.998658 C218.087082,144.947905 218.138359,144.837941 218.169694,144.756173 C218.20103,144.674405 218.203879,144.657487 218.22382,144.606735 C218.243761,144.555982 218.286491,144.4291 218.312129,144.324775 C218.312129,144.276842 218.337768,144.228909 218.352011,144.180976 C218.37765,144.08229 218.406137,143.986424 218.428926,143.899016 C218.428926,143.853903 218.448867,143.808789 218.457413,143.763676 C218.480203,143.656531 218.502992,143.549387 218.520085,143.442242 C218.520085,143.402768 218.520085,143.360474 218.540026,143.321 C218.559967,143.205396 218.577059,143.086973 218.591302,142.97137 L218.591302,142.869865 C218.605546,142.742983 218.619789,142.616101 218.631184,142.489219 L218.631184,142.410271 C218.642579,142.27305 218.651125,142.13583 218.656822,141.99861 L218.656822,141.942218 C218.656822,141.795599 218.656822,141.64898 218.656822,141.502361 L218.656822,141.474165 C218.651415,139.754968 218.460417,138.041265 218.087082,136.362241 L218.087082,136.362241 L219.206622,106.043145 C225.040412,106.13292 230.87495,105.920219 236.686262,105.405916 L237.324371,119.876074 C237.324371,119.876074 237.324371,129.386565 240.591833,133.709003 C243.389259,137.408311 246.619688,153.770416 247.491391,158.414287 C246.292087,160.669963 243.996033,163.489557 239.996454,163.393691 C239.996454,163.393691 232.47303,162.750823 232.897487,164.803488 L232.897487,164.803488 C232.909438,164.857292 232.92563,164.910086 232.945915,164.961385 L232.945915,164.961385 C232.969628,165.020441 232.997224,165.077896 233.028527,165.13338 L233.028527,165.13338 C233.059863,165.186953 233.094048,165.240525 233.133929,165.296917 L233.156719,165.330752 C233.19945,165.389963 233.247877,165.451995 233.302003,165.516845 L233.302003,165.530943 C233.353279,165.590155 233.407405,165.649366 233.467228,165.708578 L233.518504,165.75933 C233.586873,165.827001 233.655242,165.894671 233.735006,165.965161 C237.594998,169.424803 260.168118,170 260.168118,170 L260.168118,169.921051 C260.168118,169.898495 260.168118,169.870299 260.168118,169.839283 L260.168118,169.839283 C260.168118,168.838327 260.019985,163.588243 258.6697,159.635172 L258.983057,159.635172 C258.983057,159.635172 255.715595,130.525681 253.043512,127.068859 C253.043512,127.068859 252.334185,111.718988 253.935156,102.101352 L254.220027,101.994207 C261.706417,99.2253658 262.239125,92.407587 261.467126,87.3999877 C262.891478,87.8511228 263.723299,88.1584586 263.723299,88.1584586 C263.723299,88.1584586 263.69766,87.9413498 263.649232,87.5550654 L263.723299,87.5832613 C263.723299,87.5832613 263.580864,86.6668932 263.344421,85.2401786 C262.808865,81.3124838 261.771937,74.4495915 260.666641,71.2098778 C260.487172,70.4965205 260.31625,69.8874881 260.159572,69.4278943 C259.521707,67.481092 259.083643,65.4756309 258.852017,63.4418957 C258.549284,60.8058049 258.396163,58.154983 258.393376,55.5019185 C258.417661,51.9571964 258.691802,48.4184712 259.213802,44.9115226 C259.666746,41.8494433 260.068413,38.3644249 260.039926,35.9311151 C260.071304,35.0813291 260.011142,34.2306521 259.860458,33.3934803 C259.464488,31.5973988 257.712536,30.4300868 255.892215,29.6857139 C255.775418,29.6377808 255.655773,29.5983065 255.536127,29.553193 C255.581706,28.8736708 255.63868,28.101102 255.712747,27.2975176 C256.153518,27.599869 256.700331,27.709949 257.225408,27.6020338 C258.008801,27.4328581 258.569996,26.7871711 259.068519,26.1922367 C261.70072,22.9919973 264.404139,19.6564173 265.415428,15.6807895 C265.823934,13.9053834 266.015221,12.0877911 265.985169,10.2671686 C265.985169,10.1675429 265.985169,10.0679173 265.985169,9.96829162 C266.033839,9.28740849 265.962508,8.60333448 265.774365,7.94664258 Z" id="Path" fill="url(#linearGradient-2)" fill-rule="nonzero"></path>
            <path d="M242,23.3782471 C242,23.3782471 245.99414,29.4420247 245.138253,32.3295378 C244.282366,35.217051 254.553012,33.4845431 254.553012,33.4845431 C254.553012,33.4845431 254.838307,22.2232418 256.835378,19.62448 C258.832448,17.0257181 242,23.3782471 242,23.3782471 Z" id="Path" fill="#F7C4A7" fill-rule="nonzero"></path>
            <path d="M214,28.4312995 C214,28.4312995 205.740658,21.4448067 206.025463,18.8248719 C206.025463,18.8248719 199.759755,6.59850955 197.481316,12.7116907 C195.202877,18.8248719 201.75339,25.229157 201.75339,25.229157 L209.727927,36 L214,28.4312995 Z" id="Path" fill="#F7C4A7" fill-rule="nonzero"></path>
            <path d="M206.752507,135 C206.752507,135 198.936883,139.307041 195.75274,138.040264 C192.568597,136.773487 191.410727,138.80033 192.279129,139.560396 C193.147532,140.320462 211.962922,146.907701 216.304936,145.89428 C220.646949,144.880858 218.438311,136.580937 218.438311,136.580937 L206.752507,135 Z" id="Path" fill="#535461" fill-rule="nonzero"></path>
            <path d="M246.973731,155.111111 C246.973731,155.111111 245.136019,162.75 238.77471,162.611111 C238.77471,162.611111 229.162065,161.777778 232.837488,165.111111 C236.512911,168.444444 258,169 258,169 C258,169 258,157.611111 254.041852,155.111111 C250.083704,152.611111 246.973731,155.111111 246.973731,155.111111 Z" id="Path" fill="#535461" fill-rule="nonzero"></path>
            <path d="M235,101.036036 L235.868421,121.216216 C235.868421,121.216216 235.868421,130.72973 239.052632,135.054054 C242.236842,139.378378 246,161 246,161 L257,161 C257,161 253.815789,131.882883 251.210526,128.423423 C251.210526,128.423423 250.052632,102.765766 254.105263,97 L235,101.036036 Z" id="Path" fill="#575988" fill-rule="nonzero"></path>
            <path d="M235,101.036036 L235.868421,121.216216 C235.868421,121.216216 235.868421,130.72973 239.052632,135.054054 C242.236842,139.378378 246,161 246,161 L257,161 C257,161 253.815789,131.882883 251.210526,128.423423 C251.210526,128.423423 250.052632,102.765766 254.105263,97 L235,101.036036 Z" id="Path" fill="#000000" fill-rule="nonzero" opacity="0.1"></path>
            <path d="M258.19782,81.423847 C258.19782,81.423847 264.793322,97.0861637 252.749362,101.642474 C240.705402,106.198784 218.91157,105.629246 218.91157,105.629246 L217.764526,138.662496 C217.764526,138.662496 204.286761,140.371112 204,136.099571 L204,99.9338577 C204,99.9338577 204.286761,95.9470862 213.17635,92.5298534 C222.06594,89.1126207 234.1099,87.4040043 234.1099,87.4040043 L234.683422,80 L258.19782,81.423847 Z" id="Path" fill="#575988" fill-rule="nonzero"></path>
            <path d="M248.617783,30.0824335 C250.921893,29.831575 253.25314,30.1554535 255.396405,31.0241825 C257.164616,31.7560237 258.857829,32.904844 259.250124,34.6720418 C259.705878,36.7654478 259.201087,41.4600101 258.621299,45.4340776 C257.692493,51.6618781 257.574237,57.9806649 258.269387,64.2378561 C258.557839,66.8446855 258.976095,69.1167969 259.538576,70.1294608 C261.269288,73.2497137 263,88 263,88 C263,88 243.962168,80.9085162 234.443252,85.1634065 C234.443252,85.1634065 233.145218,56.0883229 233.000992,46.5857346 C232.888496,39.227611 242.375682,30.8426405 245.548654,30.5589812 C247.406285,30.3944588 246.768806,30.2724852 248.617783,30.0824335 Z" id="Path" fill="#000000" fill-rule="nonzero" opacity="0.1"></path>
            <path d="M248.617783,29.0824335 C250.921893,28.831575 253.25314,29.1554535 255.396405,30.0241825 C257.164616,30.7560237 258.857829,31.904844 259.250124,33.6720418 C259.705878,35.7654478 259.201087,40.4600101 258.621299,44.4340776 C257.692493,50.6618781 257.574237,56.9806649 258.269387,63.2378561 C258.493781,65.2380878 258.918915,67.2115727 259.538576,69.1294608 C260.83661,72.9588621 263,87 263,87 C263,87 243.962168,79.9085162 234.443252,84.1634065 C234.443252,84.1634065 233.145218,55.0883229 233.000992,45.5857346 C232.888496,38.227611 242.375682,29.8426405 245.548654,29.5589812 C247.406285,29.3944588 246.768806,29.2724852 248.617783,29.0824335 Z" id="Path" fill="#E14B5A" fill-rule="nonzero"></path>
            <path d="M252.970605,45 L232.289157,43.9597629 C232.289157,43.9597629 230.972535,34.9070999 233.958237,35.0007212 L254.427045,35.6378664 C254.427045,35.6378664 258.796365,40.3189332 252.970605,45 Z" id="Path" fill="#000000" fill-rule="nonzero" opacity="0.1"></path>
            <path d="M253.044084,46 L230.022042,44.8433735 C230.022042,44.8433735 212.116009,39.3493976 207,33.2771084 C207,33.2771084 207.284223,22.5783133 212.968677,22 L226.415255,32.0308434 C228.765449,33.7845476 231.580067,34.7779991 234.492865,34.8819277 L254.465197,35.5903614 C254.465197,35.5903614 258.728538,40.7951807 253.044084,46 Z" id="Path" fill="#E14B5A" fill-rule="nonzero"></path>
            <path d="M254.410364,24.6276166 C254.749866,21.7689825 255.976637,20.81912 256.835378,19.6521459 C258.832448,16.9382528 242,23.5722138 242,23.5722138 C242.87018,24.9849094 243.633346,26.468098 244.282366,28.0079213 C245.624302,28.6614431 247.084271,28.9999 248.561802,29 C251.032463,29 252.635825,26.1745357 254.410364,24.6276166 Z" id="Path" fill="#000000" fill-rule="nonzero" opacity="0.1"></path>
            <circle id="Oval" fill="#F7C4A7" fill-rule="nonzero" cx="247" cy="19" r="10"></circle>
            <path d="M241.271767,12.3003118 C240.174493,11.1082476 239.644478,9.5207253 239.145978,7.98156841 L238,4.45658618 C239.5528,5.36699321 241.208738,3.31857739 242.990734,3.03407519 C244.265634,2.83207863 245.471776,3.57178435 246.646404,4.10380346 C251.746005,6.41965134 258.392677,5.27026247 262.495278,9.06267676 C263.056046,9.54490893 263.490584,10.1550843 263.761584,10.8408155 C263.950866,11.4870018 264.028364,12.1603973 263.99078,12.8323309 C264.024256,14.6280334 263.844433,16.4213941 263.455035,18.1752821 C262.480954,22.0985675 259.873854,25.3931029 257.332648,28.5510773 C256.851337,29.1513769 256.309862,29.7886619 255.553517,29.9565182 C254.07807,30.2836957 252.937822,28.7018635 252.367698,27.3134927 C251.612362,25.4737677 251.055366,23.5597724 250.70603,21.6035336 C250.557053,20.7756322 250.439591,19.9221256 250.024174,19.190955 C249.136041,17.6290379 246.947223,16.1496265 245.617888,14.9376471 C244.288554,13.7256678 242.492234,13.623247 241.271767,12.3003118 Z" id="Path" fill="#000000" fill-rule="nonzero" opacity="0.1"></path>
            <path d="M241.271767,12.3003118 C240.174493,11.1082476 239.644478,9.5207253 239.145978,7.98156841 L238,4.45658618 C239.5528,5.36699321 241.208738,3.31857739 242.990734,3.03407519 C244.265634,2.83207863 245.471776,3.57178435 246.646404,4.10380346 C251.746005,6.41965134 258.392677,5.27026247 262.495278,9.06267676 C263.056046,9.54490893 263.490584,10.1550843 263.761584,10.8408155 C263.950866,11.4870018 264.028364,12.1603973 263.99078,12.8323309 C264.024256,14.6280334 263.844433,16.4213941 263.455035,18.1752821 C262.480954,22.0985675 259.873854,25.3931029 257.332648,28.5510773 C256.851337,29.1513769 256.309862,29.7886619 255.553517,29.9565182 C254.07807,30.2836957 252.937822,28.7018635 252.367698,27.3134927 C251.612362,25.4737677 251.055366,23.5597724 250.70603,21.6035336 C250.557053,20.7756322 250.439591,19.9221256 250.024174,19.190955 C249.136041,17.6290379 246.947223,16.1496265 245.617888,14.9376471 C244.288554,13.7256678 242.492234,13.623247 241.271767,12.3003118 Z" id="Path" fill="#632652" fill-rule="nonzero"></path>
            <circle id="Oval" fill="#F7C4A7" fill-rule="nonzero" cx="249.5" cy="20.5" r="1.5"></circle>
            <path d="M256,70 C256,70 255.411765,71.1736111 252.470588,70.9780093 C249.529412,70.7824074 241,70.3912037 241,70.9780093" id="Path" fill="#000000" fill-rule="nonzero" opacity="0.1"></path>
            <path d="M232.836045,165.087637 C232.327111,164.654669 232.072644,164.305164 232.013269,164 C231.939756,164.339071 232.165949,164.782473 232.836045,165.348461 C236.511679,168.478352 258,169 258,169 C258,169 258,168.908712 258,168.739176 C257.861457,168.736568 236.500369,168.207094 232.836045,165.087637 Z" id="Path" fill="#FFFFFF" fill-rule="nonzero" opacity="0.5"></path>
            <path d="M216.305861,146.246621 C211.964067,147.493276 193.14963,139.39002 192.281271,138.455029 C192.165547,138.328636 192.082699,138.17172 192.041025,138 C191.939002,138.379921 192.030278,138.789616 192.281271,139.078356 C193.14963,140.013347 211.964067,148.116604 216.305861,146.869949 C218.540437,146.227922 219.038296,143.214134 218.997773,140.43721 C218.954355,143.024019 218.372554,145.648227 216.305861,146.246621 Z" id="Path" fill="#FFFFFF" fill-rule="nonzero" opacity="0.5"></path>
            <path d="M141.5,142 C141.776142,142 142,141.776142 142,141.5 C142,141.223858 141.776142,141 141.5,141 C141.223858,141 141,141.223858 141,141.5 C141,141.776142 141.223858,142 141.5,142 L141.5,142 Z" id="Path" fill="#67647E" fill-rule="nonzero"></path>
            <path d="M26,135.71699 C26,135.71699 36.4829101,135.390991 39.6401424,133.120334 C42.7973747,130.849676 55.763375,128.139628 56.5470652,131.779483 C57.3307554,135.419339 72.3023285,149.888047 60.4570896,149.995768 C48.6118506,150.10349 32.9605175,148.136154 29.8060941,146.197166 C26.6516707,144.258177 26,135.71699 26,135.71699 Z" id="Path" fill="#7F879D" fill-rule="nonzero" opacity="0.551362537"></path>
            <path d="M60.6875465,147.745352 C48.8506249,147.839742 33.1841938,145.924191 30.0289925,144.025297 C27.6267689,142.578918 26.6574507,137.39305 26.3512023,135 L26,135 C26,135 26.6630699,143.356243 29.8182712,145.25236 C32.9734724,147.148478 48.6399036,149.080685 60.4655866,148.9974 C63.8820824,148.969639 65.062122,147.770338 64.9975008,145.990819 C64.5339138,147.054088 63.2302509,147.725919 60.6875465,147.745352 Z" id="Path" fill="#000000" fill-rule="nonzero" opacity="0.2"></path>
            <rect id="Rectangle" fill="#6C63FF" fill-rule="nonzero" transform="translate(279.500000, 156.500000) rotate(-180.000000) translate(-279.500000, -156.500000) " x="265" y="151" width="29" height="11" rx="5.5"></rect>
            <rect id="Rectangle" fill="#F53D45" fill-rule="nonzero" transform="translate(279.500000, 156.500000) rotate(-180.000000) translate(-279.500000, -156.500000) " x="265" y="151" width="29" height="11" rx="5.5"></rect>
            <rect id="Rectangle" fill="#139BE6" fill-rule="nonzero" x="265" y="140" width="29" height="11" rx="5.5"></rect>
            <rect id="Rectangle" fill="#6C63FF" fill-rule="nonzero" transform="translate(279.500000, 133.500000) rotate(-180.000000) translate(-279.500000, -133.500000) " x="265" y="128" width="29" height="11" rx="5.5"></rect>
            <rect id="Rectangle" fill="#12C29E" fill-rule="nonzero" transform="translate(279.500000, 133.500000) rotate(-180.000000) translate(-279.500000, -133.500000) " x="265" y="128" width="29" height="11" rx="5.5"></rect>
            <rect id="Rectangle" fill="#5352E4" fill-rule="nonzero" x="265" y="117" width="29" height="11" rx="5.5"></rect>
        </g>
        <path id="Line-7" d="M367.651992,43.7976 C369.219973,81.8785342 365.489462,118.886265 356.459819,154.814905 C345.486225,198.47846 326.70871,228.806701 300.070639,245.689299 L298.38134,246.759938 L296.240062,243.38134 L297.929361,242.310701 C323.601304,226.040412 341.837215,196.586934 352.580458,153.839938 C361.506029,118.3254 365.199579,81.7427937 363.660469,44.0862513 L353.748827,44.8030223 L363.986507,20 L377.686317,43.0719571 L367.651992,43.7976 Z" fill="#7F879D" fill-rule="nonzero"></path>
    </g>
</svg>