<?xml version="1.0" encoding="UTF-8"?>
<svg width="318px" height="201px" viewBox="0 0 318 201" version="1.1" xmlns="http://www.w3.org/2000/svg" xmlns:xlink="http://www.w3.org/1999/xlink">
    <!-- Generator: Sketch 53.2 (72643) - https://sketchapp.com -->
    <title>undraw_queue_qt30</title>
    <desc>Created with Sketch.</desc>
    <defs>
        <linearGradient x1="49.9932167%" y1="100%" x2="49.9932167%" y2="0.00754976202%" id="linearGradient-1">
            <stop stop-color="#808080" stop-opacity="0.25" offset="0%"></stop>
            <stop stop-color="#808080" stop-opacity="0.12" offset="54%"></stop>
            <stop stop-color="#808080" stop-opacity="0.1" offset="100%"></stop>
        </linearGradient>
        <linearGradient x1="49.9733852%" y1="100.024371%" x2="49.9733852%" y2="1.77703271e-06%" id="linearGradient-2">
            <stop stop-color="#808080" stop-opacity="0.25" offset="0%"></stop>
            <stop stop-color="#808080" stop-opacity="0.12" offset="54%"></stop>
            <stop stop-color="#808080" stop-opacity="0.1" offset="100%"></stop>
        </linearGradient>
        <linearGradient x1="50.0060225%" y1="100.000232%" x2="50.0060225%" y2="0.000409131227%" id="linearGradient-3">
            <stop stop-color="#808080" stop-opacity="0.25" offset="0%"></stop>
            <stop stop-color="#808080" stop-opacity="0.12" offset="54%"></stop>
            <stop stop-color="#808080" stop-opacity="0.1" offset="100%"></stop>
        </linearGradient>
        <linearGradient x1="49.9962701%" y1="100.004646%" x2="49.9962701%" y2="-0.00159953625%" id="linearGradient-4">
            <stop stop-color="#808080" stop-opacity="0.25" offset="0%"></stop>
            <stop stop-color="#808080" stop-opacity="0.12" offset="54%"></stop>
            <stop stop-color="#808080" stop-opacity="0.1" offset="100%"></stop>
        </linearGradient>
        <linearGradient x1="50.0149496%" y1="99.9996166%" x2="50.0149496%" y2="-0.0261541585%" id="linearGradient-5">
            <stop stop-color="#808080" stop-opacity="0.25" offset="0%"></stop>
            <stop stop-color="#808080" stop-opacity="0.12" offset="54%"></stop>
            <stop stop-color="#808080" stop-opacity="0.1" offset="100%"></stop>
        </linearGradient>
        <linearGradient x1="50.0005844%" y1="99.9995359%" x2="50.0005844%" y2="0%" id="linearGradient-6">
            <stop stop-color="#808080" stop-opacity="0.25" offset="0%"></stop>
            <stop stop-color="#808080" stop-opacity="0.12" offset="54%"></stop>
            <stop stop-color="#808080" stop-opacity="0.1" offset="100%"></stop>
        </linearGradient>
    </defs>
    <g id="Web---1.3" stroke="none" stroke-width="1" fill="none" fill-rule="evenodd">
        <g id="Accounts-&amp;-Profiles" transform="translate(-607.000000, -233.000000)" fill-rule="nonzero">
            <g id="undraw_queue_qt30" transform="translate(607.000000, 233.000000)">
                <g id="Group" opacity="0.5" transform="translate(291.883136, 70.000000)" fill="url(#linearGradient-1)">
                    <path d="M18.2772973,101.888602 L16.5872973,101.888602 L16.5872973,13.5762918 C19.429807,11.9436097 20.8156492,8.61510032 19.966141,5.46100066 C19.1166329,2.30690099 16.2435988,0.113684199 12.9613514,0.113684199 C9.6791039,0.113684199 6.80606983,2.30690099 5.95656168,5.46100066 C5.10705353,8.61510032 6.49289573,11.9436097 9.33540541,13.5762918 L9.33540541,101.888602 L7.64540541,101.888602 C3.43072643,101.888602 0.0140540541,105.2877 0.0140540541,109.480699 L0.0140540541,114.769301 L25.9121622,114.769301 L25.9121622,109.480699 C25.9121624,107.466544 25.107665,105.534934 23.675749,104.111039 C22.243833,102.687144 20.3018662,101.887674 18.2772973,101.888602 Z" id="Path"></path>
                </g>
                <g id="Group" opacity="0.5" transform="translate(227.883136, 9.000000)" fill="url(#linearGradient-2)">
                    <path d="M60.0704762,168.7 C57.4619048,167.153 56.0860317,161.98 55.6739683,160.1565 L52.5625397,119.868 C52.5625397,119.868 50.2263492,106.533 41.3530159,87.5385 C41.2447619,76.23 40.8292063,40.4705 39.82,36.624 L33.9393651,29.4595 C34.2127098,28.9066834 34.5218351,28.3723764 34.8647619,27.86 C34.9695238,27.832 35.0777778,27.8075 35.1825397,27.776 C35.311746,27.6045 35.4479365,27.426 35.587619,27.2825 C38.3734193,26.3043982 40.5660518,24.1123768 41.5490332,21.3227474 C42.5320147,18.5331179 42.1991864,15.4471506 40.644127,12.9325 C42.0933333,11.865 40.2460317,11.4135 40.2460317,11.4135 L40.2460317,11.4135 C39.1163545,6.39366569 34.2926335,3.11490153 29.2215873,3.92 C28.5754997,1.64214075 26.4998885,0.0704640526 24.1371429,0.07 L23.8368254,0.07 C26.0328249,0.191060455 27.9250631,1.66119153 28.5895238,3.7625 C27.8617856,2.51218046 26.6556864,1.61440149 25.2511111,1.2775 C24.3016904,0.480375733 23.1023274,0.0441538172 21.8638095,0.0455 L21.5634921,0.0455 C22.6275121,0.106186088 23.6480276,0.489444022 24.4898413,1.1445 C24.3361905,1.1445 24.1825397,1.12 24.0288889,1.12 C21.6399815,1.11553188 19.5452847,2.71823234 18.9198342,5.02905464 C18.2943836,7.33987694 19.2938029,9.78384633 21.3574603,10.99 C20.7730661,13.1642265 20.9568952,15.474114 21.8777778,17.528 C21.6787302,20.328 22.2863492,23.8945 26.0263492,25.7005 L25.3907937,27.1425 C24.6260317,27.181 18.4066667,27.937 14.4047619,42.084 C12.6831746,45.6295 11.384127,51.366 11.4714286,60.634 C11.3038095,63.007 11.1780952,65.534 11.1222222,68.2675 L8.23777778,80.1955 L8.27968254,80.2655 C8.27968254,80.3215 8.27968254,80.374 8.27968254,80.43 L8.24825397,80.556 L8.26920635,80.5875 C7.57079365,90.111 7.92,99.8095 9.84063492,109.158 C10.9301587,114.45 11.771746,119.7595 11.2374603,121.6355 C10.0850794,125.8355 5.99936508,141.1445 6.58952381,145.8485 L5.23809524,154.077 L5.32888889,154.1085 L0.233968254,163.807 C0.233968254,163.807 3.3768254,166.691 4.61650794,166.754 C5.85619048,166.817 7.28444444,168.931 7.28444444,168.931 C7.28444444,168.931 14.6003175,174.5975 17.0866667,172.844 C19.5730159,171.0905 16.1507937,168.994 13.8111111,166.1345 C11.8939683,163.779 12.3828571,158.4345 12.6238095,156.597 L23.5644444,117.705 C23.5644444,117.705 24.6504762,111.6535 24.8111111,101.318 C25.6483083,101.992401 26.6024858,102.50617 27.6257143,102.8335 C27.9668919,102.93964 28.3321557,102.93964 28.6733333,102.8335 L29.371746,105.3675 C29.371746,105.3675 41.9920635,123.438 42.351746,127.7675 C42.7114286,132.097 44.1536508,147.8855 46.3187302,152.103 L47.8796825,160.2965 L47.9739683,160.2965 L46.528254,171.1465 C46.528254,171.1465 50.4742857,172.767 51.6546032,172.3995 C52.8349206,172.032 54.9092063,173.523 54.9092063,173.523 C54.9092063,173.523 63.7266667,176.323 65.4552381,173.8065 C67.1838095,171.29 63.2552381,170.576 60.0704762,168.7 Z" id="Path"></path>
                </g>
                <path d="M265.632083,92.6312919 L268.883136,100 C268.883136,100 268.521908,51.6877628 267.32263,47.2425861 L259.523714,38 L256.883136,44.7840018 L262.883136,52.0364731 C262.883136,52.0364731 266.603786,62.7971821 266.000535,73.3254176 C265.397284,83.853653 265.632083,92.6312919 265.632083,92.6312919 Z" id="Path" fill="#3AD29F"></path>
                <path d="M265.632083,92.6312919 L268.883136,100 C268.883136,100 268.521908,51.6877628 267.32263,47.2425861 L259.523714,38 L256.883136,44.7840018 L262.883136,52.0364731 C262.883136,52.0364731 266.603786,62.7971821 266.000535,73.3254176 C265.397284,83.853653 265.632083,92.6312919 265.632083,92.6312919 Z" id="Path" fill="#381E1D"></path>
                <path d="M264.634039,92.6312919 L267.883136,100 C267.883136,100 267.522125,51.6877628 266.323569,47.2425861 L258.522125,38 L255.883136,44.7840018 L261.879526,52.0364731 C261.879526,52.0364731 265.597938,62.7971821 264.995049,73.3254176 C264.392161,83.853653 264.634039,92.6312919 264.634039,92.6312919 Z" id="Path" fill="#333333"></path>
                <path d="M236.848934,90.1258497 C236.115382,99.4670219 236.431266,108.993202 238.333588,118.173801 C239.386534,123.266765 240.204322,128.373691 239.705928,130.181885 C238.586295,134.22065 234.634238,148.954988 235.195809,153.482455 L233.883136,161.402903 L240.994032,164 L251.653356,126.397942 C251.653356,126.397942 254.401546,111.223774 251.681435,88 L236.845424,90.1293404 L236.848934,90.1258497 Z" id="Path" fill="#00B476"></path>
                <path d="M234.090463,161 L228.883136,170.946644 C228.883136,170.946644 231.899914,173.731984 233.087184,173.795048 C234.274455,173.858113 235.645717,175.897192 235.645717,175.897192 C235.645717,175.897192 242.661722,181.369773 245.050149,179.674044 C247.438576,177.978314 244.154489,175.970767 241.925753,173.192434 C239.697017,170.4141 240.884288,163.347394 240.884288,163.347394 L234.090463,161 Z" id="Path" fill="#381E1D"></path>
                <path d="M256.117264,115.140131 C256.117264,115.140131 268.462083,132.529716 268.816108,136.700842 C269.170132,140.871969 270.586228,156.059059 272.710372,160.11849 L274.239756,168 L281.883136,168 L278.827908,129.049704 C278.827908,129.049704 276.087762,113.866105 265.403315,93 L251.883136,100.30209 L256.117264,115.140131 Z" id="Path" fill="#00B476"></path>
                <path d="M266.900054,94.5779236 C266.900054,95.5275956 255.883136,94.5779236 255.883136,94.5779236 L255.883136,48.3510325 L260.913775,41 C260.913775,41 262.846694,43.0564326 264.732733,48.6794905 C265.453971,50.8537395 267.022665,54.8666392 267.617687,58.1940614 C267.978306,60.2147921 266.651227,63.0173955 266.896448,65.5450939 C267.772753,74.4455912 268.587752,84.1779441 266.900054,94.5779236 Z" id="Path" fill="#FFFFFF"></path>
                <path d="M259.310954,45 C259.310954,45 260.390122,39.9682005 262.883136,37.4841003 L254.038057,35 L251.883136,40.342312 L259.310954,45 Z" id="Path" fill="#A3643B"></path>
                <path d="M253.142633,39.0000597 C253.142633,39.0000597 240.630868,38.7091248 239.61124,78.7389627 L236.883136,90.264191 C236.883136,90.264191 258.854599,127.283028 263.270717,97.2501338 C263.270717,97.2501338 265.657807,64.5392365 261.006391,53.4802051 L263.280947,47.892853 L253.142633,39.0000597 Z" id="Path" fill="#000000" opacity="0.1"></path>
                <path d="M253.142633,38.0000597 C253.142633,38.0000597 240.630868,37.7091248 239.61124,77.7389627 L236.883136,89.264191 C236.883136,89.264191 258.854599,126.283028 263.270717,96.2501338 C263.270717,96.2501338 265.657807,63.5392365 261.006391,52.4802051 L263.280947,46.892853 L253.142633,38.0000597 Z" id="Path" fill="#333333"></path>
                <path d="M247.90565,96.7754453 C247.90565,96.7754453 247.125749,109.285561 254.746309,111.916642 C255.224215,112.081337 255.745805,111.999308 256.160238,111.694277 C256.574672,111.389245 256.835726,110.895234 256.867905,110.355106 C256.996787,108.216016 256.365596,103.848705 252.733768,95 L247.90565,96.7754453 Z" id="Path" fill="#000000" opacity="0.1"></path>
                <path d="M248.905275,96.7754453 C248.905275,96.7754453 248.130811,109.281996 255.743069,111.916642 C256.2217,112.081337 256.74408,111.999308 257.159142,111.694277 C257.574204,111.389245 257.835654,110.895234 257.867882,110.355106 C257.996959,108.216016 257.364811,103.848705 253.727475,95 L248.905275,96.7754453 Z" id="Path" fill="#A3643B"></path>
                <circle id="Oval" fill="#FA9221" cx="262.383136" cy="60.5" r="1"></circle>
                <circle id="Oval" fill="#FA9221" cx="262.383136" cy="77.5" r="1"></circle>
                <path d="M275.389506,167.14839 L273.883136,177.634642 C273.883136,177.634642 277.755643,179.105356 278.917395,178.772302 C280.079147,178.439248 282.114877,179.791249 282.114877,179.791249 C282.114877,179.791249 290.769397,182.330373 292.467615,180.048459 C294.165834,177.766545 290.311091,177.080652 287.184663,175.352728 C284.058236,173.624805 282.733057,167 282.733057,167 L275.389506,167.14839 Z" id="Path" fill="#381E1D"></path>
                <path d="M249.907216,48.0427794 C249.907216,48.0427794 238.645824,45.7306867 239.995427,75.101925 C239.995427,75.101925 242.708199,96.6106551 247.428421,98 L254.522318,96.1510222 L251.717991,76.0281549 L254.532491,65.6202555 C254.532491,65.6202555 256.77731,49.8917572 249.907216,48.0427794 Z" id="Path" fill="#DAA4A2" opacity="0.1"></path>
                <path d="M250.905732,48.0427794 C250.905732,48.0427794 239.646007,45.7306867 240.995411,75.101925 C240.995411,75.101925 243.70778,96.6106551 248.427304,98 L255.520151,96.1510222 L252.719629,76.0281549 L255.533712,65.6202555 C255.533712,65.6202555 257.774808,49.8917572 250.905732,48.0427794 Z" id="Path" fill="#000000" opacity="0.1"></path>
                <path d="M250.912309,48.0427794 C250.912309,48.0427794 239.645195,45.7306867 240.995484,75.101925 C240.995484,75.101925 243.709634,96.6106551 248.432255,98 L255.529757,96.1510222 L252.713826,76.0281549 L255.529757,65.6202555 C255.529757,65.6202555 257.782501,49.8917572 250.912309,48.0427794 Z" id="Path" fill="#333333"></path>
                <polygon id="Path" fill="#000000" opacity="0.1" points="248.883136 99 248.883136 98.3238095 254.61802 97 254.883136 97.568254"></polygon>
                <polygon id="Path" fill="#000000" opacity="0.1" points="248.883136 43.1201191 260.548771 54 260.883136 53.7561218 249.106046 43"></polygon>
                <polygon id="Path" fill="#000000" opacity="0.1" points="264.91281 95 264.883136 96 266.883136 95.5 266.779279 95"></polygon>
                <path d="M253.883136,36.1506839 C255.349199,37.5936049 257.485642,38.9999963 259.553167,38.9999963 C260.377619,39.0008322 261.19771,38.8605236 261.987208,38.5835583 C262.254303,38.1658963 262.554247,37.7782182 262.883136,37.4255685 L254.769666,35 L253.883136,36.1506839 Z" id="Path" fill="#000000" opacity="0.1"></path>
                <circle id="Oval" fill="#FDD835" cx="258.383136" cy="26.5" r="9.5"></circle>
                <circle id="Oval" fill="#A3643B" cx="259.383136" cy="29.5" r="9.5"></circle>
                <path d="M250.695708,26 C250.695708,26 247.253858,35.1916376 254.537455,38 L254.537455,38 C255.766352,37.3585251 256.619415,36.1557153 256.83179,34.7650145 C257.044164,33.3743138 256.590141,31.9640681 255.610683,30.9721254 L250.695708,26 Z" id="Path" fill="#FDD835"></path>
                <circle id="Oval" fill="#FDD835" cx="252.383136" cy="18.5" r="5.5"></circle>
                <path d="M267.946213,23.8110562 C267.946213,23.8110562 271.246232,24.5994667 265.459654,26.5792531 C263.536909,27.2162291 261.968645,28.6122029 261.129488,30.4337045 C260.606486,31.5451063 259.640434,32.3933757 258.46075,32.7770658 C257.281067,33.1607559 255.992998,33.0456355 254.902434,32.4590435 L253.080141,31.449878 L249.883136,24.1194123 L253.659154,19.8129388 L260.149074,19 L267.946213,23.8110562 Z" id="Path" fill="#FDD835"></path>
                <path d="M256.236325,17.4905919 C256.237066,14.5748827 253.888117,12.1656425 250.883136,12 L251.205571,12 C254.341203,12 256.883136,14.4624339 256.883136,17.5 C256.883136,20.5375661 254.341203,23 251.205571,23 L250.883136,23 C253.895621,22.8339634 256.247393,20.4135617 256.236325,17.4905919 L256.236325,17.4905919 Z" id="Path" fill="#FDD835"></path>
                <path d="M254.236325,17.4905919 C254.237066,14.5748827 251.888117,12.1656425 248.883136,12 L249.205571,12 C252.341203,12 254.883136,14.4624339 254.883136,17.5 C254.883136,20.5375661 252.341203,23 249.205571,23 L248.883136,23 C251.895621,22.8339634 254.247393,20.4135617 254.236325,17.4905919 L254.236325,17.4905919 Z" id="Path" fill="#FDD835"></path>
                <ellipse id="Oval" fill="#A3643B" cx="256.883136" cy="33" rx="1" ry="2"></ellipse>
                <g id="Group" opacity="0.5" transform="translate(26.883136, 12.000000)" fill="url(#linearGradient-3)">
                    <path d="M84.8383969,171.355599 C82.1535496,169.753949 80.7399237,164.410452 80.3231298,162.52554 L77.1242366,120.889627 C77.1242366,120.889627 74.7207252,107.111238 65.5964122,87.482279 C65.4852672,75.7951277 65.0580534,38.8417682 64.019542,34.8656189 L57.8475191,27.3119843 C58.1510913,26.7776576 58.4887059,26.2636814 58.8582443,25.7732809 L58.8582443,25.7732809 L60.4351145,30.26 L66.1243511,29.6375246 L63.0539695,23.7275049 C67.2574955,20.3049008 68.100876,14.1848835 64.9816412,9.73929273 C65.7143516,8.77630805 65.6692683,7.42626731 64.8739695,6.51500982 C63.9156797,5.39209265 62.7767954,4.43928549 61.5048855,3.69638507 C56.9112521,-0.760189077 49.6560863,-0.814945552 44.9966146,3.57179319 C40.3371428,7.95853193 39.9050485,15.2505899 44.0134351,20.1640079 C43.6934655,20.5275064 43.2799923,20.7949569 42.818626,20.9368566 C40.6651908,21.5453438 38.9493893,23.0805501 37.8344656,24.3499804 C37.4343758,24.8083365 37.252288,25.4193508 37.3356635,26.0237628 C37.419039,26.6281747 37.759617,27.1660998 38.268626,27.4973281 L39.1994656,28.0953242 C39.9576619,28.5769426 40.9368148,28.516383 41.6307634,27.9449509 L43.5584351,26.3433006 C43.6207188,26.2931738 43.710812,26.2996845 43.765347,26.3582534 C43.8198821,26.4168223 43.8205287,26.507763 43.7668321,26.567112 C43.3138974,27.0544068 43.1506647,27.7465268 43.337664,28.3868195 C43.5246633,29.0271122 44.0340116,29.5201051 44.6768321,29.6829862 L44.7150382,29.6829862 L44.6733588,29.7039686 L44.725458,29.7494303 C42.9888168,31.4979568 41.2104962,34.0228291 39.609313,37.7366994 C37.0356107,40.8840472 34.6841985,47.2836542 34.850916,60.1178389 C34.6679898,62.4492076 34.5406361,64.9484348 34.468855,67.6155206 L31.5026718,79.9391356 C31.5026718,79.9391356 8.61374046,122.396857 14.3029771,127.992141 C14.3029771,127.992141 17.7276336,128.607623 22.5520229,129.891041 L8.86034351,148.159646 L9.04790076,148.341493 L0.32648855,154.758585 C0.32648855,154.758585 1.93461832,158.867623 3.0460687,159.490098 C4.15751908,160.112574 4.52916031,162.728369 4.52916031,162.728369 C4.52916031,162.728369 8.73183206,171.317132 11.8230534,170.82055 C14.9142748,170.323969 12.6879008,166.837407 11.8230534,163.102554 C11.1492366,160.196503 13.6951527,155.786719 14.8587023,153.968251 L15.1643511,154.262004 C15.1643511,154.262004 31.4158397,141.966365 37.6364885,135.091159 C41.0403053,136.612377 44.2878244,138.392377 46.9414122,140.44165 C46.9414122,140.44165 51.6129771,128.985305 55.9962595,110.017289 L55.9962595,110.017289 L56.0344656,110.076739 C59.8724427,115.843379 66.3327481,125.963851 66.5932443,129.104204 C66.9648855,133.587426 68.4479771,149.894185 70.6743511,154.251513 L72.2824809,162.717878 L72.3797328,162.717878 L70.8896947,173.943418 C70.8896947,173.943418 74.9499618,175.61501 76.1656107,175.237328 C77.3812595,174.859646 79.513855,176.39835 79.513855,176.39835 C79.513855,176.39835 88.5825954,179.283418 90.3643893,176.692102 C92.1461832,174.100786 88.1171756,173.306955 84.8383969,171.355599 Z" id="Path"></path>
                </g>
                <circle id="Oval" fill="#000000" cx="80.3831361" cy="27.5" r="11.5"></circle>
                <path d="M52.8831361,138.000393 L37.8831361,158.109961 L43.9572274,164 C43.9572274,164 64.9858854,148.019823 67.6140308,142.748486 C67.7698744,142.471106 67.8618591,142.161738 67.8831361,141.843414 C67.8656617,137.880188 52.8831361,138.000393 52.8831361,138.000393 Z" id="Path" fill="#00B476"></path>
                <path d="M80.258683,117.732768 C80.258683,117.732768 93.0212894,135.584245 93.3888925,139.86804 C93.7564955,144.151836 95.2126318,159.742615 97.4004053,163.90761 L98.9814552,172 L106.883136,172 L103.721036,132.01325 C103.721036,132.01325 100.926539,116.422471 89.8627585,95 L75.8831361,102.498389 L80.258683,117.732768 Z" id="Path" fill="#00B476"></path>
                <rect id="Rectangle" fill="#FFFFFF" x="77.8831361" y="51" width="11" height="46"></rect>
                <path d="M87.6379862,95.5106359 L90.8831361,103 C90.8831361,103 90.5304024,53.9073233 89.3205259,49.3913694 L81.5251114,40 L78.8831361,46.8925881 L84.8796088,54.2632949 C84.8796088,54.2632949 88.6044765,65.200698 88.0048292,75.9007866 C87.405182,86.6008752 87.6379862,95.5106359 87.6379862,95.5106359 Z" id="Path" fill="#000000" opacity="0.1"></path>
                <polygon id="Path" fill="#000000" points="87.9410084 37 91.8831361 44.4295302 86.548668 45 83.8831361 37.5704698"></polygon>
                <circle id="Oval" fill="#FDA57D" cx="83.8831361" cy="32" r="10"></circle>
                <path d="M83.1712717,45 C83.8969556,42.8538139 85.1725355,40.9129962 86.8831361,39.3523316 L77.233015,37 L74.8831361,42.0604491 L83.1712717,45 Z" id="Path" fill="#FDA57D"></path>
                <path d="M79.4475432,42.0035926 C79.4475432,42.0035926 63.3000261,40.8161616 62.2469272,81.6171235 L59.3789877,93.3591089 C59.3789877,93.3591089 37.2639099,133.804886 42.7610864,139.13962 C42.7610864,139.13962 63.5633009,142.816825 74.3259721,151 C74.3259721,151 82.5752471,131.07484 87.2404754,100.473248 C87.2404754,100.473248 89.7503612,67.1450916 84.8499408,55.8766857 L87.2404754,50.1832853 L79.4475432,42.0035926 Z" id="Path" fill="#3AD29F"></path>
                <path d="M87.6408453,95.5106359 L90.8831361,103 C90.8831361,103 90.5307132,53.9073233 89.3219026,49.3913694 L81.5227837,40 L78.8831361,46.8925881 L84.8743255,54.2632949 C84.8743255,54.2632949 88.5959114,65.200698 87.9967925,75.9007866 C87.3976735,86.6008752 87.6408453,95.5106359 87.6408453,95.5106359 Z" id="Path" fill="#3AD29F"></path>
                <path d="M87.6408453,95.5106359 L90.8831361,103 C90.8831361,103 90.5307132,53.9073233 89.3219026,49.3913694 L81.5227837,40 L78.8831361,46.8925881 L84.8743255,54.2632949 C84.8743255,54.2632949 88.5959114,65.200698 87.9967925,75.9007866 C87.3976735,86.6008752 87.6408453,95.5106359 87.6408453,95.5106359 Z" id="Path" fill="#000000" opacity="0.05"></path>
                <path d="M70.9056441,100.776097 C70.9056441,100.776097 70.1257565,113.288721 77.7473861,115.916372 C78.2251071,116.081364 78.7466815,115.999541 79.161025,115.694604 C79.5753684,115.389667 79.8361788,114.895692 79.8679072,114.35577 C79.9968143,112.228624 79.3651697,107.849206 75.7332134,99 L70.9056441,100.776097 Z" id="Path" fill="#000000" opacity="0.1"></path>
                <path d="M70.9056441,98.7760974 C70.9056441,98.7760974 70.1257565,111.288721 77.7473861,113.916372 C78.2251071,114.081364 78.7466815,113.999541 79.161025,113.694604 C79.5753684,113.389667 79.8361788,112.895692 79.8679072,112.35577 C79.9968143,110.228624 79.3651697,105.849206 75.7332134,97 L70.9056441,98.7760974 Z" id="Path" fill="#FDA57D"></path>
                <circle id="Oval" fill="#4D8AF0" cx="85.3831361" cy="62.5" r="1"></circle>
                <circle id="Oval" fill="#4D8AF0" cx="85.3831361" cy="80.5" r="1"></circle>
                <path d="M38.8335692,157 L29.8831361,164.040724 C29.8831361,164.040724 31.3754364,168.117887 32.4062352,168.73454 C33.4370341,169.351193 33.7840023,171.948389 33.7840023,171.948389 C33.7840023,171.948389 37.6848685,180.472707 40.5549359,179.979385 C43.4250033,179.486063 41.3566683,176.025552 40.5549359,172.318381 C39.7532035,168.611209 43.8831361,162.441054 43.8831361,162.441054 L38.8335692,157 Z" id="Path" fill="#000000"></path>
                <path d="M98.3938343,171.165265 L96.8831361,182.396427 C96.8831361,182.396427 100.756899,183.973334 101.917642,183.615259 C103.078385,183.257184 105.112284,184.7067 105.112284,184.7067 C105.112284,184.7067 113.774544,187.42325 115.468882,184.982142 C117.16322,182.541034 113.313712,181.793897 110.184903,179.951876 C107.056095,178.109856 105.732501,171 105.732501,171 L98.3938343,171.165265 Z" id="Path" fill="#000000"></path>
                <path d="M72.9147915,50.0436356 C72.9147915,50.0436356 61.6517137,47.6852501 62.9942885,77.644711 C62.9942885,77.644711 65.6959721,99.5835835 70.4280521,101 L77.5278254,99.112599 L74.7104026,78.5901431 L77.5278254,67.9722137 C77.5278254,67.9722137 79.7863933,51.9310366 72.9147915,50.0436356 Z" id="Path" fill="#000000" opacity="0.1"></path>
                <path d="M73.9162349,50.0436356 C73.9162349,50.0436356 62.6515366,47.6852501 63.9943045,77.644711 C63.9943045,77.644711 66.6963769,99.5835835 71.4291377,101 L78.5266253,99.112599 L75.7087971,78.5901431 L78.5266253,67.9756768 C78.5266253,67.9756768 80.7888255,51.9310366 73.9162349,50.0436356 Z" id="Path" fill="#000000" opacity="0.1"></path>
                <path d="M72.9168654,50.0436356 C72.9168654,50.0436356 61.6514592,47.6852501 62.9943115,77.644711 C62.9943115,77.644711 65.6965537,99.5835835 70.4296119,101 L77.5275455,99.112599 L74.7095402,78.5901431 L77.5275455,67.9756768 C77.5275455,67.9756768 79.7865803,51.9310366 72.9168654,50.0436356 Z" id="Path" fill="#3AD29F"></path>
                <polygon id="Path" fill="#000000" opacity="0.1" points="70.8831361 101 70.8831361 100.327132 76.61783 99 76.8831361 99.5674419"></polygon>
                <polygon id="Path" fill="#000000" opacity="0.1" points="70.8831361 44.1206841 83.5193501 55 83.8831361 54.7586318 71.1292266 44"></polygon>
                <polygon id="Path" fill="#3AD29F" points="74.8831361 44.4112213 81.8292487 43 87.8831361 51.715703 84.3804551 54"></polygon>
                <path d="M90.2117785,26.1129691 L85.7183281,30.8854171 L85.7183281,33.810241 C85.7189515,35.72325 85.346805,37.6179642 84.6227887,39.3879742 L81.6039691,46.7645264 C81.1925243,47.7730632 80.0475493,48.2613664 79.0372768,47.8591565 L76.4949298,46.8481924 C75.9936144,46.6495272 75.5946321,46.2547915 75.3899082,45.7549321 C75.1851843,45.2550727 75.1923752,44.6932 75.4098241,44.1987691 L76.1227942,42.5672821 C76.154581,42.497976 76.127957,42.4158194 76.0616058,42.378466 C75.9952546,42.3411126 75.9114087,42.3610786 75.8689073,42.4243527 L74.4186218,44.4950862 C73.949378,45.1607993 73.122122,45.47175 72.3318802,45.2794549 L70.940719,44.9308466 C70.3230128,44.7774131 69.832915,44.3069685 69.6532696,43.6950245 C69.4736243,43.0830805 69.6314118,42.4215436 70.0677654,41.9572176 L70.0677654,41.9572176 C70.1263496,41.9013836 70.1286852,41.8085176 70.0729823,41.7497956 C70.0172793,41.6910737 69.9246312,41.6887325 69.8660471,41.7445665 L68.0192807,43.271471 C67.3565401,43.8194316 66.4171003,43.8771411 65.6925637,43.4144004 L64.8022206,42.8461688 C64.3114692,42.5328739 63.9824763,42.0196162 63.9021608,41.441997 C63.8218453,40.8643778 63.9982876,40.2805105 64.3848722,39.8446511 C65.4525884,38.6349802 67.0941585,37.1708252 69.1600328,36.5886493 C71.3267662,35.9785848 72.0988607,32.1508653 72.3666592,28.9785296 C72.6879912,24.7838282 75.398354,21.152908 79.3224648,19.660229 C82.5499586,18.4610164 86.5147678,18.5586267 90.2917703,22.8360509 C91.1099147,23.7864007 91.0753135,25.2038635 90.2117785,26.1129691 Z" id="Path" fill="#000000"></path>
                <polygon id="Path" fill="#000000" opacity="0.1" points="86.914928 98 86.8831361 99 88.8831361 98.497076 88.7790899 98"></polygon>
                <path d="M87.0062448,99 L87.8831361,99 C87.8831361,99 85.4415955,122.569571 83.0688307,123 L82.8831361,122.713047 C82.8831361,122.713047 86.7689683,103.519504 87.0062448,99 Z" id="Path" fill="#000000" opacity="0.1"></path>
                <g id="Group" opacity="0.5" transform="translate(167.883136, 0.000000)" fill="url(#linearGradient-4)">
                    <path d="M60.1119774,57.1484321 L61.0927684,55.2189721 L50.5842938,49.8893206 L50.3285876,50.3970732 L50.0168362,50.2394948 L48.5106215,53.2054704 C48.2584181,51.8047735 47.960678,50.4986237 47.6489266,49.2870209 C47.1620339,46.4856272 46.5980791,43.8593206 46.0586441,41.6252091 C46.0376271,41.4326132 46.0166102,41.2400174 45.9955932,41.0579268 C45.1128814,33.2280314 40.3910734,29.5547038 36.8672316,27.8808711 C40.7932959,27.1792476 44.1738016,24.7012964 46.0237108,21.1690619 C47.87362,17.6368275 47.9848017,13.4477173 46.3248588,9.82238676 C47.5543503,8.81038328 47.8836158,7.11203833 46.5105085,4.36667247 C46.5105085,4.36667247 22.5476836,-8.2395993 18.459887,9.4021777 C17.6680175,12.8840511 17.8719436,16.5183961 19.0483616,19.8898955 C19.7140254,21.8538189 20.6576981,23.7122794 21.8506215,25.4086411 C15.6821469,26.4416551 4.68677966,29.4601568 1.88451977,38.0324216 C-1.23649718,47.5151394 0.535932203,65.5000871 1.44666667,72.8397387 C1.51342424,73.3757986 1.70672521,73.8883079 2.01062147,74.3349826 C2.16129549,74.7167782 2.39041009,75.0627297 2.68316384,75.3504878 L2.68316384,92.7961672 L3.0019209,92.7086237 L3.0019209,93.1148258 C3.0019209,93.1148258 3.14553672,93.0798084 3.40474576,93.00277 C3.75502825,109.408432 6.00384181,135.076202 6.17548023,137.016167 L6.17548023,136.974146 L6.17548023,137.054686 C4.4240678,150.904077 2.67265537,182.577334 2.67265537,182.577334 L2.67265537,182.577334 L2.67265537,182.657875 L2.67265537,182.577334 L6.17548023,182.577334 L6.17548023,195.596812 C6.17542327,196.207036 6.51595077,196.766301 7.05819209,197.046533 C8.77457627,197.928972 12.5646328,199.847927 14.6137853,200.565784 C17.3214689,201.52176 23.6896045,200.565784 23.6896045,200.565784 C24.0083616,198.972491 18.9117514,197.540279 18.9117514,197.540279 L12.8588701,190.862456 L12.8588701,182.584338 L14.1338983,182.584338 L14.1338983,182.566829 L14.1338983,182.664878 C18.4073446,178.564338 29.3781921,101.550523 29.5918644,100.062282 L27.0488136,176.375749 L27.0488136,176.375749 L27.0488136,176.456289 L27.0488136,176.375749 L28.9508475,176.375749 L28.9508475,188.708885 C28.9499129,189.351407 29.3081395,189.940609 29.879096,190.235645 C31.6305085,191.128589 35.3575141,193.016028 37.3891525,193.737387 C40.0968362,194.693362 46.4649718,193.737387 46.4649718,193.737387 C46.7837288,192.144094 41.6871186,190.711882 41.6871186,190.711882 L35.6482486,184.027056 L35.6482486,176.375749 L38.0371751,176.375749 C40.0477966,168.321742 43.4105085,108.792125 44.4263277,90.1138328 C46.0411299,91.2133798 47.2741243,91.0417944 47.2741243,91.0417944 L47.2741243,90.8912195 C47.3651193,90.8965636 47.4563496,90.8965636 47.5473446,90.8912195 C47.663902,90.9009635 47.7810697,90.9009635 47.8976271,90.8912195 C47.8976271,90.8912195 47.820565,84.8927352 47.6349153,76.8842509 L51.3864407,73.4280314 L51.4354802,73.4525436 L51.5020339,73.3229791 L51.8348023,73.0183275 L52.0064407,73.1058711 L52.2376271,72.6471429 L56.9874576,68.2839721 L56.9874576,68.2839721 L57.3132203,67.9828223 L56.8753672,67.1459059 C59.4779661,65.528101 60.9841808,62.5936411 61.8318644,60.1109059 C62.0506938,59.4893217 61.9861646,58.803103 61.6552906,58.2331787 C61.3244167,57.6632543 60.7604101,57.2668318 60.1119774,57.1484321 Z" id="Path"></path>
                </g>
                <polygon id="Path" fill="#FEC9B1" points="203.883136 171.370213 203.883136 184 197.883136 184 197.883136 170"></polygon>
                <path d="M204.298782,181.078459 L210.24499,187.64408 C210.24499,187.64408 215.188309,189.038516 214.868238,190.586305 C214.868238,190.586305 208.690867,191.517118 206.066285,190.586305 C204.092514,189.873039 200.465043,188.054208 198.782892,187.184023 C198.229861,186.897186 197.882725,186.324798 197.883136,185.700428 L197.883136,181 L204.298782,181.078459 Z" id="Path" fill="#381E1D"></path>
                <polygon id="Path" fill="#FEC9B1" points="180.883136 177.370213 180.883136 190 174.883136 190 174.883136 176"></polygon>
                <path d="M181.301046,186.092428 L187.245982,192.654817 C187.245982,192.654817 192.188244,194.044792 191.868241,195.587629 C191.868241,195.587629 185.692192,196.515464 183.068171,195.587629 C181.077044,194.876644 177.404126,193.031639 175.740113,192.174902 C175.208691,191.900873 174.877168,191.350729 174.883218,190.752933 L174.883136,186 L181.301046,186.092428 Z" id="Path" fill="#381E1D"></path>
                <path d="M211.883136,85.732071 C211.883136,85.732071 207.790324,164.838346 205.518865,174.031178 L195.051315,174.031178 L197.476297,100.58718 C197.476297,100.58718 186.869179,176.02196 182.779856,180 L171.883136,180 C171.883136,180 173.550966,149.549845 175.215306,136.238033 C175.215306,136.238033 170.679368,84.8265295 173.397442,81 L210.815446,81 L211.883136,85.732071 Z" id="Path" fill="#4D8AF0"></path>
                <g id="Group" opacity="0.1" transform="translate(171.883136, 81.000000)" fill="#000000">
                    <path d="M4.60730769,42.5875532 C4.19538462,45.8980851 3.78346154,50.2723404 3.39576923,54.9730851 C3.16384615,52.3295745 -1.03153846,3.75989362 1.60269231,0.0526595745 L1.97653846,0.0526595745 C2.30192308,16.373617 4.60730769,42.5875532 4.60730769,42.5875532 Z" id="Path"></path>
                    <path d="M0.100384615,98.6910638 C0.100384615,98.6910638 1.71692308,69.0612766 3.35076923,55.5628723" id="Path"></path>
                    <path d="M26.7057692,7.06691489 L24.3,80.2426596 L23.0988462,92.7440426 L25.5046154,19.5682979 C25.5046154,19.5682979 14.9815385,94.7275532 10.9246154,98.6910638" id="Path"></path>
                </g>
                <path d="M219.336501,64.9369998 C220.924957,62.6609987 223.004328,60.7426038 225.432457,59.3129683 C226.253479,58.8380887 227.294767,58.908784 228.038693,59.4899114 C228.782618,60.0710388 229.070493,61.0386369 228.759213,61.9117082 C227.395057,65.7757655 224.369382,70.6900722 217.883136,69.9194114 L219.336501,64.9369998 Z" id="Path" fill="#FEC9B1"></path>
                <path d="M211.890313,44 C211.890313,44 212.030265,44.2972605 212.249165,44.8428211 C213.42261,47.6755391 216.957299,57.2053623 215.780265,66.6267729 L220.143902,62.2238197 L223.883136,69.2181854 L211.883136,80 L211.890313,44 Z" id="Path" fill="#000000" opacity="0.1"></path>
                <path d="M210.883136,38 C210.883136,38 211.718157,38.3504197 211.922582,38.9145954 C213.055577,41.7529949 217.196036,58.1596447 216.059575,67.5999511 L220.272795,63.1881672 L223.883136,70.196561 L212.296782,81 L210.883136,38 Z" id="Path" fill="#00B476"></path>
                <polygon id="Path" fill="#333333" points="204.824877 32 209.883136 83 184.883136 83 191.281354 32.9204758"></polygon>
                <path d="M201.883136,30 C201.883136,30 212.755258,31.6889769 214.096267,43.9640932 C215.437276,56.2392096 215.883136,91.9903976 215.883136,91.9903976 C215.883136,91.9903976 206.369172,93.3719665 206.204547,62.9915836 C206.039922,32.6112006 201.883136,30 201.883136,30 Z" id="Path" fill="#000000" opacity="0.1"></path>
                <path d="M200.883136,30 C200.883136,30 211.757922,31.6889769 213.09926,43.9640932 C214.440598,56.2392096 214.883136,91.9903976 214.883136,91.9903976 C214.883136,91.9903976 205.349688,93.3719665 205.198745,62.9915836 C205.047802,32.6112006 200.883136,30 200.883136,30 Z" id="Path" fill="#000000" opacity="0.1"></path>
                <path d="M201.883136,30 C201.883136,30 212.755258,31.6889769 214.096267,43.9640932 C215.437276,56.2392096 215.883136,91.9903976 215.883136,91.9903976 C215.883136,91.9903976 206.352024,93.3719665 206.201117,62.9915836 C206.050211,32.6112006 201.883136,30 201.883136,30 Z" id="Path" fill="#00B476"></path>
                <polygon id="Rectangle" fill="#F5F5F5" transform="translate(218.249493, 63.564741) rotate(-153.090000) translate(-218.249493, -63.564741) " points="212.624884 53.9834972 223.86212 53.9905327 223.874102 73.1459843 212.636866 73.1389488"></polygon>
                <polygon id="Rectangle" fill="#E0E0E0" transform="translate(218.790679, 63.230541) rotate(-153.090000) translate(-218.790679, -63.230541) " points="213.16607 53.6492971 224.403306 53.6563326 224.415288 72.8117842 213.178052 72.8047487"></polygon>
                <path d="M205.299244,67.1442014 C207.080032,64.629668 209.494329,62.5791273 212.321983,61.1795614 C212.946614,60.8803797 213.698015,60.9598476 214.238284,61.3822289 C214.778553,61.8046101 215.005957,62.4903698 214.818235,63.1311256 C213.705579,66.9105634 210.844463,72.7515128 203.883136,71.9200364 L205.299244,67.1442014 Z" id="Path" fill="#FEC9B1"></path>
                <path d="M195.312336,21 C195.312336,21 194.39413,26.0060693 190.883136,27.7832917 L191.938545,33.8204213 L199.139952,40 L202.883136,32.2670475 L201.736258,28.2174223 L195.312336,21 Z" id="Path" fill="#FEC9B1"></path>
                <path d="M172.883136,72.9596661 L172.883136,93 C172.883136,93 195.001739,87.2751816 193.838837,61.6626911 C192.675934,36.0502006 191.828055,29 191.828055,29 L175.503855,48.1000759 L172.883136,72.9596661 Z" id="Path" fill="#000000" opacity="0.1"></path>
                <path d="M172.883136,72.9561965 L172.883136,93 C172.883136,93 195.001739,87.2751816 193.838837,61.6626911 C192.675934,36.0502006 191.828055,29 191.828055,29 L175.500504,48.1035455 L172.883136,72.9561965 Z" id="Path" fill="#00B476"></path>
                <path d="M202.18533,29.3872311 L202.883136,32 C199.292353,31.7862911 195.986819,29.9358652 193.883136,26.9618321 C194.908152,25.4725738 195.619744,23.783208 195.973151,22 L202.18533,29.3872311 Z" id="Path" fill="#000000" opacity="0.1"></path>
                <circle id="Oval" fill="#FEC9B1" cx="203.383136" cy="18.5" r="12.5"></circle>
                <path d="M172.56591,41.5770401 C169.533834,50.6458633 171.355173,68.0217697 172.216994,74.5892036 C172.399199,76.0493706 173.719536,77.1086954 175.210689,76.9910864 L207.883136,74.5102846 L207.883136,64.0620944 L184.70119,63.6160304 L187.879811,43.5122714 C187.879811,43.5122714 176.365599,30.250447 172.56591,41.5770401 Z" id="Path" fill="#000000" opacity="0.1"></path>
                <path d="M195.631954,28 C195.631954,28 176.354665,29.001379 172.567619,40.6371211 C169.597318,49.7553117 171.283164,67.0537816 172.148775,74.1127985 C172.36533,75.8593725 173.90191,77.1260158 175.63914,76.9900002 L207.883136,74.4724487 L207.883136,63.7534621 L184.696639,63.2986103 L187.879852,42.6293012 L195.631954,28 Z" id="Path" fill="#00B476"></path>
                <path d="M215.03471,9.2908471 C215.03471,9.2908471 192.226429,-3.1041868 188.334291,14.2394896 C187.580627,17.6616427 187.774164,21.233658 188.892804,24.5476597 C190.079644,28.1050597 192.481251,32.6572341 197.270501,35 L198.219974,23.9853959 L198.614424,23.9853959 C200.228046,23.9853959 201.536145,22.6347457 201.536145,20.9686342 L201.536145,14.9170896 C201.536145,14.9170896 220.001986,19.5665789 215.03471,9.2908471 Z" id="Path" fill="#381E1D"></path>
                <ellipse id="Oval" fill="#FEC9B1" cx="197.883136" cy="23.5" rx="1" ry="2.5"></ellipse>
                <ellipse id="Oval" fill="#F5F5F5" transform="translate(220.640282, 59.599651) rotate(-63.090000) translate(-220.640282, -59.599651) " cx="220.640282" cy="59.5996514" rx="1.21471912" ry="1.21360771"></ellipse>
                <g id="Group" opacity="0.5" transform="translate(116.883136, 19.000000)" fill="url(#linearGradient-5)">
                    <path d="M37.8967742,83.3174897 C37.8754839,79.4067901 35.466129,75.6709877 33.7416129,73.5022634 L34.5754839,72.3829218 L32.1625806,58.1183128 C32.1625806,58.1183128 32.0383871,56.7506173 32.0206452,54.3510288 C32.4938204,50.9252008 32.6872374,47.4674547 32.5990323,44.0111111 C32.7693548,42.4615226 32.9893548,40.8174897 33.266129,39.0965021 C34.1816129,33.4473251 32.2264516,29.9248971 30.0725806,27.8226337 C28.8034301,26.5405463 27.2568743,25.5576474 25.5483871,24.9473251 L25.5058065,24.9473251 C25.6406452,24.4960905 25.7754839,24.1323045 25.896129,23.8384774 C25.96,23.6985597 26.0132258,23.6006173 26.0451613,23.5376543 C29.0254209,22.7439426 31.4497145,20.6082293 32.5834513,17.7776619 C33.7171881,14.9470945 33.4269361,11.7548089 31.8006452,9.168107 C33.2554839,8.11872428 31.4032258,7.67098765 31.4032258,7.67098765 L31.4032258,7.67098765 C30.5689085,4.10537914 27.7566654,1.31399879 24.1454552,0.467059078 C20.5342449,-0.379880629 16.7481208,0.863979992 14.3743155,3.67718523 C12.0005102,6.49039047 11.449241,10.3867902 12.9516129,13.7329218 C12.7458065,16.6292181 13.4235484,20.3335391 17.646129,22.0230453 L17.646129,22.0230453 L17.8129032,22.1419753 C16.5864904,23.166435 15.1673033,23.9426071 13.6364516,24.4261317 C11.0070968,24.7199588 7.46225806,26.8432099 4.68032258,34.8045267 C1.87709677,42.8288066 1.25258065,54.5993827 1.25612903,63.5191358 C1.25612903,69.7804527 1.54709677,74.6950617 1.63935484,76.0417695 L1.30225806,76.0417695 C-2.68612903,87.7179012 6.34096774,118.86358 6.34096774,118.86358 L5.01387097,157.382922 L5.68096774,157.382922 L4.50290323,166.082305 C4.50290323,166.082305 8.46290323,167.680864 9.64806452,167.317078 C10.8332258,166.953292 12.9125806,168.425926 12.9125806,168.425926 C12.9125806,168.425926 21.7587097,171.182305 23.493871,168.705761 C24.153871,167.764815 23.9906452,167.068724 23.3625806,166.470576 C26.0806452,167.121193 30.7290323,167.932716 31.9354839,166.20823 C33.6741935,163.731687 29.7319355,162.976132 26.5348387,161.10823 C24.4448387,159.887449 23.1425806,156.389506 22.4932258,154.112346 L23.163871,154.112346 L31.3641935,113.931481 L31.3641935,87.7983539 C31.79,88.0058985 32.1921505,88.1901235 32.5706452,88.3510288 L32.5706452,169.331893 L36.19,169.331893 L36.19,89.4703704 C36.7356185,89.5510903 37.288278,89.3769921 37.6853002,88.9993225 C38.0823224,88.621653 38.2785155,88.083401 38.216129,87.5430041 C38.1877419,87.2806584 38.1487097,87.0253086 38.1025806,86.7769547 C39.2558065,87.3401235 40.1748387,89.2255144 40.6503226,90.6246914 C41.36,92.7654321 43.7870968,88.3650206 43.7870968,88.3650206 C41.8567742,84.5802469 39.7525806,83.3699588 37.8967742,83.3174897 Z" id="Path"></path>
                </g>
                <rect id="Rectangle" fill="#381E1D" x="148.883136" y="105" width="4" height="81"></rect>
                <path d="M148.883136,104.483598 C148.883136,104.483598 154.917608,97.7376046 159.883136,106.481697 C159.883136,106.481697 157.517739,110.375099 156.806314,108.479796 C156.094889,106.584493 154.397581,103.754388 152.407759,105.434462" id="Path" fill="#381E1D"></path>
                <path d="M148.032345,90 C148.032345,90 157.107734,98.7484847 152.652676,106.13833 C152.373931,106.602431 151.892095,106.914829 151.346709,106.985058 C150.801322,107.055286 150.253312,106.875497 149.861379,106.497759 C148.31882,105.006131 145.883781,101.300426 142.883136,92.1206269 L148.032345,90 Z" id="Path" fill="#FDA57D"></path>
                <path d="M143.405332,46 C143.405332,46 152.341301,48.7377407 150.624056,59.4623002 C148.906811,70.1868597 149.59231,77.7173883 149.59231,77.7173883 L151.883136,91.4095752 L147.756152,97 C147.756152,97 140.656341,89.9362109 138.2501,82.7365797 C135.843858,75.5369485 136.071192,47.1389837 143.405332,46 Z" id="Path" fill="#000000" opacity="0.1"></path>
                <path d="M143.398005,45 C143.398005,45 152.330642,47.7368062 150.614037,58.4577046 C148.897433,69.1786031 149.582676,76.7065611 149.582676,76.7065611 L151.883136,90.3940739 L147.750699,96 C147.750699,96 140.65004,88.9107667 138.248192,81.7240391 C135.846344,74.5373114 136.070097,46.1420769 143.398005,45 Z" id="Path" fill="#00B476"></path>
                <path d="M131.391715,169.133832 L129.883136,179.629583 C129.883136,179.629583 133.753595,181.101731 134.923734,180.770498 C136.093872,180.439265 138.117312,181.790965 138.117312,181.790965 C138.117312,181.790965 146.758336,184.330421 148.464938,182.048591 C150.171541,179.76676 146.304682,179.06749 143.183112,177.364481 C140.061542,175.661473 138.736585,169 138.736585,169 L131.391715,169.133832 Z" id="Path" fill="#000000"></path>
                <path d="M147.883136,90 L147.883136,130.938768 L140.300791,170 L132.276029,170 L133.501184,132.544556 C133.501184,132.544556 125.139505,102.256926 128.818371,90.9281807 L147.883136,90 Z" id="Path" fill="#333333"></path>
                <path d="M141.492283,96 C141.492283,96 153.053331,97.716811 153.874791,106.110109 C153.925565,106.635916 153.742709,107.156958 153.379071,107.522644 C153.015434,107.888331 152.511545,108.057903 152.013038,107.982352 C150.04692,107.685619 146.185382,106.1525 138.883136,100.620553 L141.492283,96 Z" id="Path" fill="#FDA57D"></path>
                <path d="M143.883136,44.0071978 C143.883136,44.0071978 141.986506,47.3082651 142.76627,53 C142.76627,53 131.556743,52.0340035 131.890441,45.431869 C131.890441,45.431869 137.355596,44.0662695 138.639312,39 L143.883136,44.0071978 Z" id="Path" fill="#FDA57D"></path>
                <path d="M123.391715,171.133832 L121.883136,181.629583 C121.883136,181.629583 125.753595,183.101731 126.923734,182.770498 C128.093872,182.439265 130.117312,183.790965 130.117312,183.790965 C130.117312,183.790965 138.758336,186.330421 140.464938,184.048591 C142.171541,181.76676 138.304682,181.06749 135.183112,179.364481 C132.061542,177.661473 130.736585,171 130.736585,171 L123.391715,171.133832 Z" id="Path" fill="#000000"></path>
                <path d="M138.883136,94 L138.883136,134.940574 L131.30466,174 L123.273788,174 L124.498317,136.542904 C124.498317,136.542904 116.140905,106.253937 119.817894,94.9246923 L138.883136,94 Z" id="Path" fill="#000000" opacity="0.1"></path>
                <path d="M138.883136,94 L138.883136,134.940574 L131.309349,174 L123.273042,174 L124.497363,136.542904 C124.497363,136.542904 116.141371,106.253937 119.817735,94.9246923 L138.883136,94 Z" id="Path" fill="#333333"></path>
                <path d="M135.387758,45.7576028 C135.387758,45.7576028 128.063337,41.06901 123.183938,55.019581 C118.304539,68.970152 120.27759,94.6998086 120.27759,94.6998086 C120.27759,94.6998086 141.083347,101.332963 148.524874,92.0709848 L148.524874,78.2321301 C148.524874,78.2321301 152.478075,62.452205 146.896042,48.7285578 C146.896042,48.7285578 142.013095,50.6731193 135.387758,45.7576028 Z" id="Path" fill="#000000" opacity="0.1"></path>
                <path d="M135.387758,45.7576028 C135.387758,45.7576028 128.063337,41.06901 123.183938,55.019581 C118.304539,68.970152 120.27759,94.6998086 120.27759,94.6998086 C120.27759,94.6998086 141.083347,101.332963 148.524874,92.0709848 L148.524874,78.2356213 C148.524874,78.2356213 152.478075,62.4556962 146.896042,48.7320489 C146.892494,48.7285578 142.013095,50.6731193 135.387758,45.7576028 Z" id="Path" fill="#000000" opacity="0.1"></path>
                <path d="M135.387758,45.7576028 C135.387758,45.7576028 128.063337,41.06901 123.183938,55.019581 C118.304539,68.970152 120.27759,94.6998086 120.27759,94.6998086 C120.27759,94.6998086 141.083347,101.332963 148.524874,92.0709848 L148.524874,78.2321301 C148.524874,78.2321301 152.478075,62.452205 146.896042,48.7285578 C146.892494,48.7285578 142.013095,50.6731193 135.387758,45.7576028 Z" id="Path" fill="#00B476"></path>
                <path d="M127.35789,53 C127.35789,53 136.219516,55.7367858 134.527782,66.5091661 C132.836049,77.2815465 133.503016,84.8278051 133.503016,84.8278051 L144.883136,96.3901134 L140.787543,102 C140.787543,102 124.630968,97.0751837 122.241004,89.8644696 C119.85104,82.6537556 120.076836,54.1429489 127.35789,53 Z" id="Path" fill="#000000" opacity="0.1"></path>
                <path d="M127.36083,53 C127.36083,53 136.234862,55.7435806 134.52952,66.5082026 C132.824177,77.2728245 133.504925,84.825535 133.504925,84.825535 L144.883136,96.3905136 L140.78823,102 C140.78823,102 124.634366,97.075535 122.24133,89.8618402 C119.848293,82.6481455 120.080998,54.1463623 127.36083,53 Z" id="Path" fill="#000000" opacity="0.1"></path>
                <path d="M127.346886,53 C127.346886,53 136.220944,55.7472716 134.515596,66.5091661 C132.810249,77.2710607 133.490999,84.8278051 133.490999,84.8278051 L144.883136,96.3901134 L140.788218,102 C140.788218,102 124.634306,97.0751837 122.244736,89.8644696 C119.855166,82.6537556 120.067032,54.1429489 127.346886,53 Z" id="Path" fill="#00B476"></path>
                <path d="M137.510262,39 L142.883136,44.1741472 C142.795862,44.3374834 142.716679,44.5052625 142.645892,44.6768402 C141.866334,44.8911889 141.062911,44.9998277 140.25601,45 C138.204549,45 136.418243,43.9228007 134.883136,42.7666068 C135.954222,41.7755835 136.878775,40.7953321 137.510262,39 Z" id="Path" fill="#000000" opacity="0.1"></path>
                <circle id="Oval" fill="#E0E0E0" cx="138.383136" cy="30.5" r="9.5"></circle>
                <circle id="Oval" fill="#FDA57D" cx="141.383136" cy="35.5" r="9.5"></circle>
                <path d="M130.6966,31 C130.6966,31 127.25348,40.1764706 134.534604,43 L134.534604,43 C135.764821,42.3603167 136.619185,41.1581342 136.831775,39.7676335 C137.044366,38.3771328 136.589373,36.9671226 135.608414,35.9764706 L130.6966,31 Z" id="Path" fill="#E0E0E0"></path>
                <path d="M147.944905,28.8016334 C147.944905,28.8016334 151.247216,29.5912354 145.460961,31.5723537 C143.53943,32.2121329 141.972919,33.6095134 141.134789,35.4314443 C140.610942,36.5438306 139.64389,37.3927789 138.463133,37.7768156 C137.282377,38.1608524 135.99318,38.0457413 134.901496,37.4588006 L133.070083,36.466463 L129.883136,29.1252991 L133.657721,24.8144993 L140.14698,24 L147.944905,28.8016334 Z" id="Path" fill="#E0E0E0"></path>
                <ellipse id="Oval" fill="#FDA57D" cx="138.883136" cy="39" rx="1" ry="2"></ellipse>
                <path d="M134.883136,46 C134.883136,46 141.176923,56 144.755744,56 C148.334564,56 142.248807,46.6214286 142.248807,46.6214286 L142.104243,49.2142857 L134.883136,46 Z" id="Path" fill="#333333"></path>
                <g id="Group" opacity="0.5" transform="translate(7.883136, 83.000000)" fill="url(#linearGradient-6)">
                    <path d="M162.357699,49.7762238 C141.633785,49.7762238 120.17285,47.6783217 98.1949533,43.4615385 C39.0935514,32.1468531 7.15713785,10.2027972 5.41064252,9.26223776 L0.143212617,0.48951049 L0.143212617,0.48951049 C0.635724299,0.755244755 42.604007,23.1013986 100.26979,34.0944056 C153.192091,44.1853147 230.624708,46.5034965 298.986028,0.244755245 L297.484042,10.8076923 C266.047126,32.0909091 237.055304,42.7412587 197.78361,47.6258741 C186.030554,49.0730602 174.199331,49.7912144 162.357699,49.7762238 L162.357699,49.7762238 Z" id="Path"></path>
                </g>
                <path d="M170.18484,131.999892 C149.449784,131.999892 127.977311,129.882748 105.987596,125.627288 C46.8544174,114.208823 14.9008325,92.0634928 13.1533982,91.1143064 L7.88313609,82.2470002 L7.88313609,82.2470002 C8.37591259,82.5151718 50.3667605,105.066288 108.063548,116.160124 C161.01081,126.34006 238.48506,128.679504 306.883136,82 L305.380343,92.6598218 C273.926524,114.138251 244.919113,124.886287 205.626304,129.815705 C193.868376,131.280738 182.031962,132.010193 170.18484,131.999892 Z" id="Path" fill="#F55F44"></path>
                <g id="Group" opacity="0.5" transform="translate(0.883136, 70.000000)" fill="url(#linearGradient-1)">
                    <path d="M18.2632432,101.888602 L16.5732432,101.888602 L16.5732432,13.5762918 C19.4157529,11.9436097 20.8015951,8.61510032 19.952087,5.46100066 C19.1025788,2.30690099 16.2295447,0.113684199 12.9472973,0.113684199 C9.66504985,0.113684199 6.79201578,2.30690099 5.94250763,5.46100066 C5.09299948,8.61510032 6.47884168,11.9436097 9.32135135,13.5762918 L9.32135135,101.888602 L7.63135135,101.888602 C3.41667238,101.888602 -2.84217094e-14,105.2877 -2.84217094e-14,109.480699 L-2.84217094e-14,114.769301 L25.8981081,114.769301 L25.8981081,109.480699 C25.8981083,107.466544 25.093611,105.534934 23.661695,104.111039 C22.229779,102.687144 20.2878121,101.887674 18.2632432,101.888602 Z" id="Path"></path>
                </g>
                <rect id="Rectangle" fill="#E0E0E0" x="10.8831361" y="75" width="7" height="98"></rect>
                <path d="M7.59649207,170 L19.162706,170 C22.874297,170 25.8831361,172.888485 25.8831361,176.451613 L25.8831361,182 L0.883136095,182 L0.883136095,176.448217 C0.88508533,172.889066 3.8890445,170.003746 7.59649207,170 Z" id="Path" fill="#E0E0E0"></path>
                <circle id="Oval" fill="#000000" opacity="0.1" cx="13.8831361" cy="80" r="7"></circle>
                <circle id="Oval" fill="#E0E0E0" cx="13.8831361" cy="80" r="7"></circle>
                <path d="M10.8831361,170 C10.8831361,170 15.3823781,172.25 17.8831361,170" id="Path" fill="#000000" opacity="0.1"></path>
                <rect id="Rectangle" fill="#E0E0E0" x="300.883136" y="75" width="7" height="98"></rect>
                <path d="M299.596492,170.003395 L311.162706,170.003395 C314.874297,170.003395 317.883136,172.891063 317.883136,176.453182 L317.883136,182 L292.883136,182 L292.883136,176.449788 C292.883136,172.887668 295.891975,170 299.603566,170 L299.596492,170.003395 Z" id="Path" fill="#E0E0E0"></path>
                <circle id="Oval" fill="#000000" opacity="0.1" cx="304.883136" cy="80" r="7"></circle>
                <circle id="Oval" fill="#E0E0E0" cx="304.883136" cy="80" r="7"></circle>
                <path d="M300.883136,170 C300.883136,170 305.382378,172.25 307.883136,170" id="Path" fill="#000000" opacity="0.1"></path>
            </g>
        </g>
    </g>
</svg>