<svg width="83" height="83" viewBox="0 0 83 83" fill="none" xmlns="http://www.w3.org/2000/svg">
<path fill-rule="evenodd" clip-rule="evenodd" d="M41.5 0C18.6211 0 0 18.6211 0 41.5C0 64.3789 18.6211 83 41.5 83C64.3789 83 83 64.3789 83 41.5C83 18.6211 64.3789 0 41.5 0ZM41.5 6.91667C60.6408 6.91667 76.0833 22.3592 76.0833 41.5C76.0833 60.6408 60.6408 76.0833 41.5 76.0833C22.3592 76.0833 6.91667 60.6408 6.91667 41.5C6.91667 22.3592 22.3592 6.91667 41.5 6.91667ZM20.75 39.7708C20.75 36.9059 23.0725 34.5833 25.9375 34.5833C28.8025 34.5833 31.125 36.9059 31.125 39.7708C31.125 42.6358 28.8025 44.9583 25.9375 44.9583C23.0725 44.9583 20.75 42.6358 20.75 39.7708ZM57.0625 34.5833C54.1975 34.5833 51.875 36.9059 51.875 39.7708C51.875 42.6358 54.1975 44.9583 57.0625 44.9583C59.9275 44.9583 62.25 42.6358 62.25 39.7708C62.25 36.9059 59.9275 34.5833 57.0625 34.5833ZM29.308 55.9953C32.088 53.972 36.2549 51.875 41.5 51.875C46.7451 51.875 50.912 53.972 53.692 55.9953C54.6915 56.7227 55.2268 57.9282 55.0964 59.1574C54.9659 60.3867 54.1894 61.4529 53.0595 61.9543C51.9296 62.4557 50.618 62.3161 49.619 61.5881C47.6472 60.153 44.9007 58.7917 41.5 58.7917C38.0993 58.7917 35.3528 60.153 33.381 61.5881C31.8366 62.7121 29.6735 62.3716 28.549 60.8275C27.4245 59.2835 27.7643 57.1202 29.308 55.9953Z" fill="#7F879D"/>
</svg>
