<svg width="230" height="180" viewBox="0 0 230 180" fill="none" xmlns="http://www.w3.org/2000/svg">
<path opacity="0.1" d="M81 176C103.091 176 121 172.642 121 168.5C121 164.358 103.091 161 81 161C58.9086 161 41 164.358 41 168.5C41 172.642 58.9086 176 81 176Z" fill="#7F879D"/>
<path opacity="0.1" d="M133.632 25.3879C118.887 24.8774 104.844 20.1142 91.4342 14.9042C78.0244 9.69432 64.7422 3.92376 50.3504 1.16383C41.0939 -0.611554 30.5068 -0.864529 23.0501 4.09469C15.8713 8.8807 13.552 17.1195 12.3058 24.7703C11.3672 30.5271 10.8158 36.5871 13.3857 41.9771C15.1718 45.7193 18.3386 48.8644 20.5303 52.4494C28.1556 64.9203 22.7653 80.2994 14.5043 92.4764C10.6313 98.1877 6.13173 103.644 3.14037 109.717C0.149023 115.791 -1.23388 122.774 1.38384 128.987C3.97649 135.14 10.1574 139.753 16.8532 143.001C30.4521 149.599 46.4705 151.486 62.1017 152.557C96.6924 154.922 131.465 153.899 166.147 152.871C178.983 152.493 191.873 152.108 204.5 150.123C211.512 149.02 218.75 147.269 223.842 143.044C230.303 137.681 231.905 128.602 227.574 121.878C220.311 110.597 200.235 107.796 195.152 95.6921C192.359 89.0282 195.227 81.6076 199.289 75.429C208.001 62.1718 222.603 50.5418 223.37 35.3906C223.899 24.9845 216.88 14.5624 206.026 9.63735C194.651 4.47529 178.874 5.12482 170.485 13.669C161.839 22.457 146.652 25.8414 133.632 25.3879Z" fill="#7F879D"/>
<path fill-rule="evenodd" clip-rule="evenodd" d="M115.036 76.9361L122 81.6512L115.036 82.8066V99.3379L108.308 100.617L105.036 101.238L97.4731 102.676L89.0808 101.824L85.4291 101.455L84.3173 101.34L80.6656 100.964L76.6411 100.555V120.82C76.6411 120.82 77.1459 126.119 76.6411 127.213C76.3319 127.884 75.2428 128.973 74.4515 129.711C74.4558 130.462 74.5136 131.212 74.6243 131.955C75.1677 134.412 72.7621 136.718 72.7621 136.718C72.5424 136.749 72.3281 136.81 72.1255 136.901L71.5934 149.169C71.5934 149.169 70.6612 152.126 71.166 152.971C71.3051 153.206 71.4708 153.44 71.6311 153.666C71.966 154.14 72.2778 154.581 72.2778 154.923C73.2532 155.277 75.9658 156.316 76.8253 157.243C77.4335 157.903 77.8886 157.854 78.5519 157.784C78.9822 157.739 79.5 157.684 80.2041 157.807C80.2731 157.819 80.342 157.834 80.414 157.85C80.4369 157.854 80.4601 157.859 80.4837 157.864C80.5548 157.88 80.6244 157.896 80.6928 157.912C82.2588 158.265 83.1281 158.461 83.6488 159.796C83.7576 160.089 83.845 160.39 83.9103 160.696C84.2688 162.319 82.6312 162.756 80.9834 163.196C80.3531 163.365 79.7212 163.533 79.1991 163.769C77.3119 164.621 73.06 163.769 73.06 163.769L71.266 163.657L68.2533 163.465C68.4892 163.682 68.782 163.825 69.0968 163.879C69.0825 163.923 69.0662 163.966 69.0501 164.009C69.0355 164.048 69.0211 164.086 69.0082 164.125C70.12 164.518 73.3851 165.758 74.4106 166.865C75.1266 167.642 75.6627 167.586 76.4439 167.503C76.9502 167.45 77.5595 167.385 78.3874 167.53C78.4897 167.548 78.6011 167.571 78.7171 167.596C78.7933 167.613 78.8683 167.63 78.9419 167.647C80.7978 168.069 81.8246 168.302 82.4392 169.879C82.5679 170.224 82.6712 170.577 82.7484 170.936C83.1694 172.847 81.2363 173.364 79.2979 173.882C78.5565 174.08 77.8142 174.279 77.2027 174.556C74.9927 175.556 69.9904 174.556 69.9904 174.556L67.8781 174.423C65.1519 174.252 60.5567 173.957 58.9355 173.827C56.5685 173.633 57.1506 172.674 57.1506 172.674V168.107C57.1002 168.084 57.0523 168.056 57.0074 168.023C56.1684 167.331 57.0074 153.738 57.0074 153.738C57.0074 153.738 59.0901 132.999 60.7181 132.079C61.6823 131.534 61.5315 130.908 61.3611 130.201C61.2438 129.714 61.1173 129.188 61.3388 128.624C61.8823 127.24 60.7977 123.477 60.7977 123.477C60.7977 123.477 60.3293 119.02 59.1674 116.872C58.0055 114.723 58.1579 108.809 58.1579 108.809C58.1579 108.809 54.9064 104.498 53.931 102.818C52.9556 101.137 52.3394 96.76 52.5667 93.456C52.7236 91.2229 53.9083 87.9715 54.6609 86.1014C53.7673 86.2635 52.1757 86.3937 51.2662 85.6036C50.0838 84.6013 53.1784 80.9182 53.9492 80.0346C53.8394 79.0882 53.7984 78.1351 53.8264 77.1827L53.0715 70.2825C53.0715 70.2825 52.6054 66.3072 51.9074 64.1768C51.7208 63.5707 51.5862 62.9496 51.5049 62.3205C51.2454 60.3737 51.3784 58.3944 51.896 56.5003C52.1173 55.6959 52.2575 54.8713 52.3144 54.0388C52.4303 51.9062 59.006 43.6702 60.634 42.9213C61.2683 42.6319 61.7985 42.1536 62.1528 41.5513C62.2248 41.3802 62.2811 41.2029 62.3211 41.0215C62.4149 40.5682 62.5815 40.1333 62.8145 39.7337C63.6126 37.8112 65.0178 38.7542 65.0178 38.7542L65.0178 38.7541C65.0451 38.6993 65.0723 38.6446 65.0973 38.5898C65.2633 38.245 65.427 37.8819 65.5862 37.5143C65.4505 37.5854 65.3048 37.6354 65.1542 37.6627C64.7523 37.6963 64.3497 37.6072 63.9991 37.407C63.7756 37.327 63.5916 37.1634 63.4853 36.9503C63.4671 36.8959 63.4587 36.8387 63.4602 36.7814C63.4452 36.541 63.6063 36.3173 63.771 36.0885C63.9052 35.9021 64.0419 35.7123 64.0878 35.5073C64.1191 35.3272 64.1059 35.1421 64.0491 34.9684C64.0501 34.9729 64.0501 34.9776 64.0491 34.9821C63.9648 34.746 63.9128 34.4994 63.8945 34.2492C63.8913 34.1656 63.9028 34.0821 63.9286 34.0026C63.9869 33.824 64.1147 33.683 64.2433 33.5409C64.3203 33.4559 64.3977 33.3705 64.4607 33.2765C64.7063 32.9088 64.6972 32.475 64.6653 32.0183V32.032C64.662 31.9899 64.6582 31.9476 64.6544 31.9052C64.6428 31.7755 64.6312 31.6451 64.6312 31.516C64.6071 31.2242 64.6427 30.9304 64.7358 30.6529C64.8605 30.3207 65.1088 30.0608 65.3585 29.7994C65.5413 29.608 65.7249 29.4158 65.8613 29.1939C65.9397 29.0613 66.0066 28.9223 66.0614 28.7783H66.0205L66.1137 26.7986C65.9408 26.7731 65.7661 26.8316 65.643 26.9562C65.5923 27.0248 65.5545 27.1022 65.5316 27.1845C65.4983 27.2819 65.469 27.3814 65.4397 27.4809C65.425 27.5306 65.4104 27.5803 65.3952 27.6298L65.4202 27.6024C65.3836 27.7169 65.3364 27.8278 65.2792 27.9335L65.2497 27.9746V27.9928C65.1182 28.2584 64.8445 28.4225 64.5494 28.413C64.6619 28.119 64.7383 27.8122 64.7767 27.4996C64.5327 27.6028 64.2676 27.6459 64.0037 27.6252L64.0423 27.5636C64.0925 27.4967 64.1381 27.4265 64.1787 27.3535C64.3246 27.0964 64.4254 26.816 64.4766 26.5246C64.4942 26.2861 64.5584 26.0534 64.6653 25.8396C64.6994 25.771 64.7465 25.7097 64.804 25.6593V25.7026C64.9976 25.5976 65.2051 25.5207 65.4202 25.4743C65.7022 25.3683 65.9587 25.118 66.2197 24.8632C66.4197 24.6681 66.6224 24.4703 66.8413 24.3326L66.8777 23.949C68.5944 20.6656 74.7016 21.0104 74.7016 21.0104C84.0899 22.4512 84.9994 28.7532 84.9994 29.9679C84.9994 31.1826 88.6374 32.7079 88.6374 32.7079C88.6374 32.7079 89.7879 33.007 89.9653 33.4317C89.9653 33.4317 90.4655 34.087 90.0107 34.6853C89.9288 34.7908 89.8305 34.8826 89.7197 34.957C89.2844 35.2299 88.796 35.4059 88.2872 35.473C88.1797 35.4926 88.0712 35.5055 87.9621 35.5118H87.9052C87.8181 35.5164 87.7309 35.5164 87.6438 35.5118H87.5778C87.4803 35.5077 87.3831 35.4978 87.2868 35.4822H87.2754C87.1731 35.4662 87.0731 35.4456 86.973 35.4205L86.923 35.4068C86.8411 35.384 86.7638 35.3589 86.6842 35.3315L86.6138 35.3063C86.5395 35.2759 86.4637 35.2439 86.3864 35.2104L86.3409 35.1922C86.25 35.1488 86.159 35.1031 86.0703 35.0552L86.043 35.0392C85.9845 35.0054 85.9246 34.9688 85.8655 34.9326C85.8488 34.9224 85.8322 34.9122 85.8157 34.9022L85.752 34.8611L85.5565 34.7264L85.5064 34.6898C85.3518 34.5711 85.1972 34.4455 85.0517 34.3154L85.0039 34.272L84.8334 34.1122C84.8194 34.0966 84.8042 34.082 84.7879 34.0688C84.6515 33.9341 84.5242 33.7971 84.4037 33.6623L84.3718 33.6258C84.3566 33.6083 84.3413 33.591 84.3261 33.5738C84.2938 33.5372 84.2618 33.501 84.2309 33.4637L84.1899 33.4157L84.0626 33.2582L84.0422 33.2331C84.0057 33.1839 83.9704 33.1375 83.9364 33.0929C83.8773 33.0151 83.8221 32.9425 83.7716 32.87C83.3464 32.6417 82.9212 32.4134 82.5006 32.185C82.5032 32.2085 82.5065 32.2323 82.5098 32.2561C82.5176 32.3131 82.5256 32.3707 82.5256 32.4271C82.5483 32.6257 82.5483 32.8266 82.5483 33.0276C82.5483 37.3773 79.1491 40.9348 74.8403 41.2476C74.7175 41.4028 74.6039 41.5627 74.4902 41.7271C73.8121 42.707 73.2043 43.734 72.6712 44.8005L75.9908 48.7392L75.5816 52.4336C77.3596 55.0869 77.7644 59.0667 77.7644 62.0693C77.7666 62.7817 77.7462 63.437 77.7166 64.0079C78.0114 65.891 78.2019 67.7891 78.2873 69.6934L78.3692 71.52L85.27 70.6866L93.5441 75.3446L100.154 70.2117L118.548 71.6844L115.036 76.9361ZM66.6094 26.8717L66.5191 26.862C66.5496 26.8657 66.5797 26.869 66.6094 26.8717ZM66.5191 26.862C66.4883 26.8583 66.4572 26.8543 66.4259 26.8503C66.3309 26.8381 66.2343 26.8256 66.141 26.8215L66.5191 26.862Z" fill="url(#paint0_linear)"/>
<path d="M104.814 93.0572C102.646 96.2396 94.8528 94.5539 94.8528 94.5539L88.813 88.7562L88 87.9711L89.3636 85C89.3636 85 89.7972 85.1223 90.5408 85.3403C94.4452 86.5034 106.644 90.3819 104.814 93.0572Z" fill="#EFB7B9"/>
<path opacity="0.1" d="M90 85.3623C89.7897 86.376 89.2137 87.894 88.641 89L88 88.164L89.0752 85C89.0752 85 89.4205 85.1303 90 85.3623Z" fill="black"/>
<path d="M68.5764 51.0955C68.5764 51.0955 62.723 53.6854 63.0102 60.0451C63.2169 64.1423 63.6644 68.2239 64.3505 72.2689C64.3505 72.2689 63.1538 81.8391 68.1365 84.3062C73.1192 86.7732 77.7304 88.8014 77.7304 88.8014C77.7304 88.8014 85.5258 89.6382 86.4945 89.9838C87.4633 90.3294 90.4903 85.0452 89.9318 84.2221C89.3734 83.399 82.2184 81.6732 81.3067 80.2998C80.395 78.9265 78.2865 78.0783 78.2865 78.0783C78.2865 78.0783 76.1097 76.7641 75.9616 75.5772C75.8134 74.3903 76.3878 73.5058 76.5337 72.9851C76.6796 72.4644 77.0488 67.4371 77.0488 67.4371C77.0488 67.4371 79.506 49.5426 68.5764 51.0955Z" fill="#DCE6F2"/>
<path opacity="0.1" d="M72 72C72 72 64.3061 73.2946 65.0508 76C65.0508 76 67.844 73.0795 72 72Z" fill="black"/>
<path opacity="0.1" d="M73 72C73 72 68.1791 75.7988 69.1223 75.9934C70.0656 76.188 73 72 73 72Z" fill="black"/>
<path opacity="0.1" d="M74.9332 74C74.9332 74 73.3383 77.2066 74.3186 76.9894C75.2989 76.7722 74.9332 74 74.9332 74Z" fill="black"/>
<path opacity="0.1" d="M90.9944 85.176L90.5131 85.0381C90.6503 84.5857 90.6885 84.2192 90.5761 84.0496C90.0251 83.2308 82.9697 81.5162 82.0723 80.1477C81.1749 78.7792 79.0923 77.9378 79.0923 77.9378C79.0923 77.9378 76.9444 76.6303 76.7982 75.4496C76.652 74.2689 77.2188 73.389 77.3627 72.871C77.5067 72.353 77.871 67.3495 77.871 67.3495C77.871 67.3495 80.2888 49.5501 69.5044 51.0951C69.5044 51.0951 63.7288 53.6737 64.0099 60.0004C64.2139 64.0765 64.6563 68.1369 65.3346 72.1607C65.3346 72.1607 64.1539 81.6813 69.0704 84.1355C73.9869 86.5898 78.5368 88.6074 78.5368 88.6074C78.5368 88.6074 86.2264 89.4376 87.1845 89.7837C87.5466 89.9149 88.2011 89.2385 88.842 88.3089L89.2064 88.6504L95.4723 94.5451C95.4723 94.5451 103.558 96.2619 105.807 93.0251C107.707 90.3017 95.054 86.3568 90.9944 85.176Z" fill="black"/>
<path d="M65.3249 27.2407C65.1094 27.282 64.9031 27.3601 64.7153 27.4715C64.4952 27.6506 64.4952 27.9569 64.4402 28.2244C64.3755 28.5965 64.225 28.9492 64 29.2555C64.2504 29.2735 64.5016 29.2329 64.7329 29.1369C64.6952 29.4321 64.6213 29.7219 64.5128 29.9998C64.7929 30.0068 65.0512 29.8523 65.173 29.605C65.2895 29.3619 65.3816 29.1083 65.4481 28.8478C65.4688 28.7699 65.5047 28.6966 65.5538 28.6321C65.7562 28.397 66.1326 28.5027 66.4451 28.5329C66.9747 28.5766 67.4869 28.3355 67.7832 27.903C68.1155 27.409 68.1353 26.1448 67.343 26.0111C66.5155 25.8773 66.0005 26.9948 65.3249 27.2407Z" fill="#965D7B"/>
<g opacity="0.1">
<path d="M64.6883 27.4272C64.7073 27.3047 64.7199 27.1772 64.7431 27.0547C64.5431 27.2622 64.5326 27.6147 64.4799 27.9272C64.4534 28.1075 64.4118 28.2842 64.3557 28.4547C64.5215 28.1409 64.6344 27.792 64.6883 27.4272Z" fill="black"/>
<path d="M64.7558 29.4922C64.8607 29.1705 64.9314 28.8346 64.9664 28.4922C64.7556 28.5975 64.5273 28.6446 64.299 28.6297C64.2325 28.8055 64.1514 28.973 64.0569 29.1297C64.2956 29.1516 64.5353 29.1053 64.7558 28.9947C64.7209 29.3371 64.6501 29.673 64.5453 29.9947C64.8131 30.0021 65.0599 29.8234 65.1769 29.5372C65.2293 29.4236 65.2717 29.3037 65.3032 29.1797C65.1777 29.388 64.9713 29.5059 64.7558 29.4922Z" fill="black"/>
<path d="M66.6042 27.7922C66.3053 27.7572 65.9432 27.6347 65.7495 27.9072C65.7034 27.9826 65.6691 28.0673 65.6484 28.1572C65.6295 28.2222 65.6126 28.2897 65.5979 28.3572C65.7979 28.1697 66.1221 28.2697 66.3937 28.3022C66.9001 28.3513 67.3894 28.0722 67.6737 27.5722C67.7375 27.4508 67.7851 27.3184 67.8147 27.1797C67.522 27.61 67.0684 27.8395 66.6042 27.7922Z" fill="black"/>
</g>
<path d="M72.2659 45L76 49.4792L75.5127 54L71 46.9539L72.2659 45Z" fill="#DCE6F2"/>
<path opacity="0.1" d="M76 49.4792L75.5419 53.7313L75.5125 54L71.4385 47.6402L71 46.9539L71.1274 46.756L72.2641 45L72.5164 45.3028L76 49.4792Z" fill="black"/>
<path d="M78.3994 40.2088C77.2232 40.5497 76.0994 41.7201 75.1215 43.1415C74.4606 44.1223 73.8695 45.1493 73.3527 46.2148C73.0313 46.8645 72.7486 47.4888 72.5138 48.0325L72.3497 48.4196C71.9531 49.3665 71.732 50 71.732 50C71.732 50 62.7282 43.1577 64.1528 42.6969C64.6315 42.5425 65.2607 41.5058 65.8829 40.1996L65.9604 40.0337C66.3548 39.1951 66.7423 38.2598 67.0865 37.3797C67.7908 35.5712 68.3128 34 68.3128 34C68.3128 34 81.9895 39.1721 78.3994 40.2088Z" fill="#EFB7B9"/>
<path d="M84 34C84 34 85.8482 38.564 88.3307 37.9417C90.8133 37.3193 89.7919 35.4909 89.7919 35.4909L84 34Z" fill="#444053"/>
<path d="M79.4237 163.636C77.6172 164.455 73.5325 163.636 73.5325 163.636L71.811 163.53C69.5753 163.388 65.8326 163.148 64.5091 163.042C62.5774 162.884 63.0514 162.099 63.0514 162.099V157.355L72.4236 155C72.4236 155 76.1282 156.258 77.1432 157.355C78.1068 158.402 78.6702 157.597 80.3895 157.899C80.4745 157.914 80.5639 157.932 80.6578 157.954C82.2899 158.325 83.1753 158.471 83.6984 159.813C83.8035 160.095 83.888 160.384 83.9511 160.678C84.434 162.838 81.2279 162.822 79.4237 163.636Z" fill="#A36468"/>
<path opacity="0.1" d="M84 160.039C83.6593 160.261 83.3011 160.453 82.9294 160.611C81.6818 161.204 80.4955 161.928 79.2343 162.488C77.9731 163.048 76.6144 163.447 75.2488 163.341C74.5343 163.286 73.8039 163.104 73.1212 163.317C72.6989 163.487 72.3012 163.717 71.9394 164C69.6711 163.849 65.8739 163.594 64.5311 163.48C62.5712 163.312 63.0521 162.476 63.0521 162.476V161.885C63.1224 161.885 63.2018 161.864 63.2926 161.857C63.762 161.849 64.2294 161.921 64.6762 162.072C65.6607 162.351 66.6406 162.625 67.625 162.899C67.7887 162.255 68.1987 161.71 68.7592 161.391C69.3211 161.08 69.9517 160.93 70.5875 160.954C72.114 160.975 73.5589 161.729 75.0833 161.805C75.5094 161.845 75.9385 161.771 76.3286 161.587C76.5372 161.479 76.721 161.32 76.9251 161.2C77.2518 161.035 77.597 160.914 77.9527 160.838C78.9523 160.579 79.9337 160.249 80.8901 159.85C81.1623 159.739 81.4799 159.538 81.4436 159.236C81.396 158.834 80.7903 158.787 80.6316 158.418C80.5748 158.284 80.5815 158.129 80.6497 158C80.7359 158.017 80.8266 158.035 80.9219 158.059C82.571 158.454 83.4692 158.61 84 160.039Z" fill="black"/>
<path d="M77.5492 174.556C75.4002 175.555 70.5368 174.556 70.5368 174.556L68.4896 174.434C65.8384 174.261 61.3731 173.973 59.7964 173.837C57.4959 173.644 58.0614 172.686 58.0614 172.686V166.879L69.2202 164C69.2202 164 73.6313 165.536 74.8392 166.879C75.9861 168.157 76.6489 167.174 78.7051 167.542C78.8069 167.561 78.9132 167.584 79.0241 167.609C80.9672 168.07 82.0213 168.243 82.6434 169.882C82.7693 170.227 82.8699 170.58 82.9443 170.94C83.5052 173.579 79.6982 173.558 77.5492 174.556Z" fill="#A36468"/>
<path opacity="0.1" d="M83 170.031C82.5944 170.252 82.1683 170.444 81.7261 170.603C80.2411 171.196 78.8273 171.919 77.3262 172.479C75.8251 173.04 74.207 173.438 72.5797 173.333C71.7304 173.279 70.8605 173.092 70.0549 173.309C69.5501 173.481 69.0751 173.714 68.6433 174C65.9533 173.849 61.4226 173.598 59.8228 173.48C57.4885 173.311 58.0623 172.475 58.0623 172.475V171.885C58.1574 171.871 58.2531 171.862 58.3492 171.857C58.9084 171.848 59.4653 171.92 59.9972 172.072L63.5066 172.899C63.7042 172.254 64.1964 171.709 64.8677 171.391C65.5367 171.079 66.2883 170.927 67.0459 170.953C68.8637 170.975 70.5828 171.728 72.3983 171.804C72.9039 171.845 73.4129 171.771 73.8765 171.59C74.1266 171.479 74.3355 171.32 74.588 171.202C74.9762 171.036 75.3874 170.914 75.8113 170.84C76.995 170.579 78.1574 170.249 79.2909 169.852C79.6145 169.74 79.9932 169.539 79.9496 169.237C79.8923 168.836 79.1716 168.787 78.9811 168.418C78.916 168.283 78.9244 168.129 79.004 168C79.1073 168.016 79.2152 168.036 79.3276 168.058C81.2992 168.444 82.3688 168.601 83 170.031Z" fill="black"/>
<path d="M71.9399 135L71.3745 149.611C71.3745 149.611 70.5274 152.594 70.9869 153.448C71.4465 154.301 72.2216 155.152 71.9399 155.657C71.6583 156.161 68.2698 161.617 67.175 159.524C66.0801 157.431 65 148.362 65 148.362L66.0102 137.16L71.9399 135Z" fill="#444053"/>
<path d="M74.2073 100L75.7938 102.225V121.579C75.7938 121.579 76.2578 126.738 75.7938 127.804C75.3298 128.869 72.9778 131 72.9778 131L71 120.345L71.4276 109.073L74.2073 100Z" fill="#444053"/>
<path opacity="0.1" d="M71.9399 135L71.3745 149.611C71.3745 149.611 70.5274 152.594 70.9869 153.448C71.4465 154.301 72.2216 155.152 71.9399 155.657C71.6583 156.161 68.2698 161.617 67.175 159.524C66.0801 157.431 65 148.362 65 148.362L66.0102 137.16L71.9399 135Z" fill="black"/>
<path opacity="0.1" d="M74.2073 100L75.7938 102.225V121.579C75.7938 121.579 76.2578 126.738 75.7938 127.804C75.3298 128.869 72.9778 131 72.9778 131L71 120.345L71.4276 109.073L74.2073 100Z" fill="black"/>
<path d="M76 90.5258V101.271L74.0693 109.636C74.0693 109.636 73.4505 129.821 73.9905 132.275C74.5306 134.73 72.1363 137.034 72.1363 137.034C72.1363 137.034 70.7457 137.189 70.7457 138.262C70.7457 139.335 68.428 142.406 68.428 142.406L68.5045 148.392C68.5045 148.392 69.5104 159.598 67.9644 161.746C66.4185 163.894 68.5045 164.203 68.5045 164.203C66.5738 170.495 57.3029 169.038 56.4662 168.347C55.6295 167.656 56.4662 154.072 56.4662 154.072C56.4662 154.072 58.5382 133.351 60.1606 132.43C61.7831 131.509 60.2395 130.357 60.7795 128.976C61.3195 127.595 60.2395 123.835 60.2395 123.835C60.2395 123.835 59.7759 119.382 58.617 117.234C57.4582 115.086 57.6111 109.175 57.6111 109.175C57.6111 109.175 54.3663 104.877 53.4022 103.189C52.438 101.501 51.8168 97.1268 52.0486 93.8251C52.2062 91.5941 53.3859 88.3454 54.1346 86.4758C54.4938 85.5802 54.7534 85 54.7534 85L54.9736 85.0576L67.633 88.35L76 90.5258Z" fill="#444053"/>
<path opacity="0.1" d="M78.3952 40.1177C77.2107 40.4528 76.079 41.603 75.0942 43H74.8371C71.8989 43.002 69.1841 41.4534 67.7208 38.9404C67.4204 38.4288 67.1786 37.8858 67 37.3215C67.7093 35.5442 68.235 34 68.235 34C68.235 34 82.0107 39.0989 78.3952 40.1177Z" fill="black"/>
<path d="M82 33.9964C82.0054 37.3477 79.9164 40.3463 76.7683 41.506C73.6201 42.6657 70.082 41.7399 67.9074 39.1876C65.7329 36.6353 65.3841 32.9988 67.0339 30.0805C67.2764 29.6478 67.5597 29.2392 67.8798 28.8602C68.4075 28.2323 69.0277 27.6882 69.7192 27.2465C72.0952 25.7384 75.0899 25.5887 77.6048 26.8522C80.1197 28.1157 81.7846 30.6064 81.9888 33.4108C81.9933 33.6075 82 33.8019 82 33.9964Z" fill="#EFB7B9"/>
<path opacity="0.1" d="M75 53.7534L74.973 54L71.2346 48.1704C70.8434 49.0919 70.6254 49.7085 70.6254 49.7085C70.6254 49.7085 61.7457 43.0404 63.1507 42.5919C63.6228 42.4417 64.2433 41.4327 64.857 40.1614L64.9334 40C65.5853 41.9372 69.3732 45.8094 70.9491 47.361C71.1312 47.5404 71.2818 47.6883 71.3987 47.796L71.6392 48.0202L71.7651 48.1457C72.3384 48.7354 74.7572 51.3363 75 53.7534Z" fill="black"/>
<path d="M77 74.2358L76.5982 87.6171L76.5276 90C76.5276 90 71.7684 89.5431 67.327 89.0404C63.7509 88.6361 60.3802 88.1997 59.8614 87.9438C59.1992 87.6217 57.7798 87.3726 56.6606 87.215C55.7953 87.0939 55.1154 87.0299 55.1154 87.0299C55.1154 87.0299 54.8615 87.1076 54.4708 87.1807C53.6188 87.3407 52.1221 87.4709 51.2502 86.6872C50.1354 85.6843 53.0647 82.0402 53.7953 81.1652L53.9565 80.9756L53.6806 78.3368L52.9631 71.4942C52.9631 71.4942 52.5217 67.5532 51.8594 65.4399C51.6824 64.839 51.5546 64.2238 51.4775 63.6007C51.2315 61.6706 51.3575 59.7091 51.8484 57.8296C52.0581 57.031 52.1912 56.213 52.2457 55.3873C52.3561 53.274 58.5921 45.1063 60.1373 44.3638C60.8324 44.0283 61.3918 43.4511 61.7179 42.7326C61.8255 42.5067 61.9063 42.2681 61.9585 42.0221C62.6207 39.052 64.2962 40.2309 64.2962 40.2309C64.7001 42.5544 70.9538 48.7047 70.9538 48.7047L71.0774 48.8326C71.6977 49.4906 74.4614 52.5795 74.265 55.216C74.2257 56.1973 74.3673 57.1773 74.6822 58.1038C75.9542 62.2493 76.6855 66.552 76.8565 70.8979L77 74.2358Z" fill="#DCE6F2"/>
<path opacity="0.1" d="M68.9674 59C68.9674 59 67.9187 62.947 67.1322 63.5855C66.3456 64.224 69.342 64.9322 68.9674 59Z" fill="black"/>
<path opacity="0.1" d="M70 65C70 65 66 65.3525 66 65.8813C66 66.4102 70 65 70 65Z" fill="black"/>
<path opacity="0.1" d="M74 70C74 70 68.6692 80.6699 67.1789 80.9932C65.6886 81.3165 74 70 74 70Z" fill="black"/>
<path opacity="0.1" d="M73 49.0443L68.4689 51L63 42.7981C63.1149 42.5667 63.2012 42.3224 63.2568 42.0705C63.9637 39.0293 65.7521 40.2364 65.7521 40.2364C66.1833 42.6156 72.8586 48.9133 72.8586 48.9133L73 49.0443Z" fill="black"/>
<path d="M73 49.0443L68.4689 51L63 42.7981C63.1149 42.5667 63.2012 42.3224 63.2568 42.0705C63.9637 39.0293 65.7521 40.2364 65.7521 40.2364C66.1833 42.6156 72.8586 48.9133 72.8586 48.9133L73 49.0443Z" fill="#DCE6F2"/>
<path opacity="0.1" d="M77.9273 89.8612C77.9273 89.8612 73.026 89.4049 68.4521 88.9029L76.6587 91.0591V93.569C76.2996 93.8953 75.9881 94.0641 75.7858 93.9774C74.8401 93.5781 67.1222 92.3232 67.1222 92.3232C67.1222 92.3232 62.6392 90.0415 57.8016 87.3034C57.6841 87.2381 57.5703 87.1665 57.4606 87.0889C56.8965 86.7045 56.4105 86.2159 56.0284 85.6492C55.135 84.3509 54.6985 82.6829 54.5098 81.0469C54.4037 80.1094 54.3642 79.1654 54.3916 78.2222C54.415 77.1527 54.5122 76.0861 54.6826 75.03C54.2147 70.9399 53.987 66.8257 54.0006 62.7088C54.0574 56.32 60.0249 54.0382 60.0249 54.0382C70.9936 53.0685 67.5927 70.8659 67.5927 70.8659C67.5927 70.8659 66.9585 75.8857 66.7857 76.3991C66.6129 76.9125 65.9923 77.7681 66.0764 78.966C66.1606 80.1639 68.2566 81.5968 68.2566 81.5968C68.2566 81.5968 70.3025 82.5597 71.1459 83.9858C71.7597 85.0377 75.7471 86.4637 78 87.4814L77.9273 89.8612Z" fill="black"/>
<path opacity="0.1" d="M80.9998 29.3033C81.0039 29.6921 80.9286 30.0772 80.7792 30.4316C80.6661 30.7209 80.5349 31.0016 80.3864 31.272C80.1542 31.7693 79.8246 32.2073 79.42 32.5561C78.9103 32.9456 78.266 33.0542 77.6548 33.2124C77.0436 33.3705 76.4082 33.6231 76.0595 34.1802C75.8706 34.5383 75.7442 34.9303 75.6867 35.3368C75.6282 35.7431 75.4766 36.1275 75.2454 36.4557C74.9977 36.7854 74.573 36.8941 74.2127 36.7201C74.0282 36.587 73.8883 36.3943 73.8134 36.1701C73.5618 35.5635 73.4978 34.8907 73.3963 34.2368C73.2948 33.583 73.1514 32.9102 72.7763 32.3838C72.4012 31.8574 71.7371 31.5104 71.1479 31.7158C70.7495 31.8799 70.4308 32.2106 70.2653 32.6317C70.1023 33.0488 69.9903 33.4868 69.9322 33.9347C69.6586 35.5367 69.3357 37.1293 68.9635 38.7124C68.9522 38.7773 68.9273 38.8387 68.8907 38.8918C68.832 38.9544 68.7529 38.99 68.6701 38.991C68.1758 39.0618 67.7014 38.6912 67.2028 38.7313C67.1514 38.735 67.1004 38.7437 67.0505 38.7573C65.399 35.6866 65.7172 31.839 67.847 29.1262L67.8868 29.1144C68.2185 28.9885 68.5199 28.7853 68.7693 28.5196C69.0879 28.1786 69.3828 27.8133 69.6519 27.4266L69.8285 27.1906C70.3356 26.5369 70.9133 25.9498 71.5495 25.4414C71.7232 25.2892 71.9224 25.1739 72.1364 25.1015C72.3196 25.0633 72.5074 25.0569 72.6925 25.0826C73.4545 25.1805 74.2227 25.2113 74.9894 25.1747C75.5236 25.0848 76.0621 25.0265 76.6023 25C77.999 25.0425 79.1905 26.0977 80.0731 27.2543C80.5475 27.8468 80.9712 28.529 80.9998 29.3033Z" fill="black"/>
<path d="M66.2678 30.6533C65.9623 31.1724 65.4106 31.5253 65.204 32.0945C64.9007 32.9209 65.4128 33.95 64.9424 34.6877C64.7864 34.9359 64.5292 35.1203 64.4413 35.4049C64.2918 35.8853 64.7006 36.3976 64.5951 36.8916C64.4896 37.3857 63.861 37.8024 64.0281 38.285C64.1268 38.4955 64.2999 38.6586 64.5116 38.7404C64.8447 38.9383 65.228 39.0264 65.6106 38.9931C66.2106 38.8907 66.6568 38.2805 67.2656 38.2349C67.7602 38.1985 68.2327 38.5537 68.7251 38.4877C68.8076 38.4847 68.886 38.4498 68.9449 38.3898C68.9822 38.339 69.0071 38.2796 69.0174 38.2167C69.3867 36.6913 69.709 35.1552 69.9845 33.6085C70.0406 33.1764 70.1515 32.7538 70.3142 32.3517C70.4803 31.9465 70.7973 31.628 71.1934 31.4683C71.7802 31.2725 72.4396 31.6049 72.8155 32.1127C73.1913 32.6204 73.3342 33.2693 73.4353 33.8999C73.5364 34.5306 73.6001 35.1795 73.8485 35.7646C73.924 35.9816 74.064 36.1682 74.2485 36.2974C74.5782 36.4955 75.0222 36.3384 75.275 36.0424C75.5065 35.7257 75.6577 35.3538 75.7145 34.9609C75.7719 34.5695 75.8978 34.1922 76.086 33.8476C76.4333 33.3103 77.0685 33.0666 77.6751 32.9141C78.2817 32.7616 78.9213 32.6545 79.4335 32.2789C79.8359 31.9428 80.1642 31.5212 80.3962 31.0426C80.7215 30.4552 81.0248 29.8177 80.9984 29.1415C80.9698 28.4038 80.5478 27.7458 80.0972 27.1721C79.2181 26.0564 78.029 25.0387 76.6377 25C76.0994 25.0233 75.5629 25.0796 75.031 25.1685C74.2672 25.2041 73.5018 25.1736 72.7429 25.0774C72.5584 25.0545 72.3715 25.0615 72.189 25.0979C71.9756 25.1654 71.7774 25.277 71.6066 25.4258C70.9722 25.9153 70.396 26.4808 69.89 27.1106C69.5637 27.5587 69.2098 27.9846 68.8306 28.3856C68.582 28.6423 68.2818 28.839 67.9514 28.9616C67.7316 29.0254 67.5118 28.9798 67.303 29.0504C66.6546 29.2621 66.5689 30.1387 66.2678 30.6533Z" fill="#965D7B"/>
<path opacity="0.1" d="M88.3316 37.9412C86.71 38.348 85.3662 36.5573 84.6223 35.251C84.3938 34.8543 84.1859 34.4362 84 34L89.566 35.4337L89.791 35.4918C89.791 35.4918 90.8146 37.3212 88.3316 37.9412Z" fill="black"/>
<g opacity="0.1">
<path d="M64.751 36.2059C64.775 35.9216 64.7323 35.6355 64.6261 35.3711C64.6261 35.3928 64.6068 35.4146 64.6003 35.4363C64.5078 35.7276 64.6326 36.0298 64.7122 36.332C64.7293 36.2914 64.7423 36.2491 64.751 36.2059Z" fill="black"/>
<path d="M65.2631 32.6445C65.2409 32.9451 65.2467 33.2472 65.2803 33.5467C65.3024 33.2461 65.2966 32.9441 65.2631 32.6445Z" fill="black"/>
<path d="M80.2082 30.6131C79.9817 31.0711 79.6602 31.4745 79.2657 31.7957C78.7686 32.1544 78.1424 32.2544 77.5441 32.4001C76.9459 32.5457 76.3283 32.7783 75.9883 33.2914C75.8044 33.6213 75.6811 33.9822 75.6246 34.3566C75.5686 34.7316 75.4207 35.0866 75.1943 35.3892C74.9468 35.6718 74.5121 35.824 74.1893 35.6327C74.0087 35.5093 73.8716 35.3312 73.7977 35.124C73.5545 34.5653 73.49 33.9479 73.3931 33.3435C73.2963 32.7392 73.1521 32.1218 72.7863 31.637C72.4205 31.1522 71.7727 30.8327 71.1982 31.0218C70.81 31.1736 70.4994 31.4779 70.3374 31.8653C70.1781 32.2492 70.0696 32.6527 70.0146 33.0653C69.7464 34.5421 69.4308 36.0088 69.0678 37.4653C69.0577 37.5254 69.0334 37.5821 68.9968 37.6305C68.9392 37.6878 68.8624 37.7211 68.7816 37.724C68.2996 37.787 67.8369 37.4479 67.3527 37.4827C66.7567 37.5262 66.3198 38.1088 65.7324 38.2044C65.3576 38.2384 64.9817 38.1541 64.6564 37.9631C64.5068 37.8981 64.3726 37.8018 64.2626 37.6805C64.1606 37.8281 64.1313 38.0148 64.183 38.187C64.2778 38.3894 64.448 38.5457 64.6564 38.6218C64.9817 38.8128 65.3576 38.8971 65.7324 38.8631C66.3198 38.7675 66.7567 38.1849 67.3527 38.1414C67.8369 38.1066 68.2996 38.4457 68.7816 38.3827C68.8624 38.3798 68.9392 38.3465 68.9968 38.2892C69.0334 38.2407 69.0577 38.1841 69.0678 38.124C69.4293 36.6747 69.7449 35.208 70.0146 33.724C70.0696 33.3114 70.1781 32.9079 70.3374 32.524C70.4994 32.1366 70.81 31.8323 71.1982 31.6805C71.7727 31.4914 72.4183 31.8109 72.7863 32.2957C73.1543 32.7805 73.2941 33.4001 73.3931 34.0022C73.4921 34.6044 73.5545 35.224 73.7977 35.7827C73.8716 35.9899 74.0087 36.168 74.1893 36.2914C74.5121 36.4805 74.9468 36.3305 75.1943 36.0479C75.4207 35.7453 75.5686 35.3903 75.6246 35.0153C75.6811 34.6409 75.8044 34.28 75.9883 33.9501C76.3283 33.437 76.9502 33.2066 77.5441 33.0588C78.1381 32.9109 78.7643 32.8131 79.2657 32.4544C79.6602 32.1332 79.9817 31.7298 80.2082 31.2718C80.5267 30.7131 80.8236 30.1044 80.7978 29.4588C80.7936 29.3757 80.785 29.293 80.772 29.2109C80.6682 29.7085 80.4772 30.1833 80.2082 30.6131Z" fill="black"/>
</g>
<path opacity="0.1" d="M82.0009 30.4183C82.5767 31.518 82.9179 32.7414 83 34C80.9996 32.7941 79.1181 31.4699 78.1684 31.0092C76.5137 30.2061 70.326 30.3267 68 30.4014C68.2433 29.9345 68.5275 29.4936 68.8487 29.0845C69.3802 28.4064 70.0048 27.8192 70.7009 27.3432C72.5643 26.0728 74.8321 25.6821 76.9717 26.2629C79.1113 26.8437 80.9342 28.3448 82.0121 30.4135L82.0009 30.4183Z" fill="black"/>
<path opacity="0.1" d="M87.9948 36.8859C86.9883 37.313 85.3457 36.4876 83.6424 35.3044C83.4065 34.8907 83.1919 34.4549 83 34L88.746 35.4949C89.1268 35.8527 89.2231 36.3635 87.9948 36.8859Z" fill="black"/>
<path d="M74.6788 22.011C74.6788 22.011 68.5579 21.6485 66.8371 25.0917L66.5596 28.1434L66.0933 28.0902L66 30.1658C66 30.1658 75.355 29.743 77.4839 30.7385C79.6128 31.734 86.228 36.7501 88.8792 35.9044C91.5305 35.0587 88.6461 34.2734 88.6461 34.2734C88.6461 34.2734 84.9969 32.6715 84.9969 31.415C84.9969 30.1586 84.0921 23.5211 74.6788 22.011Z" fill="#444053"/>
<path opacity="0.1" d="M64 129C64 129 67.4896 133.314 69 132.982C69 132.982 64.7292 132.517 64 129Z" fill="black"/>
<path opacity="0.1" d="M63 131C63 131 63.2314 132.1 63.8484 131.993C64.4654 131.885 63 131 63 131Z" fill="black"/>
<path opacity="0.1" d="M69 162C69 162 63.1213 165.893 64.1126 165.998C65.1039 166.103 69 162 69 162Z" fill="black"/>
<path d="M75 78.7501L92 76V92L75.8478 91.1594L75 78.7501Z" fill="#7F879D"/>
<path opacity="0.05" d="M75 78.7501L92 76V92L75.8478 91.1594L75 78.7501Z" fill="black"/>
<path d="M93 76L114 77.5166L112.838 91.4403L93 92V76Z" fill="#7F879D"/>
<path opacity="0.1" d="M93 76L114 77.5166L112.838 91.4403L93 92V76Z" fill="black"/>
<path d="M98.6066 71L92 75.5782L113.488 77L117 72.3148L98.6066 71Z" fill="#7F879D"/>
<path d="M69 73.0623L84.8627 71L93 75.9383L75.3799 79L69 73.0623Z" fill="#7F879D"/>
<path d="M96 80.4481V103L87.9315 102.163L84.4218 101.801L83.3526 101.688L79.8451 101.323L75 100.821V79L92.2219 80.1856L96 80.4481Z" fill="#7F879D"/>
<path d="M113 78V99.7566L106.487 100.999L103.32 101.603L96 103V80.6905L113 78Z" fill="#7F879D"/>
<path opacity="0.05" d="M113 78V99.7566L106.487 100.999L103.32 101.603L96 103V80.6905L113 78Z" fill="black"/>
<path d="M69 84.2412L75.1823 80L96 81.2938L92.9354 86L69 84.2412Z" fill="#7F879D"/>
<path opacity="0.1" d="M69 84.2412L75.1823 80L96 81.2938L92.9354 86L69 84.2412Z" fill="white"/>
<path d="M114.184 77L97 79.8266L102.593 85L121 81.8113L114.184 77Z" fill="#7F879D"/>
<path opacity="0.1" d="M114.184 77L97 79.8266L102.593 85L121 81.8113L114.184 77Z" fill="white"/>
<path opacity="0.1" d="M108 100.44L104 101V96.6891L107.747 96L108 100.44Z" fill="white"/>
<path opacity="0.1" d="M89 99V103L85 102.534V99H89Z" fill="white"/>
<path opacity="0.1" d="M84 100V101L80 100.78V100H84Z" fill="white"/>
<path opacity="0.1" d="M94.7811 98.2734C92.414 101.461 84.597 99.2587 84.597 99.2587L78.7883 92.8786L78 92.0139L79.5414 89C79.5414 89 79.9818 89.153 80.7172 89.4219C84.6103 90.8547 96.7738 95.5911 94.7811 98.2734Z" fill="black"/>
<path d="M94.7811 97.2734C92.414 100.461 84.597 98.2587 84.597 98.2587L78.7883 91.8786L78 91.0139L79.5414 88C79.5414 88 79.9818 88.153 80.7172 88.4219C84.6103 89.8547 96.7738 94.5911 94.7811 97.2734Z" fill="#EFB7B9"/>
<path opacity="0.1" d="M80 89.4351C79.7634 90.4393 79.1621 91.9265 78.5802 93L78 92.1082L79.1345 89C79.1345 89 79.4603 89.1578 80 89.4351Z" fill="black"/>
<path d="M59.8885 53.0391C59.8885 53.0391 54.0561 55.3213 54.0006 61.7115C53.9873 65.8294 54.2099 69.9445 54.6671 74.0355C54.6671 74.0355 53.0007 83.5638 57.7222 86.3024C62.4436 89.0411 66.8318 91.3233 66.8318 91.3233C66.8318 91.3233 74.375 92.5785 75.3015 92.9779C76.2281 93.3773 79.4475 88.2423 78.9476 87.3865C78.4477 86.5306 71.5799 84.4196 70.7645 82.9932C69.9491 81.5668 67.9405 80.606 67.9405 80.606C67.9405 80.606 65.892 79.1705 65.8098 77.9723C65.7275 76.7742 66.3319 75.9183 66.503 75.4048C66.6741 74.8913 67.294 69.8705 67.294 69.8705C67.294 69.8705 70.609 52.0578 59.8885 53.0391Z" fill="#DCE6F2"/>
<path opacity="0.1" d="M62 74C62 74 54.4472 74.9697 55.0323 78C55.0323 78 57.9024 74.943 62 74Z" fill="black"/>
<path opacity="0.1" d="M63 75C63 75 58.2318 78.7358 59.1073 78.9891C59.9829 79.2424 63 75 63 75Z" fill="black"/>
<path opacity="0.1" d="M64.9791 76C64.9791 76 63.3684 79.1587 64.2788 78.9938C65.1891 78.8288 64.9791 76 64.9791 76Z" fill="black"/>
<path d="M147.846 25.0126C147.846 25.0126 140.177 24.4267 141.073 31.2475C141.073 31.2475 140.893 32.4525 141.755 33C141.755 33 141.769 32.4883 142.542 32.6648C142.817 32.7236 143.097 32.7408 143.376 32.716C143.753 32.6841 144.112 32.4963 144.397 32.1813C144.397 32.1813 146.555 31.053 147.394 26.5809C147.394 26.5809 148.016 25.6036 148 25.3529L146.704 26.0564C146.704 26.0564 147.146 27.241 146.797 28.226C146.797 28.226 146.756 26.0999 146.506 26.1485C146.456 26.1485 145.834 26.5604 145.834 26.5604C145.834 26.5604 146.595 28.6225 146.02 30.1243C146.02 30.1243 146.238 27.5813 145.596 26.7088L144.684 27.3843C144.684 27.3843 145.574 29.5154 144.97 31.2552C144.97 31.2552 145.126 28.5867 144.492 27.548L143.664 28.3641C143.664 28.3641 144.502 30.4672 143.991 31.9101C143.991 31.9101 143.925 28.8042 143.485 28.5688C143.485 28.5688 142.762 29.3773 142.653 29.7099C142.653 29.7099 143.224 31.2449 142.869 32.0406C142.869 32.0406 142.651 29.9708 142.465 29.9606C142.465 29.9606 141.745 31.3319 141.67 32.2632C141.705 31.395 141.919 30.5535 142.29 29.8224C141.875 29.922 141.491 30.1738 141.188 30.5465C141.188 30.5465 141.299 29.5768 142.467 29.4924C142.467 29.4924 143.073 28.4511 143.222 28.3872C143.222 28.3872 142.06 28.2644 141.355 28.6609C141.355 28.6609 141.975 27.7476 143.436 28.1492L144.244 27.3049C144.244 27.3049 142.714 27.0491 142.064 27.3331C142.064 27.3331 142.811 26.5246 144.464 27.1131L145.352 26.4402C145.352 26.4402 144.048 26.082 143.271 26.2125C143.271 26.2125 144.09 25.6522 145.612 26.2585L146.248 25.8978C146.248 25.8978 145.291 25.6599 145.013 25.6215C144.734 25.5831 144.718 25.4859 144.718 25.4859C145.323 25.3582 145.944 25.4468 146.512 25.7417C146.512 25.7417 147.875 25.12 147.846 25.0126Z" fill="#7F879D"/>
<path opacity="0.1" d="M174.864 56.0126C174.864 56.0126 167.175 55.4267 168.073 62.2475C168.073 62.2475 167.893 63.4525 168.757 64C168.757 64 168.771 63.4883 169.548 63.6648C169.824 63.7236 170.105 63.7408 170.384 63.716C170.758 63.6817 171.113 63.495 171.396 63.1839C171.396 63.1839 173.561 62.053 174.402 57.5809C174.402 57.5809 175.024 56.6061 174.999 56.3554L173.7 57.0564C173.7 57.0564 174.143 58.241 173.795 59.226C173.795 59.226 173.753 57.0999 173.504 57.1485C173.453 57.1485 172.828 57.5604 172.828 57.5604C172.828 57.5604 173.593 59.6251 173.016 61.1243C173.016 61.1243 173.235 58.5813 172.589 57.7088L171.685 58.3766C171.685 58.3766 172.577 60.5077 171.972 62.2475C171.972 62.2475 172.128 59.579 171.493 58.5403L170.665 59.359C170.665 59.359 171.503 61.4595 170.993 62.9024C170.993 62.9024 170.926 59.7965 170.485 59.5611C170.485 59.5611 169.761 60.3696 169.649 60.7022C169.649 60.7022 170.224 62.2372 169.868 63.0329C169.868 63.0329 169.649 60.9631 169.463 60.9529C169.463 60.9529 168.741 62.3242 168.666 63.2555C168.702 62.3872 168.917 61.5459 169.289 60.8148C168.872 60.9146 168.488 61.1663 168.182 61.5388C168.182 61.5388 168.296 60.5691 169.467 60.4847C169.467 60.4847 170.064 59.4434 170.224 59.3795C170.224 59.3795 169.058 59.2567 168.352 59.6532C168.352 59.6532 168.973 58.7399 170.436 59.1543L171.246 58.3101C171.246 58.3101 169.71 58.0542 169.06 58.3382C169.06 58.3382 169.809 57.5297 171.466 58.1182L172.357 57.4453C172.357 57.4453 171.047 57.0897 170.268 57.2176C170.268 57.2176 171.092 56.6573 172.618 57.2637L173.255 56.9029C173.255 56.9029 172.296 56.665 172.015 56.6266C171.733 56.5882 171.719 56.491 171.719 56.491C172.327 56.3633 172.95 56.4518 173.52 56.7469C173.52 56.7469 174.888 56.12 174.864 56.0126Z" fill="#7F879D"/>
<path opacity="0.1" d="M121.703 50.8959C121.703 50.8959 123.627 42.1174 117.681 42.0866C117.681 42.0866 116.694 41.689 116.072 42.5978C116.072 42.5978 116.496 42.6949 116.208 43.5611C116.108 43.8674 116.042 44.1851 116.01 44.5078C115.968 44.9478 116.059 45.3907 116.272 45.7694C116.272 45.7694 116.828 48.4438 120.45 50.1195C120.45 50.1195 121.162 50.9905 121.378 51L121.026 49.3929C121.026 49.3929 119.94 49.7172 119.17 49.1563C119.17 49.1563 120.98 49.4426 120.982 49.1563C120.982 49.0971 120.762 48.3137 120.762 48.3137C120.762 48.3137 118.873 48.8675 117.708 47.9657C117.708 47.9657 119.821 48.619 120.681 48.0155L120.285 46.851C120.285 46.851 118.306 47.5445 116.951 46.5717C116.951 46.5717 119.183 47.1729 120.181 46.6048L119.643 45.5208C119.643 45.5208 117.708 46.1551 116.58 45.3386C116.58 45.3386 119.218 45.7504 119.504 45.2818C119.504 45.2818 118.954 44.3185 118.693 44.1386C118.693 44.1386 117.294 44.5599 116.679 44.0226C116.679 44.0226 118.471 44.096 118.512 43.8925C118.512 43.8925 117.486 42.844 116.703 42.6073C117.432 42.7861 118.106 43.1662 118.658 43.7102C118.65 43.2142 118.507 42.7314 118.249 42.3209C118.249 42.3209 119.049 42.6049 118.908 43.9777C118.908 43.9777 119.678 44.8297 119.702 45.0238C119.702 45.0238 120.021 43.7008 119.816 42.8227C119.816 42.8227 120.476 43.6842 119.854 45.3055L120.417 46.3824C120.417 46.3824 120.927 44.6546 120.797 43.8593C120.797 43.8593 121.345 44.8487 120.538 46.6664L120.944 47.8001C120.944 47.8001 121.487 46.3469 121.523 45.4333C121.523 45.4333 121.846 46.4699 121.048 48.1338L121.237 48.9243C121.237 48.9243 121.615 47.8569 121.699 47.5397C121.782 47.2226 121.868 47.2202 121.868 47.2202C121.865 47.9403 121.675 48.6451 121.32 49.2557C121.32 49.2557 121.608 50.9077 121.703 50.8959Z" fill="#7F879D"/>
<path opacity="0.1" d="M104 53.0235C104 53.0235 96.9406 48.2146 94.4171 53.4237C94.4171 53.4237 93.6469 54.1504 94.1997 55.0203C94.1997 55.0203 94.4634 54.6812 95.1249 55.2436C95.3592 55.4421 95.6186 55.6147 95.8975 55.7576C96.2752 55.9492 96.7114 56.0231 97.1396 55.9682C97.1396 55.9682 99.7672 56.4295 102.793 53.8365C102.793 53.8365 103.873 53.5206 103.975 53.3352L102.381 53.0803C102.381 53.0803 102.214 54.1483 101.393 54.6264C101.393 54.6264 102.409 53.1393 102.145 53.0319C102.092 53.0087 101.296 52.9266 101.296 52.9266C101.296 52.9266 101 54.7844 99.7047 55.4859C99.7047 55.4859 101.178 53.8618 100.995 52.8929L99.7857 52.8339C99.7857 52.8339 99.5798 54.8118 98.1365 55.6628C98.1365 55.6628 99.6099 53.9166 99.5243 52.8381L98.3261 52.9266C98.3261 52.9266 98.0833 54.8497 96.8782 55.5491C96.8782 55.5491 98.3562 53.3752 98.0532 52.9624C98.0532 52.9624 96.9591 53.1035 96.6885 53.2678C96.6885 53.2678 96.478 54.6454 95.7379 54.9951C95.7379 54.9951 96.559 53.4469 96.3925 53.3394C96.3925 53.3394 95.0208 53.8681 94.4819 54.4706C94.9481 53.8938 95.5716 53.4378 96.2907 53.1478C95.8433 52.9784 95.3513 52.9316 94.8751 53.0129C94.8751 53.0129 95.4626 52.4105 96.6238 53.0235C96.6238 53.0235 97.7109 52.6506 97.8959 52.697C97.8959 52.697 96.8435 51.945 95.9715 51.8144C95.9715 51.8144 97.0216 51.5406 98.2128 52.657L99.4133 52.5453C99.4133 52.5453 98.0787 51.4921 97.313 51.3152C97.313 51.3152 98.4302 51.1867 99.7186 52.539L100.903 52.5874C100.903 52.5874 99.8319 51.5932 99.0247 51.2351C99.0247 51.2351 100.086 51.3194 101.243 52.6106L102.032 52.7265C102.032 52.7265 101.234 52.0145 100.984 51.8291C100.734 51.6438 100.769 51.5658 100.769 51.5658C101.412 51.8253 101.964 52.2425 102.362 52.7707C102.362 52.7707 103.97 53.1098 104 53.0235Z" fill="#7F879D"/>
<path opacity="0.1" d="M126 6.0249C126 6.0249 118.941 1.2127 116.417 6.42521C116.417 6.42521 115.647 7.1521 116.2 8.02225C116.2 8.02225 116.463 7.68304 117.125 8.24559C117.36 8.44313 117.621 8.61495 117.9 8.75757C118.278 8.94933 118.714 9.02332 119.142 8.96826C119.142 8.96826 121.769 9.42967 124.795 6.83395C124.795 6.83395 125.875 6.52002 125.975 6.33251L124.381 6.08179C124.381 6.08179 124.217 7.14999 123.393 7.62826C123.393 7.62826 124.411 6.14078 124.147 6.03333C124.094 6.01015 123.298 5.92798 123.298 5.92798C123.298 5.92798 122.993 7.79049 121.698 8.48788C121.698 8.48788 123.169 6.86345 122.988 5.89427L121.779 5.83528C121.779 5.83528 121.571 7.81367 120.13 8.66276C120.13 8.66276 121.603 6.91612 121.517 5.83738L120.322 5.92587C120.322 5.92587 120.076 7.85159 118.871 8.55109C118.871 8.55109 120.352 6.37675 120.049 5.9638C120.049 5.9638 118.955 6.10496 118.684 6.2693C118.684 6.2693 118.473 7.64722 117.733 7.99697C117.733 7.99697 118.554 6.44839 118.388 6.33883C118.388 6.33883 117.016 6.86977 116.477 7.47235C116.943 6.89478 117.566 6.43855 118.286 6.14921C117.838 5.97856 117.345 5.93167 116.868 6.01436C116.868 6.01436 117.458 5.41179 118.619 6.0249C118.619 6.0249 119.706 5.64987 119.891 5.69833C119.891 5.69833 118.839 4.94616 117.967 4.81342C117.967 4.81342 119.015 4.54163 120.206 5.65619L121.406 5.54452C121.406 5.54452 120.074 4.49106 119.306 4.31198C119.306 4.31198 120.423 4.18556 121.714 5.5382L122.898 5.58455C122.898 5.58455 121.827 4.59009 121.018 4.23402C121.018 4.23402 122.082 4.3183 123.238 5.60984L124.025 5.72572C124.025 5.72572 123.224 5.02201 122.975 4.84081C122.725 4.65962 122.759 4.57955 122.759 4.57955C123.403 4.83883 123.955 5.2561 124.353 5.78471C124.353 5.78471 125.961 6.10496 126 6.0249Z" fill="#7F879D"/>
<path opacity="0.1" d="M153 11.7139C153 11.7139 150.274 3.53403 145.133 6.74845C145.133 6.74845 144.083 6.97498 144 8.04192C144 8.04192 144.413 7.88788 144.597 8.74869C144.665 9.05489 144.767 9.3521 144.903 9.63441C145.087 10.0143 145.388 10.3235 145.761 10.5156C145.761 10.5156 147.575 12.3845 151.543 11.766C151.543 11.766 152.591 12.0877 152.783 11.9767L151.666 10.8645C151.666 10.8645 150.893 11.7185 149.95 11.6845C149.95 11.6845 151.655 10.9324 151.514 10.69C151.485 10.6425 150.902 10.1282 150.902 10.1282C150.902 10.1282 149.548 11.6075 148.096 11.5101C148.096 11.5101 150.243 10.8894 150.681 9.92437L149.756 9.20174C149.756 9.20174 148.402 10.8373 146.742 10.7874C146.742 10.7874 148.976 10.0603 149.541 9.0545L148.536 8.46779C148.536 8.46779 147.195 10.0376 145.805 9.98779C145.805 9.98779 148.29 8.8846 148.297 8.35C148.297 8.35 147.343 7.8675 147.028 7.86297C147.028 7.86297 146.031 8.96615 145.24 8.86648C145.24 8.86648 146.822 7.94905 146.755 7.76103C146.755 7.76103 145.347 7.46881 144.554 7.7044C145.272 7.45115 146.042 7.39258 146.788 7.5345C146.534 7.13558 146.169 6.8207 145.741 6.62839C145.741 6.62839 146.572 6.42225 147.128 7.60926C147.128 7.60926 148.218 7.88335 148.335 8.02607C148.335 8.02607 147.95 6.7779 147.336 6.17534C147.336 6.17534 148.335 6.51739 148.607 8.17331L149.631 8.73963C149.631 8.73963 149.208 7.06106 148.699 6.47435C148.699 6.47435 149.666 6.98178 149.876 8.89593L150.792 9.5959C150.792 9.5959 150.538 8.11894 150.109 7.35328C150.109 7.35328 150.904 8.01927 151.047 9.80657L151.604 10.3457C151.604 10.3457 151.398 9.27197 151.313 8.96842C151.228 8.66487 151.297 8.64449 151.297 8.64449C151.653 9.23213 151.841 9.90794 151.84 10.5972C151.84 10.5972 152.922 11.7728 153 11.7139Z" fill="#7F879D"/>
<path opacity="0.1" d="M134.864 13.0483C134.864 13.0483 127.421 12.2018 128.036 17.5958C128.036 17.5958 127.814 18.5306 128.625 19C128.625 19 128.659 18.5988 129.411 18.7793C129.677 18.8378 129.948 18.8654 130.22 18.8616C130.587 18.8548 130.942 18.7259 131.231 18.4945C131.231 18.4945 133.374 17.7182 134.373 14.2579C134.373 14.2579 135.014 13.5257 135 13.3271L133.713 13.8126C133.713 13.8126 134.106 14.7614 133.713 15.5156C133.713 15.5156 133.755 13.8487 133.517 13.8748C133.468 13.8748 132.847 14.1636 132.847 14.1636C132.847 14.1636 133.507 15.8185 132.891 16.972C132.891 16.972 133.201 14.9901 132.61 14.276L131.697 14.7574C131.697 14.7574 132.482 16.4725 131.824 17.8044C131.824 17.8044 132.08 15.7223 131.504 14.8777L130.67 15.4795C130.67 15.4795 131.4 17.1666 130.848 18.2718C130.848 18.2718 130.905 15.8366 130.487 15.63C130.487 15.63 129.752 16.2318 129.633 16.4805C129.633 16.4805 130.13 17.7041 129.754 18.316C129.754 18.316 129.623 16.6851 129.45 16.6691C129.45 16.6691 128.696 17.7062 128.586 18.4383C128.654 17.7595 128.895 17.1108 129.285 16.5567C128.878 16.6143 128.495 16.792 128.185 17.0683C128.185 17.0683 128.331 16.316 129.47 16.308C129.47 16.308 130.088 15.5237 130.255 15.4815C130.255 15.4815 129.13 15.3271 128.429 15.6019C128.429 15.6019 129.067 14.9159 130.469 15.315L131.296 14.6952C131.296 14.6952 129.802 14.3863 129.169 14.5869C129.169 14.5869 129.927 13.9851 131.51 14.5367L132.4 14.0533C132.4 14.0533 131.145 13.7083 130.385 13.7705C130.385 13.7705 131.204 13.3693 132.659 13.9249L133.291 13.6742C133.291 13.6742 132.37 13.4395 132.099 13.3953C131.828 13.3512 131.818 13.275 131.818 13.275C132.412 13.2054 133.013 13.3054 133.554 13.5638C133.554 13.5638 134.878 13.1326 134.864 13.0483Z" fill="#7F879D"/>
<path opacity="0.1" d="M209.87 80.0484C209.87 80.0484 202.421 79.2011 203.036 84.5944C203.036 84.5944 202.814 85.5301 203.626 86C203.626 86 203.66 85.5984 204.413 85.7771C204.679 85.8376 204.951 85.8652 205.223 85.8594C205.591 85.8537 205.947 85.7246 206.236 85.492C206.236 85.492 208.381 84.7149 209.372 81.2532C209.372 81.2532 210.014 80.5183 210 80.3215L208.712 80.8054C208.712 80.8054 209.105 81.7572 208.712 82.5122C208.712 82.5122 208.753 80.8416 208.515 80.8697C208.466 80.8697 207.844 81.1568 207.844 81.1568C207.844 81.1568 208.505 82.8134 207.888 83.968C207.888 83.968 208.198 81.9861 207.606 81.2693L206.692 81.7532C206.692 81.7532 207.479 83.47 206.822 84.8033C206.822 84.8033 207.075 82.719 206.499 81.8717L205.663 82.474C205.663 82.474 206.395 84.1627 205.842 85.2671C205.842 85.2671 205.899 82.8294 205.481 82.6246C205.481 82.6246 204.747 83.227 204.625 83.476C204.625 83.476 205.125 84.7009 204.747 85.3133C204.747 85.3133 204.615 83.6808 204.442 83.6648C204.442 83.6648 203.687 84.7029 203.577 85.4358C203.645 84.7563 203.887 84.1069 204.277 83.5523C203.869 83.6089 203.486 83.7869 203.176 84.0643C203.176 84.0643 203.321 83.3093 204.462 83.3013C204.462 83.3013 205.083 82.5162 205.249 82.476C205.249 82.476 204.122 82.3194 203.42 82.5945C203.42 82.5945 204.059 81.9098 205.465 82.3094L206.291 81.6889C206.291 81.6889 204.812 81.4038 204.169 81.6006C204.169 81.6006 204.928 80.9982 206.513 81.5484L207.404 81.0665C207.404 81.0665 206.147 80.7211 205.386 80.7833C205.386 80.7833 206.206 80.3818 207.663 80.938L208.297 80.685C208.297 80.685 207.374 80.45 207.103 80.4079C206.832 80.3657 206.822 80.2874 206.822 80.2874C207.416 80.2165 208.018 80.3159 208.56 80.5745C208.56 80.5745 209.89 80.1348 209.87 80.0484Z" fill="#7F879D"/>
<path opacity="0.1" d="M222.878 88.0482C222.878 88.0482 215.42 87.2028 216.036 92.5944C216.036 92.5944 215.816 93.5301 216.627 94C216.627 94 216.66 93.5984 217.414 93.7791C217.68 93.8381 217.952 93.865 218.223 93.8594C218.59 93.8518 218.944 93.7236 219.233 93.494C219.233 93.494 221.379 92.7169 222.372 89.253C222.372 89.253 223.015 88.5201 223 88.3213L221.71 88.8052C221.71 88.8052 222.104 89.757 221.71 90.512C221.71 90.512 221.752 88.8434 221.513 88.8695C221.464 88.8695 220.842 89.1566 220.842 89.1566C220.842 89.1566 221.503 90.8132 220.885 91.9679C220.885 91.9679 221.196 89.9859 220.604 89.2711L219.688 89.753C219.688 89.753 220.476 91.4699 219.818 92.8032C219.818 92.8032 220.072 90.7189 219.495 89.8735L218.659 90.4759C218.659 90.4759 219.391 92.1647 218.84 93.2711C218.84 93.2711 218.895 90.8313 218.475 90.6265C218.475 90.6265 217.741 91.2289 217.619 91.4779C217.619 91.4779 218.119 92.7028 217.741 93.3153C217.741 93.3153 217.609 91.6827 217.436 91.6667C217.436 91.6667 216.68 92.7048 216.572 93.4377C216.64 92.7585 216.881 92.1093 217.271 91.5542C216.862 91.6118 216.479 91.7898 216.168 92.0663C216.168 92.0663 216.316 91.3112 217.458 91.3052C217.458 91.3052 218.078 90.5201 218.245 90.4779C218.245 90.4779 217.117 90.3233 216.414 90.5984C216.414 90.5984 217.054 89.9116 218.462 90.3112L219.289 89.6908C219.289 89.6908 217.808 89.4056 217.164 89.6024C217.164 89.6024 217.924 89 219.511 89.5522L220.403 89.0683C220.403 89.0683 219.145 88.7229 218.383 88.7851C218.383 88.7851 219.204 88.3835 220.663 88.9397L221.297 88.6887C221.297 88.6887 220.373 88.4538 220.104 88.4096C219.834 88.3654 219.82 88.2891 219.82 88.2891C220.415 88.2195 221.018 88.3196 221.561 88.5783C221.561 88.5783 222.897 88.1345 222.878 88.0482Z" fill="#7F879D"/>
<path opacity="0.1" d="M195 20.0235C195 20.0235 187.941 15.2146 185.417 20.4237C185.417 20.4237 184.647 21.1504 185.2 22.0203C185.2 22.0203 185.463 21.6812 186.125 22.2436C186.359 22.4421 186.619 22.6147 186.897 22.7576C187.275 22.949 187.711 23.023 188.14 22.9682C188.14 22.9682 190.767 23.4295 193.795 20.8365C193.795 20.8365 194.873 20.5206 194.975 20.3352L193.386 20.074C193.386 20.074 193.219 21.142 192.398 21.6201C192.398 21.6201 193.413 20.133 193.15 20.0256C193.096 20.0024 192.303 19.9203 192.303 19.9203C192.303 19.9203 192.005 21.7781 190.709 22.4795C190.709 22.4795 192.183 20.8555 192 19.8866L190.79 19.8276C190.79 19.8276 190.584 21.8055 189.141 22.6565C189.141 22.6565 190.617 20.9103 190.529 19.8318L189.331 19.9203C189.331 19.9203 189.099 21.8434 187.883 22.5427C187.883 22.5427 189.363 20.3689 189.058 19.9561C189.058 19.9561 187.964 20.0972 187.693 20.2615C187.693 20.2615 187.485 21.6391 186.745 21.9888C186.745 21.9888 187.564 20.4405 187.397 20.3331C187.397 20.3331 186.025 20.8618 185.487 21.4643C185.953 20.8874 186.576 20.4315 187.295 20.1414C186.848 19.9721 186.356 19.9252 185.88 20.0066C185.88 20.0066 186.47 19.4042 187.631 20.0172C187.631 20.0172 188.716 19.6443 188.901 19.6907C188.901 19.6907 187.848 18.9387 186.976 18.8081C186.976 18.8081 188.026 18.5342 189.217 19.6506L190.418 19.539C190.418 19.539 189.086 18.4858 188.318 18.3089C188.318 18.3089 189.435 18.1804 190.723 19.5327L191.91 19.5811C191.91 19.5811 190.837 18.5869 190.029 18.2288C190.029 18.2288 191.093 18.3131 192.247 19.6043L193.036 19.7202C193.036 19.7202 192.238 19.0082 191.988 18.8228C191.739 18.6375 191.776 18.5764 191.776 18.5764C192.418 18.8363 192.969 19.2534 193.367 19.7812C193.367 19.7812 194.97 20.1098 195 20.0235Z" fill="#7F879D"/>
<path opacity="0.1" d="M200 56.7289C200 56.7289 197.604 48.7588 192.214 51.62C192.214 51.62 191.134 51.7789 191 52.8102C191 52.8102 191.428 52.6818 191.576 53.5152C191.631 53.8146 191.723 54.1067 191.85 54.3855C192.019 54.7605 192.311 55.0723 192.683 55.2733C192.683 55.2733 194.446 57.1445 198.515 56.7268C198.515 56.7268 199.567 57.0793 199.768 56.9835L198.69 55.8651C198.69 55.8651 197.863 56.6528 196.907 56.5788C196.907 56.5788 198.674 55.926 198.538 55.6932C198.51 55.6454 197.941 55.1253 197.941 55.1253C197.941 55.1253 196.497 56.4874 195.021 56.3286C195.021 56.3286 197.237 55.8281 197.724 54.9273L196.813 54.1919C196.813 54.1919 195.36 55.7019 193.672 55.5844C193.672 55.5844 195.968 54.9817 196.601 54.0439L195.604 53.4369C195.604 53.4369 194.157 54.8838 192.754 54.775C192.754 54.775 195.335 53.8242 195.367 53.3128C195.367 53.3128 194.415 52.808 194.093 52.7906C194.093 52.7906 193.03 53.8046 192.221 53.674C192.221 53.674 193.875 52.8624 193.815 52.6797C193.815 52.6797 192.394 52.338 191.576 52.5273C192.317 52.3176 193.102 52.2958 193.854 52.4642C193.613 52.0705 193.257 51.7528 192.829 51.5504C192.829 51.5504 193.686 51.3872 194.196 52.5513C194.196 52.5513 195.292 52.8603 195.405 53.0039C195.405 53.0039 195.071 51.7876 194.472 51.1848C194.472 51.1848 195.474 51.5547 195.677 53.1562L196.692 53.7458C196.692 53.7458 196.337 52.1139 195.845 51.5395C195.845 51.5395 196.806 52.0682 196.936 53.9134L197.847 54.6249C197.847 54.6249 197.654 53.1975 197.253 52.449C197.253 52.449 198.034 53.1235 198.098 54.8425L198.64 55.3864C198.64 55.3864 198.481 54.3464 198.412 54.0505C198.344 53.7545 198.412 53.7132 198.412 53.7132C198.749 54.292 198.911 54.9489 198.879 55.6105C198.879 55.6105 199.918 56.7812 200 56.7289Z" fill="#7F879D"/>
<path opacity="0.1" d="M146 74.9529C146 74.9529 141.256 68.2802 136.852 72.2738C136.852 72.2738 135.844 72.6886 136.021 73.6735C136.021 73.6735 136.404 73.4454 136.799 74.1711C136.94 74.4283 137.117 74.6692 137.323 74.8886C137.6 75.188 137.979 75.3978 138.403 75.4858C138.403 75.4858 140.69 76.7465 144.544 75.3199C144.544 75.3199 145.68 75.3738 145.847 75.2349L144.454 74.4884C144.454 74.4884 143.88 75.4215 142.921 75.5977C142.921 75.5977 144.458 74.561 144.252 74.3702C144.212 74.3329 143.497 74.0053 143.497 74.0053C143.497 74.0053 142.492 75.6185 141.001 75.8528C141.001 75.8528 143.019 74.8264 143.228 73.8767L142.116 73.4392C142.116 73.4392 141.147 75.1913 139.462 75.5127C139.462 75.5127 141.528 74.3744 141.865 73.3542L140.704 73.0556C140.704 73.0556 139.724 74.7497 138.319 75.0089C138.319 75.0089 140.558 73.4786 140.435 73.0017C140.435 73.0017 139.353 72.7839 139.041 72.8503C139.041 72.8503 138.305 74.0509 137.474 74.138C137.474 74.138 138.849 72.9726 138.735 72.8192C138.735 72.8192 137.242 72.871 136.499 73.2546C137.162 72.8712 137.926 72.6495 138.714 72.6118C138.361 72.3134 137.918 72.1138 137.439 72.0375C137.439 72.0375 138.226 71.6704 139.065 72.6035C139.065 72.6035 140.226 72.6035 140.386 72.7072C140.386 72.7072 139.689 71.6704 138.925 71.2827C138.925 71.2827 140.017 71.3656 140.695 72.7777L141.867 73.0556C141.867 73.0556 141.029 71.6559 140.377 71.2557C140.377 71.2557 141.475 71.4921 142.155 73.1489L143.251 73.5636C143.251 73.5636 142.633 72.3091 142.013 71.7223C142.013 71.7223 142.979 72.137 143.557 73.6942L144.254 74.053C144.254 74.053 143.79 73.1427 143.625 72.8918C143.46 72.6409 143.525 72.5828 143.525 72.5828C144.027 73.026 144.382 73.5853 144.549 74.1981C144.549 74.1981 145.937 75.0234 146 74.9529Z" fill="#7F879D"/>
<path d="M177 38.0977C177 38.0977 172.465 31.3363 167.896 35.1841C167.896 35.1841 166.869 35.5759 167.014 36.5533C167.014 36.5533 167.404 36.3347 167.777 37.0667C167.911 37.3269 168.079 37.572 168.279 37.7967C168.547 38.1008 168.921 38.3182 169.344 38.4153C169.344 38.4153 171.596 39.7309 175.52 38.4153C175.52 38.4153 176.659 38.4998 176.832 38.3658L175.462 37.5864C175.462 37.5864 174.855 38.4957 173.884 38.6462C173.884 38.6462 175.464 37.6503 175.266 37.4626C175.224 37.4235 174.519 37.077 174.519 37.077C174.519 37.077 173.452 38.6545 171.951 38.8463C171.951 38.8463 174.014 37.8812 174.255 36.9451L173.153 36.4873C173.153 36.4873 172.119 38.205 170.413 38.4792C170.413 38.4792 172.53 37.4049 172.903 36.4007L171.75 36.0708C171.75 36.0708 170.704 37.7204 169.285 37.9472C169.285 37.9472 171.587 36.4873 171.479 36.011C171.479 36.011 170.401 35.7635 170.079 35.8213C170.079 35.8213 169.297 36.9946 168.459 37.0585C168.459 37.0585 169.88 35.9408 169.773 35.7841C169.773 35.7841 168.27 35.7944 167.511 36.1553C168.191 35.7932 168.966 35.5942 169.759 35.5779C169.414 35.2714 168.975 35.0607 168.496 34.9717C168.496 34.9717 169.302 34.6273 170.13 35.5779C170.13 35.5779 171.297 35.613 171.454 35.7181C171.454 35.7181 170.793 34.6871 170.037 34.2623C170.037 34.2623 171.129 34.3737 171.762 35.7965L172.929 36.1058C172.929 36.1058 172.138 34.6913 171.493 34.2747C171.493 34.2747 172.591 34.5407 173.216 36.2048L174.302 36.6523C174.302 36.6523 173.725 35.3882 173.134 34.7964C173.134 34.7964 174.089 35.2356 174.619 36.7987L175.303 37.1739C175.303 37.1739 174.864 36.2563 174.71 36.0027C174.556 35.7491 174.621 35.6934 174.621 35.6934C175.111 36.1477 175.448 36.7131 175.595 37.3265C175.595 37.3265 176.932 38.1658 177 38.0977Z" fill="#7F879D"/>
<path d="M147.999 53.8152C147.999 53.8152 148.216 44.8597 142.465 46.1219C142.465 46.1219 141.435 45.9503 141 46.9704C141 46.9704 141.435 46.9704 141.313 47.8754C141.273 48.1981 141.269 48.5247 141.3 48.8485C141.339 49.2877 141.511 49.7007 141.789 50.0238C141.789 50.0238 142.825 52.5012 146.652 53.3427C146.652 53.3427 147.501 54.0361 147.714 53.9985L147.062 52.513C147.062 52.513 146.074 53.063 145.224 52.6893C145.224 52.6893 147.028 52.5741 146.978 52.2873C146.978 52.2286 146.604 51.514 146.604 51.514C146.604 51.514 144.879 52.466 143.586 51.8407C143.586 51.8407 145.759 52.017 146.469 51.2437L145.863 50.2024C145.863 50.2024 144.086 51.3025 142.586 50.6537C142.586 50.6537 144.857 50.7524 145.717 49.9838L144.994 49.0436C144.994 49.0436 143.24 50.0825 141.997 49.5325C141.997 49.5325 144.631 49.3609 144.822 48.8415C144.822 48.8415 144.109 48.0258 143.823 47.9013C143.823 47.9013 142.549 48.6064 141.854 48.2256C141.854 48.2256 143.592 47.9107 143.603 47.7015C143.603 47.7015 142.415 46.9046 141.613 46.8459C142.352 46.8602 143.075 47.0839 143.71 47.4946C143.611 47.0142 143.384 46.5755 143.058 46.2324C143.058 46.2324 143.886 46.3335 143.999 47.6897C143.999 47.6897 144.905 48.3526 144.963 48.5359C144.963 48.5359 145.026 47.1796 144.664 46.3711C144.664 46.3711 145.463 47.0645 145.163 48.7757L145.909 49.7018C145.909 49.7018 146.078 47.9107 145.806 47.1655C145.806 47.1655 146.519 48.0094 146.08 49.9509L146.682 50.964C146.682 50.964 146.939 49.4338 146.802 48.5335C146.802 48.5335 147.306 49.4738 146.845 51.2625L147.175 51.9912C147.175 51.9912 147.343 50.87 147.364 50.5432C147.386 50.2165 147.469 50.1954 147.469 50.1954C147.6 50.8966 147.548 51.6233 147.319 52.2944C147.319 52.2944 147.903 53.8457 147.999 53.8152Z" fill="#7F879D"/>
<path opacity="0.1" d="M159 165C162.314 165 165 164.328 165 163.5C165 162.672 162.314 162 159 162C155.686 162 153 162.672 153 163.5C153 164.328 155.686 165 159 165Z" fill="#7F879D"/>
<path opacity="0.1" d="M136 180C139.314 180 142 179.328 142 178.5C142 177.672 139.314 177 136 177C132.686 177 130 177.672 130 178.5C130 179.328 132.686 180 136 180Z" fill="#7F879D"/>
<path opacity="0.1" d="M21 173C24.3137 173 27 172.328 27 171.5C27 170.672 24.3137 170 21 170C17.6863 170 15 170.672 15 171.5C15 172.328 17.6863 173 21 173Z" fill="#7F879D"/>
<path opacity="0.1" d="M184 179C187.314 179 190 178.328 190 177.5C190 176.672 187.314 176 184 176C180.686 176 178 176.672 178 177.5C178 178.328 180.686 179 184 179Z" fill="#7F879D"/>
<path d="M189.5 167C194.747 167 199 166.328 199 165.5C199 164.672 194.747 164 189.5 164C184.253 164 180 164.672 180 165.5C180 166.328 184.253 167 189.5 167Z" fill="#7F879D"/>
<path d="M193.134 162.492C193.536 162.13 193.828 161.641 193.972 161.09C194.081 160.532 193.867 159.865 193.388 159.661C192.85 159.433 192.275 159.846 191.838 160.263C191.4 160.68 190.904 161.158 190.333 161.07C190.929 160.47 191.198 159.567 191.041 158.691C191.017 158.513 190.949 158.345 190.845 158.206C190.545 157.852 190.005 158.005 189.646 158.284C188.509 159.171 188.192 160.884 188.185 162.426C188.072 161.871 188.168 161.291 188.166 160.728C188.163 160.166 188.021 159.516 187.586 159.22C187.319 159.055 187.017 158.971 186.711 158.977C186.2 158.958 185.629 159.014 185.281 159.428C184.844 159.943 184.96 160.808 185.336 161.369C185.712 161.929 186.287 162.29 186.816 162.683C187.24 162.964 187.602 163.346 187.875 163.801C187.906 163.865 187.932 163.931 187.951 164H191.157C191.875 163.599 192.54 163.092 193.134 162.492Z" fill="#7F879D"/>
<path d="M18 165.716C18 165.716 21.2221 165.618 22.1982 164.936C23.1743 164.254 27.1583 163.442 27.3997 164.535C27.6411 165.629 32.2444 169.97 28.6046 169.999C24.9648 170.028 20.1474 169.441 19.1776 168.858C18.2078 168.275 18 165.716 18 165.716Z" fill="#A8A8A8"/>
<path opacity="0.2" d="M28.67 170.56C25.0286 170.593 20.2092 169.908 19.239 169.228C18.4998 168.712 18.2058 166.856 18.1071 166H18C18 166 18.21 168.989 19.1739 169.667C20.1378 170.345 24.9635 171.033 28.6049 170.999C29.6549 170.999 30.0182 170.56 29.9993 169.923C29.8523 170.311 29.4512 170.552 28.67 170.56Z" fill="black"/>
<defs>
<linearGradient id="paint0_linear" x1="51.0297" y1="174.986" x2="122" y2="174.986" gradientUnits="userSpaceOnUse">
<stop stop-color="#808080" stop-opacity="0.25"/>
<stop offset="0.54" stop-color="#808080" stop-opacity="0.12"/>
<stop offset="1" stop-color="#808080" stop-opacity="0.1"/>
</linearGradient>
</defs>
</svg>
