<svg width="309" height="246" viewBox="0 0 309 246" fill="none" xmlns="http://www.w3.org/2000/svg">
<path d="M128.5 246C141.479 246 152 243.538 152 240.5C152 237.462 141.479 235 128.5 235C115.521 235 105 237.462 105 240.5C105 243.538 115.521 246 128.5 246Z" fill="#F2F2F2"/>
<path d="M130.5 181C143.479 181 154 178.538 154 175.5C154 172.462 143.479 170 130.5 170C117.521 170 107 172.462 107 175.5C107 178.538 117.521 181 130.5 181Z" fill="#F2F2F2"/>
<path d="M23.5 184C36.4787 184 47 181.538 47 178.5C47 175.462 36.4787 173 23.5 173C10.5213 173 0 175.462 0 178.5C0 181.538 10.5213 184 23.5 184Z" fill="#F2F2F2"/>
<rect x="9" y="1" width="132" height="5" fill="#F5F5F5"/>
<rect x="5" width="138" height="168" fill="url(#paint0_linear)"/>
<rect x="9" y="6" width="132" height="160" fill="white"/>
<path d="M11.5 5C12.3284 5 13 4.32843 13 3.5C13 2.67157 12.3284 2 11.5 2C10.6716 2 10 2.67157 10 3.5C10 4.32843 10.6716 5 11.5 5Z" fill="#FF5252"/>
<path d="M14.5 5C15.3284 5 16 4.32843 16 3.5C16 2.67157 15.3284 2 14.5 2C13.6716 2 13 2.67157 13 3.5C13 4.32843 13.6716 5 14.5 5Z" fill="#FFFF00"/>
<path d="M18.5 5C19.3284 5 20 4.32843 20 3.5C20 2.67157 19.3284 2 18.5 2C17.6716 2 17 2.67157 17 3.5C17 4.32843 17.6716 5 18.5 5Z" fill="#69F0AE"/>
<g opacity="0.2">
<rect x="12.2148" y="12" width="51.6533" height="4" fill="#00B476"/>
</g>
<rect x="49" y="24" width="52" height="4" fill="#F5F5F5"/>
<rect opacity="0.5" x="12" y="126" width="52" height="4" fill="#00B476"/>
<rect x="71" y="126" width="18" height="4" fill="url(#paint1_linear)"/>
<rect x="71" y="145" width="18" height="4" fill="url(#paint2_linear)"/>
<rect x="106" y="145" width="18" height="4" fill="url(#paint3_linear)"/>
<rect x="72" y="126" width="16" height="4" fill="#00B476"/>
<rect x="72" y="145" width="16" height="4" fill="#00B476"/>
<rect x="107" y="145" width="16" height="4" fill="#00B476"/>
<rect x="12" y="136" width="52" height="4" fill="#F5F5F5"/>
<rect opacity="0.5" x="72" y="136" width="52" height="4" fill="#00B476"/>
<rect x="72" y="155" width="52" height="4" fill="#F5F5F5"/>
<rect opacity="0.5" x="12" y="145" width="52" height="4" fill="#00B476"/>
<rect x="12" y="155" width="52" height="4" fill="#F5F5F5"/>
<rect x="49" y="30" width="29" height="4" fill="#F5F5F5"/>
<rect x="83" y="30" width="10" height="4" fill="#F5F5F5"/>
<rect x="49" y="40" width="29" height="4" fill="#F5F5F5"/>
<rect x="83" y="40" width="10" height="4" fill="#F5F5F5"/>
<rect x="49" y="35" width="52" height="4" fill="#F5F5F5"/>
<g opacity="0.2">
<rect x="85.2148" y="12" width="51.6533" height="4" fill="#00B476"/>
</g>
<rect x="114" y="24" width="6" height="4" fill="url(#paint4_linear)"/>
<rect x="114" y="30" width="6" height="4" fill="url(#paint5_linear)"/>
<rect x="114" y="35" width="6" height="4" fill="url(#paint6_linear)"/>
<rect x="115" y="24" width="5" height="4" fill="#FF5252"/>
<rect x="115" y="30" width="5" height="4" fill="#FF9800"/>
<rect x="115" y="35" width="5" height="4" fill="#69F0AE"/>
<rect x="114" y="40" width="6" height="4" fill="url(#paint7_linear)"/>
<rect x="115" y="40" width="5" height="4" fill="#00B476"/>
<rect x="12" y="63" width="127" height="52" fill="url(#paint8_linear)"/>
<rect opacity="0.5" x="13" y="65" width="124" height="49" fill="#00B476"/>
<path opacity="0.5" d="M16.7994 68.7958H137V65H13V114H16.7994V68.7958V68.7958Z" fill="white"/>
<path d="M11.8883 71.4675L139.512 59.8398L144.284 112.328L16.6598 123.956L11.8883 71.4675Z" fill="url(#paint9_linear)"/>
<path d="M14.0823 72.6566L137.912 61.3746L142.369 110.41L18.5398 121.692L14.0823 72.6566Z" fill="white"/>
<path opacity="0.5" d="M23.1553 113L21 85.9352C21 85.9352 32.1239 74.253 54.5802 82.9115C77.0365 91.5701 87.6251 85.4576 91.2751 79.6096C94.9251 73.7616 113.87 67.2402 120.009 77.0223C126.148 86.8044 133.511 75.806 133.511 75.806L136 102.837L23.1553 113Z" fill="#00B476"/>
<path d="M34.9068 79L35.0938 81" stroke="#00B476"/>
<path d="M35 86L37 108" stroke="#00B476" stroke-dasharray="11.51"/>
<path d="M36.9051 109L37.0956 111" stroke="#00B476"/>
<path d="M55.9051 83L56.0956 85" stroke="#00B476"/>
<path d="M57 90L59 106" stroke="#00B476" stroke-dasharray="13.06"/>
<path d="M57.9068 107L58.0938 109" stroke="#00B476"/>
<path d="M77.8964 87L78.1042 89" stroke="#00B476"/>
<path d="M79 93L80 104" stroke="#00B476" stroke-dasharray="9.79"/>
<path d="M79.8982 106L80.1025 108" stroke="#00B476"/>
<path d="M96.9068 75L97.0938 77" stroke="#00B476"/>
<path d="M98 80L100 101" stroke="#00B476" stroke-dasharray="11.28"/>
<path d="M99.9051 104L100.096 106" stroke="#00B476"/>
<path d="M110.907 71L111.094 73" stroke="#00B476"/>
<path d="M112 78L114 101" stroke="#00B476" stroke-dasharray="11.93"/>
<path d="M113.905 102L114.096 104" stroke="#00B476"/>
<path d="M34.6852 81.2269C35.6377 81.1401 36.3396 80.2967 36.2529 79.3431C36.1662 78.3896 35.3238 77.6869 34.3713 77.7737C33.4188 77.8605 32.7169 78.7038 32.8036 79.6574C32.8903 80.611 33.7327 81.3136 34.6852 81.2269Z" fill="#FF9800"/>
<path d="M55.8815 84.8675C56.834 84.7807 57.5359 83.9373 57.4492 82.9838C57.3625 82.0302 56.5201 81.3275 55.5676 81.4143C54.6151 81.5011 53.9132 82.3445 53.9999 83.298C54.0866 84.2516 54.929 84.9543 55.8815 84.8675Z" fill="#FF5252"/>
<path d="M77.7731 88.4417C78.7256 88.3549 79.4275 87.5116 79.3408 86.558C79.2541 85.6044 78.4117 84.9018 77.4592 84.9885C76.5067 85.0753 75.8048 85.9187 75.8915 86.8723C75.9782 87.8258 76.8206 88.5285 77.7731 88.4417Z" fill="#69F0AE"/>
<path d="M97.2439 76.9194C98.5774 76.7979 99.56 75.6172 99.4387 74.2822C99.3173 72.9472 98.1379 71.9634 96.8044 72.0849C95.4709 72.2064 94.4883 73.3871 94.6097 74.7221C94.731 76.0571 95.9104 77.0409 97.2439 76.9194Z" fill="url(#paint10_linear)"/>
<path d="M111.605 74.2192C112.939 74.0977 113.921 72.917 113.8 71.582C113.679 70.247 112.499 69.2632 111.166 69.3847C109.832 69.5062 108.85 70.6869 108.971 72.0219C109.092 73.3569 110.272 74.3407 111.605 74.2192Z" fill="url(#paint11_linear)"/>
<path d="M97.1813 76.2288C98.1338 76.142 98.8357 75.2987 98.749 74.3451C98.6623 73.3915 97.8199 72.6889 96.8674 72.7756C95.9149 72.8624 95.213 73.7058 95.2997 74.6594C95.3864 75.6129 96.2288 76.3156 97.1813 76.2288Z" fill="#00B476"/>
<path d="M111.543 73.5286C112.495 73.4418 113.197 72.5985 113.11 71.6449C113.024 70.6913 112.181 69.9887 111.229 70.0754C110.276 70.1622 109.574 71.0056 109.661 71.9592C109.748 72.9127 110.59 73.6154 111.543 73.5286Z" fill="#00B476"/>
<path d="M133.492 77.7952C134.444 77.7084 135.146 76.8651 135.06 75.9115C134.973 74.9579 134.13 74.2553 133.178 74.3421C132.225 74.4288 131.524 75.2722 131.61 76.2258C131.697 77.1793 132.539 77.882 133.492 77.7952Z" fill="#69F0AE"/>
<g opacity="0.2">
<path d="M136.63 110.36L136.665 110.475C137.05 110.26 136.63 110.36 136.63 110.36Z" fill="url(#paint12_linear)"/>
</g>
<g opacity="0.2">
<path fill-rule="evenodd" clip-rule="evenodd" d="M139.744 167.984L134.109 168.896H134.102L133.936 168.924H133.856C133.756 168.888 133.685 168.798 133.673 168.692C133.665 168.61 133.673 168.527 133.697 168.449C133.717 168.379 133.741 168.311 133.77 168.244C133.879 167.98 134.065 167.667 134.255 167.348C134.414 167.081 134.576 166.81 134.697 166.559C134.743 166.464 134.782 166.367 134.815 166.267C134.858 166.139 134.889 166.006 134.909 165.872C134.926 165.813 134.926 165.757 134.926 165.702L130.606 151.482H130.627L130.526 151.136C130.526 151.136 125.019 153.501 123.603 158.235C122.44 162.071 123.167 164.561 123.479 165.366H123.499V165.393C123.562 165.549 123.603 165.629 123.603 165.629H123.499V168.234H117.542C117.14 168.032 117.65 167.545 118.182 167.035C118.199 167.019 118.217 167.002 118.234 166.985L118.373 166.853C118.504 166.725 118.629 166.6 118.736 166.475C118.835 166.362 118.92 166.238 118.989 166.104C119.029 166.026 119.063 165.945 119.089 165.862C119.104 165.816 119.117 165.77 119.127 165.723H119.027L118.982 165.511C117.458 158.419 119.791 151.047 125.116 146.131C125.105 146.116 125.095 146.1 125.088 146.082C122.79 139.025 124.818 133.371 125.064 132.733C124.507 132.338 113.592 124.42 113.662 114.203C113.658 113.652 113.687 113.102 113.748 112.555C113.748 112.555 112.803 111.764 113.748 110.346L113.835 110.228L113.862 110.193L113.921 110.124L113.956 110.086L114.015 110.03L114.053 109.996L114.112 109.947L114.15 109.916L114.212 109.874L114.257 109.663L114.323 109.625L114.357 109.607L114.454 109.562L114.558 109.524H114.593L114.662 109.503H114.704H114.766H114.811H114.873H115.219C115.648 109.547 116.061 109.685 116.431 109.905C116.431 109.905 117.061 111.959 116.431 112.43H116.587C116.587 112.43 123.046 126.411 127.383 128.384C127.482 128.322 127.584 128.263 127.688 128.207V126.376C127.684 126.297 127.684 126.219 127.688 126.14C127.696 126.064 127.709 125.989 127.726 125.915C127.239 125.663 126.798 125.331 126.421 124.933C126.275 124.779 126.14 124.616 126.016 124.444L125.995 124.416C125.937 124.338 125.883 124.257 125.832 124.174V124.153C125.777 124.063 125.724 123.971 125.673 123.879V123.855C125.632 123.774 125.591 123.69 125.552 123.605L125.528 123.549C125.445 123.362 125.375 123.17 125.317 122.974L125.296 122.901C125.273 122.82 125.252 122.738 125.234 122.655V122.596C125.21 122.496 125.192 122.396 125.178 122.294V122.228C125.16 122.145 125.15 122.062 125.15 121.978V121.892V121.576C125.15 121.002 125.251 120.433 125.448 119.894C125.501 119.744 125.562 119.597 125.632 119.453C125.652 119.411 125.671 119.375 125.691 119.336C125.706 119.307 125.721 119.277 125.739 119.242C125.774 119.172 125.814 119.107 125.854 119.041C125.862 119.028 125.87 119.015 125.877 119.003C125.769 118.867 125.639 118.75 125.493 118.656C125.218 118.498 124.912 118.4 124.597 118.368H124.444H123.977H123.866H123.821C123.769 118.36 123.717 118.348 123.665 118.333C123.551 118.29 123.443 118.232 123.344 118.16C123.19 118.032 123.012 117.938 122.821 117.882H123.167H123.285H123.51H123.652L123.849 117.858L124.001 117.834L124.185 117.803L124.344 117.771L124.517 117.73L124.68 117.688L124.846 117.64L125.009 117.591L125.171 117.532L125.33 117.477L125.632 117.352C125.472 117.417 125.302 117.458 125.13 117.473H124.784H124.694H124.614H124.527L124.437 117.449L124.316 117.414L124.219 117.379L124.147 117.348L124.06 117.31L123.991 117.275L123.908 117.227L123.845 117.189L123.752 117.123L123.707 117.092L123.579 116.984L123.544 116.953L123.458 116.866L123.416 116.821L123.347 116.734L123.309 116.686L123.247 116.589L123.219 116.544C123.191 116.494 123.166 116.443 123.143 116.391C123.201 116.412 123.265 116.43 123.327 116.447C123.338 116.451 123.35 116.454 123.361 116.457L123.51 116.492C123.967 116.593 124.441 116.586 124.894 116.471C124.988 116.446 125.074 116.419 125.164 116.388H125.182C125.265 116.356 125.344 116.322 125.424 116.283H125.324C125.195 116.275 125.07 116.239 124.957 116.179C124.88 116.14 124.808 116.091 124.742 116.034C124.509 115.835 124.363 115.552 124.337 115.246C124.329 115.118 124.349 114.989 124.396 114.868C124.439 114.913 124.484 114.956 124.531 114.997L124.655 115.094C125.031 115.366 125.491 115.497 125.954 115.465C126.012 115.448 126.068 115.448 126.123 115.448C126.533 115.347 126.931 115.203 127.31 115.018C127.425 114.973 127.539 114.934 127.657 114.896L127.76 114.865L128.041 114.789L128.204 114.754L128.429 114.712L128.626 114.685H128.744C128.9 114.664 129.057 114.653 129.214 114.653H129.502C131.014 114.696 132.457 115.299 133.552 116.346C133.805 116.592 134.037 116.86 134.244 117.147C134.272 115.309 134.06 113.759 133.462 112.881L133.579 112.843L133.621 112.881C133.621 112.881 133.749 112.916 133.967 112.954C134.037 113.065 134.099 113.181 134.154 113.301C134.058 112.815 133.872 112.352 133.607 111.934L133.725 111.896C133.555 111.719 132.942 110.963 133.766 109.725C134.711 108.307 136.442 109.409 136.442 109.409C136.581 109.877 136.672 110.356 136.715 110.842C136.847 110.79 136.94 110.748 137.003 110.717C137.349 111.803 140.894 124.243 134.926 132.171C134.944 132.341 134.953 132.511 134.954 132.681V146.086L138.948 164.467H138.969V164.516L139.744 167.984ZM132.094 128.242C132.217 128.295 132.332 128.352 132.44 128.412H132.444C132.655 127.538 132.887 126.522 133.095 125.46C132.778 125.727 132.429 125.952 132.056 126.13C132.081 126.259 132.093 126.39 132.094 126.522V128.242Z" fill="url(#paint13_linear)"/>
</g>
<path d="M113.494 114.733C113.494 114.733 112.382 113.729 113.494 111.922C114.606 110.114 116.671 111.523 116.671 111.523C116.671 111.523 117.412 114.131 116.671 114.733C115.929 115.334 113.494 114.733 113.494 114.733Z" fill="#CA7070"/>
<path d="M124 172H119.019C119.057 172.574 118.885 173.139 118.55 173.547C117.879 174.483 116.531 175.614 117.166 176H124V172Z" fill="#00695C"/>
<path opacity="0.2" d="M119.402 173.547C119.825 173.139 120.041 172.574 119.994 172H119.542C119.589 172.574 119.373 173.139 118.951 173.547C118.107 174.483 116.409 175.614 117.208 176H117.66C116.861 175.614 118.558 174.488 119.402 173.547Z" fill="white"/>
<path d="M141.084 171L136.398 171.741C136.528 172.284 136.452 172.855 136.185 173.349C135.674 174.402 134.524 175.716 135.216 176L142 174.947L141.084 171Z" fill="#00695C"/>
<path d="M139.376 112.013C139.376 112.013 144.866 128.74 135.658 138L133 136.035C133 136.035 138.442 117.778 135.396 113.492C140.772 111.763 139.376 112.013 139.376 112.013Z" fill="#00695C"/>
<path d="M135.494 113.733C135.494 113.733 134.382 112.729 135.494 110.922C136.606 109.114 138.671 110.523 138.671 110.523C138.671 110.523 139.412 113.131 138.671 113.733C137.929 114.334 135.494 113.733 135.494 113.733Z" fill="#CA7070"/>
<path opacity="0.2" d="M136.524 173.362C136.788 172.869 136.863 172.299 136.734 171.756L141 171.056V171L136.379 171.756C136.507 172.297 136.432 172.866 136.169 173.358C135.664 174.408 134.53 175.717 135.213 176L135.494 175.955C134.985 175.605 136.041 174.348 136.524 173.362Z" fill="white"/>
<rect x="129" y="127" width="5" height="7" rx="2.5" fill="#CA7070"/>
<path opacity="0.2" d="M133.575 137.083C133.575 137.083 139.119 119.455 136.1 115.122C135.833 115.077 135.662 115.042 135.662 115.042L135.612 115L135.471 115.042C138.613 119.225 133 137.079 133 137.079L135.742 139L135.982 138.763L133.575 137.083Z" fill="white"/>
<path d="M131.5 130C134.538 130 137 127.538 137 124.5C137 121.462 134.538 119 131.5 119C128.462 119 126 121.462 126 124.5C126 127.538 128.462 130 131.5 130Z" fill="#CA7070"/>
<path opacity="0.2" d="M129.055 131.473V129.048C129.055 128.87 129.072 128.693 129.104 128.52C127.204 127.371 126.194 124.866 126.637 122.406C127.08 119.946 128.868 118.141 131 118H130.733C128.549 117.999 126.648 119.76 126.134 122.26C125.619 124.76 126.625 127.35 128.568 128.527C128.536 128.7 128.519 128.877 128.519 129.055V131.48C128.514 132.205 128.776 132.897 129.237 133.376C129.699 133.855 130.314 134.075 130.924 133.977C129.855 133.814 129.055 132.742 129.055 131.473Z" fill="white"/>
<path d="M137 151.471C137 151.471 126.584 152.662 126.2 151.471C123.5 143.086 126.2 136.471 126.2 136.471C126.2 133.449 128.618 131 131.6 131V131C134.582 131 137 133.449 137 136.471V151.471Z" fill="#00695C"/>
<path d="M136.266 151L141 173H136.266L131.359 156.679C131.359 156.679 125.223 159.34 123.647 164.663C122.072 169.986 123.647 173 123.647 173H118.562L118.51 172.761C116.808 164.783 119.432 156.491 125.397 151V151" fill="#263238"/>
<path opacity="0.2" d="M126.91 151.459C124.189 143.075 126.91 136.46 126.91 136.46C126.909 133.576 129.137 131.186 132 131C131.885 131 131.767 131 131.652 131V131C128.646 131 126.209 133.449 126.209 136.47C126.209 136.47 123.488 143.089 126.209 151.47C126.349 151.897 127.784 152.016 129.568 151.998C128.119 151.967 127.021 151.827 126.91 151.459Z" fill="white"/>
<path d="M126.568 136C126.568 136 112.712 126.299 114.097 114H117.215C117.215 114 124.66 130.125 129.431 131.672C134.202 133.219 126.568 136 126.568 136Z" fill="#00695C"/>
<g opacity="0.2">
<path d="M132.407 157.163L137.192 172.807H137.883L133.008 156.871C133.008 156.871 132.784 156.967 132.407 157.163Z" fill="white"/>
<path d="M127.094 151.326H126.403C120.479 156.688 117.872 164.784 119.563 172.573L119.615 172.807H120.306L120.254 172.573C118.563 164.784 121.17 156.688 127.094 151.326Z" fill="white"/>
</g>
<path opacity="0.2" d="M113.619 115H113.097C111.712 127.299 125.654 137 125.654 137L126 136.869C124.384 135.683 112.314 126.481 113.619 115Z" fill="white"/>
<path d="M127.646 122.371C127.947 123.063 128.157 123.792 128.274 124.538C128.618 126.047 129.397 127.553 130.738 128.328C131.481 128.731 132.306 128.956 133.151 128.986C134.433 129.065 135.822 128.817 136.728 127.908C137.293 127.291 137.672 126.528 137.821 125.706C138.372 123.238 137.633 120.659 135.86 118.856C134.031 117.09 131.351 116.529 128.967 117.412C128.549 117.616 128.111 117.776 127.66 117.888C126.96 118 126.248 117.763 125.754 117.254C125.641 117.621 125.71 118.02 125.939 118.328C126.169 118.635 126.532 118.815 126.916 118.811C126.111 119.197 125.186 119.247 124.345 118.949C124.834 119.98 126.037 120.46 127.102 120.048C126.126 120.482 125.068 120.699 124 120.682C124.224 120.682 124.662 121.096 124.934 121.178C125.276 121.233 125.622 121.257 125.968 121.251C126.688 121.295 127.329 121.723 127.646 122.371V122.371Z" fill="#263238"/>
<g opacity="0.2">
<path d="M126.392 118.84C125.967 119.027 125.506 119.134 125.035 119.156C125.631 119.184 126.225 119.075 126.762 118.84C126.4 118.842 126.053 118.705 125.806 118.464C125.559 118.223 125.435 117.898 125.464 117.57C125.354 117.5 125.251 117.42 125.156 117.333C125.036 117.688 125.109 118.074 125.353 118.372C125.597 118.67 125.983 118.843 126.392 118.84Z" fill="white"/>
<path d="M127.551 117.956C128.031 117.848 128.497 117.694 128.941 117.496C129.642 117.245 130.387 117.108 131.141 117.093C130.264 117.067 129.39 117.204 128.574 117.496C128.13 117.694 127.664 117.848 127.184 117.956C127.118 117.956 127.052 117.956 126.986 117.976C127.175 117.992 127.365 117.985 127.551 117.956Z" fill="white"/>
<path d="M124.621 121.139C124.331 121.063 123.866 120.666 123.627 120.659C124.763 120.675 125.89 120.466 126.927 120.046C126.695 120.133 126.446 120.181 126.194 120.186C125.259 120.513 124.263 120.674 123.261 120.659C123.499 120.659 123.965 121.059 124.254 121.139C124.506 121.195 124.766 121.214 125.024 121.196C124.888 121.193 124.752 121.174 124.621 121.139Z" fill="white"/>
<path d="M133.388 128.693C132.49 128.664 131.611 128.446 130.821 128.056C129.395 127.3 128.581 125.843 128.2 124.39C128.076 123.668 127.852 122.963 127.532 122.293C127.189 121.663 126.497 121.251 125.725 121.216C125.542 121.204 125.358 121.204 125.175 121.216H125.354C126.127 121.251 126.819 121.663 127.162 122.293C127.481 122.963 127.706 123.668 127.829 124.39C128.196 125.85 129.025 127.306 130.451 128.056C131.241 128.446 132.12 128.664 133.018 128.693C133.23 128.693 133.443 128.693 133.659 128.693H133.388Z" fill="white"/>
<path d="M125.964 120.173C125.175 120.121 124.469 119.711 124.086 119.083C123.941 119.055 123.797 119.018 123.657 118.973C124.077 119.769 124.995 120.247 125.964 120.173V120.173Z" fill="white"/>
</g>
<path opacity="0.2" d="M113.964 114.737C113.964 114.737 112.725 113.734 113.964 111.925C114.298 111.401 114.872 111.061 115.508 111.013C114.728 110.925 113.964 111.281 113.551 111.925C112.312 113.734 113.551 114.737 113.551 114.737C114.355 114.911 115.176 114.999 116 115C115.315 114.967 114.634 114.879 113.964 114.737V114.737Z" fill="white"/>
<g opacity="0.2">
<path d="M13.4848 114.425L13.5248 114.29C13.5248 114.29 13.0148 114.19 13.4848 114.425Z" fill="url(#paint14_linear)"/>
</g>
<g opacity="0.2">
<path d="M45.7196 120.217C45.6858 120.106 45.6437 119.998 45.5934 119.893C45.5934 119.858 45.5584 119.83 45.5409 119.799C45.5091 119.737 45.474 119.677 45.4357 119.618L45.3657 119.528C45.3294 119.481 45.2908 119.435 45.25 119.392L45.1694 119.312C45.1274 119.274 45.0853 119.239 45.0433 119.207L44.9557 119.145L44.8155 119.061L44.7279 119.016L44.5702 118.95L44.4896 118.919C44.4148 118.893 44.3389 118.872 44.2618 118.856V118.856C43.7519 118.76 43.2273 118.774 42.7234 118.898C42.7234 118.898 41.2551 121.049 41.8193 121.821L41.6336 121.766C41.6336 121.766 30.7248 133.856 24.5713 136.101C24.4148 135.995 24.2524 135.895 24.0842 135.802V133.54C24.0893 133.445 24.0893 133.349 24.0842 133.254V133.254C24.0737 133.164 24.0584 133.075 24.0386 132.986L24.0842 132.962L24.2664 132.861L24.5292 132.701L24.6975 132.593C24.8236 132.507 24.9404 132.417 25.0479 132.322L25.1845 132.203C25.2686 132.134 25.3492 132.061 25.4263 131.984L25.5665 131.848C25.6646 131.748 25.7581 131.646 25.8469 131.542L25.945 131.424C26.0291 131.319 26.1097 131.212 26.1868 131.103L26.2849 130.957C26.355 130.851 26.4216 130.741 26.4846 130.63L26.5477 130.522C26.6248 130.38 26.6984 130.23 26.7615 130.077L26.8175 129.941C26.8666 129.818 26.9122 129.694 26.9542 129.569C26.9542 129.523 26.9857 129.482 26.9963 129.436C27.0453 129.273 27.0909 129.109 27.1259 128.939C27.1259 128.904 27.1259 128.873 27.1434 128.838C27.1715 128.696 27.1937 128.552 27.21 128.406C27.21 128.357 27.21 128.309 27.21 128.26C27.21 128.082 27.2381 127.912 27.2381 127.721C27.2382 126.366 26.7707 125.053 25.9134 124C26.3795 123.276 26.6844 122.848 26.6844 122.848C26.404 122.657 26.1272 122.483 25.8539 122.312L25.5875 122.155C25.4053 122.047 25.2371 121.94 25.0409 121.842L24.736 121.682C24.5713 121.595 24.4101 121.511 24.2489 121.435L23.937 121.292L23.471 121.09L23.1661 120.969C23.0119 120.909 22.8577 120.854 22.707 120.801L22.4197 120.704C22.262 120.655 22.1043 120.61 21.9501 120.568L21.6943 120.499C21.5191 120.457 21.3439 120.422 21.1722 120.387L20.9864 120.349C20.7516 120.307 20.5204 120.276 20.2856 120.255V120.255C18.8517 120.102 17.4024 120.323 16.0804 120.895C16.1505 119.232 16.4309 117.861 17.0196 117.011L16.8759 116.963L16.8269 117.011C16.8269 117.011 16.6551 117.05 16.3853 117.098C16.3002 117.234 16.2241 117.374 16.1575 117.519C16.2753 116.931 16.5023 116.369 16.8269 115.863L16.6832 115.814C16.8899 115.602 17.6398 114.686 16.6341 113.186C15.4777 111.467 13.3611 112.804 13.3611 112.804C13.1933 113.371 13.083 113.954 13.0317 114.544C12.8705 114.478 12.7549 114.429 12.6813 114.391C11.6673 117.944 11.115 121.612 11.0378 125.305C7.22164 130.686 5.64472 138.628 5.33634 140.34V140.34L5.31181 140.476V140.476C5.29079 140.601 5.28027 140.668 5.28027 140.668L15.2009 140.897C15.2009 140.932 15.2009 140.963 15.2009 140.998V156.601L7.97856 171.772C7.97856 171.772 10.7259 171.859 14.861 172.384L13.7186 180.497V180.497L13.3366 182.773H20.212C20.9759 181.256 17.1563 180.497 17.1563 180.497H17.0722L18.5615 172.927C19.2203 173.036 19.8978 173.152 20.5939 173.275C21.6146 173.471 22.6492 173.588 23.6882 173.623V173.623C24.5484 173.653 25.4096 173.616 26.2639 173.512C26.7685 177.615 26.1062 180.066 25.98 180.473H25.9415L25.5595 182.749H32.4349C33.1007 181.426 30.2833 180.678 29.5509 180.511L29.5824 180.288C29.936 177.729 30.0265 175.14 29.8522 172.562C30.7394 172.205 31.5666 171.715 32.3052 171.111V171.111L32.3998 171.027V171.027L32.4279 170.999L27.3081 156.73C28.2648 152.692 24.9357 148.453 26.7124 146.334C28.4891 144.214 27.4133 141.51 27.203 141.047C32.0109 138.959 41.7282 133.738 44.4545 124.689C44.6548 124.053 44.8174 123.406 44.9416 122.751C44.9416 122.751 46.3153 122.197 45.7196 120.217Z" fill="url(#paint15_linear)"/>
</g>
<path d="M14.624 116.013C14.624 116.013 9.1341 132.74 18.3418 142L21 140.035C21 140.035 15.5581 121.778 18.6039 117.492C13.2285 115.763 14.624 116.013 14.624 116.013Z" fill="#FF5252"/>
<path d="M18.5058 117.733C18.5058 117.733 19.6177 116.729 18.5058 114.922C17.3939 113.114 15.3295 114.523 15.3295 114.523C15.3295 114.523 14.5882 117.131 15.3295 117.733C16.0707 118.334 18.5058 117.733 18.5058 117.733Z" fill="#F6B9AD"/>
<rect x="25" y="139" width="5" height="7" rx="2.5" transform="rotate(180 25 139)" fill="#F6B9AD"/>
<path opacity="0.2" d="M20.425 141.083C20.425 141.083 14.8806 123.455 17.9003 119.122C18.1669 119.077 18.3382 119.042 18.3382 119.042L18.3877 119L18.5286 119.042C15.3871 123.225 21 141.079 21 141.079L18.2583 143L18.0184 142.763L20.425 141.083Z" fill="white"/>
<path d="M22.5 134C25.5376 134 28 131.538 28 128.5C28 125.462 25.5376 123 22.5 123C19.4624 123 17 125.462 17 128.5C17 131.538 19.4624 134 22.5 134Z" fill="#F6B9AD"/>
<path opacity="0.2" d="M23.9447 136.473V134.048C23.9445 133.87 23.9283 133.693 23.8962 133.52C25.7957 132.371 26.8064 129.866 26.363 127.406C25.9196 124.946 24.132 123.141 22 123H22.2666C24.4511 122.999 26.3521 124.76 26.8665 127.26C27.3809 129.76 26.375 132.35 24.4324 133.527C24.4644 133.7 24.4807 133.877 24.4809 134.055V136.48C24.4864 137.205 24.2244 137.897 23.7628 138.376C23.3012 138.855 22.6855 139.075 22.0757 138.977C23.1445 138.814 23.9445 137.742 23.9447 136.473Z" fill="white"/>
<path d="M17 156.471C17 156.471 27.1595 157.662 27.5338 156.471C28.7477 152.618 25.5107 148.454 27.1292 146.419C28.8152 144.318 27.5338 141.471 27.5338 141.471C27.5338 138.449 25.1758 136 22.2669 136V136C19.3581 136 17 138.449 17 141.471V156.471Z" fill="#FF5252"/>
<path opacity="0.2" d="M27.1393 146.419C28.8057 144.317 27.5392 141.47 27.5392 141.47C27.5392 138.449 25.2084 136 22.3333 136C22.22 136 22.11 136 22 136.018C24.7386 136.2 26.8711 138.587 26.8727 141.47C26.8727 141.47 28.1391 144.317 26.4727 146.419C24.8596 148.453 28.0725 152.614 26.8727 156.47C26.7593 156.837 25.7228 156.977 24.3463 156.998C26.0428 157.016 27.4092 156.897 27.5392 156.47C28.7524 152.61 25.5262 148.453 27.1393 146.419Z" fill="white"/>
<path d="M25.1736 155V155C29.0594 160.489 30.7797 168.783 29.667 176.761L29.6352 177H26.3182C26.3182 177 27.3461 173.983 26.3182 168.663C25.6881 165.474 23.8963 162.63 21.2879 160.679L18.0874 177H15L18.0874 155L25.1736 155Z" fill="#F6B9AD"/>
<path d="M44.105 125C44.105 125 45.4259 124.421 44.8583 122.43C44.2906 120.438 41.9835 121.108 41.9835 121.108C41.9835 121.108 40.5825 123.267 41.1247 124.044C41.6669 124.821 44.105 125 44.105 125Z" fill="#F6B9AD"/>
<path d="M24.3965 142C24.3965 142 40.692 136.584 43 123.95L39.9818 123C39.9818 123 27.9891 136.731 22.924 136.827C17.8588 136.923 24.3965 142 24.3965 142Z" fill="#FF5252"/>
<path opacity="0.2" d="M43.4924 124L44 124.155C41.6788 136.646 25.2906 142 25.2906 142L25 141.771C26.9361 141.093 41.3287 135.651 43.4924 124Z" fill="white"/>
<g opacity="0.2">
<path d="M21.3102 160.785L18.127 176.721H18.8297L21.9215 161.253C21.726 161.087 21.522 160.931 21.3102 160.785V160.785Z" fill="white"/>
<path d="M25.8814 155.24H25.1787C29.0436 160.599 30.7547 168.698 29.6479 176.487L29.6163 176.721H30.319L30.3506 176.487C31.4574 168.698 29.7533 160.599 25.8814 155.24Z" fill="white"/>
</g>
<path opacity="0.2" d="M42.7669 124.888C42.7669 124.888 44.0759 124.299 43.5134 122.274C43.3748 121.694 42.986 121.22 42.4676 121C43.143 121.132 43.6858 121.673 43.8596 122.386C44.4221 124.408 43.1131 125 43.1131 125C42.3964 124.941 41.6878 124.798 41 124.574C41.5798 124.731 42.1709 124.836 42.7669 124.888Z" fill="white"/>
<path d="M16.5312 155L10 169.24C13.809 169.437 17.5997 169.912 21.3438 170.664C28.5625 172.088 32 168.528 32 168.528L27.3422 155H16.5312Z" fill="#263238"/>
<path d="M18.2851 177C18.2851 177 21.5701 177.667 20.9131 179H15L15.3285 177H18.2851Z" fill="#FF5252"/>
<path d="M30.2851 177C30.2851 177 33.5701 177.667 32.9131 179H27L27.3285 177H30.2851Z" fill="#FF5252"/>
<path d="M27 124.4C27 124.4 18.8571 136.158 22.5893 141L8 140.654C8 140.654 12.0714 114.024 27 124.4Z" fill="#FCCC63"/>
<path opacity="0.2" d="M27 124.364C24.8964 122.898 23.01 122.17 21.317 122C22.7403 122.457 24.0853 123.137 25.3036 124.017C25.3036 124.017 17.1607 135.801 20.8929 140.653L8.05089 140.348C8.01696 140.546 8 140.653 8 140.653L22.5893 141C18.8571 136.148 27 124.364 27 124.364Z" fill="white"/>
<path opacity="0.2" d="M27.2664 155H26.2183L30.952 168.531C30.952 168.531 28.6952 170.828 24 170.991C29.4044 171.169 32 168.531 32 168.531L27.2664 155Z" fill="white"/>
<path opacity="0.2" d="M18.7794 177H18C18 177 21.8969 177.667 21.1176 179H21.8969C22.6763 177.667 18.7794 177 18.7794 177Z" fill="white"/>
<path opacity="0.2" d="M29.7794 177H29C29 177 32.8969 177.667 32.1176 179H32.8969C33.6763 177.667 29.7794 177 29.7794 177Z" fill="white"/>
<rect x="174" y="58" width="132" height="5" fill="#F5F5F5"/>
<rect x="171" y="56" width="138" height="172" fill="url(#paint16_linear)"/>
<rect x="174" y="62" width="132" height="160" fill="white"/>
<path d="M176.5 62C177.328 62 178 61.3284 178 60.5C178 59.6716 177.328 59 176.5 59C175.672 59 175 59.6716 175 60.5C175 61.3284 175.672 62 176.5 62Z" fill="#FF5252"/>
<path d="M180.5 62C181.328 62 182 61.3284 182 60.5C182 59.6716 181.328 59 180.5 59C179.672 59 179 59.6716 179 60.5C179 61.3284 179.672 62 180.5 62Z" fill="#FFFF00"/>
<path d="M184.5 62C185.328 62 186 61.3284 186 60.5C186 59.6716 185.328 59 184.5 59C183.672 59 183 59.6716 183 60.5C183 61.3284 183.672 62 184.5 62Z" fill="#69F0AE"/>
<g opacity="0.2">
<rect x="183.214" y="69.2725" width="115.656" height="3.6" fill="#00B476"/>
</g>
<rect x="182" y="84" width="50" height="54" fill="url(#paint17_linear)"/>
<rect x="183" y="86" width="48" height="50" fill="white"/>
<rect x="249" y="110" width="50" height="54" fill="url(#paint18_linear)"/>
<rect x="250" y="112" width="48" height="50" fill="white"/>
<rect x="183" y="176" width="118" height="37" fill="url(#paint19_linear)"/>
<rect opacity="0.5" x="185" y="179" width="114" height="33" fill="#00B476"/>
<path opacity="0.5" d="M187.78 182.126H299V179H185V212H187.78V182.126V182.126Z" fill="white"/>
<path fill-rule="evenodd" clip-rule="evenodd" d="M195.581 91.9807C204.547 86.6944 216.011 88.589 222.799 96.4786C226.16 100.378 228.006 105.356 228 110.505C227.997 120.912 220.54 129.823 210.296 131.66C200.052 133.497 189.963 127.733 186.344 117.974C182.725 108.216 186.616 97.2671 195.581 91.9807ZM196.076 121.146C200.9 125.888 208.311 126.789 214.13 123.341H214.14C218.678 120.663 221.456 115.78 221.439 110.512C221.438 103.748 216.884 97.8317 210.346 96.1004C203.807 94.369 196.922 97.2558 193.574 103.133C190.225 109.01 191.253 116.405 196.076 121.146Z" fill="url(#paint20_linear)"/>
<path d="M217.114 101L222 96.9935C217.994 92.5494 212.149 89.9947 206 90V96.1376C210.272 96.1365 214.331 97.9125 217.114 101V101Z" fill="#FF5252"/>
<path d="M206.491 124.936C204.455 124.937 202.443 124.516 200.591 123.7L198 129.226C204.124 131.908 211.218 131.531 217 128.216L213.792 123C211.584 124.271 209.061 124.941 206.491 124.936V124.936Z" fill="#69F0AE"/>
<path d="M227 110.371C227.006 105.461 225.272 100.714 222.116 97L217.453 101.082C220.163 104.268 221.344 108.513 220.678 112.671C220.011 116.83 217.565 120.473 214 122.619L217.142 128C223.257 124.305 227.004 117.605 227 110.371Z" fill="#FF9800"/>
<path d="M192.103 110.41C192.103 102.577 198.325 96.2267 206 96.2267V90C196.582 90.0003 188.441 96.7063 186.453 106.101C184.465 115.496 189.168 125.033 197.746 129L200.265 123.323C195.297 121.026 192.105 115.976 192.103 110.41V110.41Z" fill="#00B476"/>
<rect x="256" y="120" width="37" height="6" fill="url(#paint21_linear)"/>
<rect x="257" y="120" width="36" height="5" fill="#00B476"/>
<rect x="257" y="130" width="26" height="5" fill="#FF5252"/>
<rect x="257" y="139" width="18" height="5" fill="#69F0AE"/>
<rect x="257" y="148" width="33" height="5" fill="#FF9800"/>
<rect x="183" y="145" width="52" height="4" fill="#F5F5F5"/>
<rect x="183" y="151" width="29" height="4" fill="#F5F5F5"/>
<rect x="217" y="151" width="10" height="4" fill="#F5F5F5"/>
<rect x="217" y="162" width="10" height="4" fill="#F5F5F5"/>
<rect x="183" y="161" width="29" height="4" fill="#F5F5F5"/>
<rect x="183" y="156" width="52" height="4" fill="#F5F5F5"/>
<rect x="248" y="84" width="52" height="4" fill="#F5F5F5"/>
<rect x="248" y="89" width="29" height="4" fill="#F5F5F5"/>
<rect x="282" y="89" width="10" height="4" fill="#F5F5F5"/>
<rect x="282" y="100" width="10" height="4" fill="#F5F5F5"/>
<rect x="248" y="99" width="29" height="4" fill="#F5F5F5"/>
<rect x="248" y="94" width="52" height="4" fill="#F5F5F5"/>
<path d="M264 243C266.209 243 268 241.209 268 239C268 236.791 266.209 235 264 235C261.791 235 260 236.791 260 239C260 241.209 261.791 243 264 243Z" fill="url(#paint22_linear)"/>
<path d="M263.5 241C264.881 241 266 239.881 266 238.5C266 237.119 264.881 236 263.5 236C262.119 236 261 237.119 261 238.5C261 239.881 262.119 241 263.5 241Z" fill="#FF5252"/>
<rect x="152" y="197" width="119" height="42" fill="url(#paint23_linear)"/>
<rect x="154" y="198" width="114" height="33" fill="white"/>
<path d="M159 225H264Z" fill="url(#paint24_linear)"/>
<path d="M159 225H264" stroke="#00B476" stroke-width="3"/>
<rect x="160" y="205" width="16" height="19" fill="url(#paint25_linear)"/>
<rect x="161" y="205" width="14" height="18" fill="#00B476"/>
<rect x="247" y="219" width="14" height="5" fill="#69F0AE"/>
<rect x="222" y="211" width="14" height="12" fill="#FF9800"/>
<rect x="191" y="213" width="14" height="11" fill="#FF5252"/>
<rect x="154" y="231" width="114" height="5" fill="#FF5252"/>
<path d="M160 243C162.209 243 164 241.209 164 239C164 236.791 162.209 235 160 235C157.791 235 156 236.791 156 239C156 241.209 157.791 243 160 243Z" fill="url(#paint26_linear)"/>
<path d="M159.5 241C160.881 241 162 239.881 162 238.5C162 237.119 160.881 236 159.5 236C158.119 236 157 237.119 157 238.5C157 239.881 158.119 241 159.5 241Z" fill="#FF5252"/>
<rect x="152" y="200" width="3" height="36" fill="#FF5252"/>
<rect opacity="0.2" x="152" y="200" width="3" height="36" fill="black"/>
<path d="M156 203.489C156 203.451 156 203.416 156 203.378C156 203.34 156 203.264 156 203.209C156 203.153 156 203.136 155.979 203.101C155.958 203.067 155.955 202.998 155.937 202.949C155.92 202.901 155.916 202.883 155.902 202.849C155.888 202.814 155.86 202.752 155.839 202.704L155.797 202.617C155.769 202.569 155.738 202.52 155.706 202.475L155.661 202.41C155.615 202.347 155.566 202.287 155.514 202.23V202.23V202.23C155.235 201.936 154.904 201.694 154.537 201.517C154.824 201.213 155.038 200.849 155.164 200.452C155.2 200.345 155.228 200.237 155.248 200.126C155.248 200.092 155.248 200.057 155.248 200.026C155.257 199.96 155.263 199.893 155.265 199.825C155.265 199.787 155.265 199.753 155.265 199.715C155.265 199.677 155.265 199.601 155.265 199.545C155.265 199.49 155.265 199.473 155.244 199.438C155.223 199.403 155.22 199.334 155.202 199.286C155.185 199.237 155.181 199.22 155.167 199.186C155.153 199.151 155.125 199.089 155.104 199.04L155.062 198.954C155.034 198.905 155.003 198.857 154.971 198.812L154.926 198.746C154.88 198.684 154.831 198.624 154.779 198.566V198.566V198.566C154.43 198.205 154.006 197.922 153.537 197.736C153.537 197.736 151.315 198.549 151.168 199.441C149.537 199.787 140.034 201.742 133.509 201.586L133.46 201.458C133.461 199.331 132.272 197.378 130.37 196.384V194.211C130.375 194.119 130.375 194.027 130.37 193.934V193.934C130.361 193.846 130.347 193.758 130.328 193.671L130.37 193.647L130.549 193.55L130.808 193.395L130.972 193.288C131.093 193.204 131.21 193.117 131.322 193.025L131.455 192.91C131.535 192.841 131.612 192.772 131.689 192.699L131.826 192.568C131.921 192.471 132.012 192.372 132.099 192.27L132.193 192.153C132.275 192.051 132.353 191.948 132.428 191.842L132.522 191.7C132.59 191.596 132.655 191.49 132.718 191.381L132.777 191.278C132.854 191.139 132.924 190.994 132.987 190.849L133.04 190.717C133.089 190.6 133.133 190.484 133.173 190.371L133.215 190.243C133.264 190.084 133.306 189.925 133.341 189.763C133.341 189.731 133.341 189.697 133.358 189.666C133.384 189.527 133.405 189.388 133.421 189.247C133.421 189.199 133.421 189.154 133.421 189.105C133.421 188.932 133.449 188.759 133.449 188.583C133.449 187.6 133.192 186.634 132.704 185.777C133.078 185.688 133.306 185.615 133.278 185.58C133.134 185.39 132.991 185.21 132.84 185.037L132.697 184.875C132.592 184.757 132.491 184.646 132.386 184.529L132.218 184.359C132.113 184.255 132.008 184.159 131.903 184.065L131.738 183.92C131.605 183.809 131.472 183.702 131.339 183.598L131.252 183.529C131.091 183.411 130.93 183.301 130.766 183.183L130.584 183.072C130.479 183.007 130.37 182.944 130.262 182.889L130.045 182.778L129.744 182.637L129.523 182.54C129.418 182.495 129.31 182.457 129.202 182.419L129.002 182.346C128.841 182.294 128.68 182.246 128.519 182.204L128.271 182.149L128.001 182.093L127.732 182.052L127.484 182.024L127.207 182H126.969H126.693C126.541 182 126.39 182.007 126.238 182.021V182.021C122.659 182.311 119.523 185.4 119.523 190.323V194.384H125.122V196.231C123.067 197.168 121.751 199.2 121.749 201.437V217.18L116.997 238.763H116.934L116 242.883L122.704 243.955V243.955L122.994 244C123.694 243.703 122.522 242.308 121.994 241.233C121.94 241.12 121.893 241.005 121.854 240.887C121.78 240.67 121.735 240.444 121.721 240.216L126.871 223.511H126.847L126.969 223.12C126.969 223.12 133.526 225.887 135.213 231.453C136.581 235.95 135.731 238.877 135.36 239.825H135.335V239.88C135.262 240.06 135.209 240.16 135.209 240.16H135.335V243.215H142.424C143.082 242.886 141.686 241.928 140.99 241.139C140.762 240.889 140.602 240.585 140.528 240.257H140.647L140.703 240.008C142.516 231.682 139.74 223.028 133.404 217.257C133.417 217.238 133.427 217.219 133.435 217.198C134.104 215.174 134.517 213.075 134.663 210.95C140.083 211.462 147.295 211.096 152.686 206.965C153.201 206.581 153.693 206.167 154.16 205.727C154.625 205.692 155.44 205.436 155.892 204.136C155.928 204.03 155.956 203.921 155.976 203.811C155.976 203.776 155.976 203.741 155.976 203.71C155.988 203.637 155.996 203.563 156 203.489Z" fill="url(#paint27_linear)"/>
<path d="M126.713 210.363C126.713 210.363 142.986 215.876 152 206.666L150.088 204C150.088 204 132.601 208.152 128.434 205.109C124.267 202.066 126.713 210.363 126.713 210.363Z" fill="#00B476"/>
<path opacity="0.2" d="M151.673 206L152 206.384C142.763 214.356 126.107 209.583 126.107 209.583C126.107 209.583 126.064 209.461 126 209.263C127.986 209.797 143.061 213.447 151.673 206Z" fill="white"/>
<path d="M151.869 205.981C151.869 205.981 153.249 206.277 153.885 204.525C154.521 202.772 152.304 202 152.304 202C152.304 202 149.993 202.806 150 203.664C150.007 204.521 151.869 205.981 151.869 205.981Z" fill="#985454"/>
<path opacity="0.2" d="M151.397 206.639C151.397 206.639 152.925 207.006 153.629 204.836C153.85 204.229 153.784 203.547 153.45 203C153.978 203.576 154.142 204.424 153.872 205.173C153.167 207.347 151.639 206.976 151.639 206.976C151.032 206.436 150.482 205.827 150 205.161C150.426 205.694 150.893 206.188 151.397 206.639Z" fill="white"/>
<path d="M134 238H138.981C138.943 238.574 139.115 239.139 139.45 239.547C140.121 240.483 141.469 241.614 140.834 242H134V238Z" fill="#00B476"/>
<path opacity="0.2" d="M138.598 239.547C138.175 239.139 137.959 238.574 138.006 238H138.458C138.411 238.574 138.627 239.139 139.049 239.547C139.893 240.483 141.591 241.614 140.792 242H140.34C141.139 241.614 139.442 240.488 138.598 239.547Z" fill="white"/>
<path d="M117.916 237L122.602 237.747C122.472 238.29 122.548 238.86 122.815 239.353C123.326 240.405 124.476 241.716 123.784 242L117 240.948L117.916 237Z" fill="#00B476"/>
<path opacity="0.2" d="M122.493 239.363C122.23 238.87 122.156 238.3 122.284 237.757L118 237.056V237L122.621 237.747C122.493 238.29 122.568 238.86 122.831 239.353C123.336 240.405 124.47 241.716 123.787 242L123.506 241.954C124.033 241.611 122.977 240.352 122.493 239.363Z" fill="white"/>
<rect x="131" y="200" width="5" height="7" rx="2.5" transform="rotate(180 131 200)" fill="#985454"/>
<path d="M127.5 195C130.538 195 133 192.538 133 189.5C133 186.462 130.538 184 127.5 184C124.462 184 122 186.462 122 189.5C122 192.538 124.462 195 127.5 195Z" fill="#985454"/>
<path opacity="0.2" d="M128.945 197.473V195.048C128.945 194.87 128.928 194.693 128.896 194.52C130.796 193.371 131.806 190.866 131.363 188.406C130.92 185.946 129.132 184.141 127 184H127.267C129.451 183.999 131.352 185.76 131.866 188.26C132.381 190.76 131.375 193.35 129.432 194.527C129.464 194.7 129.481 194.877 129.481 195.055V197.48C129.486 198.205 129.224 198.897 128.763 199.376C128.301 199.855 127.686 200.075 127.076 199.977C128.145 199.814 128.945 198.742 128.945 197.473V197.473Z" fill="white"/>
<path d="M122 217.471C122 217.471 132.416 218.662 132.8 217.471C135.5 209.086 132.8 202.471 132.8 202.471C132.8 199.449 130.382 197 127.4 197V197C124.418 197 122 199.449 122 202.471L122 217.471Z" fill="#00B476"/>
<path d="M121.732 217L117 239H121.732L126.639 222.679C126.639 222.679 132.772 225.34 134.347 230.663C135.922 235.986 134.347 239 134.347 239H139.438L139.49 238.761C141.192 230.783 138.569 222.491 132.605 217V217" fill="#263238"/>
<path opacity="0.2" d="M132.09 217.459C134.811 209.075 132.09 202.46 132.09 202.46C132.091 199.576 129.863 197.186 127 197C127.115 197 127.233 197 127.348 197V197C130.354 197 132.791 199.449 132.791 202.47C132.791 202.47 135.512 209.089 132.791 217.47C132.651 217.897 131.216 218.016 129.432 217.998C130.881 217.967 131.972 217.827 132.09 217.459Z" fill="white"/>
<g opacity="0.2">
<path d="M126.575 223.163L121.876 238.807H121.197L125.985 222.871C125.985 222.871 126.205 222.967 126.575 223.163Z" fill="white"/>
<path d="M131.793 217.326H132.472C138.29 222.688 140.85 230.784 139.189 238.573L139.139 238.807H138.46L138.511 238.573C140.172 230.784 137.612 222.688 131.793 217.326Z" fill="white"/>
</g>
<path d="M125.713 206.363C125.713 206.363 141.986 211.876 151 202.666L149.088 200C149.088 200 131.601 204.152 127.434 201.109C123.267 198.066 125.713 206.363 125.713 206.363Z" fill="#00B476"/>
<path opacity="0.2" d="M151.673 203L152 203.384C142.763 211.356 126.107 206.583 126.107 206.583C126.107 206.583 126.064 206.461 126 206.263C127.986 206.797 143.061 210.447 151.673 203Z" fill="white"/>
<path d="M150.869 202.981C150.869 202.981 152.249 203.277 152.885 201.525C153.521 199.772 151.304 199 151.304 199C151.304 199 148.993 199.806 149 200.664C149.007 201.521 150.869 202.981 150.869 202.981Z" fill="#985454"/>
<path opacity="0.2" d="M151.397 202.639C151.397 202.639 152.925 203.006 153.629 200.836C153.85 200.229 153.784 199.547 153.45 199C153.978 199.576 154.142 200.424 153.872 201.173C153.167 203.347 151.639 202.976 151.639 202.976C151.032 202.436 150.482 201.827 150 201.161C150.426 201.694 150.893 202.188 151.397 202.639Z" fill="white"/>
<path d="M128.08 189.161L127.729 196H120V192.369C120 185.078 128.315 182.309 132.998 188.168C133.114 188.328 128.08 189.161 128.08 189.161Z" fill="#263238"/>
<path opacity="0.2" d="M126 185.017C127.777 185.167 129.604 186.165 131.048 188.171C131.153 188.315 126.614 189.15 126.614 189.15L126.298 196H127.248L127.564 189.15C127.564 189.15 132.103 188.315 131.998 188.171C130.298 185.803 128.062 184.857 126 185.017Z" fill="white"/>
<defs>
<linearGradient id="paint0_linear" x1="143" y1="168" x2="143" y2="0" gradientUnits="userSpaceOnUse">
<stop stop-color="#808080" stop-opacity="0.25"/>
<stop offset="0.54" stop-color="#808080" stop-opacity="0.12"/>
<stop offset="1" stop-color="#808080" stop-opacity="0.1"/>
</linearGradient>
<linearGradient id="paint1_linear" x1="89" y1="130" x2="89" y2="126" gradientUnits="userSpaceOnUse">
<stop stop-color="#808080" stop-opacity="0.25"/>
<stop offset="0.54" stop-color="#808080" stop-opacity="0.12"/>
<stop offset="1" stop-color="#808080" stop-opacity="0.1"/>
</linearGradient>
<linearGradient id="paint2_linear" x1="89" y1="149" x2="89" y2="145" gradientUnits="userSpaceOnUse">
<stop stop-color="#808080" stop-opacity="0.25"/>
<stop offset="0.54" stop-color="#808080" stop-opacity="0.12"/>
<stop offset="1" stop-color="#808080" stop-opacity="0.1"/>
</linearGradient>
<linearGradient id="paint3_linear" x1="124" y1="149" x2="124" y2="145" gradientUnits="userSpaceOnUse">
<stop stop-color="#808080" stop-opacity="0.25"/>
<stop offset="0.54" stop-color="#808080" stop-opacity="0.12"/>
<stop offset="1" stop-color="#808080" stop-opacity="0.1"/>
</linearGradient>
<linearGradient id="paint4_linear" x1="120" y1="28" x2="120" y2="24" gradientUnits="userSpaceOnUse">
<stop stop-color="#808080" stop-opacity="0.25"/>
<stop offset="0.54" stop-color="#808080" stop-opacity="0.12"/>
<stop offset="1" stop-color="#808080" stop-opacity="0.1"/>
</linearGradient>
<linearGradient id="paint5_linear" x1="120" y1="34" x2="120" y2="30" gradientUnits="userSpaceOnUse">
<stop stop-color="#808080" stop-opacity="0.25"/>
<stop offset="0.54" stop-color="#808080" stop-opacity="0.12"/>
<stop offset="1" stop-color="#808080" stop-opacity="0.1"/>
</linearGradient>
<linearGradient id="paint6_linear" x1="120" y1="39" x2="120" y2="35" gradientUnits="userSpaceOnUse">
<stop stop-color="#808080" stop-opacity="0.25"/>
<stop offset="0.54" stop-color="#808080" stop-opacity="0.12"/>
<stop offset="1" stop-color="#808080" stop-opacity="0.1"/>
</linearGradient>
<linearGradient id="paint7_linear" x1="120" y1="44" x2="120" y2="40" gradientUnits="userSpaceOnUse">
<stop stop-color="#808080" stop-opacity="0.25"/>
<stop offset="0.54" stop-color="#808080" stop-opacity="0.12"/>
<stop offset="1" stop-color="#808080" stop-opacity="0.1"/>
</linearGradient>
<linearGradient id="paint8_linear" x1="139" y1="115" x2="139" y2="63" gradientUnits="userSpaceOnUse">
<stop stop-color="#808080" stop-opacity="0.25"/>
<stop offset="0.54" stop-color="#808080" stop-opacity="0.12"/>
<stop offset="1" stop-color="#808080" stop-opacity="0.1"/>
</linearGradient>
<linearGradient id="paint9_linear" x1="144.29" y1="112.34" x2="139.512" y2="59.8398" gradientUnits="userSpaceOnUse">
<stop stop-color="#808080" stop-opacity="0.25"/>
<stop offset="0.54" stop-color="#808080" stop-opacity="0.12"/>
<stop offset="1" stop-color="#808080" stop-opacity="0.1"/>
</linearGradient>
<linearGradient id="paint10_linear" x1="99.6555" y1="76.7034" x2="99.2156" y2="71.869" gradientUnits="userSpaceOnUse">
<stop stop-color="#808080" stop-opacity="0.25"/>
<stop offset="0.54" stop-color="#808080" stop-opacity="0.12"/>
<stop offset="1" stop-color="#808080" stop-opacity="0.1"/>
</linearGradient>
<linearGradient id="paint11_linear" x1="114.02" y1="73.9994" x2="113.58" y2="69.165" gradientUnits="userSpaceOnUse">
<stop stop-color="#808080" stop-opacity="0.25"/>
<stop offset="0.54" stop-color="#808080" stop-opacity="0.12"/>
<stop offset="1" stop-color="#808080" stop-opacity="0.1"/>
</linearGradient>
<linearGradient id="paint12_linear" x1="136.795" y1="110.47" x2="136.795" y2="110.34" gradientUnits="userSpaceOnUse">
<stop stop-color="#808080" stop-opacity="0.25"/>
<stop offset="0.54" stop-color="#808080" stop-opacity="0.12"/>
<stop offset="1" stop-color="#808080" stop-opacity="0.1"/>
</linearGradient>
<linearGradient id="paint13_linear" x1="139.756" y1="168.934" x2="139.756" y2="109" gradientUnits="userSpaceOnUse">
<stop stop-color="#808080" stop-opacity="0.25"/>
<stop offset="0.54" stop-color="#808080" stop-opacity="0.12"/>
<stop offset="1" stop-color="#808080" stop-opacity="0.1"/>
</linearGradient>
<linearGradient id="paint14_linear" x1="13.4823" y1="114.425" x2="13.4823" y2="114.27" gradientUnits="userSpaceOnUse">
<stop stop-color="#808080" stop-opacity="0.25"/>
<stop offset="0.54" stop-color="#808080" stop-opacity="0.12"/>
<stop offset="1" stop-color="#808080" stop-opacity="0.1"/>
</linearGradient>
<linearGradient id="paint15_linear" x1="45.8759" y1="182.773" x2="45.8759" y2="112.306" gradientUnits="userSpaceOnUse">
<stop stop-color="#808080" stop-opacity="0.25"/>
<stop offset="0.54" stop-color="#808080" stop-opacity="0.12"/>
<stop offset="1" stop-color="#808080" stop-opacity="0.1"/>
</linearGradient>
<linearGradient id="paint16_linear" x1="309" y1="228" x2="309" y2="56" gradientUnits="userSpaceOnUse">
<stop stop-color="#808080" stop-opacity="0.25"/>
<stop offset="0.54" stop-color="#808080" stop-opacity="0.12"/>
<stop offset="1" stop-color="#808080" stop-opacity="0.1"/>
</linearGradient>
<linearGradient id="paint17_linear" x1="232" y1="138" x2="232" y2="84" gradientUnits="userSpaceOnUse">
<stop stop-color="#808080" stop-opacity="0.25"/>
<stop offset="0.54" stop-color="#808080" stop-opacity="0.12"/>
<stop offset="1" stop-color="#808080" stop-opacity="0.1"/>
</linearGradient>
<linearGradient id="paint18_linear" x1="299" y1="164" x2="299" y2="110" gradientUnits="userSpaceOnUse">
<stop stop-color="#808080" stop-opacity="0.25"/>
<stop offset="0.54" stop-color="#808080" stop-opacity="0.12"/>
<stop offset="1" stop-color="#808080" stop-opacity="0.1"/>
</linearGradient>
<linearGradient id="paint19_linear" x1="301" y1="213" x2="301" y2="176" gradientUnits="userSpaceOnUse">
<stop stop-color="#808080" stop-opacity="0.25"/>
<stop offset="0.54" stop-color="#808080" stop-opacity="0.12"/>
<stop offset="1" stop-color="#808080" stop-opacity="0.1"/>
</linearGradient>
<linearGradient id="paint20_linear" x1="228.01" y1="132" x2="228.01" y2="89.0027" gradientUnits="userSpaceOnUse">
<stop stop-color="#808080" stop-opacity="0.25"/>
<stop offset="0.54" stop-color="#808080" stop-opacity="0.12"/>
<stop offset="1" stop-color="#808080" stop-opacity="0.1"/>
</linearGradient>
<linearGradient id="paint21_linear" x1="293" y1="126" x2="293" y2="120" gradientUnits="userSpaceOnUse">
<stop stop-color="#808080" stop-opacity="0.25"/>
<stop offset="0.54" stop-color="#808080" stop-opacity="0.12"/>
<stop offset="1" stop-color="#808080" stop-opacity="0.1"/>
</linearGradient>
<linearGradient id="paint22_linear" x1="268" y1="243" x2="268" y2="235" gradientUnits="userSpaceOnUse">
<stop stop-color="#808080" stop-opacity="0.25"/>
<stop offset="0.54" stop-color="#808080" stop-opacity="0.12"/>
<stop offset="1" stop-color="#808080" stop-opacity="0.1"/>
</linearGradient>
<linearGradient id="paint23_linear" x1="271" y1="239" x2="271" y2="197" gradientUnits="userSpaceOnUse">
<stop stop-color="#808080" stop-opacity="0.25"/>
<stop offset="0.54" stop-color="#808080" stop-opacity="0.12"/>
<stop offset="1" stop-color="#808080" stop-opacity="0.1"/>
</linearGradient>
<linearGradient id="paint24_linear" x1="-nan" y1="-nan" x2="-nan" y2="-nan" gradientUnits="userSpaceOnUse">
<stop stop-color="#808080" stop-opacity="0.25"/>
<stop offset="0.54" stop-color="#808080" stop-opacity="0.12"/>
<stop offset="1" stop-color="#808080" stop-opacity="0.1"/>
</linearGradient>
<linearGradient id="paint25_linear" x1="176" y1="224" x2="176" y2="205" gradientUnits="userSpaceOnUse">
<stop stop-color="#808080" stop-opacity="0.25"/>
<stop offset="0.54" stop-color="#808080" stop-opacity="0.12"/>
<stop offset="1" stop-color="#808080" stop-opacity="0.1"/>
</linearGradient>
<linearGradient id="paint26_linear" x1="164" y1="243" x2="164" y2="235" gradientUnits="userSpaceOnUse">
<stop stop-color="#808080" stop-opacity="0.25"/>
<stop offset="0.54" stop-color="#808080" stop-opacity="0.12"/>
<stop offset="1" stop-color="#808080" stop-opacity="0.1"/>
</linearGradient>
<linearGradient id="paint27_linear" x1="116.007" y1="243.986" x2="156" y2="243.986" gradientUnits="userSpaceOnUse">
<stop stop-color="#808080" stop-opacity="0.25"/>
<stop offset="0.54" stop-color="#808080" stop-opacity="0.12"/>
<stop offset="1" stop-color="#808080" stop-opacity="0.1"/>
</linearGradient>
</defs>
</svg>
