<svg xmlns="http://www.w3.org/2000/svg" width="114" height="71" viewBox="0 0 114 71">
  <g>
    <g>
      <path fill="rgb(255,193,7)" fill-rule="evenodd" d="M6.16216216 36.55573913V16.97826087H3.08108108v19.57747826C1.28943243 37.19319565 0 38.88947826 0 40.90217391c0 2.556 4.62162162 9.26086957 4.62162162 9.26086957s4.62162162-6.70486957 4.62162162-9.26086957c0-2.01269565-1.28943243-3.70897826-3.08108108-4.34643478z"/>
      <path fill="rgb(191,54,12)" fill-rule="evenodd" d="M18.48648649 26.23913043h24.64864865v27.7826087H18.48648649v-27.7826087z"/>
      <path fill="rgb(255,152,0)" fill-rule="evenodd" d="M30.81081081 60.19565217c-3.3784054 0-7.7027027-9.26086956-7.7027027-9.26086956v-9.26086957h15.4054054v9.26086957s-4.32583783 9.26086956-7.7027027 9.26086956"/>
      <path fill="rgb(255,183,77)" fill-rule="evenodd" d="M30.81082153 49.39131165c7.65802002 0 13.86486817-6.21867371 13.86486817-13.89131165V24.69566345c0-11.7844696-27.72973633-7.67263794-27.72973633 0V35.5c0 7.67263794 6.20529175 13.89131165 13.86486816 13.89131165zm7.70269776 1.54347229s-.89352417 13.89129638-7.70271302 13.89129638c-6.80918884 0-7.70269775-13.89129638-7.70269775-13.89129638s3.86213684 6.17391967 7.70269775 6.17391967c3.84057618 0 7.70271302-6.17391967 7.70271302-6.17391967z"/>
      <path fill="rgb(120,71,25)" fill-rule="evenodd" d="M24.64865112 37.04348755c-.85038757 0-1.5405426-.69302368-1.5405426-1.54348755 0-.8504486.69015503-1.54347229 1.5405426-1.54347229.85037232 0 1.5405426.69302368 1.5405426 1.54347229 0 .85046387-.69017028 1.54348755-1.5405426 1.54348755zm12.32432556-3.08695984c-.85038757 0-1.5405426.69302368-1.5405426 1.54347229 0 .85046387.69015503 1.54348755 1.5405426 1.54348755.85037232 0 1.5405426-.69302368 1.5405426-1.54348755 0-.8504486-.69017028-1.54347229-1.5405426-1.54347229z"/>
      <path fill="rgb(69,90,100)" fill-rule="evenodd" d="M58.54055786 16.97825623l-13.86488342 7.71739196c0-11.78445434-27.72972107-7.67262268-27.72972107 0L3.0810852 16.97825623 30.81082153 0l27.72973633 16.97825623zM30.81080627 61.73913574c6.80918885 0 7.70269776-10.8043518 7.70269776-10.8043518S55.45944213 54.06033325 55.45944213 71H6.16215516c0-16.99986267 16.94593811-20.06521606 16.94593811-20.06521606s.89352417 10.8043518 7.70271301 10.8043518z"/>
      <path fill="rgb(255,87,34)" fill-rule="evenodd" d="M18.48648649 18.52173913c-5.00675676 0-7.7027027 5.76026087-7.7027027 5.76026087C9.08302702 29.48352174 7.7027027 36.21617391 7.7027027 45.20076087l10.78378379 7.2775v-20.0652174l18.48648648-10.80434782 6.16216217 7.7173913v23.15217392l10.78378378-9.26086957c0-3.35243478-.30194595-12.07771739-3.08108108-19.39997826 0 0-1.54054054-5.29567391-7.7027027-5.29567391H18.48648649z"/>
      <path fill="rgb(98,128,140)" fill-rule="evenodd" d="M44.67567568 24.69565217s-6.16216217-1.54347826-13.86486487-1.54347826-13.86486486 1.54347826-13.86486486 1.54347826c0-6.17391304 1.54054054-9.26086956 1.54054054-9.26086956s2.11978378-3.08695652 12.70945946-3.08695652c10.59121621 0 11.93918919 3.08695652 11.93918919 3.08695652s1.54054054 3.08695652 1.54054054 9.26086956z"/>
    </g>
    <g>
      <path fill="rgb(255,193,7)" fill-rule="evenodd" d="M61.62162162 39.64269565V20.0652174h-3.08108108v19.57747826c-1.79164865.63745652-3.08108108 2.33373913-3.08108108 4.34643478 0 2.556 4.62162162 9.26086957 4.62162162 9.26086957s4.62162162-6.70486957 4.62162162-9.26086957c0-2.01269565-1.28943243-3.70897826-3.08108108-4.34643478z"/>
      <path fill="rgb(75,45,0)" fill-rule="evenodd" d="M86.27027027 57.10869565c-7.7027027 0-7.7027027-6.17391304-7.7027027-6.17391304v-9.26086957h15.4054054v9.26086957s0 6.17391304-7.7027027 6.17391304z"/>
      <path fill="rgb(69,90,100)" fill-rule="evenodd" d="M86.27026367 3.08695984L58.54052734 20.06521606 86.27026367 35.5 114 20.06521606 86.27026367 3.08695984zm0 54.02174377c6.16217041 0 7.70269776-6.17391967 7.70269776-6.17391967S110.91891479 54.06033325 110.91891479 71H61.62161255c0-16.99986267 16.94595337-20.06521606 16.94595337-20.06521606s1.54052734 6.17391967 7.70269775 6.17391967z"/>
      <path fill="rgb(124,80,15)" fill-rule="evenodd" d="M72.4053955 29.32608032c1.70074464 0 3.08108521 1.3814087 3.08108521 3.08695984 0 1.70553589-1.38034057 3.08695984-3.0810852 3.08695984-1.7038269 0-3.0810852-1.38142395-3.0810852-3.08695984 0-1.70555115 1.3772583-3.08695984 3.0810852-3.08695984zM100.13513185 35.5c1.70074462 0 3.0810852-1.38142395 3.0810852-3.08695984 0-1.70555115-1.38034058-3.08695984-3.0810852-3.08695984-1.7038269 0-3.0810852 1.3814087-3.0810852 3.08695984 0 1.70553589 1.3772583 3.08695984 3.0810852 3.08695984z"/>
      <path fill="rgb(109,74,23)" fill-rule="evenodd" d="M100.13513514 23.15217391c0-9.26086956-27.72972973-7.67263043-27.72972973 0v10.80434783c0 7.67263043 6.2052973 13.89130435 13.86486486 13.89130435 7.65802703 0 13.86486487-6.21867392 13.86486487-13.89130435V23.1521739z"/>
      <path fill="rgb(147,120,95)" fill-rule="evenodd" d="M80.10809326 33.95652771c-.85037231 0-1.54052734-.69302368-1.54052734-1.54348755 0-.8504486.69015503-1.54347229 1.54052734-1.54347229.85040283 0 1.54055786.69302368 1.54055786 1.5434723 0 .85046386-.69015503 1.54348754-1.54055786 1.54348754zm12.32434082-3.08695984c-.85037231 0-1.54052734.69302368-1.54052734 1.5434723 0 .85046386.69015503 1.54348754 1.54052734 1.54348754.85040283 0 1.54055786-.69302368 1.54055786-1.54348755 0-.8504486-.69015503-1.54347229-1.54055786-1.54347229z"/>
      <path fill="rgb(66,66,66)" fill-rule="evenodd" d="M70.86486816 29.76751709v-3.5283966c0-.52168275.02618409-1.03411866.061615-1.5434723h3.0194702v7.71739197l-3.0810852-2.64552307zm27.72973633 2.64552307V24.6956482h3.04101563c.02313232.51089478.04006958 1.0279541.04006958 1.5434723v3.4851837l-3.0810852 2.68873597z"/>
      <path fill="rgb(98,128,140)" fill-rule="evenodd" d="M101.67567568 27.7826087s-7.7027027-1.54347827-15.40540541-1.54347827c-7.7027027 0-15.4054054 1.54347827-15.4054054 1.54347827 0-6.17391305 1.54054054-9.26086957 1.54054054-9.26086957s3.66032432-3.08695652 14.25-3.08695652c10.59121621 0 13.47972973 3.08695652 13.47972973 3.08695652s1.54054054 3.08695652 1.54054054 9.26086957z"/>
    </g>
  </g>
</svg>
