<svg width="130" height="142" viewBox="0 0 130 142" fill="none" xmlns="http://www.w3.org/2000/svg">
<path d="M73.5959 114.756C73.5959 105.519 82.6816 97.0022 91.8829 97.0022C93.2926 97.0022 94.6596 96.6452 95.9716 96.9736C95.9893 96.5703 96 94.2002 96 93.7933V0H16.3546L0 16.8654V126H75.1958C73.5781 123.423 73.5959 118.03 73.5959 114.756Z" fill="url(#paint0_linear)"/>
<path d="M71.4178 116.638C71.4178 105.035 80.697 95.6285 92.1435 95.6285C92.7689 95.6285 93.3835 95.659 94 95.7129V47H1V124H72.7269C71.8586 121.645 71.4152 119.152 71.4178 116.638Z" fill="#FCFCFC"/>
<path d="M94 48H1V16.8633L16.0393 1H94V48Z" fill="#FCFCFC"/>
<rect x="64" y="11" width="26" height="1" fill="#E0E0E0"/>
<rect x="64" y="18" width="26" height="1" fill="#E0E0E0"/>
<rect x="64" y="25" width="26" height="1" fill="#E0E0E0"/>
<rect opacity="0.5" x="64" y="33" width="26" height="1" fill="#00B476"/>
<rect x="64" y="39" width="26" height="1" fill="#E0E0E0"/>
<rect x="64" y="47" width="26" height="1" fill="#E0E0E0"/>
<rect opacity="0.5" x="14" y="61" width="26" height="1" fill="#00B476"/>
<rect x="14" y="69" width="26" height="1" fill="#E0E0E0"/>
<rect opacity="0.5" x="16" y="65" width="66" height="1" fill="#69F0AE"/>
<rect opacity="0.5" x="14" y="81" width="26" height="1" fill="#00B476"/>
<rect x="14" y="89" width="26" height="1" fill="#E0E0E0"/>
<rect x="16" y="85" width="66" height="1" fill="#E0E0E0"/>
<rect opacity="0.5" x="14" y="99" width="26" height="1" fill="#00B476"/>
<rect x="14" y="107" width="26" height="1" fill="#E0E0E0"/>
<rect x="16" y="103" width="54" height="1" fill="#E0E0E0"/>
<path d="M56 51H9V9.98739L10.6269 8H14.3779H56V51Z" fill="#00B476"/>
<path d="M1 17H17V0L1 17Z" fill="url(#paint1_linear)"/>
<path d="M1 17H17V1L1 17Z" fill="#F5F5F5"/>
<g opacity="0.5">
<path d="M111.412 141.891C121.506 141.891 129.689 134.085 129.689 124.455C129.689 114.826 121.506 107.02 111.412 107.02C101.318 107.02 93.1348 114.826 93.1348 124.455C93.1348 134.085 101.318 141.891 111.412 141.891Z" fill="url(#paint2_linear)"/>
</g>
<path d="M112 141C121.389 141 129 133.389 129 124C129 114.611 121.389 107 112 107C102.611 107 95 114.611 95 124C95 133.389 102.611 141 112 141Z" fill="#3AD29F"/>
<g opacity="0.5">
<path d="M120.901 122.051H113.969V115.121H109.984V122.051H103.053V126.038H109.984V132.969H113.969V126.038H120.901V122.051Z" fill="url(#paint3_linear)"/>
</g>
<rect x="110" y="116" width="4" height="16" fill="white"/>
<path d="M120 122L120 126H104V122H120Z" fill="white"/>
<path d="M92.5959 122.756C92.5959 113.519 101.682 105.002 110.883 105.002C112.293 105.002 113.66 104.645 114.972 104.974C114.989 104.57 115 102.2 115 101.793V8H35.3546L19 24.8654V134H94.1958C92.5781 131.423 92.5959 126.03 92.5959 122.756Z" fill="url(#paint4_linear)"/>
<path d="M91.4178 124.638C91.4178 113.035 100.697 103.628 112.144 103.628C112.769 103.628 113.384 103.659 114 103.713V55H21V132H92.7269C91.8586 129.645 91.4152 127.152 91.4178 124.638Z" fill="white"/>
<path d="M114 56H21V24.8633L36.0393 9H114V56Z" fill="white"/>
<rect x="82" y="18" width="26" height="1" fill="#E0E0E0"/>
<rect x="82" y="26" width="26" height="1" fill="#E0E0E0"/>
<rect x="82" y="33" width="26" height="1" fill="#E0E0E0"/>
<rect opacity="0.5" x="82" y="41" width="26" height="1" fill="#00B476"/>
<rect x="82" y="47" width="26" height="1" fill="#E0E0E0"/>
<rect x="82" y="55" width="26" height="1" fill="#E0E0E0"/>
<rect opacity="0.5" x="34" y="69" width="26" height="1" fill="#00B476"/>
<rect x="34" y="77" width="26" height="1" fill="#E0E0E0"/>
<rect opacity="0.5" x="34" y="73" width="66" height="1" fill="#69F0AE"/>
<rect opacity="0.5" x="34" y="89" width="26" height="1" fill="#00B476"/>
<rect x="34" y="97" width="26" height="1" fill="#E0E0E0"/>
<rect x="34" y="93" width="66" height="1" fill="#E0E0E0"/>
<rect opacity="0.5" x="34" y="107" width="26" height="1" fill="#00B476"/>
<rect x="34" y="115" width="26" height="1" fill="#E0E0E0"/>
<rect x="34" y="111" width="54" height="1" fill="#E0E0E0"/>
<path d="M74 59H27V17.9874L28.6269 16H32.3779H74V59Z" fill="#00B476"/>
<path d="M19 25H35V8L19 25Z" fill="url(#paint5_linear)"/>
<path d="M19 25H35V9L19 25Z" fill="#FCFCFC"/>
<defs>
<linearGradient id="paint0_linear" x1="95.9973" y1="126" x2="95.9973" y2="0" gradientUnits="userSpaceOnUse">
<stop stop-color="#B3B3B3" stop-opacity="0.25"/>
<stop offset="0.54" stop-color="#B3B3B3" stop-opacity="0.1"/>
<stop offset="1" stop-color="#B3B3B3" stop-opacity="0.05"/>
</linearGradient>
<linearGradient id="paint1_linear" x1="17.0009" y1="17" x2="17.0009" y2="0" gradientUnits="userSpaceOnUse">
<stop stop-color="#B3B3B3" stop-opacity="0.25"/>
<stop offset="0.54" stop-color="#B3B3B3" stop-opacity="0.1"/>
<stop offset="1" stop-color="#B3B3B3" stop-opacity="0.05"/>
</linearGradient>
<linearGradient id="paint2_linear" x1="129.689" y1="141.891" x2="129.689" y2="107.02" gradientUnits="userSpaceOnUse">
<stop stop-color="#808080" stop-opacity="0.25"/>
<stop offset="0.54" stop-color="#808080" stop-opacity="0.12"/>
<stop offset="1" stop-color="#808080" stop-opacity="0.1"/>
</linearGradient>
<linearGradient id="paint3_linear" x1="120.901" y1="132.969" x2="120.901" y2="115.121" gradientUnits="userSpaceOnUse">
<stop stop-color="#808080" stop-opacity="0.25"/>
<stop offset="0.54" stop-color="#808080" stop-opacity="0.12"/>
<stop offset="1" stop-color="#808080" stop-opacity="0.1"/>
</linearGradient>
<linearGradient id="paint4_linear" x1="114.997" y1="134" x2="114.997" y2="8" gradientUnits="userSpaceOnUse">
<stop stop-color="#B3B3B3" stop-opacity="0.25"/>
<stop offset="0.54" stop-color="#B3B3B3" stop-opacity="0.1"/>
<stop offset="1" stop-color="#B3B3B3" stop-opacity="0.05"/>
</linearGradient>
<linearGradient id="paint5_linear" x1="35.0009" y1="25" x2="35.0009" y2="8" gradientUnits="userSpaceOnUse">
<stop stop-color="#B3B3B3" stop-opacity="0.25"/>
<stop offset="0.54" stop-color="#B3B3B3" stop-opacity="0.1"/>
<stop offset="1" stop-color="#B3B3B3" stop-opacity="0.05"/>
</linearGradient>
</defs>
</svg>
