<svg width="130" height="111" viewBox="0 0 130 111" fill="none" xmlns="http://www.w3.org/2000/svg">
<path d="M116.278 61.9068C116.256 63.4498 116.177 65.1786 116 67L120.965 61.4579L121 61.5446C120.594 60.2938 119.992 59.1006 119.214 58L119.253 58.0816L116.278 61.9068Z" fill="#57B894"/>
<path d="M117.239 61L120 56.8791C119.206 55.6364 118.256 54.6742 117.17 54.0872C117.113 54.0567 117.057 54.0282 117 54C117.042 54.4645 117.272 57.1928 117.239 61Z" fill="#57B894"/>
<path d="M122.71 73.1363C122.835 72.4226 122.931 71.7105 123 71L115.37 76.8146L115.359 76.7633C115.245 77.1827 115.125 77.5949 115 78L122.692 73.0232L122.71 73.1363Z" fill="#57B894"/>
<path d="M117 73L122.977 66.67L123 66.7795C122.923 64.8222 122.644 62.8822 122.167 61L117.655 67.4302C117.499 69.3731 117.281 71.2297 117 73Z" fill="#57B894"/>
<path d="M117 66.7817L108.653 58.106L108.69 58C108.013 59.13 107.447 60.3287 107 61.5777L116.498 71C116.724 69.5273 116.886 68.1048 117 66.7817Z" fill="#57B894"/>
<path d="M115.819 73C115.883 72.628 115.944 72.2584 116 71.8911L106.411 62.1104L106.446 62C106.288 62.4551 106.139 62.9249 106 63.4092L106.035 63.2985L115.819 73Z" fill="#57B894"/>
<path d="M116 76L122.872 70.5545L122.892 70.6585C123 69.4422 123.027 68.22 122.973 67L116.687 72.8777C116.487 73.9581 116.258 74.9988 116 76Z" fill="#57B894"/>
<path d="M105.235 72.5405L113.541 82C114.104 80.7591 114.592 79.4861 115 78.1878L105.004 69C104.982 70.2209 105.044 71.4419 105.188 72.6547L105.235 72.5405Z" fill="#57B894"/>
<path d="M116.766 54.4962L116.828 54.4636C115.231 53.7103 113.559 53.9 112 54.8514L116.997 61C117.03 57.1736 116.77 54.5341 116.766 54.4962Z" fill="#57B894"/>
<path d="M114.321 78.4668C113.944 79.6678 113.503 80.8473 113 82L120.542 77.4879L120.557 77.6003C121.085 76.5678 121.482 75.4719 121.737 74.3388C121.836 73.8931 121.923 73.4468 122 73L114.437 78.0877C114.398 78.2143 114.36 78.3416 114.321 78.4668Z" fill="#57B894"/>
<path d="M117 61.6136L111.46 55.0996L111.502 55C110.234 55.7609 109.038 56.967 108 58.5377L116.732 67C116.903 65.0732 116.979 63.2453 117 61.6136Z" fill="#57B894"/>
<path d="M114.834 77.9954C115.308 76.4395 115.697 74.8594 116 73.262L105.873 64C105.681 64.6258 105.509 65.2752 105.358 65.9481C105.149 66.9125 105.029 67.8937 105 68.8796L114.827 78L114.834 77.9954Z" fill="#57B894"/>
<path d="M124.892 87.3074C123.761 88.4609 122.452 89.7229 121 91L128.871 89.5936L128.836 89.6787C129.421 88.506 129.813 87.2676 130 86L129.972 86.0837L124.892 87.3074Z" fill="#57B894"/>
<path d="M129.444 82.162C129.418 82.107 129.39 82.0534 129.362 82C129.094 82.3475 127.506 84.3781 125 87L129.939 85.7893C130.099 84.453 129.949 83.2176 129.444 82.162Z" fill="#57B894"/>
<path d="M114.012 98C113.674 98.2871 113.337 98.5644 113 98.8318L121.544 99.8882L121.488 100C122.013 99.4614 122.517 98.9047 123 98.3298L113.988 98.0523L114.012 98Z" fill="#57B894"/>
<path d="M117 95L126.144 94.5261L126.095 94.6187C127.257 93.191 128.232 91.6406 129 90L121.061 91.5188C119.707 92.7815 118.354 93.9419 117 95Z" fill="#57B894"/>
<path d="M114 98.6517L123.478 98.8991L123.423 99C124.348 98.0596 125.209 97.0573 126 96L116.716 96.5228C115.807 97.2855 114.902 97.9951 114 98.6517Z" fill="#57B894"/>
<path fill-rule="evenodd" clip-rule="evenodd" d="M103.457 102.304C103.393 102.376 103.331 102.446 103.27 102.514C105.204 102.11 107.078 101.47 108.851 100.61L117.451 101.944C112.022 104.164 105.474 103.244 103.033 102.777C102.647 103.199 102.328 103.525 102.116 103.736C102.267 103.392 102.409 103.039 102.541 102.678L102.455 102.66C102.474 102.657 102.492 102.654 102.51 102.651C102.525 102.648 102.54 102.646 102.555 102.643C102.57 102.602 102.584 102.561 102.599 102.519C102.606 102.499 102.613 102.478 102.62 102.458L102.6 102.461C102.543 102.47 102.487 102.48 102.43 102.488C102.244 103.003 102.034 103.507 101.802 104C101.457 103.613 96.0608 97.5187 93 90.9629L103.626 97.2946C103.577 97.7082 103.519 98.1193 103.451 98.5279C103.534 98.3105 103.621 98.0875 103.711 97.859C103.735 97.6826 103.758 97.5054 103.779 97.3265L104.043 97.031C104.121 96.8404 104.201 96.6471 104.284 96.451L103.819 96.9706C103.943 95.7693 103.999 94.5623 103.989 93.3549C103.989 93.2599 103.987 93.1641 103.985 93.0682C103.985 93.037 103.984 93.0058 103.984 92.9746L108.85 86.9158C108.822 86.8505 108.793 86.7793 108.761 86.702L103.978 92.6578C103.968 92.2485 103.951 91.834 103.928 91.4144L103.953 91.4587L108.187 85.2511C108.159 85.1783 108.131 85.104 108.102 85.0282L103.913 91.1709C103.848 90.1121 103.741 89.0239 103.594 87.9062L107.003 81.8998C106.977 81.8196 106.951 81.7389 106.925 81.6577L103.552 87.5998C103.321 85.9249 102.999 84.1936 102.587 82.406L105.277 75.4151C105.256 75.3094 105.235 75.2036 105.215 75.0976L102.518 82.1066C102.069 80.2014 101.561 78.4194 101.063 76.8432L102.532 72.0713L102.468 72C103.498 72.8383 104.408 73.8092 105.174 74.8864C105.014 74.0316 104.877 73.1683 104.775 72.3089L112.891 81.5603C112.256 82.9395 111.491 84.2567 110.605 85.4947C110.678 85.4086 110.752 85.3225 110.826 85.2381L110.852 85.433C110.911 85.3493 110.969 85.2649 111.027 85.1799L111.008 85.0334C111.139 84.8892 111.271 84.7488 111.404 84.6103C112.011 83.6554 112.553 82.6622 113.026 81.6372L120.515 77.2706C120.046 78.1369 119.503 78.9618 118.89 79.7362C119.232 79.6036 119.571 79.4825 119.907 79.3758L119.81 79.4323L121 91.4762C120.064 92.4031 119.027 93.3744 117.906 94.3412L116.436 82.3728C116.374 82.4301 116.312 82.4869 116.249 82.5433L117.718 94.5024C117.447 94.7346 117.171 94.9659 116.89 95.1964L115.267 83.3921C115.205 83.4439 115.142 83.4951 115.08 83.5459L116.702 95.3498C115.433 96.3866 114.108 97.3554 112.733 98.2521L112.724 98.2512L111.168 86.2655C111.102 86.3046 111.038 86.3427 110.975 86.3797L112.533 98.3808C111.394 99.1138 110.211 99.7789 108.991 100.373L108.85 93.4721C108.79 93.6438 108.728 93.8144 108.664 93.9838L108.796 100.466C107.098 101.287 105.305 101.904 103.457 102.304ZM108.807 91.3927L108.615 91.6071L108.622 91.9116L108.813 91.6972L108.807 91.3927Z" fill="#57B894"/>
<path d="M128.931 82.1873L129 82.2042C128.233 80.3793 126.813 79.3178 125 79L125.006 88C127.447 84.7041 128.91 82.2229 128.931 82.1873Z" fill="#57B894"/>
<path d="M113.091 99.183C112.093 99.7581 111.062 100.284 110 100.759L118.235 101.919L118.178 102C119.186 101.617 120.135 101.121 121.003 100.524C121.343 100.289 121.675 100.047 122 99.7983L113.404 99C113.299 99.0612 113.195 99.1232 113.091 99.183Z" fill="#57B894"/>
<path d="M121.188 91C122.577 89.6851 123.828 88.3867 124.909 87.2L124.902 79.1239L125 79.0759C123.529 78.8827 121.823 79.0592 120 79.5974L121.188 91Z" fill="#57B894"/>
<path d="M103 72.618C101.787 71.7728 100.504 71.2168 99.2022 71.0259C99.1344 71.016 99.0672 71.0079 99 71C99.1923 71.3904 100.303 73.6888 101.49 77L103 72.618Z" fill="#57B894"/>
<path d="M102.219 83.1819L91.5549 78.1029L91.5581 78C91.2434 79.1833 91.0565 80.3934 91 81.6121L103 87C102.776 85.6519 102.506 84.3667 102.219 83.1819Z" fill="#57B894"/>
<path d="M103.854 86.9377L92.0202 81.1113L92.0221 81C92.0023 81.4627 91.9958 81.9356 92.0027 82.4186L92.0039 82.3073L104 88C103.955 87.6425 103.906 87.2884 103.854 86.9377Z" fill="#57B894"/>
<path d="M103.996 93.2525L92 88C92.3517 89.0756 92.78 90.1279 93.2821 91.1499L93.2905 91.0368L103.814 97C103.955 95.7554 104.016 94.5039 103.996 93.2525Z" fill="#57B894"/>
<path d="M98.6832 71.0849L98.7348 71.036C96.886 70.8303 95.264 71.5153 94 72.8667L101 77C99.807 73.4683 98.6992 71.1185 98.6832 71.0849Z" fill="#57B894"/>
<path d="M101.545 76.7099L94.2029 72.1093L94.2117 72C93.2461 73.1243 92.49 74.657 92 76.4938L103 82C102.551 80.0847 102.043 78.2941 101.545 76.7099Z" fill="#57B894"/>
<path d="M104 92.9932C103.966 91.3018 103.843 89.6136 103.631 87.9357L91 82C91.0128 82.6807 91.0521 83.3782 91.1181 84.0927C91.2209 85.1139 91.4146 86.1233 91.6967 87.1085L103.995 93L104 92.9932Z" fill="#57B894"/>
<path d="M94.9033 64L58.5133 59.415C56.864 45.7017 59.3558 32.3138 63.61 19L100 23.585C94.5088 36.6465 92.897 50.1275 94.9033 64Z" fill="#F2F2F2"/>
<path d="M68.065 24.6016L90.1136 27.3811L89.815 29.7502L67.7664 26.9707L68.065 24.6016Z" fill="#00B476"/>
<path opacity="0.3" d="M62.9682 29.793L92.8522 33.5603L92.7029 34.7449L62.8189 30.9775L62.9682 29.793Z" fill="#00B476"/>
<path opacity="0.3" d="M62.4858 33.6172L92.3699 37.3845L92.2206 38.5691L62.3365 34.8017L62.4858 33.6172Z" fill="#00B476"/>
<path opacity="0.3" d="M62.0035 37.4453L91.8875 41.2127L91.7382 42.3972L61.8542 38.6299L62.0035 37.4453Z" fill="#00B476"/>
<path opacity="0.3" d="M61.5211 41.2734L91.4052 45.0408L91.2559 46.2253L61.3718 42.458L61.5211 41.2734Z" fill="#00B476"/>
<path opacity="0.3" d="M61.0387 45.0977L90.9228 48.865L90.7735 50.0495L60.8894 46.2822L61.0387 45.0977Z" fill="#00B476"/>
<path opacity="0.3" d="M60.5564 48.9258L90.4405 52.6931L90.2912 53.8777L60.4071 50.1103L60.5564 48.9258Z" fill="#00B476"/>
<path opacity="0.3" d="M60.074 52.7539L89.9581 56.5213L89.8088 57.7058L59.9247 53.9385L60.074 52.7539Z" fill="#00B476"/>
<path d="M76.9018 51L43 37.4798C44.868 23.9153 50.6435 11.7012 58.0982 0L92 13.5202C83.4173 24.6694 78.4661 37.1935 76.9018 51Z" fill="#E6E6E6"/>
<path d="M61.905 5.92187L82.5328 14.1906L81.6445 16.4071L61.0167 8.1383L61.905 5.92187Z" fill="#00B476"/>
<path opacity="0.3" d="M55.6611 9.65234L83.6195 20.8596L83.1753 21.9678L55.217 10.7606L55.6611 9.65234Z" fill="#00B476"/>
<path opacity="0.3" d="M54.2262 13.2305L82.1846 24.4377L81.7404 25.5459L53.782 14.3387L54.2262 13.2305Z" fill="#00B476"/>
<path opacity="0.3" d="M52.7913 16.8125L80.7496 28.0197L80.3055 29.128L52.3471 17.9207L52.7913 16.8125Z" fill="#00B476"/>
<path opacity="0.3" d="M51.3563 20.3906L79.3147 31.5979L78.8706 32.7061L50.9122 21.4988L51.3563 20.3906Z" fill="#00B476"/>
<path opacity="0.3" d="M49.9214 23.9727L77.8798 35.1799L77.4356 36.2881L49.4773 25.0809L49.9214 23.9727Z" fill="#00B476"/>
<path opacity="0.3" d="M48.4865 27.5547L76.4448 38.7619L76.0007 39.8701L48.0423 28.6629L48.4865 27.5547Z" fill="#00B476"/>
<path opacity="0.3" d="M47.0515 31.1328L75.0099 42.3401L74.5657 43.4483L46.6074 32.241L47.0515 31.1328Z" fill="#00B476"/>
<path d="M69 54H32.2307C28.8702 40.8423 29.6693 27.4932 32.2307 14H69C65.1767 27.3992 65.2645 40.731 69 54Z" fill="#F2F2F2"/>
<rect x="38" y="18" width="22" height="2" fill="#00B476"/>
<rect opacity="0.3" x="34" y="23" width="30" height="2" fill="#00B476"/>
<rect opacity="0.3" x="34" y="27" width="30" height="2" fill="#00B476"/>
<rect opacity="0.3" x="34" y="31" width="30" height="2" fill="#00B476"/>
<rect opacity="0.3" x="34" y="35" width="30" height="2" fill="#00B476"/>
<rect opacity="0.3" x="34" y="39" width="30" height="2" fill="#00B476"/>
<rect opacity="0.3" x="34" y="42" width="30" height="2" fill="#00B476"/>
<rect opacity="0.3" x="34" y="46" width="30" height="2" fill="#00B476"/>
<path d="M44.0465 46.497L31.4689 36.72C31.2127 36.2746 30.738 36 30.2242 36H23.4358C22.6428 36 22 36.6427 22 37.4356V97.3435C22 99.9152 24.085 102 26.6571 102H96.3429C97.578 102 98.7626 101.509 99.636 100.636C100.509 99.7629 101 98.5785 101 97.3435V50.7294C101 48.3919 99.1049 46.497 96.7671 46.497H44.0465Z" fill="#D4D6DB"/>
<path fill-rule="evenodd" clip-rule="evenodd" d="M47 73.5C47 65.4924 53.7163 59 62 59C70.2837 59 77 65.4924 77 73.5C77 81.5076 70.2837 88 62 88C53.7163 88 47 81.5076 47 73.5ZM60.9338 79.8643L70.3838 70.7293C70.8725 70.2568 70.8725 69.4932 70.3838 69.0207C69.895 68.5483 69.105 68.5483 68.6162 69.0207L60.05 77.3014L56.6175 73.9833C56.1287 73.5109 55.3387 73.5109 54.85 73.9833C54.3612 74.4558 54.3612 75.2195 54.85 75.6919L59.1663 79.8643C59.4 80.0915 59.7188 80.2183 60.05 80.2183C60.3813 80.2183 60.6988 80.0915 60.9338 79.8643Z" fill="#00B476"/>
<rect x="87" y="60" width="12" height="5" fill="#00B476"/>
<path d="M0 111C0 111 57.5299 77.25 127 111H0Z" fill="#F2F2F2"/>
</svg>
