<?xml version="1.0" encoding="UTF-8"?>
<svg width="168px" height="143px" viewBox="0 0 168 143" version="1.1" xmlns="http://www.w3.org/2000/svg" xmlns:xlink="http://www.w3.org/1999/xlink">
    <!-- Generator: Sketch 53.2 (72643) - https://sketchapp.com -->
    <title>undraw_folder_39kl</title>
    <desc>Created with Sketch.</desc>
    <g id="Web---1.3" stroke="none" stroke-width="1" fill="none" fill-rule="evenodd">
        <g id="Artboard" transform="translate(-146.000000, -338.000000)" fill-rule="nonzero">
            <g id="Drop-down" transform="translate(108.000000, 152.000000)">
                <g id="undraw_folder_39kl" transform="translate(38.000000, 186.000000)">
                    <path d="M150.926763,79.2090686 C150.900317,81.2664524 150.805596,83.571456 150.593199,86 L156.551307,78.6105618 L156.593199,78.7261518 C156.105511,77.0584332 155.383948,75.4674024 154.4498,74 L154.496967,74.1087507 L150.926763,79.2090686 Z" id="Path" fill="#57B894"></path>
                    <path d="M150.911888,79 L154.593199,73.7017485 C153.534834,72.1039291 152.267318,70.8667825 150.819643,70.112155 C150.744332,70.0728937 150.668765,70.0362931 150.593199,70 C150.649467,70.5972656 150.956461,74.1049806 150.911888,79 Z" id="Path" fill="#57B894"></path>
                    <path d="M158.231144,93.7466939 C158.386582,92.8290622 158.507267,91.9134975 158.593199,91 L149.055155,98.4759528 L149.04228,98.4099403 C148.89883,98.9491828 148.749136,99.4792027 148.593199,100 L158.208739,93.60132 L158.231144,93.7466939 Z" id="Path" fill="#57B894"></path>
                    <path d="M150.593199,94 L158.56197,86.0874396 L158.593199,86.2243303 C158.49069,83.7777124 158.118076,81.3527121 157.483142,79 L151.466378,87.0377434 C151.258772,89.4663698 150.967712,91.7871219 150.593199,94 Z" id="Path" fill="#57B894"></path>
                    <path d="M150.593199,86.4838139 L139.742632,75.1385781 L139.789724,75 C138.909669,76.477703 138.173757,78.0451762 137.593199,79.6785417 L149.940983,92 C150.23495,90.0741539 150.444836,88.21397 150.593199,86.4838139 Z" id="Path" fill="#57B894"></path>
                    <path d="M149.358192,94 C149.441681,93.5265489 149.520016,93.0561018 149.593199,92.5886585 L137.127618,80.1404966 L137.173645,80 C136.967482,80.5792331 136.774,81.1770895 136.593199,81.7935693 L136.638377,81.6526432 L149.358192,94 Z" id="Path" fill="#57B894"></path>
                    <path d="M149.593199,98 L158.428065,90.7393873 L158.453842,90.8780353 C158.593383,89.2563259 158.628183,87.6266123 158.558003,86 L150.476606,93.8369605 C150.218898,95.277447 149.924429,96.6651268 149.593199,98 Z" id="Path" fill="#57B894"></path>
                    <path d="M135.898979,93.6298978 L146.696187,106 C147.428802,104.377266 148.062277,102.71257 148.593199,101.014877 L135.598758,89 C135.57043,90.5965623 135.650393,92.1932062 135.838107,93.7792013 L135.898979,93.6298978 Z" id="Path" fill="#57B894"></path>
                    <path d="M151.265962,70.6379717 L151.352392,70.595993 C149.116471,69.6275245 146.775684,69.8714645 144.593199,71.0946179 L151.589089,79 C151.635655,74.0802832 151.271319,70.68666 151.265962,70.6379717 Z" id="Path" fill="#57B894"></path>
                    <path d="M148.207248,100.681638 C147.747321,102.149577 147.208507,103.591164 146.593199,105 L155.811749,99.4852455 L155.829256,99.6226368 C156.475255,98.3606703 156.960149,97.0212168 157.272352,95.6362765 C157.392605,95.0915552 157.499554,94.5461297 157.593199,94 L148.349111,100.218285 C148.302013,100.373024 148.255483,100.528639 148.207248,100.681638 Z" id="Path" fill="#57B894"></path>
                    <path d="M150.593199,79.2670271 L143.82151,71.1245309 L143.873377,71 C142.323899,71.9511649 140.862015,73.458749 139.593199,75.4220843 L150.266158,86 C150.47452,83.5915301 150.567377,81.3066807 150.593199,79.2670271 Z" id="Path" fill="#57B894"></path>
                    <path d="M148.108662,99.9940554 C148.71218,97.9936487 149.207744,95.9621171 149.593199,93.9082886 L136.704004,82 C136.459965,82.8046408 136.241382,83.6395506 136.048255,84.5047295 C135.782533,85.7446027 135.630216,87.0061813 135.593199,88.2737857 L148.099758,100 L148.108662,99.9940554 Z" id="Path" fill="#57B894"></path>
                    <path d="M161.34951,112.830389 C159.967788,114.445326 158.368082,116.21211 156.593199,118 L166.213253,116.031072 L166.170081,116.150161 C166.885661,114.50838 167.364745,112.77461 167.593199,111 L167.558754,111.117119 L161.34951,112.830389 Z" id="Path" fill="#57B894"></path>
                    <path d="M166.925936,106.226737 C166.894401,106.149847 166.861085,106.07481 166.827573,106 C166.506046,106.486561 164.600367,109.329391 161.593199,113 L167.519406,111.305029 C167.712111,109.434141 167.531863,107.704625 166.925936,106.226737 Z" id="Path" fill="#57B894"></path>
                    <path d="M147.909343,126 C147.469594,126.287087 147.03088,126.564359 146.593199,126.831817 L157.700607,127.888166 L157.627509,128 C158.309888,127.461447 158.965118,126.904707 159.593199,126.329781 L147.878159,126.052312 L147.909343,126 Z" id="Path" fill="#57B894"></path>
                    <path d="M151.593199,123 L163.023023,122.336499 L162.962504,122.466147 C164.413966,120.467378 165.632686,118.296879 166.593199,116 L156.668884,118.126268 C154.97703,119.89413 153.285135,121.518707 151.593199,123 Z" id="Path" fill="#57B894"></path>
                    <path d="M147.593199,126.535591 L159.440078,126.865499 L159.371861,127 C160.528038,125.746144 161.604262,124.409775 162.593199,123 L150.987904,123.697067 C149.852252,124.713966 148.720684,125.66014 147.593199,126.535591 Z" id="Path" fill="#57B894"></path>
                    <path d="M133.797686,132.096354 C133.876282,132.008742 133.95577,131.919666 134.037724,131.826734 C136.414338,131.314907 138.719355,130.52431 140.902932,129.472039 L140.732511,121.16671 C140.815102,120.949661 140.894667,120.731113 140.971207,120.511065 L141.152638,129.352388 C142.721484,128.591717 144.24236,127.739523 145.707075,126.800397 L143.703506,111.424021 C143.784772,111.376539 143.867616,111.327747 143.952038,111.277644 L145.953054,126.634343 L145.963879,126.635444 C147.731852,125.486618 149.4354,124.245317 151.067124,122.916934 L148.981155,107.793211 C149.061635,107.728139 149.142186,107.662446 149.222806,107.59613 L151.308841,122.720345 C151.669857,122.425045 152.024926,122.128644 152.374048,121.831142 L150.48517,106.508636 C150.565195,106.436394 150.645084,106.363554 150.724839,106.290115 L152.615178,121.624678 C154.056791,120.385921 155.390266,119.141534 156.593199,117.953846 L155.062935,102.522676 L155.187336,102.450303 C154.756484,102.586952 154.320192,102.742135 153.880328,102.911948 C154.668073,101.91977 155.367,100.862846 155.969335,99.7529322 L146.341544,105.347642 C145.732397,106.660996 145.035476,107.933531 144.255323,109.156954 C144.084248,109.334382 143.914246,109.514342 143.746344,109.699055 L143.770798,109.886754 C143.696126,109.995649 143.621008,110.103743 143.545443,110.211036 L143.512916,109.961332 C143.417149,110.069486 143.322407,110.179746 143.227708,110.290087 C144.366856,108.703954 145.351008,107.016199 146.167124,105.249186 L135.732998,93.3957596 C135.864114,94.496945 136.03936,95.603016 136.246107,96.698199 C135.26093,95.3179829 134.090553,94.0740701 132.766531,93 L132.848603,93.0913952 L130.95981,99.2053327 C131.600617,101.224851 132.253944,103.508002 132.830579,105.949099 L136.297858,96.968834 C136.324158,97.1046114 136.350927,97.2401796 136.378167,97.3755389 L132.919701,106.332727 C133.449512,108.62309 133.862993,110.841268 134.160145,112.987261 L138.497099,105.373914 C138.530633,105.478029 138.564139,105.58141 138.597617,105.684059 L134.213767,113.379765 C134.403641,114.811842 134.540299,116.206148 134.623741,117.562683 L140.010236,109.692386 C140.047059,109.789521 140.083334,109.884727 140.119062,109.978001 L134.675662,117.931461 L134.64354,117.874703 C134.673597,118.412324 134.695013,118.943338 134.707786,119.467746 L140.85749,111.836941 C140.898375,111.935939 140.936334,112.027235 140.971367,112.110828 L134.715206,119.873661 C134.717925,120.036294 134.72145,120.199594 134.722501,120.360921 C134.735305,121.907907 134.662137,123.454429 134.503323,124.993618 L135.100728,124.327886 C134.99496,124.579086 134.892015,124.82679 134.791893,125.071 L134.452193,125.449547 C134.425222,125.67884 134.395531,125.905873 134.364515,126.131785 C134.248691,126.424636 134.137326,126.710325 134.030421,126.988852 C134.117325,126.465334 134.192281,125.938629 134.255288,125.408736 L120.593199,117.296203 C124.528539,125.695813 131.46625,133.50455 131.910144,134 C132.208539,133.368666 132.477726,132.722957 132.717705,132.062873 C132.799239,132.050628 132.880691,132.037407 132.962141,132.024306 C132.933978,132.10347 132.906453,132.183231 132.877618,132.261782 C132.835056,132.268631 132.792324,132.27641 132.749811,132.283022 C132.785073,132.290595 132.822047,132.298458 132.860734,132.30661 C132.689911,132.769012 132.507535,133.220743 132.313604,133.661801 C132.586926,133.391448 132.996481,132.973634 133.49247,132.432971 C136.630722,133.030844 145.050026,134.209881 152.029847,131.36541 L140.973165,129.656886 C138.694035,130.75897 136.283636,131.57844 133.797686,132.096354 L133.797686,132.096354 Z M140.670035,118.121637 L140.916536,117.846951 L140.924541,118.237028 L140.67804,118.511714 L140.670035,118.121637 Z" id="Shape" fill="#57B894"></path>
                    <path d="M166.507416,105.895541 L166.593199,105.91625 C165.634671,103.685844 163.859387,102.38839 161.593199,102 L161.600863,113 C164.651945,108.971687 166.481253,105.939126 166.507416,105.895541 Z" id="Path" fill="#57B894"></path>
                    <path d="M145.714243,128.244 C144.384261,129.010765 143.008543,129.712257 141.593199,130.345361 L152.573281,131.892452 L152.497174,132 C153.84072,131.488949 155.106389,130.827853 156.263947,130.032503 C156.717194,129.718161 157.160278,129.395461 157.593199,129.064403 L146.131397,128 C145.992305,128.081653 145.853097,128.164252 145.714243,128.244 Z" id="Path" fill="#57B894"></path>
                    <path d="M157.018947,118 C158.685104,116.246742 160.186653,114.515603 161.484038,112.933294 L161.476045,102.165175 L161.593199,102.101143 C159.828176,101.843563 157.7806,102.07889 155.593199,102.796549 L157.018947,118 Z" id="Path" fill="#57B894"></path>
                    <path d="M132.593199,93.1572945 C131.077432,92.0304079 129.473033,91.2891295 127.845888,91.034536 C127.761237,91.0212893 127.677173,91.0105071 127.593199,91 C127.833545,91.5205968 129.222474,94.5850449 130.706025,99 L132.593199,93.1572945 Z" id="Path" fill="#57B894"></path>
                    <path d="M132.551479,106.909259 L118.333107,100.137208 L118.337349,100 C117.917791,101.577676 117.668475,103.191258 117.593199,104.816163 L133.593199,112 C133.295137,110.202589 132.933871,108.48893 132.551479,106.909259 Z" id="Path" fill="#57B894"></path>
                    <path d="M134.39909,112.634227 L118.620134,105.143054 L118.622725,105 C118.596221,105.594897 118.58756,106.202882 118.596744,106.823956 L118.598368,106.680778 L134.593199,114 C134.532595,113.540378 134.467892,113.08512 134.39909,112.634227 Z" id="Path" fill="#57B894"></path>
                    <path d="M134.588512,120.003316 L118.593199,113 C119.062078,114.434103 119.633201,115.837213 120.302728,117.199898 L120.313833,117.049086 L134.34541,125 C134.533193,123.340481 134.614373,121.671924 134.588512,120.003316 L134.588512,120.003316 Z" id="Path" fill="#57B894"></path>
                    <path d="M127.614413,91.113153 L127.680826,91.0479748 C125.303789,90.7737048 123.218404,91.6870846 121.593199,93.4889915 L130.593199,99 C129.059402,94.2910365 127.634975,91.1580634 127.614413,91.113153 Z" id="Path" fill="#57B894"></path>
                    <path d="M130.741949,99.1228336 L121.396943,93.1421272 L121.408117,93 C120.179172,94.4615302 119.216823,96.4540424 118.593199,98.8419037 L132.593199,106 C132.021579,103.510173 131.375372,101.182299 130.741949,99.1228336 Z" id="Path" fill="#57B894"></path>
                    <path d="M134.593199,119.991338 C134.548571,117.838686 134.387549,115.689991 134.110832,113.554586 L117.593199,106 C117.609896,106.866282 117.661363,107.754105 117.747602,108.663469 C117.882096,109.963128 118.135352,111.247861 118.504221,112.501704 L134.586322,120 L134.593199,119.991338 Z" id="Path" fill="#57B894"></path>
                    <path d="M122.04024,83 L75.2531309,77.090447 C73.1325644,59.415521 76.336314,42.1600159 81.8060901,25 L128.593199,30.9095476 C121.533143,47.7443204 119.460796,65.1199426 122.04024,83 Z" id="Path" fill="#F2F2F2"></path>
                    <polygon id="Rectangle" fill="#00B476" transform="translate(102.014769, 35.010912) rotate(7.184420) translate(-102.014769, -35.010912) " points="87.656484 33.4780983 116.374208 33.4673591 116.373054 36.5437263 87.6553302 36.5544655"></polygon>
                    <polygon id="Rectangle" fill="#00B476" opacity="0.3" transform="translate(100.587501, 41.569309) rotate(7.184420) translate(-100.587501, -41.569309) " points="81.1261906 40.8074952 120.049389 40.7929395 120.048812 42.3311231 81.1256137 42.3456788"></polygon>
                    <polygon id="Rectangle" fill="#00B476" opacity="0.3" transform="translate(99.964146, 46.499577) rotate(7.184420) translate(-99.964146, -46.499577) " points="80.5028355 45.7377631 119.426033 45.7232074 119.425457 47.261391 80.5022586 47.2759467"></polygon>
                    <polygon id="Rectangle" fill="#00B476" opacity="0.3" transform="translate(99.340791, 51.429845) rotate(7.184420) translate(-99.340791, -51.429845) " points="79.8794804 50.6680307 118.802678 50.6534751 118.802101 52.1916587 79.8789035 52.2062143"></polygon>
                    <polygon id="Rectangle" fill="#00B476" opacity="0.3" transform="translate(98.717438, 56.360109) rotate(7.184420) translate(-98.717438, -56.360109) " points="79.2561273 55.598295 118.179325 55.5837393 118.178748 57.1219229 79.2555504 57.1364786"></polygon>
                    <polygon id="Rectangle" fill="#00B476" opacity="0.3" transform="translate(98.094083, 61.290377) rotate(7.184420) translate(-98.094083, -61.290377) " points="78.6327722 60.5285629 117.55597 60.5140072 117.555393 62.0521908 78.6321953 62.0667465"></polygon>
                    <polygon id="Rectangle" fill="#00B476" opacity="0.3" transform="translate(97.470729, 66.220645) rotate(7.184420) translate(-97.470729, -66.220645) " points="78.0094189 65.4588308 116.932617 65.4442751 116.93204 66.9824587 78.008842 66.9970144"></polygon>
                    <polygon id="Rectangle" fill="#00B476" opacity="0.3" transform="translate(96.847376, 71.150911) rotate(7.184420) translate(-96.847376, -71.150911) " points="77.3860656 70.3890969 116.309264 70.3745412 116.308687 71.9127248 77.3854887 71.9272805"></polygon>
                    <path d="M99.181218,66 L55.593199,48.5032143 C57.9949064,30.9492673 65.4205201,15.1427537 75.00518,0 L118.593199,17.4967857 C107.558281,31.9250591 101.19244,48.1327414 99.181218,66 Z" id="Path" fill="#E6E6E6"></path>
                    <polygon id="Rectangle" fill="#00B476" transform="translate(92.755090, 14.381148) rotate(21.841710) translate(-92.755090, -14.381148) " points="78.403147 12.8573382 107.110245 12.8274494 107.107034 15.9049582 78.3999358 15.9348471"></polygon>
                    <polygon id="Rectangle" fill="#00B476" opacity="0.3" transform="translate(89.709736, 20.366052) rotate(21.841710) translate(-89.709736, -20.366052) " points="70.2561415 19.6169298 109.164937 19.5764193 109.163331 21.1151737 70.2545359 21.1556842"></polygon>
                    <polygon id="Rectangle" fill="#00B476" opacity="0.3" transform="translate(87.855359, 24.978615) rotate(21.841710) translate(-87.855359, -24.978615) " points="68.4017639 24.2294931 107.310559 24.1889825 107.308954 25.727737 68.4001583 25.7682475"></polygon>
                    <polygon id="Rectangle" fill="#00B476" opacity="0.3" transform="translate(86.000980, 29.591177) rotate(21.841710) translate(-86.000980, -29.591177) " points="66.5473851 28.8420546 105.456181 28.8015441 105.454575 30.3402985 66.5457795 30.3808091"></polygon>
                    <polygon id="Rectangle" fill="#00B476" opacity="0.3" transform="translate(84.146601, 34.203740) rotate(21.841710) translate(-84.146601, -34.203740) " points="64.6930064 33.454618 103.601802 33.4141075 103.600196 34.9528619 64.6914008 34.9933724"></polygon>
                    <polygon id="Rectangle" fill="#00B476" opacity="0.3" transform="translate(82.292224, 38.816303) rotate(21.841710) translate(-82.292224, -38.816303) " points="62.8386288 38.0671812 101.747424 38.0266707 101.745819 39.5654251 62.8370232 39.6059357"></polygon>
                    <polygon id="Rectangle" fill="#00B476" opacity="0.3" transform="translate(80.437845, 43.428867) rotate(21.841710) translate(-80.437845, -43.428867) " points="60.9842501 42.6797446 99.8930456 42.6392341 99.89144 44.1779885 60.9826445 44.218499"></polygon>
                    <polygon id="Rectangle" fill="#00B476" opacity="0.3" transform="translate(78.583466, 48.041430) rotate(21.841710) translate(-78.583466, -48.041430) " points="59.1298707 47.2923078 98.0386662 47.2517973 98.0370606 48.7905518 59.1282651 48.8310623"></polygon>
                    <path d="M88.593199,70 L41.4531323,70 C37.1447509,52.8949345 38.1692801,35.5411769 41.4531323,18 L88.593199,18 C83.6915525,35.4189501 83.8041196,52.750316 88.593199,70 Z" id="Path" fill="#F2F2F2"></path>
                    <rect id="Rectangle" fill="#00B476" x="48.593199" y="23" width="29" height="3"></rect>
                    <rect id="Rectangle" fill="#00B476" opacity="0.3" x="43.593199" y="30" width="39" height="2"></rect>
                    <rect id="Rectangle" fill="#00B476" opacity="0.3" x="43.593199" y="35" width="39" height="2"></rect>
                    <rect id="Rectangle" fill="#00B476" opacity="0.3" x="43.593199" y="40" width="39" height="2"></rect>
                    <rect id="Rectangle" fill="#00B476" opacity="0.3" x="43.593199" y="45" width="39" height="2"></rect>
                    <rect id="Rectangle" fill="#00B476" opacity="0.3" x="43.593199" y="50" width="39" height="2"></rect>
                    <rect id="Rectangle" fill="#00B476" opacity="0.3" x="43.593199" y="55" width="39" height="2"></rect>
                    <rect id="Rectangle" fill="#00B476" opacity="0.3" x="43.593199" y="60" width="39" height="2"></rect>
                    <path d="M57.0583159,59.5188859 L40.8188214,46.9272603 C40.4881048,46.3536265 39.8752272,46.0000002 39.2117661,46 L30.4469808,46 C29.4231654,46 28.593199,46.8277663 28.593199,47.8488678 L28.593199,125.002989 C28.593199,128.315047 31.2852883,131 34.6061487,131 L124.580251,131 C126.174984,131 127.704401,130.368174 128.832048,129.243516 C129.959694,128.118858 130.593199,126.593495 130.593199,125.002989 L130.593199,64.9696858 C130.593199,61.9592929 128.146308,59.5188869 125.127914,59.5188859 L57.0583159,59.5188859 Z" id="Path" fill="#D4D6DB"></path>
                    <rect id="Rectangle" fill="#00B476" x="111.593199" y="77" width="16" height="6"></rect>
                    <path d="M0.593198992,143 C0.593198992,143 74.883798,100.25 164.593199,143" id="Path" fill="#F2F2F2"></path>
                </g>
            </g>
        </g>
    </g>
</svg>