<svg version="1" xmlns="http://www.w3.org/2000/svg" width="776" height="776" viewBox="0 0 582.000000 582.000000"><path d="M271 67c-6.6 1.4-18.1 7.6-23 12.3-9.9 9.7-15.1 21.8-15.1 34.6 0 4.2.2 8.3.4 9.1.2.8.7 2.8 1.2 4.5.4 1.6 2.1 5.9 3.8 9.5 2.8 6 8.8 12.3 76.8 80.5l73.9 74-73.4 73.5c-71.9 72-73.5 73.7-77 81.2-11.5 24.5-2.1 52.6 21.7 64.3 8.9 4.4 11.7 5 23.2 4.9 10.2 0 17.5-2.2 25.6-7.7 6.6-4.4 187.3-184.7 191-190.5 10.1-16 9.2-39.4-2.2-54.1-4.1-5.4-184.6-185.4-188.7-188.3-10.1-7-26.1-10.3-38.2-7.8z"/><path d="M113.1 144.1c-10.9 2.1-23.4 10.7-30 20.5-9.4 13.8-10.4 33.2-2.5 49.1 2.3 4.8 9.5 12.5 40.9 44.1 20.9 21.1 38.1 38.5 38.3 38.6.1.2-16.3 16.9-36.5 37.2-20.3 20.3-38.3 39.1-40.1 41.7C74 389 73 408.7 80.6 424.2c3.9 7.7 12.7 16.3 20.8 20.3 9.2 4.6 11.2 5 23.1 4.9 11-.1 17.4-1.9 25.7-7.4 2.4-1.6 30.1-28.5 61.5-59.8 54.8-54.6 57.2-57.1 60.6-64.3 7-14.8 6.6-29.8-1.2-44.9-2.9-5.6-113-116.4-121-121.7-10.3-6.9-24.5-9.7-37-7.2z"/></svg>