<?xml version="1.0" standalone="no"?>
<!DOCTYPE svg PUBLIC "-//W3C//DTD SVG 20010904//EN"
 "http://www.w3.org/TR/2001/REC-SVG-20010904/DTD/svg10.dtd">
<svg version="1.0" xmlns="http://www.w3.org/2000/svg"
 width="1024.000000pt" height="1024.000000pt" viewBox="0 0 1024.000000 1024.000000"
 preserveAspectRatio="xMidYMid meet">
<metadata>
Created by potrace 1.11, written by Peter Selinger 2001-2013
</metadata>
<g transform="translate(0.000000,1024.000000) scale(0.100000,-0.100000)"
fill="#000000" stroke="none">
<path d="M0 5120 l0 -5120 5120 0 5120 0 0 5120 0 5120 -5120 0 -5120 0 0
-5120z m5350 2951 c159 -55 113 -11 1403 -1300 659 -658 1220 -1223 1246
-1256 99 -123 144 -250 144 -405 0 -149 -45 -281 -133 -392 -20 -26 -584 -591
-1251 -1255 -884 -879 -1229 -1217 -1269 -1240 -30 -18 -91 -44 -135 -59 -67
-23 -98 -27 -190 -28 -190 -1 -332 58 -465 193 -203 206 -248 503 -114 764 35
67 105 140 1008 1044 l971 973 -966 967 c-1039 1041 -1016 1016 -1070 1173
-31 91 -37 243 -15 344 52 233 236 424 470 487 98 26 273 22 366 -10z m-2090
-950 c154 -53 152 -51 928 -825 398 -396 745 -748 771 -781 99 -123 144 -250
144 -405 0 -136 -39 -263 -114 -373 -12 -18 -356 -366 -763 -775 -527 -529
-761 -757 -811 -791 -40 -26 -107 -59 -155 -75 -72 -25 -102 -29 -195 -29
-190 -2 -332 57 -465 192 -203 206 -248 503 -113 764 33 65 83 119 539 577
l503 505 -493 495 c-527 529 -546 552 -597 700 -31 91 -37 243 -15 344 53 234
235 423 470 487 98 26 273 22 366 -10z"/>
</g>
</svg>
