<?xml version="1.0" encoding="UTF-8"?>
<svg width="171px" height="111px" viewBox="0 0 171 111" version="1.1" xmlns="http://www.w3.org/2000/svg" xmlns:xlink="http://www.w3.org/1999/xlink">
    <!-- Generator: Sketch 53.2 (72643) - https://sketchapp.com -->
    <title>Tile 2</title>
    <desc>Created with Sketch.</desc>
    <defs>
        <radialGradient cx="95.9503106%" cy="93.0961194%" fx="95.9503106%" fy="93.0961194%" r="177.12679%" gradientTransform="translate(0.959503,0.930961),scale(0.605096,1.000000),rotate(-148.292011),translate(-0.959503,-0.930961)" id="radialGradient-1">
            <stop stop-color="#F52B4F" offset="0%"></stop>
            <stop stop-color="#F53D44" offset="34.4720297%"></stop>
            <stop stop-color="#F37426" offset="100%"></stop>
        </radialGradient>
        <path d="M17.9471964,-7.25088215e-16 L139.052804,-1.05126862e-15 C145.293435,-2.19765397e-15 147.556438,0.649779278 149.83792,1.86992893 C152.119401,3.09007857 153.909921,4.88059859 155.130071,7.16208008 C156.350221,9.44356156 157,11.7065652 157,17.9471964 L157,77.0528036 C157,83.2934348 156.350221,85.5564384 155.130071,87.8379199 C153.909921,90.1194014 152.119401,91.9099214 149.83792,93.1300711 C147.556438,94.3502207 145.293435,95 139.052804,95 L17.9471964,95 C11.7065652,95 9.44356156,94.3502207 7.16208008,93.1300711 C4.88059859,91.9099214 3.09007857,90.1194014 1.86992893,87.8379199 C0.649779278,85.5564384 2.80864756e-16,83.2934348 -4.83392144e-16,77.0528036 L-1.2929647e-15,17.9471964 C-2.0572216e-15,11.7065652 0.649779278,9.44356156 1.86992893,7.16208008 C3.09007857,4.88059859 4.88059859,3.09007857 7.16208008,1.86992893 C9.44356156,0.649779278 11.7065652,4.21297134e-16 17.9471964,-7.25088215e-16 Z" id="path-2"></path>
        <filter x="-5.7%" y="-6.3%" width="111.5%" height="118.9%" filterUnits="objectBoundingBox" id="filter-4">
            <feOffset dx="0" dy="3" in="SourceAlpha" result="shadowOffsetOuter1"></feOffset>
            <feGaussianBlur stdDeviation="2.5" in="shadowOffsetOuter1" result="shadowBlurOuter1"></feGaussianBlur>
            <feColorMatrix values="0 0 0 0 0   0 0 0 0 0   0 0 0 0 0  0 0 0 0.1 0" type="matrix" in="shadowBlurOuter1"></feColorMatrix>
        </filter>
    </defs>
    <g id="iOS---1.2" stroke="none" stroke-width="1" fill="none" fill-rule="evenodd">
        <g id="Artboard" transform="translate(-226.000000, -31.000000)">
            <g id="Tile-2" transform="translate(311.878376, 83.543275) rotate(3.000000) translate(-311.878376, -83.543275) translate(233.378376, 36.043275)">
                <mask id="mask-3" fill="white">
                    <use xlink:href="#path-2"></use>
                </mask>
                <g id="Rectangle-4">
                    <use fill="black" fill-opacity="1" filter="url(#filter-4)" xlink:href="#path-2"></use>
                    <use fill="url(#radialGradient-1)" fill-rule="evenodd" xlink:href="#path-2"></use>
                </g>
                <g id="Arrow(s)" mask="url(#mask-3)">
                    <g transform="translate(58.666920, 63.966421)" id="One-arrow">
                        <g transform="translate(12.825141, 0.517682)">
                            <path d="M13.7996028,11.0116907 L8.90421765,16.0297893 C8.23964805,16.7110177 7.16517005,16.7140953 6.50430396,16.0366631 C5.84343783,15.359231 5.8464401,14.2578189 6.51100969,13.5765904 L11.4063948,8.55849189 L6.48025833,3.50887112 C5.8156887,2.82764264 5.81268643,1.72623057 6.47355256,1.04879841 C7.13441868,0.371366262 8.20889665,0.374443772 8.87346625,1.05567225 L15.0202244,7.35651223 C15.6745699,8.02726028 15.677526,9.11172752 15.026827,9.77873767 L13.8118138,11.0242078 L13.7996028,11.0116907 Z M5.84372296,11.1793803 L3.39584608,13.6886185 C2.73276489,14.3683213 1.66365153,14.3744242 1.00791458,13.7022498 C0.35217764,13.0300754 0.358131355,11.9341624 1.02121255,11.2544597 L3.46908943,8.74522146 L1.0141561,6.22874991 C0.351074888,5.54904713 0.345121184,4.45313414 1.00085813,3.78095974 C1.65659507,3.10878533 2.72570842,3.11488829 3.38878961,3.79459107 L7.04119182,7.53854863 C7.69407179,8.20779444 7.69993391,9.2868472 7.05428523,9.94868048 L5.84870205,11.1844842 L5.84372296,11.1793803 Z" id="Arrow" fill="#FFFFFF" fill-rule="nonzero"></path>
                        </g>
                    </g>
                </g>
                <path d="M18.0503711,48.2387695 L19.3833789,48.2387695 C19.5445117,49.3447266 20.5991992,50.0478516 22.1006641,50.0478516 C23.5215625,50.0478516 24.5689258,49.2788086 24.5689258,48.2314453 C24.5689258,47.3305664 23.9097461,46.7592773 22.4522266,46.3930664 L21.0972461,46.0415039 C19.185625,45.5581055 18.3579883,44.6938477 18.3579883,43.1923828 C18.3579883,41.3979492 19.8594531,40.1821289 22.0933398,40.1821289 C24.1367969,40.1821289 25.6602344,41.3979492 25.7700977,43.1044922 L24.4444141,43.1044922 C24.2613086,42.0205078 23.3677539,41.3759766 22.0493945,41.3759766 C20.6431445,41.3759766 19.7129687,42.0791016 19.7129687,43.1484375 C19.7129687,43.9760742 20.291582,44.4521484 21.7491016,44.8256836 L22.8550586,45.1186523 C25.045,45.6679688 25.9239062,46.5175781 25.9239062,48.0703125 C25.9239062,50.0112305 24.3931445,51.2490234 21.9761523,51.2490234 C19.7349414,51.2490234 18.1895312,50.0625 18.0503711,48.2387695 Z M30.8321289,44.0786133 C29.5723633,44.0786133 28.693457,45.0014648 28.5982422,46.4003906 L32.9488281,46.4003906 C32.9195312,45.0014648 32.0845703,44.0786133 30.8321289,44.0786133 Z M32.912207,48.956543 L34.1719727,48.956543 C33.7911133,50.3115234 32.575293,51.1391602 30.8467773,51.1391602 C28.6568359,51.1391602 27.287207,49.5571289 27.287207,47.0595703 C27.287207,44.5766602 28.6788086,42.965332 30.8467773,42.965332 C32.978125,42.965332 34.2745117,44.4814453 34.2745117,46.9350586 L34.2745117,47.418457 L28.5982422,47.418457 L28.5982422,47.4770508 C28.6641602,49.0371094 29.5357422,50.0258789 30.8760742,50.0258789 C31.8941406,50.0258789 32.5826172,49.6523438 32.912207,48.956543 Z M39.8272656,42.965332 C41.8414258,42.965332 43.1451367,44.5693359 43.1451367,47.0522461 C43.1451367,49.5205078 41.8341016,51.1391602 39.8272656,51.1391602 C38.6993359,51.1391602 37.7911328,50.6484375 37.3590039,49.8134766 L37.2418164,49.8134766 L37.2418164,53.6367188 L35.9820508,53.6367188 L35.9820508,43.1044922 L37.1832227,43.1044922 L37.1832227,44.4228516 L37.3004102,44.4228516 C37.8057812,43.5146484 38.7506055,42.965332 39.8272656,42.965332 Z M39.5269727,50.0039062 C40.977168,50.0039062 41.8414258,48.8979492 41.8414258,47.0522461 C41.8414258,45.206543 40.977168,44.1005859 39.5342969,44.1005859 C38.1060742,44.1005859 37.2051953,45.2358398 37.2051953,47.0522461 C37.2051953,48.8613281 38.1060742,50.0039062 39.5269727,50.0039062 Z M45.3800195,41.0610352 L46.6397852,41.0610352 L46.6397852,43.1044922 L48.3975977,43.1044922 L48.3975977,44.1591797 L46.6397852,44.1591797 L46.6397852,48.6269531 C46.6397852,49.5571289 46.9913477,49.9526367 47.8116602,49.9526367 C48.0387109,49.9526367 48.1632227,49.9453125 48.3975977,49.9233398 L48.3975977,50.9853516 C48.1485742,51.0292969 47.906875,51.0585938 47.6578516,51.0585938 C46.031875,51.0585938 45.3800195,50.4580078 45.3800195,48.9492188 L45.3800195,44.1591797 L44.1056055,44.1591797 L44.1056055,43.1044922 L45.3800195,43.1044922 L45.3800195,41.0610352 Z M53.9220508,43.4047852 C53.9220508,41.5297852 55.3429492,40.1821289 57.3058398,40.1821289 C59.2028125,40.1821289 60.6530078,41.4711914 60.6530078,43.1484375 C60.6530078,44.2470703 60.1549609,45.1040039 58.4191211,46.9643555 L55.8776172,49.6962891 L55.8776172,49.8134766 L60.8287891,49.8134766 L60.8287891,51 L53.9879687,51 L53.9879687,50.0917969 L57.6427539,46.1000977 C59.0050586,44.6206055 59.3346484,44.0493164 59.3346484,43.199707 C59.3346484,42.1450195 58.4337695,41.3320312 57.2692187,41.3320312 C56.0314258,41.3320312 55.1964648,42.159668 55.1964648,43.4047852 L55.1964648,43.4121094 L53.9220508,43.4121094 L53.9220508,43.4047852 Z M66.1544922,51.2416992 C64.3600586,51.2416992 63.0270508,50.1796875 62.6901367,48.4804688 L64.0451172,48.4804688 C64.3307617,49.4692383 65.1291016,50.0698242 66.1691406,50.0698242 C67.890332,50.0698242 68.8644531,48.5463867 68.9376953,45.7338867 L68.8205078,45.7338867 C68.3004883,46.7592773 67.2677734,47.3598633 66.0080078,47.3598633 C63.9938477,47.3598633 62.5363281,45.8730469 62.5363281,43.8222656 C62.5363281,41.6982422 64.0744141,40.1821289 66.2423828,40.1821289 C67.8244141,40.1821289 69.0475586,41.0244141 69.7067383,42.5844727 C70.0509766,43.3901367 70.2194336,44.3642578 70.2194336,45.5288086 C70.2194336,49.1616211 68.7399414,51.2416992 66.1544922,51.2416992 Z M66.2423828,46.2172852 C67.6413086,46.2172852 68.6447266,45.2211914 68.6447266,43.8222656 C68.6447266,42.4086914 67.6120117,41.3393555 66.2570312,41.3393555 C64.9020508,41.3393555 63.8693359,42.394043 63.8693359,43.7783203 C63.8693359,45.2211914 64.843457,46.2172852 66.2423828,46.2172852 Z M72.2858594,53.6879883 L71.3410352,53.6879883 L72.0368359,49.5205078 L73.4357617,49.5205078 L72.2858594,53.6879883 Z M82.1535742,51 L82.1535742,41.8959961 L82.0363867,41.8959961 L79.3483984,43.8442383 L79.3483984,42.4526367 L82.1608984,40.4311523 L83.4719336,40.4311523 L83.4719336,51 L82.1535742,51 Z M88.8782031,51 L88.8782031,41.8959961 L88.7610156,41.8959961 L86.0730273,43.8442383 L86.0730273,42.4526367 L88.8855273,40.4311523 L90.1965625,40.4311523 L90.1965625,51 L88.8782031,51 Z M94.1233398,49.7915039 C93.6033203,49.7915039 93.1711914,49.359375 93.1711914,48.8393555 C93.1711914,48.3120117 93.6033203,47.887207 94.1233398,47.887207 C94.6506836,47.887207 95.0754883,48.3120117 95.0754883,48.8393555 C95.0754883,49.359375 94.6506836,49.7915039 94.1233398,49.7915039 Z M94.1233398,44.1591797 C93.6033203,44.1591797 93.1711914,43.7270508 93.1711914,43.2070312 C93.1711914,42.6796875 93.6033203,42.2548828 94.1233398,42.2548828 C94.6506836,42.2548828 95.0754883,42.6796875 95.0754883,43.2070312 C95.0754883,43.7270508 94.6506836,44.1591797 94.1233398,44.1591797 Z M99.3465039,46.1293945 L99.3465039,45.0014648 L100.628242,45.0014648 C101.829414,45.0014648 102.679023,44.2250977 102.679023,43.1264648 C102.679023,42.0498047 101.866035,41.3320312 100.650215,41.3320312 C99.4343945,41.3320312 98.6360547,42.0058594 98.5261914,43.1411133 L97.2444531,43.1411133 C97.3762891,41.3100586 98.6873242,40.1821289 100.701484,40.1821289 C102.547187,40.1821289 104.019355,41.4125977 104.019355,42.9506836 C104.019355,44.2104492 103.323555,45.1333008 102.166328,45.4116211 L102.166328,45.5288086 C103.601875,45.7119141 104.473457,46.7080078 104.473457,48.1508789 C104.473457,49.894043 102.840156,51.2490234 100.752754,51.2490234 C98.6067578,51.2490234 97.1272656,50.0551758 97.0320508,48.2460938 L98.3064648,48.2460938 C98.4236523,49.3740234 99.3758008,50.0991211 100.738105,50.0991211 C102.129707,50.0991211 103.118477,49.2714844 103.118477,48.1142578 C103.118477,46.8911133 102.188301,46.1293945 100.686836,46.1293945 L99.3465039,46.1293945 Z M109.806484,51.2490234 C107.806973,51.2490234 106.371426,50.0112305 106.254238,48.1875 L107.550625,48.1875 C107.667812,49.3300781 108.576016,50.0917969 109.821133,50.0917969 C111.234707,50.0917969 112.179531,49.125 112.179531,47.6748047 C112.179531,46.2246094 111.227383,45.2358398 109.843105,45.2358398 C108.883633,45.2358398 108.092617,45.6679688 107.660488,46.4223633 L106.422695,46.4223633 L107.001309,40.4311523 L112.897305,40.4311523 L112.897305,41.6103516 L108.034023,41.6103516 L107.73373,45.0014648 L107.850918,45.0014648 C108.363613,44.4008789 109.110684,44.1005859 110.084805,44.1005859 C112.091641,44.1005859 113.497891,45.5581055 113.497891,47.6381836 C113.497891,49.7841797 111.996426,51.2490234 109.806484,51.2490234 Z M126.331914,51 L125.269902,47.9750977 L121.065801,47.9750977 L120.003789,51 L118.619512,51 L122.515996,40.4311523 L123.819707,40.4311523 L127.716191,51 L126.331914,51 Z M123.109258,42.1376953 L121.453984,46.8544922 L124.881719,46.8544922 L123.226445,42.1376953 L123.109258,42.1376953 Z M139.714258,51 L138.483789,51 L138.483789,42.9287109 L138.395898,42.9287109 L135.063379,50.9267578 L133.950098,50.9267578 L130.617578,42.9287109 L130.529687,42.9287109 L130.529687,51 L129.299219,51 L129.299219,40.4311523 L130.82998,40.4311523 L134.448145,49.1762695 L134.565332,49.1762695 L138.183496,40.4311523 L139.714258,40.4311523 L139.714258,51 Z" id="Sept29,11:35AM" fill="#FFFFFF" fill-rule="nonzero" mask="url(#mask-3)"></path>
                <path d="M59.180175,27.6884766 L59.180175,30 L50.8833,30 L50.8833,17.3173828 L53.5375968,17.3173828 L53.5375968,27.6884766 L59.180175,27.6884766 Z M64.9038937,30.2109375 C61.9244015,30.2109375 60.1314328,28.3212891 60.1314328,25.1484375 C60.1314328,22.0107422 61.9507687,20.0947266 64.9038937,20.0947266 C67.8570187,20.0947266 69.6763546,22.0019531 69.6763546,25.1484375 C69.6763546,28.3212891 67.8833859,30.2109375 64.9038937,30.2109375 Z M64.9038937,28.1191406 C66.2661984,28.1191406 67.048425,27.0292969 67.048425,25.1484375 C67.048425,23.2851562 66.2574093,22.1865234 64.9038937,22.1865234 C63.541589,22.1865234 62.7593625,23.2851562 62.7593625,25.1484375 C62.7593625,27.0380859 63.5328,28.1191406 64.9038937,28.1191406 Z M80.0494875,23.7246094 L77.6588625,23.7246094 C77.4830812,22.8017578 76.8239015,22.1953125 75.7340578,22.1953125 C74.354175,22.1953125 73.5807375,23.2236328 73.5807375,25.1308594 C73.5807375,27.0644531 74.362964,28.1103516 75.7340578,28.1103516 C76.7799562,28.1103516 77.4655031,27.6005859 77.6588625,26.6425781 L80.0494875,26.6425781 C79.83855,28.8134766 78.2565187,30.2109375 75.7340578,30.2109375 C72.7106203,30.2109375 70.9967531,28.3828125 70.9967531,25.1308594 C70.9967531,21.9140625 72.7018312,20.0947266 75.7340578,20.0947266 C78.300464,20.0947266 79.83855,21.5185547 80.0494875,23.7246094 Z M84.5603156,24.09375 L87.8034796,20.3056641 L90.7126593,20.3056641 L87.0212531,24.4628906 L90.9675421,30 L87.9353156,30 L85.1052375,26.0625 L84.4021125,26.7832031 L84.4021125,30 L81.8444953,30 L81.8444953,16.6054688 L84.4021125,16.6054688 L84.4021125,24.09375 L84.5603156,24.09375 Z M95.9178234,22.0546875 C94.7313,22.0546875 93.896339,22.8808594 93.8084484,24.1376953 L97.9393078,24.1376953 C97.8865734,22.8544922 97.1131359,22.0546875 95.9178234,22.0546875 Z M97.9920421,27.2402344 L100.373878,27.2402344 C99.9871593,29.0683594 98.3172375,30.2109375 95.9441906,30.2109375 C92.9910656,30.2109375 91.2508312,28.3476562 91.2508312,25.2011719 C91.2508312,22.0458984 93.0262218,20.0947266 95.9090343,20.0947266 C98.7654796,20.0947266 100.45298,21.9140625 100.45298,24.9902344 L100.45298,25.7724609 L93.7996593,25.7724609 L93.7996593,25.9042969 C93.8348156,27.3457031 94.6785656,28.2421875 96.0145031,28.2421875 C97.0252453,28.2421875 97.7195812,27.8818359 97.9920421,27.2402344 Z M102.256777,30 L102.256777,20.3056641 L104.735292,20.3056641 L104.735292,21.8525391 L104.893495,21.8525391 C105.148378,20.8857422 106.150331,20.1474609 107.3808,20.1474609 C107.732362,20.1474609 108.163027,20.1914062 108.382753,20.2705078 L108.382753,22.5996094 C108.180605,22.5205078 107.582948,22.4414062 107.169862,22.4414062 C105.772402,22.4414062 104.814394,23.2675781 104.814394,24.6298828 L104.814394,30 L102.256777,30 Z" id="Locker" fill="#FFFFFF" fill-rule="nonzero" mask="url(#mask-3)"></path>
            </g>
        </g>
    </g>
</svg>