<?xml version="1.0" encoding="UTF-8"?>
<svg width="171px" height="111px" viewBox="0 0 171 111" version="1.1" xmlns="http://www.w3.org/2000/svg" xmlns:xlink="http://www.w3.org/1999/xlink">
    <!-- Generator: Sketch 53.2 (72643) - https://sketchapp.com -->
    <title>Tile 6</title>
    <desc>Created with Sketch.</desc>
    <defs>
        <radialGradient cx="73.7963924%" cy="70.3887377%" fx="73.7963924%" fy="70.3887377%" r="161.573184%" gradientTransform="translate(0.737964,0.703887),scale(0.605096,1.000000),rotate(-139.507581),translate(-0.737964,-0.703887)" id="radialGradient-1">
            <stop stop-color="#1893E9" offset="0%"></stop>
            <stop stop-color="#05B5DE" offset="100%"></stop>
        </radialGradient>
        <path d="M17.9471964,-7.25088215e-16 L139.052804,-1.05126862e-15 C145.293435,-2.19765397e-15 147.556438,0.649779278 149.83792,1.86992893 C152.119401,3.09007857 153.909921,4.88059859 155.130071,7.16208008 C156.350221,9.44356156 157,11.7065652 157,17.9471964 L157,77.0528036 C157,83.2934348 156.350221,85.5564384 155.130071,87.8379199 C153.909921,90.1194014 152.119401,91.9099214 149.83792,93.1300711 C147.556438,94.3502207 145.293435,95 139.052804,95 L17.9471964,95 C11.7065652,95 9.44356156,94.3502207 7.16208008,93.1300711 C4.88059859,91.9099214 3.09007857,90.1194014 1.86992893,87.8379199 C0.649779278,85.5564384 2.80864756e-16,83.2934348 -4.83392144e-16,77.0528036 L-1.2929647e-15,17.9471964 C-2.0572216e-15,11.7065652 0.649779278,9.44356156 1.86992893,7.16208008 C3.09007857,4.88059859 4.88059859,3.09007857 7.16208008,1.86992893 C9.44356156,0.649779278 11.7065652,4.21297134e-16 17.9471964,-7.25088215e-16 Z" id="path-2"></path>
        <filter x="-5.7%" y="-6.3%" width="111.5%" height="118.9%" filterUnits="objectBoundingBox" id="filter-4">
            <feOffset dx="0" dy="3" in="SourceAlpha" result="shadowOffsetOuter1"></feOffset>
            <feGaussianBlur stdDeviation="2.5" in="shadowOffsetOuter1" result="shadowBlurOuter1"></feGaussianBlur>
            <feColorMatrix values="0 0 0 0 0   0 0 0 0 0   0 0 0 0 0  0 0 0 0.1 0" type="matrix" in="shadowBlurOuter1"></feColorMatrix>
        </filter>
    </defs>
    <g id="iOS---1.2" stroke="none" stroke-width="1" fill="none" fill-rule="evenodd">
        <g id="Artboard" transform="translate(-938.000000, -31.000000)">
            <g id="Tile-6" transform="translate(1023.878376, 83.543275) rotate(3.000000) translate(-1023.878376, -83.543275) translate(945.378376, 36.043275)">
                <mask id="mask-3" fill="white">
                    <use xlink:href="#path-2"></use>
                </mask>
                <g id="Rectangle-4">
                    <use fill="black" fill-opacity="1" filter="url(#filter-4)" xlink:href="#path-2"></use>
                    <use fill="url(#radialGradient-1)" fill-rule="evenodd" xlink:href="#path-2"></use>
                </g>
                <g id="Arrow(s)" mask="url(#mask-3)">
                    <g transform="translate(58.666920, 63.966421)" id="Two-arrows">
                        <g transform="translate(0.741022, 0.834717)">
                            <g id="Logo" transform="translate(22.022186, 0.152762)" fill="#FFFFFF" fill-rule="nonzero">
                                <path d="M13.7996028,11.0116907 L8.90421765,16.0297893 C8.23964805,16.7110177 7.16517005,16.7140953 6.50430396,16.0366631 C5.84343783,15.359231 5.8464401,14.2578189 6.51100969,13.5765904 L11.4063948,8.55849189 L6.48025833,3.50887112 C5.8156887,2.82764264 5.81268643,1.72623057 6.47355256,1.04879841 C7.13441868,0.371366262 8.20889665,0.374443772 8.87346625,1.05567225 L15.0202244,7.35651223 C15.6745699,8.02726028 15.677526,9.11172752 15.026827,9.77873767 L13.8118138,11.0242078 L13.7996028,11.0116907 Z M5.84372296,11.1793803 L3.39584608,13.6886185 C2.73276489,14.3683213 1.66365153,14.3744242 1.00791458,13.7022498 C0.35217764,13.0300754 0.358131355,11.9341624 1.02121255,11.2544597 L3.46908943,8.74522146 L1.0141561,6.22874991 C0.351074888,5.54904713 0.345121184,4.45313414 1.00085813,3.78095974 C1.65659507,3.10878533 2.72570842,3.11488829 3.38878961,3.79459107 L7.04119182,7.53854863 C7.69407179,8.20779444 7.69993391,9.2868472 7.05428523,9.94868048 L5.84870205,11.1844842 L5.84372296,11.1793803 Z" id="Arrow"></path>
                            </g>
                            <g id="Logo" transform="translate(8.000000, 8.500000) scale(-1, 1) translate(-8.000000, -8.500000) translate(-0.000000, 0.000000)" fill="#FFFFFF" fill-rule="nonzero">
                                <path d="M13.7996028,11.0116907 L8.90421765,16.0297893 C8.23964805,16.7110177 7.16517005,16.7140953 6.50430396,16.0366631 C5.84343783,15.359231 5.8464401,14.2578189 6.51100969,13.5765904 L11.4063948,8.55849189 L6.48025833,3.50887112 C5.8156887,2.82764264 5.81268643,1.72623057 6.47355256,1.04879841 C7.13441868,0.371366262 8.20889665,0.374443772 8.87346625,1.05567225 L15.0202244,7.35651223 C15.6745699,8.02726028 15.677526,9.11172752 15.026827,9.77873767 L13.8118138,11.0242078 L13.7996028,11.0116907 Z M5.84372296,11.1793803 L3.39584608,13.6886185 C2.73276489,14.3683213 1.66365153,14.3744242 1.00791458,13.7022498 C0.35217764,13.0300754 0.358131355,11.9341624 1.02121255,11.2544597 L3.46908943,8.74522146 L1.0141561,6.22874991 C0.351074888,5.54904713 0.345121184,4.45313414 1.00085813,3.78095974 C1.65659507,3.10878533 2.72570842,3.11488829 3.38878961,3.79459107 L7.04119182,7.53854863 C7.69407179,8.20779444 7.69993391,9.2868472 7.05428523,9.94868048 L5.84870205,11.1844842 L5.84372296,11.1793803 Z" id="Arrow"></path>
                            </g>
                        </g>
                    </g>
                </g>
                <path d="M32.4549414,51 L31.136582,51 L31.136582,41.6176758 L27.7308203,41.6176758 L27.7308203,40.4311523 L35.8607031,40.4311523 L35.8607031,41.6176758 L32.4549414,41.6176758 L32.4549414,51 Z M39.2454883,51.1391602 C36.9969531,51.1391602 35.6053516,49.5864258 35.6053516,47.0522461 C35.6053516,44.5107422 36.9969531,42.965332 39.2454883,42.965332 C41.4940234,42.965332 42.885625,44.5107422 42.885625,47.0522461 C42.885625,49.5864258 41.4940234,51.1391602 39.2454883,51.1391602 Z M39.2454883,50.0039062 C40.7396289,50.0039062 41.5819141,48.9199219 41.5819141,47.0522461 C41.5819141,45.1772461 40.7396289,44.1005859 39.2454883,44.1005859 C37.7513477,44.1005859 36.9090625,45.1772461 36.9090625,47.0522461 C36.9090625,48.9199219 37.7513477,50.0039062 39.2454883,50.0039062 Z M47.5155273,51.1391602 C45.494043,51.1391602 44.1976562,49.5351562 44.1976562,47.0522461 C44.1976562,44.5766602 45.5086914,42.965332 47.5155273,42.965332 C48.6141602,42.965332 49.5443359,43.4853516 49.9911133,44.3496094 L50.1009766,44.3496094 L50.1009766,39.9697266 L51.3607422,39.9697266 L51.3607422,51 L50.1595703,51 L50.1595703,49.7402344 L50.0423828,49.7402344 C49.5443359,50.6191406 48.6068359,51.1391602 47.5155273,51.1391602 Z M47.8084961,44.1005859 C46.3729492,44.1005859 45.5013672,45.2138672 45.5013672,47.0522461 C45.5013672,48.8979492 46.365625,50.0039062 47.8084961,50.0039062 C49.244043,50.0039062 50.1302734,48.8759766 50.1302734,47.0522461 C50.1302734,45.2431641 49.2367187,44.1005859 47.8084961,44.1005859 Z M55.9686719,50.0332031 C57.2650586,50.0332031 58.2245312,49.1835938 58.2245312,48.0556641 L58.2245312,47.3305664 L56.1005078,47.4697266 C54.8993359,47.550293 54.3719922,47.9677734 54.3719922,48.7587891 C54.3719922,49.5644531 55.0531445,50.0332031 55.9686719,50.0332031 Z M55.7342969,51.1391602 C54.2035352,51.1391602 53.0682812,50.230957 53.0682812,48.7880859 C53.0682812,47.3745117 54.1083203,46.5615234 55.9466992,46.4516602 L58.2245312,46.3125 L58.2245312,45.5947266 C58.2245312,44.6206055 57.6166211,44.0859375 56.4374219,44.0859375 C55.4925977,44.0859375 54.833418,44.4448242 54.6576367,45.0673828 L53.3832227,45.0673828 C53.5516797,43.800293 54.7967969,42.965332 56.4813672,42.965332 C58.4076367,42.965332 59.4842969,43.9541016 59.4842969,45.5947266 L59.4842969,51 L58.283125,51 L58.283125,49.8354492 L58.1659375,49.8354492 C57.6532422,50.6777344 56.7889844,51.1391602 55.7342969,51.1391602 Z M61.9242578,53.8564453 C61.7558008,53.8564453 61.5360742,53.8417969 61.360293,53.8125 L61.360293,52.7358398 C61.5141016,52.7651367 61.7118555,52.7724609 61.8876367,52.7724609 C62.6127344,52.7724609 63.0082422,52.4282227 63.337832,51.4760742 L63.4843164,51.0073242 L60.5619531,43.1044922 L61.9242578,43.1044922 L64.0922266,49.6010742 L64.2094141,49.6010742 L66.3700586,43.1044922 L67.7103906,43.1044922 L64.6268945,51.4833984 C63.9530664,53.3144531 63.3231836,53.8564453 61.9242578,53.8564453 Z M68.824668,53.6879883 L67.8798437,53.6879883 L68.5756445,49.5205078 L69.9745703,49.5205078 L68.824668,53.6879883 Z M79.5419922,51.2416992 C77.7475586,51.2416992 76.4145508,50.1796875 76.0776367,48.4804688 L77.4326172,48.4804688 C77.7182617,49.4692383 78.5166016,50.0698242 79.5566406,50.0698242 C81.277832,50.0698242 82.2519531,48.5463867 82.3251953,45.7338867 L82.2080078,45.7338867 C81.6879883,46.7592773 80.6552734,47.3598633 79.3955078,47.3598633 C77.3813477,47.3598633 75.9238281,45.8730469 75.9238281,43.8222656 C75.9238281,41.6982422 77.4619141,40.1821289 79.6298828,40.1821289 C81.2119141,40.1821289 82.4350586,41.0244141 83.0942383,42.5844727 C83.4384766,43.3901367 83.6069336,44.3642578 83.6069336,45.5288086 C83.6069336,49.1616211 82.1274414,51.2416992 79.5419922,51.2416992 Z M79.6298828,46.2172852 C81.0288086,46.2172852 82.0322266,45.2211914 82.0322266,43.8222656 C82.0322266,42.4086914 80.9995117,41.3393555 79.6445312,41.3393555 C78.2895508,41.3393555 77.2568359,42.394043 77.2568359,43.7783203 C77.2568359,45.2211914 78.230957,46.2172852 79.6298828,46.2172852 Z M86.5009961,49.7915039 C85.9809766,49.7915039 85.5488477,49.359375 85.5488477,48.8393555 C85.5488477,48.3120117 85.9809766,47.887207 86.5009961,47.887207 C87.0283398,47.887207 87.4531445,48.3120117 87.4531445,48.8393555 C87.4531445,49.359375 87.0283398,49.7915039 86.5009961,49.7915039 Z M86.5009961,44.1591797 C85.9809766,44.1591797 85.5488477,43.7270508 85.5488477,43.2070312 C85.5488477,42.6796875 85.9809766,42.2548828 86.5009961,42.2548828 C87.0283398,42.2548828 87.4531445,42.6796875 87.4531445,43.2070312 C87.4531445,43.7270508 87.0283398,44.1591797 86.5009961,44.1591797 Z M92.1636133,51 L92.1636133,41.8959961 L92.0464258,41.8959961 L89.3584375,43.8442383 L89.3584375,42.4526367 L92.1709375,40.4311523 L93.4819727,40.4311523 L93.4819727,51 L92.1636133,51 Z M98.5220312,46.1293945 L98.5220312,45.0014648 L99.8037695,45.0014648 C101.004941,45.0014648 101.854551,44.2250977 101.854551,43.1264648 C101.854551,42.0498047 101.041562,41.3320312 99.8257422,41.3320312 C98.6099219,41.3320312 97.811582,42.0058594 97.7017187,43.1411133 L96.4199805,43.1411133 C96.5518164,41.3100586 97.8628516,40.1821289 99.8770117,40.1821289 C101.722715,40.1821289 103.194883,41.4125977 103.194883,42.9506836 C103.194883,44.2104492 102.499082,45.1333008 101.341855,45.4116211 L101.341855,45.5288086 C102.777402,45.7119141 103.648984,46.7080078 103.648984,48.1508789 C103.648984,49.894043 102.015684,51.2490234 99.9282812,51.2490234 C97.7822852,51.2490234 96.302793,50.0551758 96.2075781,48.2460938 L97.4819922,48.2460938 C97.5991797,49.3740234 98.5513281,50.0991211 99.9136328,50.0991211 C101.305234,50.0991211 102.294004,49.2714844 102.294004,48.1142578 C102.294004,46.8911133 101.363828,46.1293945 99.8623633,46.1293945 L98.5220312,46.1293945 Z M116.497656,51 L115.435645,47.9750977 L111.231543,47.9750977 L110.169531,51 L108.785254,51 L112.681738,40.4311523 L113.985449,40.4311523 L117.881934,51 L116.497656,51 Z M113.275,42.1376953 L111.619727,46.8544922 L115.047461,46.8544922 L113.392187,42.1376953 L113.275,42.1376953 Z M129.88,51 L128.649531,51 L128.649531,42.9287109 L128.561641,42.9287109 L125.229121,50.9267578 L124.11584,50.9267578 L120.78332,42.9287109 L120.69543,42.9287109 L120.69543,51 L119.464961,51 L119.464961,40.4311523 L120.995723,40.4311523 L124.613887,49.1762695 L124.731074,49.1762695 L128.349238,40.4311523 L129.88,40.4311523 L129.88,51 Z" id="Today,9:13AM" fill="#FFFFFF" fill-rule="nonzero" mask="url(#mask-3)"></path>
                <path d="M21.2691867,21.6064453 L18.8961398,30 L16.391257,30 L13.0338351,17.3173828 L15.7936007,17.3173828 L17.7711398,26.2558594 L17.9117648,26.2558594 L20.2232882,17.3173828 L22.4644992,17.3173828 L24.8199679,26.2558594 L24.9605929,26.2558594 L26.9205539,17.3173828 L29.6627414,17.3173828 L26.2965304,30 L23.8092257,30 L21.4098117,21.6064453 L21.2691867,21.6064453 Z M33.822007,28.2246094 C35.0085304,28.2246094 35.9050148,27.46875 35.9050148,26.484375 L35.9050148,25.7724609 L33.9450539,25.8955078 C32.8464211,25.9746094 32.3102882,26.3701172 32.3102882,27.0644531 C32.3102882,27.7851562 32.9343117,28.2246094 33.822007,28.2246094 Z M32.978257,30.1494141 C31.1149757,30.1494141 29.8054054,29.0068359 29.8054054,27.2314453 C29.8054054,25.4736328 31.150132,24.4541016 33.5583351,24.3134766 L35.9050148,24.1728516 L35.9050148,23.3818359 C35.9050148,22.5732422 35.3249367,22.1162109 34.2702492,22.1162109 C33.3473976,22.1162109 32.7321632,22.4326172 32.5212257,23.0126953 L30.165757,23.0126953 C30.3327492,21.2197266 31.9763039,20.0947266 34.4108742,20.0947266 C36.9772804,20.0947266 38.4274757,21.3076172 38.4274757,23.3818359 L38.4274757,30 L35.9489601,30 L35.9489601,28.734375 L35.790757,28.734375 C35.2897804,29.6220703 34.2350929,30.1494141 32.978257,30.1494141 Z M41.3826398,18.0029297 L43.940257,18.0029297 L43.940257,20.4023438 L45.9529523,20.4023438 L45.9529523,22.4150391 L43.940257,22.4150391 L43.940257,26.7744141 C43.940257,27.6181641 44.3269757,28.0048828 45.1970929,28.0048828 C45.5310773,28.0048828 45.7068586,27.9960938 45.9529523,27.9697266 L45.9529523,29.9208984 C45.6365461,29.9824219 45.1619367,30.0351562 44.6697492,30.0351562 C42.3142804,30.0351562 41.3826398,29.2705078 41.3826398,27.3808594 L41.3826398,22.4150391 L39.8709211,22.4150391 L39.8709211,20.4023438 L41.3826398,20.4023438 L41.3826398,18.0029297 Z M51.9139757,22.0546875 C50.7274523,22.0546875 49.8924914,22.8808594 49.8046007,24.1376953 L53.9354601,24.1376953 C53.8827257,22.8544922 53.1092882,22.0546875 51.9139757,22.0546875 Z M53.9881945,27.2402344 L56.3700304,27.2402344 C55.9833117,29.0683594 54.3133898,30.2109375 51.9403429,30.2109375 C48.9872179,30.2109375 47.2469836,28.3476562 47.2469836,25.2011719 C47.2469836,22.0458984 49.0223742,20.0947266 51.9051867,20.0947266 C54.761632,20.0947266 56.449132,21.9140625 56.449132,24.9902344 L56.449132,25.7724609 L49.7958117,25.7724609 L49.7958117,25.9042969 C49.8309679,27.3457031 50.6747179,28.2421875 52.0106554,28.2421875 C53.0213976,28.2421875 53.7157336,27.8818359 53.9881945,27.2402344 Z M58.2529289,30 L58.2529289,20.3056641 L60.7314445,20.3056641 L60.7314445,21.8525391 L60.8896476,21.8525391 C61.1445304,20.8857422 62.1464836,20.1474609 63.3769523,20.1474609 C63.7285148,20.1474609 64.1591789,20.1914062 64.3789054,20.2705078 L64.3789054,22.5996094 C64.176757,22.5205078 63.5791007,22.4414062 63.1660148,22.4414062 C61.7685539,22.4414062 60.8105461,23.2675781 60.8105461,24.6298828 L60.8105461,30 L58.2529289,30 Z M73.0577882,30 L70.4034914,30 L70.4034914,17.3173828 L78.7091554,17.3173828 L78.7091554,19.5849609 L73.0577882,19.5849609 L73.0577882,22.8896484 L78.2169679,22.8896484 L78.2169679,25.0605469 L73.0577882,25.0605469 L73.0577882,30 Z M84.9162726,30.2109375 C81.9367804,30.2109375 80.1438117,28.3212891 80.1438117,25.1484375 C80.1438117,22.0107422 81.9631476,20.0947266 84.9162726,20.0947266 C87.8693976,20.0947266 89.6887336,22.0019531 89.6887336,25.1484375 C89.6887336,28.3212891 87.8957648,30.2109375 84.9162726,30.2109375 Z M84.9162726,28.1191406 C86.2785773,28.1191406 87.0608039,27.0292969 87.0608039,25.1484375 C87.0608039,23.2851562 86.2697882,22.1865234 84.9162726,22.1865234 C83.5539679,22.1865234 82.7717414,23.2851562 82.7717414,25.1484375 C82.7717414,27.0380859 83.5451789,28.1191406 84.9162726,28.1191406 Z M100.255226,20.3056641 L100.255226,30 L97.7767101,30 L97.7767101,28.4443359 L97.618507,28.4443359 C97.1614757,29.5693359 96.2562023,30.2109375 94.7884289,30.2109375 C92.696632,30.2109375 91.3958507,28.875 91.3958507,26.625 L91.3958507,20.3056641 L93.9534679,20.3056641 L93.9534679,25.9658203 C93.9534679,27.3017578 94.5599132,27.9873047 95.7376476,27.9873047 C97.0120617,27.9873047 97.6976086,27.1875 97.6976086,25.8955078 L97.6976086,20.3056641 L100.255226,20.3056641 Z M102.533632,30 L102.533632,20.3056641 L105.012148,20.3056641 L105.012148,21.8613281 L105.170351,21.8613281 C105.618593,20.7714844 106.602968,20.0947266 108.035585,20.0947266 C110.188905,20.0947266 111.349062,21.4130859 111.349062,23.7333984 L111.349062,30 L108.791444,30 L108.791444,24.3398438 C108.791444,23.0039062 108.220155,22.3007812 107.007265,22.3007812 C105.820741,22.3007812 105.091249,23.1357422 105.091249,24.4101562 L105.091249,30 L102.533632,30 Z M114.269069,18.0029297 L116.826687,18.0029297 L116.826687,20.4023438 L118.839382,20.4023438 L118.839382,22.4150391 L116.826687,22.4150391 L116.826687,26.7744141 C116.826687,27.6181641 117.213405,28.0048828 118.083523,28.0048828 C118.417507,28.0048828 118.593288,27.9960938 118.839382,27.9697266 L118.839382,29.9208984 C118.522976,29.9824219 118.048366,30.0351562 117.556179,30.0351562 C115.20071,30.0351562 114.269069,29.2705078 114.269069,27.3808594 L114.269069,22.4150391 L112.757351,22.4150391 L112.757351,20.4023438 L114.269069,20.4023438 L114.269069,18.0029297 Z M124.176382,28.2246094 C125.362905,28.2246094 126.25939,27.46875 126.25939,26.484375 L126.25939,25.7724609 L124.299429,25.8955078 C123.200796,25.9746094 122.664663,26.3701172 122.664663,27.0644531 C122.664663,27.7851562 123.288687,28.2246094 124.176382,28.2246094 Z M123.332632,30.1494141 C121.469351,30.1494141 120.15978,29.0068359 120.15978,27.2314453 C120.15978,25.4736328 121.504507,24.4541016 123.91271,24.3134766 L126.25939,24.1728516 L126.25939,23.3818359 C126.25939,22.5732422 125.679312,22.1162109 124.624624,22.1162109 C123.701773,22.1162109 123.086538,22.4326172 122.875601,23.0126953 L120.520132,23.0126953 C120.687124,21.2197266 122.330679,20.0947266 124.765249,20.0947266 C127.331655,20.0947266 128.781851,21.3076172 128.781851,23.3818359 L128.781851,30 L126.303335,30 L126.303335,28.734375 L126.145132,28.734375 C125.644155,29.6220703 124.589468,30.1494141 123.332632,30.1494141 Z M131.025101,30 L131.025101,20.3056641 L133.582718,20.3056641 L133.582718,30 L131.025101,30 Z M132.308304,18.9521484 C131.385452,18.9521484 130.796585,18.4160156 130.796585,17.6601562 C130.796585,16.8955078 131.385452,16.3681641 132.308304,16.3681641 C133.222366,16.3681641 133.820023,16.8955078 133.820023,17.6601562 C133.820023,18.4160156 133.222366,18.9521484 132.308304,18.9521484 Z M135.878702,30 L135.878702,20.3056641 L138.357218,20.3056641 L138.357218,21.8613281 L138.515421,21.8613281 C138.963663,20.7714844 139.948038,20.0947266 141.380655,20.0947266 C143.533976,20.0947266 144.694132,21.4130859 144.694132,23.7333984 L144.694132,30 L142.136515,30 L142.136515,24.3398438 C142.136515,23.0039062 141.565226,22.3007812 140.352335,22.3007812 C139.165812,22.3007812 138.436319,23.1357422 138.436319,24.4101562 L138.436319,30 L135.878702,30 Z" id="WaterFountain" fill="#FFFFFF" fill-rule="nonzero" mask="url(#mask-3)"></path>
            </g>
        </g>
    </g>
</svg>