<?xml version="1.0" encoding="UTF-8"?>
<svg width="170px" height="112px" viewBox="0 0 170 112" version="1.1" xmlns="http://www.w3.org/2000/svg" xmlns:xlink="http://www.w3.org/1999/xlink">
    <!-- Generator: Sketch 53.2 (72643) - https://sketchapp.com -->
    <title>Tile 5</title>
    <desc>Created with Sketch.</desc>
    <defs>
        <radialGradient cx="43.1717415%" cy="65.5804697%" fx="43.1717415%" fy="65.5804697%" r="159.288086%" gradientTransform="translate(0.431717,0.655805),scale(0.605096,1.000000),rotate(-147.385442),translate(-0.431717,-0.655805)" id="radialGradient-1">
            <stop stop-color="#13BF9E" offset="0%"></stop>
            <stop stop-color="#00D99B" offset="100%"></stop>
        </radialGradient>
        <path d="M17.9471964,-7.25088215e-16 L139.052804,-1.05126862e-15 C145.293435,-2.19765397e-15 147.556438,0.649779278 149.83792,1.86992893 C152.119401,3.09007857 153.909921,4.88059859 155.130071,7.16208008 C156.350221,9.44356156 157,11.7065652 157,17.9471964 L157,77.0528036 C157,83.2934348 156.350221,85.5564384 155.130071,87.8379199 C153.909921,90.1194014 152.119401,91.9099214 149.83792,93.1300711 C147.556438,94.3502207 145.293435,95 139.052804,95 L17.9471964,95 C11.7065652,95 9.44356156,94.3502207 7.16208008,93.1300711 C4.88059859,91.9099214 3.09007857,90.1194014 1.86992893,87.8379199 C0.649779278,85.5564384 2.80864756e-16,83.2934348 -4.83392144e-16,77.0528036 L-1.2929647e-15,17.9471964 C-2.0572216e-15,11.7065652 0.649779278,9.44356156 1.86992893,7.16208008 C3.09007857,4.88059859 4.88059859,3.09007857 7.16208008,1.86992893 C9.44356156,0.649779278 11.7065652,4.21297134e-16 17.9471964,-7.25088215e-16 Z" id="path-2"></path>
        <filter x="-5.7%" y="-6.3%" width="111.5%" height="118.9%" filterUnits="objectBoundingBox" id="filter-4">
            <feOffset dx="0" dy="3" in="SourceAlpha" result="shadowOffsetOuter1"></feOffset>
            <feGaussianBlur stdDeviation="2.5" in="shadowOffsetOuter1" result="shadowBlurOuter1"></feGaussianBlur>
            <feColorMatrix values="0 0 0 0 0   0 0 0 0 0   0 0 0 0 0  0 0 0 0.1 0" type="matrix" in="shadowBlurOuter1"></feColorMatrix>
        </filter>
    </defs>
    <g id="iOS---1.2" stroke="none" stroke-width="1" fill="none" fill-rule="evenodd">
        <g id="Artboard" transform="translate(-761.000000, -31.000000)">
            <g id="Tile-5" transform="translate(845.878376, 83.543275) rotate(-3.000000) translate(-845.878376, -83.543275) translate(767.378376, 36.043275)">
                <mask id="mask-3" fill="white">
                    <use xlink:href="#path-2"></use>
                </mask>
                <g id="Rectangle-4">
                    <use fill="black" fill-opacity="1" filter="url(#filter-4)" xlink:href="#path-2"></use>
                    <use fill="url(#radialGradient-1)" fill-rule="evenodd" xlink:href="#path-2"></use>
                </g>
                <g id="Arrow(s)" mask="url(#mask-3)">
                    <g transform="translate(59.000000, 63.000000)" id="Two-arrows">
                        <g transform="translate(0.741022, 0.834717)">
                            <g id="Logo" transform="translate(22.022186, 0.152762)" fill="#FFFFFF" fill-rule="nonzero">
                                <path d="M13.7996028,11.0116907 L8.90421765,16.0297893 C8.23964805,16.7110177 7.16517005,16.7140953 6.50430396,16.0366631 C5.84343783,15.359231 5.8464401,14.2578189 6.51100969,13.5765904 L11.4063948,8.55849189 L6.48025833,3.50887112 C5.8156887,2.82764264 5.81268643,1.72623057 6.47355256,1.04879841 C7.13441868,0.371366262 8.20889665,0.374443772 8.87346625,1.05567225 L15.0202244,7.35651223 C15.6745699,8.02726028 15.677526,9.11172752 15.026827,9.77873767 L13.8118138,11.0242078 L13.7996028,11.0116907 Z M5.84372296,11.1793803 L3.39584608,13.6886185 C2.73276489,14.3683213 1.66365153,14.3744242 1.00791458,13.7022498 C0.35217764,13.0300754 0.358131355,11.9341624 1.02121255,11.2544597 L3.46908943,8.74522146 L1.0141561,6.22874991 C0.351074888,5.54904713 0.345121184,4.45313414 1.00085813,3.78095974 C1.65659507,3.10878533 2.72570842,3.11488829 3.38878961,3.79459107 L7.04119182,7.53854863 C7.69407179,8.20779444 7.69993391,9.2868472 7.05428523,9.94868048 L5.84870205,11.1844842 L5.84372296,11.1793803 Z" id="Arrow"></path>
                            </g>
                            <g id="Logo" transform="translate(8.000000, 8.500000) scale(-1, 1) translate(-8.000000, -8.500000) translate(-0.000000, 0.000000)" fill="#FFFFFF" fill-rule="nonzero">
                                <path d="M13.7996028,11.0116907 L8.90421765,16.0297893 C8.23964805,16.7110177 7.16517005,16.7140953 6.50430396,16.0366631 C5.84343783,15.359231 5.8464401,14.2578189 6.51100969,13.5765904 L11.4063948,8.55849189 L6.48025833,3.50887112 C5.8156887,2.82764264 5.81268643,1.72623057 6.47355256,1.04879841 C7.13441868,0.371366262 8.20889665,0.374443772 8.87346625,1.05567225 L15.0202244,7.35651223 C15.6745699,8.02726028 15.677526,9.11172752 15.026827,9.77873767 L13.8118138,11.0242078 L13.7996028,11.0116907 Z M5.84372296,11.1793803 L3.39584608,13.6886185 C2.73276489,14.3683213 1.66365153,14.3744242 1.00791458,13.7022498 C0.35217764,13.0300754 0.358131355,11.9341624 1.02121255,11.2544597 L3.46908943,8.74522146 L1.0141561,6.22874991 C0.351074888,5.54904713 0.345121184,4.45313414 1.00085813,3.78095974 C1.65659507,3.10878533 2.72570842,3.11488829 3.38878961,3.79459107 L7.04119182,7.53854863 C7.69407179,8.20779444 7.69993391,9.2868472 7.05428523,9.94868048 L5.84870205,11.1844842 L5.84372296,11.1793803 Z" id="Arrow"></path>
                            </g>
                        </g>
                    </g>
                </g>
                <path d="M16.2146582,51 L14.8962988,51 L14.8962988,46.4516602 L11.1462988,40.4311523 L12.6477637,40.4311523 L15.4968848,45.1259766 L15.6140723,45.1259766 L18.4631934,40.4311523 L19.9646582,40.4311523 L16.2146582,46.4516602 L16.2146582,51 Z M23.2981738,44.0786133 C22.0384082,44.0786133 21.159502,45.0014648 21.0642871,46.4003906 L25.414873,46.4003906 C25.3855762,45.0014648 24.5506152,44.0786133 23.2981738,44.0786133 Z M25.378252,48.956543 L26.6380176,48.956543 C26.2571582,50.3115234 25.0413379,51.1391602 23.3128223,51.1391602 C21.1228809,51.1391602 19.753252,49.5571289 19.753252,47.0595703 C19.753252,44.5766602 21.1448535,42.965332 23.3128223,42.965332 C25.4441699,42.965332 26.7405566,44.4814453 26.7405566,46.9350586 L26.7405566,47.418457 L21.0642871,47.418457 L21.0642871,47.4770508 C21.1302051,49.0371094 22.0017871,50.0258789 23.3421191,50.0258789 C24.3601855,50.0258789 25.0486621,49.6523438 25.378252,48.956543 Z M28.2649902,45.2651367 C28.2649902,43.9541016 29.5320801,42.965332 31.2093262,42.965332 C32.8645996,42.965332 34.014502,43.7856445 34.182959,45.0820312 L32.9378418,45.0820312 C32.7693848,44.4521484 32.1541504,44.034668 31.202002,44.034668 C30.264502,44.034668 29.5320801,44.5107422 29.5320801,45.2138672 C29.5320801,45.7558594 29.9715332,46.0927734 30.901709,46.3198242 L32.1175293,46.612793 C33.6043457,46.9716797 34.3221191,47.6162109 34.3221191,48.7514648 C34.3221191,50.1650391 32.9524902,51.1391602 31.1580566,51.1391602 C29.4002441,51.1391602 28.191748,50.296875 28.0525879,48.9858398 L29.3489746,48.9858398 C29.561377,49.6523438 30.1912598,50.0771484 31.202002,50.0771484 C32.2640137,50.0771484 33.0257324,49.5717773 33.0257324,48.8466797 C33.0257324,48.3046875 32.6155762,47.9384766 31.773291,47.7333984 L30.4183105,47.4038086 C28.9388184,47.0449219 28.2649902,46.4077148 28.2649902,45.2651367 Z M36.4837598,41.0610352 L37.7435254,41.0610352 L37.7435254,43.1044922 L39.5013379,43.1044922 L39.5013379,44.1591797 L37.7435254,44.1591797 L37.7435254,48.6269531 C37.7435254,49.5571289 38.0950879,49.9526367 38.9154004,49.9526367 C39.1424512,49.9526367 39.2669629,49.9453125 39.5013379,49.9233398 L39.5013379,50.9853516 C39.2523145,51.0292969 39.0106152,51.0585938 38.7615918,51.0585938 C37.1356152,51.0585938 36.4837598,50.4580078 36.4837598,48.9492188 L36.4837598,44.1591797 L35.2093457,44.1591797 L35.2093457,43.1044922 L36.4837598,43.1044922 L36.4837598,41.0610352 Z M44.1751855,44.0786133 C42.9154199,44.0786133 42.0365137,45.0014648 41.9412988,46.4003906 L46.2918848,46.4003906 C46.2625879,45.0014648 45.427627,44.0786133 44.1751855,44.0786133 Z M46.2552637,48.956543 L47.5150293,48.956543 C47.1341699,50.3115234 45.9183496,51.1391602 44.189834,51.1391602 C41.9998926,51.1391602 40.6302637,49.5571289 40.6302637,47.0595703 C40.6302637,44.5766602 42.0218652,42.965332 44.189834,42.965332 C46.3211816,42.965332 47.6175684,44.4814453 47.6175684,46.9350586 L47.6175684,47.418457 L41.9412988,47.418457 L41.9412988,47.4770508 C42.0072168,49.0371094 42.8787988,50.0258789 44.2191309,50.0258789 C45.2371973,50.0258789 45.9256738,49.6523438 46.2552637,48.956543 Z M49.3251074,51 L49.3251074,43.1044922 L50.5262793,43.1044922 L50.5262793,44.2763672 L50.6434668,44.2763672 C50.8778418,43.5073242 51.7860449,42.965332 52.8334082,42.965332 C53.0384863,42.965332 53.3021582,42.9799805 53.463291,43.0019531 L53.463291,44.2617188 C53.360752,44.2324219 52.9066504,44.1884766 52.657627,44.1884766 C51.4564551,44.1884766 50.584873,44.9941406 50.584873,46.1074219 L50.584873,51 L49.3251074,51 Z M57.4706348,51.1391602 C55.4491504,51.1391602 54.1527637,49.5351562 54.1527637,47.0522461 C54.1527637,44.5766602 55.4637988,42.965332 57.4706348,42.965332 C58.5692676,42.965332 59.4994434,43.4853516 59.9462207,44.3496094 L60.056084,44.3496094 L60.056084,39.9697266 L61.3158496,39.9697266 L61.3158496,51 L60.1146777,51 L60.1146777,49.7402344 L59.9974902,49.7402344 C59.4994434,50.6191406 58.5619434,51.1391602 57.4706348,51.1391602 Z M57.7636035,44.1005859 C56.3280566,44.1005859 55.4564746,45.2138672 55.4564746,47.0522461 C55.4564746,48.8979492 56.3207324,50.0039062 57.7636035,50.0039062 C59.1991504,50.0039062 60.0853809,48.8759766 60.0853809,47.0522461 C60.0853809,45.2431641 59.1918262,44.1005859 57.7636035,44.1005859 Z M65.9237793,50.0332031 C67.220166,50.0332031 68.1796387,49.1835938 68.1796387,48.0556641 L68.1796387,47.3305664 L66.0556152,47.4697266 C64.8544434,47.550293 64.3270996,47.9677734 64.3270996,48.7587891 C64.3270996,49.5644531 65.008252,50.0332031 65.9237793,50.0332031 Z M65.6894043,51.1391602 C64.1586426,51.1391602 63.0233887,50.230957 63.0233887,48.7880859 C63.0233887,47.3745117 64.0634277,46.5615234 65.9018066,46.4516602 L68.1796387,46.3125 L68.1796387,45.5947266 C68.1796387,44.6206055 67.5717285,44.0859375 66.3925293,44.0859375 C65.4477051,44.0859375 64.7885254,44.4448242 64.6127441,45.0673828 L63.3383301,45.0673828 C63.5067871,43.800293 64.7519043,42.965332 66.4364746,42.965332 C68.3627441,42.965332 69.4394043,43.9541016 69.4394043,45.5947266 L69.4394043,51 L68.2382324,51 L68.2382324,49.8354492 L68.1210449,49.8354492 C67.6083496,50.6777344 66.7440918,51.1391602 65.6894043,51.1391602 Z M71.8793652,53.8564453 C71.7109082,53.8564453 71.4911816,53.8417969 71.3154004,53.8125 L71.3154004,52.7358398 C71.469209,52.7651367 71.6669629,52.7724609 71.8427441,52.7724609 C72.5678418,52.7724609 72.9633496,52.4282227 73.2929395,51.4760742 L73.4394238,51.0073242 L70.5170605,43.1044922 L71.8793652,43.1044922 L74.047334,49.6010742 L74.1645215,49.6010742 L76.325166,43.1044922 L77.665498,43.1044922 L74.582002,51.4833984 C73.9081738,53.3144531 73.278291,53.8564453 71.8793652,53.8564453 Z M78.7797754,53.6879883 L77.8349512,53.6879883 L78.530752,49.5205078 L79.9296777,49.5205078 L78.7797754,53.6879883 Z M88.6474902,51 L88.6474902,41.8959961 L88.5303027,41.8959961 L85.8423145,43.8442383 L85.8423145,42.4526367 L88.6548145,40.4311523 L89.9658496,40.4311523 L89.9658496,51 L88.6474902,51 Z M95.3721191,51 L95.3721191,41.8959961 L95.2549316,41.8959961 L92.5669434,43.8442383 L92.5669434,42.4526367 L95.3794434,40.4311523 L96.6904785,40.4311523 L96.6904785,51 L95.3721191,51 Z M100.617256,49.7915039 C100.097236,49.7915039 99.6651074,49.359375 99.6651074,48.8393555 C99.6651074,48.3120117 100.097236,47.887207 100.617256,47.887207 C101.1446,47.887207 101.569404,48.3120117 101.569404,48.8393555 C101.569404,49.359375 101.1446,49.7915039 100.617256,49.7915039 Z M100.617256,44.1591797 C100.097236,44.1591797 99.6651074,43.7270508 99.6651074,43.2070312 C99.6651074,42.6796875 100.097236,42.2548828 100.617256,42.2548828 C101.1446,42.2548828 101.569404,42.6796875 101.569404,43.2070312 C101.569404,43.7270508 101.1446,44.1591797 100.617256,44.1591797 Z M103.760342,43.4047852 C103.760342,41.5297852 105.18124,40.1821289 107.144131,40.1821289 C109.041104,40.1821289 110.491299,41.4711914 110.491299,43.1484375 C110.491299,44.2470703 109.993252,45.1040039 108.257412,46.9643555 L105.715908,49.6962891 L105.715908,49.8134766 L110.66708,49.8134766 L110.66708,51 L103.82626,51 L103.82626,50.0917969 L107.481045,46.1000977 C108.84335,44.6206055 109.172939,44.0493164 109.172939,43.199707 C109.172939,42.1450195 108.272061,41.3320312 107.10751,41.3320312 C105.869717,41.3320312 105.034756,42.159668 105.034756,43.4047852 L105.034756,43.4121094 L103.760342,43.4121094 L103.760342,43.4047852 Z M116.35167,51.2416992 C114.762314,51.2416992 113.546494,50.3920898 112.887314,48.8393555 C112.543076,48.0336914 112.374619,47.0595703 112.374619,45.8950195 C112.374619,42.262207 113.854111,40.1821289 116.439561,40.1821289 C118.233994,40.1821289 119.567002,41.2441406 119.903916,42.9433594 L118.548936,42.9433594 C118.263291,41.9545898 117.464951,41.3540039 116.424912,41.3540039 C114.703721,41.3540039 113.7296,42.8774414 113.656357,45.6899414 L113.773545,45.6899414 C114.293564,44.6645508 115.326279,44.0639648 116.586045,44.0639648 C118.600205,44.0639648 120.057725,45.5507812 120.057725,47.6015625 C120.057725,49.7255859 118.519639,51.2416992 116.35167,51.2416992 Z M116.337021,50.0844727 C117.692002,50.0844727 118.724717,49.0297852 118.724717,47.6455078 C118.724717,46.2026367 117.750596,45.206543 116.35167,45.206543 C114.952744,45.206543 113.949326,46.2026367 113.949326,47.6015625 C113.949326,49.0151367 114.982041,50.0844727 116.337021,50.0844727 Z M132.906396,51 L131.844385,47.9750977 L127.640283,47.9750977 L126.578271,51 L125.193994,51 L129.090479,40.4311523 L130.394189,40.4311523 L134.290674,51 L132.906396,51 Z M129.68374,42.1376953 L128.028467,46.8544922 L131.456201,46.8544922 L129.800928,42.1376953 L129.68374,42.1376953 Z M146.28874,51 L145.058271,51 L145.058271,42.9287109 L144.970381,42.9287109 L141.637861,50.9267578 L140.52458,50.9267578 L137.192061,42.9287109 L137.10417,42.9287109 L137.10417,51 L135.873701,51 L135.873701,40.4311523 L137.404463,40.4311523 L141.022627,49.1762695 L141.139814,49.1762695 L144.757979,40.4311523 L146.28874,40.4311523 L146.28874,51 Z" id="Yesterday,11:26AM" fill="#FFFFFF" fill-rule="nonzero" mask="url(#mask-3)"></path>
                <path d="M71.4835265,24.8232422 C71.4835265,28.2158203 69.3214171,30.3251953 65.8585265,30.3251953 C62.0880187,30.3251953 59.7764953,27.7939453 59.7764953,23.6455078 C59.7764953,19.5585938 62.1055968,16.9921875 65.7970031,16.9921875 C68.7940734,16.9921875 71.0001281,18.7236328 71.3692687,21.3603516 L68.73255,21.3603516 C68.3370421,20.0771484 67.2735656,19.3300781 65.7970031,19.3300781 C63.7491515,19.3300781 62.4923156,20.9560547 62.4923156,23.6191406 C62.4923156,26.3349609 63.810675,27.9873047 65.9024718,27.9873047 C67.6427062,27.9873047 68.8468078,26.9589844 68.8995421,25.4296875 L68.9083312,25.2011719 L66.1573546,25.2011719 L66.1573546,23.2060547 L71.4835265,23.2060547 L71.4835265,24.8232422 Z M74.6847843,33.5244141 C74.5881046,33.5244141 73.8146671,33.515625 73.7091984,33.4980469 L73.7091984,31.4414062 C73.797089,31.4589844 74.1838078,31.4589844 74.2892765,31.4589844 C75.2472843,31.4589844 75.7922062,31.1513672 76.0031437,30.4130859 L76.0910343,30.0615234 L72.6896671,20.3056641 L75.5109562,20.3056641 L77.5500187,27.6533203 L77.7082218,27.6533203 L79.7472843,20.3056641 L82.4543156,20.3056641 L79.1144718,30.1494141 C78.2883,32.6455078 77.1017765,33.5244141 74.6847843,33.5244141 Z M83.9417062,30 L83.9417062,20.3056641 L86.4202218,20.3056641 L86.4202218,21.8876953 L86.578425,21.8876953 C86.9739328,20.7802734 87.984675,20.0947266 89.259089,20.0947266 C90.6213937,20.0947266 91.5530343,20.7626953 91.9397531,21.8876953 L92.0979562,21.8876953 C92.5461984,20.8066406 93.6624093,20.0947266 95.015925,20.0947266 C96.9495187,20.0947266 98.1536203,21.3515625 98.1536203,23.3466797 L98.1536203,30 L95.5960031,30 L95.5960031,24.0234375 C95.5960031,22.8720703 95.0598703,22.3007812 93.9788156,22.3007812 C92.9417062,22.3007812 92.2737375,23.0390625 92.2737375,24.0673828 L92.2737375,30 L89.8128,30 L89.8128,23.9179688 C89.8128,22.8896484 89.2151437,22.3007812 88.2131906,22.3007812 C87.2112375,22.3007812 86.4993234,23.0830078 86.4993234,24.1640625 L86.4993234,30 L83.9417062,30 Z" id="Gym" fill="#FFFFFF" fill-rule="nonzero" mask="url(#mask-3)"></path>
            </g>
        </g>
    </g>
</svg>