<?xml version="1.0" encoding="UTF-8"?>
<svg width="171px" height="111px" viewBox="0 0 171 111" version="1.1" xmlns="http://www.w3.org/2000/svg" xmlns:xlink="http://www.w3.org/1999/xlink">
    <!-- Generator: Sketch 53.2 (72643) - https://sketchapp.com -->
    <title>Tile 4</title>
    <desc>Created with Sketch.</desc>
    <defs>
        <radialGradient cx="80.4347072%" cy="76.8940563%" fx="80.4347072%" fy="76.8940563%" r="220.072583%" gradientTransform="translate(0.804347,0.768941),scale(0.605096,1.000000),rotate(-140.389668),translate(-0.804347,-0.768941)" id="radialGradient-1">
            <stop stop-color="#A503E3" offset="0%"></stop>
            <stop stop-color="#CF39C7" offset="100%"></stop>
        </radialGradient>
        <path d="M17.9471964,-7.25088215e-16 L139.052804,-1.05126862e-15 C145.293435,-2.19765397e-15 147.556438,0.649779278 149.83792,1.86992893 C152.119401,3.09007857 153.909921,4.88059859 155.130071,7.16208008 C156.350221,9.44356156 157,11.7065652 157,17.9471964 L157,77.0528036 C157,83.2934348 156.350221,85.5564384 155.130071,87.8379199 C153.909921,90.1194014 152.119401,91.9099214 149.83792,93.1300711 C147.556438,94.3502207 145.293435,95 139.052804,95 L17.9471964,95 C11.7065652,95 9.44356156,94.3502207 7.16208008,93.1300711 C4.88059859,91.9099214 3.09007857,90.1194014 1.86992893,87.8379199 C0.649779278,85.5564384 2.80864756e-16,83.2934348 -4.83392144e-16,77.0528036 L-1.2929647e-15,17.9471964 C-2.0572216e-15,11.7065652 0.649779278,9.44356156 1.86992893,7.16208008 C3.09007857,4.88059859 4.88059859,3.09007857 7.16208008,1.86992893 C9.44356156,0.649779278 11.7065652,4.21297134e-16 17.9471964,-7.25088215e-16 Z" id="path-2"></path>
        <filter x="-5.7%" y="-6.3%" width="111.5%" height="118.9%" filterUnits="objectBoundingBox" id="filter-4">
            <feOffset dx="0" dy="3" in="SourceAlpha" result="shadowOffsetOuter1"></feOffset>
            <feGaussianBlur stdDeviation="2.5" in="shadowOffsetOuter1" result="shadowBlurOuter1"></feGaussianBlur>
            <feColorMatrix values="0 0 0 0 0   0 0 0 0 0   0 0 0 0 0  0 0 0 0.1 0" type="matrix" in="shadowBlurOuter1"></feColorMatrix>
        </filter>
    </defs>
    <g id="iOS---1.2" stroke="none" stroke-width="1" fill="none" fill-rule="evenodd">
        <g id="Artboard" transform="translate(-582.000000, -31.000000)">
            <g id="Tile-4" transform="translate(667.878376, 83.543275) rotate(3.000000) translate(-667.878376, -83.543275) translate(589.378376, 36.043275)">
                <mask id="mask-3" fill="white">
                    <use xlink:href="#path-2"></use>
                </mask>
                <g id="Rectangle-4">
                    <use fill="black" fill-opacity="1" filter="url(#filter-4)" xlink:href="#path-2"></use>
                    <use fill="url(#radialGradient-1)" fill-rule="evenodd" xlink:href="#path-2"></use>
                </g>
                <g id="Arrow(s)" mask="url(#mask-3)">
                    <g transform="translate(58.666920, 63.966421)" id="One-arrow">
                        <g transform="translate(12.825141, 0.517682)">
                            <path d="M13.7996028,11.0116907 L8.90421765,16.0297893 C8.23964805,16.7110177 7.16517005,16.7140953 6.50430396,16.0366631 C5.84343783,15.359231 5.8464401,14.2578189 6.51100969,13.5765904 L11.4063948,8.55849189 L6.48025833,3.50887112 C5.8156887,2.82764264 5.81268643,1.72623057 6.47355256,1.04879841 C7.13441868,0.371366262 8.20889665,0.374443772 8.87346625,1.05567225 L15.0202244,7.35651223 C15.6745699,8.02726028 15.677526,9.11172752 15.026827,9.77873767 L13.8118138,11.0242078 L13.7996028,11.0116907 Z M5.84372296,11.1793803 L3.39584608,13.6886185 C2.73276489,14.3683213 1.66365153,14.3744242 1.00791458,13.7022498 C0.35217764,13.0300754 0.358131355,11.9341624 1.02121255,11.2544597 L3.46908943,8.74522146 L1.0141561,6.22874991 C0.351074888,5.54904713 0.345121184,4.45313414 1.00085813,3.78095974 C1.65659507,3.10878533 2.72570842,3.11488829 3.38878961,3.79459107 L7.04119182,7.53854863 C7.69407179,8.20779444 7.69993391,9.2868472 7.05428523,9.94868048 L5.84870205,11.1844842 L5.84372296,11.1793803 Z" id="Arrow" fill="#FFFFFF" fill-rule="nonzero"></path>
                        </g>
                    </g>
                </g>
                <path d="M28.4041504,51 L27.085791,51 L27.085791,41.6176758 L23.6800293,41.6176758 L23.6800293,40.4311523 L31.8099121,40.4311523 L31.8099121,41.6176758 L28.4041504,41.6176758 L28.4041504,51 Z M35.1946973,51.1391602 C32.9461621,51.1391602 31.5545605,49.5864258 31.5545605,47.0522461 C31.5545605,44.5107422 32.9461621,42.965332 35.1946973,42.965332 C37.4432324,42.965332 38.834834,44.5107422 38.834834,47.0522461 C38.834834,49.5864258 37.4432324,51.1391602 35.1946973,51.1391602 Z M35.1946973,50.0039062 C36.6888379,50.0039062 37.531123,48.9199219 37.531123,47.0522461 C37.531123,45.1772461 36.6888379,44.1005859 35.1946973,44.1005859 C33.7005566,44.1005859 32.8582715,45.1772461 32.8582715,47.0522461 C32.8582715,48.9199219 33.7005566,50.0039062 35.1946973,50.0039062 Z M43.4647363,51.1391602 C41.443252,51.1391602 40.1468652,49.5351562 40.1468652,47.0522461 C40.1468652,44.5766602 41.4579004,42.965332 43.4647363,42.965332 C44.5633691,42.965332 45.4935449,43.4853516 45.9403223,44.3496094 L46.0501855,44.3496094 L46.0501855,39.9697266 L47.3099512,39.9697266 L47.3099512,51 L46.1087793,51 L46.1087793,49.7402344 L45.9915918,49.7402344 C45.4935449,50.6191406 44.5560449,51.1391602 43.4647363,51.1391602 Z M43.7577051,44.1005859 C42.3221582,44.1005859 41.4505762,45.2138672 41.4505762,47.0522461 C41.4505762,48.8979492 42.314834,50.0039062 43.7577051,50.0039062 C45.193252,50.0039062 46.0794824,48.8759766 46.0794824,47.0522461 C46.0794824,45.2431641 45.1859277,44.1005859 43.7577051,44.1005859 Z M51.9178809,50.0332031 C53.2142676,50.0332031 54.1737402,49.1835938 54.1737402,48.0556641 L54.1737402,47.3305664 L52.0497168,47.4697266 C50.8485449,47.550293 50.3212012,47.9677734 50.3212012,48.7587891 C50.3212012,49.5644531 51.0023535,50.0332031 51.9178809,50.0332031 Z M51.6835059,51.1391602 C50.1527441,51.1391602 49.0174902,50.230957 49.0174902,48.7880859 C49.0174902,47.3745117 50.0575293,46.5615234 51.8959082,46.4516602 L54.1737402,46.3125 L54.1737402,45.5947266 C54.1737402,44.6206055 53.5658301,44.0859375 52.3866309,44.0859375 C51.4418066,44.0859375 50.782627,44.4448242 50.6068457,45.0673828 L49.3324316,45.0673828 C49.5008887,43.800293 50.7460059,42.965332 52.4305762,42.965332 C54.3568457,42.965332 55.4335059,43.9541016 55.4335059,45.5947266 L55.4335059,51 L54.232334,51 L54.232334,49.8354492 L54.1151465,49.8354492 C53.6024512,50.6777344 52.7381934,51.1391602 51.6835059,51.1391602 Z M57.8734668,53.8564453 C57.7050098,53.8564453 57.4852832,53.8417969 57.309502,53.8125 L57.309502,52.7358398 C57.4633105,52.7651367 57.6610645,52.7724609 57.8368457,52.7724609 C58.5619434,52.7724609 58.9574512,52.4282227 59.287041,51.4760742 L59.4335254,51.0073242 L56.5111621,43.1044922 L57.8734668,43.1044922 L60.0414355,49.6010742 L60.158623,49.6010742 L62.3192676,43.1044922 L63.6595996,43.1044922 L60.5761035,51.4833984 C59.9022754,53.3144531 59.2723926,53.8564453 57.8734668,53.8564453 Z M64.773877,53.6879883 L63.8290527,53.6879883 L64.5248535,49.5205078 L65.9237793,49.5205078 L64.773877,53.6879883 Z M74.6415918,51 L74.6415918,41.8959961 L74.5244043,41.8959961 L71.836416,43.8442383 L71.836416,42.4526367 L74.648916,40.4311523 L75.9599512,40.4311523 L75.9599512,51 L74.6415918,51 Z M78.7734473,43.4047852 C78.7734473,41.5297852 80.1943457,40.1821289 82.1572363,40.1821289 C84.054209,40.1821289 85.5044043,41.4711914 85.5044043,43.1484375 C85.5044043,44.2470703 85.0063574,45.1040039 83.2705176,46.9643555 L80.7290137,49.6962891 L80.7290137,49.8134766 L85.6801855,49.8134766 L85.6801855,51 L78.8393652,51 L78.8393652,50.0917969 L82.4941504,46.1000977 C83.8564551,44.6206055 84.1860449,44.0493164 84.1860449,43.199707 C84.1860449,42.1450195 83.285166,41.3320312 82.1206152,41.3320312 C80.8828223,41.3320312 80.0478613,42.159668 80.0478613,43.4047852 L80.0478613,43.4121094 L78.7734473,43.4121094 L78.7734473,43.4047852 Z M88.6767871,49.7915039 C88.1567676,49.7915039 87.7246387,49.359375 87.7246387,48.8393555 C87.7246387,48.3120117 88.1567676,47.887207 88.6767871,47.887207 C89.2041309,47.887207 89.6289355,48.3120117 89.6289355,48.8393555 C89.6289355,49.359375 89.2041309,49.7915039 88.6767871,49.7915039 Z M88.6767871,44.1591797 C88.1567676,44.1591797 87.7246387,43.7270508 87.7246387,43.2070312 C87.7246387,42.6796875 88.1567676,42.2548828 88.6767871,42.2548828 C89.2041309,42.2548828 89.6289355,42.6796875 89.6289355,43.2070312 C89.6289355,43.7270508 89.2041309,44.1591797 88.6767871,44.1591797 Z M95.3647949,51.2490234 C92.9844238,51.2490234 91.6147949,49.2275391 91.6147949,45.7119141 C91.6147949,42.2255859 92.9990723,40.1821289 95.3647949,40.1821289 C97.7158691,40.1821289 99.1001465,42.2329102 99.1001465,45.7338867 C99.1001465,49.2421875 97.7378418,51.2490234 95.3647949,51.2490234 Z M95.3647949,50.0991211 C96.9248535,50.0991211 97.7744629,48.5463867 97.7744629,45.7119141 C97.7744629,42.9067383 96.9102051,41.3393555 95.3647949,41.3393555 C93.8193848,41.3393555 92.9404785,42.9213867 92.9404785,45.7119141 C92.9404785,48.5390625 93.8047363,50.0991211 95.3647949,50.0991211 Z M103.151436,46.1293945 L103.151436,45.0014648 L104.433174,45.0014648 C105.634346,45.0014648 106.483955,44.2250977 106.483955,43.1264648 C106.483955,42.0498047 105.670967,41.3320312 104.455146,41.3320312 C103.239326,41.3320312 102.440986,42.0058594 102.331123,43.1411133 L101.049385,43.1411133 C101.181221,41.3100586 102.492256,40.1821289 104.506416,40.1821289 C106.352119,40.1821289 107.824287,41.4125977 107.824287,42.9506836 C107.824287,44.2104492 107.128486,45.1333008 105.97126,45.4116211 L105.97126,45.5288086 C107.406807,45.7119141 108.278389,46.7080078 108.278389,48.1508789 C108.278389,49.894043 106.645088,51.2490234 104.557686,51.2490234 C102.411689,51.2490234 100.932197,50.0551758 100.836982,48.2460938 L102.111396,48.2460938 C102.228584,49.3740234 103.180732,50.0991211 104.543037,50.0991211 C105.934639,50.0991211 106.923408,49.2714844 106.923408,48.1142578 C106.923408,46.8911133 105.993232,46.1293945 104.491768,46.1293945 L103.151436,46.1293945 Z M114.256943,40.4311523 L118.248643,40.4311523 C120.248154,40.4311523 121.632432,41.8374023 121.632432,43.8515625 C121.632432,45.8291016 120.218857,47.2280273 118.233994,47.2280273 L115.575303,47.2280273 L115.575303,51 L114.256943,51 L114.256943,40.4311523 Z M115.575303,41.6030273 L115.575303,46.0561523 L117.904404,46.0561523 C119.405869,46.0561523 120.277451,45.2504883 120.277451,43.8515625 C120.277451,42.4013672 119.435166,41.6030273 117.904404,41.6030273 L115.575303,41.6030273 Z M133.930791,51 L132.700322,51 L132.700322,42.9287109 L132.612432,42.9287109 L129.279912,50.9267578 L128.166631,50.9267578 L124.834111,42.9287109 L124.746221,42.9287109 L124.746221,51 L123.515752,51 L123.515752,40.4311523 L125.046514,40.4311523 L128.664678,49.1762695 L128.781865,49.1762695 L132.400029,40.4311523 L133.930791,40.4311523 L133.930791,51 Z" id="Today,12:03PM" fill="#FFFFFF" fill-rule="nonzero" mask="url(#mask-3)"></path>
                <path d="M56.8345148,30 L54.2944757,30 L54.2944757,17.3173828 L56.5093195,17.3173828 L62.345257,25.21875 L62.5034601,25.21875 L62.5034601,17.3173828 L65.0434992,17.3173828 L65.0434992,30 L62.8462336,30 L56.9927179,22.0634766 L56.8345148,22.0634766 L56.8345148,30 Z M76.3482726,20.3056641 L76.3482726,30 L73.869757,30 L73.869757,28.4443359 L73.7115539,28.4443359 C73.2545226,29.5693359 72.3492492,30.2109375 70.8814757,30.2109375 C68.7896789,30.2109375 67.4888976,28.875 67.4888976,26.625 L67.4888976,20.3056641 L70.0465148,20.3056641 L70.0465148,25.9658203 C70.0465148,27.3017578 70.6529601,27.9873047 71.8306945,27.9873047 C73.1051086,27.9873047 73.7906554,27.1875 73.7906554,25.8955078 L73.7906554,20.3056641 L76.3482726,20.3056641 Z M78.6266789,30 L78.6266789,20.3056641 L81.1051945,20.3056641 L81.1051945,21.8525391 L81.2633976,21.8525391 C81.5182804,20.8857422 82.5202336,20.1474609 83.7507023,20.1474609 C84.1022648,20.1474609 84.5329289,20.1914062 84.7526554,20.2705078 L84.7526554,22.5996094 C84.550507,22.5205078 83.9528507,22.4414062 83.5397648,22.4414062 C82.1423039,22.4414062 81.1842961,23.2675781 81.1842961,24.6298828 L81.1842961,30 L78.6266789,30 Z M85.7302804,23.1533203 C85.7302804,21.3164062 87.3474679,20.0947266 89.7644601,20.0947266 C92.2253976,20.0947266 93.6755929,21.1230469 93.8162179,22.9775391 L91.4519601,22.9775391 C91.3201242,22.3535156 90.731257,21.9667969 89.7820382,21.9667969 C88.8679757,21.9667969 88.1912179,22.3798828 88.1912179,22.9951172 C88.1912179,23.4697266 88.6043039,23.7597656 89.5007882,23.9619141 L91.3201242,24.3574219 C93.2009836,24.7705078 94.0447336,25.5615234 94.0447336,27.0117188 C94.0447336,28.9453125 92.3132882,30.2109375 89.7732492,30.2109375 C87.215632,30.2109375 85.668757,29.1650391 85.4929757,27.3017578 L87.9890695,27.3017578 C88.1824289,27.9609375 88.8064523,28.3388672 89.8259836,28.3388672 C90.8191476,28.3388672 91.5046945,27.9257812 91.5046945,27.3017578 C91.5046945,26.8271484 91.1355539,26.5371094 90.2830148,26.3525391 L88.5252023,25.9570312 C86.6443429,25.5439453 85.7302804,24.6474609 85.7302804,23.1533203 Z M100.049702,22.0546875 C98.8631789,22.0546875 98.0282179,22.8808594 97.9403273,24.1376953 L102.071187,24.1376953 C102.018452,22.8544922 101.245015,22.0546875 100.049702,22.0546875 Z M102.123921,27.2402344 L104.505757,27.2402344 C104.119038,29.0683594 102.449116,30.2109375 100.076069,30.2109375 C97.1229445,30.2109375 95.3827101,28.3476562 95.3827101,25.2011719 C95.3827101,22.0458984 97.1581007,20.0947266 100.040913,20.0947266 C102.897359,20.0947266 104.584859,21.9140625 104.584859,24.9902344 L104.584859,25.7724609 L97.9315382,25.7724609 L97.9315382,25.9042969 C97.9666945,27.3457031 98.8104445,28.2421875 100.146382,28.2421875 C101.157124,28.2421875 101.85146,27.8818359 102.123921,27.2402344 Z" id="Nurse" fill="#FFFFFF" fill-rule="nonzero" mask="url(#mask-3)"></path>
            </g>
        </g>
    </g>
</svg>