<?xml version="1.0" encoding="UTF-8"?>
<svg width="170px" height="112px" viewBox="0 0 170 112" version="1.1" xmlns="http://www.w3.org/2000/svg" xmlns:xlink="http://www.w3.org/1999/xlink">
    <!-- Generator: Sketch 53.2 (72643) - https://sketchapp.com -->
    <title>Tile 3</title>
    <desc>Created with Sketch.</desc>
    <defs>
        <radialGradient cx="80.4347072%" cy="76.8940563%" fx="80.4347072%" fy="76.8940563%" r="178.514538%" gradientTransform="translate(0.804347,0.768941),scale(0.605096,1.000000),rotate(-138.883164),translate(-0.804347,-0.768941)" id="radialGradient-1">
            <stop stop-color="#5C4AE3" offset="0%"></stop>
            <stop stop-color="#4B59E5" offset="50.7587858%"></stop>
            <stop stop-color="#336DE4" offset="100%"></stop>
        </radialGradient>
        <path d="M17.9471964,-7.25088215e-16 L139.052804,-1.05126862e-15 C145.293435,-2.19765397e-15 147.556438,0.649779278 149.83792,1.86992893 C152.119401,3.09007857 153.909921,4.88059859 155.130071,7.16208008 C156.350221,9.44356156 157,11.7065652 157,17.9471964 L157,77.0528036 C157,83.2934348 156.350221,85.5564384 155.130071,87.8379199 C153.909921,90.1194014 152.119401,91.9099214 149.83792,93.1300711 C147.556438,94.3502207 145.293435,95 139.052804,95 L17.9471964,95 C11.7065652,95 9.44356156,94.3502207 7.16208008,93.1300711 C4.88059859,91.9099214 3.09007857,90.1194014 1.86992893,87.8379199 C0.649779278,85.5564384 2.80864756e-16,83.2934348 -4.83392144e-16,77.0528036 L-1.2929647e-15,17.9471964 C-2.0572216e-15,11.7065652 0.649779278,9.44356156 1.86992893,7.16208008 C3.09007857,4.88059859 4.88059859,3.09007857 7.16208008,1.86992893 C9.44356156,0.649779278 11.7065652,4.21297134e-16 17.9471964,-7.25088215e-16 Z" id="path-2"></path>
        <filter x="-5.7%" y="-6.3%" width="111.5%" height="118.9%" filterUnits="objectBoundingBox" id="filter-4">
            <feOffset dx="0" dy="3" in="SourceAlpha" result="shadowOffsetOuter1"></feOffset>
            <feGaussianBlur stdDeviation="2.5" in="shadowOffsetOuter1" result="shadowBlurOuter1"></feGaussianBlur>
            <feColorMatrix values="0 0 0 0 0   0 0 0 0 0   0 0 0 0 0  0 0 0 0.1 0" type="matrix" in="shadowBlurOuter1"></feColorMatrix>
        </filter>
    </defs>
    <g id="iOS---1.2" stroke="none" stroke-width="1" fill="none" fill-rule="evenodd">
        <g id="Artboard" transform="translate(-405.000000, -31.000000)">
            <g id="Tile-3" transform="translate(489.878376, 83.543275) rotate(-3.000000) translate(-489.878376, -83.543275) translate(411.378376, 36.043275)">
                <mask id="mask-3" fill="white">
                    <use xlink:href="#path-2"></use>
                </mask>
                <g id="Rectangle-4">
                    <use fill="black" fill-opacity="1" filter="url(#filter-4)" xlink:href="#path-2"></use>
                    <use fill="url(#radialGradient-1)" fill-rule="evenodd" xlink:href="#path-2"></use>
                </g>
                <g id="Arrow(s)" mask="url(#mask-3)">
                    <g transform="translate(59.000000, 63.000000)" id="Two-arrows">
                        <g transform="translate(0.741022, 0.834717)">
                            <g id="Logo" transform="translate(22.022186, 0.152762)" fill="#FFFFFF" fill-rule="nonzero">
                                <path d="M13.7996028,11.0116907 L8.90421765,16.0297893 C8.23964805,16.7110177 7.16517005,16.7140953 6.50430396,16.0366631 C5.84343783,15.359231 5.8464401,14.2578189 6.51100969,13.5765904 L11.4063948,8.55849189 L6.48025833,3.50887112 C5.8156887,2.82764264 5.81268643,1.72623057 6.47355256,1.04879841 C7.13441868,0.371366262 8.20889665,0.374443772 8.87346625,1.05567225 L15.0202244,7.35651223 C15.6745699,8.02726028 15.677526,9.11172752 15.026827,9.77873767 L13.8118138,11.0242078 L13.7996028,11.0116907 Z M5.84372296,11.1793803 L3.39584608,13.6886185 C2.73276489,14.3683213 1.66365153,14.3744242 1.00791458,13.7022498 C0.35217764,13.0300754 0.358131355,11.9341624 1.02121255,11.2544597 L3.46908943,8.74522146 L1.0141561,6.22874991 C0.351074888,5.54904713 0.345121184,4.45313414 1.00085813,3.78095974 C1.65659507,3.10878533 2.72570842,3.11488829 3.38878961,3.79459107 L7.04119182,7.53854863 C7.69407179,8.20779444 7.69993391,9.2868472 7.05428523,9.94868048 L5.84870205,11.1844842 L5.84372296,11.1793803 Z" id="Arrow"></path>
                            </g>
                            <g id="Logo" transform="translate(8.000000, 8.500000) scale(-1, 1) translate(-8.000000, -8.500000) translate(-0.000000, 0.000000)" fill="#FFFFFF" fill-rule="nonzero">
                                <path d="M13.7996028,11.0116907 L8.90421765,16.0297893 C8.23964805,16.7110177 7.16517005,16.7140953 6.50430396,16.0366631 C5.84343783,15.359231 5.8464401,14.2578189 6.51100969,13.5765904 L11.4063948,8.55849189 L6.48025833,3.50887112 C5.8156887,2.82764264 5.81268643,1.72623057 6.47355256,1.04879841 C7.13441868,0.371366262 8.20889665,0.374443772 8.87346625,1.05567225 L15.0202244,7.35651223 C15.6745699,8.02726028 15.677526,9.11172752 15.026827,9.77873767 L13.8118138,11.0242078 L13.7996028,11.0116907 Z M5.84372296,11.1793803 L3.39584608,13.6886185 C2.73276489,14.3683213 1.66365153,14.3744242 1.00791458,13.7022498 C0.35217764,13.0300754 0.358131355,11.9341624 1.02121255,11.2544597 L3.46908943,8.74522146 L1.0141561,6.22874991 C0.351074888,5.54904713 0.345121184,4.45313414 1.00085813,3.78095974 C1.65659507,3.10878533 2.72570842,3.11488829 3.38878961,3.79459107 L7.04119182,7.53854863 C7.69407179,8.20779444 7.69993391,9.2868472 7.05428523,9.94868048 L5.84870205,11.1844842 L5.84372296,11.1793803 Z" id="Arrow"></path>
                            </g>
                        </g>
                    </g>
                </g>
                <path d="M31.337998,51 L30.0196387,51 L30.0196387,41.6176758 L26.613877,41.6176758 L26.613877,40.4311523 L34.7437598,40.4311523 L34.7437598,41.6176758 L31.337998,41.6176758 L31.337998,51 Z M38.1285449,51.1391602 C35.8800098,51.1391602 34.4884082,49.5864258 34.4884082,47.0522461 C34.4884082,44.5107422 35.8800098,42.965332 38.1285449,42.965332 C40.3770801,42.965332 41.7686816,44.5107422 41.7686816,47.0522461 C41.7686816,49.5864258 40.3770801,51.1391602 38.1285449,51.1391602 Z M38.1285449,50.0039062 C39.6226855,50.0039062 40.4649707,48.9199219 40.4649707,47.0522461 C40.4649707,45.1772461 39.6226855,44.1005859 38.1285449,44.1005859 C36.6344043,44.1005859 35.7921191,45.1772461 35.7921191,47.0522461 C35.7921191,48.9199219 36.6344043,50.0039062 38.1285449,50.0039062 Z M46.398584,51.1391602 C44.3770996,51.1391602 43.0807129,49.5351562 43.0807129,47.0522461 C43.0807129,44.5766602 44.391748,42.965332 46.398584,42.965332 C47.4972168,42.965332 48.4273926,43.4853516 48.8741699,44.3496094 L48.9840332,44.3496094 L48.9840332,39.9697266 L50.2437988,39.9697266 L50.2437988,51 L49.042627,51 L49.042627,49.7402344 L48.9254395,49.7402344 C48.4273926,50.6191406 47.4898926,51.1391602 46.398584,51.1391602 Z M46.6915527,44.1005859 C45.2560059,44.1005859 44.3844238,45.2138672 44.3844238,47.0522461 C44.3844238,48.8979492 45.2486816,50.0039062 46.6915527,50.0039062 C48.1270996,50.0039062 49.0133301,48.8759766 49.0133301,47.0522461 C49.0133301,45.2431641 48.1197754,44.1005859 46.6915527,44.1005859 Z M54.8517285,50.0332031 C56.1481152,50.0332031 57.1075879,49.1835938 57.1075879,48.0556641 L57.1075879,47.3305664 L54.9835645,47.4697266 C53.7823926,47.550293 53.2550488,47.9677734 53.2550488,48.7587891 C53.2550488,49.5644531 53.9362012,50.0332031 54.8517285,50.0332031 Z M54.6173535,51.1391602 C53.0865918,51.1391602 51.9513379,50.230957 51.9513379,48.7880859 C51.9513379,47.3745117 52.991377,46.5615234 54.8297559,46.4516602 L57.1075879,46.3125 L57.1075879,45.5947266 C57.1075879,44.6206055 56.4996777,44.0859375 55.3204785,44.0859375 C54.3756543,44.0859375 53.7164746,44.4448242 53.5406934,45.0673828 L52.2662793,45.0673828 C52.4347363,43.800293 53.6798535,42.965332 55.3644238,42.965332 C57.2906934,42.965332 58.3673535,43.9541016 58.3673535,45.5947266 L58.3673535,51 L57.1661816,51 L57.1661816,49.8354492 L57.0489941,49.8354492 C56.5362988,50.6777344 55.672041,51.1391602 54.6173535,51.1391602 Z M60.8073145,53.8564453 C60.6388574,53.8564453 60.4191309,53.8417969 60.2433496,53.8125 L60.2433496,52.7358398 C60.3971582,52.7651367 60.5949121,52.7724609 60.7706934,52.7724609 C61.495791,52.7724609 61.8912988,52.4282227 62.2208887,51.4760742 L62.367373,51.0073242 L59.4450098,43.1044922 L60.8073145,43.1044922 L62.9752832,49.6010742 L63.0924707,49.6010742 L65.2531152,43.1044922 L66.5934473,43.1044922 L63.5099512,51.4833984 C62.836123,53.3144531 62.2062402,53.8564453 60.8073145,53.8564453 Z M67.7077246,53.6879883 L66.7629004,53.6879883 L67.4587012,49.5205078 L68.857627,49.5205078 L67.7077246,53.6879883 Z M78.6594238,51.2490234 C76.4182129,51.2490234 74.8508301,49.9819336 74.8508301,48.1728516 C74.8508301,46.7958984 75.7224121,45.7265625 77.0480957,45.4775391 L77.0480957,45.3603516 C75.9714355,45.0673828 75.282959,44.1518555 75.282959,43.0019531 C75.282959,41.3540039 76.6818848,40.1821289 78.6594238,40.1821289 C80.6369629,40.1821289 82.0358887,41.3540039 82.0358887,43.0019531 C82.0358887,44.1591797 81.3620605,45.0600586 80.270752,45.3603516 L80.270752,45.4775391 C81.5964355,45.7265625 82.4680176,46.7958984 82.4680176,48.1728516 C82.4680176,49.9819336 80.9006348,51.2490234 78.6594238,51.2490234 Z M78.6594238,50.1210938 C80.1242676,50.1210938 81.1350098,49.2861328 81.1350098,48.0776367 C81.1350098,46.8691406 80.1242676,46.0341797 78.6594238,46.0341797 C77.1945801,46.0341797 76.1838379,46.8691406 76.1838379,48.0776367 C76.1838379,49.2861328 77.1945801,50.1210938 78.6594238,50.1210938 Z M78.6594238,44.9208984 C79.904541,44.9208984 80.739502,44.203125 80.739502,43.1264648 C80.739502,42.0351562 79.9118652,41.3100586 78.6594238,41.3100586 C77.4069824,41.3100586 76.5793457,42.0351562 76.5793457,43.1264648 C76.5793457,44.203125 77.4143066,44.9208984 78.6594238,44.9208984 Z M85.4060254,49.7915039 C84.8860059,49.7915039 84.453877,49.359375 84.453877,48.8393555 C84.453877,48.3120117 84.8860059,47.887207 85.4060254,47.887207 C85.9333691,47.887207 86.3581738,48.3120117 86.3581738,48.8393555 C86.3581738,49.359375 85.9333691,49.7915039 85.4060254,49.7915039 Z M85.4060254,44.1591797 C84.8860059,44.1591797 84.453877,43.7270508 84.453877,43.2070312 C84.453877,42.6796875 84.8860059,42.2548828 85.4060254,42.2548828 C85.9333691,42.2548828 86.3581738,42.6796875 86.3581738,43.2070312 C86.3581738,43.7270508 85.9333691,44.1591797 85.4060254,44.1591797 Z M90.6291895,46.1293945 L90.6291895,45.0014648 L91.9109277,45.0014648 C93.1120996,45.0014648 93.961709,44.2250977 93.961709,43.1264648 C93.961709,42.0498047 93.1487207,41.3320312 91.9329004,41.3320312 C90.7170801,41.3320312 89.9187402,42.0058594 89.808877,43.1411133 L88.5271387,43.1411133 C88.6589746,41.3100586 89.9700098,40.1821289 91.9841699,40.1821289 C93.829873,40.1821289 95.302041,41.4125977 95.302041,42.9506836 C95.302041,44.2104492 94.6062402,45.1333008 93.4490137,45.4116211 L93.4490137,45.5288086 C94.8845605,45.7119141 95.7561426,46.7080078 95.7561426,48.1508789 C95.7561426,49.894043 94.1228418,51.2490234 92.0354395,51.2490234 C89.8894434,51.2490234 88.4099512,50.0551758 88.3147363,48.2460938 L89.5891504,48.2460938 C89.7063379,49.3740234 90.6584863,50.0991211 92.020791,50.0991211 C93.4123926,50.0991211 94.4011621,49.2714844 94.4011621,48.1142578 C94.4011621,46.8911133 93.4709863,46.1293945 91.9695215,46.1293945 L90.6291895,46.1293945 Z M101.08917,51.2490234 C99.0896582,51.2490234 97.6541113,50.0112305 97.5369238,48.1875 L98.8333105,48.1875 C98.950498,49.3300781 99.8587012,50.0917969 101.103818,50.0917969 C102.517393,50.0917969 103.462217,49.125 103.462217,47.6748047 C103.462217,46.2246094 102.510068,45.2358398 101.125791,45.2358398 C100.166318,45.2358398 99.3753027,45.6679688 98.9431738,46.4223633 L97.7053809,46.4223633 L98.2839941,40.4311523 L104.17999,40.4311523 L104.17999,41.6103516 L99.316709,41.6103516 L99.016416,45.0014648 L99.1336035,45.0014648 C99.6462988,44.4008789 100.393369,44.1005859 101.36749,44.1005859 C103.374326,44.1005859 104.780576,45.5581055 104.780576,47.6381836 C104.780576,49.7841797 103.279111,51.2490234 101.08917,51.2490234 Z M117.6146,51 L116.552588,47.9750977 L112.348486,47.9750977 L111.286475,51 L109.902197,51 L113.798682,40.4311523 L115.102393,40.4311523 L118.998877,51 L117.6146,51 Z M114.391943,42.1376953 L112.73667,46.8544922 L116.164404,46.8544922 L114.509131,42.1376953 L114.391943,42.1376953 Z M130.996943,51 L129.766475,51 L129.766475,42.9287109 L129.678584,42.9287109 L126.346064,50.9267578 L125.232783,50.9267578 L121.900264,42.9287109 L121.812373,42.9287109 L121.812373,51 L120.581904,51 L120.581904,40.4311523 L122.112666,40.4311523 L125.73083,49.1762695 L125.848018,49.1762695 L129.466182,40.4311523 L130.996943,40.4311523 L130.996943,51 Z" id="Today,8:35AM" fill="#FFFFFF" fill-rule="nonzero" mask="url(#mask-3)"></path>
                <path d="M43.0062609,30 L37.3109484,30 L37.3109484,17.3173828 L42.8568468,17.3173828 C45.3177843,17.3173828 46.7855578,18.5214844 46.7855578,20.4814453 C46.7855578,21.8261719 45.7923937,22.9951172 44.4916125,23.1884766 L44.4916125,23.3466797 C46.1703234,23.4697266 47.3920031,24.7353516 47.3920031,26.3701172 C47.3920031,28.59375 45.7132921,30 43.0062609,30 Z M39.9652453,19.3476562 L39.9652453,22.5732422 L41.9603625,22.5732422 C43.3929796,22.5732422 44.1752062,21.984375 44.1752062,20.9648438 C44.1752062,19.9541016 43.445714,19.3476562 42.180089,19.3476562 L39.9652453,19.3476562 Z M39.9652453,27.9697266 L42.3295031,27.9697266 C43.8588,27.9697266 44.6849718,27.328125 44.6849718,26.1416016 C44.6849718,24.9814453 43.8324328,24.3662109 42.2679796,24.3662109 L39.9652453,24.3662109 L39.9652453,27.9697266 Z M52.7465812,28.2246094 C53.9331046,28.2246094 54.829589,27.46875 54.829589,26.484375 L54.829589,25.7724609 L52.8696281,25.8955078 C51.7709953,25.9746094 51.2348625,26.3701172 51.2348625,27.0644531 C51.2348625,27.7851562 51.8588859,28.2246094 52.7465812,28.2246094 Z M51.9028312,30.1494141 C50.03955,30.1494141 48.7299796,29.0068359 48.7299796,27.2314453 C48.7299796,25.4736328 50.0747062,24.4541016 52.4829093,24.3134766 L54.829589,24.1728516 L54.829589,23.3818359 C54.829589,22.5732422 54.2495109,22.1162109 53.1948234,22.1162109 C52.2719718,22.1162109 51.6567375,22.4326172 51.4458,23.0126953 L49.0903312,23.0126953 C49.2573234,21.2197266 50.9008781,20.0947266 53.3354484,20.0947266 C55.9018546,20.0947266 57.35205,21.3076172 57.35205,23.3818359 L57.35205,30 L54.8735343,30 L54.8735343,28.734375 L54.7153312,28.734375 C54.2143546,29.6220703 53.1596671,30.1494141 51.9028312,30.1494141 Z M60.307214,18.0029297 L62.8648312,18.0029297 L62.8648312,20.4023438 L64.8775265,20.4023438 L64.8775265,22.4150391 L62.8648312,22.4150391 L62.8648312,26.7744141 C62.8648312,27.6181641 63.25155,28.0048828 64.1216671,28.0048828 C64.4556515,28.0048828 64.6314328,27.9960938 64.8775265,27.9697266 L64.8775265,29.9208984 C64.5611203,29.9824219 64.0865109,30.0351562 63.5943234,30.0351562 C61.2388546,30.0351562 60.307214,29.2705078 60.307214,27.3808594 L60.307214,22.4150391 L58.7954953,22.4150391 L58.7954953,20.4023438 L60.307214,20.4023438 L60.307214,18.0029297 Z M66.8043703,30 L66.8043703,16.6054688 L69.3180421,16.6054688 L69.3180421,21.8964844 L69.4762453,21.8964844 C69.9244875,20.7890625 70.979175,20.1210938 72.4030031,20.1210938 C74.4860109,20.1210938 75.7252687,21.4306641 75.7252687,23.7597656 L75.7252687,30 L73.1676515,30 L73.1676515,24.3662109 C73.1676515,23.0214844 72.5436281,22.3271484 71.3834718,22.3271484 C70.1002687,22.3271484 69.3619875,23.1796875 69.3619875,24.4365234 L69.3619875,30 L66.8043703,30 Z M77.9157843,30 L77.9157843,20.3056641 L80.3943,20.3056641 L80.3943,21.8525391 L80.5525031,21.8525391 C80.8073859,20.8857422 81.809339,20.1474609 83.0398078,20.1474609 C83.3913703,20.1474609 83.8220343,20.1914062 84.0417609,20.2705078 L84.0417609,22.5996094 C83.8396125,22.5205078 83.2419562,22.4414062 82.8288703,22.4414062 C81.4314093,22.4414062 80.4734015,23.2675781 80.4734015,24.6298828 L80.4734015,30 L77.9157843,30 Z M89.536964,30.2109375 C86.5574718,30.2109375 84.7645031,28.3212891 84.7645031,25.1484375 C84.7645031,22.0107422 86.583839,20.0947266 89.536964,20.0947266 C92.490089,20.0947266 94.309425,22.0019531 94.309425,25.1484375 C94.309425,28.3212891 92.5164562,30.2109375 89.536964,30.2109375 Z M89.536964,28.1191406 C90.8992687,28.1191406 91.6814953,27.0292969 91.6814953,25.1484375 C91.6814953,23.2851562 90.8904796,22.1865234 89.536964,22.1865234 C88.1746593,22.1865234 87.3924328,23.2851562 87.3924328,25.1484375 C87.3924328,27.0380859 88.1658703,28.1191406 89.536964,28.1191406 Z M100.402284,30.2109375 C97.4227921,30.2109375 95.6298234,28.3212891 95.6298234,25.1484375 C95.6298234,22.0107422 97.4491593,20.0947266 100.402284,20.0947266 C103.355409,20.0947266 105.174745,22.0019531 105.174745,25.1484375 C105.174745,28.3212891 103.381777,30.2109375 100.402284,30.2109375 Z M100.402284,28.1191406 C101.764589,28.1191406 102.546816,27.0292969 102.546816,25.1484375 C102.546816,23.2851562 101.7558,22.1865234 100.402284,22.1865234 C99.0399796,22.1865234 98.2577531,23.2851562 98.2577531,25.1484375 C98.2577531,27.0380859 99.0311906,28.1191406 100.402284,28.1191406 Z M106.969753,30 L106.969753,20.3056641 L109.448269,20.3056641 L109.448269,21.8876953 L109.606472,21.8876953 C110.00198,20.7802734 111.012722,20.0947266 112.287136,20.0947266 C113.649441,20.0947266 114.581081,20.7626953 114.9678,21.8876953 L115.126003,21.8876953 C115.574245,20.8066406 116.690456,20.0947266 118.043972,20.0947266 C119.977566,20.0947266 121.181667,21.3515625 121.181667,23.3466797 L121.181667,30 L118.62405,30 L118.62405,24.0234375 C118.62405,22.8720703 118.087917,22.3007812 117.006862,22.3007812 C115.969753,22.3007812 115.301784,23.0390625 115.301784,24.0673828 L115.301784,30 L112.840847,30 L112.840847,23.9179688 C112.840847,22.8896484 112.243191,22.3007812 111.241237,22.3007812 C110.239284,22.3007812 109.52737,23.0830078 109.52737,24.1640625 L109.52737,30 L106.969753,30 Z" id="Bathroom" fill="#FFFFFF" fill-rule="nonzero" mask="url(#mask-3)"></path>
            </g>
        </g>
    </g>
</svg>