<?xml version="1.0" encoding="UTF-8"?>
<svg width="170px" height="112px" viewBox="0 0 170 112" version="1.1" xmlns="http://www.w3.org/2000/svg" xmlns:xlink="http://www.w3.org/1999/xlink">
    <!-- Generator: Sketch 53.2 (72643) - https://sketchapp.com -->
    <title>Tile 1</title>
    <desc>Created with Sketch.</desc>
    <defs>
        <radialGradient cx="100%" cy="92.8516198%" fx="100%" fy="92.8516198%" r="189.5609%" gradientTransform="translate(1.000000,0.928516),scale(0.605096,1.000000),rotate(-150.670937),translate(-1.000000,-0.928516)" id="radialGradient-1">
            <stop stop-color="#E38314" offset="0%"></stop>
            <stop stop-color="#EAB219" offset="100%"></stop>
        </radialGradient>
        <path d="M17.9471964,-7.25088215e-16 L139.052804,-1.05126862e-15 C145.293435,-2.19765397e-15 147.556438,0.649779278 149.83792,1.86992893 C152.119401,3.09007857 153.909921,4.88059859 155.130071,7.16208008 C156.350221,9.44356156 157,11.7065652 157,17.9471964 L157,77.0528036 C157,83.2934348 156.350221,85.5564384 155.130071,87.8379199 C153.909921,90.1194014 152.119401,91.9099214 149.83792,93.1300711 C147.556438,94.3502207 145.293435,95 139.052804,95 L17.9471964,95 C11.7065652,95 9.44356156,94.3502207 7.16208008,93.1300711 C4.88059859,91.9099214 3.09007857,90.1194014 1.86992893,87.8379199 C0.649779278,85.5564384 2.80864756e-16,83.2934348 -4.83392144e-16,77.0528036 L-1.2929647e-15,17.9471964 C-2.0572216e-15,11.7065652 0.649779278,9.44356156 1.86992893,7.16208008 C3.09007857,4.88059859 4.88059859,3.09007857 7.16208008,1.86992893 C9.44356156,0.649779278 11.7065652,4.21297134e-16 17.9471964,-7.25088215e-16 Z" id="path-2"></path>
        <filter x="-5.7%" y="-6.3%" width="111.5%" height="118.9%" filterUnits="objectBoundingBox" id="filter-4">
            <feOffset dx="0" dy="3" in="SourceAlpha" result="shadowOffsetOuter1"></feOffset>
            <feGaussianBlur stdDeviation="2.5" in="shadowOffsetOuter1" result="shadowBlurOuter1"></feGaussianBlur>
            <feColorMatrix values="0 0 0 0 0   0 0 0 0 0   0 0 0 0 0  0 0 0 0.1 0" type="matrix" in="shadowBlurOuter1"></feColorMatrix>
        </filter>
    </defs>
    <g id="iOS---1.2" stroke="none" stroke-width="1" fill="none" fill-rule="evenodd">
        <g id="Artboard" transform="translate(-49.000000, -31.000000)">
            <g id="Tile-1" transform="translate(133.878376, 83.543275) rotate(-3.000000) translate(-133.878376, -83.543275) translate(55.378376, 36.043275)">
                <mask id="mask-3" fill="white">
                    <use xlink:href="#path-2"></use>
                </mask>
                <g id="Rectangle-4">
                    <use fill="black" fill-opacity="1" filter="url(#filter-4)" xlink:href="#path-2"></use>
                    <use fill="url(#radialGradient-1)" fill-rule="evenodd" xlink:href="#path-2"></use>
                </g>
                <g id="Arrow(s)" mask="url(#mask-3)">
                    <g transform="translate(59.000000, 63.000000)" id="One-arrow">
                        <g transform="translate(12.825141, 0.517682)">
                            <path d="M13.7996028,11.0116907 L8.90421765,16.0297893 C8.23964805,16.7110177 7.16517005,16.7140953 6.50430396,16.0366631 C5.84343783,15.359231 5.8464401,14.2578189 6.51100969,13.5765904 L11.4063948,8.55849189 L6.48025833,3.50887112 C5.8156887,2.82764264 5.81268643,1.72623057 6.47355256,1.04879841 C7.13441868,0.371366262 8.20889665,0.374443772 8.87346625,1.05567225 L15.0202244,7.35651223 C15.6745699,8.02726028 15.677526,9.11172752 15.026827,9.77873767 L13.8118138,11.0242078 L13.7996028,11.0116907 Z M5.84372296,11.1793803 L3.39584608,13.6886185 C2.73276489,14.3683213 1.66365153,14.3744242 1.00791458,13.7022498 C0.35217764,13.0300754 0.358131355,11.9341624 1.02121255,11.2544597 L3.46908943,8.74522146 L1.0141561,6.22874991 C0.351074888,5.54904713 0.345121184,4.45313414 1.00085813,3.78095974 C1.65659507,3.10878533 2.72570842,3.11488829 3.38878961,3.79459107 L7.04119182,7.53854863 C7.69407179,8.20779444 7.69993391,9.2868472 7.05428523,9.94868048 L5.84870205,11.1844842 L5.84372296,11.1793803 Z" id="Arrow" fill="#FFFFFF" fill-rule="nonzero"></path>
                        </g>
                    </g>
                </g>
                <path d="M17.577959,51 L16.2595996,51 L16.2595996,41.6176758 L12.8538379,41.6176758 L12.8538379,40.4311523 L20.9837207,40.4311523 L20.9837207,41.6176758 L17.577959,41.6176758 L17.577959,51 Z M24.3685059,51.1391602 C22.1199707,51.1391602 20.7283691,49.5864258 20.7283691,47.0522461 C20.7283691,44.5107422 22.1199707,42.965332 24.3685059,42.965332 C26.617041,42.965332 28.0086426,44.5107422 28.0086426,47.0522461 C28.0086426,49.5864258 26.617041,51.1391602 24.3685059,51.1391602 Z M24.3685059,50.0039062 C25.8626465,50.0039062 26.7049316,48.9199219 26.7049316,47.0522461 C26.7049316,45.1772461 25.8626465,44.1005859 24.3685059,44.1005859 C22.8743652,44.1005859 22.0320801,45.1772461 22.0320801,47.0522461 C22.0320801,48.9199219 22.8743652,50.0039062 24.3685059,50.0039062 Z M29.7161816,51 L29.7161816,43.1044922 L30.9173535,43.1044922 L30.9173535,44.3496094 L31.034541,44.3496094 C31.3934277,43.4707031 32.1844434,42.965332 33.2391309,42.965332 C34.3084668,42.965332 35.0555371,43.5292969 35.421748,44.3496094 L35.5389355,44.3496094 C35.9637402,43.5146484 36.8646191,42.965332 37.9559277,42.965332 C39.5672559,42.965332 40.4681348,43.8881836 40.4681348,45.543457 L40.4681348,51 L39.2083691,51 L39.2083691,45.8364258 C39.2083691,44.671875 38.6590527,44.1005859 37.5457715,44.1005859 C36.4471387,44.1005859 35.7147168,44.9208984 35.7147168,45.9243164 L35.7147168,51 L34.4549512,51 L34.4549512,45.6386719 C34.4549512,44.7011719 33.8030957,44.1005859 32.807002,44.1005859 C31.7742871,44.1005859 30.9759473,44.9941406 30.9759473,46.1074219 L30.9759473,51 L29.7161816,51 Z M45.7425684,51.1391602 C43.4940332,51.1391602 42.1024316,49.5864258 42.1024316,47.0522461 C42.1024316,44.5107422 43.4940332,42.965332 45.7425684,42.965332 C47.9911035,42.965332 49.3827051,44.5107422 49.3827051,47.0522461 C49.3827051,49.5864258 47.9911035,51.1391602 45.7425684,51.1391602 Z M45.7425684,50.0039062 C47.236709,50.0039062 48.0789941,48.9199219 48.0789941,47.0522461 C48.0789941,45.1772461 47.236709,44.1005859 45.7425684,44.1005859 C44.2484277,44.1005859 43.4061426,45.1772461 43.4061426,47.0522461 C43.4061426,48.9199219 44.2484277,50.0039062 45.7425684,50.0039062 Z M51.0902441,51 L51.0902441,43.1044922 L52.291416,43.1044922 L52.291416,44.2763672 L52.4086035,44.2763672 C52.6429785,43.5073242 53.5511816,42.965332 54.5985449,42.965332 C54.803623,42.965332 55.0672949,42.9799805 55.2284277,43.0019531 L55.2284277,44.2617188 C55.1258887,44.2324219 54.6717871,44.1884766 54.4227637,44.1884766 C53.2215918,44.1884766 52.3500098,44.9941406 52.3500098,46.1074219 L52.3500098,51 L51.0902441,51 Z M56.6796191,51 L56.6796191,43.1044922 L57.880791,43.1044922 L57.880791,44.2763672 L57.9979785,44.2763672 C58.2323535,43.5073242 59.1405566,42.965332 60.1879199,42.965332 C60.392998,42.965332 60.6566699,42.9799805 60.8178027,43.0019531 L60.8178027,44.2617188 C60.7152637,44.2324219 60.2611621,44.1884766 60.0121387,44.1884766 C58.8109668,44.1884766 57.9393848,44.9941406 57.9393848,46.1074219 L57.9393848,51 L56.6796191,51 Z M65.1474121,51.1391602 C62.898877,51.1391602 61.5072754,49.5864258 61.5072754,47.0522461 C61.5072754,44.5107422 62.898877,42.965332 65.1474121,42.965332 C67.3959473,42.965332 68.7875488,44.5107422 68.7875488,47.0522461 C68.7875488,49.5864258 67.3959473,51.1391602 65.1474121,51.1391602 Z M65.1474121,50.0039062 C66.6415527,50.0039062 67.4838379,48.9199219 67.4838379,47.0522461 C67.4838379,45.1772461 66.6415527,44.1005859 65.1474121,44.1005859 C63.6532715,44.1005859 62.8109863,45.1772461 62.8109863,47.0522461 C62.8109863,48.9199219 63.6532715,50.0039062 65.1474121,50.0039062 Z M80.1337598,43.1044922 L77.9218457,51 L76.6401074,51 L74.8749707,44.8916016 L74.7577832,44.8916016 L72.9999707,51 L71.7255566,51 L69.5136426,43.1044922 L70.7880566,43.1044922 L72.340791,49.4179688 L72.4579785,49.4179688 L74.2231152,43.1044922 L75.4316113,43.1044922 L77.196748,49.4179688 L77.3139355,49.4179688 L78.8666699,43.1044922 L80.1337598,43.1044922 Z M81.2480371,53.6879883 L80.3032129,53.6879883 L80.9990137,49.5205078 L82.3979395,49.5205078 L81.2480371,53.6879883 Z M91.9653613,51.2416992 C90.1709277,51.2416992 88.8379199,50.1796875 88.5010059,48.4804688 L89.8559863,48.4804688 C90.1416309,49.4692383 90.9399707,50.0698242 91.9800098,50.0698242 C93.7012012,50.0698242 94.6753223,48.5463867 94.7485645,45.7338867 L94.631377,45.7338867 C94.1113574,46.7592773 93.0786426,47.3598633 91.818877,47.3598633 C89.8047168,47.3598633 88.3471973,45.8730469 88.3471973,43.8222656 C88.3471973,41.6982422 89.8852832,40.1821289 92.053252,40.1821289 C93.6352832,40.1821289 94.8584277,41.0244141 95.5176074,42.5844727 C95.8618457,43.3901367 96.0303027,44.3642578 96.0303027,45.5288086 C96.0303027,49.1616211 94.5508105,51.2416992 91.9653613,51.2416992 Z M92.053252,46.2172852 C93.4521777,46.2172852 94.4555957,45.2211914 94.4555957,43.8222656 C94.4555957,42.4086914 93.4228809,41.3393555 92.0679004,41.3393555 C90.7129199,41.3393555 89.6802051,42.394043 89.6802051,43.7783203 C89.6802051,45.2211914 90.6543262,46.2172852 92.053252,46.2172852 Z M98.9243652,49.7915039 C98.4043457,49.7915039 97.9722168,49.359375 97.9722168,48.8393555 C97.9722168,48.3120117 98.4043457,47.887207 98.9243652,47.887207 C99.451709,47.887207 99.8765137,48.3120117 99.8765137,48.8393555 C99.8765137,49.359375 99.451709,49.7915039 98.9243652,49.7915039 Z M98.9243652,44.1591797 C98.4043457,44.1591797 97.9722168,43.7270508 97.9722168,43.2070312 C97.9722168,42.6796875 98.4043457,42.2548828 98.9243652,42.2548828 C99.451709,42.2548828 99.8765137,42.6796875 99.8765137,43.2070312 C99.8765137,43.7270508 99.451709,44.1591797 98.9243652,44.1591797 Z M105.612373,51.2490234 C103.232002,51.2490234 101.862373,49.2275391 101.862373,45.7119141 C101.862373,42.2255859 103.24665,40.1821289 105.612373,40.1821289 C107.963447,40.1821289 109.347725,42.2329102 109.347725,45.7338867 C109.347725,49.2421875 107.98542,51.2490234 105.612373,51.2490234 Z M105.612373,50.0991211 C107.172432,50.0991211 108.022041,48.5463867 108.022041,45.7119141 C108.022041,42.9067383 107.157783,41.3393555 105.612373,41.3393555 C104.066963,41.3393555 103.188057,42.9213867 103.188057,45.7119141 C103.188057,48.5390625 104.052314,50.0991211 105.612373,50.0991211 Z M113.399014,46.1293945 L113.399014,45.0014648 L114.680752,45.0014648 C115.881924,45.0014648 116.731533,44.2250977 116.731533,43.1264648 C116.731533,42.0498047 115.918545,41.3320312 114.702725,41.3320312 C113.486904,41.3320312 112.688564,42.0058594 112.578701,43.1411133 L111.296963,43.1411133 C111.428799,41.3100586 112.739834,40.1821289 114.753994,40.1821289 C116.599697,40.1821289 118.071865,41.4125977 118.071865,42.9506836 C118.071865,44.2104492 117.376064,45.1333008 116.218838,45.4116211 L116.218838,45.5288086 C117.654385,45.7119141 118.525967,46.7080078 118.525967,48.1508789 C118.525967,49.894043 116.892666,51.2490234 114.805264,51.2490234 C112.659268,51.2490234 111.179775,50.0551758 111.084561,48.2460938 L112.358975,48.2460938 C112.476162,49.3740234 113.428311,50.0991211 114.790615,50.0991211 C116.182217,50.0991211 117.170986,49.2714844 117.170986,48.1142578 C117.170986,46.8911133 116.240811,46.1293945 114.739346,46.1293945 L113.399014,46.1293945 Z M131.374639,51 L130.312627,47.9750977 L126.108525,47.9750977 L125.046514,51 L123.662236,51 L127.558721,40.4311523 L128.862432,40.4311523 L132.758916,51 L131.374639,51 Z M128.151982,42.1376953 L126.496709,46.8544922 L129.924443,46.8544922 L128.26917,42.1376953 L128.151982,42.1376953 Z M144.756982,51 L143.526514,51 L143.526514,42.9287109 L143.438623,42.9287109 L140.106104,50.9267578 L138.992822,50.9267578 L135.660303,42.9287109 L135.572412,42.9287109 L135.572412,51 L134.341943,51 L134.341943,40.4311523 L135.872705,40.4311523 L139.490869,49.1762695 L139.608057,49.1762695 L143.226221,40.4311523 L144.756982,40.4311523 L144.756982,51 Z" id="Tomorrow,9:03AM" fill="#FFFFFF" fill-rule="nonzero" mask="url(#mask-3)"></path>
                <path d="M40.9398117,30.3251953 C37.2659836,30.3251953 34.9896164,27.7851562 34.9896164,23.6542969 C34.9896164,19.5322266 37.2571945,16.9921875 40.9398117,16.9921875 C43.9456711,16.9921875 46.2484054,18.9873047 46.4417648,21.7470703 L43.8577804,21.7470703 C43.6028976,20.2880859 42.4515304,19.3300781 40.9398117,19.3300781 C38.9446945,19.3300781 37.7054367,20.9824219 37.7054367,23.6542969 C37.7054367,26.3261719 38.9446945,27.9873047 40.9486007,27.9873047 C42.4691086,27.9873047 43.6116867,27.0908203 43.8665695,25.6933594 L46.4505539,25.6933594 C46.2308273,28.4355469 43.9984054,30.3251953 40.9398117,30.3251953 Z M52.648882,30.2109375 C49.6693898,30.2109375 47.8764211,28.3212891 47.8764211,25.1484375 C47.8764211,22.0107422 49.695757,20.0947266 52.648882,20.0947266 C55.602007,20.0947266 57.4213429,22.0019531 57.4213429,25.1484375 C57.4213429,28.3212891 55.6283742,30.2109375 52.648882,30.2109375 Z M52.648882,28.1191406 C54.0111867,28.1191406 54.7934132,27.0292969 54.7934132,25.1484375 C54.7934132,23.2851562 54.0023976,22.1865234 52.648882,22.1865234 C51.2865773,22.1865234 50.5043507,23.2851562 50.5043507,25.1484375 C50.5043507,27.0380859 51.2777882,28.1191406 52.648882,28.1191406 Z M67.9878351,20.3056641 L67.9878351,30 L65.5093195,30 L65.5093195,28.4443359 L65.3511164,28.4443359 C64.8940851,29.5693359 63.9888117,30.2109375 62.5210382,30.2109375 C60.4292414,30.2109375 59.1284601,28.875 59.1284601,26.625 L59.1284601,20.3056641 L61.6860773,20.3056641 L61.6860773,25.9658203 C61.6860773,27.3017578 62.2925226,27.9873047 63.470257,27.9873047 C64.7446711,27.9873047 65.4302179,27.1875 65.4302179,25.8955078 L65.4302179,20.3056641 L67.9878351,20.3056641 Z M70.2662414,30 L70.2662414,20.3056641 L72.744757,20.3056641 L72.744757,21.8613281 L72.9029601,21.8613281 C73.3512023,20.7714844 74.3355773,20.0947266 75.7681945,20.0947266 C77.9215148,20.0947266 79.0816711,21.4130859 79.0816711,23.7333984 L79.0816711,30 L76.5240539,30 L76.5240539,24.3398438 C76.5240539,23.0039062 75.9527648,22.3007812 74.7398742,22.3007812 C73.5533507,22.3007812 72.8238586,23.1357422 72.8238586,24.4101562 L72.8238586,30 L70.2662414,30 Z M81.0524601,23.1533203 C81.0524601,21.3164062 82.6696476,20.0947266 85.0866398,20.0947266 C87.5475773,20.0947266 88.9977726,21.1230469 89.1383976,22.9775391 L86.7741398,22.9775391 C86.6423039,22.3535156 86.0534367,21.9667969 85.1042179,21.9667969 C84.1901554,21.9667969 83.5133976,22.3798828 83.5133976,22.9951172 C83.5133976,23.4697266 83.9264836,23.7597656 84.8229679,23.9619141 L86.6423039,24.3574219 C88.5231632,24.7705078 89.3669132,25.5615234 89.3669132,27.0117188 C89.3669132,28.9453125 87.6354679,30.2109375 85.0954289,30.2109375 C82.5378117,30.2109375 80.9909367,29.1650391 80.8151554,27.3017578 L83.3112492,27.3017578 C83.5046086,27.9609375 84.128632,28.3388672 85.1481632,28.3388672 C86.1413273,28.3388672 86.8268742,27.9257812 86.8268742,27.3017578 C86.8268742,26.8271484 86.4577336,26.5371094 85.6051945,26.3525391 L83.847382,25.9570312 C81.9665226,25.5439453 81.0524601,24.6474609 81.0524601,23.1533203 Z M95.371882,22.0546875 C94.1853586,22.0546875 93.3503976,22.8808594 93.262507,24.1376953 L97.3933664,24.1376953 C97.340632,22.8544922 96.5671945,22.0546875 95.371882,22.0546875 Z M97.4461007,27.2402344 L99.8279367,27.2402344 C99.4412179,29.0683594 97.7712961,30.2109375 95.3982492,30.2109375 C92.4451242,30.2109375 90.7048898,28.3476562 90.7048898,25.2011719 C90.7048898,22.0458984 92.4802804,20.0947266 95.3630929,20.0947266 C98.2195382,20.0947266 99.9070382,21.9140625 99.9070382,24.9902344 L99.9070382,25.7724609 L93.2537179,25.7724609 L93.2537179,25.9042969 C93.2888742,27.3457031 94.1326242,28.2421875 95.4685617,28.2421875 C96.4793039,28.2421875 97.1736398,27.8818359 97.4461007,27.2402344 Z M101.798726,30 L101.798726,16.6054688 L104.356343,16.6054688 L104.356343,30 L101.798726,30 Z M111.020491,30.2109375 C108.040999,30.2109375 106.24803,28.3212891 106.24803,25.1484375 C106.24803,22.0107422 108.067366,20.0947266 111.020491,20.0947266 C113.973616,20.0947266 115.792952,22.0019531 115.792952,25.1484375 C115.792952,28.3212891 113.999984,30.2109375 111.020491,30.2109375 Z M111.020491,28.1191406 C112.382796,28.1191406 113.165023,27.0292969 113.165023,25.1484375 C113.165023,23.2851562 112.374007,22.1865234 111.020491,22.1865234 C109.658187,22.1865234 108.87596,23.2851562 108.87596,25.1484375 C108.87596,27.0380859 109.649398,28.1191406 111.020491,28.1191406 Z M117.58796,30 L117.58796,20.3056641 L120.066476,20.3056641 L120.066476,21.8525391 L120.224679,21.8525391 C120.479562,20.8857422 121.481515,20.1474609 122.711984,20.1474609 C123.063546,20.1474609 123.49421,20.1914062 123.713937,20.2705078 L123.713937,22.5996094 C123.511788,22.5205078 122.914132,22.4414062 122.501046,22.4414062 C121.103585,22.4414062 120.145577,23.2675781 120.145577,24.6298828 L120.145577,30 L117.58796,30 Z" id="Counselor" fill="#FFFFFF" fill-rule="nonzero" mask="url(#mask-3)"></path>
            </g>
        </g>
    </g>
</svg>