<?xml version="1.0" encoding="UTF-8"?>
<svg width="170px" height="112px" viewBox="0 0 170 112" version="1.1" xmlns="http://www.w3.org/2000/svg" xmlns:xlink="http://www.w3.org/1999/xlink">
    <!-- Generator: Sketch 53.2 (72643) - https://sketchapp.com -->
    <title>Tile 7</title>
    <desc>Created with Sketch.</desc>
    <defs>
        <radialGradient cx="83.3814432%" cy="77.3236415%" fx="83.3814432%" fy="77.3236415%" r="186.605401%" gradientTransform="translate(0.833814,0.773236),scale(0.605096,1.000000),rotate(-137.599568),translate(-0.833814,-0.773236)" id="radialGradient-1">
            <stop stop-color="#E7A700" offset="0%"></stop>
            <stop stop-color="#EFCE00" offset="100%"></stop>
        </radialGradient>
        <path d="M17.9471964,-7.25088215e-16 L139.052804,-1.05126862e-15 C145.293435,-2.19765397e-15 147.556438,0.649779278 149.83792,1.86992893 C152.119401,3.09007857 153.909921,4.88059859 155.130071,7.16208008 C156.350221,9.44356156 157,11.7065652 157,17.9471964 L157,77.0528036 C157,83.2934348 156.350221,85.5564384 155.130071,87.8379199 C153.909921,90.1194014 152.119401,91.9099214 149.83792,93.1300711 C147.556438,94.3502207 145.293435,95 139.052804,95 L17.9471964,95 C11.7065652,95 9.44356156,94.3502207 7.16208008,93.1300711 C4.88059859,91.9099214 3.09007857,90.1194014 1.86992893,87.8379199 C0.649779278,85.5564384 2.80864756e-16,83.2934348 -4.83392144e-16,77.0528036 L-1.2929647e-15,17.9471964 C-2.0572216e-15,11.7065652 0.649779278,9.44356156 1.86992893,7.16208008 C3.09007857,4.88059859 4.88059859,3.09007857 7.16208008,1.86992893 C9.44356156,0.649779278 11.7065652,4.21297134e-16 17.9471964,-7.25088215e-16 Z" id="path-2"></path>
        <filter x="-5.7%" y="-6.3%" width="111.5%" height="118.9%" filterUnits="objectBoundingBox" id="filter-4">
            <feOffset dx="0" dy="3" in="SourceAlpha" result="shadowOffsetOuter1"></feOffset>
            <feGaussianBlur stdDeviation="2.5" in="shadowOffsetOuter1" result="shadowBlurOuter1"></feGaussianBlur>
            <feColorMatrix values="0 0 0 0 0   0 0 0 0 0   0 0 0 0 0  0 0 0 0.1 0" type="matrix" in="shadowBlurOuter1"></feColorMatrix>
        </filter>
    </defs>
    <g id="iOS---1.2" stroke="none" stroke-width="1" fill="none" fill-rule="evenodd">
        <g id="Artboard" transform="translate(-1117.000000, -31.000000)">
            <g id="Tile-7" transform="translate(1201.878376, 83.543275) rotate(-3.000000) translate(-1201.878376, -83.543275) translate(1123.378376, 36.043275)">
                <mask id="mask-3" fill="white">
                    <use xlink:href="#path-2"></use>
                </mask>
                <g id="Rectangle-4">
                    <use fill="black" fill-opacity="1" filter="url(#filter-4)" xlink:href="#path-2"></use>
                    <use fill="url(#radialGradient-1)" fill-rule="evenodd" xlink:href="#path-2"></use>
                </g>
                <g id="Arrow(s)" mask="url(#mask-3)">
                    <g transform="translate(59.000000, 63.000000)" id="Two-arrows">
                        <g transform="translate(0.741022, 0.834717)">
                            <g id="Logo" transform="translate(22.022186, 0.152762)" fill="#FFFFFF" fill-rule="nonzero">
                                <path d="M13.7996028,11.0116907 L8.90421765,16.0297893 C8.23964805,16.7110177 7.16517005,16.7140953 6.50430396,16.0366631 C5.84343783,15.359231 5.8464401,14.2578189 6.51100969,13.5765904 L11.4063948,8.55849189 L6.48025833,3.50887112 C5.8156887,2.82764264 5.81268643,1.72623057 6.47355256,1.04879841 C7.13441868,0.371366262 8.20889665,0.374443772 8.87346625,1.05567225 L15.0202244,7.35651223 C15.6745699,8.02726028 15.677526,9.11172752 15.026827,9.77873767 L13.8118138,11.0242078 L13.7996028,11.0116907 Z M5.84372296,11.1793803 L3.39584608,13.6886185 C2.73276489,14.3683213 1.66365153,14.3744242 1.00791458,13.7022498 C0.35217764,13.0300754 0.358131355,11.9341624 1.02121255,11.2544597 L3.46908943,8.74522146 L1.0141561,6.22874991 C0.351074888,5.54904713 0.345121184,4.45313414 1.00085813,3.78095974 C1.65659507,3.10878533 2.72570842,3.11488829 3.38878961,3.79459107 L7.04119182,7.53854863 C7.69407179,8.20779444 7.69993391,9.2868472 7.05428523,9.94868048 L5.84870205,11.1844842 L5.84372296,11.1793803 Z" id="Arrow"></path>
                            </g>
                            <g id="Logo" transform="translate(8.000000, 8.500000) scale(-1, 1) translate(-8.000000, -8.500000) translate(-0.000000, 0.000000)" fill="#FFFFFF" fill-rule="nonzero">
                                <path d="M13.7996028,11.0116907 L8.90421765,16.0297893 C8.23964805,16.7110177 7.16517005,16.7140953 6.50430396,16.0366631 C5.84343783,15.359231 5.8464401,14.2578189 6.51100969,13.5765904 L11.4063948,8.55849189 L6.48025833,3.50887112 C5.8156887,2.82764264 5.81268643,1.72623057 6.47355256,1.04879841 C7.13441868,0.371366262 8.20889665,0.374443772 8.87346625,1.05567225 L15.0202244,7.35651223 C15.6745699,8.02726028 15.677526,9.11172752 15.026827,9.77873767 L13.8118138,11.0242078 L13.7996028,11.0116907 Z M5.84372296,11.1793803 L3.39584608,13.6886185 C2.73276489,14.3683213 1.66365153,14.3744242 1.00791458,13.7022498 C0.35217764,13.0300754 0.358131355,11.9341624 1.02121255,11.2544597 L3.46908943,8.74522146 L1.0141561,6.22874991 C0.351074888,5.54904713 0.345121184,4.45313414 1.00085813,3.78095974 C1.65659507,3.10878533 2.72570842,3.11488829 3.38878961,3.79459107 L7.04119182,7.53854863 C7.69407179,8.20779444 7.69993391,9.2868472 7.05428523,9.94868048 L5.84870205,11.1844842 L5.84372296,11.1793803 Z" id="Arrow"></path>
                            </g>
                        </g>
                    </g>
                </g>
                <path d="M18.2549512,51 L16.9365918,51 L16.9365918,41.6176758 L13.5308301,41.6176758 L13.5308301,40.4311523 L21.6607129,40.4311523 L21.6607129,41.6176758 L18.2549512,41.6176758 L18.2549512,51 Z M23.3389551,51 L23.3389551,39.9697266 L24.5987207,39.9697266 L24.5987207,44.3496094 L24.7159082,44.3496094 C25.111416,43.4780273 25.9390527,42.965332 27.1475488,42.965332 C28.8174707,42.965332 29.8721582,44.034668 29.8721582,45.8876953 L29.8721582,51 L28.6123926,51 L28.6123926,46.1953125 C28.6123926,44.7963867 27.9825098,44.1005859 26.7886621,44.1005859 C25.3750879,44.1005859 24.5987207,44.9941406 24.5987207,46.3271484 L24.5987207,51 L23.3389551,51 Z M38.2886816,43.1044922 L38.2886816,51 L37.0875098,51 L37.0875098,49.762207 L36.9703223,49.762207 C36.5748145,50.6411133 35.7325293,51.1391602 34.5240332,51.1391602 C32.7515723,51.1391602 31.8287207,50.0844727 31.8287207,48.2167969 L31.8287207,43.1044922 L33.0884863,43.1044922 L33.0884863,47.9091797 C33.0884863,49.3300781 33.6158301,49.9892578 34.8755957,49.9892578 C36.2671973,49.9892578 37.028916,49.1616211 37.028916,47.7773438 L37.028916,43.1044922 L38.2886816,43.1044922 Z M40.3917285,51 L40.3917285,43.1044922 L41.5929004,43.1044922 L41.5929004,44.2763672 L41.7100879,44.2763672 C41.9444629,43.5073242 42.852666,42.965332 43.9000293,42.965332 C44.1051074,42.965332 44.3687793,42.9799805 44.5299121,43.0019531 L44.5299121,44.2617188 C44.427373,44.2324219 43.9732715,44.1884766 43.724248,44.1884766 C42.5230762,44.1884766 41.6514941,44.9941406 41.6514941,46.1074219 L41.6514941,51 L40.3917285,51 Z M45.5050293,45.2651367 C45.5050293,43.9541016 46.7721191,42.965332 48.4493652,42.965332 C50.1046387,42.965332 51.254541,43.7856445 51.422998,45.0820312 L50.1778809,45.0820312 C50.0094238,44.4521484 49.3941895,44.034668 48.442041,44.034668 C47.504541,44.034668 46.7721191,44.5107422 46.7721191,45.2138672 C46.7721191,45.7558594 47.2115723,46.0927734 48.141748,46.3198242 L49.3575684,46.612793 C50.8443848,46.9716797 51.5621582,47.6162109 51.5621582,48.7514648 C51.5621582,50.1650391 50.1925293,51.1391602 48.3980957,51.1391602 C46.6402832,51.1391602 45.4317871,50.296875 45.292627,48.9858398 L46.5890137,48.9858398 C46.801416,49.6523438 47.4312988,50.0771484 48.442041,50.0771484 C49.5040527,50.0771484 50.2657715,49.5717773 50.2657715,48.8466797 C50.2657715,48.3046875 49.8556152,47.9384766 49.0133301,47.7333984 L47.6583496,47.4038086 C46.1788574,47.0449219 45.5050293,46.4077148 45.5050293,45.2651367 Z M56.1920605,51.1391602 C54.1705762,51.1391602 52.8741895,49.5351562 52.8741895,47.0522461 C52.8741895,44.5766602 54.1852246,42.965332 56.1920605,42.965332 C57.2906934,42.965332 58.2208691,43.4853516 58.6676465,44.3496094 L58.7775098,44.3496094 L58.7775098,39.9697266 L60.0372754,39.9697266 L60.0372754,51 L58.8361035,51 L58.8361035,49.7402344 L58.718916,49.7402344 C58.2208691,50.6191406 57.2833691,51.1391602 56.1920605,51.1391602 Z M56.4850293,44.1005859 C55.0494824,44.1005859 54.1779004,45.2138672 54.1779004,47.0522461 C54.1779004,48.8979492 55.0421582,50.0039062 56.4850293,50.0039062 C57.9205762,50.0039062 58.8068066,48.8759766 58.8068066,47.0522461 C58.8068066,45.2431641 57.913252,44.1005859 56.4850293,44.1005859 Z M64.6452051,50.0332031 C65.9415918,50.0332031 66.9010645,49.1835938 66.9010645,48.0556641 L66.9010645,47.3305664 L64.777041,47.4697266 C63.5758691,47.550293 63.0485254,47.9677734 63.0485254,48.7587891 C63.0485254,49.5644531 63.7296777,50.0332031 64.6452051,50.0332031 Z M64.4108301,51.1391602 C62.8800684,51.1391602 61.7448145,50.230957 61.7448145,48.7880859 C61.7448145,47.3745117 62.7848535,46.5615234 64.6232324,46.4516602 L66.9010645,46.3125 L66.9010645,45.5947266 C66.9010645,44.6206055 66.2931543,44.0859375 65.1139551,44.0859375 C64.1691309,44.0859375 63.5099512,44.4448242 63.3341699,45.0673828 L62.0597559,45.0673828 C62.2282129,43.800293 63.4733301,42.965332 65.1579004,42.965332 C67.0841699,42.965332 68.1608301,43.9541016 68.1608301,45.5947266 L68.1608301,51 L66.9596582,51 L66.9596582,49.8354492 L66.8424707,49.8354492 C66.3297754,50.6777344 65.4655176,51.1391602 64.4108301,51.1391602 Z M70.600791,53.8564453 C70.432334,53.8564453 70.2126074,53.8417969 70.0368262,53.8125 L70.0368262,52.7358398 C70.1906348,52.7651367 70.3883887,52.7724609 70.5641699,52.7724609 C71.2892676,52.7724609 71.6847754,52.4282227 72.0143652,51.4760742 L72.1608496,51.0073242 L69.2384863,43.1044922 L70.600791,43.1044922 L72.7687598,49.6010742 L72.8859473,49.6010742 L75.0465918,43.1044922 L76.3869238,43.1044922 L73.3034277,51.4833984 C72.6295996,53.3144531 71.9997168,53.8564453 70.600791,53.8564453 Z M77.5012012,53.6879883 L76.556377,53.6879883 L77.2521777,49.5205078 L78.6511035,49.5205078 L77.5012012,53.6879883 Z M87.368916,51 L87.368916,41.8959961 L87.2517285,41.8959961 L84.5637402,43.8442383 L84.5637402,42.4526367 L87.3762402,40.4311523 L88.6872754,40.4311523 L88.6872754,51 L87.368916,51 Z M91.5007715,43.4047852 C91.5007715,41.5297852 92.9216699,40.1821289 94.8845605,40.1821289 C96.7815332,40.1821289 98.2317285,41.4711914 98.2317285,43.1484375 C98.2317285,44.2470703 97.7336816,45.1040039 95.9978418,46.9643555 L93.4563379,49.6962891 L93.4563379,49.8134766 L98.4075098,49.8134766 L98.4075098,51 L91.5666895,51 L91.5666895,50.0917969 L95.2214746,46.1000977 C96.5837793,44.6206055 96.9133691,44.0493164 96.9133691,43.199707 C96.9133691,42.1450195 96.0124902,41.3320312 94.8479395,41.3320312 C93.6101465,41.3320312 92.7751855,42.159668 92.7751855,43.4047852 L92.7751855,43.4121094 L91.5007715,43.4121094 L91.5007715,43.4047852 Z M101.404111,49.7915039 C100.884092,49.7915039 100.451963,49.359375 100.451963,48.8393555 C100.451963,48.3120117 100.884092,47.887207 101.404111,47.887207 C101.931455,47.887207 102.35626,48.3120117 102.35626,48.8393555 C102.35626,49.359375 101.931455,49.7915039 101.404111,49.7915039 Z M101.404111,44.1591797 C100.884092,44.1591797 100.451963,43.7270508 100.451963,43.2070312 C100.451963,42.6796875 100.884092,42.2548828 101.404111,42.2548828 C101.931455,42.2548828 102.35626,42.6796875 102.35626,43.2070312 C102.35626,43.7270508 101.931455,44.1591797 101.404111,44.1591797 Z M107.066729,51 L107.066729,41.8959961 L106.949541,41.8959961 L104.261553,43.8442383 L104.261553,42.4526367 L107.074053,40.4311523 L108.385088,40.4311523 L108.385088,51 L107.066729,51 Z M114.75083,51.2490234 C112.751318,51.2490234 111.315771,50.0112305 111.198584,48.1875 L112.494971,48.1875 C112.612158,49.3300781 113.520361,50.0917969 114.765479,50.0917969 C116.179053,50.0917969 117.123877,49.125 117.123877,47.6748047 C117.123877,46.2246094 116.171729,45.2358398 114.787451,45.2358398 C113.827979,45.2358398 113.036963,45.6679688 112.604834,46.4223633 L111.367041,46.4223633 L111.945654,40.4311523 L117.84165,40.4311523 L117.84165,41.6103516 L112.978369,41.6103516 L112.678076,45.0014648 L112.795264,45.0014648 C113.307959,44.4008789 114.055029,44.1005859 115.02915,44.1005859 C117.035986,44.1005859 118.442236,45.5581055 118.442236,47.6381836 C118.442236,49.7841797 116.940771,51.2490234 114.75083,51.2490234 Z M124.406143,40.4311523 L128.397842,40.4311523 C130.397354,40.4311523 131.781631,41.8374023 131.781631,43.8515625 C131.781631,45.8291016 130.368057,47.2280273 128.383193,47.2280273 L125.724502,47.2280273 L125.724502,51 L124.406143,51 L124.406143,40.4311523 Z M125.724502,41.6030273 L125.724502,46.0561523 L128.053604,46.0561523 C129.555068,46.0561523 130.42665,45.2504883 130.42665,43.8515625 C130.42665,42.4013672 129.584365,41.6030273 128.053604,41.6030273 L125.724502,41.6030273 Z M144.07999,51 L142.849521,51 L142.849521,42.9287109 L142.761631,42.9287109 L139.429111,50.9267578 L138.31583,50.9267578 L134.983311,42.9287109 L134.89542,42.9287109 L134.89542,51 L133.664951,51 L133.664951,40.4311523 L135.195713,40.4311523 L138.813877,49.1762695 L138.931064,49.1762695 L142.549229,40.4311523 L144.07999,40.4311523 L144.07999,51 Z" id="Thursday,12:15PM" fill="#FFFFFF" fill-rule="nonzero" mask="url(#mask-3)"></path>
                <path d="M39.8533429,30 L38.8953351,26.9765625 L34.4392804,26.9765625 L33.4636945,30 L30.8006086,30 L35.2039289,17.3173828 L38.3240461,17.3173828 L42.7273664,30 L39.8533429,30 Z M36.6013898,19.9541016 L35.0105695,24.9287109 L38.3328351,24.9287109 L36.7595929,19.9541016 L36.6013898,19.9541016 Z M52.5907336,20.3056641 L52.5907336,30 L50.1122179,30 L50.1122179,28.4443359 L49.9540148,28.4443359 C49.4969836,29.5693359 48.5917101,30.2109375 47.1239367,30.2109375 C45.0321398,30.2109375 43.7313586,28.875 43.7313586,26.625 L43.7313586,20.3056641 L46.2889757,20.3056641 L46.2889757,25.9658203 C46.2889757,27.3017578 46.8954211,27.9873047 48.0731554,27.9873047 C49.3475695,27.9873047 50.0331164,27.1875 50.0331164,25.8955078 L50.0331164,20.3056641 L52.5907336,20.3056641 Z M58.3408195,30.1494141 C55.8974601,30.1494141 54.3945304,28.2333984 54.3945304,25.1396484 C54.3945304,22.0546875 55.9062492,20.1474609 58.3408195,20.1474609 C59.6503898,20.1474609 60.7314445,20.7802734 61.2324211,21.8525391 L61.3818351,21.8525391 L61.3818351,16.6054688 L63.9394523,16.6054688 L63.9394523,30 L61.4609367,30 L61.4609367,28.4794922 L61.3027336,28.4794922 C60.7841789,29.5253906 59.6855461,30.1494141 58.3408195,30.1494141 Z M59.2109367,22.2919922 C57.848632,22.2919922 57.0224601,23.3730469 57.0224601,25.1484375 C57.0224601,26.9414062 57.8398429,28.0136719 59.2109367,28.0136719 C60.5820304,28.0136719 61.4082023,26.9326172 61.4082023,25.1572266 C61.4082023,23.390625 60.5732414,22.2919922 59.2109367,22.2919922 Z M66.3233273,30 L66.3233273,20.3056641 L68.8809445,20.3056641 L68.8809445,30 L66.3233273,30 Z M67.6065304,18.9521484 C66.6836789,18.9521484 66.0948117,18.4160156 66.0948117,17.6601562 C66.0948117,16.8955078 66.6836789,16.3681641 67.6065304,16.3681641 C68.5205929,16.3681641 69.1182492,16.8955078 69.1182492,17.6601562 C69.1182492,18.4160156 68.5205929,18.9521484 67.6065304,18.9521484 Z M71.9064211,18.0029297 L74.4640382,18.0029297 L74.4640382,20.4023438 L76.4767336,20.4023438 L76.4767336,22.4150391 L74.4640382,22.4150391 L74.4640382,26.7744141 C74.4640382,27.6181641 74.850757,28.0048828 75.7208742,28.0048828 C76.0548586,28.0048828 76.2306398,27.9960938 76.4767336,27.9697266 L76.4767336,29.9208984 C76.1603273,29.9824219 75.6857179,30.0351562 75.1935304,30.0351562 C72.8380617,30.0351562 71.9064211,29.2705078 71.9064211,27.3808594 L71.9064211,22.4150391 L70.3947023,22.4150391 L70.3947023,20.4023438 L71.9064211,20.4023438 L71.9064211,18.0029297 Z M82.5432257,30.2109375 C79.5637336,30.2109375 77.7707648,28.3212891 77.7707648,25.1484375 C77.7707648,22.0107422 79.5901007,20.0947266 82.5432257,20.0947266 C85.4963507,20.0947266 87.3156867,22.0019531 87.3156867,25.1484375 C87.3156867,28.3212891 85.5227179,30.2109375 82.5432257,30.2109375 Z M82.5432257,28.1191406 C83.9055304,28.1191406 84.687757,27.0292969 84.687757,25.1484375 C84.687757,23.2851562 83.8967414,22.1865234 82.5432257,22.1865234 C81.1809211,22.1865234 80.3986945,23.2851562 80.3986945,25.1484375 C80.3986945,27.0380859 81.172132,28.1191406 82.5432257,28.1191406 Z M89.1106945,30 L89.1106945,20.3056641 L91.5892101,20.3056641 L91.5892101,21.8525391 L91.7474132,21.8525391 C92.0022961,20.8857422 93.0042492,20.1474609 94.2347179,20.1474609 C94.5862804,20.1474609 95.0169445,20.1914062 95.2366711,20.2705078 L95.2366711,22.5996094 C95.0345226,22.5205078 94.4368664,22.4414062 94.0237804,22.4414062 C92.6263195,22.4414062 91.6683117,23.2675781 91.6683117,24.6298828 L91.6683117,30 L89.1106945,30 Z M96.6713273,30 L96.6713273,20.3056641 L99.2289445,20.3056641 L99.2289445,30 L96.6713273,30 Z M97.9545304,18.9521484 C97.0316789,18.9521484 96.4428117,18.4160156 96.4428117,17.6601562 C96.4428117,16.8955078 97.0316789,16.3681641 97.9545304,16.3681641 C98.8685929,16.3681641 99.4662492,16.8955078 99.4662492,17.6601562 C99.4662492,18.4160156 98.8685929,18.9521484 97.9545304,18.9521484 Z M110.296413,20.3056641 L110.296413,30 L107.817898,30 L107.817898,28.4443359 L107.659694,28.4443359 C107.202663,29.5693359 106.29739,30.2109375 104.829616,30.2109375 C102.737819,30.2109375 101.437038,28.875 101.437038,26.625 L101.437038,20.3056641 L103.994655,20.3056641 L103.994655,25.9658203 C103.994655,27.3017578 104.601101,27.9873047 105.778835,27.9873047 C107.053249,27.9873047 107.738796,27.1875 107.738796,25.8955078 L107.738796,20.3056641 L110.296413,20.3056641 Z M112.574819,30 L112.574819,20.3056641 L115.053335,20.3056641 L115.053335,21.8876953 L115.211538,21.8876953 C115.607046,20.7802734 116.617788,20.0947266 117.892202,20.0947266 C119.254507,20.0947266 120.186148,20.7626953 120.572866,21.8876953 L120.731069,21.8876953 C121.179312,20.8066406 122.295523,20.0947266 123.649038,20.0947266 C125.582632,20.0947266 126.786734,21.3515625 126.786734,23.3466797 L126.786734,30 L124.229116,30 L124.229116,24.0234375 C124.229116,22.8720703 123.692984,22.3007812 122.611929,22.3007812 C121.574819,22.3007812 120.906851,23.0390625 120.906851,24.0673828 L120.906851,30 L118.445913,30 L118.445913,23.9179688 C118.445913,22.8896484 117.848257,22.3007812 116.846304,22.3007812 C115.844351,22.3007812 115.132437,23.0830078 115.132437,24.1640625 L115.132437,30 L112.574819,30 Z" id="Auditorium" fill="#FFFFFF" fill-rule="nonzero" mask="url(#mask-3)"></path>
            </g>
        </g>
    </g>
</svg>