<?xml version="1.0" encoding="UTF-8"?>
<svg width="171px" height="111px" viewBox="0 0 171 111" version="1.1" xmlns="http://www.w3.org/2000/svg" xmlns:xlink="http://www.w3.org/1999/xlink">
    <!-- Generator: Sketch 53.2 (72643) - https://sketchapp.com -->
    <title>Tile 8</title>
    <desc>Created with Sketch.</desc>
    <defs>
        <radialGradient cx="80.4347072%" cy="76.8940563%" fx="80.4347072%" fy="76.8940563%" r="226.08468%" gradientTransform="translate(0.804347,0.768941),scale(0.605096,1.000000),rotate(-139.555110),translate(-0.804347,-0.768941)" id="radialGradient-1">
            <stop stop-color="#D22C9F" offset="0%"></stop>
            <stop stop-color="#F46095" offset="100%"></stop>
        </radialGradient>
        <path d="M17.9471964,-7.25088215e-16 L139.052804,-1.05126862e-15 C145.293435,-2.19765397e-15 147.556438,0.649779278 149.83792,1.86992893 C152.119401,3.09007857 153.909921,4.88059859 155.130071,7.16208008 C156.350221,9.44356156 157,11.7065652 157,17.9471964 L157,77.0528036 C157,83.2934348 156.350221,85.5564384 155.130071,87.8379199 C153.909921,90.1194014 152.119401,91.9099214 149.83792,93.1300711 C147.556438,94.3502207 145.293435,95 139.052804,95 L17.9471964,95 C11.7065652,95 9.44356156,94.3502207 7.16208008,93.1300711 C4.88059859,91.9099214 3.09007857,90.1194014 1.86992893,87.8379199 C0.649779278,85.5564384 2.80864756e-16,83.2934348 -4.83392144e-16,77.0528036 L-1.2929647e-15,17.9471964 C-2.0572216e-15,11.7065652 0.649779278,9.44356156 1.86992893,7.16208008 C3.09007857,4.88059859 4.88059859,3.09007857 7.16208008,1.86992893 C9.44356156,0.649779278 11.7065652,4.21297134e-16 17.9471964,-7.25088215e-16 Z" id="path-2"></path>
        <filter x="-5.7%" y="-6.3%" width="111.5%" height="118.9%" filterUnits="objectBoundingBox" id="filter-4">
            <feOffset dx="0" dy="3" in="SourceAlpha" result="shadowOffsetOuter1"></feOffset>
            <feGaussianBlur stdDeviation="2.5" in="shadowOffsetOuter1" result="shadowBlurOuter1"></feGaussianBlur>
            <feColorMatrix values="0 0 0 0 0   0 0 0 0 0   0 0 0 0 0  0 0 0 0.1 0" type="matrix" in="shadowBlurOuter1"></feColorMatrix>
        </filter>
    </defs>
    <g id="iOS---1.2" stroke="none" stroke-width="1" fill="none" fill-rule="evenodd">
        <g id="Artboard" transform="translate(-1294.000000, -31.000000)">
            <g id="Tile-8" transform="translate(1379.878376, 83.543275) rotate(3.000000) translate(-1379.878376, -83.543275) translate(1301.378376, 36.043275)">
                <mask id="mask-3" fill="white">
                    <use xlink:href="#path-2"></use>
                </mask>
                <g id="Rectangle-4">
                    <use fill="black" fill-opacity="1" filter="url(#filter-4)" xlink:href="#path-2"></use>
                    <use fill="url(#radialGradient-1)" fill-rule="evenodd" xlink:href="#path-2"></use>
                </g>
                <g id="Arrow(s)" mask="url(#mask-3)">
                    <g transform="translate(58.666920, 63.966421)" id="One-arrow">
                        <g transform="translate(12.825141, 0.517682)">
                            <path d="M13.7996028,11.0116907 L8.90421765,16.0297893 C8.23964805,16.7110177 7.16517005,16.7140953 6.50430396,16.0366631 C5.84343783,15.359231 5.8464401,14.2578189 6.51100969,13.5765904 L11.4063948,8.55849189 L6.48025833,3.50887112 C5.8156887,2.82764264 5.81268643,1.72623057 6.47355256,1.04879841 C7.13441868,0.371366262 8.20889665,0.374443772 8.87346625,1.05567225 L15.0202244,7.35651223 C15.6745699,8.02726028 15.677526,9.11172752 15.026827,9.77873767 L13.8118138,11.0242078 L13.7996028,11.0116907 Z M5.84372296,11.1793803 L3.39584608,13.6886185 C2.73276489,14.3683213 1.66365153,14.3744242 1.00791458,13.7022498 C0.35217764,13.0300754 0.358131355,11.9341624 1.02121255,11.2544597 L3.46908943,8.74522146 L1.0141561,6.22874991 C0.351074888,5.54904713 0.345121184,4.45313414 1.00085813,3.78095974 C1.65659507,3.10878533 2.72570842,3.11488829 3.38878961,3.79459107 L7.04119182,7.53854863 C7.69407179,8.20779444 7.69993391,9.2868472 7.05428523,9.94868048 L5.84870205,11.1844842 L5.84372296,11.1793803 Z" id="Arrow" fill="#FFFFFF" fill-rule="nonzero"></path>
                        </g>
                    </g>
                </g>
                <path d="M31.8030859,51 L30.4847266,51 L30.4847266,41.6176758 L27.0789648,41.6176758 L27.0789648,40.4311523 L35.2088477,40.4311523 L35.2088477,41.6176758 L31.8030859,41.6176758 L31.8030859,51 Z M38.5936328,51.1391602 C36.3450977,51.1391602 34.9534961,49.5864258 34.9534961,47.0522461 C34.9534961,44.5107422 36.3450977,42.965332 38.5936328,42.965332 C40.842168,42.965332 42.2337695,44.5107422 42.2337695,47.0522461 C42.2337695,49.5864258 40.842168,51.1391602 38.5936328,51.1391602 Z M38.5936328,50.0039062 C40.0877734,50.0039062 40.9300586,48.9199219 40.9300586,47.0522461 C40.9300586,45.1772461 40.0877734,44.1005859 38.5936328,44.1005859 C37.0994922,44.1005859 36.257207,45.1772461 36.257207,47.0522461 C36.257207,48.9199219 37.0994922,50.0039062 38.5936328,50.0039062 Z M46.8636719,51.1391602 C44.8421875,51.1391602 43.5458008,49.5351562 43.5458008,47.0522461 C43.5458008,44.5766602 44.8568359,42.965332 46.8636719,42.965332 C47.9623047,42.965332 48.8924805,43.4853516 49.3392578,44.3496094 L49.4491211,44.3496094 L49.4491211,39.9697266 L50.7088867,39.9697266 L50.7088867,51 L49.5077148,51 L49.5077148,49.7402344 L49.3905273,49.7402344 C48.8924805,50.6191406 47.9549805,51.1391602 46.8636719,51.1391602 Z M47.1566406,44.1005859 C45.7210937,44.1005859 44.8495117,45.2138672 44.8495117,47.0522461 C44.8495117,48.8979492 45.7137695,50.0039062 47.1566406,50.0039062 C48.5921875,50.0039062 49.478418,48.8759766 49.478418,47.0522461 C49.478418,45.2431641 48.5848633,44.1005859 47.1566406,44.1005859 Z M55.3168164,50.0332031 C56.6132031,50.0332031 57.5726758,49.1835938 57.5726758,48.0556641 L57.5726758,47.3305664 L55.4486523,47.4697266 C54.2474805,47.550293 53.7201367,47.9677734 53.7201367,48.7587891 C53.7201367,49.5644531 54.4012891,50.0332031 55.3168164,50.0332031 Z M55.0824414,51.1391602 C53.5516797,51.1391602 52.4164258,50.230957 52.4164258,48.7880859 C52.4164258,47.3745117 53.4564648,46.5615234 55.2948437,46.4516602 L57.5726758,46.3125 L57.5726758,45.5947266 C57.5726758,44.6206055 56.9647656,44.0859375 55.7855664,44.0859375 C54.8407422,44.0859375 54.1815625,44.4448242 54.0057812,45.0673828 L52.7313672,45.0673828 C52.8998242,43.800293 54.1449414,42.965332 55.8295117,42.965332 C57.7557812,42.965332 58.8324414,43.9541016 58.8324414,45.5947266 L58.8324414,51 L57.6312695,51 L57.6312695,49.8354492 L57.514082,49.8354492 C57.0013867,50.6777344 56.1371289,51.1391602 55.0824414,51.1391602 Z M61.2724023,53.8564453 C61.1039453,53.8564453 60.8842187,53.8417969 60.7084375,53.8125 L60.7084375,52.7358398 C60.8622461,52.7651367 61.06,52.7724609 61.2357812,52.7724609 C61.9608789,52.7724609 62.3563867,52.4282227 62.6859766,51.4760742 L62.8324609,51.0073242 L59.9100977,43.1044922 L61.2724023,43.1044922 L63.4403711,49.6010742 L63.5575586,49.6010742 L65.7182031,43.1044922 L67.0585352,43.1044922 L63.9750391,51.4833984 C63.3012109,53.3144531 62.6713281,53.8564453 61.2724023,53.8564453 Z M68.1728125,53.6879883 L67.2279883,53.6879883 L67.9237891,49.5205078 L69.3227148,49.5205078 L68.1728125,53.6879883 Z M75.4477539,43.4047852 C75.4477539,41.5297852 76.8686523,40.1821289 78.831543,40.1821289 C80.7285156,40.1821289 82.1787109,41.4711914 82.1787109,43.1484375 C82.1787109,44.2470703 81.6806641,45.1040039 79.9448242,46.9643555 L77.4033203,49.6962891 L77.4033203,49.8134766 L82.3544922,49.8134766 L82.3544922,51 L75.5136719,51 L75.5136719,50.0917969 L79.168457,46.1000977 C80.5307617,44.6206055 80.8603516,44.0493164 80.8603516,43.199707 C80.8603516,42.1450195 79.9594727,41.3320312 78.7949219,41.3320312 C77.5571289,41.3320312 76.722168,42.159668 76.722168,43.4047852 L76.722168,43.4121094 L75.4477539,43.4121094 L75.4477539,43.4047852 Z M85.3510937,49.7915039 C84.8310742,49.7915039 84.3989453,49.359375 84.3989453,48.8393555 C84.3989453,48.3120117 84.8310742,47.887207 85.3510937,47.887207 C85.8784375,47.887207 86.3032422,48.3120117 86.3032422,48.8393555 C86.3032422,49.359375 85.8784375,49.7915039 85.3510937,49.7915039 Z M85.3510937,44.1591797 C84.8310742,44.1591797 84.3989453,43.7270508 84.3989453,43.2070312 C84.3989453,42.6796875 84.8310742,42.2548828 85.3510937,42.2548828 C85.8784375,42.2548828 86.3032422,42.6796875 86.3032422,43.2070312 C86.3032422,43.7270508 85.8784375,44.1591797 85.3510937,44.1591797 Z M90.5742578,46.1293945 L90.5742578,45.0014648 L91.8559961,45.0014648 C93.057168,45.0014648 93.9067773,44.2250977 93.9067773,43.1264648 C93.9067773,42.0498047 93.0937891,41.3320312 91.8779687,41.3320312 C90.6621484,41.3320312 89.8638086,42.0058594 89.7539453,43.1411133 L88.472207,43.1411133 C88.604043,41.3100586 89.9150781,40.1821289 91.9292383,40.1821289 C93.7749414,40.1821289 95.2471094,41.4125977 95.2471094,42.9506836 C95.2471094,44.2104492 94.5513086,45.1333008 93.394082,45.4116211 L93.394082,45.5288086 C94.8296289,45.7119141 95.7012109,46.7080078 95.7012109,48.1508789 C95.7012109,49.894043 94.0679102,51.2490234 91.9805078,51.2490234 C89.8345117,51.2490234 88.3550195,50.0551758 88.2598047,48.2460938 L89.5342187,48.2460938 C89.6514062,49.3740234 90.6035547,50.0991211 91.9658594,50.0991211 C93.3574609,50.0991211 94.3462305,49.2714844 94.3462305,48.1142578 C94.3462305,46.8911133 93.4160547,46.1293945 91.9145898,46.1293945 L90.5742578,46.1293945 Z M101.100156,51.2490234 C98.7197852,51.2490234 97.3501562,49.2275391 97.3501562,45.7119141 C97.3501562,42.2255859 98.7344336,40.1821289 101.100156,40.1821289 C103.45123,40.1821289 104.835508,42.2329102 104.835508,45.7338867 C104.835508,49.2421875 103.473203,51.2490234 101.100156,51.2490234 Z M101.100156,50.0991211 C102.660215,50.0991211 103.509824,48.5463867 103.509824,45.7119141 C103.509824,42.9067383 102.645566,41.3393555 101.100156,41.3393555 C99.5547461,41.3393555 98.6758398,42.9213867 98.6758398,45.7119141 C98.6758398,48.5390625 99.5400977,50.0991211 101.100156,50.0991211 Z M110.858008,40.4311523 L114.849707,40.4311523 C116.849219,40.4311523 118.233496,41.8374023 118.233496,43.8515625 C118.233496,45.8291016 116.819922,47.2280273 114.835059,47.2280273 L112.176367,47.2280273 L112.176367,51 L110.858008,51 L110.858008,40.4311523 Z M112.176367,41.6030273 L112.176367,46.0561523 L114.505469,46.0561523 C116.006934,46.0561523 116.878516,45.2504883 116.878516,43.8515625 C116.878516,42.4013672 116.03623,41.6030273 114.505469,41.6030273 L112.176367,41.6030273 Z M130.531855,51 L129.301387,51 L129.301387,42.9287109 L129.213496,42.9287109 L125.880977,50.9267578 L124.767695,50.9267578 L121.435176,42.9287109 L121.347285,42.9287109 L121.347285,51 L120.116816,51 L120.116816,40.4311523 L121.647578,40.4311523 L125.265742,49.1762695 L125.38293,49.1762695 L129.001094,40.4311523 L130.531855,40.4311523 L130.531855,51 Z" id="Today,2:30PM" fill="#FFFFFF" fill-rule="nonzero" mask="url(#mask-3)"></path>
                <path d="M43.6316203,30 L41.1706828,30 L41.1706828,21.5185547 L41.0300578,21.5185547 L37.8044718,29.2705078 L36.0378703,29.2705078 L32.8034953,21.5185547 L32.6628703,21.5185547 L32.6628703,30 L30.2019328,30 L30.2019328,17.3173828 L33.330839,17.3173828 L36.837675,25.8427734 L36.9958781,25.8427734 L40.5115031,17.3173828 L43.6316203,17.3173828 L43.6316203,30 Z M49.6629562,28.2246094 C50.8494796,28.2246094 51.745964,27.46875 51.745964,26.484375 L51.745964,25.7724609 L49.7860031,25.8955078 C48.6873703,25.9746094 48.1512375,26.3701172 48.1512375,27.0644531 C48.1512375,27.7851562 48.7752609,28.2246094 49.6629562,28.2246094 Z M48.8192062,30.1494141 C46.955925,30.1494141 45.6463546,29.0068359 45.6463546,27.2314453 C45.6463546,25.4736328 46.9910812,24.4541016 49.3992843,24.3134766 L51.745964,24.1728516 L51.745964,23.3818359 C51.745964,22.5732422 51.1658859,22.1162109 50.1111984,22.1162109 C49.1883468,22.1162109 48.5731125,22.4326172 48.362175,23.0126953 L46.0067062,23.0126953 C46.1736984,21.2197266 47.8172531,20.0947266 50.2518234,20.0947266 C52.8182296,20.0947266 54.268425,21.3076172 54.268425,23.3818359 L54.268425,30 L51.7899093,30 L51.7899093,28.734375 L51.6317062,28.734375 C51.1307296,29.6220703 50.0760421,30.1494141 48.8192062,30.1494141 Z M56.511675,30 L56.511675,20.3056641 L59.0692921,20.3056641 L59.0692921,30 L56.511675,30 Z M57.7948781,18.9521484 C56.8720265,18.9521484 56.2831593,18.4160156 56.2831593,17.6601562 C56.2831593,16.8955078 56.8720265,16.3681641 57.7948781,16.3681641 C58.7089406,16.3681641 59.3065968,16.8955078 59.3065968,17.6601562 C59.3065968,18.4160156 58.7089406,18.9521484 57.7948781,18.9521484 Z M61.3652765,30 L61.3652765,20.3056641 L63.8437921,20.3056641 L63.8437921,21.8613281 L64.0019953,21.8613281 C64.4502375,20.7714844 65.4346125,20.0947266 66.8672296,20.0947266 C69.02055,20.0947266 70.1807062,21.4130859 70.1807062,23.7333984 L70.1807062,30 L67.623089,30 L67.623089,24.3398438 C67.623089,23.0039062 67.0518,22.3007812 65.8389093,22.3007812 C64.6523859,22.3007812 63.9228937,23.1357422 63.9228937,24.4101562 L63.9228937,30 L61.3652765,30 Z M82.5246281,16.9921875 C86.2687687,16.9921875 88.6154484,19.5498047 88.6154484,23.6542969 C88.6154484,27.7675781 86.2775578,30.3251953 82.5246281,30.3251953 C78.7629093,30.3251953 76.4162296,27.7675781 76.4162296,23.6542969 C76.4162296,19.5410156 78.7980656,16.9921875 82.5246281,16.9921875 Z M82.5246281,19.3212891 C80.4679875,19.3212891 79.13205,21 79.13205,23.6542969 C79.13205,26.2998047 80.4416203,27.9960938 82.5246281,27.9960938 C84.5900578,27.9960938 85.9084171,26.2998047 85.9084171,23.6542969 C85.9084171,21 84.5900578,19.3212891 82.5246281,19.3212891 Z M91.3333078,30 L91.3333078,22.4150391 L89.7688546,22.4150391 L89.7688546,20.4023438 L91.3333078,20.4023438 L91.3333078,19.4179688 C91.3333078,17.4931641 92.3176828,16.5175781 94.6555734,16.5175781 C95.1741281,16.5175781 95.6047921,16.5527344 95.9739328,16.6142578 L95.9739328,18.4248047 C95.8069406,18.4072266 95.5432687,18.3808594 95.2092843,18.3808594 C94.2073312,18.3808594 93.8381906,18.7763672 93.8381906,19.6025391 L93.8381906,20.4023438 L95.8948312,20.4023438 L95.8948312,22.4150391 L93.890925,22.4150391 L93.890925,30 L91.3333078,30 Z M98.4808546,30 L98.4808546,22.4150391 L96.9164015,22.4150391 L96.9164015,20.4023438 L98.4808546,20.4023438 L98.4808546,19.4179688 C98.4808546,17.4931641 99.4652296,16.5175781 101.80312,16.5175781 C102.321675,16.5175781 102.752339,16.5527344 103.12148,16.6142578 L103.12148,18.4248047 C102.954487,18.4072266 102.690816,18.3808594 102.356831,18.3808594 C101.354878,18.3808594 100.985737,18.7763672 100.985737,19.6025391 L100.985737,20.4023438 L103.042378,20.4023438 L103.042378,22.4150391 L101.038472,22.4150391 L101.038472,30 L98.4808546,30 Z M104.811019,30 L104.811019,20.3056641 L107.368636,20.3056641 L107.368636,30 L104.811019,30 Z M106.094222,18.9521484 C105.17137,18.9521484 104.582503,18.4160156 104.582503,17.6601562 C104.582503,16.8955078 105.17137,16.3681641 106.094222,16.3681641 C107.008284,16.3681641 107.605941,16.8955078 107.605941,17.6601562 C107.605941,18.4160156 107.008284,18.9521484 106.094222,18.9521484 Z M118.242745,23.7246094 L115.85212,23.7246094 C115.676339,22.8017578 115.017159,22.1953125 113.927316,22.1953125 C112.547433,22.1953125 111.773995,23.2236328 111.773995,25.1308594 C111.773995,27.0644531 112.556222,28.1103516 113.927316,28.1103516 C114.973214,28.1103516 115.658761,27.6005859 115.85212,26.6425781 L118.242745,26.6425781 C118.031808,28.8134766 116.449777,30.2109375 113.927316,30.2109375 C110.903878,30.2109375 109.190011,28.3828125 109.190011,25.1308594 C109.190011,21.9140625 110.895089,20.0947266 113.927316,20.0947266 C116.493722,20.0947266 118.031808,21.5185547 118.242745,23.7246094 Z M124.142245,22.0546875 C122.955722,22.0546875 122.120761,22.8808594 122.03287,24.1376953 L126.16373,24.1376953 C126.110995,22.8544922 125.337558,22.0546875 124.142245,22.0546875 Z M126.216464,27.2402344 L128.5983,27.2402344 C128.211581,29.0683594 126.541659,30.2109375 124.168612,30.2109375 C121.215487,30.2109375 119.475253,28.3476562 119.475253,25.2011719 C119.475253,22.0458984 121.250644,20.0947266 124.133456,20.0947266 C126.989902,20.0947266 128.677402,21.9140625 128.677402,24.9902344 L128.677402,25.7724609 L122.024081,25.7724609 L122.024081,25.9042969 C122.059237,27.3457031 122.902987,28.2421875 124.238925,28.2421875 C125.249667,28.2421875 125.944003,27.8818359 126.216464,27.2402344 Z" id="MainOffice" fill="#FFFFFF" fill-rule="nonzero" mask="url(#mask-3)"></path>
            </g>
        </g>
    </g>
</svg>