<svg width="29" height="19" viewBox="0 0 29 19" fill="none" xmlns="http://www.w3.org/2000/svg">
<path d="M2.52246 6.27841H3.47772V4.35369H5.40243V3.39844H3.47772V1.47727H2.52246V3.39844H0.601296V4.35369H2.52246V6.27841ZM9.78986 0.227273H8.72097L6.90634 1.41335V2.46449L8.6464 1.32812H8.68901V7.5H9.78986V0.227273ZM14.2892 7.62074C15.9688 7.62074 16.9525 6.25 16.9525 3.86719C16.9525 1.50213 15.9546 0.127841 14.2892 0.127841C12.6201 0.127841 11.6258 1.49858 11.6222 3.86719C11.6222 6.24645 12.6059 7.61719 14.2892 7.62074ZM14.2892 6.67259C13.3055 6.67259 12.7124 5.68537 12.7124 3.86719C12.716 2.05611 13.309 1.05824 14.2892 1.05824C15.2657 1.05824 15.8623 2.05611 15.8623 3.86719C15.8623 5.68537 15.2693 6.67259 14.2892 6.67259ZM20.7442 7.62074C22.4239 7.62074 23.4076 6.25 23.4076 3.86719C23.4076 1.50213 22.4097 0.127841 20.7442 0.127841C19.0752 0.127841 18.0809 1.49858 18.0773 3.86719C18.0773 6.24645 19.061 7.61719 20.7442 7.62074ZM20.7442 6.67259C19.7606 6.67259 19.1675 5.68537 19.1675 3.86719C19.1711 2.05611 19.7641 1.05824 20.7442 1.05824C21.7208 1.05824 22.3174 2.05611 22.3174 3.86719C22.3174 5.68537 21.7243 6.67259 20.7442 6.67259ZM28.7689 3.37713C28.5487 2.52841 27.8847 1.97443 26.7057 1.97443C25.4735 1.97443 24.5999 2.62429 24.5999 3.5902C24.5999 4.36435 25.0686 4.87926 26.0914 5.10653L27.0146 5.30895C27.5402 5.42614 27.7852 5.66051 27.7852 6.00142C27.7852 6.42401 27.3343 6.75426 26.6382 6.75426C26.0026 6.75426 25.5942 6.48082 25.4664 5.9446L24.4401 6.10085C24.6176 7.06676 25.4202 7.61009 26.6453 7.61009C27.9628 7.61009 28.8754 6.91051 28.8754 5.9233C28.8754 5.1527 28.3854 4.67685 27.384 4.44602L26.5175 4.24716C25.9173 4.10511 25.6581 3.9027 25.6617 3.53338C25.6581 3.11435 26.1127 2.81605 26.7164 2.81605C27.3769 2.81605 27.6823 3.18182 27.8066 3.54759L28.7689 3.37713ZM3.02628 18.5H4.08807V15.1371C4.08807 14.402 4.60298 13.8906 5.20668 13.8906C5.79616 13.8906 6.20455 14.2812 6.20455 14.8743V18.5H7.26278V15.0234C7.26278 14.3665 7.66406 13.8906 8.35653 13.8906C8.91761 13.8906 9.37926 14.2031 9.37926 14.9418V18.5H10.4411V14.8423C10.4411 13.5959 9.74503 12.9744 8.75781 12.9744C7.97301 12.9744 7.38352 13.3509 7.12074 13.9332H7.06392C6.82599 13.3366 6.32528 12.9744 5.5973 12.9744C4.87642 12.9744 4.3402 13.3331 4.11293 13.9332H4.04545V13.0455H3.02628V18.5ZM14.1618 18.6101C15.6994 18.6101 16.7044 17.4844 16.7044 15.7976C16.7044 14.1001 15.6994 12.9744 14.1618 12.9744C12.6241 12.9744 11.6191 14.1001 11.6191 15.7976C11.6191 17.4844 12.6241 18.6101 14.1618 18.6101ZM14.1653 17.7188C13.1603 17.7188 12.6916 16.8416 12.6916 15.794C12.6916 14.75 13.1603 13.8622 14.1653 13.8622C15.1632 13.8622 15.6319 14.75 15.6319 15.794C15.6319 16.8416 15.1632 17.7188 14.1653 17.7188ZM17.8896 18.5H18.9513V15.169C18.9513 14.4553 19.5018 13.9403 20.2546 13.9403C20.4748 13.9403 20.7234 13.9794 20.8086 14.0043V12.9886C20.7021 12.9744 20.4925 12.9638 20.3576 12.9638C19.7184 12.9638 19.1715 13.326 18.9727 13.9119H18.9158V13.0455H17.8896V18.5ZM23.883 18.6101C25.0726 18.6101 25.9142 18.0241 26.1557 17.1364L25.1507 16.9553C24.959 17.4702 24.4973 17.733 23.8936 17.733C22.9846 17.733 22.3738 17.1435 22.3453 16.0923H26.2232V15.7159C26.2232 13.745 25.0442 12.9744 23.8084 12.9744C22.2885 12.9744 21.2871 14.1321 21.2871 15.8082C21.2871 17.5021 22.2743 18.6101 23.883 18.6101ZM22.3489 15.2969C22.3915 14.5227 22.9526 13.8516 23.8155 13.8516C24.6394 13.8516 25.1792 14.4624 25.1827 15.2969H22.3489Z" fill="#7F879D"/>
</svg>
