<?xml version="1.0" encoding="UTF-8"?>
<svg width="770px" height="571px" viewBox="0 0 770 571" version="1.1" xmlns="http://www.w3.org/2000/svg" xmlns:xlink="http://www.w3.org/1999/xlink">
    <!-- Generator: Sketch 53.2 (72643) - https://sketchapp.com -->
    <title>undraw_startup_life_2du2</title>
    <desc>Created with Sketch.</desc>
    <defs>
        <linearGradient x1="49.9965333%" y1="100.009955%" x2="49.9965333%" y2="-0.0036235744%" id="linearGradient-1">
            <stop stop-color="#808080" stop-opacity="0.25" offset="0%"></stop>
            <stop stop-color="#808080" stop-opacity="0.12" offset="54%"></stop>
            <stop stop-color="#808080" stop-opacity="0.1" offset="100%"></stop>
        </linearGradient>
    </defs>
    <g id="Web---1.5" stroke="none" stroke-width="1" fill="none" fill-rule="evenodd">
        <g id="Accounts-Setup" transform="translate(-500.000000, -50.000000)">
            <g id="undraw_startup_life_2du2" transform="translate(885.000000, 335.500000) scale(-1, 1) translate(-885.000000, -335.500000) translate(500.000000, 50.000000)">
                <path d="M339.669958,21.5592615 C309.21592,9.16057557 277.041589,-1.1901131 244.197103,0.110641894 C195.904516,2.01334202 149.587849,31.1073566 126.850953,73.8177852 C107.58228,110.003682 105.205649,152.416598 96.9081677,192.573948 C86.6693103,242.057989 67.0897408,289.065061 46.1698621,335.048134 C34.9361359,359.748641 23.0806168,384.981904 21.2428731,412.062516 C18.6797044,449.646032 36.6218857,487.105009 64.7683804,512.109948 C92.9148752,537.114887 130.277723,550.309247 167.785657,553.187514 C187.745211,554.716593 208.60291,553.298216 226.337827,543.992283 C245.088339,534.153593 258.767784,516.365077 277.594294,506.664766 C295.045949,497.670183 315.461485,496.404023 335.054872,497.580238 C360.715986,499.122861 386.001716,504.505507 410.070738,513.549081 C437.457264,523.851337 462.92314,538.761587 490.247486,549.209141 C517.571833,559.656694 548.101867,565.475497 576.034189,556.76459 C602.246216,548.57952 623.014101,528.701493 641.66789,508.567466 C672.36212,475.512522 700.356747,440.042938 725.381949,402.500583 C742.246356,377.205049 757.943174,350.511896 765.404689,321.023504 C779.657566,264.648229 760.036544,201.042694 716.517945,162.580476 C680.481589,130.663546 632.092279,116.825727 584.725472,108.398495 C541.531588,100.739262 491.587796,100.261857 451.82759,80.2938845 C413.912037,61.2530455 379.409437,37.7495098 339.669958,21.5592615 Z" id="Path" fill="#00B476" fill-rule="nonzero" opacity="0.1"></path>
                <polygon id="Path" fill="#464A5F" fill-rule="nonzero" points="645.307692 398.829268 646.475524 400 647 397.986063 646.440559 396 645 396"></polygon>
                <polygon id="Path" fill="#000000" fill-rule="nonzero" opacity="0.1" points="645.307692 398.829268 646.475524 400 647 397.986063 646.440559 396 645 396"></polygon>
                <polygon id="Path" fill="#9C9CA1" fill-rule="nonzero" points="645.717678 399 647 400.429752 645.717678 402 644.340369 401.46281 644 400.768595"></polygon>
                <polygon id="Path" fill="#000000" fill-rule="nonzero" opacity="0.1" points="645.717678 399 647 400.429752 645.717678 402 644.340369 401.46281 644 400.768595"></polygon>
                <path d="M433.067386,189 L306.561257,315.242896 C301.826443,319.968491 301.810981,327.62475 306.52667,332.369352 L500.436326,527.414901 C505.157293,532.159788 512.834896,532.199918 517.60541,527.504641 L646,401.213424 L433.067386,189 Z" id="Path" fill="#9C9CA1" fill-rule="nonzero"></path>
                <path d="M433.067386,189 L306.561257,315.242896 C301.826443,319.968491 301.810981,327.62475 306.52667,332.369352 L500.436326,527.414901 C505.157293,532.159788 512.834896,532.199918 517.60541,527.504641 L646,401.213424 L433.067386,189 Z" id="Path" fill="#000000" fill-rule="nonzero" opacity="0.1"></path>
                <path d="M433.067386,187 L306.561257,313.244156 C301.826443,317.969798 301.810981,325.626134 306.52667,330.370783 L500.436326,525.411376 C505.155381,530.158233 512.832996,530.20145 517.60541,525.50802 L646,399.181027 L433.067386,187 Z" id="Path" fill="#9C9CA1" fill-rule="nonzero"></path>
                <path d="M446.592802,97.2358836 L435,185.330887 L647.663667,398 L659.878253,308.452197 C660.438539,304.390034 659.044454,300.302174 656.119919,297.431674 L450.931467,95.7277392 C450.234636,95.0498334 449.215615,94.823346 448.297805,95.1423819 C447.379995,95.4614179 446.720292,96.2714391 446.592802,97.2358836 Z" id="Path" fill="#464A5F" fill-rule="nonzero"></path>
                <path d="M446.592802,97.2358836 L435,185.330887 L647.663667,398 L659.878253,308.452197 C660.438539,304.390034 659.044454,300.302174 656.119919,297.431674 L450.931467,95.7277392 C450.234636,95.0498334 449.215615,94.823346 448.297805,95.1423819 C447.379995,95.4614179 446.720292,96.2714391 446.592802,97.2358836 Z" id="Path" fill="#000000" fill-rule="nonzero" opacity="0.1"></path>
                <path d="M444.592802,98.2358836 L433,186.330887 L645.663667,399 L657.878253,309.452197 C658.438539,305.390034 657.044454,301.302174 654.119919,298.431674 L448.931467,96.7277392 C448.234636,96.0498334 447.215615,95.823346 446.297805,96.1423819 C445.379995,96.4614179 444.720292,97.2714391 444.592802,98.2358836 Z" id="Path" fill="#464A5F" fill-rule="nonzero"></path>
                <g id="Group" opacity="0.1" transform="translate(380.000000, 225.000000)" fill="#000000" fill-rule="nonzero">
                    <path d="M53.2926586,1.40444109 L45.5924471,9.17383686 C45.1327864,9.63205754 44.8744302,10.2544031 44.8744302,10.9034441 C44.8744302,11.5524851 45.1327864,12.1748307 45.5924471,12.6330514 L53.396435,20.6376737 C54.333188,21.6105926 55.8807445,21.6415437 56.8556495,20.706858 L64.5212689,13.4701813 C65.4911309,12.5542397 65.5465751,11.0295237 64.6458006,10.0455589 L56.8418127,1.50821752 C56.3949373,1.00656279 55.7611412,0.711152782 55.0895986,0.691517032 C54.4180559,0.671881283 53.768082,0.929754153 53.2926586,1.40444109 L53.2926586,1.40444109 Z" id="Path"></path>
                    <path d="M67.6414804,15.7601813 L59.9689426,23.5226586 C59.0344909,24.4729666 59.0344909,25.9969729 59.9689426,26.947281 L67.7729305,34.9519033 C68.2218916,35.4208475 68.8390924,35.6917341 69.4881734,35.7047158 C70.1372544,35.7176974 70.7647927,35.4717055 71.232145,35.0210876 L78.8977644,27.7913293 C79.8828351,26.8684058 79.9384524,25.3234825 79.0222961,24.3321148 L71.1906344,15.8155287 C70.7369844,15.3203643 70.0994524,15.0338544 69.427979,15.0233831 C68.7565056,15.0129118 68.1103498,15.2794031 67.6414804,15.7601813 L67.6414804,15.7601813 Z" id="Path"></path>
                    <path d="M82.7098187,30.8216012 L75.037281,38.590997 C74.1065242,39.5428143 74.1065242,41.063802 75.037281,42.0156193 L82.8481873,50.0202417 C83.7849403,50.9931606 85.3324968,51.0241117 86.3074018,50.089426 L93.9730211,42.8527492 C94.9428832,41.9368076 94.9983274,40.4120916 94.0975529,39.4281269 L86.293565,30.8907855 C85.8410709,30.3826335 85.1971001,30.0862911 84.5168084,30.0731581 C83.8365166,30.060025 83.1815881,30.3312921 82.7098187,30.8216012 Z" id="Path"></path>
                    <path d="M97.9441994,46.0629003 L90.2785801,53.8668882 C89.3478233,54.8187056 89.3478233,56.3396932 90.2785801,57.2915106 L98.0894864,65.2961329 C99.0262394,66.2690518 100.573796,66.3000029 101.548701,65.3653172 L109.207402,58.1286405 C110.182958,57.2163103 110.241604,55.688445 109.338852,54.7040181 L101.493353,46.1320846 C101.04058,45.636898 100.404471,45.3491588 99.7336187,45.3360817 C99.0627666,45.3230047 98.4159271,45.5857351 97.9441994,46.0629003 L97.9441994,46.0629003 Z" id="Path"></path>
                    <path d="M113.185498,61.3041994 L105.519879,69.087432 C104.566346,70.0433724 104.566346,71.5907061 105.519879,72.5466465 L113.330785,80.5512689 C114.267538,81.5241877 115.815095,81.5551389 116.79,80.6204532 L124.448701,73.3837764 C125.424257,72.4714463 125.482903,70.9435809 124.580151,69.9591541 L116.776163,61.4218127 C116.329303,60.9068161 115.687982,60.6014162 115.006508,60.5790943 C114.325034,60.5567724 113.665102,60.8195495 113.185498,61.3041994 Z" id="Path"></path>
                    <path d="M129.388459,75.57 L119.861782,85.2212085 C119.425861,85.6674398 119.425861,86.3800526 119.861782,86.826284 L129.457644,96.6573716 C129.903875,97.0932933 130.616488,97.0932933 131.062719,96.6573716 L140.589396,87.6634139 C141.044723,87.2340232 141.069411,86.5180737 140.644743,86.0583384 L131.055801,75.57 C130.838918,75.341101 130.53746,75.2114469 130.22213,75.2114469 C129.9068,75.2114469 129.605342,75.341101 129.388459,75.57 Z" id="Path"></path>
                    <path d="M144.629758,90.8112991 L135.103082,100.4971 C134.667991,100.94098 134.667991,101.651376 135.103082,102.095257 L144.698943,111.933263 C145.145174,112.369185 145.857787,112.369185 146.304018,111.933263 L155.830695,102.939305 C156.286023,102.509914 156.31071,101.793965 155.886042,101.33423 L146.2971,90.8458912 C146.085004,90.6124276 145.786223,90.4764725 145.47087,90.4699299 C145.155518,90.4633873 144.851355,90.5868332 144.629758,90.8112991 L144.629758,90.8112991 Z" id="Path"></path>
                    <path d="M158.120695,104.302236 L148.594018,113.988036 C148.158928,114.431917 148.158928,115.142313 148.594018,115.586193 L158.189879,125.424199 C158.63611,125.860121 159.348723,125.860121 159.794955,125.424199 L169.321631,116.430242 C169.776959,116.000851 169.801647,115.284902 169.376979,114.825166 L159.781118,104.37142 C159.574042,104.135447 159.27939,103.994534 158.965713,103.981464 C158.652037,103.968394 158.346684,104.084307 158.120695,104.302236 L158.120695,104.302236 Z" id="Path"></path>
                    <path d="M173.230544,119.412085 L163.703867,129.056375 C163.264237,129.501089 163.264237,130.216736 163.703867,130.66145 L173.299728,140.492538 C173.744442,140.932168 174.46009,140.932168 174.904804,140.492538 L184.43148,131.49858 C184.883147,131.067541 184.90773,130.354632 184.486828,129.893505 L174.897885,119.405166 C174.680054,119.177164 174.378057,119.048759 174.062727,119.050068 C173.747396,119.051376 173.446475,119.182283 173.230544,119.412085 Z" id="Path"></path>
                    <path d="M187.863021,134.044562 L178.336344,143.688852 C177.896714,144.133566 177.896714,144.849213 178.336344,145.293927 L187.932205,155.131934 C188.378437,155.567855 189.09105,155.567855 189.537281,155.131934 L199.063958,146.137976 C199.515624,145.706936 199.540207,144.994028 199.119305,144.5329 L189.49577,134.079154 C189.284708,133.856505 188.993337,133.727558 188.686616,133.721059 C188.379895,133.714561 188.083324,133.831052 187.863021,134.044562 L187.863021,134.044562 Z" id="Path"></path>
                    <path d="M202.495498,148.649366 L192.954985,158.335166 C192.519895,158.779047 192.519895,159.489443 192.954985,159.933323 L202.550846,169.771329 C202.997077,170.207251 203.70969,170.207251 204.155921,169.771329 L213.682598,160.777372 C214.137926,160.347981 214.162614,159.632031 213.737946,159.172296 L204.149003,148.683958 C203.93728,148.454869 203.641477,148.321761 203.329603,148.315236 C203.017728,148.308712 202.716617,148.429332 202.495498,148.649366 L202.495498,148.649366 Z" id="Path"></path>
                    <path d="M217.127976,163.309517 L207.601299,172.960725 C207.165377,173.406956 207.165377,174.119569 207.601299,174.565801 L217.169486,184.396888 C217.606262,184.842567 218.31899,184.857928 218.774562,184.43148 L228.301239,175.437523 C228.756566,175.008132 228.781254,174.292182 228.356586,173.832447 L218.767644,163.344109 C218.556348,163.119329 218.263504,162.989009 217.955074,162.982502 C217.646643,162.975995 217.348564,163.093849 217.127976,163.309517 Z" id="Path"></path>
                    <path d="M39.365861,15.3381571 L31.7002417,23.1006344 C31.2405809,23.5588551 30.9822248,24.1812007 30.9822248,24.8302417 C30.9822248,25.4792827 31.2405809,26.1016283 31.7002417,26.5598489 L39.511148,34.5644713 C39.9601091,35.0334155 40.5773099,35.3043021 41.2263909,35.3172837 C41.8754719,35.3302654 42.5030102,35.0842735 42.9703625,34.6336556 L50.6290634,27.4038973 C51.6198793,26.4846304 51.6787086,24.9364921 50.7605136,23.9446828 L42.9080967,15.400423 C42.4545486,14.9083556 41.8194008,14.6233106 41.1502985,14.6115491 C40.4811962,14.5997875 39.8364228,14.8623338 39.365861,15.3381571 Z" id="Path"></path>
                    <path d="M8.92477341,45.7723263 L1.25223565,53.5348036 C0.29870274,54.490744 0.29870274,56.0380777 1.25223565,56.9940181 L9.05622356,64.9363746 C9.98562633,65.8922649 11.5098976,65.9261376 12.4808459,65.0124773 L20.1464653,57.7758006 C21.1200078,56.8615286 21.1755635,55.3337452 20.270997,54.3511782 L12.4670091,45.8415106 C12.0154613,45.3467088 11.3804935,45.059103 10.7107525,45.0460221 C10.0410115,45.0329412 9.3952976,45.2955337 8.92477341,45.7723263 L8.92477341,45.7723263 Z" id="Path"></path>
                    <path d="M53.7146828,29.6869789 L46.042145,37.4494562 C45.5824843,37.9076769 45.3241281,38.5300225 45.3241281,39.1790634 C45.3241281,39.8281044 45.5824843,40.45045 46.042145,40.9086707 L53.8461329,48.9132931 C54.7809536,49.8881796 56.3285569,49.9222269 57.3053474,48.9893958 L64.9640483,41.7181269 C65.9491191,40.7952033 66.0047364,39.2502801 65.0885801,38.2589124 L57.2845921,29.7284894 C56.8295861,29.2265991 56.1860858,28.9369177 55.508692,28.929041 C54.8312983,28.9211643 54.1812361,29.1958043 53.7146828,29.6869789 L53.7146828,29.6869789 Z" id="Path"></path>
                    <path d="M68.7761027,44.7553172 L61.1104834,52.5177946 C60.1760317,53.4681026 60.1760317,54.9921089 61.1104834,55.9424169 L68.9213897,63.9470393 C69.3703508,64.4159834 69.9875516,64.6868701 70.6366326,64.6998517 C71.2857136,64.7128333 71.9132519,64.4668415 72.3806042,64.0162236 L80.0393051,56.7864653 C81.030121,55.8671984 81.0889503,54.31906 80.1707553,53.3272508 L72.3667674,44.7899094 C71.9081624,44.2859515 71.2603399,43.9958301 70.5789817,43.989266 C69.8976235,43.9827018 69.2443318,44.2602884 68.7761027,44.7553172 Z" id="Path"></path>
                    <path d="M84.0174018,59.9896979 L76.3517825,67.7590937 C75.4173308,68.7094017 75.4173308,70.233408 76.3517825,71.183716 L84.1626888,79.1883384 C85.0923977,80.1459547 86.6196851,80.176809 87.5873112,79.2575227 L95.2529305,72.0277644 C96.2437464,71.1084975 96.3025757,69.5603591 95.3843807,68.5685498 L87.5665559,60.0934743 C87.117554,59.5954259 86.4844358,59.3026196 85.8141591,59.2830208 C85.1438824,59.2634221 84.4947374,59.5187353 84.0174018,59.9896979 Z" id="Path"></path>
                    <path d="M23.7648036,59.636858 L16.0922659,67.3993353 C15.1578142,68.3496434 15.1578142,69.8736497 16.0922659,70.8239577 L23.8962538,78.8285801 C24.3452149,79.2975242 24.9624156,79.5684109 25.6114966,79.5813925 C26.2605776,79.5943741 26.888116,79.3483822 27.3554683,78.8977644 L35.0210876,71.668006 C36.0061584,70.7450825 36.0617756,69.2001593 35.1456193,68.2087915 L27.3416314,59.6783686 C26.8864775,59.1742239 26.2414627,58.883067 25.5622979,58.875185 C24.8831331,58.867303 24.231535,59.1434122 23.7648036,59.636858 L23.7648036,59.636858 Z" id="Path"></path>
                    <path d="M38.8262236,74.6982779 L31.1606042,82.4676737 C30.7009435,82.9258944 30.4425873,83.54824 30.4425873,84.197281 C30.4425873,84.846322 30.7009435,85.4686675 31.1606042,85.9268882 L38.9715106,93.9315106 C39.4204717,94.4004547 40.0376724,94.6713414 40.6867534,94.684323 C41.3358344,94.6973046 41.9633728,94.4513128 42.4307251,94.0006949 L50.089426,86.7709366 C51.0802419,85.8516697 51.1390711,84.3035313 50.2208761,83.3117221 L42.4168882,74.7743807 C41.9641275,74.2649468 41.3195634,73.9672188 40.638163,73.9527768 C39.9567626,73.9383347 39.3001625,74.2084851 38.8262236,74.6982779 L38.8262236,74.6982779 Z" id="Path"></path>
                    <path d="M54.0675227,89.939577 L46.4019033,97.7089728 C45.4674516,98.6592808 45.4674516,100.183287 46.4019033,101.133595 L54.2128097,109.138218 C55.1495626,110.111136 56.6971191,110.142088 57.6720242,109.207402 L65.3307251,101.970725 C66.3062817,101.058395 66.364927,99.5305295 65.4621752,98.5461027 L57.6581873,90.0087613 C57.2044488,89.5002462 56.5593426,89.2037905 55.8779515,89.1906615 C55.1965603,89.1775326 54.5405131,89.448918 54.0675227,89.939577 Z" id="Path"></path>
                    <path d="M99.2587009,75.230997 L91.5930816,83.0003927 C90.6586299,83.9507008 90.6586299,85.4747071 91.5930816,86.4250151 L99.4039879,94.4296375 C99.852949,94.8985816 100.47015,95.1694683 101.119231,95.1824499 C101.768312,95.1954315 102.39585,94.9494396 102.863202,94.4988218 L110.528822,87.2690634 C111.005361,86.827612 111.286393,86.2144992 111.309764,85.5653285 C111.333134,84.9161578 111.096915,84.284424 110.653353,83.8098489 L102.800937,75.3140181 C102.351318,74.8173617 101.717414,74.527216 101.047654,74.5115185 C100.377895,74.495821 99.731094,74.7559502 99.2587009,75.230997 L99.2587009,75.230997 Z" id="Path"></path>
                    <path d="M114.5,90.4722961 L106.827462,98.2416918 C105.893011,99.1919999 105.893011,100.716006 106.827462,101.666314 L114.638369,109.670937 C115.08733,110.139881 115.70453,110.410767 116.353611,110.423749 C117.002692,110.436731 117.630231,110.190739 118.097583,109.740121 L125.763202,102.503444 C126.736745,101.589172 126.792301,100.061389 125.887734,99.0788218 L118.042236,90.5345619 C117.589726,90.0406839 116.954225,89.7543454 116.284492,89.7425727 C115.614759,89.7308001 114.969588,89.9946268 114.5,90.4722961 L114.5,90.4722961 Z" id="Path"></path>
                    <path d="M130.689124,104.738097 L121.162447,114.423897 C120.722817,114.868611 120.722817,115.584259 121.162447,116.028973 L130.765227,125.81855 C131.209941,126.25818 131.925588,126.25818 132.370302,125.81855 L141.896979,116.824592 C142.348645,116.393553 142.373228,115.680645 141.952326,115.219517 L132.363384,104.731178 C132.145355,104.500947 131.84184,104.371103 131.524757,104.372413 C131.207674,104.373723 130.905243,104.506071 130.689124,104.738097 L130.689124,104.738097 Z" id="Path"></path>
                    <path d="M144.193897,118.208278 L134.667221,127.894079 C134.22759,128.338793 134.22759,129.05444 134.667221,129.499154 L144.263082,139.330242 C144.707796,139.769872 145.423443,139.769872 145.868157,139.330242 L155.394834,130.336284 C155.8465,129.905245 155.871083,129.192336 155.450181,128.731208 L145.861239,118.24287 C145.649143,118.009406 145.350362,117.873451 145.035009,117.866909 C144.719657,117.860366 144.415494,117.983812 144.193897,118.208278 Z" id="Path"></path>
                    <path d="M159.303746,133.338882 L149.770151,143.024683 C149.335061,143.468564 149.335061,144.178959 149.770151,144.62284 L159.359094,154.460846 C159.805325,154.896768 160.517938,154.896768 160.964169,154.460846 L170.490846,145.466888 C170.948186,145.039438 170.975963,144.323408 170.553112,143.861813 L160.964169,133.373474 C160.752253,133.142206 160.454963,133.007682 160.141354,133.001149 C159.827745,132.994615 159.525111,133.116641 159.303746,133.338882 L159.303746,133.338882 Z" id="Path"></path>
                    <path d="M173.936224,147.957523 L164.409547,157.643323 C163.969916,158.088037 163.969916,158.803685 164.409547,159.248399 L173.998489,169.079486 C174.447068,169.516246 175.161905,169.516246 175.610483,169.079486 L185.130242,160.085529 C185.587582,159.658079 185.615359,158.942049 185.192508,158.480453 L175.603565,147.992115 C175.391469,147.758651 175.092688,147.622696 174.777335,147.616153 C174.461983,147.609611 174.15782,147.733057 173.936224,147.957523 L173.936224,147.957523 Z" id="Path"></path>
                    <path d="M54.2958308,59.2355891 L46.6232931,67.0119033 C45.6888413,67.9622113 45.6888413,69.4862177 46.6232931,70.4365257 L54.4341994,78.441148 C54.8822135,78.9117857 55.4997324,79.183864 56.1493843,79.196857 C56.7990362,79.2098501 57.4269401,78.9626802 57.8934139,78.5103323 L65.5590332,71.280574 C66.5478398,70.3593533 66.6035699,68.8112975 65.683565,67.8213595 L57.8380665,59.3047734 C57.3875746,58.8081463 56.7522519,58.5192311 56.0818714,58.5061378 C55.4114909,58.4930444 54.7653713,58.7569314 54.2958308,59.2355891 L54.2958308,59.2355891 Z" id="Path"></path>
                    <path d="M69.5371299,74.4768882 L61.8645921,82.2324471 C60.9301404,83.1827552 60.9301404,84.7067615 61.8645921,85.6570695 L69.6754985,93.6616918 C70.1235126,94.1323295 70.7410315,94.4044078 71.3906834,94.4174008 C72.0403353,94.4303939 72.6682392,94.183224 73.134713,93.7308761 L80.8003323,86.5011178 C81.7854031,85.5781943 81.8410203,84.0332711 80.924864,83.0419033 L73.1208761,74.5114804 C72.6646059,74.005977 72.0175267,73.7146017 71.3365914,73.7080289 C70.655656,73.7014562 70.003073,73.9802866 69.5371299,74.4768882 L69.5371299,74.4768882 Z" id="Path"></path>
                    <path d="M84.778429,89.7181873 L77.1058912,97.4529909 C76.1714395,98.403299 76.1714395,99.9273053 77.1058912,100.877613 L84.9098792,108.882236 C85.3588402,109.35118 85.976041,109.622066 86.625122,109.635048 C87.274203,109.64803 87.9017413,109.402038 88.3690937,108.95142 L96.034713,101.721662 C97.0197838,100.798738 97.075401,99.2538149 96.1592447,98.2624471 L88.3552568,89.7251057 C87.8941828,89.2273646 87.2468289,88.9438638 86.5683499,88.9425514 C85.8898708,88.9412391 85.2414251,89.2222335 84.778429,89.7181873 Z" id="Path"></path>
                    <path d="M100.019728,104.959486 L92.3471903,112.721964 C91.4127386,113.672272 91.4127386,115.196278 92.3471903,116.146586 L100.151178,124.151208 C100.600139,124.620153 101.21734,124.891039 101.866421,124.904021 C102.515502,124.917003 103.14304,124.671011 103.610393,124.220393 L111.276012,116.990634 C112.261083,116.067711 112.3167,114.522788 111.400544,113.53142 L103.596556,104.994079 C103.139343,104.492733 102.494167,104.204198 101.815677,104.197636 C101.137188,104.191074 100.486552,104.467077 100.019728,104.959486 Z" id="Path"></path>
                    <path d="M116.222689,119.225287 L106.689094,128.869577 C106.253172,129.315808 106.253172,130.028421 106.689094,130.474653 L116.278036,140.30574 C116.72275,140.745371 117.438398,140.745371 117.883112,140.30574 L127.409789,131.311782 C127.867129,130.884332 127.894906,130.168302 127.472054,129.706707 L117.883112,119.21145 C117.665548,118.984713 117.364141,118.857686 117.049916,118.860305 C116.735692,118.862923 116.436443,118.994955 116.222689,119.225287 Z" id="Path"></path>
                    <path d="M129.713625,132.736979 L120.18003,142.381269 C119.744108,142.8275 119.744108,143.540113 120.18003,143.986344 L129.768973,153.817432 C130.213687,154.257062 130.929334,154.257062 131.374048,153.817432 L140.900725,144.823474 C141.358065,144.396024 141.385842,143.679994 140.962991,143.218399 L131.380967,132.736979 C131.165116,132.50622 130.863273,132.375251 130.547296,132.375251 C130.231319,132.375251 129.929476,132.50622 129.713625,132.736979 Z" id="Path"></path>
                    <path d="M144.816556,147.819154 L135.289879,157.504955 C134.853957,157.951186 134.853957,158.663799 135.289879,159.11003 L144.878822,168.941118 C145.313999,169.390475 146.029764,169.405901 146.483897,168.97571 L156.010574,159.981752 C156.467914,159.554302 156.495691,158.838272 156.07284,158.376677 L146.476979,147.888338 C146.269903,147.652365 145.975251,147.511452 145.661574,147.498382 C145.347898,147.485312 145.042545,147.601225 144.816556,147.819154 Z" id="Path"></path>
                    <path d="M159.455952,162.486224 L149.922356,172.10284 C149.486435,172.549071 149.486435,173.261684 149.922356,173.707915 L159.511299,183.539003 C159.946476,183.98836 160.662242,184.003786 161.116375,183.573595 L170.643051,174.579637 C171.100391,174.152187 171.128168,173.436157 170.705317,172.974562 L161.130211,162.486224 C160.915272,162.25129 160.611504,162.117487 160.293082,162.117487 C159.974659,162.117487 159.670891,162.25129 159.455952,162.486224 L159.455952,162.486224 Z" id="Path"></path>
                    <path d="M188.568701,162.603837 L179.042024,172.289637 C178.602394,172.734352 178.602394,173.449999 179.042024,173.894713 L188.637885,183.725801 C189.073062,184.175158 189.788828,184.190584 190.242961,183.760393 L199.769637,174.766435 C200.221304,174.335396 200.245887,173.622487 199.824985,173.16136 L190.236042,162.673021 C190.028814,162.434866 189.732689,162.292515 189.417268,162.279427 C189.101847,162.266339 188.794947,162.383668 188.568701,162.603837 Z" id="Path"></path>
                    <path d="M203.201178,177.243233 L193.646828,186.887523 C193.207197,187.332237 193.207197,188.047884 193.646828,188.492598 L203.263444,198.323686 C203.698621,198.773043 204.414387,198.788469 204.86852,198.358278 L214.395196,189.36432 C214.846863,188.933281 214.871446,188.220373 214.450544,187.759245 L204.861601,177.270906 C204.649769,177.038746 204.351594,176.904188 204.037358,176.898951 C203.723123,176.893714 203.420629,177.01826 203.201178,177.243233 L203.201178,177.243233 Z" id="Path"></path>
                    <path d="M129.070211,163.572417 L120.076254,172.656314 C119.489955,173.253704 119.489955,174.210556 120.076254,174.807946 L129.132477,184.092477 C129.718491,184.690453 130.675467,184.708916 131.284109,184.133988 L140.278066,175.672749 C140.866588,175.104384 140.909089,174.17544 140.374924,173.55571 L131.318701,163.64852 C131.037748,163.328144 130.6368,163.138234 130.210927,163.12382 C129.785054,163.109405 129.372184,163.271771 129.070211,163.572417 L129.070211,163.572417 Z" id="Path"></path>
                    <path d="M143.702689,178.204894 L134.708731,187.288792 C134.122432,187.886181 134.122432,188.843033 134.708731,189.440423 L143.764955,198.724955 C144.350968,199.32293 145.307945,199.341393 145.916586,198.766465 L154.910544,190.305227 C155.520495,189.730733 155.557435,188.773381 154.993565,188.153595 L145.909668,178.246405 C145.625002,177.943783 145.230314,177.768762 144.814919,177.760949 C144.399523,177.753136 143.998533,177.913191 143.702689,178.204894 L143.702689,178.204894 Z" id="Path"></path>
                    <path d="M158.36284,192.837372 L149.368882,201.921269 C148.782583,202.518659 148.782583,203.47551 149.368882,204.0729 L158.425106,213.357432 C159.009209,213.957383 159.966231,213.978924 160.576737,213.405861 L169.570695,204.937704 C170.184322,204.364888 170.22138,203.404469 169.653716,202.786073 L160.597492,192.885801 C160.315111,192.569898 159.914301,192.385341 159.490686,192.376161 C159.067072,192.36698 158.658642,192.534 158.36284,192.837372 Z" id="Path"></path>
                    <path d="M173.258218,207.179275 L163.731541,216.830483 C163.295619,217.276715 163.295619,217.989328 163.731541,218.435559 L173.327402,228.266647 C173.772116,228.706277 174.487763,228.706277 174.932477,228.266647 L184.459154,219.272689 C184.914482,218.843298 184.93917,218.127349 184.514502,217.667613 L174.925559,207.179275 C174.708676,206.950376 174.407218,206.820722 174.091888,206.820722 C173.776559,206.820722 173.4751,206.950376 173.258218,207.179275 L173.258218,207.179275 Z" id="Path"></path>
                    <path d="M24.2836858,29.6108761 L16.1061027,37.9545015 C15.646442,38.4127222 15.3880858,39.0350678 15.3880858,39.6841088 C15.3880858,40.3331498 15.646442,40.9554953 16.1061027,41.413716 L38.9369184,64.0162236 C39.8740571,64.9407636 41.3744159,64.959098 42.3338671,64.0577341 L50.8573716,56.0392749 C51.341049,55.5844268 51.6193297,54.9526941 51.6284597,54.2888061 C51.6375898,53.6249181 51.3767869,52.9857716 50.9058006,52.5177946 L27.7290634,29.5901208 C26.7705925,28.6476968 25.2307331,28.6569731 24.2836858,29.6108761 L24.2836858,29.6108761 Z" id="Path"></path>
                    <path d="M173.728671,177.20864 L163.731541,187.392568 C163.293938,187.84349 163.293938,188.560558 163.731541,189.01148 L188.368066,213.398943 C188.811092,213.829531 189.51628,213.829531 189.959305,213.398943 L200.378459,203.595529 C200.602565,203.380278 200.729238,203.082971 200.729238,202.772236 C200.729238,202.4615 200.602565,202.164193 200.378459,201.948943 L175.312991,177.153293 C174.854784,176.745855 174.157328,176.77022 173.728671,177.20864 L173.728671,177.20864 Z" id="Path"></path>
                    <path d="M69.8069486,104.246888 L60.266435,113.697462 C60.0513808,113.910539 59.9303969,114.200722 59.9303969,114.503459 C59.9303969,114.806197 60.0513808,115.09638 60.266435,115.309456 L113.393051,169.764411 C113.839283,170.200333 114.551896,170.200333 114.998127,169.764411 L125.37577,159.974834 C125.597693,159.759811 125.722964,159.464006 125.722964,159.155 C125.722964,158.845994 125.597693,158.550189 125.37577,158.335166 L71.4120242,104.226133 C70.960176,103.79593 70.2475216,103.805146 69.8069486,104.246888 Z" id="Path"></path>
                </g>
                <path d="M433.238328,224.734761 L425.687264,232.635865 C424.770912,233.600565 424.770912,235.147652 425.687264,236.112351 L433.340094,244.238199 C434.258703,245.225852 435.776284,245.257271 436.732306,244.308431 L444.249447,236.962159 C445.200524,236.032346 445.254894,234.484539 444.371567,233.485673 L436.718737,224.819039 C436.277661,224.312625 435.654573,224.016625 434.996072,224.000679 C434.337571,223.984733 433.701795,224.250251 433.238328,224.734761 L433.238328,224.734761 Z" id="Path" fill="#464A5F" fill-rule="nonzero"></path>
                <path d="M448.206583,239.745149 L440.686878,247.62821 C439.771041,248.59328 439.771041,250.14096 440.686878,251.10603 L448.335415,259.234997 C448.775433,259.711226 449.38034,259.98632 450.016491,259.999503 C450.652643,260.012687 451.267681,259.762874 451.725724,259.305256 L459.238648,251.96319 C460.204097,251.02593 460.258606,249.457008 459.360699,248.45024 L451.68504,239.808382 C451.241371,239.304592 450.617062,239.012346 449.958957,239.000382 C449.300852,238.988419 448.667034,239.257794 448.206583,239.745149 L448.206583,239.745149 Z" id="Path" fill="#464A5F" fill-rule="nonzero"></path>
                <path d="M463.205472,254.77614 L455.684296,262.65802 C454.771901,263.623618 454.771901,265.166626 455.684296,266.132224 L463.327547,274.238699 C464.24582,275.225703 465.762847,275.257103 466.718519,274.308885 L474.232913,266.967436 C474.700051,266.519594 474.975539,265.897604 474.998448,265.239035 C475.021358,264.580466 474.789799,263.939586 474.354988,263.45814 L466.704955,254.797196 C466.255029,254.292704 465.623001,254.004033 464.959633,254.000042 C464.296265,253.996051 463.661036,254.277097 463.205472,254.77614 Z" id="Path" fill="#464A5F" fill-rule="nonzero"></path>
                <path d="M478.208415,269.737681 L470.697897,277.611123 C469.767368,278.582314 469.767368,280.148597 470.697897,281.119787 L478.350762,289.238836 C479.268562,290.225663 480.784806,290.257056 481.739985,289.309009 L489.243724,281.968884 C490.199542,281.043512 490.257001,279.493806 489.372515,278.495307 L481.685758,269.807854 C481.242145,269.305589 480.618907,269.013736 479.961628,269.000473 C479.30435,268.987209 478.670598,269.253695 478.208415,269.737681 L478.208415,269.737681 Z" id="Path" fill="#464A5F" fill-rule="nonzero"></path>
                <path d="M493.203128,284.762648 L485.699991,292.627693 C484.76667,293.596265 484.76667,295.164044 485.699991,296.132615 L493.345335,304.235995 C494.260341,305.223763 495.775141,305.25826 496.731227,304.313103 L504.227592,296.980806 C504.696612,296.535473 504.974112,295.914473 504.998279,295.256131 C505.022446,294.597788 504.791275,293.95678 504.356256,293.475885 L496.717684,284.825737 C496.272607,284.311431 495.640644,284.012346 494.973704,284.000374 C494.306764,283.988402 493.665163,284.264626 493.203128,284.762648 L493.203128,284.762648 Z" id="Path" fill="#464A5F" fill-rule="nonzero"></path>
                <path d="M509.663279,299.35896 L500.320034,309.085079 C499.893322,309.534014 499.893322,310.252499 500.320034,310.701434 L509.731131,320.651464 C510.159497,321.102218 510.858502,321.117754 511.305301,320.68645 L520.648546,311.59008 C521.095106,311.155799 521.119319,310.431698 520.702827,309.966727 L511.291731,299.35896 C511.079227,299.129689 510.785053,299 510.477505,299 C510.169956,299 509.875783,299.129689 509.663279,299.35896 Z" id="Path" fill="#464A5F" fill-rule="nonzero"></path>
                <path d="M524.663279,314.358681 L515.320034,324.112198 C514.893322,324.560785 514.893322,325.278711 515.320034,325.727297 L524.731131,335.669593 C525.16877,336.110136 525.867662,336.110136 526.305301,335.669593 L535.648546,326.580293 C536.095106,326.146351 536.119319,325.422811 535.702827,324.958203 L526.291731,314.358681 C526.079227,314.129588 525.785053,314 525.477505,314 C525.169956,314 524.875783,314.129588 524.663279,314.358681 L524.663279,314.358681 Z" id="Path" fill="#464A5F" fill-rule="nonzero"></path>
                <path d="M537.666402,327.344708 L528.320138,337.091927 C527.893287,337.540223 527.893287,338.257686 528.320138,338.705982 L537.727489,348.669806 C538.165269,349.110065 538.864387,349.110065 539.302168,348.669806 L548.648432,339.586376 C549.095137,339.152714 549.119357,338.429642 548.702731,337.965333 L539.295381,327.372657 C539.086537,327.140023 538.794358,327.00544 538.486696,327.000161 C538.179034,326.994883 537.88266,327.119368 537.666402,327.344708 L537.666402,327.344708 Z" id="Path" fill="#464A5F" fill-rule="nonzero"></path>
                <path d="M553.666337,343.351885 L544.323365,353.095314 C543.892212,353.5446 543.892212,354.267604 544.323365,354.716889 L553.734187,364.649036 C554.160973,365.103012 554.862936,365.118597 555.308312,364.683984 L564.651284,355.597572 C565.09424,355.162102 565.118349,354.441865 564.705564,353.975997 L555.301526,343.372854 C555.091634,343.138851 554.797567,343.004056 554.488309,343.00009 C554.179052,342.996124 553.881819,343.123337 553.666337,343.351885 Z" id="Path" fill="#464A5F" fill-rule="nonzero"></path>
                <path d="M567.669461,357.327141 L558.323469,367.07213 C557.892177,367.521487 557.892177,368.244607 558.323469,368.693964 L567.730546,378.669645 C568.168314,379.110118 568.867411,379.110118 569.305179,378.669645 L578.651171,369.581779 C579.094271,369.146239 579.118388,368.425887 578.705469,367.959944 L569.271243,357.362094 C569.064184,357.137121 568.778339,357.006827 568.477435,357.000261 C568.176532,356.993695 567.885586,357.111402 567.669461,357.327141 L567.669461,357.327141 Z" id="Path" fill="#464A5F" fill-rule="nonzero"></path>
                <path d="M582.663279,372.344901 L573.320034,382.123814 C572.893322,382.571961 572.893322,383.289186 573.320034,383.737334 L582.731131,393.669916 C583.16877,394.110028 583.867662,394.110028 584.305301,393.669916 L593.648546,384.589497 C594.095106,384.155978 594.119319,383.433146 593.702827,382.968991 L584.298516,372.379825 C584.090504,372.144117 583.797476,372.006855 583.488195,372.00025 C583.178915,371.993644 582.880609,372.118277 582.663279,372.344901 L582.663279,372.344901 Z" id="Path" fill="#464A5F" fill-rule="nonzero"></path>
                <path d="M596.676114,386.348021 L587.321052,396.141319 C586.892983,396.592503 586.892983,397.313025 587.321052,397.764209 L596.716877,407.66943 C597.15507,408.11019 597.854846,408.11019 598.293039,407.66943 L607.648101,398.575653 C608.095226,398.141497 608.11947,397.417602 607.702451,396.952764 L598.286245,386.348021 C598.074159,386.125419 597.784033,386 597.48118,386 C597.178326,386 596.8882,386.125419 596.676114,386.348021 Z" id="Path" fill="#464A5F" fill-rule="nonzero"></path>
                <path d="M419.197169,238.732004 L411.686658,246.62018 C410.771114,247.585877 410.771114,249.134561 411.686658,250.100258 L419.339517,258.2345 C419.779393,258.711038 420.384105,258.986311 421.020053,258.999503 C421.656,259.012695 422.270841,258.76272 422.728737,258.304805 L430.23247,250.957974 C431.203237,250.023821 431.260876,248.450614 430.36126,247.442744 L422.667731,238.809339 C422.225239,238.30742 421.603982,238.015183 420.948402,238.000575 C420.292822,237.985967 419.660036,238.250259 419.197169,238.732004 L419.197169,238.732004 Z" id="Path" fill="#464A5F" fill-rule="nonzero"></path>
                <path d="M389.224851,269.734402 L381.701266,277.616068 C380.766245,278.586687 380.766245,280.157779 381.701266,281.128397 L389.360533,289.248902 C390.271892,290.21947 391.766572,290.253863 392.71867,289.326174 L400.235471,281.978381 C401.205081,281.043015 401.259729,279.47119 400.357585,278.466052 L392.698318,269.818698 C392.258471,269.312566 391.63653,269.016634 390.979146,269.00068 C390.321761,268.984726 389.687115,269.250163 389.224851,269.734402 L389.224851,269.734402 Z" id="Path" fill="#464A5F" fill-rule="nonzero"></path>
                <path d="M434.209367,252.775601 L426.687111,260.646809 C425.770963,261.610429 425.770963,263.155782 426.687111,264.119401 L434.338242,272.236147 C434.778409,272.71166 435.383521,272.986341 436.019888,272.999504 C436.656256,273.012668 437.271502,272.76323 437.729701,272.3063 L445.23839,264.961242 C446.204166,264.025391 446.258694,262.458827 445.360483,261.453573 L437.709352,252.803662 C437.261357,252.296578 436.629394,252.005399 435.965277,252.000074 C435.30116,251.99475 434.664908,252.275761 434.209367,252.775601 Z" id="Path" fill="#464A5F" fill-rule="nonzero"></path>
                <path d="M449.197169,268.735524 L441.686658,276.626622 C440.771114,277.591816 440.771114,279.139695 441.686658,280.104889 L449.339517,288.234899 C449.779393,288.711189 450.384105,288.986318 451.020053,288.999503 C451.656,289.012688 452.270841,288.762843 452.728737,288.305167 L460.23247,280.962159 C461.203237,280.028492 461.260876,278.456103 460.36126,277.448758 L452.674509,268.805792 C452.22988,268.30468 451.606984,268.013744 450.950322,268.000474 C450.293659,267.987205 449.660299,268.252756 449.197169,268.735524 Z" id="Path" fill="#464A5F" fill-rule="nonzero"></path>
                <path d="M464.208297,283.759464 L456.68759,291.648028 C455.770803,292.612912 455.770803,294.160294 456.68759,295.125178 L464.350838,303.252576 C465.264547,304.221123 466.759958,304.252387 467.71072,303.322822 L475.231428,295.982172 C476.203513,295.048806 476.26123,293.476922 475.360393,292.4699 L467.703933,283.801612 C467.255594,283.29808 466.626473,283.008146 465.9649,283.000169 C465.303327,282.992192 464.667849,283.266879 464.208297,283.759464 L464.208297,283.759464 Z" id="Path" fill="#464A5F" fill-rule="nonzero"></path>
                <path d="M404.206583,282.747931 L396.686878,290.629908 C395.771041,291.594846 395.771041,293.142314 396.686878,294.107251 L404.335415,302.235102 C404.775433,302.711265 405.38034,302.986322 406.016491,302.999504 C406.652643,303.012685 407.267681,302.762906 407.725724,302.305351 L415.238648,294.964294 C416.204097,294.027162 416.258606,292.458455 415.360699,291.451826 L407.67826,282.80413 C407.234849,282.301727 406.611132,282.010938 405.954121,282.000302 C405.297109,281.989667 404.664928,282.260125 404.206583,282.747931 L404.206583,282.747931 Z" id="Path" fill="#464A5F" fill-rule="nonzero"></path>
                <path d="M419.197169,297.773391 L411.686658,305.650875 C410.771114,306.614404 410.771114,308.159612 411.686658,309.123141 L419.339517,317.239123 C420.257315,318.225577 421.773558,318.256959 422.728737,317.30927 L430.23247,309.978931 C431.203237,309.046876 431.260876,307.4772 430.36126,306.471592 L422.71518,297.815479 C422.266805,297.303591 421.632624,297.008153 420.965048,297.000166 C420.297471,296.99218 419.65686,297.272367 419.197169,297.773391 L419.197169,297.773391 Z" id="Path" fill="#464A5F" fill-rule="nonzero"></path>
                <path d="M434.201785,313.742937 L426.687045,321.65369 C425.770985,322.616999 425.770985,324.161855 426.687045,325.125164 L434.344212,333.239297 C435.262528,334.225526 436.779624,334.256901 437.735341,333.309428 L445.243299,325.973747 C446.199654,325.048935 446.257145,323.500168 445.372162,322.502273 L437.721776,313.848133 C437.281777,313.327981 436.652021,313.021002 435.983987,313.001038 C435.315954,312.981073 434.670103,313.24993 434.201785,313.742937 L434.201785,313.742937 Z" id="Path" fill="#464A5F" fill-rule="nonzero"></path>
                <path d="M479.193574,298.779781 L471.686357,306.653645 C470.771214,307.616731 470.771214,309.16123 471.686357,310.124316 L479.335859,318.23657 C479.775543,318.711819 480.37999,318.986348 481.015658,318.999505 C481.651327,319.012661 482.265898,318.763361 482.723592,318.306684 L490.23081,310.972702 C490.699147,310.526304 490.975547,309.904643 490.998454,309.246164 C491.021362,308.587685 490.788875,307.947067 490.352768,307.466974 L482.710042,298.814838 C482.261982,298.302179 481.627168,298.006774 480.959229,298.000115 C480.291291,297.993456 479.651095,298.276149 479.193574,298.779781 L479.193574,298.779781 Z" id="Path" fill="#464A5F" fill-rule="nonzero"></path>
                <path d="M494.20728,313.759722 L486.686937,321.641397 C485.771021,322.605439 485.771021,324.151469 486.686937,325.115511 L494.342904,333.235812 C494.782959,333.711533 495.387917,333.986335 496.024123,333.999504 C496.660328,334.012673 497.275419,333.763126 497.733501,333.305996 L505.247063,325.964738 C506.201294,325.037254 506.255747,323.487391 505.369124,322.490625 L497.719938,313.829906 C497.27642,313.31441 496.645223,313.013785 495.978426,313.000462 C495.311628,312.987139 494.669691,313.262327 494.20728,313.759722 Z" id="Path" fill="#464A5F" fill-rule="nonzero"></path>
                <path d="M510.666337,328.362247 L501.323365,338.112891 C500.892212,338.562187 500.892212,339.285208 501.323365,339.734504 L510.734187,349.66688 C511.170326,350.11104 511.872173,350.11104 512.308312,349.66688 L521.651284,340.580258 C522.09424,340.144778 522.118349,339.424525 521.705564,338.958646 L512.301526,328.362247 C512.088826,328.13099 511.793181,328 511.483932,328 C511.174682,328 510.879037,328.13099 510.666337,328.362247 L510.666337,328.362247 Z" id="Path" fill="#464A5F" fill-rule="nonzero"></path>
                <path d="M524.666337,341.362247 L515.323365,351.112891 C514.892212,351.562187 514.892212,352.285208 515.323365,352.734504 L524.734187,362.66688 C525.170326,363.11104 525.872173,363.11104 526.308312,362.66688 L535.651284,353.580258 C536.09424,353.144778 536.118349,352.424525 535.705564,351.958646 L526.301526,341.362247 C526.088826,341.13099 525.793181,341 525.483932,341 C525.174682,341 524.879037,341.13099 524.666337,341.362247 Z" id="Path" fill="#464A5F" fill-rule="nonzero"></path>
                <path d="M539.671512,356.341832 L530.320082,366.102943 C529.893306,366.551879 529.893306,367.270364 530.320082,367.719299 L539.725801,377.669336 C540.163506,378.110221 540.862503,378.110221 541.300208,377.669336 L550.64485,368.572959 C551.093452,368.140642 551.120698,367.416458 550.705927,366.949606 L541.300208,356.376818 C541.092341,356.142916 540.800731,356.00686 540.493115,356.000252 C540.185498,355.993644 539.888646,356.11706 539.671512,356.341832 Z" id="Path" fill="#464A5F" fill-rule="nonzero"></path>
                <path d="M553.666528,371.362283 L544.323371,381.113891 C543.89221,381.563232 543.89221,382.286324 544.323371,382.735664 L553.727594,392.669023 C554.167532,393.110326 554.868598,393.110326 555.308535,392.669023 L564.644907,383.581503 C565.093437,383.149606 565.120679,382.426127 564.705973,381.95973 L555.30175,371.362283 C555.089045,371.131003 554.793394,371 554.484139,371 C554.174884,371 553.879233,371.131003 553.666528,371.362283 L553.666528,371.362283 Z" id="Path" fill="#464A5F" fill-rule="nonzero"></path>
                <path d="M434.202661,282.741289 L426.68655,290.624707 C425.77115,291.589821 425.77115,293.137572 426.68655,294.102686 L434.338208,302.232022 C434.777088,302.709992 435.382017,302.986309 436.018424,302.999505 C436.654831,303.0127 437.269933,302.76168 437.726897,302.302284 L445.23623,294.959884 C446.204877,294.024311 446.259471,292.452136 445.358223,291.446775 L437.672678,282.811551 C437.23137,282.307186 436.609001,282.01377 435.952288,282.000472 C435.295575,281.987175 434.662628,282.255173 434.202661,282.741289 L434.202661,282.741289 Z" id="Path" fill="#464A5F" fill-rule="nonzero"></path>
                <path d="M449.21372,297.758565 L441.702884,305.621625 C441.252911,306.085783 441,306.716193 441,307.373644 C441,308.031095 441.252911,308.661504 441.702884,309.125662 L449.349173,317.234005 C449.787745,317.710741 450.392249,317.986345 451.028209,317.999506 C451.66417,318.012668 452.27884,317.762295 452.735483,317.304086 L460.239546,309.980647 C461.203856,309.045765 461.258301,307.480823 460.361453,306.47661 L452.721938,297.835654 C452.281034,297.318069 451.650802,297.015205 450.984176,297.000557 C450.317549,296.985909 449.67546,297.260814 449.21372,297.758565 Z" id="Path" fill="#464A5F" fill-rule="nonzero"></path>
                <path d="M465.206583,312.772747 L457.686878,320.645066 C456.771041,321.608821 456.771041,323.154393 457.686878,324.118148 L465.335415,332.236039 C465.775433,332.711619 466.38034,332.986339 467.016491,332.999504 C467.652643,333.012669 468.267681,332.763197 468.725724,332.306202 L476.238648,324.97414 C477.204097,324.038157 477.258606,322.471373 476.360699,321.465977 L468.712163,312.807829 C468.264057,312.299388 467.631733,312.006771 466.966758,312.000116 C466.301784,311.993461 465.664108,312.27337 465.206583,312.772747 L465.206583,312.772747 Z" id="Path" fill="#464A5F" fill-rule="nonzero"></path>
                <path d="M480.216503,328.748424 L472.703122,336.62085 C472.252997,337.085147 472,337.715746 472,338.373394 C472,339.031042 472.252997,339.66164 472.703122,340.125937 L480.345226,348.236709 C480.784874,348.711872 481.389272,348.986351 482.024888,348.999505 C482.660505,349.012658 483.275026,348.763404 483.732683,348.306811 L491.239289,340.981179 C492.203925,340.046016 492.258389,338.480606 491.361237,337.476091 L483.719133,328.825536 C483.276049,328.313878 482.647798,328.015176 481.983989,328.000562 C481.32018,327.985948 480.680219,328.25673 480.216503,328.748424 Z" id="Path" fill="#464A5F" fill-rule="nonzero"></path>
                <path d="M496.671567,342.347932 L487.320676,352.096983 C486.893108,352.547739 486.893108,353.267576 487.320676,353.718331 L496.725854,363.649085 C497.152692,364.102998 497.85474,364.11858 498.30017,363.684028 L507.644276,354.59889 C508.093665,354.164679 508.120876,353.439173 507.705348,352.970554 L498.30017,342.375886 C498.092397,342.141372 497.799936,342.005451 497.491723,342.00016 C497.18351,341.99487 496.886813,342.120679 496.671567,342.347932 Z" id="Path" fill="#464A5F" fill-rule="nonzero"></path>
                <path d="M509.671567,356.351926 L500.320676,366.101633 C499.893108,366.552741 499.893108,367.273143 500.320676,367.724252 L509.725854,377.64881 C510.152692,378.103078 510.85474,378.118673 511.30017,377.68378 L520.644276,368.591514 C521.093665,368.156962 521.120876,367.430887 520.705348,366.961901 L511.306956,356.379902 C511.099022,356.142957 510.805087,356.005461 510.495151,356.000159 C510.185215,355.994857 509.887016,356.122223 509.671567,356.351926 Z" id="Path" fill="#464A5F" fill-rule="nonzero"></path>
                <path d="M524.665056,371.341245 L515.320685,381.120541 C514.893105,381.57108 514.893105,382.290571 515.320685,382.74111 L524.72613,392.667095 C525.162334,393.110968 525.864286,393.110968 526.30049,392.667095 L535.644861,383.58632 C536.093449,383.154744 536.120694,382.431803 535.705935,381.965751 L526.293704,371.376172 C526.085843,371.142671 525.794242,371.006848 525.486635,371.000252 C525.179027,370.993655 524.882184,371.116859 524.665056,371.341245 Z" id="Path" fill="#464A5F" fill-rule="nonzero"></path>
                <path d="M539.671842,386.359073 L530.320685,396.110457 C529.893105,396.561643 529.893105,397.282169 530.320685,397.733355 L539.72613,407.666616 C540.162334,408.111128 540.864286,408.111128 541.30049,407.666616 L550.644861,398.572786 C551.093449,398.140589 551.120694,397.416608 550.705935,396.949887 L541.314062,386.387054 C541.107069,386.145876 540.811275,386.005479 540.498931,386.000157 C540.186587,385.994835 539.886453,386.125078 539.671842,386.359073 L539.671842,386.359073 Z" id="Path" fill="#464A5F" fill-rule="nonzero"></path>
                <path d="M568.666337,386.341245 L559.323365,396.120541 C558.892212,396.569548 558.892212,397.292103 559.323365,397.74111 L568.734187,407.667095 C569.170326,408.110968 569.872173,408.110968 570.308312,407.667095 L579.651284,398.58632 C580.09424,398.15112 580.118349,397.43133 579.705564,396.965751 L570.294741,386.376172 C570.086912,386.142671 569.795355,386.006848 569.487793,386.000252 C569.180231,385.993655 568.883433,386.116859 568.666337,386.341245 Z" id="Path" fill="#464A5F" fill-rule="nonzero"></path>
                <path d="M583.666337,400.325117 L574.323365,410.111694 C573.892212,410.561036 573.892212,411.284129 574.323365,411.73347 L583.734187,421.666847 C584.170326,422.111051 584.872173,422.111051 585.308312,421.666847 L594.651284,412.57931 C595.09424,412.143786 595.118349,411.42346 594.705564,410.957534 L585.294741,400.395021 C585.091658,400.156592 584.802688,400.014213 584.49506,400.001007 C584.187432,399.987801 583.887968,400.10492 583.666337,400.325117 Z" id="Path" fill="#464A5F" fill-rule="nonzero"></path>
                <path d="M509.37936,387.449159 L500.437192,396.34684 C499.854269,396.931984 499.854269,397.86922 500.437192,398.454364 L509.441267,407.548566 C510.023906,408.134284 510.975372,408.152368 511.580509,407.589226 L520.522677,399.301439 C521.125515,398.737114 521.162127,397.802327 520.60522,397.193916 L511.601145,387.489819 C511.317308,387.184891 510.918984,387.007945 510.4991,387.000261 C510.079216,386.992577 509.674495,387.154827 509.37936,387.449159 Z" id="Path" fill="#464A5F" fill-rule="nonzero"></path>
                <path d="M523.381209,402.435544 L514.437278,411.342046 C513.854241,411.92777 513.854241,412.865936 514.437278,413.45166 L523.463769,422.582012 C524.05436,423.139329 524.985321,423.139329 525.575912,422.582012 L534.519843,414.286008 C535.126402,413.722733 535.163136,412.784077 534.602403,412.176395 L525.575912,402.476244 C525.29283,402.179531 524.900338,402.007928 524.487253,402.000268 C524.074167,401.992607 523.675408,402.149536 523.381209,402.435544 L523.381209,402.435544 Z" id="Path" fill="#464A5F" fill-rule="nonzero"></path>
                <path d="M538.376896,416.452109 L529.437077,425.347327 C528.854308,425.932309 528.854308,426.869286 529.437077,427.454268 L538.438787,436.545953 C539.01968,437.135132 539.973938,437.153269 540.577466,436.586601 L549.517285,428.301109 C550.127218,427.74019 550.164053,426.799721 549.599806,426.194168 L540.598097,416.492758 C540.31538,416.18613 539.916807,416.007953 539.496399,416.00026 C539.075992,415.992566 538.670977,416.156037 538.376896,416.452109 L538.376896,416.452109 Z" id="Path" fill="#464A5F" fill-rule="nonzero"></path>
                <path d="M553.663609,430.328505 L544.320637,440.106766 C543.893121,440.557257 543.893121,441.276672 544.320637,441.727163 L553.731459,451.652099 C554.159812,452.102032 554.858797,452.117539 555.305584,451.687021 L564.648556,442.607207 C565.095103,442.173717 565.119315,441.450933 564.702836,440.986809 L555.298799,430.398349 C555.095566,430.157921 554.805152,430.014211 554.495813,430.000998 C554.186474,429.987785 553.885492,430.106234 553.663609,430.328505 Z" id="Path" fill="#464A5F" fill-rule="nonzero"></path>
                <path d="M404.836541,252.721337 L396.71325,261.110104 C396.256641,261.570422 396,262.195616 396,262.847628 C396,263.49964 396.256641,264.124834 396.71325,264.585152 L419.392489,287.291117 C420.323406,288.219889 421.813804,288.238307 422.766885,287.332817 L431.233801,279.277656 C431.714267,278.820726 431.9907,278.186101 431.99977,277.519175 C432.008839,276.852248 431.749768,276.210176 431.281908,275.740057 L408.259044,252.707437 C407.308823,251.758791 405.779198,251.765004 404.836541,252.721337 Z" id="Path" fill="#464A5F" fill-rule="nonzero"></path>
                <path d="M554.235179,400.338446 L544.325336,410.578758 C543.891555,411.031254 543.891555,411.750826 544.325336,412.203322 L568.746756,436.675931 C569.185913,437.108023 569.884944,437.108023 570.324101,436.675931 L580.652284,426.83829 C580.874433,426.622287 581,426.323942 581,426.012122 C581,425.700302 580.874433,425.401957 580.652284,425.185955 L555.805667,400.303733 C555.35821,399.885666 554.664185,399.901006 554.235179,400.338446 Z" id="Path" fill="#464A5F" fill-rule="nonzero"></path>
                <path d="M449.907691,328.336526 L440.337098,337.761123 C440.121365,337.973614 440,338.262999 440,338.564904 C440,338.86681 440.121365,339.156195 440.337098,339.368686 L493.631213,393.673957 C494.078852,394.108681 494.793711,394.108681 495.241349,393.673957 L505.651712,383.911289 C505.874334,383.696857 506,383.401865 506,383.093709 C506,382.785553 505.874334,382.490561 505.651712,382.276129 L451.517827,328.315828 C451.064554,327.886808 450.349653,327.895998 449.907691,328.336526 L449.907691,328.336526 Z" id="Path" fill="#464A5F" fill-rule="nonzero"></path>
                <path d="M412.707826,334.820218 L370.832126,376.551453 C368.416465,378.962164 368.38566,382.874429 370.763058,385.323119 L448.215491,465.113408 C449.369207,466.30259 450.94783,466.981419 452.601906,466.999624 C454.255981,467.01783 455.849072,466.373911 457.028519,465.210409 L500.147437,422.661593 C501.326675,421.495613 501.993469,419.905854 501.999952,418.244861 C502.006435,416.583869 501.352071,414.98892 500.18197,413.813712 L421.486321,334.820218 C419.060211,332.393261 415.133936,332.393261 412.707826,334.820218 L412.707826,334.820218 Z" id="Path" fill="#000000" fill-rule="nonzero" opacity="0.1"></path>
                <path d="M412.707826,332.799343 L370.832126,374.560873 C368.416465,376.971332 368.38566,380.88319 370.763058,383.331625 L448.215491,463.113604 C449.369207,464.302662 450.94783,464.98142 452.601906,464.999624 C454.255981,465.017828 455.849072,464.373976 457.028519,463.210595 L500.147437,420.666211 C501.326675,419.500351 501.993469,417.910758 501.999952,416.249938 C502.006435,414.589119 501.352071,412.994337 500.18197,411.819251 L421.486321,332.840911 C419.071647,330.40268 415.145341,330.384088 412.707826,332.799343 L412.707826,332.799343 Z" id="Path" fill="#939498" fill-rule="nonzero"></path>
                <path d="M452.624428,114.212434 L442,188.294775 L638.85993,384 L648.882192,310.566535 C649.427941,306.547099 648.057966,302.504349 645.179216,299.639182 L456.991864,112.749011 C456.300639,112.062044 455.279416,111.823828 454.354395,112.133781 C453.429373,112.443733 452.759534,113.248583 452.624428,114.212434 Z" id="Path" fill="#00B476" fill-rule="nonzero"></path>
                <ellipse id="Oval" fill="#00B476" fill-rule="nonzero" opacity="0.1" cx="204" cy="472" rx="16" ry="2"></ellipse>
                <ellipse id="Oval" fill="#00B476" fill-rule="nonzero" opacity="0.1" cx="143" cy="478" rx="16" ry="2"></ellipse>
                <ellipse id="Oval" fill="#00B476" fill-rule="nonzero" opacity="0.1" cx="71" cy="470" rx="16" ry="2"></ellipse>
                <ellipse id="Oval" fill="#00B476" fill-rule="nonzero" opacity="0.1" cx="167.5" cy="495.5" rx="11.5" ry="1.5"></ellipse>
                <ellipse id="Oval" fill="#00B476" fill-rule="nonzero" opacity="0.1" cx="103.5" cy="494.5" rx="11.5" ry="1.5"></ellipse>
                <path d="M142.009471,477 C142.009471,477 164.407168,403.708188 138.498817,374.387325 C119.148755,352.425991 97.1242378,355.074594 87.2695276,357.771479 C82.112335,359.141985 77.8175488,362.702302 75.5212757,367.510613 C72.0659074,374.932219 72.7016952,386.968189 97.013666,401.0182 C137.731725,424.545245 140.261055,456.818197 140.261055,456.818197 L142.009471,477 Z" id="Path" fill="#00B476" fill-rule="nonzero"></path>
                <path d="M91,368 C91,368 156.545812,388.627408 141.853563,477" id="Path" stroke="#565987"></path>
                <path d="M130,376 C130,376 120.61658,381.989184 123.577888,391" id="Path" stroke="#565987"></path>
                <path d="M98,381 C98,381 103.384184,376.11798 110,378.809656" id="Path" stroke="#565987"></path>
                <path d="M124,409.798989 C124,409.798989 133.529809,405.041395 136,411" id="Path" stroke="#565987"></path>
                <path d="M148,420.036455 C148,420.036455 141.123148,419.44795 141,423" id="Path" stroke="#565987"></path>
                <path d="M144,478 C144,478 117.461922,424.855875 110.198869,426.018811 C106.741935,426.569314 105.14965,429.920497 104.430329,433.292324 C103.538079,437.647312 104.040789,442.167861 105.868972,446.229131 C109.633189,454.734393 119.73861,470.884757 144,478 Z" id="Path" fill="#00B476" fill-rule="nonzero"></path>
                <path d="M110,436 C110,436 137.655027,476.238395 143,478" id="Path" stroke="#565987"></path>
                <path d="M108,442.5 L114,442.5" id="Path" stroke="#565987"></path>
                <path d="M115,456.19 L125,456.81" id="Path" stroke="#565987"></path>
                <path d="M121,445 L120,450" id="Path" stroke="#565987"></path>
                <path d="M131.645,461 L131.355,466" id="Path" stroke="#565987"></path>
                <path d="M142,478 C142,478 168.537919,424.855875 175.793945,426.018811 C179.285776,426.569314 180.850117,429.920497 181.569434,433.292324 C182.463229,437.647857 181.957953,442.169558 180.123816,446.229131 C176.366605,454.734393 166.261245,470.884757 142,478 Z" id="Path" fill="#00B476" fill-rule="nonzero"></path>
                <path d="M176,436 C176,436 148.343849,476.238395 143,478" id="Path" stroke="#565987"></path>
                <path d="M178,442.5 L172,442.5" id="Path" stroke="#565987"></path>
                <path d="M171,456.19 L161,456.81" id="Path" stroke="#565987"></path>
                <path d="M165,445 L166,450" id="Path" stroke="#565987"></path>
                <path d="M153.36,461 L153.64,466" id="Path" stroke="#565987"></path>
                <path d="M97.5507179,490.515944 C96.8381571,489.910149 96.3194156,489.091222 96.0638718,488.16869 C95.8279937,487.215178 96.2611893,486.218912 97.1032874,485.778236 C98.0601004,485.396627 99.0788653,486.087843 99.8567061,486.786259 C100.634547,487.484675 101.522524,488.283893 102.534406,488.13989 C101.473756,487.137104 100.995318,485.624834 101.274717,484.158199 C101.316586,483.857957 101.438225,483.576048 101.625778,483.344581 C102.155811,482.754167 103.112624,483.006173 103.74591,483.474184 C105.769673,484.957417 106.32724,487.794282 106.341007,490.407941 C106.453954,489.452182 106.465496,488.486289 106.375425,487.527876 C106.297995,486.560093 106.681707,485.614603 107.401073,485.000618 C107.881412,484.733647 108.41994,484.602128 108.963639,484.61901 C109.869701,484.469845 110.793591,484.731738 111.503667,485.339026 C112.274625,486.203046 112.075002,487.643078 111.400414,488.5935 C110.654299,489.480711 109.766989,490.226132 108.777783,490.79675 C108.023575,491.263367 107.380911,491.903581 106.898575,492.668792 C106.843203,492.774613 106.797123,492.88547 106.760904,493 L101.075094,493 C99.7991225,492.341042 98.6136997,491.50553 97.5507179,490.515944 L97.5507179,490.515944 Z" id="Path" fill="#00B476" fill-rule="nonzero"></path>
                <path d="M197.557153,469.543857 C196.843671,468.93522 196.322658,468.114174 196.06273,467.188848 C195.829503,466.23244 196.262136,465.234645 197.102628,464.790496 C198.059886,464.407627 199.079124,465.101126 199.857326,465.80185 C200.635529,466.502573 201.517032,467.304432 202.529384,467.152729 C201.470616,466.145007 200.99241,464.62918 201.269109,463.157883 C201.31559,462.860251 201.436821,462.58098 201.620333,462.348801 C202.150613,461.749213 203.10787,462.009275 203.748338,462.478832 C205.766154,463.966966 206.330867,466.813203 206.337754,469.428273 C206.453497,468.469657 206.467356,467.500519 206.379075,466.538693 C206.290341,465.565853 206.676398,464.611888 207.4052,464.003086 C207.884006,463.730357 208.424056,463.598092 208.968491,463.620216 C209.872626,463.474552 210.793303,463.736987 211.502813,464.342611 C212.274129,465.209486 212.074413,466.6615 211.406399,467.615061 C210.65437,468.490267 209.764497,469.223339 208.775662,469.782247 C208.027578,470.256744 207.388086,470.897953 206.902467,471.660474 C206.844255,471.767714 206.798038,471.881643 206.764732,472 L201.069394,472 C199.799424,471.349324 198.618191,470.523276 197.557153,469.543857 L197.557153,469.543857 Z" id="Path" fill="#00B476" fill-rule="nonzero"></path>
                <path d="M164.551385,490.510536 C163.838518,489.905177 163.319553,489.08684 163.063899,488.164971 C162.82792,487.212146 163.261302,486.216596 164.103762,485.776237 C165.060987,485.394903 166.08019,486.085621 166.858366,486.783535 C167.636542,487.481448 168.524901,488.280091 169.537218,488.136192 C168.476112,487.134127 167.997469,485.622945 168.276987,484.157366 C168.318875,483.85734 168.440565,483.575634 168.628199,483.344333 C169.15846,482.754344 170.115685,483.006169 170.749244,483.473843 C172.766991,484.956009 173.331685,487.790832 173.345458,490.402611 C173.458453,489.44754 173.470001,488.482342 173.379891,487.524618 C173.303112,486.561253 173.684091,485.619931 174.399094,485.006374 C174.879639,484.739595 175.418399,484.60817 175.962332,484.62504 C176.868784,484.475982 177.793072,484.737687 178.503454,485.344538 C179.274743,486.207936 179.075034,487.646933 178.400156,488.59667 C177.653719,489.483243 176.766028,490.228128 175.776396,490.798335 C175.021864,491.264617 174.378923,491.90437 173.896379,492.669031 C173.840983,492.774775 173.794884,492.885552 173.758649,493 L168.070392,493 C166.79589,492.33873 165.612282,491.501406 164.551385,490.510536 L164.551385,490.510536 Z" id="Path" fill="#00B476" fill-rule="nonzero"></path>
                <path d="M69.9425594,447 C69.9425594,447 67.7388251,449.726733 70.9591207,453.840396 C74.1794163,457.954059 76.8310063,461.434851 75.7575744,464 C75.7575744,464 70.9022501,456.351683 66.9497461,456.250693 C62.997242,456.149703 65.5919614,451.598416 69.9425594,447 Z" id="Path" fill="#00B476" fill-rule="nonzero"></path>
                <path d="M70.0010648,447 C69.8082206,447.263984 69.6556951,447.551895 69.5479078,447.855388 C65.6421263,452.1458 63.5633585,456.153328 67.3180878,456.254358 C70.8066772,456.341918 75.0001775,462.194929 76,463.663233 C75.9692477,463.777646 75.9308087,463.890125 75.8849125,464 C75.8849125,464 70.9721155,456.348653 66.9728253,456.247623 C62.9735352,456.146593 65.5989685,451.600238 70.0010648,447 Z" id="Path" fill="#000000" fill-rule="nonzero" opacity="0.1"></path>
                <path d="M65.14,450.522158 C65.14,451.341272 65.3,452 65.5,452 C65.7,452 65.86,451.341272 65.86,450.522158 C65.86,449.703043 65.66,450.092552 65.46,450.092552 C65.26,450.092552 65.14,449.703043 65.14,450.522158 Z" id="Path" fill="#FFD037" fill-rule="nonzero"></path>
                <path d="M64.4750338,451.504888 C65.2575437,451.854962 65.9398923,452.071185 65.9962331,451.978518 C66.0525738,451.885851 65.4703864,451.535777 64.6878765,451.180554 C63.9053666,450.825331 64.2121105,451.087887 64.1557697,451.180554 C64.099429,451.273221 63.6925239,451.175406 64.4750338,451.504888 Z" id="Path" fill="#FFD037" fill-rule="nonzero"></path>
                <path d="M81.0581656,447 C81.0581656,447 83.2552092,449.726733 80.0414108,453.840396 C76.8276124,457.954059 74.1684075,461.434851 75.2420437,464 C75.2420437,464 80.0982922,456.351683 84.0515487,456.250693 C88.0048052,456.149703 85.4024816,451.598416 81.0581656,447 Z" id="Path" fill="#00B476" fill-rule="nonzero"></path>
                <path d="M81.0031224,447 C81.1958701,447.263984 81.3483193,447.551895 81.4560526,447.855388 C85.3526902,452.1458 87.4304176,456.153328 83.6847567,456.254358 C80.1907238,456.341918 76.0065115,462.194929 75,463.663233 C75.0331587,463.777779 75.0739791,463.890257 75.1222193,464 C75.1222193,464 80.0325577,456.348653 84.0298464,456.247623 C88.0271351,456.146593 85.3958264,451.600238 81.0031224,447 Z" id="Path" fill="#000000" fill-rule="nonzero" opacity="0.1"></path>
                <path d="M84.855,450.522158 C84.855,451.341272 84.695,452 84.505,452 C84.315,452 84.145,451.341272 84.145,450.522158 C84.145,449.703043 84.345,450.092552 84.545,450.092552 C84.745,450.092552 84.855,449.703043 84.855,450.522158 Z" id="Path" fill="#FFD037" fill-rule="nonzero"></path>
                <path d="M86.5341035,451.504888 C85.7505104,451.854962 85.0672172,452.071185 85.0045298,451.978518 C84.9418423,451.885851 85.5373731,451.535777 86.3209662,451.180554 C87.1045593,450.825331 86.7973908,451.087887 86.8538095,451.180554 C86.9102282,451.273221 87.2926217,451.175406 86.5341035,451.504888 Z" id="Path" fill="#FFD037" fill-rule="nonzero"></path>
                <path d="M84,464.143298 C84,464.143298 78.0927306,463.961723 76.3123642,462.717604 C74.5319978,461.473484 67.2263564,459.973816 66.7625061,461.977857 C66.2986559,463.981898 57.8947808,471.944263 64.5592174,471.998063 C71.2236541,472.051863 80.0504515,470.975867 81.8308179,469.906597 C83.6111843,468.837327 84,464.143298 84,464.143298 Z" id="Path" fill="#A8A8A8" fill-rule="nonzero"></path>
                <path d="M64.4387146,471.292743 C71.1161796,471.347524 79.9511895,470.251901 81.7263846,469.163125 C83.0919194,468.33456 83.6176503,465.369529 83.7746868,464 L84,464 C84,464 83.6244779,468.793352 81.8492828,469.868433 C80.0740876,470.943513 71.23225,472.052832 64.5616128,471.998051 C62.6362088,471.998051 61.9670967,471.313286 62.0012351,470.279291 C62.2743421,470.89558 63.0049031,471.279048 64.4387146,471.292743 Z" id="Path" fill="#000000" fill-rule="nonzero" opacity="0.2"></path>
                <path d="M119.003584,230.538501 C118.892868,233.439494 121.383976,237.29367 121.383976,237.29367 C122.145147,239.124059 131.47988,247.60601 131.47988,247.60601 L138.399622,252.21997 C137.001723,253.249539 135.536044,254.18411 134.012506,255.017357 C130.642591,256.737231 128.801939,262.428703 128.801939,262.428703 C128.801939,262.428703 123.69517,274.675038 134.012506,276.394913 L134.206258,276.429449 L135.133504,277.430982 C137.417019,279.889919 140.205675,282.825448 141.174439,283.481625 C142.911294,284.662743 148.232576,293.579844 148.232576,293.579844 C148.232576,293.579844 153.872166,302.821579 161.380087,303.249821 C168.888007,303.678062 168.867248,295.085597 168.299829,294.546841 C168.074342,294.187187 167.917177,293.789137 167.836207,293.37263 C169.62842,296.252901 172.071089,300.038007 172.85994,300.562948 C174.160851,301.419432 178.395734,308.160787 178.395734,308.160787 C178.395734,308.160787 183.717015,320.296609 184.581983,321.588241 C185.446951,322.879874 186.969294,329.324223 186.969294,329.324223 C186.969294,329.324223 190.013981,338.234416 191.425609,339.422442 C192.837236,340.610467 193.591488,344.899793 193.591488,344.899793 C193.591488,344.899793 198.040882,351.344142 198.802054,352.414746 C199.692441,353.978117 200.489598,355.592588 201.189365,357.249735 C201.189365,357.249735 203.576676,361.117726 203.576676,362.623479 C203.576676,364.129233 208.57273,366.698684 208.57273,366.698684 C208.57273,366.698684 212.157157,370.89131 214.21924,371.644186 C216.281323,372.397063 218.232691,377.335659 218.557919,377.011024 C218.749853,376.919705 218.961375,376.877003 219.173776,376.886695 L220.017984,377.729365 C223.311782,381.003343 229.892457,387.530577 231.580874,389.043238 C233.864389,391.115376 239.074955,391.405475 243.413634,390.548991 C245.641791,390.106935 248.35433,388.000262 250.464851,386.052452 C251.429578,385.151825 251.983981,383.896997 251.999658,382.578592 C252.015336,381.260187 251.490927,379.992577 250.547888,379.069347 C248.471965,377.073188 246.070815,374.883629 245.012094,374.545179 C243.060727,373.89591 237.524933,370.034826 234.92311,366.809198 C233.539161,365.130766 231.110331,363.53522 229.069007,362.395544 L228.819897,362.250494 C228.507984,361.068645 228.297326,359.862459 228.1902,358.644974 C228.1902,358.644974 231.774627,350.591265 229.81634,350.163023 C227.858053,349.734781 220.481607,336.94969 220.481607,336.94969 C220.377811,327.279713 211.485942,319.11549 211.485942,319.11549 C211.485942,319.11549 207.036548,308.589029 205.735636,306.337306 C204.944445,305.168911 204.944445,303.63771 205.735636,302.469315 C205.735636,302.469315 203.237609,300.53532 202.808585,299.568322 C202.379561,298.601324 200.310558,291.27977 200.310558,291.27977 C200.310558,291.27977 197.812531,286.873024 197.701815,284.835421 C197.591099,282.797819 192.72652,277.113254 192.72652,277.113254 C192.72652,277.113254 190.754394,267.539977 188.574675,265.820102 C188.15257,265.48856 188.214848,264.224556 188.574675,262.407982 L188.678471,262.297468 L189.010618,261.972833 L189.107495,261.876133 C190.104891,260.894163 191.043012,259.853962 191.91691,258.761019 L191.958429,258.705762 C192.096824,258.533084 192.228299,258.367313 192.352854,258.194635 C195.501337,253.898402 197.452704,243.689669 197.452704,243.689669 C197.452704,243.689669 198.075481,243.39957 198.885091,242.957514 C200.022759,242.390295 201.075499,241.667274 202.012814,240.809398 C202.057552,240.759772 202.094845,240.703934 202.12353,240.643627 C202.127259,240.625396 202.127259,240.606601 202.12353,240.58837 C202.144899,240.545908 202.163393,240.502064 202.178888,240.457134 C202.181579,240.431879 202.181579,240.406411 202.178888,240.381156 C202.182798,240.330579 202.182798,240.279776 202.178888,240.229199 C202.178888,240.229199 202.178888,240.180849 202.178888,240.153221 L202.178888,239.904564 C202.178888,239.814771 202.178888,239.724979 202.14429,239.628279 C202.143619,239.616777 202.143619,239.605245 202.14429,239.593743 C202.14429,239.510858 202.109691,239.427972 202.088932,239.33818 L202.088932,239.255294 C202.088932,239.179316 202.047413,239.103337 202.019734,239.020452 C202.021833,238.990558 202.021833,238.960553 202.019734,238.930659 L201.936697,238.675096 C201.934092,238.654456 201.934092,238.633571 201.936697,238.612931 C201.805222,238.267575 201.646068,237.922219 201.466155,237.549234 L201.466155,237.549234 L201.279322,237.19697 L201.279322,237.19697 C200.940254,236.554608 200.587348,235.926059 200.213681,235.380396 L200.158324,235.297511 C200.919495,233.156302 202.3934,229.38501 203.763509,228.031214 C205.714877,226.097218 202.67711,215.784879 202.67711,215.784879 C202.67711,215.784879 202.026654,208.484046 201.154766,206.33593 C200.282879,204.187813 201.154766,203.876993 200.462792,202.039697 C199.625503,199.967559 199.016566,200.105702 200.096046,195.381227 C200.504311,193.599188 201.134007,191.637565 201.701426,189.807176 L202.3934,190.442632 C206.406851,194.22083 212.710736,199.138704 212.710736,199.138704 C212.710736,199.138704 225.083236,210.307527 226.169635,210.632162 C227.256035,210.956797 230.515234,221.9115 230.515234,221.9115 C230.515234,221.9115 229.754062,240.063428 239.73925,240.816305 C243.981052,241.134033 245.780185,237.860055 246.430641,233.998971 C247.404728,227.931584 245.610252,221.74724 241.538383,217.138675 L235.559726,210.355877 L230.238444,200.906928 C226.851024,195.572535 223.997867,189.918269 221.720241,184.025911 C219.302714,178.252059 215.755109,173.017846 211.285269,168.629926 L210.856245,168.208592 L211.409825,167.697464 C211.409825,167.697464 210.537937,160.610753 209.887481,159.754269 C209.237026,158.897785 206.849714,153.952283 206.849714,152.847143 C206.849714,151.742002 205.327371,151.562417 204.462403,150.270784 C204.462403,150.270784 202.94006,147.266184 201.528433,146.817221 C201.270575,146.717354 201.035311,146.56706 200.836458,146.375165 C198.361277,144.191013 195.254721,142.848583 191.965348,142.54171 L191.100381,142.458824 C189.176752,142.371927 187.249643,142.399605 185.329315,142.54171 L185.280877,142.54171 C183.806972,142.099654 182.692894,140.953071 181.551136,139.930816 C179.712384,138.288661 177.673412,136.884636 175.482522,135.752005 C173.233606,134.5847 170.68714,133.679867 168.175274,134.108109 C166.210067,134.425836 164.452453,135.489534 162.535684,136.049011 C159.809305,136.815702 156.46015,136.656838 154.744054,138.88784 C153.920605,139.951538 153.685333,141.367498 152.917242,142.465732 C151.823923,144.026742 149.817197,144.75199 148.689279,146.29228 C147.93433,147.413314 147.589734,148.759909 147.713596,150.105013 C147.675876,151.193714 147.806581,152.281709 148.101101,153.330641 C148.388514,154.232264 148.59916,155.156495 148.730798,156.093492 C148.715651,156.246975 148.690222,156.399272 148.654681,156.549362 C148.502446,157.240075 148.149539,157.820274 148.011144,158.490265 C147.941055,158.854492 147.929377,159.22752 147.976546,159.595405 C147.768953,161.246208 148.834594,162.814126 149.554247,164.347508 C150.111064,165.545255 150.47759,166.822261 150.640647,168.132613 C148.83989,168.664191 147.083785,169.336252 145.388562,170.142587 C143.125806,171.233913 140.849211,172.712038 139.548299,174.604591 C137.430506,177.576983 134.779328,180.131993 131.72899,182.140266 C130.790216,184.447375 129.992972,186.809373 129.341679,189.213163 C128.691224,191.976014 128.040768,196.513996 126.0894,198.88314 C124.138033,201.252285 123.238467,208.283739 123.238467,208.283739 C123.238467,208.283739 120.629724,212.469458 120.629724,213.332849 C120.629724,214.196239 120.304496,218.167837 120.629724,219.342049 C120.821119,219.710895 121.076485,220.042967 121.383976,220.322861 L121.190223,221.013573 C120.290656,224.17013 119.072782,228.721926 119.003584,230.538501 Z M180.201786,182.15408 C180.146428,182.395829 180.084151,182.623765 180.008034,182.844793 C180.008034,182.623765 180.042632,182.409644 180.056472,182.188616 L180.201786,182.15408 Z M155.470627,273.963604 L155.12464,273.645877 L154.958566,273.49392 C154.958566,273.411034 155.000084,273.328149 155.020844,273.231449 L155.470627,273.963604 Z M137.479296,229.999745 L137.617691,229.744181 L138.129752,228.818626 L142.281598,225.434134 L142.814418,225.917633 C142.814418,225.917633 142.378474,230.427987 141.298994,230.213866 C141.049884,230.165516 140.939168,231.201585 140.911489,232.824759 C138.953202,231.153235 137.458537,229.999745 137.458537,229.999745 L137.479296,229.999745 Z" id="Shape" fill="url(#linearGradient-1)" fill-rule="nonzero"></path>
                <path d="M175,146.894781 C175,146.894781 187.921957,145.73823 190.994988,146.054904 L191.832458,146.130631 C195.038883,146.455234 198.057564,147.788892 200.449403,149.937611 C200.648915,150.126399 200.884188,150.273829 201.141527,150.371317 C202.525776,150.791255 204,153.74459 204,153.74459 C204,153.74459 200.719332,179.553572 200.719332,179.870247 C200.719332,180.186921 193.936516,191.876346 193.936516,191.876346 L187.368258,194.409743 L176.038186,196 L175.719809,191.139733 C175.719809,191.139733 181.173747,188.165745 180.564678,182.018127 C179.955609,175.870509 175,146.894781 175,146.894781 Z" id="Path" fill="#464353" fill-rule="nonzero"></path>
                <path d="M181.820287,177.413959 C181.820287,177.413959 179.055309,190.023604 181.820287,194.080195 C184.585265,198.136786 154.529956,187.461179 154.529956,187.461179 L149,177.413959 C149,177.413959 151.073733,175.926775 153.41014,174.006702 C156.700463,171.332563 160.640557,167.827557 160.640557,166.326409 C160.675119,163.736055 181.820287,177.413959 181.820287,177.413959 Z" id="Path" fill="#ECB4B6" fill-rule="nonzero"></path>
                <path d="M181.820287,177.413959 C181.820287,177.413959 179.055309,190.023604 181.820287,194.080195 C184.585265,198.136786 154.529956,187.461179 154.529956,187.461179 L149,177.413959 C149,177.413959 151.073733,175.926775 153.41014,174.006702 C156.700463,171.332563 160.640557,167.827557 160.640557,166.326409 C160.675119,163.736055 181.820287,177.413959 181.820287,177.413959 Z" id="Path" fill="#000000" fill-rule="nonzero" opacity="0.1"></path>
                <circle id="Oval" fill="#000000" fill-rule="nonzero" opacity="0.1" cx="175.5" cy="167.5" r="18.5"></circle>
                <circle id="Oval" fill="#ECB4B6" fill-rule="nonzero" cx="175.5" cy="166.5" r="18.5"></circle>
                <path d="M199.00573,189.41951 C199.074321,190.112569 200.377555,191.547201 202.147208,193.245195 C206.029472,196.973852 212.127233,201.832195 212.127233,201.832195 C212.127233,201.832195 224.096403,212.858762 225.159568,213.177569 C226.222732,213.496376 229.357351,224.315026 229.357351,224.315026 C229.357351,224.315026 228.623425,242.237529 238.274212,242.979102 C242.389686,243.290978 244.118185,240.068254 244.749224,236.2495 C245.689319,230.271469 243.958563,224.179896 240.023288,219.616086 L234.289061,212.872623 L229.144718,203.53712 C225.847034,198.281017 223.069415,192.709684 220.852038,186.903706 C218.530746,181.194547 215.105163,176.010882 210.775986,171.656411 C209.699103,170.575239 209.006332,170 209.006332,170 L204.204945,171.483146 C204.204945,171.483146 198.799956,187.284889 199.00573,189.41951 Z" id="Path" fill="#ECB4B6" fill-rule="nonzero"></path>
                <path d="M217,375.993516 L218.850853,377.863361 C222.055315,381.109523 228.464239,387.594897 230.107908,389.068529 C232.324788,391.091298 237.400821,391.411049 241.627396,390.556064 C243.795933,390.125096 246.461714,388.032816 248.492128,386.107362 C249.440642,385.215512 249.98536,383.971917 249.999709,382.665544 C250.014058,381.35917 249.496789,380.103759 248.568096,379.191021 C246.565307,377.216909 244.217209,375.020362 243.208909,374.707563 C241.309713,374.068062 235.915995,370.244959 233.381431,367.061356 C232.062353,365.400044 229.672819,363.822145 227.690749,362.689117 C225.86752,361.653403 224.396506,361 224.396506,361 L217,375.993516 Z" id="Path" fill="#C17174" fill-rule="nonzero"></path>
                <path d="M220,375.50022 C220,375.50022 220.620478,376.119784 221.582568,377.059343 C224.336377,379.782703 229.837022,385.147721 231.25227,386.393658 C233.155535,388.075332 237.526771,388.34086 241.138094,387.632786 C242.769464,387.312791 244.714559,385.944303 246.359872,384.528156 C247.371105,383.663933 247.965418,382.425559 247.998539,381.113655 C248.031659,379.801751 247.500558,378.53628 246.534164,377.62444 C244.958567,376.147018 243.271424,374.683212 242.497569,374.431301 C240.866199,373.900246 236.223069,370.707107 234.061852,368.051832 C232.662048,366.572285 231.011052,365.340003 229.181685,364.409339 C227.620032,363.544672 226.35816,363 226.35816,363 L220,375.50022 Z" id="Path" fill="#000000" fill-rule="nonzero" opacity="0.1"></path>
                <path d="M133,274.710506 C133,274.710506 134.462045,276.36516 136.237386,278.306061 C138.472226,280.756623 141.215302,283.674956 142.16215,284.324251 C143.86787,285.504151 149.08946,294.370858 149.08946,294.370858 C149.08946,294.370858 154.659156,303.558721 161.983306,303.984602 C169.307457,304.410483 169.335305,295.864933 168.799222,295.334327 C168.263139,294.803721 167.525154,289.986376 166.45995,286.460638 C165.652344,283.793645 159.045292,277.454298 155.884489,274.528983 C154.86802,273.586459 154.206618,273 154.206618,273 L133,274.710506 Z" id="Path" fill="#C17174" fill-rule="nonzero"></path>
                <path d="M135,276.542502 C135,276.542502 136.33003,278.036585 137.961067,279.793515 C140.012114,282.006971 142.525172,284.63545 143.393191,285.230316 C144.961227,286.295541 149.742336,294.305484 149.742336,294.305484 C149.742336,294.305484 154.824452,302.605944 161.565606,302.986381 C168.306759,303.366819 168.299759,295.654309 167.816748,295.170116 C167.333737,294.685922 166.640721,290.328181 165.667699,287.160173 C164.925682,284.753039 158.870544,279.025723 155.972478,276.38341 C155.041457,275.532613 154.432443,275 154.432443,275 L135,276.542502 Z" id="Path" fill="#000000" fill-rule="nonzero" opacity="0.1"></path>
                <path d="M133,274.744103 C133,274.744103 134.469425,276.431255 136.253727,278.410278 C145.658047,279.834035 150.031336,278.232308 150.031336,278.232308 C150.031336,278.232308 154.418619,276.267523 155.384241,276.160741 C155.629145,276.160741 155.804077,275.512932 156,274.559014 C154.9784,273.597978 154.31366,273 154.31366,273 L133,274.744103 Z" id="Path" fill="#000000" fill-rule="nonzero" opacity="0.1"></path>
                <path d="M144.309085,250 C144.309085,250 138.525824,254.709576 135.249559,256.395974 C131.973294,258.082372 130.221831,263.621436 130.221831,263.621436 C130.221831,263.621436 125.283394,275.583896 135.263296,277.256583 C145.243198,278.929271 149.879422,277.256583 149.879422,277.256583 C149.879422,277.256583 154.18596,275.371382 155.13381,275.268553 C156.08166,275.165724 156.074792,266.137323 159.543374,263.408923 C163.011957,260.680522 171,254.497062 171,254.497062 L144.309085,250 Z" id="Path" fill="#5E5A6B" fill-rule="nonzero"></path>
                <path d="M144.309085,250 C144.309085,250 138.525824,254.709576 135.249559,256.395974 C131.973294,258.082372 130.221831,263.621436 130.221831,263.621436 C130.221831,263.621436 125.283394,275.583896 135.263296,277.256583 C145.243198,278.929271 149.879422,277.256583 149.879422,277.256583 C149.879422,277.256583 154.18596,275.371382 155.13381,275.268553 C156.08166,275.165724 156.074792,266.137323 159.543374,263.408923 C163.011957,260.680522 171,254.497062 171,254.497062 L144.309085,250 Z" id="Path" fill="#000000" fill-rule="nonzero" opacity="0.1"></path>
                <path d="M198.84987,236 C198.84987,236 203.052222,241.646283 201.749493,243.000838 C200.446764,244.355393 197.252977,245.834346 197.252977,245.834346 C197.252977,245.834346 195.319895,255.882932 192.210154,260.112461 C189.100414,264.34199 183,269 183,269 L187.279395,245.412775 L198.84987,236 Z" id="Path" fill="#5E5A6B" fill-rule="nonzero"></path>
                <path d="M183,269 C184.908069,267.513568 186.737198,265.931155 188.480113,264.259058 C189.835621,262.979629 191.082515,261.592788 192.208271,260.112461 C195.319742,255.882932 197.253899,245.834346 197.253899,245.834346 C197.253899,245.834346 200.470487,244.355393 201.752917,243.000838 C202.537793,242.178429 201.297409,239.780314 200.20419,238.01801 C199.503408,236.870785 198.858689,236 198.858689,236 L192.782912,240.93445 L187.274768,245.412775 L185.655962,254.54911 L183,269 Z" id="Path" fill="#000000" fill-rule="nonzero" opacity="0.1"></path>
                <path d="M217,375.986933 L218.837043,377.854226 C219.995476,377.854226 221.722845,378 221.722845,378 C221.722845,378 230.21574,367.691711 228.851667,365.886893 C228.234419,364.913153 227.812815,363.825721 227.610978,362.686811 C225.801354,361.652511 224.341316,361 224.341316,361 L217,375.986933 Z" id="Path" fill="#000000" fill-rule="nonzero" opacity="0.1"></path>
                <path d="M152,267.684248 C152,269.479237 166.32478,291.45404 166.32478,291.45404 C166.32478,291.45404 171.907383,300.960577 173.173966,301.809744 C174.440549,302.658912 178.543178,309.307274 178.543178,309.307274 C178.543178,309.307274 183.705881,321.243948 184.552564,322.514248 C185.399247,323.784548 186.865455,330.108431 186.865455,330.108431 C186.865455,330.108431 189.818521,338.87626 191.188358,340.036099 C192.558195,341.195938 193.294741,345.427969 193.294741,345.427969 C193.294741,345.427969 197.610761,351.765659 198.347307,352.821941 C199.211886,354.358684 199.986457,355.944644 200.667081,357.571757 C200.667081,357.571757 202.986856,361.375753 202.986856,362.86007 C202.986856,364.344388 207.805379,366.871179 207.805379,366.871179 C207.805379,366.871179 211.247181,371.013461 213.277844,371.703841 C215.308507,372.394222 217.180847,377.302825 217.49061,376.98525 C217.800372,376.667675 221.393613,376.98525 221.393613,376.98525 C221.393613,376.98525 229.922399,366.740007 228.552561,364.945019 C227.182724,363.15003 226.866078,358.917999 226.866078,358.917999 C226.866078,358.917999 230.307881,350.999337 228.449307,350.578205 C226.590734,350.157073 219.424902,337.619768 219.424902,337.619768 C219.321648,328.113232 210.682725,320.08411 210.682725,320.08411 C210.682725,320.08411 206.359822,309.728406 205.100122,307.512285 C204.329559,306.362043 204.329559,304.858532 205.100122,303.70829 C205.100122,303.70829 202.677094,301.809744 202.257194,300.857019 C201.837294,299.904295 199.834165,292.72434 199.834165,292.72434 C199.834165,292.72434 197.411136,288.388752 197.300999,286.379746 C197.190861,284.370739 192.482476,278.785563 192.482476,278.785563 C192.482476,278.785563 190.568834,269.37568 188.462451,267.684248 C188.049435,267.352866 188.118271,266.117085 188.462451,264.322096 C189.433039,259.592992 192.523777,251.046084 194.657695,245.4471 C195.876093,242.243736 196.777845,240 196.777845,240 L192.702751,241.021763 L158.009386,249.720554 C158.009386,249.720554 156.130162,254.781041 154.478097,259.551569 C153.163329,263.307237 152,266.890311 152,267.684248 Z" id="Path" fill="#5E5A6B" fill-rule="nonzero"></path>
                <path d="M220.040293,353.613777 C220.040293,353.613777 230.848695,349.28788 225.526792,354.801278 C220.204888,360.314677 210,359.996596 210,359.996596 L220.040293,353.613777 Z" id="Path" fill="#000000" fill-rule="nonzero" opacity="0.1"></path>
                <path d="M201,333 C201,333 195.008146,336.236287 196.143018,339.3669 C197.27789,342.497513 201,333 201,333 Z" id="Path" fill="#000000" fill-rule="nonzero" opacity="0.1"></path>
                <path d="M195,306 C193.812473,307.975758 191.502921,309.138937 189.069781,308.986684 C184.729105,308.892169 195,306 195,306 Z" id="Path" fill="#000000" fill-rule="nonzero" opacity="0.1"></path>
                <path d="M137,259 C137,259 139.25,266.43251 137,266.975133 C134.75,267.517756 137,259 137,259 Z" id="Path" fill="#000000" fill-rule="nonzero" opacity="0.1"></path>
                <path d="M199.005882,189.212411 C199.075941,189.898568 200.407064,191.318914 202.214589,193 C203.237451,189.77506 204.190255,186.824582 203.615771,185.850239 C202.76105,184.381862 206.109875,181.232399 205.507366,179.132757 C205.044976,177.527148 209.080381,173.458234 211,171.639916 C209.900072,170.569511 209.192475,170 209.192475,170 L204.288338,171.468377 C204.288338,171.468377 198.795704,187.099045 199.005882,189.212411 Z" id="Path" fill="#000000" fill-rule="nonzero" opacity="0.1"></path>
                <path d="M154,259 C158.03899,258.774184 167.458667,255.81035 167.458667,255.81035 C167.458667,255.81035 178.37993,255.443399 185.533323,253.961482 C189.009219,253.255807 191.539671,252.246692 191.539671,250.912967 C191.539671,249.12761 192.978691,246.735372 194.612362,244.561894 C195.729283,243.125962 196.922109,241.752583 198.185583,240.447809 C198.849726,239.756851 199.355344,238.925528 199.666314,238.013231 C199.763639,237.723905 199.88182,237.399294 200,237.06057 C199.304821,235.88915 198.665256,235 198.665256,235 L192.638053,240.038518 L157.601028,248.930021 C157.601028,248.930021 155.640623,254.123787 154,259 Z" id="Path" fill="#000000" fill-rule="nonzero" opacity="0.1"></path>
                <path d="M143.024449,252.408233 C143.024449,252.408233 150.853949,257.04027 153.184816,257.879956 C155.515683,258.719641 168,254.879112 168,254.879112 C168,254.879112 191.92424,254.094487 191.92424,250.061243 C191.92424,246.970924 196.461477,242.001637 198.536432,239.89554 C199.198798,239.2202 199.702008,238.406778 200.009651,237.514136 C200.735885,235.449336 202.202188,231.615689 203.564742,230.259803 C205.473701,228.367069 202.506514,218.256427 202.506514,218.256427 C202.506514,218.256427 201.870195,211.091568 201.026379,208.985471 C200.182564,206.879374 201.026379,206.569654 200.334727,204.773277 C199.518578,202.756655 198.951424,202.873661 199.981985,198.241624 C201.012546,193.609587 203.578575,187.711139 202.748593,186.231365 C201.91861,184.751592 205.210873,181.599329 204.616053,179.493232 C204.021232,177.387135 211,171.068844 211,171.068844 C211,171.068844 210.128519,164.179292 209.499115,163.29831 C208.869712,162.417329 206.538845,157.613225 206.538845,156.560177 C206.538845,155.507129 205.051793,155.293766 204.207978,154.034237 C203.364163,152.774709 193.591121,186.685622 193.591121,186.685622 L179.350008,189.87918 L178.561525,190.051247 C178.561525,190.051247 170.462281,190.429794 165.205726,187.525307 C165.205726,187.525307 156.124336,186.052416 153.15715,171.096375 C150.8879,171.6633 148.681895,172.456527 146.572623,173.464013 C144.366254,174.530827 142.152968,175.983071 140.880328,177.834509 C138.827062,180.746845 136.247084,183.253513 133.272157,185.226496 C132.357469,187.488628 131.579132,189.803017 130.94129,192.157344 C130.311887,194.910412 129.675567,199.322203 127.766608,201.641663 C125.857648,203.961122 125,210.905736 125,210.905736 L144.082677,228.188119 C144.082677,228.188119 143.660769,232.613676 142.602541,232.400313 C141.544314,232.18695 143.024449,252.408233 143.024449,252.408233 Z" id="Path" fill="#464353" fill-rule="nonzero"></path>
                <path d="M147,174.343208 L157.045765,195.309112 C157.045765,195.309112 161.222401,198.041716 162.689683,196.559279 C164.156965,195.076841 169.684866,195.097335 169.684866,195.097335 L170.415094,196.559279 L181,194.058946 L179.34163,190.643191 L178.563629,190.82081 C178.563629,190.82081 170.572059,191.196543 165.385387,188.313646 C165.385387,188.313646 156.424729,186.844871 153.496989,172 C151.25816,172.560514 149.08149,173.345554 147,174.343208 L147,174.343208 Z" id="Path" fill="#000000" fill-rule="nonzero" opacity="0.1"></path>
                <path d="M147,173.349726 L157.045765,194.306008 C157.045765,194.306008 161.222401,197.038248 162.689683,195.562838 C164.156965,194.087429 169.684866,194.10109 169.684866,194.10109 L170.415094,195.562838 L181,193.056008 L179.34163,189.640708 L178.563629,189.811473 C178.563629,189.811473 170.572059,190.187156 165.385387,187.304643 C165.385387,187.304643 156.424729,185.842894 153.496989,171 C151.257908,171.562636 149.08123,172.349862 147,173.349726 L147,173.349726 Z" id="Path" fill="#464353" fill-rule="nonzero"></path>
                <path d="M151,235 C151,235 173.270487,242.028839 174.922946,242.916041 C176.575405,243.803242 151.10285,237.420892 151,235 Z" id="Path" fill="#000000" fill-rule="nonzero" opacity="0.1"></path>
                <path d="M165,246 C165,246 159.316189,248.774872 157.279601,247.787602 C155.243013,246.800332 165,246 165,246 Z" id="Path" fill="#000000" fill-rule="nonzero" opacity="0.1"></path>
                <path d="M183.955783,206 C183.955783,206 190.138107,236.170719 181,245 L183.955783,206 Z" id="Path" fill="#000000" fill-rule="nonzero" opacity="0.1"></path>
                <path d="M193.300929,160.594887 C195.476307,158.224463 195.574019,154.589866 193.529212,152.103449 C192.79594,151.264098 191.834386,150.62759 191.232549,149.683319 C190.924437,149.025178 190.548824,148.401571 190.111889,147.822757 C189.018899,146.689633 187.178802,146.9904 185.67767,146.528757 C184.176539,146.067114 183.159643,144.947979 182.0459,143.933763 C180.258207,142.287086 178.270745,140.876864 176.131303,139.737006 C173.931488,138.575903 171.448049,137.694584 168.999198,138.10027 C167.083007,138.422022 165.374345,139.499189 163.49966,140.037773 C160.843279,140.800184 157.571227,140.646303 155.890236,142.870584 C155.094706,143.926768 154.866423,145.332681 154.112398,146.430833 C153.047079,147.983633 151.089382,148.711071 149.961804,150.242887 C148.723543,151.970552 148.854979,154.34172 149.387638,156.405125 C149.740439,157.741093 150.23851,159.112033 149.927216,160.454995 C149.775027,161.112487 149.436062,161.721017 149.304626,162.385504 C148.958744,164.120163 150.065569,165.763893 150.805758,167.37265 C151.602495,169.11356 151.995269,171.015535 151.954089,172.933353 C151.902145,173.363384 151.961744,173.799681 152.127031,174.199374 C152.336537,174.52031 152.62499,174.780636 152.964067,174.95479 L156.14619,176.983223 C156.295893,177.090488 156.465201,177.166573 156.644261,177.20705 C157.26685,177.304974 157.647322,176.584531 158.027793,176.101904 C159.093112,174.814899 161.119986,174.912823 162.621117,175.640261 C164.122249,176.367699 165.353592,177.563774 166.861642,178.256239 C170.396565,179.88598 174.471065,178.438099 178.29653,177.689677 C179.60638,177.498879 180.899358,177.204198 182.1635,176.808358 C183.355179,176.319461 184.491561,175.702741 185.553152,174.96878 C186.629987,174.356042 187.607516,173.579947 188.451651,172.667558 C189.380974,171.647051 189.742099,170.223262 189.413205,168.876488 C189.101911,167.750358 188.105768,166.736142 188.30638,165.484109 C188.707604,163.315785 191.91048,162.021785 193.300929,160.594887 Z" id="Path" fill="#000000" fill-rule="nonzero" opacity="0.1"></path>
                <path d="M193.30021,159.574781 C195.476557,157.204899 195.574253,153.572233 193.528489,151.086539 C192.795229,150.25518 191.83369,149.612449 191.231864,148.676297 C190.922208,148.017595 190.54671,147.392576 190.111222,146.810979 C189.018249,145.6862 187.178182,145.986607 185.677075,145.525517 C184.175968,145.064427 183.159088,143.939648 182.045364,142.926648 C180.25969,141.279438 178.271928,139.870672 176.130862,138.734923 C173.931083,137.575212 171.447684,136.69495 168.998873,137.10015 C167.082713,137.421516 165.374079,138.497392 163.499425,139.03533 C160.843087,139.796826 157.571088,139.636144 155.890125,141.829813 C155.094607,142.891717 154.866328,144.295944 154.112315,145.392779 C153.047013,146.943717 151.089348,147.670283 149.961788,149.200262 C148.723548,150.925856 148.854981,153.29418 149.387632,155.355112 C149.740427,156.682491 150.23849,158.058774 149.927201,159.400126 C149.775015,160.05683 149.436055,160.66463 149.304621,161.328319 C148.958744,163.060899 150.065551,164.702658 150.805729,166.302499 C151.626857,168.063972 152.03179,169.993939 151.988629,171.940369 C151.936743,172.372169 151.996318,172.810182 152.161568,173.211859 C152.374955,173.528996 152.662438,173.78814 152.998591,173.96637 L156.180662,175.985384 C156.329805,176.094995 156.499146,176.17338 156.678725,176.215928 C157.301304,176.306749 157.681769,175.594156 158.062234,175.105121 C159.127536,173.819659 161.154377,173.924452 162.655484,174.644032 C164.156591,175.363611 165.387914,176.565239 166.895939,177.256873 C170.430805,178.88466 174.505239,177.438515 178.330642,176.697977 C179.640025,176.501689 180.932724,176.205084 182.19755,175.810728 C183.388912,175.324632 184.525265,174.711 185.587147,173.980342 C186.664197,173.365843 187.641685,172.588343 188.485598,171.674893 C189.414852,170.658399 189.776124,169.23834 189.447137,167.895355 C189.135848,166.763589 188.139721,165.750589 188.34033,164.507044 C188.70696,162.28543 191.909783,160.992981 193.30021,159.574781 Z" id="Path" fill="#464353" fill-rule="nonzero"></path>
                <path d="M121.003697,232.512018 C120.891953,235.348166 123.350328,239.131987 123.350328,239.131987 C124.097618,240.917456 133.288589,249.219887 133.288589,249.219887 L140.558954,254.026919 C140.558954,254.026919 150.287694,259.9121 152.585437,260.96278 C153.7378,261.491553 154.973972,263.709655 155.930782,265.879687 C156.887593,268.049718 157.551075,270 157.551075,270 C161.884021,269.374109 165.230548,265.933608 165.67349,261.649499 C165.945867,258.943826 166.127452,256.512842 165.889995,256.464771 C165.352226,256.361763 159.36692,251.946161 159.36692,251.946161 C159.36692,251.946161 152.424804,247.530559 150.17595,243.121824 C147.927095,238.713089 139.169134,231.983244 139.169134,231.983244 L139.308814,231.729158 L139.811664,230.822689 L140.880219,227.354759 L124.11857,220 C124.11857,220 123.706513,221.339102 123.175728,223.172641 C122.267805,226.262876 121.066553,230.74715 121.003697,232.512018 Z" id="Path" fill="#ECB4B6" fill-rule="nonzero"></path>
                <path d="M123,223.174005 C126.216133,226.241445 129.655214,229.081517 133.29078,231.672367 C134.347518,232.27007 138.049645,231.899082 139.404255,231.734199 L139.914894,230.82734 L141,227.35792 L123.978723,220 C123.978723,220 123.531915,221.325937 123,223.174005 Z" id="Path" fill="#000000" fill-rule="nonzero" opacity="0.1"></path>
                <path d="M139.01837,210.215045 C139.01837,210.215045 147.402733,215.279411 146.984885,217.491196 C146.567037,219.70298 143.011902,227.351207 143.011902,227.351207 L139.01837,230.672328 C139.01837,230.672328 133.880892,231.40959 132.620498,230.672328 C131.360103,229.935067 122.455142,222.555562 122.140044,221.397992 C121.824945,220.240423 122.140044,216.333626 122.140044,215.49301 C122.140044,214.652395 124.653983,210.531999 124.653983,210.531999 L128.325567,204 L139.01837,210.215045 Z" id="Path" fill="#464353" fill-rule="nonzero"></path>
                <polygon id="Path" fill="#000000" fill-rule="nonzero" opacity="0.1" points="168.460581 256 171 262.604661 166.718257 266.52511 166.520747 267.70671 157.019087 273 154 265.616714"></polygon>
                <polygon id="Path" fill="#5E5A6B" fill-rule="nonzero" points="168.460581 256 171 262.59783 166.718257 266.52511 166.520747 267.70671 157.019087 273 154 265.616714"></polygon>
                <g id="Group" opacity="0.1" transform="translate(149.000000, 152.000000)" fill="#000000" fill-rule="nonzero">
                    <path d="M39.3265672,11.9463158 C39.1808679,11.5697294 39.1336173,11.1624139 39.1892537,10.7626316 C39.5325373,8.62105263 42.7113433,7.34157895 44.0913433,5.97315789 C44.9916098,5.03880378 45.5626946,3.83811916 45.7185075,2.55210526 C45.9871755,4.41812932 45.3882325,6.30449426 44.0913433,7.67684211 C42.821194,8.91526316 40.0337313,10.0921053 39.3265672,11.9463158 Z" id="Path"></path>
                    <path d="M0.50119403,9.26421053 C0.865733998,10.4245613 1.35127034,11.5436535 1.94985075,12.6031579 C2.74296417,14.3055586 3.13513953,16.1660929 3.09641791,18.0426316 C3.04212172,18.4649359 3.09890353,18.8940533 3.26119403,19.2878947 C3.47255053,19.5988663 3.75798272,19.8527577 4.0919403,20.0268421 L7.25014925,22.0042105 C7.39866021,22.1150517 7.56973554,22.1921216 7.75134328,22.23 C8.36238806,22.3189474 8.74,21.6210526 9.12447761,21.1489474 C10.181791,19.89 12.2002985,19.9857895 13.6832836,20.6905263 C15.1662687,21.3952632 16.3952239,22.5721053 17.8919403,23.2563158 C21.4071642,24.8436842 25.4441791,23.4342105 29.2408955,22.7021053 C30.5410744,22.5131458 31.8243322,22.2226013 33.078806,21.8331579 C34.2620271,21.358779 35.390037,20.7577093 36.4429851,20.0405263 C37.5144501,19.4393742 38.4869694,18.6778747 39.3265672,17.7826316 C39.7972036,17.2364919 40.1313033,16.5869993 40.3014925,15.8873684 C40.5709299,17.1648402 40.2082385,18.4935376 39.3265672,19.4589474 C38.4850861,20.3521432 37.5128997,21.1133819 36.4429851,21.7168421 C35.390037,22.4340251 34.2620271,23.0350948 33.078806,23.5094737 C31.823465,23.8956948 30.5404594,24.1861821 29.2408955,24.3784211 C25.4510448,25.1036842 21.4071642,26.52 17.8919403,24.9257895 C16.3952239,24.2415789 15.1456716,23.0784211 13.6832836,22.3668421 C12.2208955,21.6552632 10.181791,21.5594737 9.12447761,22.8184211 C8.72626866,23.2973684 8.34865672,23.9952632 7.75134328,23.9063158 C7.57070791,23.8655092 7.40022361,23.7887055 7.25014925,23.6805263 L4.0919403,21.7031579 C3.76093502,21.5248523 3.47642489,21.2717811 3.26119403,20.9642105 C3.09951334,20.5702074 3.04275274,20.1412503 3.09641791,19.7189474 C3.13513953,17.8424087 2.74296417,15.9818744 1.94985075,14.2794737 C1.21522388,12.7126316 0.116716418,11.1047368 0.46,9.40789474 C0.470551462,9.35915075 0.484312581,9.31115215 0.50119403,9.26421053 Z" id="Path"></path>
                    <path d="M0.549253731,1.88157895 C0.885671642,3.15421053 1.36626866,4.47473684 1.09850746,5.76105263 C0.974925373,5.02210526 0.741492537,4.28315789 0.549253731,3.55789474 C0.220539496,2.40693045 0.104225723,1.20605594 0.205970149,0.0136842105 C0.267329131,0.644850214 0.382166605,1.26971061 0.549253731,1.88157895 Z" id="Path"></path>
                </g>
                <circle id="Oval" fill="#00B476" fill-rule="nonzero" opacity="0.1" cx="15" cy="92" r="15"></circle>
                <circle id="Oval" fill="#00B476" fill-rule="nonzero" opacity="0.1" cx="421" cy="29" r="15"></circle>
                <circle id="Oval" fill="#00B476" fill-rule="nonzero" opacity="0.1" cx="658" cy="88" r="15"></circle>
                <circle id="Oval" fill="#00B476" fill-rule="nonzero" opacity="0.1" cx="45" cy="175" r="25"></circle>
                <circle id="Oval" fill="#00B476" fill-rule="nonzero" opacity="0.1" cx="351" cy="546" r="25"></circle>
                <circle id="Oval" fill="#00B476" fill-rule="nonzero" opacity="0.1" cx="685" cy="531" r="25"></circle>
            </g>
        </g>
    </g>
</svg>