<svg xmlns="http://www.w3.org/2000/svg" width="20" height="20" viewBox="0 0 20 20">
  <path fill="rgb(112,131,160)" fill-rule="evenodd" d="M8.88891602 0C5.74664307 0 4.444458 2.01568604 4.444458 4.44476318c0 .81784058.390625 1.63931275.390625 1.63931275-.15704346.09036255-.41534424.3772583-.3501587.88690185.121521.95043946.5335083 1.19247437.79577637 1.2124939.09997559.88671875 1.0526123 2.0209961 1.38598633 2.18618774v1.4815979C5.92590332 14.07363892 0 12.59204102 0 17.77761841h8.84985352c-.44519043-.8934021-.7017212-1.89718628-.7017212-2.96316528 0-2.82540894 1.76043702-5.23516846 4.24194336-6.20562745.05108643-.14517212.0914917-.28833007.10705567-.425354.26220703-.02001953.67419433-.26205444.79571533-1.2124939.06518555-.5104065-.19311523-.7965393-.3501587-.88690185 0 0 .390625-.74221802.390625-1.63931275 0-1.79864502-.7059326-3.33355713-2.222229-3.33355713 0 0-.52661132-1.11120605-2.22216796-1.11120605zm5.92590332 9.62887573c-2.8637085 0-5.18518067 2.32165528-5.18518067 5.18554688C9.62963867 17.67834473 11.95111084 20 14.81481934 20 17.67852784 20 20 17.67834473 20 14.8144226c0-2.8638916-2.32147217-5.18554687-5.18518066-5.18554687zm2.74591064 3.18023682c-.14477539-.14483643-.33428955-.21704102-.52374268-.21704102-.18939209 0-.37890625.0722046-.52368164.21704102l-2.43927002 2.43939209-.95776367-.9578247c-.28961181-.28964234-.7578125-.28964234-1.04742431 0-.28961182.28967284-.28961182.75787353 0 1.04754638L13.550354 16.8197937c.14440918.14447022.33404541.21704102.52368164.21704102.18963624 0 .37927247-.0725708.52374268-.21704102l2.96295166-2.96316528c.28967285-.28964234.28967285-.75787354 0-1.04751587z"/>
</svg>
