<?xml version="1.0" encoding="UTF-8"?>
<svg width="406px" height="284px" viewBox="0 0 406 284" version="1.1" xmlns="http://www.w3.org/2000/svg" xmlns:xlink="http://www.w3.org/1999/xlink">
    <!-- Generator: Sketch 53.2 (72643) - https://sketchapp.com -->
    <title>undraw_maintenance_cn7j</title>
    <desc>Created with Sketch.</desc>
    <defs>
        <linearGradient x1="49.9987716%" y1="100.002201%" x2="49.9987716%" y2="0%" id="linearGradient-1">
            <stop stop-color="#808080" stop-opacity="0.25" offset="0%"></stop>
            <stop stop-color="#808080" stop-opacity="0.12" offset="54%"></stop>
            <stop stop-color="#808080" stop-opacity="0.1" offset="100%"></stop>
        </linearGradient>
        <linearGradient x1="50%" y1="100%" x2="50%" y2="7.16453477e-14%" id="linearGradient-2">
            <stop stop-color="#808080" stop-opacity="0.25" offset="0%"></stop>
            <stop stop-color="#808080" stop-opacity="0.12" offset="54%"></stop>
            <stop stop-color="#808080" stop-opacity="0.1" offset="100%"></stop>
        </linearGradient>
        <linearGradient x1="50.0133014%" y1="100%" x2="50.0133014%" y2="0.223214286%" id="linearGradient-3">
            <stop stop-color="#808080" stop-opacity="0.25" offset="0%"></stop>
            <stop stop-color="#808080" stop-opacity="0.12" offset="54%"></stop>
            <stop stop-color="#808080" stop-opacity="0.1" offset="100%"></stop>
        </linearGradient>
        <linearGradient x1="49.9865605%" y1="100%" x2="49.9865605%" y2="-0.0237191933%" id="linearGradient-4">
            <stop stop-color="#808080" stop-opacity="0.25" offset="0%"></stop>
            <stop stop-color="#808080" stop-opacity="0.12" offset="54%"></stop>
            <stop stop-color="#808080" stop-opacity="0.1" offset="100%"></stop>
        </linearGradient>
        <linearGradient x1="49.9987829%" y1="100.010091%" x2="49.9987829%" y2="-0.00561662235%" id="linearGradient-5">
            <stop stop-color="#808080" stop-opacity="0.25" offset="0%"></stop>
            <stop stop-color="#808080" stop-opacity="0.12" offset="54%"></stop>
            <stop stop-color="#808080" stop-opacity="0.1" offset="100%"></stop>
        </linearGradient>
        <linearGradient x1="50%" y1="100%" x2="50%" y2="0.00923872875%" id="linearGradient-6">
            <stop stop-color="#808080" stop-opacity="0.25" offset="0%"></stop>
            <stop stop-color="#808080" stop-opacity="0.12" offset="54%"></stop>
            <stop stop-color="#808080" stop-opacity="0.1" offset="100%"></stop>
        </linearGradient>
        <linearGradient x1="50.0196887%" y1="100.000397%" x2="50.0196887%" y2="-0.00714773576%" id="linearGradient-7">
            <stop stop-color="#808080" stop-opacity="0.25" offset="0%"></stop>
            <stop stop-color="#808080" stop-opacity="0.12" offset="54%"></stop>
            <stop stop-color="#808080" stop-opacity="0.1" offset="100%"></stop>
        </linearGradient>
        <linearGradient x1="50%" y1="100%" x2="50%" y2="0%" id="linearGradient-8">
            <stop stop-color="#808080" stop-opacity="0.25" offset="0%"></stop>
            <stop stop-color="#808080" stop-opacity="0.12" offset="54%"></stop>
            <stop stop-color="#808080" stop-opacity="0.1" offset="100%"></stop>
        </linearGradient>
        <linearGradient x1="49.9992403%" y1="100.028907%" x2="49.9992403%" y2="0.0289073039%" id="linearGradient-9">
            <stop stop-color="#808080" stop-opacity="0.25" offset="0%"></stop>
            <stop stop-color="#808080" stop-opacity="0.12" offset="54%"></stop>
            <stop stop-color="#808080" stop-opacity="0.1" offset="100%"></stop>
        </linearGradient>
        <linearGradient x1="50.0066577%" y1="100.007741%" x2="50.0066577%" y2="0%" id="linearGradient-10">
            <stop stop-color="#808080" stop-opacity="0.25" offset="0%"></stop>
            <stop stop-color="#808080" stop-opacity="0.12" offset="54%"></stop>
            <stop stop-color="#808080" stop-opacity="0.1" offset="100%"></stop>
        </linearGradient>
        <linearGradient x1="50.0536097%" y1="100.093824%" x2="50.0536097%" y2="0.086586353%" id="linearGradient-11">
            <stop stop-color="#808080" stop-opacity="0.25" offset="0%"></stop>
            <stop stop-color="#808080" stop-opacity="0.12" offset="54%"></stop>
            <stop stop-color="#808080" stop-opacity="0.1" offset="100%"></stop>
        </linearGradient>
        <linearGradient x1="49.9916472%" y1="100.004726%" x2="49.9916472%" y2="0%" id="linearGradient-12">
            <stop stop-color="#808080" stop-opacity="0.25" offset="0%"></stop>
            <stop stop-color="#808080" stop-opacity="0.12" offset="54%"></stop>
            <stop stop-color="#808080" stop-opacity="0.1" offset="100%"></stop>
        </linearGradient>
        <linearGradient x1="49.9828891%" y1="99.9897529%" x2="49.9828891%" y2="-0.0107208456%" id="linearGradient-13">
            <stop stop-color="#808080" stop-opacity="0.25" offset="0%"></stop>
            <stop stop-color="#808080" stop-opacity="0.12" offset="54%"></stop>
            <stop stop-color="#808080" stop-opacity="0.1" offset="100%"></stop>
        </linearGradient>
        <linearGradient x1="49.9856999%" y1="100%" x2="49.9856999%" y2="-0.0313904215%" id="linearGradient-14">
            <stop stop-color="#808080" stop-opacity="0.25" offset="0%"></stop>
            <stop stop-color="#808080" stop-opacity="0.12" offset="54%"></stop>
            <stop stop-color="#808080" stop-opacity="0.1" offset="100%"></stop>
        </linearGradient>
        <linearGradient x1="50.0273724%" y1="99.9750224%" x2="50.0273724%" y2="-0.00561662235%" id="linearGradient-15">
            <stop stop-color="#808080" stop-opacity="0.25" offset="0%"></stop>
            <stop stop-color="#808080" stop-opacity="0.12" offset="54%"></stop>
            <stop stop-color="#808080" stop-opacity="0.1" offset="100%"></stop>
        </linearGradient>
        <linearGradient x1="50.021561%" y1="100%" x2="50.021561%" y2="0%" id="linearGradient-16">
            <stop stop-color="#808080" stop-opacity="0.25" offset="0%"></stop>
            <stop stop-color="#808080" stop-opacity="0.12" offset="54%"></stop>
            <stop stop-color="#808080" stop-opacity="0.1" offset="100%"></stop>
        </linearGradient>
        <linearGradient x1="50.005883%" y1="100%" x2="50.005883%" y2="0%" id="linearGradient-17">
            <stop stop-color="#808080" stop-opacity="0.25" offset="0%"></stop>
            <stop stop-color="#808080" stop-opacity="0.12" offset="54%"></stop>
            <stop stop-color="#808080" stop-opacity="0.1" offset="100%"></stop>
        </linearGradient>
        <linearGradient x1="50%" y1="100%" x2="50%" y2="0%" id="linearGradient-18">
            <stop stop-color="#808080" stop-opacity="0.25" offset="0%"></stop>
            <stop stop-color="#808080" stop-opacity="0.12" offset="54%"></stop>
            <stop stop-color="#808080" stop-opacity="0.1" offset="100%"></stop>
        </linearGradient>
        <linearGradient x1="49.9935757%" y1="100%" x2="49.9935757%" y2="0%" id="linearGradient-19">
            <stop stop-color="#808080" stop-opacity="0.25" offset="0%"></stop>
            <stop stop-color="#808080" stop-opacity="0.12" offset="54%"></stop>
            <stop stop-color="#808080" stop-opacity="0.1" offset="100%"></stop>
        </linearGradient>
        <linearGradient x1="49.960287%" y1="99.9608974%" x2="49.960287%" y2="0.00677444961%" id="linearGradient-20">
            <stop stop-color="#808080" stop-opacity="0.25" offset="0%"></stop>
            <stop stop-color="#808080" stop-opacity="0.12" offset="54%"></stop>
            <stop stop-color="#808080" stop-opacity="0.1" offset="100%"></stop>
        </linearGradient>
    </defs>
    <g id="Web---1.5" stroke="none" stroke-width="1" fill="none" fill-rule="evenodd">
        <g id="Accounts" transform="translate(-840.000000, -366.000000)" fill-rule="nonzero">
            <g id="undraw_maintenance_cn7j" transform="translate(1043.000000, 599.000000) scale(-1, 1) translate(-1043.000000, -599.000000) translate(840.000000, 366.000000)">
                <rect id="Rectangle" fill="#B0BEC5" x="207" y="171" width="5" height="5"></rect>
                <rect id="Rectangle" fill="#B0BEC5" x="212" y="171" width="5" height="5"></rect>
                <rect id="Rectangle" fill="#B0BEC5" x="222" y="171" width="5" height="5"></rect>
                <rect id="Rectangle" fill="#B0BEC5" x="229" y="171" width="5" height="5"></rect>
                <rect id="Rectangle" fill="#B0BEC5" x="235" y="171" width="5" height="5"></rect>
                <rect id="Rectangle" fill="#B0BEC5" x="242" y="171" width="5" height="5"></rect>
                <rect id="Rectangle" fill="#B0BEC5" x="250" y="171" width="5" height="5"></rect>
                <rect id="Rectangle" fill="#B0BEC5" x="260" y="171" width="5" height="5"></rect>
                <rect id="Rectangle" fill="#B0BEC5" x="267" y="171" width="5" height="5"></rect>
                <rect id="Rectangle" fill="#B0BEC5" x="272" y="171" width="5" height="5"></rect>
                <rect id="Rectangle" fill="url(#linearGradient-1)" x="156" y="171" width="250" height="277"></rect>
                <rect id="Rectangle" fill="#ECEFF1" x="164" y="267" width="242" height="88"></rect>
                <rect id="Rectangle" fill="#ECEFF1" x="164" y="179" width="242" height="88"></rect>
                <rect id="Rectangle" fill="#64FFDA" x="179" y="201" width="10" height="43"></rect>
                <g id="Group" opacity="0.7" transform="translate(202.000000, 199.000000)" fill="#64FFDA">
                    <rect id="Rectangle" x="0.175" y="0.394520548" width="9.53125" height="44.5623288"></rect>
                </g>
                <g id="Group" opacity="0.6" transform="translate(222.000000, 199.000000)" fill="#64FFDA">
                    <rect id="Rectangle" x="0.24375" y="0.394520548" width="9.53125" height="44.5623288"></rect>
                </g>
                <g id="Group" opacity="0.5" transform="translate(235.000000, 199.000000)" fill="#64FFDA">
                    <rect id="Rectangle" x="0.3125" y="0.394520548" width="9.53125" height="44.5623288"></rect>
                </g>
                <g id="Group" opacity="0.5" transform="translate(255.000000, 199.000000)" fill="#64FFDA">
                    <rect id="Rectangle" x="0.38125" y="0.394520548" width="9.53125" height="44.5623288"></rect>
                </g>
                <g id="Group" opacity="0.4" transform="translate(275.000000, 199.000000)" fill="#64FFDA">
                    <rect id="Rectangle" x="0.45" y="0.394520548" width="9.53125" height="44.5623288"></rect>
                </g>
                <g id="Group" opacity="0.3" transform="translate(293.000000, 199.000000)" fill="#64FFDA">
                    <rect id="Rectangle" x="0.482352941" y="0.394520548" width="8.97058824" height="44.5623288"></rect>
                </g>
                <circle id="Oval" fill="url(#linearGradient-2)" cx="367" cy="223" r="24"></circle>
                <circle id="Oval" fill="#12C29E" cx="368.5" cy="221.5" r="22.5"></circle>
                <path d="M288,184 L200.026071,184 C198.354818,184 197,182.376033 197,180.372768 L197,174.627232 C197,172.623967 198.354818,171 200.026071,171 L288,171 L288,184 Z" id="Path" fill="url(#linearGradient-3)"></path>
                <path d="M293,181 L205.079943,181 C203.378938,181 202,179.484376 202,177.61476 L202,174.38524 C202,172.515624 203.378938,171 205.079943,171 L293,171 L293,181 Z" id="Path" fill="#B0BEC5"></path>
                <path d="M62.5108482,123.459582 L127.957372,179 L204,163.590045 L198.109813,147.151565 L139.183009,153.825026 L80.2250407,104.192654 C77.3720566,101.790243 73.5905317,100.662021 69.8205688,101.088468 C66.0506058,101.514916 62.6462933,103.455978 60.4539574,106.4291 L60.4539574,106.4291 C56.5154129,111.779256 57.4014302,119.115232 62.5108482,123.459582 Z" id="Path" fill="url(#linearGradient-4)"></path>
                <path d="M199.833191,165.995504 C199.833191,165.995504 219.0426,166.538366 226.141193,155.693746 C233.239786,144.849125 194,148.642849 194,148.642849 L199.833191,165.995504 Z" id="Path" fill="url(#linearGradient-5)"></path>
                <circle id="Oval" fill="url(#linearGradient-6)" cx="54" cy="57" r="34"></circle>
                <path d="M40.4325606,91.1351041 C40.4325606,91.1351041 -2.5939738,119.736054 8.33290868,208.154546 C9.66342638,218.835894 8.7230364,229.673759 5.57178144,239.976158 L0,258.065648 C0,258.065648 94.6583757,260.16794 97.3142582,258.065648 C98.9610292,256.763938 97.6795194,223.445054 93.0611317,177.225185 C90.2319049,148.911467 99.1034191,109.524048 68.6010112,88 L40.4325606,91.1351041 Z" id="Path" fill="url(#linearGradient-7)"></path>
                <polygon id="Path" fill="url(#linearGradient-8)" points="98.5898273 254 141.151731 342.705393 146 433 115.831601 433 102.898703 339.514596 77.0391786 294.367292 51.1796546 433 21.0112553 433 30.1683993 329.954572 0 255.063599"></polygon>
                <g id="Group" opacity="0.2" transform="translate(38.000000, 18.000000)" fill="url(#linearGradient-9)">
                    <path d="M16.7560976,0.354 C11.0588661,0.342564063 5.45664271,1.78998022 0.5,4.554 C16.604733,-2.34805445 35.3814079,4.3762055 43.2104733,19.8493771 C51.0395386,35.3225488 45.1755649,54.1186331 29.8719512,62.604 C44.2258493,56.4849712 52.2415757,41.290146 49.0667925,26.2177455 C45.8920093,11.1453451 32.3991294,0.337181223 16.7560976,0.336 L16.7560976,0.354 Z" id="Path"></path>
                </g>
                <path d="M96,0 L86.5887533,13.8865237 C83.2079535,18.8796346 78.2961077,24.5489589 72.2156674,23.389736 C69.3910436,22.852388 67.1288448,20.8841242 64.8728953,19.1634027 C57.4926281,13.5001161 48.362594,9.66019042 38.938849,9.60585185 C29.515104,9.55151328 19.8726381,13.6510566 14.5670946,21.1678923 C10.6363681,26.7164641 9.28029867,33.5631241 8.50540186,40.2407307 C6.94935909,53.595944 8.50540186,69.3601672 20.0476148,76.85889 C20.9797335,77.5765078 22.1305411,77.9775377 23.3221787,78 C24.5720122,77.921511 25.5843774,77.1547333 26.5217526,76.3939933 C40.9698285,64.6991253 49.0187566,45.6806254 66.4164397,37.6505922 C74.0966669,34.1125474 85.2701789,34.0823593 91.4631042,28.0688908 C100.586889,19.2298165 90.488234,8.13267281 96,0 Z" id="Path" fill="url(#linearGradient-10)"></path>
                <g id="Group" opacity="0.2" transform="translate(23.000000, 0.000000)">
                    <path d="M38.9675207,19.044 C41.1454545,20.766 43.3233884,22.722 46.0563636,23.244 C47.166188,23.4628853 48.3104931,23.4403702 49.4107438,23.178 C46.8104959,22.578 44.7049587,20.688 42.5994215,19.032 C35.4743802,13.404 26.6600826,9.588 17.5622314,9.534 C16.9227273,9.534 16.2892562,9.534 15.6497521,9.588 C24.1563636,10.086 32.331157,13.8 38.9675207,19.044 Z" id="Path" fill="url(#linearGradient-11)"></path>
                    <path d="M72.6440496,0 L67.4013223,7.974 C67.9020661,14.532 70.7979339,21.774 64.656281,27.894 C58.6714876,33.894 47.8843802,33.894 40.4757851,37.416 C23.6616529,45.396 15.9031405,64.302 1.9607438,75.918 C1.48253449,76.3341824 0.965353409,76.7038695 0.416280992,77.022 C1.05316694,77.3686577 1.77207473,77.5385922 2.49768595,77.514 C3.70429752,77.436 4.68165289,76.674 5.58661157,75.918 C19.5350413,64.296 27.3056198,45.396 44.1016529,37.416 C51.516281,33.9 62.3033884,33.87 68.2821488,27.894 C77.072314,19.11 67.3228926,8.082 72.6440496,0 Z" id="Path" fill="url(#linearGradient-12)"></path>
                </g>
                <g id="Group" opacity="0.2" transform="translate(61.000000, 88.000000)" fill="url(#linearGradient-13)">
                    <path d="M29.8567797,89.2790391 C27.1457627,61.0853381 35.6466102,21.8648754 6.41864407,0.432064057 L0.231355932,1.15014235 C28.320339,22.7411744 20.0449153,61.395694 22.7262712,89.29121 C27.1516949,135.31516 28.3855932,168.492811 26.8016949,169.789004 C26.0245763,170.397544 17.0491525,170.677473 4.95338983,170.713986 C20.5135593,170.756584 33.0127119,170.54968 33.9381356,169.789004 C35.5101695,168.480641 34.2762712,135.302989 29.8567797,89.2790391 Z" id="Path"></path>
                </g>
                <path d="M42.5204906,135.451065 L107.962554,191 L184,175.587682 L178.054121,159.152661 L119.162496,165.833127 L60.2085455,116.193143 C57.3557559,113.790365 53.5744887,112.66197 49.8047827,113.088482 C46.0350766,113.514995 42.6309961,115.456355 40.4388097,118.429933 L40.4388097,118.429933 C36.5141733,123.784421 37.41058,131.114005 42.5204906,135.451065 L42.5204906,135.451065 Z" id="Path" fill="url(#linearGradient-14)"></path>
                <path d="M179.848491,173.995504 C179.848491,173.995504 199.047337,174.538366 206.142026,163.693746 C213.236715,152.849125 174,156.642849 174,156.642849 L179.848491,173.995504 Z" id="Path" fill="url(#linearGradient-15)"></path>
                <rect id="Rectangle" fill="url(#linearGradient-16)" x="38" y="73" width="30" height="28" rx="14"></rect>
                <g id="Group" opacity="0.2" transform="translate(43.000000, 254.000000)" fill="url(#linearGradient-17)">
                    <polygon id="Path" points="93.1608696 88.709931 51.8547826 0.166655172 46.1330435 0.22837931 87.4086957 88.709931 92.113913 178.839517 97.866087 178.839517"></polygon>
                </g>
                <g id="Group" opacity="0.2" transform="translate(134.000000, 158.000000)" fill="url(#linearGradient-18)">
                    <polygon id="Path" points="52.5282418 4.13090909 51.4624176 0.261818182 0.413516484 7.79636364"></polygon>
                </g>
                <polygon id="Path" fill="url(#linearGradient-19)" points="25 133.96356 43.0023127 101 73 111.989847 43.0023127 154"></polygon>
                <path d="M64.3023955,127.887956 L126.604309,182 L199,166.989508 L193.391668,150.978716 L137.308351,157.483662 L81.1640066,109.109866 C78.4471425,106.769487 74.8460844,105.670559 71.2561547,106.086305 C67.6662251,106.50205 64.4246387,108.393418 62.3373435,111.290161 L62.3373435,111.290161 C58.5841997,116.505088 59.4308976,123.656714 64.3023955,127.887956 L64.3023955,127.887956 Z" id="Path" fill="#CA7070"></path>
                <path d="M199.832988,168.995449 C199.832988,168.995449 219.045671,169.540723 226.141733,158.693665 C233.237795,147.846608 194,151.644052 194,151.644052 L199.832988,168.995449 Z" id="Path" fill="#CA7070"></path>
                <circle id="Oval" fill="#CA7070" cx="54.5" cy="59.5" r="31.5"></circle>
                <path d="M41.5864149,94.0010534 C41.5864149,94.0010534 -0.562610891,121.432368 10.1429923,206.233218 C11.4464274,216.478652 10.5248015,226.874212 7.43697493,236.755979 L2,254.105442 C2,254.105442 94.7216218,256.118197 97.3278781,254.105442 C98.9427594,252.858017 97.6832767,220.901017 93.162856,176.572204 C90.3944881,149.418095 99.0799308,111.639775 69.201509,91 L41.5864149,94.0010534 Z" id="Path" fill="#263238"></path>
                <polygon id="Path" fill="#5CAADE" points="95.867977 255 136.389178 339.740783 141 426 112.279064 426 99.9692138 336.69784 75.3495141 293.562158 50.7298145 426 22.0027385 426 30.7209364 327.56294 2 256.014314"></polygon>
                <path d="M58.8468415,30.0237789 C53.2912846,30.0183482 47.8299501,31.419687 43,34.0899633 C58.6590939,27.6044357 76.8017123,34.107505 84.3903481,48.9259862 C91.9789839,63.7444674 86.3865665,81.748427 71.6318753,90 C85.6151973,84.0980151 93.4209428,69.4604201 90.3272575,54.9417944 C87.2335722,40.4231686 74.0897855,30.0094045 58.8468415,30 L58.8468415,30.0237789 Z" id="Path" fill="#FFFFFF" opacity="0.2"></path>
                <path d="M96,7 L87.1263395,20.542698 C83.9381254,25.381536 79.3073353,30.9280541 73.5915827,29.8030243 C70.9246356,29.2768006 68.7971391,27.3836053 66.6696426,25.6718663 C59.6992126,20.1555909 51.0922468,16.41154 42.2307087,16.3571031 C33.3691707,16.3026661 24.2469992,20.3007561 19.1979833,27.6194986 C15.4945636,33.0208516 14.2156412,39.7165937 13.4761695,46.2066852 C12.0093485,59.217111 13.4761695,74.5804218 24.3864078,81.8931158 C25.2654873,82.589438 26.3494348,82.9783317 27.4715808,83 C28.623217,82.9213689 29.6051385,82.1773975 30.5022025,81.4334262 C44.1278779,70.0440111 51.7165548,51.5052129 68.1425248,43.6844409 C75.3857108,40.2367688 85.9262133,40.2065261 91.7813745,34.351532 C100.333789,25.7384003 90.8055143,14.9235973 96,7 Z" id="Path" fill="#263238"></path>
                <g id="Group" opacity="0.2" transform="translate(22.000000, 7.000000)" fill="#FFFFFF">
                    <path d="M37.9368644,18.7366929 C40.0488136,20.4062992 42.1487288,22.3272441 44.8082203,22.823937 C45.8849844,23.03697 46.9952771,23.0165586 48.0633898,22.7640945 C45.5422881,22.1656693 43.4965254,20.3703937 41.4447458,18.7426772 C34.5433051,13.2790551 25.9992373,9.57480315 17.2024576,9.52094488 C16.6007627,9.52094488 15.9689831,9.52094488 15.3492373,9.57480315 C23.550339,10.0475591 31.4626271,13.6201575 37.9368644,18.7366929 Z" id="Path"></path>
                    <path d="M70.5788136,0.263307087 L65.4884746,8.00094488 C65.9698305,14.3622047 68.7857627,21.3697638 62.8229661,27.3240945 C57.0166102,33.1168504 46.5772034,33.1467717 39.3568644,36.5577953 C23.0449153,44.2954331 15.5237288,62.6371654 1.99161017,73.9055118 C1.52783946,74.3094575 1.02612886,74.668165 0.493389831,74.9766929 C1.10999124,75.3130785 1.80617526,75.478428 2.5090678,75.4554331 C3.65228814,75.3776378 4.6270339,74.6415748 5.51754237,73.9055118 C19.0436441,62.6371654 26.5768644,44.2954331 42.8827966,36.5577953 C50.0730508,33.1467717 60.5365254,33.1168504 66.3488983,27.3240945 C74.8809322,18.8025197 65.4222881,8.10267717 70.5788136,0.263307087 Z" id="Path"></path>
                </g>
                <path d="M93.4483406,176.561436 C90.8477511,149.410743 99.0068078,111.637177 70.9391841,91 L65,91.6929271 C91.9723304,112.486766 84.0241323,149.724067 86.601293,176.579512 C90.8477511,220.902746 92.0309022,252.855724 90.5138917,254.102993 C89.7700293,254.705538 81.1423979,254.958608 69.5334601,254.99476 C84.4809926,255.036938 96.4765045,254.832073 97.3667964,254.102993 C98.883807,252.837648 97.7123703,220.890695 93.4483406,176.561436 Z" id="Path" fill="#FFFFFF" opacity="0.2"></path>
                <path d="M44.3126927,134.911915 L106.609844,189 L179,173.989508 L173.392097,157.978716 L117.313067,164.483662 L61.1730148,116.109866 C58.4563584,113.769487 54.8555756,112.670559 51.2659204,113.086305 C47.6762651,113.50205 44.4349266,115.393418 42.3477909,118.290161 L42.3477909,118.290161 C38.5800769,123.509741 39.4274445,130.677903 44.3126927,134.911915 L44.3126927,134.911915 Z" id="Path" fill="#CA7070"></path>
                <path d="M179.832988,178.995449 C179.832988,178.995449 199.045671,179.540723 206.141733,168.693665 C213.237795,157.846608 174,161.644052 174,161.644052 L179.832988,178.995449 Z" id="Path" fill="#CA7070"></path>
                <rect id="Rectangle" fill="#CA7070" x="40" y="78" width="30" height="28" rx="14"></rect>
                <g id="Group" opacity="0.2" transform="translate(46.000000, 255.000000)" fill="#FFFFFF">
                    <polygon id="Path" points="93.0001274 84.7359574 51.8026752 0.133404255 46.0912102 0.194042553 87.2636943 84.7359574 91.951465 170.854468 97.6878981 170.854468"></polygon>
                </g>
                <polygon id="Path" fill="#FFFFFF" opacity="0.2" points="184 165.107249 182.921972 161 131 169"></polygon>
                <polygon id="Path" fill="#263238" points="30 138.962065 46.8727705 106 75 116.987355 46.8727705 159"></polygon>
                <path d="M285,173.577092 L337.969213,102.243586 C338.453739,101.590762 339.180625,101.155699 339.989485,101.034392 C340.798345,100.913085 341.622701,101.115503 342.280661,101.596985 L344.744345,103.396488 C345.403504,103.876357 345.84279,104.596256 345.965274,105.397341 C346.087759,106.198426 345.883376,107.014859 345.397221,107.666494 L292.428008,179 L285,173.577092 Z" id="Path" fill="url(#linearGradient-20)"></path>
                <path d="M285,172.304957 L337.169271,104.207203 C337.654721,103.573479 338.382994,103.151144 339.193396,103.033386 C340.003799,102.915628 340.829727,103.112124 341.488941,103.579519 L341.74195,103.757166 C342.402367,104.222995 342.84249,104.921833 342.965208,105.699481 C343.087926,106.477129 342.883153,107.269675 342.396072,107.902246 L290.226801,176 L285,172.304957 Z" id="Path" fill="#B0BEC5"></path>
            </g>
        </g>
    </g>
</svg>