<?xml version="1.0" encoding="UTF-8"?>
<svg width="91px" height="91px" viewBox="0 0 91 91" version="1.1" xmlns="http://www.w3.org/2000/svg" xmlns:xlink="http://www.w3.org/1999/xlink">
    <title>Bitmap</title>
    <defs>
        <circle id="path-1" cx="45.5" cy="45.5" r="45.5"></circle>
    </defs>
    <g id="Parent-accounts-(SP-1091)" stroke="none" stroke-width="1" fill="none" fill-rule="evenodd">
        <g id="Parent" transform="translate(-221.000000, -192.000000)">
            <g id="Group-3" transform="translate(193.000000, 168.000000)">
                <g id="Bitmap" transform="translate(28.000000, 24.000000)">
                    <mask id="mask-2" fill="white">
                        <use xlink:href="#path-1"></use>
                    </mask>
                    <use id="Oval" fill="#E5F7F1" xlink:href="#path-1"></use>
                    <path d="M45.4610298,29.5 C43.9927826,29.5218036 42.8195636,30.728789 42.8396483,32.1971132 L42.8396483,42.8389296 L32.1982417,42.8389296 C31.2388233,42.8253606 30.3464205,43.3294517 29.8627516,44.1581766 C29.3790828,44.9869016 29.3790828,46.011866 29.8627516,46.8405909 C30.3464205,47.6693159 31.2388233,48.173407 32.1982417,48.1598379 L42.8396483,48.1598379 L42.8396483,58.8016544 C42.8260798,59.7611097 43.3301515,60.6535469 44.1588445,61.1372344 C44.9875375,61.6209219 46.0124625,61.6209219 46.8411555,61.1372344 C47.6698485,60.6535469 48.1739202,59.7611097 48.1603517,58.8016544 L48.1603517,48.1598379 L58.8017583,48.1598379 C59.7611767,48.173407 60.6535795,47.6693159 61.1372484,46.8405909 C61.6209172,46.011866 61.6209172,44.9869016 61.1372484,44.1581766 C60.6535795,43.3294517 59.7611767,42.8253606 58.8017583,42.8389296 L48.1603517,42.8389296 L48.1603517,32.1971132 C48.1701819,31.4784491 47.8888624,30.7863766 47.3804176,30.2784016 C46.8719728,29.7704266 46.1796564,29.4897629 45.4610298,29.5 Z" id="Path" fill="#00B476" fill-rule="nonzero" mask="url(#mask-2)"></path>
                </g>
            </g>
        </g>
    </g>
</svg>