<?xml version="1.0" encoding="UTF-8"?>
<svg width="22px" height="22px" viewBox="0 0 22 22" version="1.1" xmlns="http://www.w3.org/2000/svg">
    <title>Shape</title>
    <g id="Web" stroke="none" stroke-width="1" fill="none" fill-rule="evenodd">
        <g id="Rooms" transform="translate(-871.000000, -71.000000)" fill="#FFFFFF" fill-rule="nonzero">
            <g id="Done" transform="translate(855.000000, 56.000000)">
                <g id="icons8-add_folder" transform="translate(16.000000, 15.000000)">
                    <path d="M1.57142857,0 C0.703214286,0 0,0.703214286 0,1.57142857 L0,3.92857143 L8.64285714,3.92857143 L20.4285714,3.92857143 L20.4285714,3.14285714 C20.4285714,2.27464286 19.7253571,1.57142857 18.8571429,1.57142857 L7.22795779,1.57142857 L6.74302436,0.762695293 C6.4593815,0.289695293 5.94800446,0 5.39564732,0 L1.57142857,0 Z M0.785714286,5.5 C0.352,5.5 0,5.852 0,6.28571429 L0,15.7142857 C0,16.5825 0.703214286,17.2857143 1.57142857,17.2857143 L9.60965421,17.2857143 C9.49415421,16.7797143 9.42857143,16.2548571 9.42857143,15.7142857 C9.42857143,11.8085 12.5942143,8.64285714 16.5,8.64285714 C17.9543571,8.64285714 19.305,9.08252557 20.4285714,9.83523986 L20.4285714,6.28571429 C20.4285714,5.852 20.0765714,5.5 19.6428571,5.5 L0.785714286,5.5 Z M16.5,10.2142857 C13.4624286,10.2142857 11,12.6767143 11,15.7142857 C11,18.7518571 13.4624286,21.2142857 16.5,21.2142857 C19.5375714,21.2142857 22,18.7518571 22,15.7142857 C22,12.6767143 19.5375714,10.2142857 16.5,10.2142857 Z M16.5,12.5714286 C16.9337143,12.5714286 17.2857143,12.9226429 17.2857143,13.3571429 L17.2857143,14.9285714 L18.8571429,14.9285714 C19.2908571,14.9285714 19.6428571,15.2797857 19.6428571,15.7142857 C19.6428571,16.1487857 19.2908571,16.5 18.8571429,16.5 L17.2857143,16.5 L17.2857143,18.0714286 C17.2857143,18.5059286 16.9337143,18.8571429 16.5,18.8571429 C16.0662857,18.8571429 15.7142857,18.5059286 15.7142857,18.0714286 L15.7142857,16.5 L14.1428571,16.5 C13.7091429,16.5 13.3571429,16.1487857 13.3571429,15.7142857 C13.3571429,15.2797857 13.7091429,14.9285714 14.1428571,14.9285714 L15.7142857,14.9285714 L15.7142857,13.3571429 C15.7142857,12.9226429 16.0662857,12.5714286 16.5,12.5714286 Z" id="Shape"></path>
                </g>
            </g>
        </g>
    </g>
</svg>
