<svg width="24" height="24" viewBox="0 0 24 24" fill="none" xmlns="http://www.w3.org/2000/svg">
<path fill-rule="evenodd" clip-rule="evenodd" d="M10.4 0C6.7236 0 5.2 2.31304 5.2 5.10042C5.2 6.03889 5.65703 6.98153 5.65703 6.98153C5.4733 7.08523 5.17113 7.41444 5.2474 7.99928C5.38953 9.08992 5.87159 9.36766 6.17839 9.39061C6.29539 10.4081 7.41 11.7097 7.8 11.8993V13.5994C7.46774 14.5771 6.24379 14.9301 4.86071 15.329C2.63619 15.9705 0 16.7308 0 20.4H9.98698C9.69838 19.6009 9.53333 18.7458 9.53333 17.8498C9.53333 14.8414 11.3079 12.2466 13.8819 10.9961C14.2364 10.5116 14.5609 9.9151 14.6216 9.39061C14.9284 9.36766 15.4105 9.08992 15.5526 7.99928C15.6289 7.41359 15.3267 7.08523 15.143 6.98153C15.143 6.98153 15.6 6.12985 15.6 5.10042C15.6 3.03645 14.7741 1.2751 13 1.2751C13 1.2751 12.3838 0 10.4 0ZM18 12C14.6863 12 12 14.6863 12 18C12 21.3137 14.6863 24 18 24C21.3137 24 24 21.3137 24 18C24 14.6863 21.3137 12 18 12ZM18.9 15.3C18.9 14.8023 18.4968 14.4 18 14.4C17.5032 14.4 17.1 14.8023 17.1 15.3V17.1H15.3C14.8032 17.1 14.4 17.5023 14.4 18C14.4 18.4977 14.8032 18.9 15.3 18.9H17.1V20.7C17.1 21.1977 17.5032 21.6 18 21.6C18.4968 21.6 18.9 21.1977 18.9 20.7V18.9H20.7C21.1968 18.9 21.6 18.4977 21.6 18C21.6 17.5023 21.1968 17.1 20.7 17.1H18.9V15.3Z" fill="white"/>
</svg>
