<svg width="28" height="26" viewBox="0 0 28 26" fill="none" xmlns="http://www.w3.org/2000/svg">
  <path fill-rule="evenodd" clip-rule="evenodd" d="M0 2.5C0 1.395 0.895 0.5 2 0.5H24C25.105 0.5 26 1.395 26 2.5V11.0176C24.57 10.0596 22.851 9.5 21 9.5C18.004 9.5 15.3567 10.9697 13.7207 13.2207L8.71094 8.21094C7.76594 7.26594 6.23406 7.26594 5.28906 8.21094L3 10.5V17.5H12.0586C12.0216 17.829 12 18.162 12 18.5C12 19.188 12.0835 19.856 12.2305 20.5H2C0.895 20.5 0 19.605 0 18.5V2.5ZM23 5.5C23 4.395 22.105 3.5 21 3.5C19.895 3.5 19 4.395 19 5.5C19 6.605 19.895 7.5 21 7.5C22.105 7.5 23 6.605 23 5.5ZM21 11.5C17.134 11.5 14 14.634 14 18.5C14 22.366 17.134 25.5 21 25.5C24.866 25.5 28 22.366 28 18.5C28 14.634 24.866 11.5 21 11.5ZM22 15.5C22 14.947 21.552 14.5 21 14.5C20.448 14.5 20 14.947 20 15.5V17.5H18C17.448 17.5 17 17.947 17 18.5C17 19.053 17.448 19.5 18 19.5H20V21.5C20 22.053 20.448 22.5 21 22.5C21.552 22.5 22 22.053 22 21.5V19.5H24C24.552 19.5 25 19.053 25 18.5C25 17.947 24.552 17.5 24 17.5H22V15.5Z" fill="#7F879D"/>
</svg>
