<?xml version="1.0" encoding="UTF-8"?>
<svg width="150px" height="150px" viewBox="0 0 150 150" version="1.1" xmlns="http://www.w3.org/2000/svg" xmlns:xlink="http://www.w3.org/1999/xlink">
    <!-- Generator: Sketch 53.2 (72643) - https://sketchapp.com -->
    <title>Admin (White)</title>
    <desc>Created with Sketch.</desc>
    <g id="Admin-(White)" stroke="none" stroke-width="1" fill="none" fill-rule="evenodd">
        <g id="icons8-admin_settings_male" fill="#FFFFFF" fill-rule="nonzero">
            <path d="M66.6666667,0 C43.1,0 33.3333333,15.1177602 33.3333333,33.3357447 C33.3333333,39.4695212 36.2630206,45.6304724 36.2630211,45.6304724 C35.0852433,46.3082992 33.1482639,48.4599271 33.6371528,52.2824258 C34.5482639,59.4107193 37.6383678,61.2259561 39.6050333,61.375967 C40.3550333,68.0264481 47.5,76.5335745 50,77.7725531 L50,88.884468 C49.9878222,88.9210095 49.9583,88.9458557 49.9457444,88.9821306 C48.1085389,89.2102138 46.4694167,90.2944311 45.6380222,91.9771417 L43.9019111,95.4713167 C30.19051,103.160062 0,101.253713 0,133.332128 L57.2482667,133.332128 L63.8888889,111.574909 L57.5629333,99.9963829 L66.5147556,99.9963829 L75.4882833,99.9963829 C77.3827278,95.3182667 80.05,91.0551972 83.3333333,87.3327057 L83.3333333,77.7725531 C85.8333333,76.5335745 92.9783,68.0264481 93.7283,61.375967 C95.6949667,61.2259561 98.7850667,59.4107193 99.6961778,52.2824258 C100.185072,48.4543712 98.2480889,46.3082992 97.0703111,45.6304724 C97.0703111,45.6304724 100,40.0640087 100,33.3357447 C100,19.84588 94.7055556,8.33393619 83.3333333,8.33393619 C83.3333333,8.33393619 79.3833333,0 66.6666667,0 Z M114.941406,83.3285105 C114.33585,83.3285105 113.82535,83.7863547 113.758678,84.3919541 L113.628472,85.6073198 C113.45625,87.1685438 112.275522,88.3994496 110.742189,88.7216951 C109.742189,88.9328215 108.768056,89.191868 107.8125,89.5030016 C106.323611,89.9863699 104.692967,89.5054351 103.765189,88.2442328 L103.038194,87.2567447 C102.677083,86.7678204 102.014322,86.6311772 101.486544,86.9312045 L98.5026056,88.6565848 C97.9748278,88.9621625 97.7698778,89.6093482 98.0143222,90.1649439 L98.5134556,91.3151994 C99.1412333,92.7486364 98.7414056,94.3995391 97.5802944,95.4496151 C96.8302944,96.121886 96.1204833,96.8372988 95.4427111,97.5873531 C94.3927056,98.7541041 92.7419278,99.1539608 91.3085944,98.5205817 L90.1584222,98.0214122 C89.6028667,97.7769501 88.9557278,97.9819149 88.6501722,98.5097309 L86.9249111,101.493886 C86.6193556,102.021702 86.7615444,102.684511 87.2504333,103.045648 L88.2378444,103.7727 C89.4989611,104.700545 89.9798611,106.325746 89.4965278,107.820299 C89.1854167,108.775924 88.9208333,109.750127 88.7152778,110.7502 C88.3930556,112.283644 87.1622389,113.464457 85.6011278,113.636692 L84.5811611,113.745205 C83.7922722,113.822989 83.3333333,114.33327 83.3333333,114.938869 L83.3333333,118.37879 C83.3333333,118.98439 83.7911444,119.494927 84.3967,119.561598 L85.6119778,119.702669 C87.1730889,119.874904 88.4039056,121.044867 88.7261278,122.578311 C88.9372389,123.578383 89.1962667,124.563438 89.5073778,125.519062 C89.9907111,127.008059 89.5098111,128.638821 88.2487,129.566666 L87.2612833,130.282863 C86.7723944,130.644 86.6357611,131.31766 86.9357667,131.845476 L88.6610222,134.81878 C88.9665778,135.346596 89.6137167,135.562411 90.1692722,135.317949 L91.3194444,134.81878 C92.7527778,134.190956 94.4035611,134.590813 95.4535611,135.752008 C96.1257833,136.502062 96.8411444,137.211919 97.5911444,137.889746 C98.7578111,138.939828 99.1576389,140.590725 98.5243056,142.024162 L98.0251722,143.163567 C97.7807278,143.719162 97.9856778,144.377199 98.5134556,144.682776 L101.497394,146.397306 C102.025172,146.702884 102.687933,146.56069 103.049044,146.071766 L103.776044,145.084278 C104.703822,143.823075 106.328906,143.352991 107.82335,143.83636 C108.778906,144.147493 109.753039,144.401245 110.753039,144.606815 C112.286372,144.929061 113.4671,146.165523 113.639322,147.721191 L113.769533,148.947407 C113.825089,149.547451 114.33585,150 114.941406,150 L118.381078,150 C118.986633,150 119.497133,149.542156 119.5638,148.936556 L119.704861,147.721191 C119.877083,146.159967 121.046961,144.929061 122.580294,144.606815 C123.580294,144.395689 124.565278,144.136643 125.520833,143.825509 C127.009722,143.342141 128.640367,143.823075 129.568144,145.084278 L130.284289,146.071766 C130.6454,146.56069 131.319011,146.697333 131.846789,146.397306 L134.819878,144.671926 C135.347656,144.366348 135.563456,143.719162 135.319011,143.163567 L134.819878,142.013311 C134.1921,140.579874 134.591928,138.928971 135.753039,137.878895 C136.503039,137.206625 137.212844,136.491212 137.890622,135.741157 C138.940628,134.574406 140.591406,134.17455 142.024739,134.807929 L143.164061,135.307098 C143.719617,135.55156 144.377606,135.346596 144.683161,134.81878 L146.397567,131.834625 C146.703122,131.306809 146.560939,130.644 146.07205,130.282863 L145.084633,129.55581 C143.823522,128.627965 143.353472,127.002764 143.836806,125.508212 C144.147917,124.552587 144.40165,123.578383 144.607206,122.578311 C144.929428,121.044867 146.171094,119.864053 147.732206,119.691819 C148.17665,119.641815 148.591928,119.60049 148.947483,119.561598 C149.547483,119.506039 150,118.995241 150,118.389641 L150,114.938869 C150,114.33327 149.542189,113.822733 148.936633,113.756056 L147.721356,113.625841 C146.160244,113.453606 144.929428,112.272793 144.607206,110.739349 C144.396094,109.739277 144.137067,108.765073 143.825956,107.809448 C143.342622,106.320451 143.823522,104.689689 145.084633,103.761844 L146.07205,103.034797 C146.560939,102.67366 146.697572,102.010851 146.397567,101.483035 L144.672311,98.4988801 C144.366756,97.9710642 143.719617,97.7660993 143.164061,98.0105615 L142.013889,98.5097309 C140.580556,99.1375541 138.929772,98.7376974 137.879772,97.5765023 C137.20755,96.826448 136.492189,96.1165856 135.742189,95.4387643 C134.575522,94.3886828 134.175694,92.7377856 134.809028,91.3043486 L135.308161,90.1540931 C135.552606,89.5984974 135.347656,88.9513117 134.819878,88.645734 L131.835939,86.9203481 C131.308161,86.6147705 130.6454,86.7569696 130.284289,87.2458939 L129.557289,88.2333764 C128.629511,89.4945843 127.004428,89.9755191 125.509983,89.4921508 C124.554428,89.1810172 123.580294,88.9164147 122.580294,88.7108443 C121.046961,88.3885988 119.866233,87.1521371 119.694011,85.596469 L119.5638,84.3811033 C119.508244,83.7866159 118.997483,83.3285105 118.391928,83.3285105 L114.941406,83.3285105 Z M116.666667,99.9963829 C125.872222,99.9963829 133.333333,107.458034 133.333333,116.664255 C133.333333,125.870477 125.872222,133.332128 116.666667,133.332128 C107.461111,133.332128 100,125.870477 100,116.664255 C100,107.458034 107.461111,99.9963829 116.666667,99.9963829 Z M116.666667,111.108298 C113.6,111.108298 111.111111,113.597367 111.111111,116.664255 C111.111111,119.731144 113.6,122.220213 116.666667,122.220213 C119.733333,122.220213 122.222222,119.731144 122.222222,116.664255 C122.222222,113.597367 119.733333,111.108298 116.666667,111.108298 Z" id="Shape"></path>
        </g>
    </g>
</svg>