<svg width="20" height="20" viewBox="0 0 20 20" fill="none" xmlns="http://www.w3.org/2000/svg">
<path d="M9.9999 0.398438C4.6983 0.398438 0.399902 4.69684 0.399902 9.99844C0.399902 15.3 4.6983 19.5984 9.9999 19.5984C15.3015 19.5984 19.5999 15.3 19.5999 9.99844C19.5999 4.69684 15.3015 0.398438 9.9999 0.398438ZM10.9695 4.39844L10.8095 11.5984H9.1903L9.0303 4.39844H10.9695ZM10.0023 15.7496C9.3399 15.7496 8.9439 15.3968 8.9439 14.804C8.9439 14.2 9.3391 13.8472 10.0023 13.8472C10.6599 13.8472 11.0551 14.2 11.0551 14.804C11.0551 15.3968 10.6599 15.7496 10.0023 15.7496Z" fill="#EBBB00"/>
</svg>
