<?xml version="1.0" encoding="UTF-8"?>
<svg width="150px" height="150px" viewBox="0 0 150 150" version="1.1" xmlns="http://www.w3.org/2000/svg" xmlns:xlink="http://www.w3.org/1999/xlink">
    <!-- Generator: Sketch 53.2 (72643) - https://sketchapp.com -->
    <title>Arrow (Jade)</title>
    <desc>Created with Sketch.</desc>
    <g id="Arrow-(Jade)" stroke="none" stroke-width="1" fill="none" fill-rule="evenodd">
        <g id="icons8-arrows_long_right" transform="translate(0.000000, 43.000000)" fill="#00B476" fill-rule="nonzero">
            <path d="M117.766352,0 C115.58853,0.000570550191 113.628197,1.31337319 112.8087,3.32005645 C111.989203,5.32673972 112.473959,7.62715006 114.034641,9.13775665 L131.65837,26.6647889 L5.42815177,26.6647889 C3.49805467,26.6376423 1.70277512,27.6461379 0.729760764,29.304103 C-0.243253588,30.9620681 -0.243253588,33.0126341 0.729760764,34.6705992 C1.70277512,36.3285643 3.49805467,37.3370599 5.42815177,37.3099133 L131.65837,37.3099133 L114.034641,54.8369455 C112.636499,56.1719323 112.07329,58.1543228 112.562225,60.0195725 C113.05116,61.8848221 114.515837,63.3414631 116.391377,63.8277154 C118.266918,64.3139678 120.260245,63.7538488 121.602597,62.3633784 L147.891851,36.2183729 C149.216621,35.2143229 149.995887,33.6541548 149.999984,31.9976803 C150.004081,30.3412057 149.232543,28.7772438 147.912756,27.7667243 C147.902328,27.7597577 147.891876,27.7528277 147.881399,27.7459344 L121.602597,1.61132267 C120.594984,0.581232344 119.211382,8.34851214e-05 117.766352,0 Z" id="Path"></path>
        </g>
    </g>
</svg>