<svg xmlns="http://www.w3.org/2000/svg" width="26" height="16" viewBox="0 0 26 16">
  <path fill="rgb(112,131,160)" fill-rule="evenodd" d="M7.86844559.00058214c-.34106696.0103003-.66478003.15477494-.90255879.40281617l-6.44868 6.53601652c-.3249623.25100339-.51611408.64103135-.51711918 1.0551351-.0010051.41410373.18825102.8050802.51199095 1.05770104.00255807.00174157.00512219.00347401.0076923.00519729l6.44611593 6.5334176c.32927603.34760123.81823181.487623 1.27829426.36606382.46006245-.12155918.8193419-.48570439.93927689-.95199759.11993499-.4662932-.01821561-.96187113-.36117196-1.29560676L4.49923459 9.3277249h20.1692549c.47344745.0067864.91382452-.24532842 1.15250223-.65980478.2386777-.41447637.2386777-.92709943 0-1.3415758-.23867771-.41447635-.67905478-.66659118-1.15250222-.65980477H4.4992346l4.32305139-4.38160043c.38827789-.382534.50502404-.96742867.2939838-1.47284995-.21104024-.50542128-.70657322-.82768503-1.2478242-.81150703z"/>
</svg>
