<svg width="18" height="22" viewBox="0 0 18 22" fill="none" xmlns="http://www.w3.org/2000/svg">
<path d="M17.1818 1.69229C17.1622 1.69229 15.188 1.71091 13.1827 3.31435C10.5859 5.3891 9.15162 9.20606 9.01171 14.3845H12.2729C12.6034 14.3845 12.9029 14.5909 13.0289 14.9065C13.1557 15.223 13.0853 15.5869 12.8513 15.8288L7.12422 21.7519C6.80432 22.0827 6.28725 22.0827 5.96735 21.7519L0.240238 15.8288C0.00624493 15.5869 -0.0649343 15.223 0.0626984 14.9065C0.188695 14.5909 0.48814 14.3845 0.818676 14.3845H4.1044C4.54375 0.41038 15.8687 0 17.1818 0C17.6343 0 18 0.379073 18 0.846146C18 1.31322 17.6343 1.69229 17.1818 1.69229Z" fill="#7F879D"/>
</svg>
