<svg xmlns="http://www.w3.org/2000/svg" width="16.778" height="16.857" viewBox="0 0 16.778 16.857">
  <path fill="rgb(112,131,160)" fill-rule="evenodd" d="M4.89349365 1.40475464C4.89349365.62863159 5.51916504 0 6.29168701 0c.77246094 0 1.39813233.6286316 1.39813233 1.40475464v9.8333435H6.09777832c-.24255371-.41790771-.6883545-.70239257-1.20428467-.70239257-.77246094 0-1.39813232.62863159-1.39813232 1.40478515 0 .77612305.62567138 1.40475464 1.39813232 1.40475464.51593018 0 .96173096-.28448486 1.20428467-.70239258h1.59204102v2.4583435c0 .96997071-.7822876 1.75595094-1.74768067 1.75595094-.85638428 0-1.56530762-.6208191-1.71490478-1.4376831-1.58624268-.16226197-2.82910157-1.49124146-2.82910157-3.12780763 0-.33081054.06402588-.64321899.15838623-.94244384C.61834717 10.71917725 0 9.6472168 0 8.42855835h4.89349365c.3859253 0 .69909668-.31396484.69909668-.70236206V5.42425537c.4159546-.2437439.69909668-.69161987.69909668-1.20996094 0-.77615356-.62567139-1.40478515-1.39819336-1.40478515-.77246094 0-1.39813232.62863159-1.39813232 1.40478515 0 .51834107.28314209.96621704.69909668 1.20996094v1.59954834H.29766846c.26983642-.61740112.70587158-1.14501953 1.2588501-1.51586914-.09436036-.29922485-.15838624-.6116333-.15838624-.94244385 0-1.74542236 1.40863038-3.16073608 3.14587403-3.16073608.12091064 0 .23614502.02233887.3536377.03567505 0-.01193238-.0041504-.02371216-.0041504-.03567505zm4.19445801 0C9.08795166.62863159 9.71362305 0 10.48608398 0c.77252198 0 1.39819336.6286316 1.39819336 1.40475464 0 .01196289-.00415039.02374267-.00415039.03567505.11749268-.01333618.23272705-.03567505.3536377-.03567505 1.73724365 0 3.14587402 1.41531372 3.14587402 3.16073608 0 .33081055-.06402588.643219-.15838623.94244385.93811035.6300354 1.55651856 1.70199585 1.55651856 2.92062378 0 1.1498108-.6916504 2.13742065-1.67803955 2.57220459 0 0 .1868286.2822876.25396728.93972778h-2.77038574v-.89718628c.41595459-.2437439.69909668-.69161987.69909668-1.20996093 0-.77615357-.62567139-1.40478516-1.39813233-1.40478516-.77252197 0-1.39819336.6286316-1.39819336 1.40478516 0 .51904296.2831421.96691894.69909668 1.20996093v1.59954834c0 .38842774.3131714.70239258.69909668.70239258h3.33422852c-.38171387 1.14416504-1.43615723 1.94848633-2.66796875 2.07421875-.14959717.81686402-.8585205 1.4376831-1.71490479 1.4376831-.96539306 0-1.74768066-.78598022-1.74768066-1.75595092V5.61904907h1.59204102c.2425537.41790772.68835449.70239258 1.20428466.70239258.77246094 0 1.39813233-.6286316 1.39813233-1.40478516 0-.77612304-.62567139-1.40475463-1.39813233-1.40475463-.51593017 0-.96173095.28445434-1.20428466.70239257H9.08795166v-2.8095398z"/>
</svg>
