<svg width="70" height="70" viewBox="0 0 70 70" fill="none" xmlns="http://www.w3.org/2000/svg">
<g filter="url(#filter0_d_812_1701)">
<rect x="11" y="9" width="48" height="48" rx="8" fill="white"/>
<path d="M36.0666 26.5996H37.1333C37.3391 26.5996 37.5269 26.7185 37.6154 26.9047C37.7039 27.0908 37.6767 27.3111 37.5461 27.4711L33.0223 32.9996L37.5461 38.5287C37.6767 38.6881 37.7034 38.9084 37.6154 39.0951C37.5274 39.2817 37.3391 39.3996 37.1333 39.3996H36.0666C35.9066 39.3996 35.7551 39.3276 35.6538 39.2039L30.8538 33.3372C30.6933 33.1404 30.6933 32.8583 30.8538 32.6615L35.6538 26.7948C35.7551 26.6716 35.9066 26.5996 36.0666 26.5996Z" fill="#7083A0"/>
<rect x="11" y="9" width="48" height="48" rx="8" stroke="#D4D9E2"/>
</g>
<defs>
<filter id="filter0_d_812_1701" x="0.5" y="0.5" width="69" height="69" filterUnits="userSpaceOnUse" color-interpolation-filters="sRGB">
<feFlood flood-opacity="0" result="BackgroundImageFix"/>
<feColorMatrix in="SourceAlpha" type="matrix" values="0 0 0 0 0 0 0 0 0 0 0 0 0 0 0 0 0 0 127 0" result="hardAlpha"/>
<feOffset dy="2"/>
<feGaussianBlur stdDeviation="5"/>
<feColorMatrix type="matrix" values="0 0 0 0 0.0627451 0 0 0 0 0.0784314 0 0 0 0 0.0941176 0 0 0 0.1 0"/>
<feBlend mode="normal" in2="BackgroundImageFix" result="effect1_dropShadow_812_1701"/>
<feBlend mode="normal" in="SourceGraphic" in2="effect1_dropShadow_812_1701" result="shape"/>
</filter>
</defs>
</svg>
