<svg xmlns="http://www.w3.org/2000/svg" width="26" height="26" viewBox="0 0 26 26">
  <g>
    <path fill="rgb(112,131,160)" fill-rule="evenodd" d="M5 0h16c2.75957512 0 5 2.24042488 5 5v16c0 2.75957512-2.24042488 5-5 5H5c-2.75957512 0-5-2.24042488-5-5V5c0-2.75957512 2.24042488-5 5-5z"/>
    <path fill="rgb(255,255,255)" fill-rule="evenodd" d="M6.07693481 7.50012207c-.31863403.00003052-.5769043.24624634-.57693481.5499878v9.89981078c.00003052.30374146.25830078.54995728.57693481.5499878h1.73074341c.20806885.00280761.40161133-.10140991.50650025-.2727356.10488891-.17132568.10488891-.38320923 0-.55453491-.10488892-.17132568-.2984314-.2755127-.50650025-.27270508h-1.1538391v-8.7998352h1.1538391c.20806885.00280761.40161133-.10140992.50650025-.2727356.10488891-.17132568.10488891-.38320923 0-.55453491-.10488892-.17129517-.2984314-.2755127-.50650025-.27270508h-1.7307434zm12.11538697 0c-.20806885-.00280762-.40158081.10140991-.50646973.27270508-.10488892.17132568-.10488892.38320923 0 .55453491.10488892.17132568.29840088.27554321.50646973.2727356h1.1538391v8.7998352h-1.1538391c-.20806885-.00280762-.40158081.1013794-.50646973.27270508-.10488892.17132568-.10488892.38320923 0 .55453491.10488892.17132569.29840088.27554321.50646973.2727356h1.73077392c.31860352-.00003052.57687378-.24624634.5769043-.5499878V8.05010986c-.00003052-.30374145-.25830078-.54995727-.5769043-.54998779h-1.73077392zm-9.16033936 3.02264404c.10488892-.17129516.29840088-.2755127.50646973-.27270507h6.92306518c.20806885-.00280762.40158081.1014099.50646973.27270507.10488892.17132569.10488892.38320923 0 .55453492-.10488892.17132568-.29840088.2755432-.50646973.2727356H9.53845215c-.20806885.0028076-.40158081-.10140992-.50646973-.2727356-.10488891-.17132569-.10488891-.38320923 0-.55453492zm.50646973 1.9272461c-.20806885-.00280762-.40158081.1014099-.50646973.27270508-.10488891.17132568-.10488891.38320922 0 .5545349.10488892.1713257.29840088.27554322.50646973.2727356h5.19229126c.20806885.00280762.40161133-.1014099.50650024-.2727356.10488892-.17132568.10488892-.38320922 0-.5545349-.10488891-.17129517-.2984314-.2755127-.50650024-.27270508H9.53845215zm-.50646973 2.47265625c.10488892-.17129517.29840088-.2755127.50646973-.27270508h6.92306518c.20806885-.00280762.40158081.10140991.50646973.27270508.10488892.17132568.10488892.38320923 0 .5545349-.10488892.1713257-.29840088.27554322-.50646973.2727356H9.53845215c-.20806885.00280762-.40158081-.1014099-.50646973-.2727356-.10488891-.17132567-.10488891-.38320922 0-.5545349z"/>
  </g>
</svg>
