<svg width="18" height="20" viewBox="0 0 18 20" fill="none" xmlns="http://www.w3.org/2000/svg">
  <path fill-rule="evenodd" clip-rule="evenodd" d="M5.25 0C2.3505 0 0 2.36186 0 5.27494C0 7.93132 1.95698 11.5811 4.5 12.2055V12.3077C4.5 12.7323 4.836 13.0769 5.25 13.0769C5.664 13.0769 6 12.7323 6 12.3077V12.2055C8.54302 11.5811 10.5 7.93132 10.5 5.27494C10.5 2.36186 8.1495 0 5.25 0ZM13.5 3.07692C12.8775 3.07692 12.2837 3.20739 11.7437 3.44201C11.9064 4.02662 12 4.63956 12 5.27494C12 7.07109 11.2482 9.34657 9.94922 11.1043C10.6265 12.3556 11.6167 13.3902 12.75 13.723V13.8462C12.75 14.2708 13.086 14.6154 13.5 14.6154C13.914 14.6154 14.25 14.2708 14.25 13.8462V13.729C16.3776 13.107 18 9.97882 18 7.69231C18 5.14308 15.9855 3.07692 13.5 3.07692ZM3.75 14.6154C3.75 14.1906 4.08579 13.8462 4.5 13.8462C4.91421 13.8462 5.25 14.1906 5.25 14.6154C5.25 15.0402 4.91421 15.3846 4.5 15.3846C4.08579 15.3846 3.75 15.0402 3.75 14.6154ZM12.75 15.3846C12.3358 15.3846 12 15.729 12 16.1538C12 16.5787 12.3358 16.9231 12.75 16.9231C13.1642 16.9231 13.5 16.5787 13.5 16.1538C13.5 15.729 13.1642 15.3846 12.75 15.3846ZM4.5 16.9231C4.5 16.4982 4.83579 16.1538 5.25 16.1538C5.66421 16.1538 6 16.4982 6 16.9231C6 17.3479 5.66421 17.6923 5.25 17.6923C4.83579 17.6923 4.5 17.3479 4.5 16.9231ZM13.5 17.6923C13.0858 17.6923 12.75 18.0367 12.75 18.4615C12.75 18.8864 13.0858 19.2308 13.5 19.2308C13.9142 19.2308 14.25 18.8864 14.25 18.4615C14.25 18.0367 13.9142 17.6923 13.5 17.6923ZM3.75 19.2308C3.75 18.8059 4.08579 18.4615 4.5 18.4615C4.91421 18.4615 5.25 18.8059 5.25 19.2308C5.25 19.6556 4.91421 20 4.5 20C4.08579 20 3.75 19.6556 3.75 19.2308Z" fill="#FFFFFF"/>
</svg>
