<svg width="76" height="40" viewBox="0 0 76 40" fill="none" xmlns="http://www.w3.org/2000/svg">
  <path fill-rule="evenodd" clip-rule="evenodd" d="M31.4 -3.47784e-05C29.5232 -3.47784e-05 28 0.814511 28 1.81815V38.1818C28 39.1854 29.5232 40 31.4 40H41.6C43.4768 40 45 39.1854 45 38.1818V1.81815C45 0.814511 43.4768 -3.47784e-05 41.6 -3.47784e-05H31.4ZM3.44532 0.000187007C1.51521 0.0158417 -0.0260802 0.839372 0.000351476 1.84088V38.1582C-0.0174977 38.8131 0.6456 39.4222 1.73573 39.7524C2.82586 40.0825 4.17414 40.0825 5.26427 39.7524C6.3544 39.4222 7.0175 38.8131 6.99965 38.1582V1.84088C7.0126 1.35005 6.64207 0.877406 5.97247 0.530639C5.30287 0.183871 4.39125 -0.00747909 3.44532 0.000187007ZM16.4453 0.000187007C14.5152 0.0158417 12.9739 0.839372 13.0004 1.84088V38.1582C12.9825 38.8131 13.6456 39.4222 14.7357 39.7524C15.8259 40.0825 17.1741 40.0825 18.2643 39.7524C19.3544 39.4222 20.0175 38.8131 19.9996 38.1582V1.84088C20.0126 1.35005 19.6421 0.877406 18.9725 0.530639C18.3029 0.183871 17.3912 -0.00747909 16.4453 0.000187007ZM69.0004 1.84088C68.9739 0.839372 70.5152 0.0158417 72.4453 0.000187007C73.3913 -0.00747909 74.3029 0.183871 74.9725 0.530639C75.6421 0.877406 76.0126 1.35005 75.9996 1.84088V38.1582C76.0175 38.8131 75.3544 39.4222 74.2643 39.7524C73.1741 40.0825 71.8259 40.0825 70.7357 39.7524C69.6456 39.4222 68.9825 38.8131 69.0004 38.1582V1.84088ZM51 1.81815C51 0.814511 52.4933 -3.47784e-05 54.3333 -3.47784e-05H57.6667C59.5067 -3.47784e-05 61 0.814511 61 1.81815V38.1818C61 39.1854 59.5067 40 57.6667 40H54.3333C52.4933 40 51 39.1854 51 38.1818V1.81815Z" fill="#B7C1CF"/>
</svg>
