<svg xmlns="http://www.w3.org/2000/svg" width="18" height="18" viewBox="0 0 18 18">
  <path fill="rgb(112,131,160)" fill-rule="evenodd" d="M.80548096.00012207C.35424805.00714111-.00610352.37774658.00006104.82843017v16.3427124c-.0041504.29467774.1508789.56878663.40576171.7173462.25482178.14855957.57006836.14855957.82489014 0 .25488281-.14855957.40991211-.42266846.40570068-.7173462V.82843018c.00305176-.22088622-.08355712-.43359374-.2401123-.5895996-.15655518-.1560669-.36968994-.2421875-.59082031-.2387085zm3.27270508 0c-.45123292.00701904-.81158448.37762451-.80541993.8283081v16.3427124c-.00415039.29467774.15087891.56878663.40576172.7173462.25482178.14855957.57006836.14855957.82489014 0 .25488281-.14855957.4099121-.42266846.40570068-.7173462V.82843018c.00305176-.22088622-.08355713-.43359374-.2401123-.5895996-.15655518-.1560669-.36968994-.2421875-.59082031-.2387085zm12.28533935.8283081c-.00616455-.45068359.35418701-.82128906.80541992-.8283081.22113037-.003479.43426514.0826416.59082031.2387085.15655518.15600586.24316407.36871338.24011231.5895996v16.3427124c.00421143.29467774-.15081787.56878663-.40570068.7173462-.25482178.14855957-.57006836.14855957-.82489014 0-.25488281-.14855957-.40991211-.42266846-.40576172-.7173462V.82843018zM7.36364746.01123048c-.45166016 0-.81817627.36608887-.81817627.81713867v16.3427124c0 .4510498.36651611.81713867.81817627.81713867h2.45452881c.45159912 0 .81817627-.36608886.81817627-.81713867V.82836914c0-.4510498-.36657715-.81713867-.81817627-.81713867h-2.4545288zm4.90905762.81713867c0-.4510498.36651611-.81713867.81817627-.81713867h.81817627c.45159912 0 .81817627.36608887.81817627.81713867v16.3427124c0 .4510498-.36657715.81713867-.81817627.81713867h-.81817627c-.45166016 0-.81817627-.36608886-.81817627-.81713867V.82836914z"/>
</svg>
