<svg xmlns="http://www.w3.org/2000/svg" width="26" height="26" viewBox="0 0 26 26">
  <g>
    <path fill="rgb(112,131,160)" fill-rule="evenodd" d="M5 0h16c2.75957512 0 5 2.24042488 5 5v16c0 2.75957512-2.24042488 5-5 5H5c-2.75957512 0-5-2.24042488-5-5V5c0-2.75957512 2.24042488-5 5-5z"/>
    <path fill="rgb(255,255,255)" fill-rule="evenodd" d="M7.2727356 6C6.56982422 6 6 6.56982422 6 7.2727356c.00039673.10479736.01376343.20916748.0397644.31072998l.59658814 3.05627441.01617432.01242065c.09725952.6187439.6302185 1.07476807 1.25656127 1.07510376.07629395-.00021362.1524353-.00726318.22744751-.02111816h.00125123l.0236206-.00372314.00744629-.00250245 6.51776123-1.15216064.39398193 1.90536499c-.48678588.190979-.80722046.66030884-.80786132 1.18322754 0 .70291138.56982421 1.2727356 1.27270507 1.2727356.01409912-.00057984.02819825-.00143433.04226685-.00247193l.29458618 1.42807007-.83151245 1.80966186-.00372314.00622559-.00497437.01242065c-.0871582.175354-.13265991.36846924-.1329956.56427002 0 .70291138.56982421 1.2727356 1.27273559 1.2727356h2.54544067C19.43017578 20 20 19.43017578 20 18.7272644c-.00039673-.1321106-.0213623-.2633667-.06213379-.38900756 0 0-1.30154419-6.8319397-1.37216186-7.26846314-.1217041-.75125122.41903686-1.1958313.69726562-1.37094116.00286865-.00180054.00213623-.0007019.00497437-.00247192.04663086-.02209473.0918579-.04699708.13546753-.07458497l.0149231-.0086975c.3623352-.23428345.5812683-.63616944.58166503-1.06765748l-.00372314-1.1732788-.00125123-.00125123c.0029297-.0326538.00457764-.06539917.00497437-.09817504C20 6.56982422 19.43017578 6 18.7272644 6H7.2727356zM6 14.90908813V20h.63635254v-5.09091187H6zM7.2727356 20v-5.09091187h1.90908813V20H7.2727356zm2.54544067-5.09091187V20h1.2727356v-5.09091187h-1.2727356zM11.7272644 20v-5.09091187h.63635254V20h-.63635254z"/>
  </g>
</svg>
