<svg width="19px" height="20px" viewBox="0 0 19 20" version="1.1" xmlns="http://www.w3.org/2000/svg" xmlns:xlink="http://www.w3.org/1999/xlink">
  <g id="Email-notifications-(SP-1164)" stroke="none" stroke-width="1" fill="none" fill-rule="evenodd">
    <g id="Artboard" transform="translate(-5487.000000, -2081.000000)" fill="#FFFFFF" fill-rule="nonzero">
      <g id="Group-8" transform="translate(5456.000000, 1911.000000)">
        <g id="Group-2" transform="translate(17.000000, 159.054852)">
          <g id="Bathroom" transform="translate(0.000000, 7.945148)">
            <path d="M18.1761158,3.68421053 C16.8276825,3.68421053 15.7345614,4.71348432 15.7345614,5.98315789 C15.7345614,7.25283147 16.8276825,8.28210526 18.1761158,8.28210526 C19.524549,8.28210526 20.6176701,7.25283147 20.6176701,5.98315789 C20.6176701,4.71348432 19.524549,3.68421053 18.1761158,3.68421053 Z M27.9423332,3.68421053 C26.5939,3.68421053 25.5007789,4.71348432 25.5007789,5.98315789 C25.5007789,7.25283147 26.5939,8.28210526 27.9423332,8.28210526 C29.2907665,8.28210526 30.3838876,7.25283147 30.3838876,5.98315789 C30.3838876,4.71348432 29.2907665,3.68421053 27.9423332,3.68421053 Z M30.385477,6.75097038 C30.385477,6.75097038 30.3228105,7.83844436 30.9958656,8.47218752 C31.6689208,9.10593068 32.8238525,9.04692436 32.8238525,9.04692436 C32.8238525,9.04692436 32.8865191,7.95945038 32.2134639,7.32570722 C31.5404088,6.69196406 30.385477,6.75097038 30.385477,6.75097038 Z M17.3622643,9.81473684 C16.0235033,9.81473684 14.92071,10.8531177 14.92071,12.1136842 L14.92071,16.7115789 C14.9177545,16.9166216 15.0021902,17.1142273 15.1551361,17.2602088 C15.308082,17.4061904 15.5167797,17.4883702 15.7345614,17.4883718 L15.7345614,22.0503455 C15.7345614,22.4871455 16.1115399,22.8421053 16.5754353,22.8421053 C17.0181705,22.8421053 17.3854209,22.5188395 17.4147196,22.1027301 L17.7707796,17.0677962 C17.7854289,16.8677878 17.9620729,16.7115789 18.1761158,16.7115789 C18.3901587,16.7115789 18.5668027,16.8685181 18.581452,17.0692929 L18.937512,22.1027301 C18.9668106,22.5180732 19.3340612,22.8421053 19.7767964,22.8421053 C20.2406917,22.8421053 20.6176701,22.4871455 20.6176701,22.0503455 L20.6176701,17.4883718 C20.8354519,17.4883702 21.0441496,17.4061904 21.1970954,17.2602088 C21.3500413,17.1142273 21.434477,16.9166216 21.4315216,16.7115789 L21.4315216,12.1136842 C21.4315216,10.8531177 20.3287285,9.81473684 18.9899672,9.81473684 L17.3622643,9.81473684 Z M27.9407438,9.81473684 C26.613925,9.81473684 25.4546628,10.6891085 25.1669728,11.908635 L25.1685623,11.908635 L23.892151,17.3117598 C23.8387358,17.5386853 23.8975514,17.776175 24.0520589,17.9574469 C24.2065664,18.1387188 24.4400769,18.2441931 24.6869274,18.2442105 C24.6895768,18.2442227 24.6922261,18.2442227 24.6948755,18.2442105 L25.5007789,18.2442105 L25.5007789,22.0503455 C25.5007789,22.4871455 25.8777573,22.8421053 26.3416526,22.8421053 C26.7843878,22.8421053 27.1516383,22.5180732 27.1809369,22.1027301 L27.4543406,18.2442105 L28.4303259,18.2442105 L28.7037295,22.1027301 C28.7330282,22.5188395 29.1002786,22.8421053 29.5430138,22.8421053 C30.0069092,22.8421053 30.3838876,22.4871455 30.3838876,22.0503455 L30.3838876,18.2442105 L31.1548214,18.2442105 L31.197739,18.2442105 C31.4445895,18.2441931 31.6781001,18.1387188 31.8326076,17.9574469 C31.9871151,17.776175 32.0459307,17.5386853 31.9925154,17.3117598 L30.7161042,11.908635 C30.4300305,10.6895254 29.2723309,9.81473684 27.9455121,9.81473684 L27.9407438,9.81473684 Z" id="Shape"></path>
          </g>
        </g>
      </g>
    </g>
  </g>
</svg>
