<svg width="19" height="19" viewBox="0 0 19 19" fill="none" xmlns="http://www.w3.org/2000/svg">
<path d="M12.3985 0.199219C10.7605 0.199219 9.12305 0.824619 7.87345 2.07422L6.28439 3.66172C5.38519 4.56092 4.31642 5.26148 3.15002 5.73828L13.2594 15.8477C13.7362 14.6813 14.4368 13.6133 15.336 12.7133L16.925 11.1242C19.06 8.98924 19.3643 5.72403 17.8516 3.25859C18.1337 3.13283 18.3733 2.92811 18.5416 2.66915C18.7099 2.41019 18.7996 2.10806 18.8 1.79922C18.8 1.37487 18.6314 0.967906 18.3314 0.667848C18.0313 0.36779 17.6244 0.199219 17.2 0.199219C16.8912 0.199595 16.589 0.289347 16.3301 0.457642C16.0711 0.625937 15.8664 0.865583 15.7406 1.14766C14.7179 0.519874 13.5595 0.199219 12.3985 0.199219ZM1.1922 5.79141C1.03306 5.79145 0.877539 5.83895 0.745532 5.92784C0.613524 6.01673 0.511025 6.14297 0.451139 6.29042C0.391254 6.43787 0.376702 6.59983 0.409346 6.75559C0.441989 6.91136 0.520343 7.05384 0.634392 7.16484L4.97345 11.5039C4.57446 11.6355 4.22705 11.8895 3.98052 12.2297C3.73399 12.5699 3.60086 12.9791 3.60002 13.3992C3.60002 13.9297 3.81073 14.4384 4.1858 14.8134C4.56088 15.1885 5.06958 15.3992 5.60002 15.3992C6.02023 15.3988 6.42964 15.2661 6.77014 15.0198C7.11064 14.7735 7.36492 14.4263 7.49689 14.0273L11.8344 18.3648C11.9081 18.4416 11.9964 18.5029 12.0941 18.5451C12.1918 18.5874 12.297 18.6097 12.4034 18.6108C12.5098 18.6119 12.6154 18.5917 12.7139 18.5515C12.8125 18.5112 12.902 18.4517 12.9773 18.3765C13.0525 18.3012 13.112 18.2117 13.1523 18.1131C13.1925 18.0146 13.2127 17.909 13.2116 17.8026C13.2105 17.6962 13.1882 17.591 13.1459 17.4933C13.1037 17.3956 13.0424 17.3073 12.9656 17.2336L1.76564 6.03359C1.69109 5.95696 1.60193 5.89604 1.50344 5.85444C1.40495 5.81285 1.29912 5.79141 1.1922 5.79141Z" fill="url(#paint0_radial_296_1308)"/>
<defs>
<radialGradient id="paint0_radial_296_1308" cx="0" cy="0" r="1" gradientUnits="userSpaceOnUse" gradientTransform="translate(13.9765 13.1589) rotate(-125.318) scale(23.674 23.6723)">
<stop stop-color="#1893E9"/>
<stop offset="1" stop-color="#05B5DE"/>
</radialGradient>
</defs>
</svg>
