<svg width="24" height="24" viewBox="0 0 24 24" fill="none" xmlns="http://www.w3.org/2000/svg">
<path fill-rule="evenodd" clip-rule="evenodd" d="M1.61523 0.0390625C1.74193 0.0136427 1.87078 0.000560681 2 0H14C14.1352 4.19413e-05 14.27 0.013784 14.4023 0.0410156C14.5309 0.067676 14.6565 0.106928 14.7773 0.158203H14.7793C14.8954 0.207495 15.0066 0.267659 15.1113 0.337891L15.1172 0.341797L15.1191 0.34375C15.2198 0.412493 15.3139 0.490291 15.4004 0.576172C15.4024 0.578113 15.4048 0.57956 15.4072 0.581006C15.4096 0.582476 15.4121 0.583947 15.4141 0.585938L15.4199 0.591797C15.5051 0.678354 15.5823 0.772493 15.6504 0.873047C15.6516 0.874748 15.6529 0.876305 15.6543 0.877862C15.6556 0.879461 15.657 0.881059 15.6582 0.882812L15.6621 0.888672C15.7281 0.988831 15.785 1.09473 15.832 1.20508L15.837 1.2163C15.8399 1.22293 15.8429 1.22954 15.8457 1.23633C15.8909 1.34625 15.9262 1.45998 15.9512 1.57617C15.9525 1.58223 15.9541 1.58815 15.9557 1.59407C15.9576 1.60106 15.9595 1.60804 15.9609 1.61523C15.9864 1.74193 15.9994 1.87078 16 2V6H14V4C12.8962 4 12.0011 3.10576 12 2.00195L4 2C4 3.10457 3.10457 4 2 4V20C3.10457 20 4 20.8954 4 22H10C10 22.732 10.2107 23.41 10.5547 24H2C1.86484 24 1.73004 23.9862 1.59766 23.959C1.46911 23.9323 1.34351 23.8931 1.22266 23.8418C1.22239 23.8417 1.22203 23.8417 1.22168 23.8418C1.22132 23.8419 1.22097 23.8419 1.2207 23.8418C1.10461 23.7925 0.993436 23.7323 0.888672 23.6621L0.884698 23.6591L0.880859 23.6562C0.780224 23.5875 0.686082 23.5097 0.599609 23.4238C0.596696 23.421 0.593354 23.4186 0.590012 23.4162C0.586539 23.4137 0.583067 23.4112 0.580078 23.4082C0.494875 23.3216 0.417733 23.2275 0.349609 23.127C0.347846 23.1244 0.345914 23.1219 0.343981 23.1195L0.343969 23.1195L0.343939 23.1194C0.341853 23.1168 0.339767 23.1141 0.337891 23.1113C0.271876 23.0112 0.215006 22.9053 0.167969 22.7949L0.16302 22.7837C0.160063 22.7771 0.157118 22.7705 0.154297 22.7637C0.109113 22.6537 0.0738172 22.54 0.0488281 22.4238C0.0475134 22.4178 0.0458988 22.4119 0.0442847 22.4059C0.0423785 22.399 0.0404728 22.392 0.0390625 22.3848C0.0136426 22.2581 0.000560655 22.1292 0 22V2C4.19549e-05 1.86484 0.0137841 1.73004 0.0410156 1.59766C0.067676 1.46911 0.106928 1.34351 0.158203 1.22266C0.158316 1.22239 0.158259 1.22204 0.158203 1.22168C0.158147 1.22132 0.15809 1.22097 0.158203 1.2207C0.207495 1.10461 0.267659 0.993436 0.337891 0.888672L0.340865 0.8847L0.34375 0.880859C0.412493 0.780224 0.490291 0.686082 0.576172 0.599609C0.579037 0.596696 0.581428 0.593353 0.583818 0.59001L0.583819 0.59001C0.586301 0.586538 0.588784 0.583067 0.591797 0.580078C0.678354 0.494875 0.772493 0.417733 0.873047 0.349609L0.882812 0.341797L0.888672 0.337891C0.988831 0.271876 1.09473 0.215006 1.20508 0.167969L1.21629 0.163016C1.22292 0.160061 1.22954 0.157117 1.23633 0.154297C1.34625 0.109113 1.45998 0.0738172 1.57617 0.0488281C1.58222 0.0475134 1.58814 0.0458987 1.59406 0.0442844L1.59406 0.0442841C1.60105 0.0423781 1.60804 0.0404727 1.61523 0.0390625ZM7 5C7 4.44772 7.44772 4 8 4C8.55229 4 9 4.44772 9 5C9 5.55228 8.55229 6 8 6C7.44772 6 7 5.55228 7 5ZM8.5 8C6.015 8 4 9.791 4 12C4 14.209 6.015 16 8.5 16C9.032 16 9.529 15.8932 10 15.7402V10C10 9.42 10.1296 8.87105 10.3516 8.37305C9.78656 8.14005 9.165 8 8.5 8ZM12 10C12 8.895 12.895 8 14 8H20V24H14C13.7442 23.9993 13.4909 23.9496 13.2539 23.8535L13.2353 23.8461C13.2206 23.8403 13.2059 23.8345 13.1914 23.8281C13.0916 23.784 12.9956 23.7317 12.9043 23.6719C12.8976 23.6675 12.8911 23.663 12.8846 23.6584L12.873 23.6504H12.8711C12.7742 23.5837 12.6833 23.5085 12.5996 23.4258C12.5934 23.4196 12.5863 23.4144 12.5801 23.4082C12.4989 23.3256 12.4251 23.236 12.3594 23.1406C12.3508 23.1282 12.3423 23.1161 12.334 23.1035C12.2751 23.014 12.2235 22.92 12.1797 22.8223L12.1788 22.8202C12.1676 22.7956 12.1566 22.7713 12.1465 22.7461C12.105 22.6422 12.0724 22.5351 12.0488 22.4258C12.0475 22.4197 12.046 22.4137 12.0445 22.4077L12.0444 22.4077L12.041 22.3939L12.0391 22.3848C12.0136 22.2581 12.0006 22.1292 12 22V10ZM22 24C23.105 24 24 23.105 24 22V10C24 8.895 23.105 8 22 8V24ZM7 19C7 18.4477 7.44772 18 8 18C8.55229 18 9 18.4477 9 19C9 19.5523 8.55229 20 8 20C7.44772 20 7 19.5523 7 19Z" fill="#12C29E"/>
</svg>
