<svg width="30" height="31" viewBox="0 0 30 31" fill="none" xmlns="http://www.w3.org/2000/svg">
<path d="M23.75 24.875H6.25C5.5625 24.875 5 24.3125 5 23.625V11.125H25V23.625C25 24.3125 24.4375 24.875 23.75 24.875Z" fill="#139BE6"/>
<path d="M26.25 11.125H3.75V7.375C3.75 6.6875 4.3125 6.125 5 6.125H25C25.6875 6.125 26.25 6.6875 26.25 7.375V11.125Z" fill="#139BE6" fill-opacity="0.6"/>
<path d="M13.75 11.125H16.25V24.875H13.75V11.125ZM20 2.375H17.5L13.75 6.125H16.25L20 2.375Z" fill="#0D6CA1"/>
<path d="M12.5 2.375H10L13.75 6.125V11.125H16.25V6.125L12.5 2.375Z" fill="#1084C3"/>
</svg>
