<?xml version="1.0" encoding="UTF-8"?>
<svg width="150px" height="150px" viewBox="0 0 150 150" version="1.1" xmlns="http://www.w3.org/2000/svg" xmlns:xlink="http://www.w3.org/1999/xlink">
    <!-- Generator: Sketch 53.2 (72643) - https://sketchapp.com -->
    <title>Bug (Jade)</title>
    <desc>Created with Sketch.</desc>
    <g id="Bug-(Blue-Gray)" stroke="none" stroke-width="1" fill="none" fill-rule="evenodd">
        <g id="icons8-bug" transform="translate(0.000000, 8.000000)" fill="#00B476" fill-rule="nonzero">
            <path d="M46.3360346,0.00363808676 C44.4057273,-0.0650292706 42.5692977,0.84194433 41.4436298,2.41989306 C40.3179618,3.99784178 40.0524102,6.03740175 40.7361777,7.85345463 C40.7361777,7.85345463 44.7104764,17.9554727 54.7414523,24.2213984 C52.3901315,24.9399815 48.5463009,26.915955 45.0177585,32.2071425 C42.8806761,31.5304561 40.9852122,30.823852 39.5193074,30.1229199 C36.9243454,28.8821244 35.3022289,27.7049079 34.3814104,26.9286225 C33.4605914,26.152337 33.4912922,26.1130571 33.4912922,26.1130571 C32.403664,24.6314145 30.6808267,23.7570025 28.8491572,23.7569793 L17.3114236,23.7569793 C15.2309631,23.7273998 13.295823,24.8262779 12.2470063,26.6328316 C11.1981897,28.4393853 11.1981897,30.6737253 12.2470063,32.480279 C13.295823,34.2868327 15.2309631,35.3857108 17.3114236,35.3561313 L26.5168222,35.3561313 C26.7542111,35.5778375 26.6983223,35.5822857 26.9675149,35.8092232 C28.6264616,37.2077787 31.0921284,38.9303502 34.5616875,40.5893427 C41.5008058,43.9073219 52.4060189,46.9552832 68.8594038,46.9552832 C69.2565868,46.9585675 69.6530454,46.920609 70.0424715,46.8420117 C71.7131238,46.8821274 73.253117,46.9552832 75.1014965,46.9552832 C76.8861185,46.9552832 78.3630119,46.8908325 79.9802445,46.8533383 C80.3626772,46.9265969 80.7515036,46.9607526 81.1407789,46.9552832 C97.5941639,46.9552832 108.499376,43.9073219 115.438498,40.5893427 C118.908056,38.9303502 121.373721,37.2077787 123.032668,35.8092232 C123.301855,35.5822852 123.245972,35.5778369 123.483361,35.3561313 L132.688759,35.3561313 C134.76922,35.3857108 136.70436,34.2868327 137.753176,32.480279 C138.801993,30.6737253 138.801993,28.4393853 137.753176,26.6328316 C136.70436,24.8262779 134.76922,23.7273998 132.688759,23.7569793 L121.151026,23.7569793 C119.319355,23.7570016 117.596517,24.6314136 116.508888,26.1130571 C116.508888,26.1130571 116.539463,26.1523202 115.618775,26.9286225 C114.697954,27.7049079 113.075835,28.8821244 110.480878,30.1229199 C108.987047,30.8372032 107.060626,31.5541549 104.869749,32.2411245 C101.297026,26.8837569 97.5402019,24.9043547 95.2925302,24.1987441 C105.298728,17.9312618 109.264004,7.85345463 109.264004,7.85345463 C109.922347,6.10484807 109.70187,4.14442356 108.671803,2.58772834 C107.641735,1.03103312 105.928403,0.0689789619 104.069769,0.00363808676 C101.541955,-0.0818224659 99.2534946,1.49786151 98.4248461,3.90022819 C98.4248461,3.90022819 95.5186756,12.67236 85.861783,16.0770718 C82.8865938,13.6505693 79.128754,12.1578274 75.0000914,12.1578274 C70.8745902,12.1578274 67.1129429,13.6521438 64.1383998,16.0770718 C54.4815072,12.67236 51.5753367,3.90022819 51.5753367,3.90022819 C50.7957149,1.63914721 48.714827,0.0915427263 46.3360346,0.00363808676 Z M22.8662112,46.9552832 C22.3179387,46.975934 21.7753992,47.0751022 21.2549852,47.2497915 L3.94838487,53.0493674 C0.924118893,54.062822 -0.710316102,57.349092 0.297772132,60.3894569 C1.30586037,63.4298219 4.57472932,65.0729574 7.5989953,64.0595028 L22.9112805,58.9282352 C23.4681809,59.2021666 25.0964874,59.9226073 26.4942879,60.5480394 C24.7463611,64.9777033 23.0802904,71.0633086 23.0802904,78.4225123 C23.0802904,87.2563104 24.8607167,95.0314191 27.6660889,101.7794 L24.0042102,112.823515 L8.34263857,123.32392 C6.59173213,124.457922 5.58471983,126.452621 5.70789547,128.542843 C5.8310711,130.633064 7.06531024,132.494278 8.93715403,133.412514 C10.8089978,134.330751 13.0278212,134.163444 14.7424751,132.974774 L32.0490755,121.375622 C33.1174271,120.661014 33.918315,119.608737 34.325074,118.385215 L35.4067365,115.111627 C45.0020326,127.582838 57.6254415,133.948923 63.4623578,133.948923 C67.742857,133.948923 69.2312246,130.585169 69.2312246,128.149347 L69.2312246,75.953163 C69.2312246,72.7459975 71.8156769,70.1535871 75.0000914,70.1535871 C78.1845059,70.1535871 80.7689582,72.7459975 80.7689582,75.953163 L80.7689582,128.149347 C80.7689582,130.585169 82.2573258,133.948923 86.5378249,133.948923 C92.3747413,133.948923 104.998152,127.582838 114.593445,115.111627 L115.675108,118.385215 C116.081866,119.608737 116.882753,120.661013 117.951104,121.375622 L135.257705,132.974774 C136.972359,134.163401 139.191155,134.33068 141.062972,133.412444 C142.934789,132.494207 144.169013,130.633019 144.2922,128.542822 C144.415388,126.452626 143.408413,124.457941 141.657547,123.32392 L125.995974,112.823515 L122.334093,101.7794 C125.139464,95.0314191 126.919892,87.2563104 126.919892,78.4225123 C126.919892,71.0633086 125.253821,64.9777033 123.505894,60.5480394 C124.903697,59.9226073 126.532005,59.2021666 127.088903,58.9282352 L142.401189,64.0595028 C144.357694,64.7156404 146.513777,64.2724243 148.057045,62.8968541 C149.600312,61.521284 150.296233,59.4224078 149.882589,57.3910621 C149.468945,55.3597163 148.0086,53.7046086 146.051797,53.0493674 L128.745196,47.2497915 C128.195977,47.0663927 127.622435,46.967112 127.043831,46.9552832 C126.106396,46.935237 125.178226,47.1451873 124.339674,47.5669587 C124.339674,47.5669587 107.655287,55.7045641 89.5011303,57.9540862 C85.0384849,58.3001179 80.2814601,58.5544351 75.0000914,58.5544351 C69.7187227,58.5544351 64.9616979,58.3001179 60.4990525,57.9540862 C42.3448978,55.7045641 25.6605061,47.5669587 25.6605061,47.5669587 C24.7948953,47.1305478 23.833944,46.9201941 22.8662112,46.9552832 Z" id="Shape"></path>
        </g>
    </g>
</svg>