<svg width="20" height="18" viewBox="0 0 20 18" fill="none" xmlns="http://www.w3.org/2000/svg">
  <path fill-rule="evenodd" clip-rule="evenodd" d="M11.8255 0.679687C12.0982 0.228354 12.7971 0 13.7057 0C17.3397 0.0626667 17.7111 2.58256 16.9818 5.47656C17.1231 5.5579 17.3555 5.81607 17.2969 6.27474C17.1875 7.13007 16.8167 7.34658 16.5807 7.36458C16.5786 7.38419 16.5739 7.4042 16.5691 7.42412L16.5691 7.42416L16.5691 7.42423C16.5663 7.43611 16.5634 7.44794 16.5612 7.45964C16.1645 7.37697 15.754 7.33333 15.3333 7.33333C13.8447 7.33333 12.4849 7.87871 11.4362 8.77604C11.1222 8.37537 10.8059 7.83455 10.7526 7.36589C10.6993 7.17722 10.6576 6.50226 10.6576 6.35026L10.6576 6.2943C10.6578 5.44241 10.6584 3.76705 10.1484 2.44922C10.3304 1.54389 10.8062 0.780354 11.8255 0.679687ZM1.54789 6.86144C1.63721 4.18308 1.75448 0.666667 5.2513 0.666667C6.00064 0.666667 6.57943 1.33333 6.57943 1.33333C9.36188 1.33333 9.34087 4.39849 9.32412 6.84243C9.31501 8.17066 9.30717 9.31541 9.7513 9.6849C9.7513 9.6849 9.08067 10.6784 6.66667 10.6784V11.5286C6.93443 12.2528 7.63071 12.5807 8.36906 12.9283C8.69511 13.0818 9.02936 13.2391 9.33854 13.4362C9.35387 14.3569 9.57884 15.2247 9.96484 16H0C0 14.0028 1.19661 13.4416 2.29932 12.9244C3.03706 12.5784 3.73277 12.252 4 11.5286V10.6706C1.574 10.6706 1.01172 9.70964 1.01172 9.70964C1.46532 9.33731 1.50309 8.20478 1.54789 6.86144ZM15.3333 8.66667C12.756 8.66667 10.6667 10.756 10.6667 13.3333C10.6667 15.9107 12.756 18 15.3333 18C17.9107 18 20 15.9107 20 13.3333C20 10.756 17.9107 8.66667 15.3333 8.66667ZM16 11.3333C16 10.9647 15.7013 10.6667 15.3333 10.6667C14.9653 10.6667 14.6667 10.9647 14.6667 11.3333V12.6667H13.3333C12.9653 12.6667 12.6667 12.9647 12.6667 13.3333C12.6667 13.702 12.9653 14 13.3333 14H14.6667V15.3333C14.6667 15.702 14.9653 16 15.3333 16C15.7013 16 16 15.702 16 15.3333V14H17.3333C17.7013 14 18 13.702 18 13.3333C18 12.9647 17.7013 12.6667 17.3333 12.6667H16V11.3333Z" fill="#1F195E"/>
</svg>
