<svg width="13" height="7" viewBox="0 0 13 7" fill="none" xmlns="http://www.w3.org/2000/svg">
<path opacity="0.5" fill-rule="evenodd" clip-rule="evenodd" d="M0.59855 0.0391204C0.385723 0.036178 0.187761 0.145491 0.0804691 0.325201C-0.026823 0.504911 -0.026823 0.727176 0.0804691 0.906886C0.187761 1.0866 0.385723 1.19591 0.59855 1.19297H12.4015C12.6143 1.19591 12.8122 1.0866 12.9195 0.906886C13.0268 0.727176 13.0268 0.504911 12.9195 0.325201C12.8122 0.145491 12.6143 0.036178 12.4015 0.0391204H0.59855ZM0.59855 2.92374C0.385723 2.92079 0.187761 3.03011 0.0804691 3.20982C-0.026823 3.38953 -0.026823 3.61179 0.0804691 3.7915C0.187761 3.97121 0.385723 4.08052 0.59855 4.07758H12.4015C12.6143 4.08052 12.8122 3.97121 12.9195 3.7915C13.0268 3.61179 13.0268 3.38953 12.9195 3.20982C12.8122 3.03011 12.6143 2.92079 12.4015 2.92374H0.59855ZM0.0804691 6.09443C0.187761 5.91472 0.385723 5.80541 0.59855 5.80835H12.4015C12.6143 5.80541 12.8122 5.91472 12.9195 6.09443C13.0268 6.27414 13.0268 6.49641 12.9195 6.67612C12.8122 6.85583 12.6143 6.96514 12.4015 6.9622H0.59855C0.385723 6.96514 0.187761 6.85583 0.0804691 6.67612C-0.026823 6.49641 -0.026823 6.27414 0.0804691 6.09443Z" fill="#7F879D"/>
</svg>
