<?xml version="1.0" encoding="UTF-8"?>
<svg width="150px" height="150px" viewBox="0 0 150 150" version="1.1" xmlns="http://www.w3.org/2000/svg" xmlns:xlink="http://www.w3.org/1999/xlink">
    <!-- Generator: Sketch 53.2 (72643) - https://sketchapp.com -->
    <title>Calendar (Blue)</title>
    <desc>Created with Sketch.</desc>
    <g id="Calendar-(Blue)" stroke="none" stroke-width="1" fill="none" fill-rule="evenodd">
        <g id="icons8-calendar" fill="#139BE6" fill-rule="nonzero">
            <path d="M136.363636,0 L13.6363636,0 C6.10227273,0 0,6.10227273 0,13.6363636 L0,136.363636 C0,143.897727 6.10227273,150 13.6363636,150 L136.363636,150 C143.897727,150 150,143.897727 150,136.363636 L150,13.6363636 C150,6.10227273 143.897727,0 136.363636,0 Z M20.4545455,129.545455 C16.6909091,129.545455 13.6363636,126.490909 13.6363636,122.727273 C13.6363636,118.963636 16.6909091,115.909091 20.4545455,115.909091 C24.2181818,115.909091 27.2727273,118.963636 27.2727273,122.727273 C27.2727273,126.490909 24.2181818,129.545455 20.4545455,129.545455 Z M20.4545455,102.272727 C16.6909091,102.272727 13.6363636,99.2181818 13.6363636,95.4545455 C13.6363636,91.6909091 16.6909091,88.6363636 20.4545455,88.6363636 C24.2181818,88.6363636 27.2727273,91.6909091 27.2727273,95.4545455 C27.2727273,99.2181818 24.2181818,102.272727 20.4545455,102.272727 Z M47.7272727,129.545455 C43.9636364,129.545455 40.9090909,126.490909 40.9090909,122.727273 C40.9090909,118.963636 43.9636364,115.909091 47.7272727,115.909091 C51.4909091,115.909091 54.5454545,118.963636 54.5454545,122.727273 C54.5454545,126.490909 51.4909091,129.545455 47.7272727,129.545455 Z M47.7272727,102.272727 C43.9636364,102.272727 40.9090909,99.2181818 40.9090909,95.4545455 C40.9090909,91.6909091 43.9636364,88.6363636 47.7272727,88.6363636 C51.4909091,88.6363636 54.5454545,91.6909091 54.5454545,95.4545455 C54.5454545,99.2181818 51.4909091,102.272727 47.7272727,102.272727 Z M47.7272727,75 C43.9636364,75 40.9090909,71.9454545 40.9090909,68.1818182 C40.9090909,64.4181818 43.9636364,61.3636364 47.7272727,61.3636364 C51.4909091,61.3636364 54.5454545,64.4181818 54.5454545,68.1818182 C54.5454545,71.9454545 51.4909091,75 47.7272727,75 Z M75,129.545455 C71.2363636,129.545455 68.1818182,126.490909 68.1818182,122.727273 C68.1818182,118.963636 71.2363636,115.909091 75,115.909091 C78.7636364,115.909091 81.8181818,118.963636 81.8181818,122.727273 C81.8181818,126.490909 78.7636364,129.545455 75,129.545455 Z M75,102.272727 C71.2363636,102.272727 68.1818182,99.2181818 68.1818182,95.4545455 C68.1818182,91.6909091 71.2363636,88.6363636 75,88.6363636 C78.7636364,88.6363636 81.8181818,91.6909091 81.8181818,95.4545455 C81.8181818,99.2181818 78.7636364,102.272727 75,102.272727 Z M75,75 C71.2363636,75 68.1818182,71.9454545 68.1818182,68.1818182 C68.1818182,64.4181818 71.2363636,61.3636364 75,61.3636364 C78.7636364,61.3636364 81.8181818,64.4181818 81.8181818,68.1818182 C81.8181818,71.9454545 78.7636364,75 75,75 Z M102.272727,129.545455 C98.5090909,129.545455 95.4545455,126.490909 95.4545455,122.727273 C95.4545455,118.963636 98.5090909,115.909091 102.272727,115.909091 C106.036364,115.909091 109.090909,118.963636 109.090909,122.727273 C109.090909,126.490909 106.036364,129.545455 102.272727,129.545455 Z M102.272727,102.272727 C98.5090909,102.272727 95.4545455,99.2181818 95.4545455,95.4545455 C95.4545455,91.6909091 98.5090909,88.6363636 102.272727,88.6363636 C106.036364,88.6363636 109.090909,91.6909091 109.090909,95.4545455 C109.090909,99.2181818 106.036364,102.272727 102.272727,102.272727 Z M95.4545455,68.1818182 C95.4545455,64.4181818 98.5090909,61.3636364 102.272727,61.3636364 C106.036364,61.3636364 109.090909,64.4181818 109.090909,68.1818182 C109.090909,71.9454545 106.036364,75 102.272727,75 C98.5090909,75 95.4545455,71.9454545 95.4545455,68.1818182 Z M129.545455,102.272727 C125.781818,102.272727 122.727273,99.2181818 122.727273,95.4545455 C122.727273,91.6909091 125.781818,88.6363636 129.545455,88.6363636 C133.309091,88.6363636 136.363636,91.6909091 136.363636,95.4545455 C136.363636,99.2181818 133.309091,102.272727 129.545455,102.272727 Z M129.545455,75 C125.781818,75 122.727273,71.9454545 122.727273,68.1818182 C122.727273,64.4181818 125.781818,61.3636364 129.545455,61.3636364 C133.309091,61.3636364 136.363636,64.4181818 136.363636,68.1818182 C136.363636,71.9454545 133.309091,75 129.545455,75 Z M136.363636,40.9090909 L13.6363636,40.9090909 L13.6363636,13.6363636 L136.363636,13.6363636 L136.363636,40.9090909 Z" id="Shape"></path>
        </g>
    </g>
</svg>