<svg width="17" height="17" viewBox="0 0 17 17" fill="none" xmlns="http://www.w3.org/2000/svg">
<path d="M12.7317 11.0049C12.4316 10.829 12.0628 10.8327 11.7642 11.0101L10.2519 11.9111C9.91338 12.1129 9.49059 12.0892 9.18015 11.8468C8.64354 11.4277 7.77948 10.7225 7.02777 9.97083C6.27606 9.21912 5.57092 8.35507 5.15183 7.81845C4.90939 7.50801 4.88574 7.08522 5.08752 6.74669L5.98854 5.23441C6.16667 4.9358 6.16815 4.56401 5.99223 4.26392L3.77333 0.473593C3.55824 0.106978 3.13101 -0.0733724 2.71783 0.0278901C2.31648 0.125457 1.79538 0.363461 1.24916 0.910426C-0.461219 2.6208 -1.36962 5.50567 5.06239 11.9377C11.4944 18.3697 14.3785 17.462 16.0897 15.7509C16.6374 15.2032 16.8746 14.6814 16.9729 14.2793C17.0727 13.8669 16.8953 13.4426 16.5294 13.2282C15.6159 12.6938 13.6453 11.54 12.7317 11.0049Z" fill="#7083A0"/>
</svg>
