<svg width="52" height="52" viewBox="0 0 52 52" fill="none" xmlns="http://www.w3.org/2000/svg">
<g filter="url(#filter0_d_1017_3264)">
<rect x="6" y="4" width="40" height="40" rx="20" fill="white"/>
<rect x="6" y="4" width="40" height="40" rx="20" stroke="#D4D9E2"/>
</g>
<path d="M27.9795 24C27.9795 24 32.3739 28.3944 32.5895 28.61C33.1368 29.1573 33.1368 30.0435 32.5895 30.5895C32.0421 31.1368 31.1559 31.1368 30.61 30.5895C30.3944 30.3753 26 25.9795 26 25.9795C26 25.9795 21.6056 30.3739 21.39 30.5895C20.8427 31.1368 19.9565 31.1368 19.4105 30.5895C18.8632 30.0421 18.8632 29.1559 19.4105 28.61C19.6247 28.3944 24.0205 24 24.0205 24C24.0205 24 19.6261 19.6056 19.4105 19.39C18.8632 18.8427 18.8632 17.9565 19.4105 17.4105C19.9579 16.8632 20.8441 16.8632 21.39 17.4105C21.6056 17.6247 26 22.0205 26 22.0205C26 22.0205 30.3944 17.6261 30.61 17.4105C31.1573 16.8632 32.0435 16.8632 32.5895 17.4105C33.1368 17.9579 33.1368 18.8441 32.5895 19.39C32.3753 19.6056 27.9795 24 27.9795 24Z" fill="#7083A0"/>
<defs>
<filter id="filter0_d_1017_3264" x="0.5" y="0.5" width="51" height="51" filterUnits="userSpaceOnUse" color-interpolation-filters="sRGB">
<feFlood flood-opacity="0" result="BackgroundImageFix"/>
<feColorMatrix in="SourceAlpha" type="matrix" values="0 0 0 0 0 0 0 0 0 0 0 0 0 0 0 0 0 0 127 0" result="hardAlpha"/>
<feOffset dy="2"/>
<feGaussianBlur stdDeviation="2.5"/>
<feColorMatrix type="matrix" values="0 0 0 0 0.439216 0 0 0 0 0.513726 0 0 0 0 0.627451 0 0 0 0.2 0"/>
<feBlend mode="normal" in2="BackgroundImageFix" result="effect1_dropShadow_1017_3264"/>
<feBlend mode="normal" in="SourceGraphic" in2="effect1_dropShadow_1017_3264" result="shape"/>
</filter>
</defs>
</svg>
