<svg width="28" height="28" viewBox="0 0 28 28" fill="none" xmlns="http://www.w3.org/2000/svg">
<path d="M13.9998 0.666992C6.6365 0.666992 0.666504 6.63699 0.666504 14.0003C0.666504 21.3637 6.6365 27.3337 13.9998 27.3337C21.3632 27.3337 27.3332 21.3637 27.3332 14.0003C27.3332 6.63699 21.3632 0.666992 13.9998 0.666992Z" fill="#E2E6EC"/>
<path d="M9.33511 8.66728C9.20273 8.66732 9.07336 8.70684 8.96355 8.7808C8.85375 8.85476 8.76849 8.9598 8.71867 9.08249C8.66886 9.20517 8.65675 9.33993 8.68391 9.46953C8.71106 9.59914 8.77624 9.71769 8.8711 9.81005L13.0588 13.9989L8.8711 18.1877C8.80724 18.2491 8.75625 18.3225 8.72112 18.4038C8.686 18.4851 8.66744 18.5726 8.66654 18.6612C8.66564 18.7497 8.68241 18.8376 8.71588 18.9196C8.74934 19.0016 8.79883 19.0761 8.86143 19.1387C8.92404 19.2013 8.99851 19.2508 9.08048 19.2843C9.16245 19.3177 9.25027 19.3345 9.3388 19.3336C9.42734 19.3327 9.5148 19.3142 9.59607 19.279C9.67734 19.2439 9.75079 19.1929 9.81211 19.129L13.9998 14.9402L18.1876 19.129C18.2489 19.1929 18.3223 19.2439 18.4036 19.279C18.4849 19.3142 18.5723 19.3327 18.6609 19.3336C18.7494 19.3345 18.8372 19.3177 18.9192 19.2843C19.0012 19.2508 19.0756 19.2013 19.1382 19.1387C19.2008 19.0761 19.2503 19.0016 19.2838 18.9196C19.3173 18.8376 19.334 18.7497 19.3331 18.6612C19.3322 18.5726 19.3137 18.4851 19.2786 18.4038C19.2434 18.3225 19.1924 18.2491 19.1286 18.1877L14.9408 13.9989L19.1286 9.81005C19.2247 9.71655 19.2904 9.59618 19.317 9.4647C19.3436 9.33322 19.3299 9.19678 19.2776 9.07324C19.2253 8.94971 19.137 8.84485 19.0241 8.77241C18.9112 8.69997 18.7791 8.66333 18.6451 8.66728C18.4722 8.67243 18.3081 8.74471 18.1876 8.86879L13.9998 13.0576L9.81211 8.86879C9.75009 8.80503 9.67593 8.75434 9.594 8.71973C9.51208 8.68512 9.42404 8.66729 9.33511 8.66728Z" fill="#7083A0"/>
</svg>
