<svg width="34" height="34" viewBox="0 0 34 34" fill="none" xmlns="http://www.w3.org/2000/svg">
<rect y="0.207031" width="33.2073" height="33.2073" rx="4" fill="#F0F2F5"/>
<path d="M7 7H27V26H7V7Z" fill="#A5D6A7"/>
<path d="M7 18H27V7H7V18ZM26 8V17H8V8H26Z" fill="#388E3C"/>
<path d="M11 11.5C10.7348 11.5 10.4804 11.6054 10.2929 11.7929C10.1054 11.9804 10 12.2348 10 12.5C10 12.7652 10.1054 13.0196 10.2929 13.2071C10.4804 13.3946 10.7348 13.5 11 13.5C11.2652 13.5 11.5196 13.3946 11.7071 13.2071C11.8946 13.0196 12 12.7652 12 12.5C12 12.2348 11.8946 11.9804 11.7071 11.7929C11.5196 11.6054 11.2652 11.5 11 11.5ZM23 11.5C22.7348 11.5 22.4804 11.6054 22.2929 11.7929C22.1054 11.9804 22 12.2348 22 12.5C22 12.7652 22.1054 13.0196 22.2929 13.2071C22.4804 13.3946 22.7348 13.5 23 13.5C23.2652 13.5 23.5196 13.3946 23.7071 13.2071C23.8946 13.0196 24 12.7652 24 12.5C24 12.2348 23.8946 11.9804 23.7071 11.7929C23.5196 11.6054 23.2652 11.5 23 11.5ZM17 9C16.0717 9 15.1815 9.36875 14.5251 10.0251C13.8687 10.6815 13.5 11.5717 13.5 12.5C13.5 13.4283 13.8687 14.3185 14.5251 14.9749C15.1815 15.6313 16.0717 16 17 16C17.9283 16 18.8185 15.6313 19.4749 14.9749C20.1313 14.3185 20.5 13.4283 20.5 12.5C20.5 11.5717 20.1313 10.6815 19.4749 10.0251C18.8185 9.36875 17.9283 9 17 9ZM24.3895 7.5C24.15 7.766 24 8.114 24 8.5C24 9.3285 24.6715 10 25.5 10C25.886 10 26.234 9.85 26.5 9.6105V7.5H24.3895ZM9.6105 7.5H7.5V9.6105C7.766 9.85 8.114 10 8.5 10C9.3285 10 10 9.3285 10 8.5C10 8.114 9.85 7.766 9.6105 7.5ZM9.6105 17.5C9.85 17.234 10 16.886 10 16.5C10 15.6715 9.3285 15 8.5 15C8.114 15 7.766 15.15 7.5 15.3895V17.5H9.6105ZM26.5 17.5V15.3895C26.234 15.15 25.886 15 25.5 15C24.6715 15 24 15.6715 24 16.5C24 16.886 24.15 17.234 24.3895 17.5H26.5ZM7 19H27V20H7V19ZM7 21H27V22H7V21ZM7 23H27V24H7V23ZM7 25H27V26H7V25Z" fill="#388E3C"/>
</svg>
