<svg width="26" height="26" viewBox="0 0 26 26" fill="none" xmlns="http://www.w3.org/2000/svg">
<path d="M0.0292969 0.567383H25.8267V25.0749H0.0292969V0.567383Z" fill="#A5D6A7"/>
<path d="M0.0292969 14.7559H25.8267V0.567383H0.0292969V14.7559ZM24.5368 1.85725V13.4661H1.31917V1.85725H24.5368Z" fill="#388E3C"/>
<path d="M5.18877 6.37237C4.84668 6.37237 4.5186 6.50826 4.2767 6.75016C4.0348 6.99206 3.8989 7.32014 3.8989 7.66224C3.8989 8.00433 4.0348 8.33241 4.2767 8.57431C4.5186 8.81621 4.84668 8.95211 5.18877 8.95211C5.53087 8.95211 5.85895 8.81621 6.10085 8.57431C6.34275 8.33241 6.47864 8.00433 6.47864 7.66224C6.47864 7.32014 6.34275 6.99206 6.10085 6.75016C5.85895 6.50826 5.53087 6.37237 5.18877 6.37237ZM20.6672 6.37237C20.3251 6.37237 19.997 6.50826 19.7551 6.75016C19.5132 6.99206 19.3773 7.32014 19.3773 7.66224C19.3773 8.00433 19.5132 8.33241 19.7551 8.57431C19.997 8.81621 20.3251 8.95211 20.6672 8.95211C21.0093 8.95211 21.3374 8.81621 21.5793 8.57431C21.8212 8.33241 21.9571 8.00433 21.9571 7.66224C21.9571 7.32014 21.8212 6.99206 21.5793 6.75016C21.3374 6.50826 21.0093 6.37237 20.6672 6.37237ZM12.928 3.14769C11.7307 3.14769 10.5824 3.62333 9.73572 4.46997C8.88908 5.31661 8.41345 6.46491 8.41345 7.66224C8.41345 8.85957 8.88908 10.0079 9.73572 10.8545C10.5824 11.7011 11.7307 12.1768 12.928 12.1768C14.1253 12.1768 15.2736 11.7011 16.1203 10.8545C16.9669 10.0079 17.4425 8.85957 17.4425 7.66224C17.4425 6.46491 16.9669 5.31661 16.1203 4.46997C15.2736 3.62333 14.1253 3.14769 12.928 3.14769ZM22.4595 1.21289C22.1506 1.556 21.9571 2.00487 21.9571 2.50276C21.9571 3.57142 22.8232 4.43756 23.8919 4.43756C24.3898 4.43756 24.8386 4.24408 25.1817 3.93516V1.21289H22.4595ZM3.3965 1.21289H0.674231V3.93516C1.01734 4.24408 1.46621 4.43756 1.9641 4.43756C3.03276 4.43756 3.8989 3.57142 3.8989 2.50276C3.8989 2.00487 3.70542 1.556 3.3965 1.21289ZM3.3965 14.1116C3.70542 13.7685 3.8989 13.3196 3.8989 12.8217C3.8989 11.7531 3.03276 10.8869 1.9641 10.8869C1.46621 10.8869 1.01734 11.0804 0.674231 11.3893V14.1116H3.3965ZM25.1817 14.1116V11.3893C24.8386 11.0804 24.3898 10.8869 23.8919 10.8869C22.8232 10.8869 21.9571 11.7531 21.9571 12.8217C21.9571 13.3196 22.1506 13.7685 22.4595 14.1116H25.1817ZM0.0292969 16.0464H25.8267V17.3363H0.0292969V16.0464ZM0.0292969 18.6261H25.8267V19.916H0.0292969V18.6261ZM0.0292969 21.2059H25.8267V22.4957H0.0292969V21.2059ZM0.0292969 23.7856H25.8267V25.0755H0.0292969V23.7856Z" fill="#388E3C"/>
</svg>
