<svg width="28" height="28" viewBox="0 0 28 28" fill="none" xmlns="http://www.w3.org/2000/svg">
<path d="M18.163 9.74857C19.0446 10.6303 19.0446 12.0642 18.163 12.9459L13.6415 17.4673C12.7876 18.3212 11.2981 18.3212 10.4442 17.4673L9.07422 18.838C9.86741 19.6305 10.9216 20.0672 12.0429 20.0672C13.1642 20.0672 14.2183 19.6305 15.0115 18.8373L19.533 14.3159C20.3262 13.5233 20.7628 12.4685 20.7628 11.3472C20.7628 10.2259 20.3262 9.17112 19.533 8.37793L18.163 9.74857Z" fill="#C5CAE9"/>
<path d="M19.4706 13.2851C18.9719 13.2851 18.4913 13.2095 18.0392 13.0693L13.7651 17.3434C13.9047 17.7962 13.9802 18.2767 13.9802 18.7754C13.9802 19.068 13.9499 19.3528 13.9001 19.6312C14.3058 19.4304 14.6817 19.1668 15.0111 18.8374L19.5326 14.316C19.862 13.9865 20.1262 13.6106 20.3264 13.205C20.048 13.2547 19.7632 13.2851 19.4706 13.2851Z" fill="#7986CB"/>
<path d="M6.55254 27.1722C4.99975 27.1722 3.53997 26.5676 2.4419 25.4695C1.34384 24.3715 0.739258 22.9117 0.739258 21.3589C0.739258 19.8061 1.34384 18.3463 2.4419 17.2482L5.02559 14.6646C6.12365 13.5665 7.58343 12.9619 9.13623 12.9619C10.689 12.9619 12.1488 13.5665 13.2469 14.6646C14.3449 15.7626 14.9495 17.2224 14.9495 18.7752C14.9495 20.328 14.3449 21.7878 13.2469 22.8858L10.6632 25.4695C9.56512 26.5676 8.10534 27.1722 6.55254 27.1722ZM9.13623 14.8997C8.10081 14.8997 7.12806 15.3027 6.39558 16.0346L3.8119 18.6182C3.08007 19.3507 2.67702 20.3235 2.67702 21.3589C2.67702 22.3943 3.08007 23.367 3.8119 24.0995C4.54373 24.832 5.51713 25.2344 6.55254 25.2344C7.58795 25.2344 8.56071 24.8314 9.29318 24.0995L11.8769 21.5158C12.6087 20.7834 13.0117 19.8106 13.0117 18.7752C13.0117 17.7398 12.6087 16.767 11.8769 16.0346C11.1444 15.3027 10.1716 14.8997 9.13623 14.8997Z" fill="#9FA8DA"/>
<path d="M19.4705 14.2532C17.9177 14.2532 16.4579 13.6486 15.3599 12.5506C14.2618 11.4525 13.6572 9.99273 13.6572 8.43994C13.6572 6.88714 14.2618 5.42736 15.3599 4.3293L17.9436 1.74562C19.0416 0.64755 20.5014 0.0429688 22.0542 0.0429688C23.607 0.0429688 25.0668 0.64755 26.1648 1.74562C27.2629 2.84368 27.8675 4.30346 27.8675 5.85625C27.8675 7.40905 27.2629 8.86883 26.1648 9.96689L23.5811 12.5506C22.4831 13.6486 21.0233 14.2532 19.4705 14.2532ZM22.0542 1.98073C21.0188 1.98073 20.046 2.38378 19.3136 3.11561L16.7299 5.6993C15.998 6.43177 15.595 7.40453 15.595 8.43994C15.595 9.47535 15.998 10.4481 16.7299 11.1806C17.4617 11.9131 18.4351 12.3155 19.4705 12.3155C20.5059 12.3155 21.4787 11.9124 22.2112 11.1806L24.7948 8.5969C25.5267 7.86442 25.9297 6.89166 25.9297 5.85625C25.9297 4.82084 25.5267 3.84809 24.7948 3.11561C24.0624 2.38378 23.0896 1.98073 22.0542 1.98073Z" fill="#9FA8DA"/>
<path d="M6.5542 15.8686C6.5542 15.8757 6.55549 15.8828 6.55549 15.8899C7.26665 15.2523 8.17352 14.8997 9.13594 14.8997C9.86196 14.8997 10.5557 15.1018 11.159 15.4733C11.2061 15.368 11.2714 15.2698 11.3573 15.1832L12.5005 14.04C11.5233 13.343 10.36 12.9619 9.13594 12.9619C8.46096 12.9619 7.80535 13.0827 7.18785 13.3023" fill="#7986CB"/>
<path d="M14.7353 11.8048L15.8785 10.6622C15.9632 10.5775 16.0626 10.5123 16.1692 10.4652C15.7978 9.86057 15.595 9.16686 15.595 8.44019C15.595 7.47777 15.947 6.57155 16.5845 5.86039C15.6938 5.85716 14.8031 6.06838 13.997 6.49404C13.778 7.11154 13.6572 7.76585 13.6572 8.44019C13.6572 9.66486 14.0383 10.8282 14.7353 11.8048Z" fill="#7986CB"/>
<path d="M10.4442 17.4659C10.0173 17.0389 9.78218 16.4712 9.78218 15.8672C9.78218 15.2633 10.0173 14.6955 10.4442 14.2686L14.9657 9.74714C15.4062 9.30663 15.9856 9.08637 16.5643 9.08637C17.1431 9.08637 17.7225 9.30663 18.163 9.74714L19.471 9.731L19.533 8.3765C17.8962 6.74038 15.2325 6.74038 13.5957 8.3765L9.07425 12.8979C7.43684 14.5347 7.43684 17.1985 9.07425 18.8359L10.4281 18.7739L10.4442 17.4659Z" fill="#C5CAE9"/>
</svg>
