<?xml version="1.0" encoding="UTF-8"?>
<svg width="20px" height="20px" viewBox="0 0 20 20" version="1.1" xmlns="http://www.w3.org/2000/svg" xmlns:xlink="http://www.w3.org/1999/xlink">
    <!-- Generator: Sketch 53.2 (72643) - https://sketchapp.com -->
    <title>Path</title>
    <desc>Created with Sketch.</desc>
    <g id="Web---1.5" stroke="none" stroke-width="1" fill="none" fill-rule="evenodd">
        <g id="Artboard" transform="translate(-157.000000, -52.000000)" fill="#FFFFFF" fill-rule="nonzero">
            <g id="Dropdown" transform="translate(50.000000, 27.000000)">
                <g id="Banner">
                    <g id="Group-8" transform="translate(107.000000, 25.000000)">
                        <g id="icons8-link">
                            <path d="M15.3846154,0 C14.1515385,0 12.9937023,0.480625 12.1213938,1.35216346 L10.5829323,2.890625 C9.71139462,3.76293269 9.23076923,4.92076923 9.23076923,6.15384615 C9.23076923,7.12636077 9.53338769,8.04921 10.0871392,8.82512 L8.82512,10.0871392 C8.04912077,9.53365385 7.12577308,9.23076923 6.15384615,9.23076923 C4.92076923,9.23076923 3.76293269,9.71139462 2.890625,10.5829323 L1.35216346,12.1213938 C0.480625,12.9937023 0,14.1515385 0,15.3846154 C0,16.6176923 0.480625,17.7755285 1.35216346,18.6478369 C2.22370192,19.5201446 3.38230769,20 4.61538462,20 C5.84846154,20 7.00629846,19.5193746 7.87860615,18.6478369 L9.41706769,17.1093754 C10.2886054,16.2370677 10.7692308,15.0792308 10.7692308,13.8461538 C10.7692308,13.4223077 10.70869,13.00887 10.5994592,12.6111777 L9.21574538,13.9948915 C9.18036077,14.7325838 8.89086538,15.4593269 8.32932692,16.0216346 L6.79086538,17.5600962 C5.59086538,18.7600962 3.63913462,18.7600962 2.43990385,17.5600962 C1.24067308,16.3600962 1.23990385,14.4083654 2.43990385,13.2091346 L3.97836538,11.6706731 C4.57836538,11.0706731 5.366887,10.7722354 6.15534846,10.7722354 C6.69516692,10.7722354 7.22972462,10.9224269 7.70883385,11.2034254 L5.609976,13.3022838 C5.40902269,13.4952199 5.3280737,13.7817197 5.39834835,14.0512898 C5.468623,14.3208599 5.67914007,14.531377 5.9487102,14.6016516 C6.21828032,14.6719262 6.50478009,14.5909772 6.69771615,14.3900238 L14.3900238,6.69771615 C14.6175317,6.47656894 14.6859381,6.13843475 14.562281,5.84624499 C14.438624,5.55405522 14.1482711,5.36775083 13.83113,5.37710338 C13.6312849,5.3830581 13.4416082,5.46658054 13.3022838,5.609976 L11.2034254,7.70883385 C10.5101969,6.52951308 10.6593808,4.98900962 11.6706731,3.97836538 L13.2091346,2.43990385 C13.8091346,1.83990385 14.5961538,1.54146638 15.3846154,1.54146631 C16.1730769,1.54146631 16.9600962,1.84067308 17.5600962,2.43990385 C18.7600962,3.63990385 18.7600962,5.59163462 17.5600962,6.79086538 L16.0216346,8.32932692 C15.4600962,8.89086538 14.7325838,9.18036077 13.9948915,9.21574538 L12.6111777,10.5994592 C13.00887,10.70869 13.4223077,10.7692308 13.8461538,10.7692308 C15.0792308,10.7692308 16.2370669,10.2886054 17.1093754,9.41706769 L18.6478369,7.87860615 C19.5193746,7.00629769 20,5.84846154 20,4.61538462 C20,3.38230769 19.5193746,2.22447115 18.6478369,1.35216346 C17.7755292,0.480625 16.6176923,0 15.3846154,0 Z" id="Path"></path>
                        </g>
                    </g>
                </g>
            </g>
        </g>
    </g>
</svg>