<svg xmlns="http://www.w3.org/2000/svg" width="20" height="10" viewBox="0 0 20 10">
  <path fill="rgb(127,135,157)" fill-rule="evenodd" d="M4.62890625 0c-.39868164 0-.77532959.16723633-1.02862549.45532227L.31378174 4.19433594C.1105957 4.42089844-.00006104 4.70581054 0 5c.00079346.3046875.1203003.59863281.3359375.82641602l3.26434326 3.71826171C3.85357666 9.8334961 4.23022461 10 4.62890625 10h14.03778076C19.40332031 10 20 9.44067383 20 8.75v-7.5C20 .55932617 19.40332031 0 18.66668701 0H4.62890625zm.03771973 3.75C5.4033203 3.75 6 4.30932617 6 5s-.59667969 1.25-1.33337402 1.25c-.7366333 0-1.333313-.55932617-1.333313-1.25s.5966797-1.25 1.333313-1.25zM10 5c0-.69067383-.59667969-1.25-1.33337402-1.25-.7366333 0-1.333313.55932617-1.333313 1.25s.5966797 1.25 1.333313 1.25C9.4033203 6.25 10 5.69067383 10 5zm2.66662598-1.25C13.4033203 3.75 14 4.30932617 14 5s-.59667969 1.25-1.33337402 1.25c-.7366333 0-1.333313-.55932617-1.333313-1.25s.5966797-1.25 1.333313-1.25zM18 5c0-.69067383-.59667969-1.25-1.33337402-1.25-.7366333 0-1.333313.55932617-1.333313 1.25s.5966797 1.25 1.333313 1.25C17.4033203 6.25 18 5.69067383 18 5z"/>
</svg>
