<svg width="40" height="40" viewBox="0 0 40 40" fill="none" xmlns="http://www.w3.org/2000/svg">
<rect width="40" height="40" rx="8" fill="url(#paint0_radial_814_1144)"/>
<path d="M28.4001 9.73242C27.905 9.73242 27.4302 9.92909 27.0801 10.2792C26.7301 10.6292 26.5334 11.104 26.5334 11.5991C26.5335 11.7054 26.5426 11.8115 26.5607 11.9163L23.4417 14.5158C23.2363 14.4395 23.0191 14.4 22.8001 14.3991C22.4344 14.3995 22.0769 14.5072 21.7719 14.709L19.0613 13.3527C19.0325 12.8785 18.8239 12.433 18.4781 12.1072C18.1323 11.7813 17.6752 11.5996 17.2001 11.5991C16.705 11.5991 16.2302 11.7958 15.8801 12.1458C15.5301 12.4959 15.3334 12.9707 15.3334 13.4658C15.3339 13.5059 15.3358 13.546 15.3389 13.5861L12.4258 15.5275C12.1692 15.3999 11.8866 15.3332 11.6001 15.3324C11.105 15.3324 10.6302 15.5291 10.2801 15.8792C9.93006 16.2292 9.7334 16.704 9.7334 17.1991C9.7334 17.6942 9.93006 18.169 10.2801 18.519C10.6302 18.8691 11.105 19.0658 11.6001 19.0658C12.0951 19.0658 12.5699 18.8691 12.92 18.519C13.2701 18.169 13.4667 17.6942 13.4667 17.1991C13.4662 17.1595 13.4643 17.12 13.4613 17.0806L16.3743 15.1374C16.6309 15.2649 16.9135 15.3317 17.2001 15.3324C17.5657 15.3321 17.9232 15.2243 18.2282 15.0225L20.9389 16.3788C20.9676 16.8531 21.1762 17.2985 21.522 17.6244C21.8678 17.9502 22.3249 18.1319 22.8001 18.1324C23.2951 18.1324 23.7699 17.9358 24.12 17.5857C24.4701 17.2356 24.6667 16.7608 24.6667 16.2658C24.6667 16.1594 24.6575 16.0533 24.6394 15.9486L27.7584 13.3491C27.9638 13.4253 28.181 13.4648 28.4001 13.4658C28.8951 13.4658 29.3699 13.2691 29.72 12.919C30.0701 12.569 30.2667 12.0942 30.2667 11.5991C30.2667 11.104 30.0701 10.6292 29.72 10.2792C29.3699 9.92909 28.8951 9.73242 28.4001 9.73242ZM27.4667 17.1991C26.9515 17.1991 26.5334 17.6172 26.5334 18.1324V30.2658H30.2667V18.1324C30.2667 17.6172 29.8486 17.1991 29.3334 17.1991H27.4667ZM16.2667 19.0658C15.7515 19.0658 15.3334 19.4839 15.3334 19.9991V30.2658H19.0667V19.9991C19.0667 19.4839 18.6486 19.0658 18.1334 19.0658H16.2667ZM21.8667 20.9324C21.3515 20.9324 20.9334 21.3506 20.9334 21.8658V30.2658H24.6667V21.8658C24.6667 21.3506 24.2486 20.9324 23.7334 20.9324H21.8667ZM10.6667 22.7991C10.1515 22.7991 9.7334 23.2172 9.7334 23.7324V30.2658H13.4667V23.7324C13.4667 23.2172 13.0486 22.7991 12.5334 22.7991H10.6667Z" fill="white"/>
<defs>
<radialGradient id="paint0_radial_814_1144" cx="0" cy="0" r="1" gradientUnits="userSpaceOnUse" gradientTransform="translate(4.39556) rotate(51.5305) scale(50.1132)">
<stop stop-color="#2F287A"/>
<stop offset="1" stop-color="#1F195E"/>
</radialGradient>
</defs>
</svg>
