<svg width="18" height="17" viewBox="0 0 18 17" fill="none" xmlns="http://www.w3.org/2000/svg">
<path fill-rule="evenodd" clip-rule="evenodd" d="M0 7.01587C0 3.14101 3.28919 0 7.34641 0C11.0824 0 14.1602 2.66525 14.625 6.11285C13.8242 5.79082 12.9444 5.6127 12.0214 5.6127C8.33885 5.6127 5.34285 8.44501 5.34285 11.927C5.34285 12.5928 5.45418 13.2352 5.65721 13.8385C5.20311 13.7363 4.7675 13.5893 4.35019 13.411C3.47081 14.1397 2.3653 14.7211 1.06961 14.7251C1.04733 14.7303 1.0246 14.733 1.00178 14.7333C0.81736 14.7333 0.667856 14.5763 0.667856 14.3825C0.668007 14.2371 0.753633 14.1068 0.883083 14.055L0.884387 14.0537C1.65101 13.4436 2.06831 12.7591 2.26836 12.0709C0.873641 10.7959 0 9.006 0 7.01587ZM6.75 11.56C6.75 8.93112 9.2684 6.8 12.375 6.8C15.4816 6.8 18 8.93112 18 11.56C17.9977 12.7721 17.4491 13.9377 16.466 14.8192C16.7134 15.3487 17.1258 15.8688 17.7693 16.3413C17.9077 16.3902 17.9998 16.5175 18 16.66C18 16.8478 17.8426 17 17.6484 17C17.6235 16.9999 17.5986 16.9972 17.5743 16.992C16.3792 16.988 15.3357 16.5559 14.4734 15.9734C13.8065 16.2014 13.0942 16.319 12.375 16.32C9.2684 16.32 6.75 14.1889 6.75 11.56Z" fill="#7F879D"/>
</svg>
