<svg width="13" height="13" viewBox="0 0 13 13" fill="none" xmlns="http://www.w3.org/2000/svg">
<path d="M6.5 0.5C2.91 0.5 0 2.9625 0 6C0 7.684 0.896664 9.18924 2.30566 10.1982C2.34164 10.9662 2.22264 12.0267 1.16309 12.5156L1.16113 12.5166C1.11379 12.5346 1.07304 12.5666 1.04427 12.6082C1.01549 12.6499 1.00006 12.6994 1 12.75C1 12.8163 1.02634 12.8799 1.07322 12.9268C1.12011 12.9737 1.1837 13 1.25 13C1.25717 13 1.26434 12.9997 1.27148 12.999C2.4885 12.9912 3.52164 12.3335 4.23438 11.6387C4.46037 11.4182 4.77544 11.3097 5.08594 11.3682C5.54094 11.4547 6.014 11.5 6.5 11.5C10.09 11.5 13 9.0375 13 6C13 2.9625 10.09 0.5 6.5 0.5ZM3.5 5C4.0525 5 4.5 5.4475 4.5 6C4.5 6.5525 4.0525 7 3.5 7C2.9475 7 2.5 6.5525 2.5 6C2.5 5.4475 2.9475 5 3.5 5ZM6.5 5C7.0525 5 7.5 5.4475 7.5 6C7.5 6.5525 7.0525 7 6.5 7C5.9475 7 5.5 6.5525 5.5 6C5.5 5.4475 5.9475 5 6.5 5ZM9.5 5C10.0525 5 10.5 5.4475 10.5 6C10.5 6.5525 10.0525 7 9.5 7C8.9475 7 8.5 6.5525 8.5 6C8.5 5.4475 8.9475 5 9.5 5Z" fill="#4E5D74"/>
</svg>
