<svg width="30" height="22" viewBox="0 0 30 22" fill="none" xmlns="http://www.w3.org/2000/svg">
<path d="M28.758 0.167507C28.4507 0.176665 28.1589 0.305125 27.9446 0.525671L9.85156 18.6188L2.40636 11.1736C2.29734 11.06 2.16676 10.9694 2.02227 10.9069C1.87778 10.8445 1.72228 10.8115 1.56488 10.8099C1.40748 10.8083 1.25135 10.8381 1.10561 10.8976C0.959884 10.9571 0.82749 11.0451 0.716185 11.1564C0.604881 11.2677 0.516904 11.4001 0.457407 11.5458C0.39791 11.6915 0.368089 11.8477 0.36969 12.0051C0.371292 12.1625 0.404283 12.318 0.466733 12.4625C0.529183 12.6069 0.619835 12.7375 0.733381 12.8465L9.01507 21.1282C9.23695 21.35 9.53783 21.4746 9.85156 21.4746C10.1653 21.4746 10.4662 21.35 10.688 21.1282L29.6176 2.19865C29.7886 2.03247 29.9054 1.81851 29.9526 1.58483C29.9999 1.35114 29.9755 1.10863 29.8826 0.88906C29.7896 0.669493 29.6326 0.48312 29.4319 0.354365C29.2312 0.22561 28.9963 0.160479 28.758 0.167507Z" fill="#00B476"/>
</svg>
