<svg width="18" height="13" viewBox="0 0 18 13" fill="none" xmlns="http://www.w3.org/2000/svg">
<path d="M16.9869 0.992477C16.8137 0.997638 16.6493 1.07002 16.5285 1.1943L6.33323 11.3896L2.13791 7.1943C2.07648 7.13032 2.0029 7.07924 1.92149 7.04405C1.84007 7.00886 1.75244 6.99027 1.66375 6.98937C1.57506 6.98846 1.48707 7.00527 1.40496 7.03879C1.32284 7.07232 1.24824 7.12189 1.18552 7.18461C1.1228 7.24733 1.07322 7.32193 1.0397 7.40405C1.00617 7.48617 0.989367 7.57415 0.990269 7.66285C0.991171 7.75154 1.00976 7.83916 1.04495 7.92058C1.08014 8.002 1.13122 8.07558 1.19521 8.13701L5.86187 12.8037C5.9869 12.9287 6.15645 12.9989 6.33323 12.9989C6.51001 12.9989 6.67955 12.9287 6.80458 12.8037L17.4712 2.13701C17.5676 2.04337 17.6334 1.92281 17.66 1.79113C17.6867 1.65945 17.6729 1.52279 17.6205 1.39907C17.5682 1.27534 17.4797 1.17032 17.3666 1.09777C17.2535 1.02522 17.1212 0.988517 16.9869 0.992477Z" fill="url(#paint0_linear_277_1261)"/>
<defs>
<linearGradient id="paint0_linear_277_1261" x1="9.33175" y1="0.992187" x2="9.33175" y2="21.4742" gradientUnits="userSpaceOnUse">
<stop stop-color="white"/>
<stop offset="1" stop-color="white" stop-opacity="0"/>
</linearGradient>
</defs>
</svg>
