<?xml version="1.0" encoding="UTF-8"?>
<svg width="10px" height="15px" viewBox="0 0 10 15" version="1.1" xmlns="http://www.w3.org/2000/svg">
    <title>Group 10</title>
    <g id="Web" stroke="none" stroke-width="1" fill="none" fill-rule="evenodd">
        <g id="Main" transform="translate(-2003.000000, -225.000000)" fill="#7F879D" fill-rule="nonzero">
            <g id="Dropdown" transform="translate(1688.000000, 133.000000)">
                <g id="Group-7" transform="translate(305.000000, 84.000000)">
                    <g id="Group-10" transform="translate(10.000000, 8.000000)">
                        <path d="M9.53516767,8.83346941 C9.41540019,8.83649744 9.30160392,8.89001374 9.21856862,8.98236015 L4.99901766,13.494602 L0.779466786,8.98236015 C0.693980719,8.88838948 0.576595703,8.83537378 0.453999153,8.83536614 C0.269232334,8.83541807 0.102917163,8.95517934 0.0333908352,9.13824042 C-0.0361354925,9.3213015 0.0049913051,9.53115808 0.137399826,9.66896423 L4.67798427,14.524508 C4.85530762,14.7140529 5.14272769,14.7140529 5.32005105,14.524508 L9.8606354,9.66896423 C9.9956006,9.53017858 10.0370696,9.31703616 9.96506761,9.13220291 C9.89306566,8.94736966 9.7223568,8.82874565 9.53516767,8.83346941 Z" id="Path"></path>
                        <path d="M9.53516767,0.000136080793 C9.41540019,0.00316410958 9.30160392,0.0566804103 9.21856862,0.149026814 L4.99901766,4.66126866 L0.779466786,0.149026814 C0.693980719,0.055056144 0.576595703,0.00204044405 0.453999153,0.00203280185 C0.269232334,0.00208473218 0.102917163,0.121846008 0.0333908352,0.304907087 C-0.0361354925,0.487968167 0.0049913051,0.697824744 0.137399826,0.835630901 L4.67798427,5.69117464 C4.85530762,5.88071956 5.14272769,5.88071956 5.32005105,5.69117464 L9.8606354,0.835630901 C9.9956006,0.696845249 10.0370696,0.483702827 9.96506761,0.298869579 C9.89306566,0.114036331 9.7223568,-0.00458768143 9.53516767,0.000136080793 Z" id="Path" transform="translate(5.000000, 2.916667) scale(1, -1) translate(-5.000000, -2.916667) "></path>
                    </g>
                </g>
            </g>
        </g>
    </g>
</svg>
