<?xml version="1.0" encoding="UTF-8"?>
<svg width="18px" height="18px" viewBox="0 0 18 18" version="1.1" xmlns="http://www.w3.org/2000/svg">
  <title>Download button</title>
  <g id="Web---Future" stroke="none" stroke-width="1" fill="none" fill-rule="evenodd">
    <g id="Contact" transform="translate(-1167.000000, -65.000000)" fill="#FFFFFF" fill-rule="nonzero">
      <g id="Group-4" transform="translate(1155.000000, 54.000000)">
        <g id="icons8-below" transform="translate(12.000000, 11.000000)">
          <path d="M9,0 C4.02975,0 0,4.02975 0,9 C0,13.97025 4.02975,18 9,18 C13.97025,18 18,13.97025 18,9 C18,4.02975 13.97025,0 9,0 Z M11.78025,11.78025 L9.53025,14.03025 C9.384,14.1765 9.192,14.25 9,14.25 C8.808,14.25 8.616,14.1765 8.46975,14.03025 L6.21975,11.78025 C6.00525,11.56575 5.94075,11.24325 6.057,10.96275 C6.17325,10.68225 6.447,10.5 6.75,10.5 L8.25,10.5 L8.25,4.5 C8.25,4.08525 8.586,3.75 9,3.75 C9.414,3.75 9.75,4.08525 9.75,4.5 L9.75,10.5 L11.25,10.5 C11.553,10.5 11.82675,10.68225 11.943,10.96275 C12.05925,11.24325 11.99475,11.56575 11.78025,11.78025 Z" id="Download-button"></path>
        </g>
      </g>
    </g>
  </g>
</svg>
