<svg width="110" height="88" viewBox="0 0 110 88" fill="none" xmlns="http://www.w3.org/2000/svg">
<path d="M59.9271 53.7998C56.5239 56.1073 52.7516 63.8151 52.7516 63.8151H50.6808C51.9971 60.9185 52.7516 58.4147 53.3295 56.5C52.7676 56.6964 52.575 56.6964 52.575 56.6964C48.61 58.0383 44.4523 58.8075 40.8565 58.8075C44.6289 64.5843 51.6279 65.7462 51.6279 65.7462C61.4521 67.0881 68.8203 61.704 72.7853 57.6619C64.6627 53.047 59.9432 53.8162 59.9432 53.8162L59.9271 53.7998Z" fill="#0A4D7F"/>
<path d="M32.1559 46.6811C32.1559 47.0738 31.9633 47.4502 31.9633 47.4502C27.613 52.4579 31.9633 54.7653 31.9633 54.7653C32.1559 54.7653 32.3486 54.9617 32.5252 54.9617C31.7707 51.8851 31.7707 49.1849 32.1399 46.6811H32.1559Z" fill="#0A4D7F"/>
<path fill-rule="evenodd" clip-rule="evenodd" d="M91.6633 32.2309C91.6633 32.2309 98.0844 15.866 83.348 4.68876C83.348 4.68876 59.7345 -11.1034 46.507 15.2768C46.507 15.2768 37.0681 5.65429 25.3496 13.1658C15.3327 19.5154 17.0343 28.1887 17.9814 32.4273C17.9814 32.4273 -0.912656 38.0077 0.0344534 58.4311C0.981563 77.4962 23.0861 80 23.0861 80L87.8909 79.6072C87.8909 79.6072 110.365 77.6762 109.995 57.6456C109.61 37.6149 91.6633 32.2309 91.6633 32.2309ZM51.05 68.8228C38.577 68.6264 34.0501 59.2002 34.0501 59.2002C33.8575 58.6274 33.6649 58.2347 33.2957 57.6619C29.8925 56.32 27.8217 53.8162 28.3835 50.1504C28.7565 46.6015 32.6504 43.0678 32.898 42.8463C35.2384 35.3042 40.6478 30.3162 40.6478 30.3162C40.6478 30.3162 45.1747 25.5049 50.0868 23.0011L58.5947 24.343C39.3315 32.4273 38.3844 48.9885 38.3844 48.9885C38.1917 51.4924 38.577 53.6034 39.1388 55.3381C40.6478 55.1417 41.5949 55.1417 41.5949 55.1417C46.3144 54.3726 50.4721 53.0307 53.8752 51.476C53.6826 48.203 52.3663 47.4339 52.3663 47.4339C52.3663 47.4339 50.6647 45.3228 43.4891 44.1609L44.2436 43.1954C44.2436 43.1954 47.8394 43.9645 51.8044 43.1954C56.1547 42.4262 60.3124 39.3496 64.6466 32.9837H66.7174C62.3671 38.9568 61.9979 43.3754 62.7524 46.272C67.1027 42.999 69.1735 40.1024 69.1735 40.1024C77.1035 28.9252 66.1556 30.6598 66.1556 30.6598L69.3661 26.8141C85.9967 30.4798 70.6824 45.8792 70.6824 45.8792C68.9808 47.8103 66.91 49.3486 65.0158 50.6905C65.2084 50.8869 68.2264 53.9635 73.7003 56.86C75.2093 55.3217 75.9638 54.1598 75.9638 54.1598L78.2272 54.5526C65.1924 70.1483 51.0179 68.8064 51.0179 68.8064L51.05 68.8228ZM32.8841 42.8916C32.795 43.0908 32.751 43.2885 32.7014 43.5125C32.7599 43.3037 32.8208 43.0967 32.8841 42.8916ZM53.6987 40.5115C55.5929 40.5115 57.1018 38.9732 57.1018 37.0422C57.1018 34.9147 55.5768 33.18 53.506 33.3764C51.6118 33.3764 50.1028 34.9147 50.1028 36.8458C50.1028 38.7768 51.6279 40.5115 53.6987 40.5115Z" fill="#0A4D7F"/>
<path d="M95.7693 87.4655V87.4655L96.909 86.5H96.7164C96.5237 86.8928 96.1545 87.2692 95.7693 87.4655Z" fill="black"/>
<path d="M55.7178 74.1772L55.1559 76.4847C55.3486 75.9119 55.5412 75.1428 55.7178 74.1772Z" fill="black"/>
</svg>
