<svg width="20" height="20" viewBox="0 0 20 20" fill="none" xmlns="http://www.w3.org/2000/svg">
<rect width="20" height="20" rx="5" fill="#1F195E"/>
<path fill-rule="evenodd" clip-rule="evenodd" d="M8.5 4.48148C8.5 3.66913 9.1775 3 10 3C10.8225 3 11.5 3.66913 11.5 4.48148H13.5C14.3225 4.48148 15 5.15063 15 5.96296V14.8519C15 15.6642 14.3225 16.3333 13.5 16.3333H6.5C5.67752 16.3333 5 15.6642 5 14.8519V5.96296C5 5.15063 5.67752 4.48148 6.5 4.48148H8.5ZM10.5 4.48211C10.5 4.20353 10.2821 3.98828 10 3.98828C9.71794 3.98828 9.5 4.20353 9.5 4.48211C9.5 4.76069 9.71794 4.97594 10 4.97594C10.2821 4.97594 10.5 4.76069 10.5 4.48211ZM6.5 5.46875H8.5V5.96258C8.5 6.23517 8.724 6.4564 9 6.4564H11C11.276 6.4564 11.5 6.23517 11.5 5.96258V5.46875H13.5C13.7825 5.46875 14 5.68355 14 5.96258V14.8515C14 15.1305 13.7825 15.3453 13.5 15.3453H6.5C6.21748 15.3453 6 15.1305 6 14.8515V5.96258C6 5.68355 6.21748 5.46875 6.5 5.46875ZM7.56085 8.67461C7.65176 8.52079 7.81948 8.42722 7.9998 8.42974H11.9998C12.1801 8.42722 12.3478 8.52079 12.4387 8.67461C12.5296 8.82844 12.5296 9.01869 12.4387 9.17252C12.3478 9.32634 12.1801 9.41991 11.9998 9.41739H7.9998C7.81948 9.41991 7.65176 9.32634 7.56085 9.17252C7.46995 9.01869 7.46995 8.82844 7.56085 8.67461ZM7.9998 10.4063C7.81948 10.4038 7.65176 10.4973 7.56085 10.6512C7.46995 10.805 7.46995 10.9953 7.56085 11.1491C7.65176 11.3029 7.81948 11.3965 7.9998 11.394H10.4998C10.6801 11.3965 10.8478 11.3029 10.9387 11.1491C11.0296 10.9953 11.0296 10.805 10.9387 10.6512C10.8478 10.4973 10.6801 10.4038 10.4998 10.4063H7.9998ZM7.56085 12.6277C7.65176 12.4739 7.81948 12.3803 7.9998 12.3829H11.9998C12.1801 12.3803 12.3478 12.4739 12.4387 12.6277C12.5296 12.7816 12.5296 12.9718 12.4387 13.1256C12.3478 13.2795 12.1801 13.373 11.9998 13.3705H7.9998C7.81948 13.373 7.65176 13.2795 7.56085 13.1256C7.46995 12.9718 7.46995 12.7816 7.56085 12.6277Z" fill="white"/>
</svg>
