<svg width="10" height="10" viewBox="0 0 10 10" fill="none" xmlns="http://www.w3.org/2000/svg">
  <path d="M9.83755 9.05013C10.0542 9.26677 10.0542 9.62227 9.83755 9.83891C9.72647 9.94445 9.58762 10 9.44321 10C9.29881 10 9.15996 9.94445 9.04887 9.83891L5 5.78947L0.951125 9.83891C0.840044 9.94445 0.701194 10 0.55679 10C0.412385 10 0.273535 9.94445 0.162455 9.83891C-0.0541516 9.62227 -0.0541516 9.26677 0.162455 9.05013L4.21133 5.00069L0.162455 0.951257C-0.0541516 0.73462 -0.0541516 0.379114 0.162455 0.162477C0.379061 -0.0541591 0.734518 -0.0541591 0.951125 0.162477L5 4.21192L9.04887 0.162477C9.26548 -0.0541591 9.62094 -0.0541591 9.83755 0.162477C10.0542 0.379114 10.0542 0.73462 9.83755 0.951257L5.78867 5.00069L9.83755 9.05013Z" fill="#7F879D"/>
</svg>

