<?xml version="1.0" encoding="UTF-8"?>
<svg width="14px" height="14px" viewBox="0 0 14 14" version="1.1" xmlns="http://www.w3.org/2000/svg" xmlns:xlink="http://www.w3.org/1999/xlink">
    <title>Shape</title>
    <g id="Pass-Limits-(SP-1076)" stroke="none" stroke-width="1" fill="none" fill-rule="evenodd">
        <g id="Artboard" transform="translate(-1656.000000, -1880.000000)" fill="#7083A0" fill-rule="nonzero">
            <g id="Dropdown" transform="translate(1277.000000, 1774.000000)">
                <g id="Group-10" transform="translate(19.000000, 94.000000)">
                    <path d="M368.979501,19 C368.979501,19 373.373881,23.3943803 373.589471,23.6099695 C374.136843,24.1573421 374.136843,25.0434978 373.589471,25.5894705 C373.042098,26.1368432 372.155942,26.1368432 371.60997,25.5894705 C371.39438,25.3752812 367,20.979501 367,20.979501 C367,20.979501 362.60562,25.3738813 362.39003,25.5894705 C361.842658,26.1368432 360.956502,26.1368432 360.410529,25.5894705 C359.863157,25.0420979 359.863157,24.1559422 360.410529,23.6099695 C360.624719,23.3943803 365.020499,19 365.020499,19 C365.020499,19 360.626119,14.6056197 360.410529,14.3900305 C359.863157,13.8426579 359.863157,12.9565022 360.410529,12.4105295 C360.957902,11.8631568 361.844058,11.8631568 362.39003,12.4105295 C362.60562,12.6247188 367,17.020499 367,17.020499 C367,17.020499 371.39438,12.6261187 371.60997,12.4105295 C372.157342,11.8631568 373.043498,11.8631568 373.589471,12.4105295 C374.136843,12.9579021 374.136843,13.8440578 373.589471,14.3900305 C373.375281,14.6056197 368.979501,19 368.979501,19 Z" id="Shape"></path>
                </g>
            </g>
        </g>
    </g>
</svg>