<?xml version="1.0" encoding="UTF-8"?>
<svg width="12px" height="11px" viewBox="0 0 12 11" version="1.1" xmlns="http://www.w3.org/2000/svg" xmlns:xlink="http://www.w3.org/1999/xlink">
    <title>Shape</title>
    <g id="Digital-ID-Cards-(SP-1202)" stroke="none" stroke-width="1" fill="none" fill-rule="evenodd">
        <g id="Accounts-tab" transform="translate(-815.000000, -283.000000)" fill="#1F195E" fill-rule="nonzero">
            <g id="Dropdown" transform="translate(414.000000, 172.000000)">
                <path d="M408.555322,116.5 C408.555322,116.5 412.00805,119.952727 412.177441,120.122119 C412.60752,120.552197 412.60752,121.248463 412.177441,121.677441 C411.747363,122.10752 411.051097,122.10752 410.622119,121.677441 C410.452727,121.50915 407,118.055322 407,118.055322 C407,118.055322 403.547273,121.50805 403.377881,121.677441 C402.947803,122.10752 402.251537,122.10752 401.822559,121.677441 C401.39248,121.247363 401.39248,120.551097 401.822559,120.122119 C401.99085,119.952727 405.444678,116.5 405.444678,116.5 C405.444678,116.5 401.99195,113.047273 401.822559,112.877881 C401.39248,112.447803 401.39248,111.751537 401.822559,111.322559 C402.252637,110.89248 402.948903,110.89248 403.377881,111.322559 C403.547273,111.49085 407,114.944678 407,114.944678 C407,114.944678 410.452727,111.49195 410.622119,111.322559 C411.052197,110.89248 411.748463,110.89248 412.177441,111.322559 C412.60752,111.752637 412.60752,112.448903 412.177441,112.877881 C412.00915,113.047273 408.555322,116.5 408.555322,116.5 Z" id="Shape"></path>
            </g>
        </g>
    </g>
</svg>