<svg width="28" height="28" viewBox="0 0 28 28" fill="none" xmlns="http://www.w3.org/2000/svg">
<path d="M14.0003 0.666016C6.63699 0.666016 0.666992 6.63602 0.666992 13.9993C0.666992 21.3627 6.63699 27.3327 14.0003 27.3327C21.3637 27.3327 27.3337 21.3627 27.3337 13.9993C27.3337 6.63602 21.3637 0.666016 14.0003 0.666016Z" fill="#E2E6EC"/>
<path d="M9.3356 8.66631C9.20321 8.66634 9.07385 8.70586 8.96404 8.77983C8.85423 8.85379 8.76897 8.95883 8.71916 9.08151C8.66934 9.2042 8.65724 9.33895 8.68439 9.46856C8.71155 9.59816 8.77672 9.71672 8.87159 9.80907L13.0593 13.9979L8.87159 18.1868C8.80773 18.2481 8.75674 18.3216 8.72161 18.4029C8.68648 18.4842 8.66793 18.5716 8.66703 18.6602C8.66613 18.7488 8.6829 18.8366 8.71636 18.9186C8.74983 19.0006 8.79932 19.0751 8.86192 19.1377C8.92453 19.2003 8.99899 19.2498 9.08096 19.2833C9.16293 19.3168 9.25076 19.3335 9.33929 19.3326C9.42782 19.3317 9.51529 19.3132 9.59656 19.278C9.67783 19.2429 9.75128 19.1919 9.8126 19.128L14.0003 14.9392L18.1881 19.128C18.2494 19.1919 18.3228 19.2429 18.4041 19.278C18.4854 19.3132 18.5728 19.3317 18.6614 19.3326C18.7499 19.3335 18.8377 19.3168 18.9197 19.2833C19.0017 19.2498 19.0761 19.2003 19.1387 19.1377C19.2013 19.0751 19.2508 19.0006 19.2843 18.9186C19.3178 18.8366 19.3345 18.7488 19.3336 18.6602C19.3327 18.5716 19.3142 18.4842 19.279 18.4029C19.2439 18.3216 19.1929 18.2481 19.1291 18.1868L14.9413 13.9979L19.1291 9.80907C19.2252 9.71558 19.2909 9.5952 19.3175 9.46372C19.3441 9.33225 19.3303 9.1958 19.2781 9.07227C19.2258 8.94873 19.1375 8.84388 19.0246 8.77144C18.9117 8.699 18.7796 8.66235 18.6456 8.66631C18.4727 8.67146 18.3086 8.74373 18.1881 8.86782L14.0003 13.0567L9.8126 8.86782C9.75058 8.80405 9.67642 8.75337 9.59449 8.71876C9.51256 8.68415 9.42453 8.66631 9.3356 8.66631Z" fill="#7083A0"/>
</svg>
