<svg xmlns="http://www.w3.org/2000/svg" width="26" height="26" viewBox="0 0 26 26">
  <g>
    <path fill="rgb(228,140,21)" fill-rule="evenodd" d="M5 0h16c2.75957512 0 5 2.24042488 5 5v16c0 2.75957512-2.24042488 5-5 5H5c-2.75957512 0-5-2.24042488-5-5V5c0-2.75957512 2.24042488-5 5-5z"/>
    <path fill="rgb(255,255,255)" fill-rule="evenodd" d="M13 4c-4.97024536 0-9 4.02975464-9 9s4.02975464 9 9 9h.75c1.24273682 0 2.25-1.00724792 2.25-2.25V17.5c0-.82875061.67126465-1.5 1.5-1.5h3c.82873535 0 1.5-.67124939 1.5-1.5V13c0-4.97024536-4.02975464-9-9-9zm0 1.5c.82873535 0 1.5.67124939 1.5 1.5s-.67126465 1.5-1.5 1.5-1.5-.67124939-1.5-1.5.67126465-1.5 1.5-1.5zM7.69674683 7.69674683c-.58572388.58573913-.58572388 1.5352478 0 2.1210022.5857544.58573913 1.5352478.58573913 2.1210022 0 .58575439-.5857544.58575439-1.53526307 0-2.1210022-.5857544-.5857544-1.5352478-.5857544-2.1210022 0zm10.60650634 2.1210022c-.5857544.58573913-1.5352478.58573913-2.1210022 0-.58572387-.5857544-.58572387-1.53526307 0-2.1210022.5857544-.5857544 1.5352478-.5857544 2.1210022 0 .5857544.58573913.5857544 1.5352478 0 2.1210022zM5.5 13c0 .82875061.67126465 1.5 1.5 1.5s1.5-.67124939 1.5-1.5-.67126465-1.5-1.5-1.5-1.5.67124939-1.5 1.5zm12 0c0 .82875061.67126465 1.5 1.5 1.5s1.5-.67124939 1.5-1.5-.67126465-1.5-1.5-1.5-1.5.67124939-1.5 1.5zm-4.875 7.5c-1.03573608 0-1.875-.83924866-1.875-1.875s.83926392-1.875 1.875-1.875 1.875.83924866 1.875 1.875-.83926392 1.875-1.875 1.875z"/>
  </g>
</svg>
