<svg width="18" height="17" viewBox="0 0 18 17" fill="none" xmlns="http://www.w3.org/2000/svg">
<path fill-rule="evenodd" clip-rule="evenodd" d="M5.87988 0.0105705C5.91572 0.00435563 5.95195 0.000829125 5.98828 1.88075e-05C6.03098 -0.000202785 6.07361 0.00332725 6.11572 0.0105705H11.8799C11.9157 0.00435563 11.9519 0.000829125 11.9883 1.88075e-05C12.031 -0.000202785 12.0736 0.00332725 12.1157 0.0105705H16.5C17.3198 0.0105705 18 0.710524 18 1.55412V15.4461C18 16.2897 17.3198 16.9897 16.5 16.9897H12.1187C12.0377 17.0034 11.955 17.0034 11.874 16.9897H6.11865C6.03766 17.0034 5.95502 17.0034 5.87402 16.9897H1.5C0.680203 16.9897 0 16.2897 0 15.4461V1.55412C0 0.710524 0.680203 0.0105705 1.5 0.0105705H5.87988ZM5.25 4.86505H1.5V15.3266H5.25V4.86505ZM6.75 4.86505H11.25V15.3266H6.75V4.86505ZM16.5 4.86505H12.75V15.3266H16.5V4.86505Z" fill="#7F879D"/>
</svg>
