<svg xmlns="http://www.w3.org/2000/svg" width="15" height="19" viewBox="0 0 15 19">
  <path fill="rgb(112,131,160)" fill-rule="evenodd" d="M9.75 2.27999878C9.75 1.02078248 10.75732422 0 12 0c1.24255371 0 2.25 1.02078247 2.25 2.27999878 0 1.2592163-1.00744629 2.27999878-2.25 2.27999878-1.24267578 0-2.25-1.02078247-2.25-2.27999878zM.75012207 4.55999756c0-1.25921631 1.00732422-2.27999878 2.25-2.27999878 1.24255371 0 2.25 1.02078247 2.25 2.27999878 0 1.2592163-1.00744629 2.27999878-2.25 2.27999878-1.24267578 0-2.25-1.02078247-2.25-2.27999878zm10.49975586 1.51998901C10.01623535 6.07998657 9 7.10980225 9 8.35998535v4.55999756c-.00280762.20336914.07507324.39932251.21594238.5440979.14099121.1448059.33325196.22628784.53405762.22628784v4.52438355c0 .43319702.34729004.7852478.77478027.7852478.40808106 0 .74645996-.32061768.7734375-.73330688l.328125-4.99343873c.0135498-.19833374.17626953-.35327148.37353516-.35327148.19726562 0 .36010742.15563965.37353516.35476685l.328125 4.99194336C12.72851563 18.67861938 13.0670166 19 13.47497559 19c.42749023 0 .77490234-.35205078.77490234-.7852478v-4.52438355c.2006836 0 .3930664-.08148193.53393555-.22628784.1409912-.14477539.21875-.34072876.21606445-.5440979V8.35998535c0-1.2501831-1.01623535-2.27999878-2.25-2.27999878h-1.5zM.00012207 10.63998413c0-1.2501831 1.01623535-2.27999878 2.24987793-2.27999878h1.5c1.23376465 0 2.25 1.02981568 2.25 2.27999878v3.7999878c.00268555.20336913-.07507324.39935302-.21606445.54412841-.14086914.1447754-.33325196.22628784-.53393555.22628784v3.00436402C5.25 18.64794922 4.9025879 19 4.47509766 19c-.40795899 0-.74645996-.32138062-.7734375-.73330688l-.328125-3.47195435C3.36010742 14.59564209 3.19726563 14.43997192 3 14.43997192c-.19726563 0-.35998535.15493775-.37353516.353302l-.328125 3.4734192C2.2713623 18.67938232 1.9329834 19 1.52490234 19c-.42749023 0-.77478027-.35205078-.77478027-.7852478v-3.00436402c-.20080566 0-.3930664-.08151245-.53405762-.22628784-.14086914-.14477539-.21875-.34075928-.21594238-.54412842v-3.79998779z"/>
</svg>
