<svg width="60" height="60" viewBox="0 0 60 60" fill="none" xmlns="http://www.w3.org/2000/svg">
<rect width="60" height="60" rx="16" fill="#F0F2F5"/>
<path d="M34.667 14L32.667 16L34.667 18L36.667 16L34.667 14ZM24.0003 15.3333C22.8963 15.3333 22.0003 16.2293 22.0003 17.3333C22.0003 18.4373 22.8963 19.3333 24.0003 19.3333H26.0159C26.7466 19.3333 27.3413 19.9152 27.3493 20.6458C27.3746 22.8525 27.3337 27.3333 27.3337 27.3333C27.3337 27.3333 30.0003 23.3333 30.0003 19.3333C30.0003 17.2907 28.667 15.3333 26.0003 15.3333H24.0003ZM42.0003 15.3333C40.5429 15.3333 39.3337 16.5426 39.3337 18V20.6667H38.0003C36.5429 20.6667 35.3337 21.8759 35.3337 23.3333V24.6667H35.2347C34.145 24.6667 33.0833 25.02 32.2113 25.6745L32.1149 25.7474L29.0212 29.0937L30.9795 30.9063L33.8571 27.7917C34.2601 27.5018 34.7378 27.3333 35.2347 27.3333H35.3337C36.7911 27.3333 38.0003 26.1241 38.0003 24.6667V23.3333H39.3337C40.7911 23.3333 42.0003 22.1241 42.0003 20.6667V18H46.0003V15.3333H42.0003ZM17.3337 16.6667L15.3337 18.6667L17.3337 20.6667L19.3337 18.6667L17.3337 16.6667ZM14.667 24.6667L12.667 26.6667L14.667 28.6667L16.667 26.6667L14.667 24.6667ZM44.0003 24.6667L42.0003 26.6667L44.0003 28.6667L46.0003 26.6667L44.0003 24.6667ZM20.654 25.987C20.3887 25.987 20.1295 26.0662 19.9095 26.2144C19.6895 26.3625 19.5187 26.5729 19.4189 26.8187C19.3191 27.0644 19.2948 27.3344 19.3492 27.594C19.4036 27.8536 19.5342 28.091 19.7243 28.276L20.1279 28.6797L14.1383 43.6536C13.5837 45.0403 14.96 46.4166 16.3467 45.862L31.3206 39.8724L31.7243 40.276C31.8471 40.404 31.9943 40.5062 32.1571 40.5766C32.32 40.6469 32.4952 40.6841 32.6726 40.6859C32.85 40.6877 33.026 40.6541 33.1902 40.5871C33.3544 40.52 33.5036 40.4209 33.6291 40.2954C33.7545 40.17 33.8537 40.0208 33.9207 39.8565C33.9878 39.6923 34.0214 39.5163 34.0196 39.339C34.0178 39.1616 33.9806 38.9863 33.9102 38.8235C33.8398 38.6606 33.7377 38.5135 33.6097 38.3906L27.6436 32.4245L21.6097 26.3906C21.4854 26.2629 21.3369 26.1614 21.1727 26.092C21.0085 26.0227 20.8322 25.987 20.654 25.987ZM40.667 30C36.667 30 32.667 32.6667 32.667 32.6667C32.667 32.6667 37.1478 32.6257 39.3545 32.651C40.0852 32.659 40.667 33.2537 40.667 33.9844V36C40.667 37.104 41.563 38 42.667 38C43.771 38 44.667 37.104 44.667 36V34C44.667 31.3333 42.7097 30 40.667 30ZM38.667 39.3333L36.667 41.3333L38.667 43.3333L40.667 41.3333L38.667 39.3333Z" fill="#B7C1CF"/>
</svg>
