<svg width="35" height="35" viewBox="0 0 35 35" fill="none" xmlns="http://www.w3.org/2000/svg">
<path fill-rule="evenodd" clip-rule="evenodd" d="M16.0715 0.716675C16.3342 0.266565 16.8189 -0.00722473 17.34 0.000145123H29.6223C32.3984 0.000145123 34.6797 2.28151 34.6797 5.0576V11.56C34.6871 12.0812 34.4133 12.5659 33.9632 12.8286C33.5131 13.0913 32.9564 13.0913 32.5063 12.8286C32.0562 12.5659 31.7824 12.0812 31.7898 11.56V5.0576C31.7898 3.84264 30.8372 2.89012 29.6223 2.89012H17.34C16.8189 2.89749 16.3342 2.6237 16.0715 2.17359C15.8088 1.72348 15.8088 1.16679 16.0715 0.716675ZM4.03605 5.0576C4.03605 2.29334 5.72961 -0.00129987 8.67013 0.000145123C10.4359 0.000145123 10.7661 1.22672 10.7753 1.26096L10.7753 1.26099C10.7754 1.26147 10.7755 1.26171 10.7755 1.26169C12.5008 1.26169 13.3042 3.00868 13.3042 5.05478C13.3042 6.07639 12.8611 6.9231 12.8611 6.9231C13.0403 7.0257 13.3356 7.35258 13.2619 7.93347C13.1232 9.01576 12.6551 9.2876 12.356 9.31072C12.2418 10.3193 11.1555 11.6121 10.7755 11.7999V13.4848C11.0972 14.4489 12.1279 14.8006 13.2801 15.1936C15.15 15.8315 17.34 16.5786 17.34 20.23H0.000273133C0.000273133 16.5783 2.19069 15.8319 4.06066 15.1947C5.21267 14.8022 6.24307 14.4511 6.56476 13.4876V11.8028C6.18617 11.6149 5.09847 10.3208 4.98431 9.31072C4.6852 9.2876 4.2171 9.01432 4.07838 7.93347C4.00469 7.35403 4.29996 7.02708 4.47914 6.92593C4.47914 6.92593 4.03605 5.98817 4.03605 5.0576ZM27.5649 14.4472C26.5765 14.4472 25.8095 15.3277 25.8095 15.3277C22.139 15.3277 22.1675 19.3708 22.1902 22.5949C22.2025 24.3476 22.2132 25.8583 21.6269 26.3458C21.6269 26.3458 22.5119 27.6581 25.6966 27.6581V28.7814C25.343 29.7382 24.3911 30.1685 23.3787 30.6261C21.8713 31.3075 20.2299 32.0494 20.2299 34.6799H34.6797C34.6797 32.0496 33.039 31.3076 31.5324 30.6262C30.5204 30.1685 29.5689 29.7382 29.2159 28.7814V27.6468C32.4165 27.6468 33.1585 26.3796 33.1585 26.3796C32.56 25.8883 32.5102 24.3938 32.451 22.6212C32.3331 19.087 32.1782 14.4472 27.5649 14.4472ZM0.000273133 24.5649C-0.0106404 23.768 0.625744 23.1127 1.42267 23.1002C1.81324 23.0941 2.18964 23.2464 2.46611 23.5223C2.74258 23.7982 2.89558 24.1744 2.89023 24.5649V29.6224C2.89023 30.8374 3.84274 31.7899 5.05769 31.7899H14.45C14.9712 31.7825 15.4559 32.0563 15.7186 32.5064C15.9813 32.9565 15.9813 33.5132 15.7186 33.9633C15.4559 34.4134 14.9712 34.6872 14.45 34.6799H5.05769C2.28162 34.6799 0.000273133 32.3985 0.000273133 29.6224V24.5649Z" fill="white"/>
</svg>
