<svg width="36" height="36" viewBox="0 0 36 36" fill="none" xmlns="http://www.w3.org/2000/svg">
<path d="M33 18C33 26.25 26.25 33 18 33C9.75 33 3 26.25 3 18C3 9.75 9.75 3 18 3C26.25 3 33 9.75 33 18Z" fill="#FFCA28"/>
<path d="M16.5 16.5C16.5 17.325 16.5 21 12 21C9 21 6.75 18 6.75 16.5C6.75 15 7.5 14.25 9 14.25H14.25C15.075 14.25 16.5 15 16.5 16.5ZM19.5 16.5C19.5 17.325 19.5 21 24 21C27 21 29.25 18 29.25 16.5C29.25 15 28.5 14.25 27 14.25H21.75C20.925 14.25 19.5 15 19.5 16.5Z" fill="#37474F"/>
<path d="M16.5 17.25H15C15 16.5 15.6 15 18 15C20.4 15 21 16.5 21 17.25H19.5C19.5 17.175 19.35 16.5 18 16.5C16.65 16.5 16.5 17.175 16.5 17.25Z" fill="#37474F"/>
<path d="M18 27.7496C16.725 27.7496 15.75 27.3746 15.075 26.6996C14.25 25.8746 14.25 24.8246 14.25 24.7496H15.75C15.75 24.9746 15.9 26.2496 18 26.2496C21.075 26.2496 21.75 23.2496 21.75 23.0996L23.25 23.3996C22.95 24.8996 21.45 27.7496 18 27.7496Z" fill="#B76C09"/>
</svg>
