<svg width="20" height="22" viewBox="0 0 20 22" fill="none" xmlns="http://www.w3.org/2000/svg">
<path fill-rule="evenodd" clip-rule="evenodd" d="M0 1.57143C0 0.703214 0.716 0 1.6 0H10C10.212 0 10.4152 0.0824755 10.5656 0.23019L15.7656 5.33733C15.916 5.48505 16 5.68464 16 5.89286V12.7157C15.0712 13.0418 14.4 13.9056 14.4 14.9286V16.5C13.0768 16.5 12 17.5576 12 18.8571C12 19.4378 12.2337 19.9964 12.6312 20.4286H1.6C0.716 20.4286 0 19.7254 0 18.8571V1.57143ZM14.4766 6.28571L9.6 1.49623V5.5C9.6 5.93371 9.9584 6.28571 10.4 6.28571H14.4766ZM5.03125 9.27818C5.42165 9.27818 5.6896 9.35561 5.8 9.42397L5.61719 10.3355C5.48759 10.2758 5.34629 10.225 5.10469 10.225C4.47669 10.225 3.91563 10.7575 3.91563 12.1325C3.91563 13.458 4.43124 13.9771 5.09844 13.9771C5.28324 13.9771 5.49529 13.9374 5.62969 13.8958L5.7375 14.8058C5.5791 14.8789 5.2707 14.9378 4.8875 14.9378C3.4411 14.9378 2.75 13.7701 2.75 12.1924C2.75 10.0969 3.93365 9.27818 5.03125 9.27818ZM9.45312 9.47768C9.28913 9.38025 8.94006 9.27818 8.56406 9.27818C7.37766 9.27818 6.775 10.0184 6.775 10.911C6.775 11.4162 7.06859 11.9988 7.84219 12.4655C8.32219 12.7657 8.57812 12.9696 8.57812 13.3664C8.57812 13.7325 8.31764 13.9971 7.79844 13.9971C7.48484 13.9971 7.09675 13.908 6.86875 13.7792L6.70938 14.7137C6.89818 14.8245 7.33695 14.9378 7.79375 14.9378C8.89775 14.9378 9.6617 14.2727 9.6625 13.2497C9.6625 12.6667 9.38946 12.1038 8.63906 11.6614C8.03026 11.3016 7.85938 11.1244 7.85938 10.7913C7.85938 10.4974 8.08581 10.2174 8.55781 10.2174C8.87461 10.2174 9.11732 10.3086 9.27812 10.4076L9.45312 9.47768ZM10.0188 9.32729H11.2359L11.6375 11.7289L11.6608 11.8705C11.7536 12.4328 11.8565 13.0567 11.9266 13.6579H11.9469C12.0197 12.9979 12.1141 12.3321 12.2141 11.7059L12.6 9.32882H13.8094L12.5156 14.8887H11.2812L10.0188 9.32729ZM16 14.9286C16 14.4949 16.3584 14.1429 16.8 14.1429C17.2416 14.1429 17.6 14.4949 17.6 14.9286V18.0714H19.2C19.6416 18.0714 20 18.4234 20 18.8571C20 19.0826 19.9005 19.2835 19.7453 19.4265L17.3719 21.7606C17.2271 21.9075 17.0248 22 16.8 22C16.5752 22 16.3729 21.9083 16.2281 21.7621L13.8547 19.4265C13.6995 19.2827 13.6 19.0826 13.6 18.8571C13.6 18.4234 13.9584 18.0714 14.4 18.0714H16V14.9286Z" fill="#7F879D"/>
</svg>
