<svg width="60" height="60" viewBox="0 0 60 60" fill="none" xmlns="http://www.w3.org/2000/svg">
<rect width="60" height="60" rx="16" fill="#F0F2F5"/>
<path d="M28.5489 11.4271C28.8483 10.5057 30.1517 10.5057 30.4511 11.4271L34.1025 22.6652C34.2364 23.0772 34.6204 23.3561 35.0536 23.3561H46.87C47.8388 23.3561 48.2415 24.5958 47.4578 25.1652L37.8981 32.1107C37.5476 32.3653 37.401 32.8167 37.5348 33.2287L41.1863 44.4668C41.4857 45.3881 40.4312 46.1543 39.6475 45.5849L30.0878 38.6393C29.7373 38.3847 29.2627 38.3847 28.9122 38.6393L19.3525 45.5849C18.5688 46.1543 17.5143 45.3881 17.8137 44.4668L21.4652 33.2287C21.599 32.8167 21.4524 32.3653 21.1019 32.1107L11.5422 25.1652C10.7585 24.5957 11.1612 23.3561 12.13 23.3561H23.9464C24.3796 23.3561 24.7636 23.0772 24.8975 22.6652L28.5489 11.4271Z" fill="#B7C1CF"/>
</svg>
