<?xml version="1.0" encoding="UTF-8"?>
<svg width="150px" height="150px" viewBox="0 0 150 150" version="1.1" xmlns="http://www.w3.org/2000/svg" xmlns:xlink="http://www.w3.org/1999/xlink">
    <!-- Generator: Sketch 53.2 (72643) - https://sketchapp.com -->
    <title>Dashboard (Blue-Gray)</title>
    <desc>Created with Sketch.</desc>
    <g id="Dashboard-(Blue-Gray)" stroke="none" stroke-width="1" fill="none" fill-rule="evenodd">
        <g id="icons8-dashboard" fill="#7F879D" fill-rule="nonzero">
            <path d="M75,0 C33.58125,0 0,33.58125 0,75 C0,116.41875 33.58125,150 75,150 C116.41875,150 150,116.41875 150,75 C150,33.58125 116.41875,0 75,0 Z M75,12.5 C78.45,12.5 81.25,15.3 81.25,18.75 C81.25,22.2 78.45,25 75,25 C71.55,25 68.75,22.2 68.75,18.75 C68.75,15.3 71.55,12.5 75,12.5 Z M18.75,81.25 C15.3,81.25 12.5,78.45 12.5,75 C12.5,71.55 15.3,68.75 18.75,68.75 C22.2,68.75 25,71.55 25,75 C25,78.45 22.2,81.25 18.75,81.25 Z M39.64375,119.19375 C37.2,121.6375 33.24375,121.6375 30.80625,119.19375 C28.3625,116.75 28.3625,112.79375 30.80625,110.35625 C33.25,107.9125 37.20625,107.9125 39.64375,110.35625 C42.0875,112.79375 42.0875,116.75625 39.64375,119.19375 Z M39.64375,39.64375 C37.2,42.0875 33.24375,42.0875 30.80625,39.64375 C28.3625,37.2 28.3625,33.24375 30.80625,30.80625 C33.25,28.3625 37.20625,28.3625 39.64375,30.80625 C42.0875,33.24375 42.0875,37.20625 39.64375,39.64375 Z M66.1625,83.8375 C61.28125,78.95625 61.28125,71.04375 66.1625,66.1625 C69.23125,63.09375 94.14375,45.1625 112.2375,32.25625 C115.86875,29.66875 120.3375,34.1375 117.74375,37.7625 C104.8375,55.85625 86.90625,80.76875 83.8375,83.8375 C78.95625,88.71875 71.04375,88.71875 66.1625,83.8375 Z M119.19375,119.19375 C116.75,121.6375 112.79375,121.6375 110.35625,119.19375 C107.91875,116.75 107.9125,112.79375 110.35625,110.35625 C112.8,107.9125 116.75625,107.9125 119.19375,110.35625 C121.6375,112.79375 121.6375,116.75625 119.19375,119.19375 Z M131.25,81.25 C127.8,81.25 125,78.45 125,75 C125,71.55 127.8,68.75 131.25,68.75 C134.7,68.75 137.5,71.55 137.5,75 C137.5,78.45 134.7,81.25 131.25,81.25 Z" id="Shape"></path>
        </g>
    </g>
</svg>