<?xml version="1.0" encoding="UTF-8"?>
<svg width="150px" height="150px" viewBox="0 0 150 150" version="1.1" xmlns="http://www.w3.org/2000/svg" xmlns:xlink="http://www.w3.org/1999/xlink">
    <!-- Generator: Sketch 53.2 (72643) - https://sketchapp.com -->
    <title>Delete (Navy)</title>
    <desc>Created with Sketch.</desc>
    <g id="Delete-(Navy)" stroke="none" stroke-width="1" fill="none" fill-rule="evenodd">
        <g id="icons8-trash" transform="translate(12.000000, 0.000000)" fill="#1F195E" fill-rule="nonzero">
            <path d="M51.5454545,0 C46.7578154,0 42.0596591,0.945381032 38.6590909,4.32172869 C35.2585227,7.69808211 34.1846591,12.4924984 34.1846591,17.4669868 L11.4545455,17.4669868 C8.30007245,17.4669868 5.72727273,20.0555236 5.72727273,23.2292917 L0,23.2292917 L0,34.7539016 L126,34.7539016 L126,23.2292917 L120.272727,23.2292917 C120.272727,20.0555236 117.699928,17.4669868 114.545455,17.4669868 L91.8153409,17.4669868 C91.8153409,12.4924984 90.7414773,7.69808211 87.3409091,4.32172869 C83.9403409,0.945381032 79.2421904,0 74.4545455,0 L51.5454545,0 Z M51.5454545,11.8847539 L74.4545455,11.8847539 C77.5866477,11.8847539 78.5710227,12.6275496 78.9289773,12.9651861 C79.2869318,13.3028226 80.0028409,14.2481978 80.0028409,17.4669868 L45.9971591,17.4669868 C45.9971591,14.2481978 46.7130682,13.3028226 47.0710227,12.9651861 C47.4289773,12.6275496 48.4133523,11.8847539 51.5454545,11.8847539 Z M11.4545455,40.5162065 L11.4545455,132.713085 C11.4545455,142.234395 19.1729389,150 28.6363636,150 L97.3636364,150 C106.827061,150 114.545455,142.234395 114.545455,132.713085 L114.545455,40.5162065 L11.4545455,40.5162065 Z M34.3636364,57.8031212 L45.8181818,57.8031212 L45.8181818,126.95078 L34.3636364,126.95078 L34.3636364,57.8031212 Z M57.2727273,57.8031212 L68.7272727,57.8031212 L68.7272727,126.95078 L57.2727273,126.95078 L57.2727273,57.8031212 Z M80.1818182,57.8031212 L91.6363636,57.8031212 L91.6363636,126.95078 L80.1818182,126.95078 L80.1818182,57.8031212 Z" id="Shape"></path>
        </g>
    </g>
</svg>