<svg width="19px" height="14px" viewBox="0 0 19 14" version="1.1" xmlns="http://www.w3.org/2000/svg"
     xmlns:xlink="http://www.w3.org/1999/xlink">
  <g id="Email-notifications-(SP-1164)" stroke="none" stroke-width="1" fill="none" fill-rule="evenodd">
    <g id="Artboard" transform="translate(-3976.000000, -786.000000)" fill="#1F195E" fill-rule="nonzero">
      <g id="Dropdown" transform="translate(3929.000000, 462.000000)">
        <g id="Group-18" transform="translate(28.000000, 303.000000)">
          <g id="Group-31" transform="translate(15.500000, 15.000000)">
            <g id="icons8-multiple_devices" transform="translate(3.500000, 6.000000)">
              <path
                d="M3.16666667,0 C2.12485246,0 1.26666667,0.824800991 1.26666667,1.82608696 L1.26666667,9.73913043 C1.26666667,10.2069642 1.4592791,10.6318721 1.76516929,10.9565217 L0,10.9565217 C0,11.9651304 0.850566667,12.7826087 1.9,12.7826087 L4.43333333,12.7826087 L4.43333333,10.9565217 L4.43333333,10.3478261 L3.16666667,10.3478261 C2.80881421,10.3478261 2.53333333,10.0830617 2.53333333,9.73913043 L2.53333333,1.82608696 C2.53333333,1.48215553 2.80881421,1.2173913 3.16666667,1.2173913 L15.8333333,1.2173913 L15.8333333,0 L3.16666667,0 Z M11.4,2.43478261 C10.7014333,2.43478261 10.1333333,2.98078261 10.1333333,3.65217391 L10.1333333,4.26086957 L11.4,4.26086957 L11.4,3.65217391 L17.7333333,3.65217391 L17.7333333,11.5652174 L15.2,11.5652174 C15.2,11.9012174 14.9162667,12.173913 14.5666667,12.173913 C14.2170667,12.173913 13.9333333,11.9012174 13.9333333,11.5652174 L13.3,11.5652174 L13.3,13.3913043 L17.7333333,13.3913043 C18.4319,13.3913043 19,12.8453043 19,12.173913 L19,3.65217391 C19,2.98078261 18.4319,2.43478261 17.7333333,2.43478261 L11.4,2.43478261 Z M6.96666667,5.47826087 C6.26683333,5.47826087 5.7,6.02304348 5.7,6.69565217 L5.7,12.7826087 C5.7,13.4552174 6.26683333,14 6.96666667,14 L10.7666667,14 C11.4665,14 12.0333333,13.4552174 12.0333333,12.7826087 L12.0333333,6.69565217 C12.0333333,6.02304348 11.4665,5.47826087 10.7666667,5.47826087 L6.96666667,5.47826087 Z M6.96666667,6.69565217 L10.7666667,6.69565217 L10.7666667,12.7826087 L9.5,12.7826087 C9.5,13.1186087 9.20676667,13.3913043 8.86666667,13.3913043 C8.52656667,13.3913043 8.23333333,13.1186087 8.23333333,12.7826087 L6.96666667,12.7826087 L6.96666667,6.69565217 Z"
                id="Shape"></path>
            </g>
          </g>
        </g>
      </g>
    </g>
  </g>
</svg>
