<?xml version="1.0" encoding="UTF-8"?>
<svg width="28px" height="480px" viewBox="0 0 28 480" version="1.1" xmlns="http://www.w3.org/2000/svg" xmlns:xlink="http://www.w3.org/1999/xlink">
    <title>Group 5</title>
    <g id="Digital-ID-Cards-(SP-1202)" stroke="none" stroke-width="1" fill="none" fill-rule="evenodd" opacity="0.394228981">
        <g id="Accounts-tab" transform="translate(-1015.000000, -126.000000)" fill="#FFFFFF" fill-rule="nonzero">
            <g id="Group-5" transform="translate(1015.000000, 126.000000)">
                <path d="M24.7180818,471.35775 L15.3408246,479.198529 C14.0678217,480.262949 12.0096268,480.267757 10.7437179,479.209269 C9.47780897,478.150781 9.48356002,476.429825 10.7565629,475.365406 L20.1338201,467.524627 L10.6976576,459.634594 C9.42465475,458.570175 9.41890371,456.849218 10.6848126,455.790731 C11.9507216,454.732243 14.0089164,454.737052 15.2819193,455.801471 L27.0562193,465.646534 C28.3096377,466.694577 28.3153001,468.389057 27.0688666,469.431261 L24.7414723,471.377308 L24.7180818,471.35775 Z M10.1664054,471.294509 L5.49804155,475.200252 C4.23347465,476.258241 2.19456091,476.26774 0.944000132,475.22147 C-0.30656064,474.1752 -0.295206215,472.469361 0.96936069,471.411373 L5.63772451,467.50563 L0.955903403,463.588627 C-0.308663502,462.530639 -0.320017927,460.8248 0.930542846,459.77853 C2.18110333,458.73226 4.22001736,458.74176 5.48458427,459.799748 L12.4501072,465.627388 C13.6952192,466.6691 13.7063989,468.348695 12.4750777,469.378868 L10.1759011,471.302453 L10.1664054,471.294509 Z" id="Arrow" opacity="0.297247024"></path>
                <path d="M24.7180818,436.35775 L15.3408246,444.198529 C14.0678217,445.262949 12.0096268,445.267757 10.7437179,444.209269 C9.47780897,443.150781 9.48356002,441.429825 10.7565629,440.365406 L20.1338201,432.524627 L10.6976576,424.634594 C9.42465475,423.570175 9.41890371,421.849218 10.6848126,420.790731 C11.9507216,419.732243 14.0089164,419.737052 15.2819193,420.801471 L27.0562193,430.646534 C28.3096377,431.694577 28.3153001,433.389057 27.0688666,434.431261 L24.7414723,436.377308 L24.7180818,436.35775 Z M10.1664054,436.294509 L5.49804155,440.200252 C4.23347465,441.258241 2.19456091,441.26774 0.944000132,440.22147 C-0.30656064,439.1752 -0.295206215,437.469361 0.96936069,436.411373 L5.63772451,432.50563 L0.955903403,428.588627 C-0.308663502,427.530639 -0.320017927,425.8248 0.930542846,424.77853 C2.18110333,423.73226 4.22001736,423.74176 5.48458427,424.799748 L12.4501072,430.627388 C13.6952192,431.6691 13.7063989,433.348695 12.4750777,434.378868 L10.1759011,436.302453 L10.1664054,436.294509 Z" id="Arrow" opacity="0.297247024"></path>
                <path d="M24.7180818,401.35775 L15.3408246,409.198529 C14.0678217,410.262949 12.0096268,410.267757 10.7437179,409.209269 C9.47780897,408.150781 9.48356002,406.429825 10.7565629,405.365406 L20.1338201,397.524627 L10.6976576,389.634594 C9.42465475,388.570175 9.41890371,386.849218 10.6848126,385.790731 C11.9507216,384.732243 14.0089164,384.737052 15.2819193,385.801471 L27.0562193,395.646534 C28.3096377,396.694577 28.3153001,398.389057 27.0688666,399.431261 L24.7414723,401.377308 L24.7180818,401.35775 Z M10.1664054,401.294509 L5.49804155,405.200252 C4.23347465,406.258241 2.19456091,406.26774 0.944000132,405.22147 C-0.30656064,404.1752 -0.295206215,402.469361 0.96936069,401.411373 L5.63772451,397.50563 L0.955903403,393.588627 C-0.308663502,392.530639 -0.320017927,390.8248 0.930542846,389.77853 C2.18110333,388.73226 4.22001736,388.74176 5.48458427,389.799748 L12.4501072,395.627388 C13.6952192,396.6691 13.7063989,398.348695 12.4750777,399.378868 L10.1759011,401.302453 L10.1664054,401.294509 Z" id="Arrow" opacity="0.297247024"></path>
                <path d="M24.7180818,366.35775 L15.3408246,374.198529 C14.0678217,375.262949 12.0096268,375.267757 10.7437179,374.209269 C9.47780897,373.150781 9.48356002,371.429825 10.7565629,370.365406 L20.1338201,362.524627 L10.6976576,354.634594 C9.42465475,353.570175 9.41890371,351.849218 10.6848126,350.790731 C11.9507216,349.732243 14.0089164,349.737052 15.2819193,350.801471 L27.0562193,360.646534 C28.3096377,361.694577 28.3153001,363.389057 27.0688666,364.431261 L24.7414723,366.377308 L24.7180818,366.35775 Z M10.1664054,366.294509 L5.49804155,370.200252 C4.23347465,371.258241 2.19456091,371.26774 0.944000132,370.22147 C-0.30656064,369.1752 -0.295206215,367.469361 0.96936069,366.411373 L5.63772451,362.50563 L0.955903403,358.588627 C-0.308663502,357.530639 -0.320017927,355.8248 0.930542846,354.77853 C2.18110333,353.73226 4.22001736,353.74176 5.48458427,354.799748 L12.4501072,360.627388 C13.6952192,361.6691 13.7063989,363.348695 12.4750777,364.378868 L10.1759011,366.302453 L10.1664054,366.294509 Z" id="Arrow" opacity="0.297247024"></path>
                <path d="M24.7180818,331.35775 L15.3408246,339.198529 C14.0678217,340.262949 12.0096268,340.267757 10.7437179,339.209269 C9.47780897,338.150781 9.48356002,336.429825 10.7565629,335.365406 L20.1338201,327.524627 L10.6976576,319.634594 C9.42465475,318.570175 9.41890371,316.849218 10.6848126,315.790731 C11.9507216,314.732243 14.0089164,314.737052 15.2819193,315.801471 L27.0562193,325.646534 C28.3096377,326.694577 28.3153001,328.389057 27.0688666,329.431261 L24.7414723,331.377308 L24.7180818,331.35775 Z M10.1664054,331.294509 L5.49804155,335.200252 C4.23347465,336.258241 2.19456091,336.26774 0.944000132,335.22147 C-0.30656064,334.1752 -0.295206215,332.469361 0.96936069,331.411373 L5.63772451,327.50563 L0.955903403,323.588627 C-0.308663502,322.530639 -0.320017927,320.8248 0.930542846,319.77853 C2.18110333,318.73226 4.22001736,318.74176 5.48458427,319.799748 L12.4501072,325.627388 C13.6952192,326.6691 13.7063989,328.348695 12.4750777,329.378868 L10.1759011,331.302453 L10.1664054,331.294509 Z" id="Arrow" opacity="0.297247024"></path>
                <path d="M24.7180818,296.35775 L15.3408246,304.198529 C14.0678217,305.262949 12.0096268,305.267757 10.7437179,304.209269 C9.47780897,303.150781 9.48356002,301.429825 10.7565629,300.365406 L20.1338201,292.524627 L10.6976576,284.634594 C9.42465475,283.570175 9.41890371,281.849218 10.6848126,280.790731 C11.9507216,279.732243 14.0089164,279.737052 15.2819193,280.801471 L27.0562193,290.646534 C28.3096377,291.694577 28.3153001,293.389057 27.0688666,294.431261 L24.7414723,296.377308 L24.7180818,296.35775 Z M10.1664054,296.294509 L5.49804155,300.200252 C4.23347465,301.258241 2.19456091,301.26774 0.944000132,300.22147 C-0.30656064,299.1752 -0.295206215,297.469361 0.96936069,296.411373 L5.63772451,292.50563 L0.955903403,288.588627 C-0.308663502,287.530639 -0.320017927,285.8248 0.930542846,284.77853 C2.18110333,283.73226 4.22001736,283.74176 5.48458427,284.799748 L12.4501072,290.627388 C13.6952192,291.6691 13.7063989,293.348695 12.4750777,294.378868 L10.1759011,296.302453 L10.1664054,296.294509 Z" id="Arrow" opacity="0.297247024"></path>
                <path d="M24.7180818,261.35775 L15.3408246,269.198529 C14.0678217,270.262949 12.0096268,270.267757 10.7437179,269.209269 C9.47780897,268.150781 9.48356002,266.429825 10.7565629,265.365406 L20.1338201,257.524627 L10.6976576,249.634594 C9.42465475,248.570175 9.41890371,246.849218 10.6848126,245.790731 C11.9507216,244.732243 14.0089164,244.737052 15.2819193,245.801471 L27.0562193,255.646534 C28.3096377,256.694577 28.3153001,258.389057 27.0688666,259.431261 L24.7414723,261.377308 L24.7180818,261.35775 Z M10.1664054,261.294509 L5.49804155,265.200252 C4.23347465,266.258241 2.19456091,266.26774 0.944000132,265.22147 C-0.30656064,264.1752 -0.295206215,262.469361 0.96936069,261.411373 L5.63772451,257.50563 L0.955903403,253.588627 C-0.308663502,252.530639 -0.320017927,250.8248 0.930542846,249.77853 C2.18110333,248.73226 4.22001736,248.74176 5.48458427,249.799748 L12.4501072,255.627388 C13.6952192,256.6691 13.7063989,258.348695 12.4750777,259.378868 L10.1759011,261.302453 L10.1664054,261.294509 Z" id="Arrow" opacity="0.297247024"></path>
                <path d="M24.7180818,226.35775 L15.3408246,234.198529 C14.0678217,235.262949 12.0096268,235.267757 10.7437179,234.209269 C9.47780897,233.150781 9.48356002,231.429825 10.7565629,230.365406 L20.1338201,222.524627 L10.6976576,214.634594 C9.42465475,213.570175 9.41890371,211.849218 10.6848126,210.790731 C11.9507216,209.732243 14.0089164,209.737052 15.2819193,210.801471 L27.0562193,220.646534 C28.3096377,221.694577 28.3153001,223.389057 27.0688666,224.431261 L24.7414723,226.377308 L24.7180818,226.35775 Z M10.1664054,226.294509 L5.49804155,230.200252 C4.23347465,231.258241 2.19456091,231.26774 0.944000132,230.22147 C-0.30656064,229.1752 -0.295206215,227.469361 0.96936069,226.411373 L5.63772451,222.50563 L0.955903403,218.588627 C-0.308663502,217.530639 -0.320017927,215.8248 0.930542846,214.77853 C2.18110333,213.73226 4.22001736,213.74176 5.48458427,214.799748 L12.4501072,220.627388 C13.6952192,221.6691 13.7063989,223.348695 12.4750777,224.378868 L10.1759011,226.302453 L10.1664054,226.294509 Z" id="Arrow" opacity="0.297247024"></path>
                <path d="M24.7180818,191.35775 L15.3408246,199.198529 C14.0678217,200.262949 12.0096268,200.267757 10.7437179,199.209269 C9.47780897,198.150781 9.48356002,196.429825 10.7565629,195.365406 L20.1338201,187.524627 L10.6976576,179.634594 C9.42465475,178.570175 9.41890371,176.849218 10.6848126,175.790731 C11.9507216,174.732243 14.0089164,174.737052 15.2819193,175.801471 L27.0562193,185.646534 C28.3096377,186.694577 28.3153001,188.389057 27.0688666,189.431261 L24.7414723,191.377308 L24.7180818,191.35775 Z M10.1664054,191.294509 L5.49804155,195.200252 C4.23347465,196.258241 2.19456091,196.26774 0.944000132,195.22147 C-0.30656064,194.1752 -0.295206215,192.469361 0.96936069,191.411373 L5.63772451,187.50563 L0.955903403,183.588627 C-0.308663502,182.530639 -0.320017927,180.8248 0.930542846,179.77853 C2.18110333,178.73226 4.22001736,178.74176 5.48458427,179.799748 L12.4501072,185.627388 C13.6952192,186.6691 13.7063989,188.348695 12.4750777,189.378868 L10.1759011,191.302453 L10.1664054,191.294509 Z" id="Arrow" opacity="0.297247024"></path>
                <path d="M24.7180818,156.35775 L15.3408246,164.198529 C14.0678217,165.262949 12.0096268,165.267757 10.7437179,164.209269 C9.47780897,163.150781 9.48356002,161.429825 10.7565629,160.365406 L20.1338201,152.524627 L10.6976576,144.634594 C9.42465475,143.570175 9.41890371,141.849218 10.6848126,140.790731 C11.9507216,139.732243 14.0089164,139.737052 15.2819193,140.801471 L27.0562193,150.646534 C28.3096377,151.694577 28.3153001,153.389057 27.0688666,154.431261 L24.7414723,156.377308 L24.7180818,156.35775 Z M10.1664054,156.294509 L5.49804155,160.200252 C4.23347465,161.258241 2.19456091,161.26774 0.944000132,160.22147 C-0.30656064,159.1752 -0.295206215,157.469361 0.96936069,156.411373 L5.63772451,152.50563 L0.955903403,148.588627 C-0.308663502,147.530639 -0.320017927,145.8248 0.930542846,144.77853 C2.18110333,143.73226 4.22001736,143.74176 5.48458427,144.799748 L12.4501072,150.627388 C13.6952192,151.6691 13.7063989,153.348695 12.4750777,154.378868 L10.1759011,156.302453 L10.1664054,156.294509 Z" id="Arrow" opacity="0.297247024"></path>
                <path d="M24.7180818,121.35775 L15.3408246,129.198529 C14.0678217,130.262949 12.0096268,130.267757 10.7437179,129.209269 C9.47780897,128.150781 9.48356002,126.429825 10.7565629,125.365406 L20.1338201,117.524627 L10.6976576,109.634594 C9.42465475,108.570175 9.41890371,106.849218 10.6848126,105.790731 C11.9507216,104.732243 14.0089164,104.737052 15.2819193,105.801471 L27.0562193,115.646534 C28.3096377,116.694577 28.3153001,118.389057 27.0688666,119.431261 L24.7414723,121.377308 L24.7180818,121.35775 Z M10.1664054,121.294509 L5.49804155,125.200252 C4.23347465,126.258241 2.19456091,126.26774 0.944000132,125.22147 C-0.30656064,124.1752 -0.295206215,122.469361 0.96936069,121.411373 L5.63772451,117.50563 L0.955903403,113.588627 C-0.308663502,112.530639 -0.320017927,110.8248 0.930542846,109.77853 C2.18110333,108.73226 4.22001736,108.74176 5.48458427,109.799748 L12.4501072,115.627388 C13.6952192,116.6691 13.7063989,118.348695 12.4750777,119.378868 L10.1759011,121.302453 L10.1664054,121.294509 Z" id="Arrow" opacity="0.297247024"></path>
                <path d="M24.7180818,86.35775 L15.3408246,94.1985289 C14.0678217,95.2629485 12.0096268,95.267757 10.7437179,94.2092692 C9.47780897,93.1507814 9.48356002,91.4298253 10.7565629,90.3654057 L20.1338201,82.5246268 L10.6976576,74.6345943 C9.42465475,73.5701748 9.41890371,71.8492185 10.6848126,70.7907307 C11.9507216,69.732243 14.0089164,69.7370516 15.2819193,70.8014711 L27.0562193,80.6465335 C28.3096377,81.6945773 28.3153001,83.3890574 27.0688666,84.4312608 L24.7414723,86.3773079 L24.7180818,86.35775 Z M10.1664054,86.2945086 L5.49804155,90.2002521 C4.23347465,91.2582406 2.19456091,91.2677399 0.944000132,90.22147 C-0.30656064,89.1751999 -0.295206215,87.4693614 0.96936069,86.4113731 L5.63772451,82.5056295 L0.955903403,78.5886269 C-0.308663502,77.5306386 -0.320017927,75.8248001 0.930542846,74.7785301 C2.18110333,73.73226 4.22001736,73.7417595 5.48458427,74.7997478 L12.4501072,80.6273883 C13.6952192,81.6690999 13.7063989,83.3486947 12.4750777,84.3788683 L10.1759011,86.3024531 L10.1664054,86.2945086 Z" id="Arrow" opacity="0.297247024"></path>
                <path d="M24.7180818,51.35775 L15.3408246,59.1985289 C14.0678217,60.2629485 12.0096268,60.267757 10.7437179,59.2092692 C9.47780897,58.1507814 9.48356002,56.4298253 10.7565629,55.3654057 L20.1338201,47.5246268 L10.6976576,39.6345943 C9.42465475,38.5701748 9.41890371,36.8492185 10.6848126,35.7907307 C11.9507216,34.732243 14.0089164,34.7370516 15.2819193,35.8014711 L27.0562193,45.6465335 C28.3096377,46.6945773 28.3153001,48.3890574 27.0688666,49.4312608 L24.7414723,51.3773079 L24.7180818,51.35775 Z M10.1664054,51.2945086 L5.49804155,55.2002521 C4.23347465,56.2582406 2.19456091,56.2677399 0.944000132,55.22147 C-0.30656064,54.1751999 -0.295206215,52.4693614 0.96936069,51.4113731 L5.63772451,47.5056295 L0.955903403,43.5886269 C-0.308663502,42.5306386 -0.320017927,40.8248001 0.930542846,39.7785301 C2.18110333,38.73226 4.22001736,38.7417595 5.48458427,39.7997478 L12.4501072,45.6273883 C13.6952192,46.6690999 13.7063989,48.3486947 12.4750777,49.3788683 L10.1759011,51.3024531 L10.1664054,51.2945086 Z" id="Arrow" opacity="0.297247024"></path>
                <path d="M24.7180818,16.35775 L15.3408246,24.1985289 C14.0678217,25.2629485 12.0096268,25.267757 10.7437179,24.2092692 C9.47780897,23.1507814 9.48356002,21.4298253 10.7565629,20.3654057 L20.1338201,12.5246268 L10.6976576,4.63459432 C9.42465475,3.57017481 9.41890371,1.84921845 10.6848126,0.790730698 C11.9507216,-0.267757032 14.0089164,-0.262948424 15.2819193,0.801471086 L27.0562193,10.6465335 C28.3096377,11.6945773 28.3153001,13.3890574 27.0688666,14.4312608 L24.7414723,16.3773079 L24.7180818,16.35775 Z M10.1664054,16.2945086 L5.49804155,20.2002521 C4.23347465,21.2582406 2.19456091,21.2677399 0.944000132,20.22147 C-0.30656064,19.1751999 -0.295206215,17.4693614 0.96936069,16.4113731 L5.63772451,12.5056295 L0.955903403,8.58862692 C-0.308663502,7.5306386 -0.320017927,5.82480013 0.930542846,4.77853005 C2.18110333,3.73225997 4.22001736,3.7417595 5.48458427,4.79974782 L12.4501072,10.6273883 C13.6952192,11.6690999 13.7063989,13.3486947 12.4750777,14.3788683 L10.1759011,16.3024531 L10.1664054,16.2945086 Z" id="Arrow" opacity="0.297247024"></path>
            </g>
        </g>
    </g>
</svg>