<svg xmlns="http://www.w3.org/2000/svg" width="35" height="467" viewBox="0 0 35 467">
  <g opacity=".394">
    <g opacity=".297">
      <path fill="rgb(255,255,255)" fill-rule="evenodd" d="M12.60144043 466.19854736l7.70275879-7.8408203.01916504.01959228 1.91174316-1.94604493c1.02392578-1.04223632 1.01928711-2.73669433-.01037597-3.784729l-9.67175293-9.84509277c-1.0456543-1.0643921-2.73632813-1.06921387-3.77618409-.0107422-1.03985595 1.05853272-1.03509521 2.77947999.01055909 3.84387208l7.75109863 7.89001465-7.70269776 7.84082031c-1.04571533 1.06439209-1.05041503 2.78533936-.01055908 3.84387207 1.03979492 1.05847168 2.73046875 1.0536499 3.77624512-.01074219zm-8.08520508-3.99829101l3.8347168-3.90576172.0078125.00793457 1.88867187-1.92358399c1.01135254-1.03015136 1.00219727-2.7097168-.0205078-3.75146484l-5.72174073-5.82763672c-1.03875733-1.0579834-2.71356201-1.06750488-3.7407837-.02124023-1.0272827 1.04632568-1.01794433 2.75213623.020813 3.81011963l3.84576416 3.91699218-3.8347168 3.90576172c-1.03875733 1.0579834-1.0480957 2.76379395-.02081299 3.81011963 1.02722168 1.04626465 2.70202637 1.03674317 3.7407837-.02124023z"/>
    </g>
    <g opacity=".297">
      <path width="35" fill="rgb(255,255,255)" fill-rule="evenodd" d="M12.60144043 432.19854736l7.70275879-7.8408203.01916504.01959228 1.91174316-1.94604493c1.02392578-1.04223632 1.01928711-2.73669433-.01037597-3.784729l-9.67175293-9.84509277c-1.0456543-1.0643921-2.73632813-1.06921387-3.77618409-.0107422-1.03985595 1.05853272-1.03509521 2.77947999.01055909 3.84387208l7.75109863 7.89001465-7.70269776 7.84082031c-1.04571533 1.06439209-1.05041503 2.78533936-.01055908 3.84387207 1.03979492 1.05847168 2.73046875 1.0536499 3.77624512-.01074219zm-8.08520508-3.99829101l3.8347168-3.90576172.0078125.00793457 1.88867187-1.92358399c1.01135254-1.03015136 1.00219727-2.7097168-.0205078-3.75146484l-5.72174073-5.82763672c-1.03875733-1.0579834-2.71356201-1.06750488-3.7407837-.02124023-1.0272827 1.04632568-1.01794433 2.75213623.020813 3.81011963l3.84576416 3.91699218-3.8347168 3.90576172c-1.03875733 1.0579834-1.0480957 2.76379395-.02081299 3.81011963 1.02722168 1.04626465 2.70202637 1.03674317 3.7407837-.02124023z"/>
    </g>
    <g opacity=".297">
      <path fill="rgb(255,255,255)" fill-rule="evenodd" d="M12.60144043 398.19854736l7.70275879-7.8408203.01916504.01959228 1.91174316-1.94604493c1.02392578-1.04223632 1.01928711-2.73669433-.01037597-3.784729l-9.67175293-9.84506226c-1.0456543-1.0644226-2.73632813-1.06924438-3.77618409-.01074218-1.03985595 1.05847168-1.03509521 2.77941894.01055909 3.84384155l7.75109863 7.89001465-7.70269776 7.84082031c-1.04571533 1.06439209-1.05041503 2.78533936-.01055908 3.84387207 1.03979492 1.05847168 2.73046875 1.0536499 3.77624512-.01074219zm-8.08520508-3.99829101l3.8347168-3.90576172.0078125.00793457 1.88867187-1.92358399c1.01135254-1.03015136 1.00219727-2.70974731-.0205078-3.75146484l-5.72174073-5.82763672c-1.03875733-1.0579834-2.71356201-1.06747436-3.7407837-.02120971-1.0272827 1.04626464-1.01794433 2.7521057.020813 3.8100891l3.84576416 3.9169922-3.8347168 3.90576171c-1.03875733 1.0579834-1.0480957 2.76379395-.02081299 3.81011963 1.02722168 1.04626465 2.70202637 1.03674317 3.7407837-.02124023z"/>
    </g>
    <g opacity=".297">
      <path fill="rgb(255,255,255)" fill-rule="evenodd" d="M12.60144043 364.19851685l7.70275879-7.84075928.01916504.01956177 1.91174316-1.94604493c1.02392578-1.0422058 1.01928711-2.73669433-.01037597-3.784729l-9.67175293-9.84506226c-1.0456543-1.0644226-2.73632813-1.06924438-3.77618409-.01074218-1.03985595 1.05847168-1.03509521 2.77941894.01055909 3.84384155l7.75109863 7.89004517-7.70269776 7.84078979c-1.04571533 1.06439209-1.05041503 2.78536987-.01055908 3.84384155 1.03979492 1.0585022 2.73046875 1.05368042 3.77624512-.01074218zm-8.08520508-3.9982605l3.8347168-3.90576172.0078125.00796509 1.88867187-1.92358399c1.01135254-1.03018188 1.00219727-2.70977783-.0205078-3.75149536l-5.72174073-5.82763672c-1.03875733-1.0579834-2.71356201-1.06747436-3.7407837-.02120971-1.0272827 1.04626464-1.01794433 2.7521057.020813 3.8100891l3.84576416 3.9169922-3.8347168 3.90576171c-1.03875733 1.0579834-1.0480957 2.76382447-.02081299 3.81008911 1.02722168 1.04626465 2.70202637 1.03677369 3.7407837-.02120971z"/>
    </g>
    <g opacity=".297">
      <path fill="rgb(255,255,255)" fill-rule="evenodd" d="M12.60144043 330.19851685l7.70275879-7.84075928.01916504.01956177 1.91174316-1.94604493c1.02392578-1.0422058 1.01928711-2.73669433-.01037597-3.784729l-9.67175293-9.84506226c-1.0456543-1.0644226-2.73632813-1.06924438-3.77618409-.01074218-1.03985595 1.05847168-1.03509521 2.77941894.01055909 3.84384155l7.75109863 7.89004517-7.70269776 7.84078979c-1.04571533 1.06439209-1.05041503 2.78536987-.01055908 3.84384155 1.03979492 1.0585022 2.73046875 1.05368042 3.77624512-.01074218zm-8.08520508-3.9982605l3.8347168-3.90576172.0078125.00796509 1.88867187-1.92358399c1.01135254-1.03018188 1.00219727-2.70977783-.0205078-3.75149536l-5.72174073-5.82763672c-1.03875733-1.0579834-2.71356201-1.06747436-3.7407837-.02120971-1.0272827 1.04626464-1.01794433 2.7521057.020813 3.8100891l3.84576416 3.9169922-3.8347168 3.90576171c-1.03875733 1.0579834-1.0480957 2.76382447-.02081299 3.81008911 1.02722168 1.04626465 2.70202637 1.03677369 3.7407837-.02120971z"/>
    </g>
    <g opacity=".297">
      <path fill="rgb(255,255,255)" fill-rule="evenodd" d="M12.60144043 296.19851685l7.70275879-7.84075928.01916504.01956177 1.91174316-1.94604493c1.02392578-1.0422058 1.01928711-2.73669433-.01037597-3.784729l-9.67175293-9.84506226c-1.0456543-1.0644226-2.73632813-1.06924438-3.77618409-.01074218-1.03985595 1.05847168-1.03509521 2.77941894.01055909 3.84384155l7.75109863 7.89004517-7.70269776 7.84078979c-1.04571533 1.06439209-1.05041503 2.78536987-.01055908 3.84384155 1.03979492 1.0585022 2.73046875 1.05368042 3.77624512-.01074218zm-8.08520508-3.9982605l3.8347168-3.90576172.0078125.00796509 1.88867187-1.92358399c1.01135254-1.03018188 1.00219727-2.70977783-.0205078-3.75149536l-5.72174073-5.82763672c-1.03875733-1.0579834-2.71356201-1.06747436-3.7407837-.02120971-1.0272827 1.04626464-1.01794433 2.7521057.020813 3.8100891l3.84576416 3.9169922-3.8347168 3.90576171c-1.03875733 1.0579834-1.0480957 2.76382447-.02081299 3.81008911 1.02722168 1.04626465 2.70202637 1.03677369 3.7407837-.02120971z"/>
    </g>
    <g opacity=".297">
      <path fill="rgb(255,255,255)" fill-rule="evenodd" d="M12.60144043 262.19851685l7.70275879-7.84075928.01916504.01956177 1.91174316-1.94604493c1.02392578-1.0422058 1.01928711-2.73669433-.01037597-3.784729l-9.67175293-9.84506226c-1.0456543-1.0644226-2.73632813-1.06924438-3.77618409-.01074218-1.03985595 1.05847168-1.03509521 2.77941894.01055909 3.84384155l7.75109863 7.89004517-7.70269776 7.84078979c-1.04571533 1.06439209-1.05041503 2.78536987-.01055908 3.84384155 1.03979492 1.0585022 2.73046875 1.05368042 3.77624512-.01074218zm-8.08520508-3.9982605l3.8347168-3.90576172.0078125.00796509 1.88867187-1.92358399c1.01135254-1.03018188 1.00219727-2.70977783-.0205078-3.75149536l-5.72174073-5.82763672c-1.03875733-1.0579834-2.71356201-1.06747436-3.7407837-.02120971-1.0272827 1.04626464-1.01794433 2.7521057.020813 3.8100891l3.84576416 3.9169922-3.8347168 3.90576171c-1.03875733 1.0579834-1.0480957 2.76382447-.02081299 3.81008911 1.02722168 1.04626465 2.70202637 1.03677369 3.7407837-.02120971z"/>
    </g>
    <g opacity=".297">
      <path fill="rgb(255,255,255)" fill-rule="evenodd" d="M12.60144043 228.19851685l7.70275879-7.84075928.01916504.01956177 1.91174316-1.94604493c1.02392578-1.0422058 1.01928711-2.73669433-.01037597-3.784729l-9.67175293-9.84506226c-1.0456543-1.0644226-2.73632813-1.06924438-3.77618409-.01074218-1.03985595 1.05847168-1.03509521 2.77941894.01055909 3.84384155l7.75109863 7.89004517-7.70269776 7.84078979c-1.04571533 1.06439209-1.05041503 2.78536987-.01055908 3.84384155 1.03979492 1.0585022 2.73046875 1.05368042 3.77624512-.01074218zm-8.08520508-3.9982605l3.8347168-3.90576172.0078125.00796509 1.88867187-1.92358399c1.01135254-1.03018188 1.00219727-2.70977783-.0205078-3.75149536l-5.72174073-5.82763672c-1.03875733-1.0579834-2.71356201-1.06747436-3.7407837-.02120971-1.0272827 1.04626464-1.01794433 2.7521057.020813 3.8100891l3.84576416 3.9169922-3.8347168 3.90576171c-1.03875733 1.0579834-1.0480957 2.76382447-.02081299 3.81008911 1.02722168 1.04626465 2.70202637 1.03677369 3.7407837-.02120971z"/>
    </g>
    <g opacity=".297">
      <path fill="rgb(255,255,255)" fill-rule="evenodd" d="M12.60144043 194.19851685l7.70275879-7.84075928.01916504.01956177 1.91174316-1.94604493c1.02392578-1.0422058 1.01928711-2.73669433-.01037597-3.784729l-9.67175293-9.84506226c-1.0456543-1.0644226-2.73632813-1.06924438-3.77618409-.01074218-1.03985595 1.05847168-1.03509521 2.77941894.01055909 3.84384155l7.75109863 7.89004517-7.70269776 7.84078979c-1.04571533 1.06439209-1.05041503 2.78536987-.01055908 3.84384155 1.03979492 1.0585022 2.73046875 1.05368042 3.77624512-.01074218zm-8.08520508-3.9982605l3.8347168-3.90576172.0078125.00796509 1.88867187-1.92358399c1.01135254-1.03018188 1.00219727-2.70977783-.0205078-3.75149536l-5.72174073-5.82763672c-1.03875733-1.0579834-2.71356201-1.06747436-3.7407837-.02120971-1.0272827 1.04626464-1.01794433 2.7521057.020813 3.8100891l3.84576416 3.9169922-3.8347168 3.90576171c-1.03875733 1.0579834-1.0480957 2.76382447-.02081299 3.81008911 1.02722168 1.04626465 2.70202637 1.03677369 3.7407837-.02120971z"/>
    </g>
    <g opacity=".297">
      <path fill="rgb(255,255,255)" fill-rule="evenodd" d="M12.60144043 160.19851685l7.70275879-7.84075928.01916504.01956177 1.91174316-1.94604493c1.02392578-1.0422058 1.01928711-2.73669433-.01037597-3.784729l-9.67175293-9.84506226c-1.0456543-1.0644226-2.73632813-1.06924438-3.77618409-.01074218-1.03985595 1.05847168-1.03509521 2.77941894.01055909 3.84384155l7.75109863 7.89004517-7.70269776 7.84078979c-1.04571533 1.06439209-1.05041503 2.78536987-.01055908 3.84384155 1.03979492 1.0585022 2.73046875 1.05368042 3.77624512-.01074218zm-8.08520508-3.9982605l3.8347168-3.90576172.0078125.00796509 1.88867187-1.92358399c1.01135254-1.03018188 1.00219727-2.70977783-.0205078-3.75149536l-5.72174073-5.82763672c-1.03875733-1.0579834-2.71356201-1.06747436-3.7407837-.02120971-1.0272827 1.04626464-1.01794433 2.7521057.020813 3.8100891l3.84576416 3.9169922-3.8347168 3.90576171c-1.03875733 1.0579834-1.0480957 2.76382447-.02081299 3.81008911 1.02722168 1.04626465 2.70202637 1.03677369 3.7407837-.02120971z"/>
    </g>
    <g opacity=".297">
      <path fill="rgb(255,255,255)" fill-rule="evenodd" d="M12.60144043 126.1985321l7.70275879-7.84077453.01916504.0195465 1.91174316-1.94604491c1.02392578-1.04220582 1.01928711-2.73667908-.01037597-3.784729l-9.67175293-9.84506226c-1.0456543-1.06442261-2.73632813-1.06922913-3.77618409-.0107422-1.03985595 1.05848695-1.03509521 2.77944947.01055909 3.84387208l7.75109863 7.8900299-7.70269776 7.84077454c-1.04571533 1.0644226-1.05041503 2.78538513-.01055908 3.84387207 1.03979492 1.05848694 2.73046875 1.05368042 3.77624512-.01074219zm-8.08520508-3.99827575l3.8347168-3.90574646.0078125.00794983 1.88867187-1.92358399c1.01135254-1.03018188 1.00219727-2.70977783-.0205078-3.7514801l-5.72174073-5.82765198c-1.03875733-1.0579834-2.71356201-1.06748962-3.7407837-.02120971-1.0272827 1.04626464-1.01794433 2.7521057.020813 3.8100891l3.84576416 3.91700745-3.8347168 3.90574646c-1.03875733 1.0579834-1.0480957 2.76382447-.02081299 3.81008911 1.02722168 1.04627991 2.70202637 1.03677369 3.7407837-.02120971z"/>
    </g>
    <g opacity=".297">
      <path fill="rgb(255,255,255)" fill-rule="evenodd" d="M12.60144043 92.1985321l7.70275879-7.84077453.01916504.0195465 1.91174316-1.94604491c1.02392578-1.04220582 1.01928711-2.73667908-.01037597-3.784729l-9.67175293-9.84506226c-1.0456543-1.06442261-2.73632813-1.06922913-3.77618409-.0107422-1.03985595 1.05848695-1.03509521 2.77944947.01055909 3.84387208l7.75109863 7.8900299-7.70269776 7.84077454c-1.04571533 1.0644226-1.05041503 2.78538513-.01055908 3.84387207 1.03979492 1.05848694 2.73046875 1.05368042 3.77624512-.01074219zm-8.08520508-3.99827575l3.8347168-3.90574646.0078125.00794983 1.88867187-1.92358399c1.01135254-1.03018188 1.00219727-2.70977783-.0205078-3.7514801l-5.72174073-5.82765198c-1.03875733-1.0579834-2.71356201-1.06748962-3.7407837-.02120971-1.0272827 1.04626464-1.01794433 2.7521057.020813 3.8100891l3.84576416 3.91700745-3.8347168 3.90574646c-1.03875733 1.0579834-1.0480957 2.76382447-.02081299 3.81008911 1.02722168 1.04627991 2.70202637 1.03677369 3.7407837-.02120971z"/>
    </g>
    <g opacity=".297">
      <path fill="rgb(255,255,255)" fill-rule="evenodd" d="M12.60144043 58.1985321l7.70275879-7.84077453.01916504.0195465 1.91174316-1.94604491c1.02392578-1.04220582 1.01928711-2.73667908-.01037597-3.784729l-9.67175293-9.84506226c-1.0456543-1.06442261-2.73632813-1.06922913-3.77618409-.0107422-1.03985595 1.05848695-1.03509521 2.77944947.01055909 3.84387208l7.75109863 7.8900299-7.70269776 7.84077454c-1.04571533 1.0644226-1.05041503 2.78538513-.01055908 3.84387207 1.03979492 1.05848694 2.73046875 1.05368042 3.77624512-.01074219zm-8.08520508-3.99827575l3.8347168-3.90574646.0078125.00794983 1.88867187-1.92358399c1.01135254-1.03018188 1.00219727-2.70977783-.0205078-3.7514801l-5.72174073-5.82765198c-1.03875733-1.0579834-2.71356201-1.06748962-3.7407837-.02120971-1.0272827 1.04626464-1.01794433 2.7521057.020813 3.8100891l3.84576416 3.91700745-3.8347168 3.90574646c-1.03875733 1.0579834-1.0480957 2.76382447-.02081299 3.81008911 1.02722168 1.04627991 2.70202637 1.03677369 3.7407837-.02120971z"/>
    </g>
    <g opacity=".297">
      <path fill="rgb(255,255,255)" fill-rule="evenodd" d="M12.60144043 24.1985321l7.70275879-7.84077453.01916504.0195465 1.91174316-1.94604491c1.02392578-1.04220582 1.01928711-2.73667908-.01037597-3.784729L12.55297852.8014679C11.50732422-.26294708 9.81665039-.2677536 8.77679443.79073334c-1.03985595 1.05848694-1.03509521 2.77944183.01055909 3.84386444l7.75109863 7.8900299-7.70269776 7.84077454c-1.04571533 1.0644226-1.05041503 2.78538513-.01055908 3.84387207 1.03979492 1.05848694 2.73046875 1.05368042 3.77624512-.01074219zm-8.08520508-3.99827575l3.8347168-3.90574646.0078125.00794983 1.88867187-1.92358399c1.01135254-1.03018188 1.00219727-2.70977783-.0205078-3.7514801L4.50518798 4.79974365c-1.03875733-1.0579834-2.71356201-1.06748962-3.7407837-.02120971-1.0272827 1.04626464-1.01794433 2.7521057.020813 3.8100891l3.84576416 3.91700745-3.8347168 3.90574646c-1.03875733 1.0579834-1.0480957 2.76382447-.02081299 3.81008911 1.02722168 1.04627991 2.70202637 1.03677369 3.7407837-.02120971z"/>
    </g>
  </g>
</svg>
