<?xml version="1.0" encoding="UTF-8"?>
<svg width="16px" height="21px" viewBox="0 0 16 21" version="1.1" xmlns="http://www.w3.org/2000/svg" xmlns:xlink="http://www.w3.org/1999/xlink">
    <title>Shape</title>
    <g id="Digital-ID-Cards-(SP-1202)" stroke="none" stroke-width="1" fill="none" fill-rule="evenodd">
        <g id="Artboard" transform="translate(-125.000000, -264.000000)" fill="#7083A0" fill-rule="nonzero">
            <g id="Group-5" transform="translate(98.000000, 207.000000)">
                <g id="Button" transform="translate(0.000000, 47.000000)">
                    <path d="M41.4,10 L28.6,10 C27.716,10 27,10.7228846 27,11.6153846 L27,29.3846154 C27,30.2771154 27.716,31 28.6,31 L41.4,31 C42.284,31 43,30.2771154 43,29.3846154 L43,11.6153846 C43,10.7228846 42.284,10 41.4,10 Z M36.6,27.7692308 L30.2,27.7692308 C29.7584,27.7692308 29.4,27.4073846 29.4,26.9615385 C29.4,26.5156923 29.7584,26.1538462 30.2,26.1538462 L36.6,26.1538462 C37.0416,26.1538462 37.4,26.5156923 37.4,26.9615385 C37.4,27.4073846 37.0416,27.7692308 36.6,27.7692308 Z M39.8,22.9230769 C40.2416,22.9230769 40.6,23.2849231 40.6,23.7307692 C40.6,24.1766154 40.2416,24.5384615 39.8,24.5384615 L30.2,24.5384615 C29.7584,24.5384615 29.4,24.1766154 29.4,23.7307692 C29.4,23.2849231 29.7584,22.9230769 30.2,22.9230769 L39.8,22.9230769 Z M33.399349,18.8173077 C34.173349,18.8173077 35.1218697,19.2648564 35.3915363,19.576491 C35.3918697,19.7124525 35.3925053,19.8395537 35.3928387,19.9596979 C34.8055053,20.3012845 34.1263333,20.5 33.4,20.5 C32.6733333,20.5 31.9941613,20.301621 31.4071615,19.9596979 L31.4071615,19.9596979 L31.4078125,19.576491 C31.6774792,19.2648564 32.6256823,18.8173077 33.399349,18.8173077 Z M33.4,12.4230769 C35.609,12.4230769 37.4,14.2312981 37.4,16.4615385 C37.4,17.6602885 36.8798697,18.7339199 36.058203,19.4732949 L36.058203,19.4732949 L36.058203,19.3753568 L36.011328,19.2964806 C35.6696613,18.7146056 34.3756823,18.1442308 33.399349,18.1442308 C32.4236823,18.1442308 31.1300208,18.7149421 30.7880208,19.2964806 L30.7880208,19.2964806 L30.7417969,19.3746995 L30.7417969,19.4732949 C29.9204635,18.7335833 29.4,17.6602885 29.4,16.4615385 C29.4,14.2312981 31.191,12.4230769 33.4,12.4230769 Z M33.4,14.4423077 C32.6646667,14.4423077 32.0666667,15.0460577 32.0666667,15.7884615 L32.0666667,15.7884615 L32.0666667,16.125 C32.0666667,16.8674038 32.6646667,17.4711538 33.4,17.4711538 C34.1353333,17.4711538 34.7333333,16.8674038 34.7333333,16.125 L34.7333333,16.125 L34.7333333,15.7884615 C34.7333333,15.0460577 34.1353333,14.4423077 33.4,14.4423077 Z M33.4,15.1153846 C33.7676667,15.1153846 34.0666667,15.4172596 34.0666667,15.7884615 L34.0666667,15.7884615 L34.0666667,16.125 C34.0666667,16.4962019 33.7676667,16.7980769 33.4,16.7980769 C33.0323333,16.7980769 32.7333333,16.4962019 32.7333333,16.125 L32.7333333,16.125 L32.7333333,15.7884615 C32.7333333,15.4172596 33.0323333,15.1153846 33.4,15.1153846 Z" id="Shape"></path>
                </g>
            </g>
        </g>
    </g>
</svg>