<?xml version="1.0" encoding="UTF-8"?>
<svg width="20px" height="20px" viewBox="0 0 20 20" version="1.1" xmlns="http://www.w3.org/2000/svg">
    <title>Shape</title>
    <g id="Web" stroke="none" stroke-width="1" fill="none" fill-rule="evenodd">
        <g id="Main" transform="translate(-2643.000000, -281.000000)" fill="#7F879D" fill-rule="nonzero">
            <g id="Group-5" transform="translate(2616.000000, 133.000000)">
                <g id="Group-4" transform="translate(-0.500000, 81.000000)">
                    <g id="Button" transform="translate(0.500000, 56.000000)">
                        <g id="icons8-below" transform="translate(27.000000, 11.000000)">
                            <path d="M10,0 C4.4775,0 0,4.4775 0,10 C0,15.5225 4.4775,20 10,20 C15.5225,20 20,15.5225 20,10 C20,4.4775 15.5225,0 10,0 Z M13.0891667,13.0891667 L10.5891667,15.5891667 C10.4266667,15.7516667 10.2133333,15.8333333 10,15.8333333 C9.78666667,15.8333333 9.57333333,15.7516667 9.41083333,15.5891667 L6.91083333,13.0891667 C6.6725,12.8508333 6.60083333,12.4925 6.73,12.1808333 C6.85916667,11.8691667 7.16333333,11.6666667 7.5,11.6666667 L9.16666667,11.6666667 L9.16666667,5 C9.16666667,4.53916667 9.54,4.16666667 10,4.16666667 C10.46,4.16666667 10.8333333,4.53916667 10.8333333,5 L10.8333333,11.6666667 L12.5,11.6666667 C12.8366667,11.6666667 13.1408333,11.8691667 13.27,12.1808333 C13.3991667,12.4925 13.3275,12.8508333 13.0891667,13.0891667 Z" id="Shape"></path>
                        </g>
                    </g>
                </g>
            </g>
        </g>
    </g>
</svg>
