<svg xmlns="http://www.w3.org/2000/svg" width="16" height="21" viewBox="0 0 16 21">
  <path fill="rgb(255,255,255)" fill-rule="evenodd" d="M1.6000061 0h12.80001831C15.28399658 0 16 .72286987 16 1.61538696v17.76922608C16 20.2770996 15.28399658 21 14.40002441 21H1.60000611C.7160034 21 0 20.2770996 0 19.38461304V1.61538696C0 .72286987.71600342 0 1.6000061 0zm3.1999817 7.26922607h6.4000244c.44158936 0 .7999878-.36184692.7999878-.80770874 0-.4458313-.35839844-.80767822-.7999878-.80767822H4.7999878C4.35839843 5.65383911 4 6.01568604 4 6.46151733c0 .44586182.35839844.80770874.7999878.80770874zm6.4000244 4.03848267H4.7999878C4.35839843 11.30770874 4 10.94586182 4 10.5c0-.4458313.35839844-.80767822.7999878-.80767822h6.4000244C11.64160157 9.69232178 12 10.0541687 12 10.5c0 .44586182-.35839844.80770874-.7999878.80770874zm-6.4000244 4.03845215h6.4000244c.44158936 0 .7999878-.36184693.7999878-.80770874 0-.4458313-.35839844-.80767822-.7999878-.80767822H4.7999878c-.44158936 0-.7999878.36184692-.7999878.80767822 0 .44586181.35839844.80770874.7999878.80770874z"/>
</svg>
