
<svg width="19px" height="11px" viewBox="0 0 19 11" version="1.1" xmlns="http://www.w3.org/2000/svg" xmlns:xlink="http://www.w3.org/1999/xlink">
  <g id="Email-notifications-(SP-1164)" stroke="none" stroke-width="1" fill="none" fill-rule="evenodd">
    <g id="Artboard" transform="translate(-4652.000000, -1940.000000)" fill="#7083A0" fill-rule="nonzero">
      <g id="Group-8" transform="translate(4234.000000, 1911.000000)">
        <path d="M435.663302,29.5002309 C435.44772,29.5053699 435.242887,29.5961948 435.093424,29.7529198 L427.498232,37.4108388 L419.90304,29.7529198 C419.749165,29.5934381 419.537872,29.5034629 419.317198,29.50345 C418.984618,29.5035381 418.685251,29.7067901 418.560104,30.0174709 C418.434956,30.3281517 418.508984,30.6843083 418.74732,30.918185 L426.920372,39.1587364 C427.239554,39.4804212 427.75691,39.4804212 428.076092,39.1587364 L436.249144,30.918185 C436.492081,30.6826459 436.566725,30.3209128 436.437122,30.0072244 C436.307518,29.6935359 436.000242,29.492214 435.663302,29.5002309 Z" id="Path" transform="translate(427.500000, 34.450000) scale(1, -1) translate(-427.500000, -34.450000) "></path>
      </g>
    </g>
  </g>
</svg>
