<svg width="19px" height="11px" viewBox="0 0 19 11" version="1.1" xmlns="http://www.w3.org/2000/svg"
     xmlns:xlink="http://www.w3.org/1999/xlink">
  <g id="Email-notifications-(SP-1164)" stroke="none" stroke-width="1" fill="none" fill-rule="evenodd">
    <g id="Artboard" transform="translate(-4377.000000, -638.000000)" fill="#7083A0" fill-rule="nonzero">
      <g id="Dropdown" transform="translate(3929.000000, 462.000000)">
        <g id="Group-8" transform="translate(28.000000, 144.000000)">
          <path
            d="M437.663302,32.5002309 C437.44772,32.5053699 437.242887,32.5961948 437.093424,32.7529198 L429.498232,40.4108388 L421.90304,32.7529198 C421.749165,32.5934381 421.537872,32.5034629 421.317198,32.50345 C420.984618,32.5035381 420.685251,32.7067901 420.560104,33.0174709 C420.434956,33.3281517 420.508984,33.6843083 420.74732,33.918185 L428.920372,42.1587364 C429.239554,42.4804212 429.75691,42.4804212 430.076092,42.1587364 L438.249144,33.918185 C438.492081,33.6826459 438.566725,33.3209128 438.437122,33.0072244 C438.307518,32.6935359 438.000242,32.492214 437.663302,32.5002309 Z"
            id="Path"></path>
        </g>
      </g>
    </g>
  </g>
</svg>
