<?xml version="1.0" encoding="UTF-8"?>
<svg width="18px" height="18px" viewBox="0 0 18 18" version="1.1" xmlns="http://www.w3.org/2000/svg">
    <title>Shape</title>
    <g id="Web" stroke="none" stroke-width="1" fill="none" fill-rule="evenodd">
        <g id="Main" transform="translate(-2644.000000, -361.000000)" fill="#7F879D" fill-rule="nonzero">
            <g id="Group-5" transform="translate(2616.000000, 133.000000)">
                <g id="Group-4" transform="translate(-0.500000, 81.000000)">
                    <g id="Button" transform="translate(0.500000, 136.000000)">
                        <g id="icons8-edit" transform="translate(28.009275, 11.000188)">
                            <path d="M15.7407251,5.9998125 L17.5512251,4.1893125 C18.1369751,3.6035625 18.1369751,2.6540625 17.5512251,2.0683125 L15.9222251,0.4393125 C15.3364751,-0.1464375 14.3869751,-0.1464375 13.8012251,0.4393125 L11.9907251,2.2498125 L15.7407251,5.9998125 Z M10.4907251,3.7498125 L1.6857251,12.5548125 C3.6552251,12.3200625 2.2632251,14.1995625 2.9907251,14.9998125 C3.6312251,15.7040625 5.6374751,14.4508125 5.4357251,16.3048125 L14.2407251,7.4998125 L10.4907251,3.7498125 Z M0.986725099,17.9578125 L0.975475099,17.9525625 C0.521725099,18.1130625 -0.169774901,17.7538125 0.0379750992,17.0150625 L0.0327250992,17.0038125 L0.740725099,14.9998125 L2.9907251,17.2498125 L0.986725099,17.9578125 Z" id="Shape"></path>
                        </g>
                    </g>
                </g>
            </g>
        </g>
    </g>
</svg>
