<?xml version="1.0" encoding="UTF-8"?>
<svg width="24px" height="21px" viewBox="0 0 24 21" version="1.1" xmlns="http://www.w3.org/2000/svg">
    <title>Shape</title>
    <g id="Web" stroke="none" stroke-width="1" fill="none" fill-rule="evenodd">
        <g id="Accounts" transform="translate(-811.000000, -454.000000)" fill="#FFFFFF" fill-rule="nonzero">
            <g id="Group-6" transform="translate(779.000000, 436.500000)">
                <g id="icons8-edit_image" transform="translate(32.000000, 17.500000)">
                    <path d="M1.7142742,0 C0.767137706,0 0,0.751799939 0,1.67999986 L0,15.1199988 C0,16.0481987 0.767137706,16.7999986 1.7142742,16.7999986 L13.004377,16.7999986 L15.5757883,14.2799988 L2.57141131,14.2799988 L2.57141131,8.39999932 L4.5334517,6.47718739 C5.34344627,5.68338662 6.65647316,5.68338662 7.46646815,6.47718739 L10.2622077,9.21703029 L12.1338471,11.0512491 C12.495559,11.4057291 13.0796045,11.402448 13.4413163,11.0479681 C13.8038853,10.6934881 13.8038853,10.1170381 13.4413163,9.76171817 L12.4535995,8.79538981 L13.1048223,8.15718726 C13.9148177,7.36338648 15.2278438,7.36338648 16.0378392,8.15718726 L18.9306769,10.992187 L22.2855647,7.70437437 L22.2855647,1.67999986 C22.2855647,0.751799939 21.5184269,0 20.5712904,0 L1.7142742,0 Z M17.9998791,2.5199998 C18.9470156,2.5199998 19.7141533,3.27179973 19.7141533,4.19999966 C19.7141533,5.12819958 18.9470156,5.87999952 17.9998791,5.87999952 C17.0527426,5.87999952 16.2856049,5.12819958 16.2856049,4.19999966 C16.2856049,3.27179973 17.0527426,2.5199998 17.9998791,2.5199998 Z M21.8536481,10.9199991 C21.590507,10.9199991 21.3280885,11.0183312 21.1270907,11.2153112 L20.4005325,11.927343 L22.9719438,14.4473428 L23.698502,13.735311 C24.1004993,13.341351 24.1004993,12.7035684 23.698502,12.3096085 L22.5818795,11.2153112 C22.3808809,11.0183312 22.1167892,10.9199991 21.8536481,10.9199991 Z M19.3709634,12.9363274 L15.2577098,16.9673426 L16.0277944,17.2199986 L16.2856049,18.4799985 L17.5713106,18.7326545 L17.8291211,19.4873424 L21.9423747,15.4563272 L19.3709634,12.9363274 Z M14.3068234,19.0607795 L13.7359572,20.6472638 C13.7353911,20.6483535 13.7348331,20.6494472 13.7342832,20.6505449 L13.7342832,20.6521862 C13.7213509,20.6823273 13.7145275,20.7146467 13.7141928,20.7473423 C13.7140153,20.8144043 13.7411201,20.8787699 13.7895077,20.9261901 C13.8378952,20.9736102 13.903574,21.0001731 13.9720042,20.9999992 C14.002899,20.9998962 14.0335222,20.9943387 14.0624056,20.9835923 L14.0640796,20.9835923 L15.6929752,20.4192173 L14.3068234,19.0607795 Z" id="Shape"></path>
                </g>
            </g>
        </g>
    </g>
</svg>
