<?xml version="1.0" encoding="UTF-8"?>
<svg width="73px" height="80px" viewBox="0 0 73 80" version="1.1" xmlns="http://www.w3.org/2000/svg">
    <title>Combined Shape</title>
    <g id="Web---Future" stroke="none" stroke-width="1" fill="none" fill-rule="evenodd">
        <g id="Teacher" transform="translate(-428.000000, -411.000000)" fill="#E0E5EA">
            <path d="M489.107582,479.317512 L489.107582,488.403891 L481.179303,491 L481.179303,479.317512 L489.107582,479.317512 Z M476.485602,424.77804 C482.550775,424.77804 487.467569,429.694835 487.467569,435.760008 L487.467,458.999 L468.611139,459 C467.596783,459 466.611264,459.323953 465.796727,459.921116 L465.596737,460.07607 C463.562064,461.740879 463.262231,464.739901 464.927039,466.774573 L464.927039,466.774573 L475.658,479.89 L452.497324,479.890202 C446.432151,479.890202 441.515357,474.973408 441.515357,468.908235 L441.515357,435.760008 C441.515357,429.694835 446.432151,424.77804 452.497324,424.77804 L476.485602,424.77804 Z M499.661389,463.74086 C500.137361,463.734665 500.580087,463.969433 500.820037,464.355391 C501.059988,464.741349 501.059988,465.218701 500.820037,465.604659 C500.580087,465.990617 500.137361,466.225385 499.661389,466.219066 L499.661389,466.219066 L498.604508,466.219066 L489.102883,477.37043 L481.184003,477.37043 L471.682378,466.219066 L470.625496,466.219066 C470.149524,466.225385 469.706799,465.990617 469.466848,465.604659 C469.226898,465.218701 469.226898,464.741349 469.466848,464.355391 C469.706799,463.969433 470.149524,463.734665 470.625496,463.74086 L470.625496,463.74086 Z M462.970245,411 C468.583281,411 473.212771,415.211058 473.871803,420.646262 L450.380711,420.646944 C443.245213,420.646944 437.46075,426.431408 437.46075,433.566905 L437.46075,433.566905 L437.460242,468.763193 C432.115276,468.022295 428,463.434636 428,457.885803 L428,421.981967 C428,415.916794 432.916794,411 438.981967,411 L462.970245,411 Z" id="Combined-Shape"></path>
        </g>
    </g>
</svg>
