<?xml version="1.0" encoding="UTF-8"?>
<svg width="38px" height="38px" viewBox="0 0 38 38" version="1.1" xmlns="http://www.w3.org/2000/svg" xmlns:xlink="http://www.w3.org/1999/xlink">
    <title>icons8-radar</title>
    <g id="Encounter-Detection-(SP-1175)" stroke="none" stroke-width="1" fill="none" fill-rule="evenodd">
        <g id="Passes" transform="translate(-266.000000, -55.000000)" fill="#FFFFFF" fill-rule="nonzero">
            <g id="icons8-radar" transform="translate(266.000000, 55.000000)">
                <path d="M19,0 C8.50725,0 0,8.50725 0,19 C0,29.49275 8.50725,38 19,38 C29.49275,38 38,29.49275 38,19 C38,14.3228333 36.3014047,10.049194 33.5004881,6.73844405 L31.2522782,8.98665357 C33.4863616,11.7194866 34.8333333,15.20475 34.8333333,19 C34.8333333,27.7305 27.7305,34.8333333 19,34.8333333 C16.2766667,34.8333333 13.7103066,34.1412932 11.4698899,32.9252932 C11.1215566,33.1263765 10.7239167,33.25 10.2916667,33.25 C8.98066667,33.25 7.91666667,32.186 7.91666667,30.875 C7.91666667,30.6929167 7.94051563,30.517192 7.97851562,30.346192 C5.01609896,27.4661087 3.16666667,23.4475833 3.16666667,19 C3.16666667,11.3366667 8.64064583,4.93092053 15.8828125,3.47900387 C16.1044792,2.3975872 17.0604167,1.58333333 18.2083333,1.58333333 C19.2675833,1.58333333 20.1571443,2.28138542 20.4627277,3.24088542 C23.689561,3.53855208 26.6383468,4.80180477 29.0133468,6.74772143 L31.2615566,4.49951176 C27.9523899,1.69701176 23.6771667,0 19,0 Z M20.4163407,4.82112634 C20.0711741,5.70462634 19.21375,6.33333333 18.2083333,6.33333333 C17.2915833,6.33333333 16.5043943,5.80845833 16.108561,5.046875 C9.63272782,6.386375 4.75,12.1330833 4.75,19 C4.75,22.89025 6.32027083,26.4202917 8.85677083,28.9947917 C9.25577083,28.6892083 9.75016667,28.5 10.2916667,28.5 C11.6026667,28.5 12.6666667,29.564 12.6666667,30.875 C12.6666667,31.1568333 12.6100625,31.4257767 12.5182292,31.6759434 C14.4657292,32.6766101 16.6645833,33.25 19,33.25 C26.8580833,33.25 33.25,26.8580833 33.25,19 C33.25,15.6401667 32.0757858,12.5537307 30.1235357,10.1153972 L26.7342128,13.5047202 C27.8409628,15.0579702 28.5,16.9511667 28.5,19 C28.5,21.80725 27.2698988,24.3261607 25.3271488,26.0662441 C25.3271488,26.0868274 25.3333333,26.1044167 25.3333333,26.125 C25.3333333,27.436 24.2693333,28.5 22.9583333,28.5 C22.4801667,28.5 22.0377738,28.3572767 21.6656905,28.1134434 C20.8186072,28.3620267 19.92625,28.5 19,28.5 C13.76075,28.5 9.5,24.23925 9.5,19 C9.5,13.76075 13.76075,9.5 19,9.5 C21.0488333,9.5 22.9420297,10.1590378 24.4952797,11.2657872 L27.8846027,7.87646488 C25.7930193,6.20288155 23.2251741,5.09979301 20.4163407,4.82112634 Z M19,11.0833333 C14.63475,11.0833333 11.0833333,14.63475 11.0833333,19 C11.0833333,23.36525 14.63475,26.9166667 19,26.9166667 C19.57475,26.9166667 20.1315893,26.8482857 20.6699227,26.731119 C20.6192544,26.5363706 20.5833333,26.3355833 20.5833333,26.125 C20.5833333,24.814 21.6473333,23.75 22.9583333,23.75 C23.6375833,23.75 24.2454852,24.0392797 24.6777352,24.4952797 C26.0584002,23.0702797 26.9166667,21.1359167 26.9166667,19 C26.9166667,17.38975 26.4289509,15.8920655 25.5992842,14.6396488 L22.0491532,18.1897782 C22.1172366,18.4510282 22.1666667,18.7181667 22.1666667,19 C22.1666667,20.7495833 20.7495833,22.1666667 19,22.1666667 C17.2504167,22.1666667 15.8333333,20.7495833 15.8333333,19 C15.8333333,17.2504167 17.2504167,15.8333333 19,15.8333333 C19.2818333,15.8333333 19.5489717,15.8827634 19.8102217,15.9508467 L23.3603512,12.4007157 C22.1079345,11.5710491 20.61025,11.0833333 19,11.0833333 Z" id="Shape"></path>
            </g>
        </g>
    </g>
</svg>