<?xml version="1.0" encoding="UTF-8"?>
<svg width="150px" height="150px" viewBox="0 0 150 150" version="1.1" xmlns="http://www.w3.org/2000/svg" xmlns:xlink="http://www.w3.org/1999/xlink">
    <!-- Generator: Sketch 53.2 (72643) - https://sketchapp.com -->
    <title>Expired (White)</title>
    <desc>Created with Sketch.</desc>
    <g id="Expired-(White)" stroke="none" stroke-width="1" fill="none" fill-rule="evenodd">
        <g id="icons8-time_search" fill="#FFFFFF" fill-rule="nonzero">
            <path d="M66.6659728,0 C29.8496893,0 0,29.85 0,66.6666667 C0,103.483333 29.8496893,133.333333 66.6659728,133.333333 C68.6381745,133.333333 70.5758266,133.207033 72.5035843,133.040367 C68.8091783,126.562589 66.6659728,119.088889 66.6659728,111.111111 C66.6659728,86.6055556 86.6046542,66.6666667 111.109955,66.6666667 C119.087649,66.6666667 126.561272,68.8098944 133.038982,72.5043389 C133.205647,70.5765611 133.331946,68.6388889 133.331946,66.6666667 C133.331946,29.85 103.482256,0 66.6659728,0 Z M66.6334232,11.1111111 L66.6985225,11.1111111 C69.7484908,11.1111111 72.2214706,13.5785589 72.2214706,16.6341144 L72.2214706,72.2222222 L27.7449368,72.2222222 C24.689413,72.2222222 22.2219909,69.7547722 22.2219909,66.6992167 L22.2219909,66.6341167 C22.2219909,63.5841167 24.689413,61.1111111 27.7449368,61.1111111 L61.1104751,61.1111111 L61.1104751,16.6341144 C61.1104751,13.5785589 63.5778994,11.1111111 66.6334232,11.1111111 Z M111.109955,77.7777778 C92.7268127,77.7777778 77.7769683,92.7277778 77.7769683,111.111111 C77.7769683,129.494444 92.7268127,144.444444 111.109955,144.444444 C118.298769,144.444444 124.941494,142.132033 130.391437,138.2487 L140.515032,148.372394 C141.598354,149.455728 143.020734,150 144.442941,150 C145.865149,150 147.287528,149.455728 148.37085,148.372394 C150.54305,146.200172 150.54305,142.683161 148.37085,140.516494 L138.247261,130.392794 C142.130554,124.942794 144.442941,118.3 144.442941,111.111111 C144.442941,92.7277778 129.493097,77.7777778 111.109955,77.7777778 Z M111.109955,88.8888889 C123.365383,88.8888889 133.331946,98.8555556 133.331946,111.111111 C133.331946,123.366667 123.365383,133.333333 111.109955,133.333333 C98.8545267,133.333333 88.8879638,123.366667 88.8879638,111.111111 C88.8879638,98.8555556 98.8545267,88.8888889 111.109955,88.8888889 Z" id="Shape"></path>
        </g>
    </g>
</svg>