<?xml version="1.0" encoding="UTF-8"?>
<svg width="150px" height="150px" viewBox="0 0 150 150" version="1.1" xmlns="http://www.w3.org/2000/svg" xmlns:xlink="http://www.w3.org/1999/xlink">
    <!-- Generator: Sketch 53.2 (72643) - https://sketchapp.com -->
    <title>External Link (Blue-Gray)</title>
    <desc>Created with Sketch.</desc>
    <g id="External-Link-(Blue-Gray)" stroke="none" stroke-width="1" fill="none" fill-rule="evenodd">
        <g id="icons8-external_link" fill="#7F879D" fill-rule="nonzero">
            <path d="M143.292074,0.00272060205 C143.049158,0.0103975706 142.806862,0.0316509141 142.56632,0.0663811129 L104.305017,0.0663811129 C101.954008,0.0331330751 99.767218,1.26829656 98.5820108,3.29890332 C97.3968036,5.32951008 97.3968036,7.84095813 98.5820108,9.87156489 C99.767218,11.9021717 101.954008,13.1373351 104.305017,13.1040871 L127.681974,13.1040871 L60.5814554,80.2024389 C58.87841,81.8374753 58.1923774,84.2654248 58.7879384,86.5499051 C59.3834993,88.8343853 61.1675902,90.6184186 63.4521442,91.2139603 C65.7366983,91.809502 68.1647262,91.1234915 69.7998154,89.4205012 L136.900334,22.3221527 L136.900334,45.6983521 C136.867085,48.0492846 138.102289,50.2360042 140.132961,51.4211731 C142.163633,52.606342 144.675162,52.606342 146.705835,51.4211731 C148.736507,50.2360042 149.97171,48.0492846 149.938461,45.6983521 L149.938461,7.4128227 C150.201244,5.51315324 149.614275,3.59414235 148.333763,2.16649077 C147.053251,0.738839189 145.209095,-0.0526277972 143.292074,0.00272060205 Z M13.0381271,26.1417931 C5.91238123,26.1417931 0,32.0539834 0,39.1794991 L0,136.962294 C0,144.087811 5.91238123,150 13.0381271,150 L110.82408,150 C117.949827,150 123.862207,144.087811 123.862207,136.962294 L123.862207,71.7737641 L123.862207,54.9673462 L110.82408,68.0050522 L110.82408,84.81147 L110.82408,136.962294 L13.0381271,136.962294 L13.0381271,39.1794991 L65.1906354,39.1794991 L78.2287625,39.1794991 L81.9975961,39.1794991 L95.0357231,26.1417931 L78.2287625,26.1417931 L65.1906354,26.1417931 L13.0381271,26.1417931 Z" id="Shape"></path>
        </g>
    </g>
</svg>