<svg width="22" height="22" viewBox="0 0 22 22" fill="none" xmlns="http://www.w3.org/2000/svg">
<path fill-rule="evenodd" clip-rule="evenodd" d="M1.25182 0L0.214844 1.03698L20.7482 21.5703L21.7852 20.5333L17.3665 16.1147C20.3701 14.081 21.8527 11.2374 21.8725 11.1991C21.9557 11.0771 22.0002 10.9328 22 10.7852C21.9999 10.6197 21.9439 10.4592 21.841 10.3297C21.7646 10.2067 17.5401 3.45182 11 3.45182C9.14456 3.45182 7.47951 4.00196 6.03854 4.78672L1.25182 0ZM11 5.65182C13.8351 5.65182 16.1333 7.95009 16.1333 10.7852C16.1333 11.9379 15.7447 12.9946 15.1021 13.8503L12.9809 11.729C13.1191 11.4436 13.2 11.1246 13.2 10.7852C13.2 9.57002 12.2151 8.58516 11 8.58516C10.6606 8.58516 10.3416 8.66608 10.0561 8.8043L7.9349 6.68307C8.79058 6.04046 9.84723 5.65182 11 5.65182ZM0.160417 10.3283C0.201653 10.2623 1.45138 8.27431 3.63086 6.44102L6.1918 9.00195C5.985 9.55855 5.86667 10.1574 5.86667 10.7852C5.86667 13.6202 8.16493 15.9185 11 15.9185C11.6277 15.9185 12.2266 15.8002 12.7832 15.5934L14.681 17.4926C13.5817 17.879 12.3567 18.1185 11 18.1185C3.68048 18.1185 0.134353 11.2151 0.121745 11.1891L0.11888 11.1848C0.041426 11.0659 0.000130096 10.9271 0 10.7852C0.000194655 10.6191 0.056752 10.458 0.160417 10.3283Z" fill="#7F879D"/>
</svg>
