<?xml version="1.0" encoding="UTF-8" standalone="no"?>
<svg
   width="26"
   height="26"
   viewBox="0 0 26 26"
   fill="none"
   version="1.1"
   id="svg4"
   xmlns="http://www.w3.org/2000/svg"
   xmlns:svg="http://www.w3.org/2000/svg">
  <defs
     id="defs8" />
  <path
     id="rect343"
     style="fill:#00b476;stroke:none;stroke-width:0;stroke-linejoin:round;paint-order:markers stroke fill;stop-color:#000000;stroke-dasharray:none;fill-opacity:1"
     d="m 5.9861059,0.0042837 c -2.920672,-0.01664 -5.60598502,2.3601447 -5.92144102,5.2687663 -0.12762,2.3680526 -0.0207,4.747258 -0.05589,7.119608 0.02734,2.747385 -0.05527,5.498873 0.0423,8.243685 0.278764,2.907138 2.91732602,5.329951 5.83783902,5.352877 4.8571211,-5.54e-4 9.7163311,0.03372 14.5727421,-0.01717 2.913347,-0.196165 5.415607,-2.763139 5.518969,-5.684771 0.02263,-4.883176 0.03022,-9.769049 -0.0037,-14.6520697 C 25.83406,2.6833353 23.242605,0.1207232 20.288686,0.017701 15.522023,-0.016404 10.753396,0.010401 5.9861769,0.004289 Z" />
  <path
     fill-rule="evenodd"
     clip-rule="evenodd"
     d="M 13,5.5 C 6.45992,5.5 2.235391,11.94783 2.158984,12.06523 2.0561392,12.18889 2.0001112,12.34211 2,12.5 c 1.301e-4,0.13545 0.041426,0.26795 0.11888,0.38145 l 0.00287,0.0041 C 2.134353,12.91038 5.68048,19.5 13,19.5 c 7.2885,0 10.8294,-6.52488 10.8725,-6.60488 l 0.0086,-0.01367 C 23.9586,12.76795 23.9999,12.63545 24,12.5 24,12.34274 23.9445,12.19007 23.8424,12.0666 L 23.841,12.06523 C 23.7646,11.94783 19.5401,5.5 13,5.5 Z m 0,2.1 c 2.8351,0 5.1333,2.1938 5.1333,4.9 0,2.7062 -2.2982,4.9 -5.1333,4.9 -2.83507,0 -5.13333,-2.1938 -5.13333,-4.9 0,-2.7062 2.29826,-4.9 5.13333,-4.9 z m -2.2,4.9 c 0,-1.1598 0.98497,-2.1 2.2,-2.1 1.215,0 2.2,0.9402 2.2,2.1 0,1.1598 -0.985,2.1 -2.2,2.1 -1.21503,0 -2.2,-0.9402 -2.2,-2.1 z"
     fill="#7f879d"
     id="path2"
     style="fill:#ffffff" />
</svg>
