<svg width="22" height="14" viewBox="0 0 22 14" fill="none" xmlns="http://www.w3.org/2000/svg">
<path fill-rule="evenodd" clip-rule="evenodd" d="M11 0C4.45992 0 0.235391 6.44783 0.158984 6.56523C0.0561392 6.68889 0.00011119 6.84211 0 7C0.000130096 7.13545 0.041426 7.26795 0.11888 7.38145L0.121745 7.38555C0.134353 7.41038 3.68048 14 11 14C18.2885 14 21.8294 7.47512 21.8725 7.39512L21.8811 7.38145C21.9586 7.26795 21.9999 7.13545 22 7C22 6.84274 21.9445 6.69007 21.8424 6.5666L21.841 6.56523C21.7646 6.44783 17.5401 0 11 0ZM11 2.1C13.8351 2.1 16.1333 4.2938 16.1333 7C16.1333 9.7062 13.8351 11.9 11 11.9C8.16493 11.9 5.86667 9.7062 5.86667 7C5.86667 4.2938 8.16493 2.1 11 2.1ZM8.8 7C8.8 5.8402 9.78497 4.9 11 4.9C12.215 4.9 13.2 5.8402 13.2 7C13.2 8.1598 12.215 9.1 11 9.1C9.78497 9.1 8.8 8.1598 8.8 7Z" fill="#7F879D"/>
</svg>
