<svg width="20" height="20" viewBox="0 0 20 20" fill="none" xmlns="http://www.w3.org/2000/svg">
<rect width="20" height="20" rx="5" fill="#07ABC3"/>
<path d="M10 4C6.6865 4 4 6.6865 4 10C4 13.3135 6.6865 16 10 16C13.3135 16 16 13.3135 16 10C16 6.6865 13.3135 4 10 4ZM10 15C8.169 15 7 14 7 14C7 12.4375 9.049 12.6955 9.375 11.813V11.5C8.1945 11.5 7.527 10.911 7.527 10.911C8.144 10.3975 7.2895 6.826 9.3905 6.826C9.3905 6.826 9.6335 6.5 10 6.5C12.568 6.5 11.762 10.378 12.4265 10.923C12.4265 10.923 11.8115 11.5 10.625 11.5V11.813C10.951 12.6955 13 12.4375 13 14C13 14 11.831 15 10 15Z" fill="white"/>
</svg>
