<svg width="44" height="37" viewBox="0 0 44 37" fill="none" xmlns="http://www.w3.org/2000/svg">
<path fill-rule="evenodd" clip-rule="evenodd" d="M3.38462 0C1.51462 0 0 1.50523 0 3.36364V8.40909V33.6364C0 35.4948 1.51462 37 3.38462 37H40.6154C42.4854 37 44 35.4948 44 33.6364V6.72727C44 4.86886 42.4854 3.36364 40.6154 3.36364H15.5679L14.5234 1.63255C13.9125 0.620092 12.8111 0 11.6214 0H3.38462ZM30.7083 9.92683C32.4809 9.92683 33.9167 11.3403 33.9167 13.0854C33.9167 14.8305 32.4809 16.2439 30.7083 16.2439C28.9357 16.2439 27.5 14.8305 27.5 13.0854C27.5 11.3403 28.9357 9.92683 30.7083 9.92683ZM16.4274 20.1509C15.6162 19.3512 14.5512 18.9512 13.4881 18.9512C12.425 18.9512 11.3633 19.3512 10.5522 20.1509L10.0833 20.6131V30.6829H33.9167V27.3263L28.344 21.8292C26.8698 20.3758 24.5705 20.2576 22.9443 21.4457L24.8628 23.3338C25.5829 24.0437 25.5829 25.1955 24.8628 25.9037C24.1444 26.6119 22.9844 26.6185 22.266 25.9103L20.2976 23.9697L18.5487 22.2455L16.4274 20.1509Z" fill="#07ABC3"/>
</svg>
