<svg width="9" height="16" viewBox="0 0 9 16" fill="none" xmlns="http://www.w3.org/2000/svg">
<path d="M8.16689 7.83257C8.16413 7.65939 8.09408 7.49408 7.97158 7.37164L1.30491 0.704971C1.24348 0.640989 1.1699 0.589907 1.08848 0.554717C1.00706 0.519527 0.919439 0.500937 0.830745 0.500035C0.742052 0.499132 0.65407 0.515936 0.571952 0.549462C0.489833 0.582988 0.41523 0.632563 0.352511 0.695282C0.289792 0.758001 0.240217 0.832604 0.20669 0.914722C0.173164 0.996841 0.156361 1.08482 0.157263 1.17352C0.158166 1.26221 0.176756 1.34983 0.211946 1.43125C0.247136 1.51267 0.298218 1.58625 0.362201 1.64768L6.55751 7.84299L0.362202 14.0383C0.298219 14.0997 0.247137 14.1733 0.211946 14.2547C0.176756 14.3362 0.158164 14.4238 0.157261 14.5125C0.156358 14.6012 0.173163 14.6891 0.206689 14.7713C0.240215 14.8534 0.28979 14.928 0.352509 14.9907C0.415229 15.0534 0.489832 15.103 0.571951 15.1365C0.654069 15.1701 0.742052 15.1869 0.830746 15.186C0.91944 15.1851 1.00706 15.1665 1.08848 15.1313C1.1699 15.0961 1.24348 15.045 1.30491 14.981L7.97158 8.31435C8.03474 8.25121 8.08457 8.17604 8.11812 8.09328C8.15167 8.01052 8.16826 7.92186 8.16689 7.83257Z" fill="#101418"/>
</svg>
