<?xml version="1.0" encoding="UTF-8"?>
<svg width="31px" height="30px" viewBox="0 0 31 30" version="1.1" xmlns="http://www.w3.org/2000/svg">
  <!-- Generator: Sketch 62 (91390) - https://sketch.com -->
  <title>GG4L Icon</title>
  <desc>Created with Sketch.</desc>
  <g id="Web---Future" stroke="none" stroke-width="1" fill="none" fill-rule="evenodd">
    <g id="Accounts" transform="translate(-876.000000, -317.000000)" fill="#FFFFFF" fill-rule="nonzero">
      <g id="Group" transform="translate(837.000000, 287.000000)">
        <g id="GG4L-Icon" transform="translate(39.000000, 30.000000)">
          <g id="Group-3">
            <path d="M29.7295082,18.3 C29.6278689,18.3 29.5262295,18.2 29.5262295,18.1 C29.5262295,18 29.6278689,17.85 29.7295082,17.85 C29.8311475,17.85 29.9836066,17.95 29.9836066,18.1 C29.9327869,18.2 29.8311475,18.3 29.7295082,18.3 L29.7295082,18.3 Z M29.3737705,19.75 C29.2721311,19.75 29.1704918,19.65 29.1704918,19.55 C29.1704918,19.45 29.2721311,19.3 29.3737705,19.3 C29.4754098,19.3 29.6278689,19.4 29.5770492,19.55 C29.6278689,19.65 29.5262295,19.75 29.3737705,19.75 L29.3737705,19.75 Z M28.9672131,21.1 C28.8655738,21.1 28.7639344,21 28.7639344,20.85 C28.7639344,20.75 28.8655738,20.65 29.0180328,20.65 C29.1196721,20.65 29.2213115,20.75 29.2213115,20.85 C29.2213115,21 29.0688525,21.1 28.9672131,21.1 L28.9672131,21.1 Z M28.7131148,20.2 C28.6114754,20.2 28.5098361,20.1 28.5098361,20 C28.5098361,19.9 28.6114754,19.75 28.7131148,19.75 C28.8147541,19.75 28.9163934,19.85 28.9672131,19.95 C28.9163934,20.1 28.8147541,20.2 28.7131148,20.2 L28.7131148,20.2 Z M28.2557377,21.65 C28.1540984,21.65 28.052459,21.55 28.052459,21.45 C28.052459,21.35 28.1540984,21.2 28.2557377,21.2 C28.357377,21.2 28.5098361,21.3 28.4590164,21.45 C28.5098361,21.5 28.357377,21.65 28.2557377,21.65 L28.2557377,21.65 Z M27.7983607,20.65 C27.6967213,20.65 27.595082,20.55 27.595082,20.45 C27.595082,20.35 27.6967213,20.2 27.7983607,20.2 C27.9,20.2 28.052459,20.3 28.052459,20.4 C28.052459,20.5 27.9508197,20.65 27.7983607,20.65 L27.7983607,20.65 Z M27.747541,22.9 C27.6459016,22.9 27.5442623,22.8 27.5442623,22.65 C27.5442623,22.55 27.6459016,22.45 27.747541,22.45 C27.8491803,22.45 28.0016393,22.55 28.0016393,22.65 C27.9508197,22.8 27.8491803,22.9 27.747541,22.9 L27.747541,22.9 Z M27.3409836,22.15 C27.2393443,22.15 27.1377049,22.05 27.1377049,21.95 C27.1377049,21.85 27.2393443,21.7 27.3409836,21.7 C27.442623,21.7 27.5442623,21.8 27.5442623,21.95 C27.5442623,22.05 27.442623,22.15 27.3409836,22.15 L27.3409836,22.15 Z M27.0360656,19.3 C26.9344262,19.3 26.7819672,19.2 26.7819672,19.1 C26.7819672,19 26.8836066,18.85 27.0360656,18.9 C27.1377049,18.9 27.2393443,19 27.2393443,19.1 C27.2393443,19.2 27.1885246,19.3 27.0360656,19.3 L27.0360656,19.3 Z M26.7819672,23.5 C26.6803279,23.5 26.5278689,23.4 26.5786885,23.3 C26.5786885,23.2 26.6803279,23.1 26.7819672,23.1 C26.8836066,23.1 27.0360656,23.2 26.9852459,23.35 C27.0360656,23.4 26.9344262,23.5 26.7819672,23.5 L26.7819672,23.5 Z M26.4262295,20.9 C26.4262295,20.8 26.5278689,20.65 26.6295082,20.65 C26.7311475,20.65 26.8836066,20.75 26.8836066,20.85 C26.8836066,20.95 26.7819672,21.05 26.6803279,21.1 C26.5278689,21.1 26.4262295,21 26.4262295,20.9 L26.4262295,20.9 Z M26.2229508,24.65 C26.1213115,24.65 25.9688525,24.55 26.0196721,24.4 C26.0196721,24.3 26.1213115,24.2 26.2737705,24.2 C26.3754098,24.2 26.4770492,24.3 26.4770492,24.45 C26.4262295,24.55 26.3245902,24.65 26.2229508,24.65 L26.2229508,24.65 Z M25.9180328,22.5 C25.9180328,22.4 26.0196721,22.3 26.1721311,22.3 C26.2737705,22.3 26.3754098,22.4 26.3754098,22.55 C26.3754098,22.65 26.2737705,22.75 26.1213115,22.75 C26.0196721,22.7 25.9180328,22.6 25.9180328,22.5 L25.9180328,22.5 Z M25.8672131,17.55 C25.7655738,17.55 25.6639344,17.45 25.6639344,17.35 C25.6639344,17.25 25.7655738,17.1 25.8672131,17.1 C25.9688525,17.1 26.0704918,17.2 26.0704918,17.35 C26.0704918,17.45 25.9688525,17.55 25.8672131,17.55 L25.8672131,17.55 Z M25.6131148,24.1 C25.5114754,24.1 25.3590164,24 25.3590164,23.85 C25.3590164,23.75 25.4606557,23.65 25.5622951,23.65 C25.6639344,23.65 25.8163934,23.75 25.8163934,23.85 C25.8163934,24 25.7147541,24.1 25.6131148,24.1 L25.6131148,24.1 Z M25.1557377,21.6 C25.0540984,21.6 24.952459,21.5 24.952459,21.4 C24.952459,21.3 25.0540984,21.2 25.1557377,21.2 C25.257377,21.2 25.4098361,21.3 25.4098361,21.4 C25.4098361,21.5 25.3081967,21.6 25.1557377,21.6 L25.1557377,21.6 Z M25.0540984,25.25 C24.952459,25.25 24.8,25.15 24.8508197,25 C24.8508197,24.9 24.952459,24.8 25.0540984,24.8 C25.1557377,24.8 25.3081967,24.9 25.3081967,25 C25.257377,25.15 25.1557377,25.25 25.0540984,25.25 L25.0540984,25.25 Z M24.6983607,23.25 C24.5967213,23.25 24.495082,23.15 24.495082,23 C24.495082,22.9 24.5967213,22.8 24.7491803,22.8 C24.8508197,22.8 24.952459,22.9 24.952459,23 C24.9016393,23.15 24.8,23.25 24.6983607,23.25 L24.6983607,23.25 Z M24.495082,26.2 C24.3934426,26.2 24.2918033,26.1 24.2918033,26 C24.2918033,25.9 24.3934426,25.75 24.495082,25.75 C24.5967213,25.75 24.6983607,25.85 24.6983607,26 C24.6983607,26.1 24.5967213,26.2 24.495082,26.2 L24.495082,26.2 Z M23.9360656,27 C23.8344262,27 23.7327869,26.9 23.7327869,26.75 C23.7327869,26.65 23.8344262,26.55 23.9868852,26.55 C24.0885246,26.55 24.1901639,26.65 24.1901639,26.75 C24.1393443,26.9 24.0377049,27 23.9360656,27 L23.9360656,27 Z M23.6311475,25.85 C23.5295082,25.85 23.4278689,25.75 23.4278689,25.6 C23.4278689,25.5 23.5295082,25.4 23.6311475,25.4 C23.7327869,25.4 23.8852459,25.5 23.8344262,25.65 C23.8852459,25.75 23.7327869,25.85 23.6311475,25.85 L23.6311475,25.85 Z M23.1229508,21.85 C23.1229508,21.75 23.2245902,21.6 23.3262295,21.6 C23.4278689,21.6 23.5295082,21.7 23.5803279,21.8 C23.5803279,21.9 23.4786885,22.05 23.3770492,22.05 C23.2245902,22.05 23.1229508,21.95 23.1229508,21.85 L23.1229508,21.85 Z M23.1229508,26.8 C23.0213115,26.8 22.9196721,26.7 22.9196721,26.6 C22.9196721,26.5 23.0213115,26.35 23.1229508,26.35 C23.2245902,26.35 23.3262295,26.45 23.3262295,26.6 C23.3262295,26.7 23.2245902,26.8 23.1229508,26.8 L23.1229508,26.8 Z M22.6655738,23.55 C22.6655738,23.45 22.7672131,23.35 22.8688525,23.35 C22.9704918,23.35 23.0721311,23.45 23.0721311,23.6 C23.0721311,23.7 22.9704918,23.8 22.8688525,23.8 C22.7672131,23.75 22.6655738,23.65 22.6655738,23.55 L22.6655738,23.55 Z M22.6147541,27.55 C22.5131148,27.55 22.3606557,27.45 22.3606557,27.3 C22.3606557,27.2 22.4622951,27.1 22.5639344,27.1 C22.6655738,27.1 22.8180328,27.2 22.8180328,27.3 C22.8180328,27.45 22.7163934,27.55 22.6147541,27.55 L22.6147541,27.55 Z M22.2081967,25 C22.2081967,24.9 22.3098361,24.75 22.4114754,24.75 C22.5131148,24.75 22.6147541,24.85 22.6147541,24.95 C22.6147541,25.05 22.5131148,25.2 22.4114754,25.2 C22.3098361,25.2 22.2081967,25.1 22.2081967,25 L22.2081967,25 Z M22.004918,26.4 C21.9032787,26.4 21.7508197,26.3 21.7508197,26.15 C21.7508197,26.05 21.852459,25.95 21.9540984,25.95 C22.0557377,25.95 22.2081967,26.05 22.2081967,26.15 C22.2081967,26.25 22.1065574,26.4 22.004918,26.4 L22.004918,26.4 Z M21.547541,27.3 C21.4459016,27.3 21.3442623,27.2 21.3442623,27.05 C21.3442623,26.95 21.4459016,26.85 21.5983607,26.85 C21.7,26.85 21.8016393,26.95 21.8016393,27.05 C21.7508197,27.2 21.6491803,27.3 21.547541,27.3 L21.547541,27.3 Z M21.0901639,28.05 C20.9885246,28.05 20.8360656,27.95 20.8868852,27.8 C20.8868852,27.7 20.9885246,27.6 21.1409836,27.6 C21.242623,27.6 21.3442623,27.7 21.3442623,27.8 C21.3442623,27.95 21.242623,28.05 21.0901639,28.05 L21.0901639,28.05 Z M20.6836066,28.6 C20.5819672,28.6 20.4295082,28.5 20.4803279,28.35 C20.4803279,28.25 20.5819672,28.15 20.6836066,28.15 C20.7852459,28.15 20.8868852,28.25 20.8868852,28.35 C20.9377049,28.5 20.8360656,28.6 20.6836066,28.6 L20.6836066,28.6 Z M20.4295082,25.65 C20.3278689,25.65 20.2262295,25.55 20.2262295,25.4 C20.2262295,25.3 20.3278689,25.2 20.4803279,25.2 C20.5819672,25.2 20.6836066,25.3 20.6836066,25.45 C20.6836066,25.55 20.5819672,25.65 20.4295082,25.65 L20.4295082,25.65 Z M20.0737705,26.8 C19.9721311,26.8 19.8704918,26.7 19.8704918,26.6 C19.8704918,26.5 19.9721311,26.35 20.0737705,26.35 C20.1754098,26.35 20.3278689,26.45 20.3278689,26.55 C20.3278689,26.7 20.2262295,26.8 20.0737705,26.8 L20.0737705,26.8 Z M19.7688525,27.75 C19.6672131,27.75 19.5655738,27.65 19.5655738,27.5 C19.5655738,27.4 19.6672131,27.3 19.7688525,27.3 C19.8704918,27.3 20.0229508,27.4 19.9721311,27.55 C19.9721311,27.65 19.8704918,27.75 19.7688525,27.75 L19.7688525,27.75 Z M19.4639344,28.45 C19.3622951,28.45 19.2098361,28.35 19.2098361,28.25 C19.2098361,28.15 19.3114754,28 19.4131148,28 C19.5147541,28 19.6163934,28.1 19.6163934,28.25 C19.6672131,28.35 19.5655738,28.45 19.4639344,28.45 L19.4639344,28.45 Z M18.9557377,20.75 C18.8540984,20.75 18.752459,20.65 18.752459,20.5 C18.752459,20.4 18.8540984,20.3 19.0065574,20.3 C19.1081967,20.3 19.2098361,20.4 19.2098361,20.5 C19.1590164,20.65 19.057377,20.75 18.9557377,20.75 L18.9557377,20.75 Z M18.7016393,22.85 C18.6,22.85 18.4983607,22.75 18.4983607,22.65 C18.4983607,22.55 18.6,22.45 18.7016393,22.45 C18.8032787,22.45 18.9557377,22.55 18.9557377,22.65 C18.9557377,22.7 18.8540984,22.85 18.7016393,22.85 L18.7016393,22.85 Z M18.447541,24.55 C18.3459016,24.55 18.2442623,24.45 18.2442623,24.3 C18.2442623,24.2 18.3459016,24.1 18.4983607,24.1 C18.6,24.1 18.7016393,24.2 18.7016393,24.35 C18.7016393,24.45 18.5491803,24.55 18.447541,24.55 L18.447541,24.55 Z M18.2442623,25.95 C18.142623,25.95 18.0409836,25.85 18.0409836,25.7 C18.0409836,25.6 18.142623,25.5 18.2442623,25.5 C18.3459016,25.5 18.447541,25.6 18.447541,25.75 C18.447541,25.85 18.3459016,26 18.2442623,25.95 L18.2442623,25.95 Z M18.0409836,27.1 C17.9393443,27.1 17.8377049,27 17.8377049,26.85 C17.8377049,26.75 17.9393443,26.65 18.0918033,26.65 C18.1934426,26.65 18.295082,26.8 18.295082,26.9 C18.2442623,27.05 18.142623,27.1 18.0409836,27.1 L18.0409836,27.1 Z M17.8377049,28 C17.7360656,28 17.6344262,27.9 17.6344262,27.8 C17.6344262,27.7 17.7360656,27.6 17.8377049,27.6 C17.9393443,27.6 18.0918033,27.7 18.0409836,27.85 C18.0409836,27.9 17.9393443,28 17.8377049,28 L17.8377049,28 Z M17.6344262,28.7 C17.5327869,28.7 17.4311475,28.6 17.4311475,28.5 C17.4311475,28.4 17.5327869,28.25 17.6852459,28.25 C17.7868852,28.25 17.8885246,28.35 17.8885246,28.5 C17.8885246,28.6 17.7868852,28.7 17.6344262,28.7 L17.6344262,28.7 Z M17.2278689,18.2 L17.2278689,17.4 L19.3622951,10.45 L20.5311475,10.45 L20.5311475,17.3 L21.3442623,17.3 L21.3442623,18.2 L20.5311475,18.2 L20.5311475,20 L19.5147541,20 L19.5147541,18.2 L19.3622951,18.2 C19.3114754,18.25 19.2606557,18.3 19.1590164,18.3 C19.1081967,18.3 19.0065574,18.25 18.9557377,18.2 L17.2278689,18.2 Z M17.6344262,1.35 C17.7360656,1.35 17.8377049,1.45 17.8885246,1.55 C17.8885246,1.65 17.7868852,1.8 17.6852459,1.8 C17.5836066,1.8 17.4311475,1.7 17.4311475,1.6 C17.4311475,1.45 17.5327869,1.35 17.6344262,1.35 L17.6344262,1.35 Z M18.0409836,2.25 C18.0409836,2.35 17.9393443,2.45 17.7868852,2.45 C17.6852459,2.45 17.5836066,2.35 17.5836066,2.25 C17.5836066,2.15 17.6852459,2 17.8377049,2.05 C17.9393443,2.05 18.0918033,2.15 18.0409836,2.25 L18.0409836,2.25 Z M18.2442623,3.2 C18.2442623,3.3 18.142623,3.4 17.9901639,3.4 C17.8885246,3.4 17.7868852,3.3 17.7868852,3.15 C17.7868852,3.05 17.8885246,2.95 18.0409836,2.95 C18.1934426,2.95 18.2442623,3.05 18.2442623,3.2 L18.2442623,3.2 Z M18.447541,4.3 C18.447541,4.4 18.3459016,4.55 18.2442623,4.55 C18.142623,4.55 18.0409836,4.45 18.0409836,4.35 C18.0409836,4.25 18.142623,4.1 18.2442623,4.1 C18.3459016,4.05 18.447541,4.15 18.447541,4.3 L18.447541,4.3 Z M18.7016393,5.7 C18.7016393,5.8 18.6,5.9 18.447541,5.9 C18.3459016,5.9 18.2442623,5.8 18.2442623,5.7 C18.2442623,5.6 18.3459016,5.45 18.447541,5.45 C18.6,5.5 18.7016393,5.6 18.7016393,5.7 L18.7016393,5.7 Z M18.9557377,7.45 C18.9557377,7.55 18.8540984,7.7 18.752459,7.7 C18.6508197,7.7 18.5491803,7.6 18.5491803,7.5 C18.5491803,7.35 18.6508197,7.25 18.752459,7.25 C18.8032787,7.2 18.9557377,7.3 18.9557377,7.45 L18.9557377,7.45 Z M19.1590164,9.5 C19.1590164,9.6 19.057377,9.7 18.9557377,9.7 C18.8540984,9.7 18.7016393,9.6 18.7016393,9.5 C18.7016393,9.4 18.8032787,9.3 18.904918,9.25 C19.057377,9.3 19.1590164,9.4 19.1590164,9.5 L19.1590164,9.5 Z M19.1590164,1.1 C19.2606557,1.1 19.3622951,1.2 19.3622951,1.35 C19.3622951,1.45 19.2606557,1.55 19.1590164,1.55 C19.057377,1.55 18.904918,1.45 18.904918,1.35 C18.904918,1.2 19.0065574,1.1 19.1590164,1.1 L19.1590164,1.1 Z M19.6672131,1.85 C19.6672131,1.95 19.5655738,2.1 19.4131148,2.05 C19.3114754,2.05 19.2098361,1.95 19.2098361,1.85 C19.2098361,1.75 19.3114754,1.6 19.4131148,1.6 C19.5655738,1.6 19.6672131,1.7 19.6672131,1.85 L19.6672131,1.85 Z M19.9721311,2.55 C19.9721311,2.65 19.8704918,2.75 19.7180328,2.75 C19.6163934,2.75 19.5147541,2.65 19.5147541,2.55 C19.5147541,2.45 19.6163934,2.3 19.7180328,2.3 C19.8704918,2.3 19.9721311,2.45 19.9721311,2.55 L19.9721311,2.55 Z M20.0737705,3.25 C20.1754098,3.25 20.3278689,3.35 20.3278689,3.45 C20.3278689,3.55 20.2262295,3.65 20.0737705,3.65 C19.9721311,3.65 19.8704918,3.55 19.8704918,3.4 C19.8704918,3.35 19.9721311,3.25 20.0737705,3.25 L20.0737705,3.25 Z M20.6836066,4.6 C20.6836066,4.7 20.5819672,4.85 20.4295082,4.85 C20.3278689,4.85 20.2262295,4.75 20.2262295,4.65 C20.2262295,4.55 20.3278689,4.4 20.4295082,4.45 C20.5819672,4.4 20.6836066,4.5 20.6836066,4.6 L20.6836066,4.6 Z M20.6836066,1.45 C20.7852459,1.45 20.8868852,1.55 20.8868852,1.65 C20.8868852,1.75 20.7852459,1.9 20.6836066,1.85 C20.5819672,1.85 20.4803279,1.75 20.4803279,1.65 C20.4803279,1.55 20.5819672,1.45 20.6836066,1.45 L20.6836066,1.45 Z M21.0901639,2 C21.242623,2 21.3442623,2.1 21.3442623,2.2 C21.3442623,2.3 21.242623,2.45 21.1409836,2.45 C21.0393443,2.45 20.8868852,2.35 20.8868852,2.25 C20.8868852,2.1 20.9885246,2 21.0901639,2 L21.0901639,2 Z M21.547541,2.75 C21.6491803,2.75 21.7508197,2.85 21.7508197,2.95 C21.7508197,3.05 21.6491803,3.15 21.547541,3.15 C21.4459016,3.15 21.3442623,3.05 21.3442623,2.95 C21.2934426,2.85 21.395082,2.75 21.547541,2.75 L21.547541,2.75 Z M22.004918,3.65 C22.1065574,3.65 22.2081967,3.75 22.2081967,3.85 C22.2081967,3.95 22.1065574,4.1 22.004918,4.1 C21.9032787,4.1 21.7508197,4 21.7508197,3.9 C21.7508197,3.8 21.852459,3.65 22.004918,3.65 L22.004918,3.65 Z M22.004918,15.4 C21.9032787,15.4 21.7508197,15.3 21.8016393,15.15 C21.8016393,15.05 21.9032787,14.95 22.0557377,14.95 C22.157377,14.95 22.2590164,15.05 22.2590164,15.2 C22.2081967,15.3 22.1065574,15.4 22.004918,15.4 L22.004918,15.4 Z M21.5983607,17.8 C21.5983607,17.7 21.7,17.6 21.8016393,17.6 C21.9032787,17.6 22.0557377,17.7 22.004918,17.85 C22.004918,17.95 21.9032787,18.05 21.7508197,18.05 C21.7,18.05 21.5983607,17.95 21.5983607,17.8 L21.5983607,17.8 Z M21.852459,12 C21.9540984,12 22.0557377,12.1 22.0557377,12.25 C22.0557377,12.35 21.9540984,12.45 21.8016393,12.45 C21.7,12.45 21.5983607,12.35 21.5983607,12.2 C21.6491803,12.1 21.7508197,12 21.852459,12 L21.852459,12 Z M21.547541,9.6 C21.6491803,9.6 21.7508197,9.7 21.7508197,9.85 C21.7508197,9.95 21.6491803,10.05 21.547541,10.05 C21.4459016,10.05 21.2934426,9.95 21.2934426,9.85 C21.3442623,9.7 21.4459016,9.6 21.547541,9.6 L21.547541,9.6 Z M20.8360656,6.25 C20.7344262,6.25 20.6327869,6.15 20.6327869,6.05 C20.6327869,5.95 20.7344262,5.8 20.8360656,5.8 C20.9377049,5.8 21.0393443,5.9 21.0393443,6 C21.0393443,6.15 20.9377049,6.25 20.8360656,6.25 L20.8360656,6.25 Z M21.1918033,7.55 C21.2934426,7.55 21.4459016,7.65 21.4459016,7.75 C21.4459016,7.85 21.3442623,8 21.242623,8 C21.1409836,8 21.0393443,7.9 21.0393443,7.75 C20.9885246,7.65 21.0901639,7.55 21.1918033,7.55 L21.1918033,7.55 Z M21.3442623,20.2 C21.3442623,20.1 21.4459016,20 21.547541,20 C21.6491803,20 21.8016393,20.1 21.7508197,20.25 C21.7508197,20.35 21.6491803,20.45 21.4967213,20.45 C21.4459016,20.45 21.3442623,20.3 21.3442623,20.2 L21.3442623,20.2 Z M21.0393443,24 C21.0393443,24.1 20.9377049,24.2 20.8360656,24.25 C20.7344262,24.25 20.5819672,24.15 20.5819672,24.05 C20.5819672,23.95 20.6836066,23.8 20.7852459,23.8 C20.9377049,23.8 21.0393443,23.9 21.0393443,24 L21.0393443,24 Z M20.9885246,22.25 C20.9885246,22.15 21.0901639,22.05 21.1918033,22.05 C21.2934426,22.05 21.4459016,22.15 21.395082,22.3 C21.395082,22.4 21.2934426,22.5 21.1409836,22.5 C21.0901639,22.5 20.9885246,22.4 20.9885246,22.25 L20.9885246,22.25 Z M22.4622951,4.85 C22.5639344,4.85 22.7163934,4.95 22.7163934,5.05 C22.7163934,5.15 22.6147541,5.3 22.5131148,5.3 C22.4114754,5.3 22.3098361,5.2 22.3098361,5.1 C22.2081967,4.95 22.3098361,4.85 22.4622951,4.85 L22.4622951,4.85 Z M22.6147541,2.5 C22.7163934,2.5 22.8688525,2.6 22.8688525,2.7 C22.8688525,2.8 22.7672131,2.9 22.6147541,2.9 C22.5131148,2.9 22.4114754,2.8 22.4114754,2.7 C22.3606557,2.6 22.4622951,2.5 22.6147541,2.5 L22.6147541,2.5 Z M22.9196721,6.25 C23.0213115,6.25 23.1229508,6.35 23.1229508,6.45 C23.1229508,6.55 23.0213115,6.65 22.9196721,6.65 C22.8180328,6.65 22.6655738,6.55 22.6655738,6.45 C22.6655738,6.35 22.7672131,6.25 22.9196721,6.25 L22.9196721,6.25 Z M23.1229508,3.25 C23.2245902,3.25 23.3262295,3.35 23.3262295,3.5 C23.3262295,3.6 23.2245902,3.75 23.0721311,3.7 C22.9704918,3.7 22.8688525,3.6 22.8688525,3.45 C22.8688525,3.35 23.0213115,3.25 23.1229508,3.25 L23.1229508,3.25 Z M23.3770492,8 C23.4786885,8 23.6311475,8.1 23.6311475,8.2 C23.6311475,8.3 23.5295082,8.4 23.4278689,8.45 C23.3262295,8.45 23.1737705,8.35 23.1737705,8.25 C23.1229508,8.1 23.2245902,8 23.3770492,8 L23.3770492,8 Z M23.6311475,4.2 C23.7327869,4.2 23.8852459,4.3 23.8852459,4.4 C23.8852459,4.5 23.7836066,4.65 23.6819672,4.65 C23.5803279,4.65 23.4786885,4.55 23.4786885,4.45 C23.4278689,4.3 23.5295082,4.2 23.6311475,4.2 L23.6311475,4.2 Z M23.9360656,3.05 C24.0377049,3.05 24.1901639,3.15 24.1901639,3.25 C24.1901639,3.35 24.0885246,3.45 23.9360656,3.45 C23.8344262,3.45 23.7327869,3.35 23.7327869,3.25 C23.6819672,3.15 23.7836066,3.05 23.9360656,3.05 L23.9360656,3.05 Z M24.3934426,5.6 C24.3934426,5.7 24.2918033,5.85 24.1393443,5.8 C24.0377049,5.8 23.9360656,5.7 23.9360656,5.55 C23.9360656,5.45 24.0377049,5.35 24.1393443,5.35 C24.2918033,5.4 24.3934426,5.5 24.3934426,5.6 L24.3934426,5.6 Z M24.495082,3.85 C24.5967213,3.85 24.7491803,3.95 24.7491803,4.05 C24.7491803,4.15 24.647541,4.25 24.5459016,4.25 C24.4442623,4.25 24.2918033,4.15 24.2918033,4.05 C24.2409836,3.95 24.342623,3.85 24.495082,3.85 L24.495082,3.85 Z M24.9016393,7 C24.9016393,7.1 24.8,7.2 24.647541,7.2 C24.5459016,7.2 24.4442623,7.1 24.4442623,6.95 C24.4442623,6.85 24.5459016,6.75 24.647541,6.75 C24.8,6.8 24.9016393,6.9 24.9016393,7 L24.9016393,7 Z M25.0540984,4.8 C25.1557377,4.8 25.257377,4.9 25.257377,5 C25.257377,5.1 25.1557377,5.25 25.0032787,5.2 C24.9016393,5.2 24.8,5.1 24.8,4.95 C24.8508197,4.9 24.952459,4.8 25.0540984,4.8 L25.0540984,4.8 Z M23.7836066,10.45 C23.6819672,10.45 23.5295082,10.35 23.5295082,10.25 C23.5295082,10.15 23.6311475,10 23.7327869,10 C23.8344262,10 23.9360656,10.1 23.9360656,10.2 C23.9868852,10.3 23.8852459,10.45 23.7836066,10.45 L23.7836066,10.45 Z M24.0377049,12.7 C23.9360656,12.7 23.8344262,12.6 23.8344262,12.5 C23.8344262,12.4 23.9360656,12.25 24.0377049,12.25 C24.1393443,12.25 24.2918033,12.35 24.2918033,12.45 C24.2918033,12.6 24.1901639,12.7 24.0377049,12.7 L24.0377049,12.7 Z M24.2918033,17.6 C24.2918033,17.7 24.1901639,17.85 24.0885246,17.85 C23.9868852,17.85 23.8344262,17.75 23.8852459,17.6 C23.8852459,17.5 23.9868852,17.4 24.0885246,17.4 C24.1901639,17.35 24.2918033,17.45 24.2918033,17.6 L24.2918033,17.6 Z M24.1901639,15.35 C24.0885246,15.35 23.9868852,15.25 23.9868852,15.15 C23.9868852,15.05 24.0885246,14.9 24.1901639,14.9 C24.2918033,14.9 24.4442623,15 24.4442623,15.1 C24.4442623,15.25 24.342623,15.35 24.1901639,15.35 L24.1901639,15.35 Z M24.3934426,24.45 C24.3934426,24.55 24.2918033,24.65 24.1393443,24.65 C24.0377049,24.65 23.9360656,24.55 23.9360656,24.4 C23.9360656,24.3 24.0377049,24.2 24.1901639,24.2 C24.2918033,24.25 24.3934426,24.35 24.3934426,24.45 L24.3934426,24.45 Z M23.9360656,19.95 C23.8852459,20 23.8344262,20.05 23.7836066,20.05 C23.7327869,20.05 23.6311475,20 23.6311475,19.95 L22.4622951,19.95 L22.4622951,10.45 L23.5803279,10.45 L23.5803279,19 L25.3590164,19 L25.3590164,19.9 L23.9360656,19.9 L23.9360656,19.95 Z M25.4098361,8.7 C25.4098361,8.8 25.3081967,8.95 25.1557377,8.9 C25.0540984,8.9 24.952459,8.8 24.952459,8.65 C24.952459,8.55 25.0540984,8.45 25.1557377,8.45 C25.3081967,8.45 25.4098361,8.55 25.4098361,8.7 L25.4098361,8.7 Z M25.6131148,5.95 C25.7147541,5.95 25.8163934,6.05 25.8163934,6.15 C25.8163934,6.25 25.7147541,6.4 25.6131148,6.35 C25.5114754,6.35 25.4098361,6.25 25.4098361,6.15 C25.3590164,6.05 25.5114754,5.95 25.6131148,5.95 L25.6131148,5.95 Z M25.8163934,19.45 C25.8163934,19.55 25.7147541,19.7 25.6131148,19.7 C25.5114754,19.7 25.3590164,19.6 25.4098361,19.45 C25.4098361,19.35 25.5114754,19.25 25.6131148,19.25 C25.7147541,19.25 25.8163934,19.35 25.8163934,19.45 L25.8163934,19.45 Z M25.3590164,10.6 C25.3590164,10.5 25.4606557,10.35 25.6131148,10.4 C25.7147541,10.4 25.8163934,10.5 25.8163934,10.6 C25.8163934,10.7 25.7147541,10.8 25.6131148,10.8 C25.4606557,10.8 25.3590164,10.7 25.3590164,10.6 L25.3590164,10.6 Z M25.8672131,12.5 C25.9688525,12.5 26.0704918,12.6 26.0704918,12.7 C26.0704918,12.8 25.9688525,12.95 25.8163934,12.9 C25.7147541,12.9 25.6131148,12.8 25.6131148,12.7 C25.6639344,12.6 25.7655738,12.5 25.8672131,12.5 L25.8672131,12.5 Z M26.2229508,15.1 C26.2229508,15.2 26.1213115,15.3 25.9688525,15.3 C25.8672131,15.3 25.7655738,15.2 25.7655738,15.05 C25.7655738,14.95 25.8672131,14.85 25.9688525,14.85 C26.1213115,14.85 26.2229508,14.95 26.2229508,15.1 L26.2229508,15.1 Z M26.1721311,7.35 C26.2737705,7.35 26.3754098,7.45 26.3754098,7.55 C26.3754098,7.65 26.2737705,7.8 26.1213115,7.75 C26.0196721,7.75 25.9180328,7.65 25.9180328,7.55 C25.9180328,7.45 26.0196721,7.35 26.1721311,7.35 L26.1721311,7.35 Z M26.2229508,5.4 C26.3245902,5.4 26.4770492,5.5 26.4262295,5.65 C26.4262295,5.75 26.3245902,5.85 26.1721311,5.85 C26.0704918,5.85 25.9688525,5.75 25.9688525,5.65 C26.0196721,5.5 26.1213115,5.4 26.2229508,5.4 L26.2229508,5.4 Z M26.6295082,8.95 C26.7311475,8.95 26.8836066,9.05 26.8836066,9.15 C26.8836066,9.25 26.7819672,9.35 26.6803279,9.35 C26.5786885,9.35 26.4262295,9.25 26.4262295,9.15 C26.4262295,9.05 26.5278689,8.95 26.6295082,8.95 L26.6295082,8.95 Z M26.7819672,6.55 C26.8836066,6.55 26.9852459,6.65 26.9852459,6.75 C26.9852459,6.85 26.8836066,7 26.7311475,6.95 C26.6295082,6.95 26.5278689,6.85 26.5278689,6.7 C26.5786885,6.65 26.6803279,6.55 26.7819672,6.55 L26.7819672,6.55 Z M27.2393443,10.95 C27.2393443,11.05 27.1377049,11.15 27.0360656,11.15 C26.9344262,11.15 26.7819672,11.05 26.8327869,10.9 C26.8327869,10.8 26.9344262,10.7 27.0868852,10.7 C27.1885246,10.75 27.2393443,10.85 27.2393443,10.95 L27.2393443,10.95 Z M27.3409836,7.9 C27.442623,7.9 27.5442623,8 27.5442623,8.1 C27.5442623,8.2 27.442623,8.35 27.3409836,8.35 C27.2393443,8.35 27.1377049,8.25 27.1377049,8.1 C27.0868852,8 27.2393443,7.9 27.3409836,7.9 L27.3409836,7.9 Z M27.747541,7.15 C27.8491803,7.15 28.0016393,7.25 28.0016393,7.35 C28.0016393,7.45 27.9,7.6 27.7983607,7.6 C27.6967213,7.6 27.595082,7.5 27.595082,7.35 C27.5442623,7.25 27.6459016,7.15 27.747541,7.15 L27.747541,7.15 Z M27.442623,15.25 C27.3409836,15.25 27.2393443,15.15 27.2393443,15.05 C27.2393443,14.95 27.3409836,14.8 27.442623,14.8 C27.5442623,14.8 27.6967213,14.9 27.6967213,15 C27.6459016,15.15 27.5442623,15.25 27.442623,15.25 L27.442623,15.25 Z M27.0868852,12.95 C27.0868852,12.85 27.1885246,12.75 27.2901639,12.7 C27.3918033,12.7 27.5442623,12.8 27.5442623,12.9 C27.5442623,13 27.442623,13.15 27.2901639,13.1 C27.1885246,13.15 27.0868852,13.05 27.0868852,12.95 L27.0868852,12.95 Z M27.2901639,16.9 C27.3918033,16.9 27.5442623,17 27.5442623,17.1 C27.5442623,17.2 27.442623,17.3 27.2901639,17.3 C27.1885246,17.3 27.0868852,17.2 27.0868852,17.05 C27.0868852,17 27.1885246,16.9 27.2901639,16.9 L27.2901639,16.9 Z M27.7983607,9.85 C27.6967213,9.85 27.595082,9.75 27.595082,9.65 C27.595082,9.55 27.6967213,9.4 27.7983607,9.4 C27.9,9.4 28.052459,9.5 28.052459,9.6 C28.052459,9.75 27.9508197,9.85 27.7983607,9.85 L27.7983607,9.85 Z M28.2557377,8.4 C28.357377,8.4 28.5098361,8.5 28.4590164,8.65 C28.4590164,8.75 28.357377,8.85 28.204918,8.85 C28.1032787,8.85 28.0016393,8.75 28.0016393,8.6 C28.052459,8.5 28.1540984,8.4 28.2557377,8.4 L28.2557377,8.4 Z M28.5606557,15.2 C28.4590164,15.2 28.357377,15.1 28.357377,14.95 C28.357377,14.85 28.4590164,14.75 28.5606557,14.75 C28.6622951,14.75 28.8147541,14.85 28.8147541,14.95 C28.7639344,15.1 28.6622951,15.2 28.5606557,15.2 L28.5606557,15.2 Z M28.204918,16.9 C28.204918,16.8 28.3065574,16.65 28.4590164,16.7 C28.5606557,16.7 28.6622951,16.8 28.6622951,16.95 C28.6622951,17.05 28.5606557,17.15 28.4081967,17.15 C28.3065574,17.1 28.204918,17 28.204918,16.9 L28.204918,16.9 Z M28.204918,18.5 C28.3065574,18.5 28.4590164,18.6 28.4081967,18.7 C28.4081967,18.8 28.3065574,18.95 28.1540984,18.9 C28.052459,18.9 27.9508197,18.8 27.9508197,18.7 C27.9508197,18.6 28.052459,18.5 28.204918,18.5 L28.204918,18.5 Z M28.4081967,12.9 C28.5098361,12.9 28.6622951,13 28.6622951,13.1 C28.6622951,13.2 28.5606557,13.35 28.4590164,13.35 C28.357377,13.35 28.204918,13.25 28.204918,13.1 C28.204918,13.05 28.3065574,12.95 28.4081967,12.9 L28.4081967,12.9 Z M28.204918,11.55 C28.1032787,11.55 28.0016393,11.45 28.0016393,11.35 C28.0016393,11.25 28.1032787,11.1 28.204918,11.1 C28.3065574,11.1 28.4590164,11.2 28.4590164,11.3 C28.4081967,11.45 28.3065574,11.55 28.204918,11.55 L28.204918,11.55 Z M28.7131148,9.85 C28.8147541,9.85 28.9163934,9.95 28.9163934,10.1 C28.9163934,10.2 28.8147541,10.3 28.6622951,10.3 C28.5606557,10.3 28.4590164,10.2 28.4590164,10.05 C28.5098361,9.95 28.6114754,9.85 28.7131148,9.85 L28.7131148,9.85 Z M28.9672131,8.95 C29.0688525,8.95 29.1704918,9.05 29.1704918,9.2 C29.1704918,9.3 29.0688525,9.4 28.9672131,9.4 C28.8655738,9.4 28.7639344,9.3 28.7639344,9.2 C28.7639344,9.05 28.8655738,8.9 28.9672131,8.95 L28.9672131,8.95 Z M29.4245902,10.3 C29.5262295,10.3 29.6278689,10.45 29.6278689,10.55 C29.6278689,10.65 29.5262295,10.75 29.3737705,10.75 C29.2721311,10.75 29.1704918,10.65 29.1704918,10.5 C29.1704918,10.35 29.2721311,10.25 29.4245902,10.3 L29.4245902,10.3 Z M29.4245902,15.2 C29.3229508,15.2 29.2213115,15.1 29.2213115,14.95 C29.2213115,14.85 29.3229508,14.75 29.4754098,14.75 C29.5770492,14.75 29.6786885,14.85 29.6786885,14.95 C29.6278689,15.1 29.5262295,15.2 29.4245902,15.2 L29.4245902,15.2 Z M29.0688525,16.7 C29.0688525,16.6 29.1704918,16.5 29.2721311,16.5 C29.3737705,16.5 29.5262295,16.6 29.5262295,16.7 C29.5262295,16.8 29.4245902,16.95 29.2721311,16.9 C29.1704918,16.95 29.0688525,16.8 29.0688525,16.7 L29.0688525,16.7 Z M29.0688525,18.15 C29.1704918,18.15 29.3229508,18.25 29.3229508,18.35 C29.3229508,18.45 29.2213115,18.55 29.0688525,18.55 C28.9672131,18.55 28.8655738,18.45 28.8655738,18.35 C28.8147541,18.3 28.9163934,18.15 29.0688525,18.15 L29.0688525,18.15 Z M29.2721311,13.1 C29.3737705,13.1 29.5262295,13.2 29.5262295,13.3 C29.5262295,13.4 29.4245902,13.55 29.3229508,13.55 C29.2213115,13.55 29.1196721,13.45 29.1196721,13.35 C29.0688525,13.25 29.1704918,13.1 29.2721311,13.1 L29.2721311,13.1 Z M29.0688525,11.9 C28.9672131,11.9 28.8147541,11.8 28.8147541,11.7 C28.8147541,11.6 28.9163934,11.45 29.0180328,11.45 C29.1196721,11.45 29.2721311,11.55 29.2213115,11.65 C29.2721311,11.75 29.1704918,11.9 29.0688525,11.9 L29.0688525,11.9 Z M29.7295082,11.75 C29.8311475,11.75 29.9836066,11.85 29.9836066,11.95 C29.9836066,12.05 29.8819672,12.2 29.7803279,12.2 C29.6786885,12.2 29.5770492,12.1 29.5770492,12 C29.4754098,11.85 29.5770492,11.75 29.7295082,11.75 L29.7295082,11.75 Z M16.0590164,18 C16.1606557,18 16.2622951,18.1 16.2622951,18.2 C16.2622951,18.3 16.1606557,18.4 16.0590164,18.4 C16.0081967,18.4 16.0081967,18.4 15.957377,18.4 L15.957377,19.95 L15.347541,19.95 L15.2459016,19.25 C15.042623,19.8 14.6360656,20.1 14.0262295,20.1 C13.4163934,20.1 12.9590164,19.85 12.6540984,19.4 C12.3491803,18.95 12.1967213,18.2 12.1967213,17.2 L12.1967213,13.2 C12.1967213,11.8 12.552459,10.95 13.2131148,10.6 C13.4672131,10.45 13.7721311,10.4 14.0770492,10.4 C14.6868852,10.4 15.0934426,10.5 15.347541,10.75 C15.6016393,11 15.804918,11.3 15.8557377,11.75 C15.8557377,11.75 15.8557377,11.75 15.8557377,11.75 C15.9065574,11.7 15.957377,11.65 16.0590164,11.65 C16.1606557,11.65 16.2622951,11.75 16.2622951,11.9 C16.2622951,12 16.1606557,12.1 16.0590164,12.1 C16.0081967,12.1 15.957377,12.1 15.9065574,12.05 C15.957377,12.4 15.957377,12.8 15.957377,13.25 L15.957377,14 L14.8393443,14 L14.8393443,12.75 C14.8393443,12.25 14.7885246,11.9 14.6868852,11.7 C14.5852459,11.5 14.3819672,11.4 14.0770492,11.4 C13.7721311,11.4 13.5688525,11.55 13.4672131,11.8 C13.3655738,12.05 13.2639344,12.55 13.2639344,13.2 L13.2639344,17.2 C13.2639344,17.95 13.3147541,18.5 13.4163934,18.8 C13.5180328,19.1 13.7213115,19.25 14.0262295,19.25 C14.3311475,19.25 14.5344262,19.1 14.6868852,18.8 C14.7885246,18.5 14.8393443,17.95 14.8393443,17.2 L14.8393443,15.95 L14.0770492,15.95 L14.0770492,15 L15.9065574,15 L15.9065574,15.15 C15.957377,15.1 16.0081967,15.1 16.0081967,15.1 C16.1098361,15.1 16.2622951,15.2 16.2114754,15.35 C16.2114754,15.45 16.1098361,15.55 15.957377,15.55 C15.9065574,15.55 15.8557377,15.55 15.8557377,15.5 L15.8557377,18 C16.0081967,18 16.0590164,18 16.0590164,18 L16.0590164,18 Z M16.0081967,20.9 C15.9065574,20.9 15.7540984,20.8 15.804918,20.65 C15.804918,20.55 15.9065574,20.45 16.0081967,20.45 C16.1098361,20.45 16.2622951,20.55 16.2622951,20.65 C16.2622951,20.8 16.1606557,20.9 16.0081967,20.9 L16.0081967,20.9 Z M15.957377,23 C15.8557377,23 15.7032787,22.9 15.7032787,22.8 C15.7032787,22.7 15.804918,22.6 15.9065574,22.6 C16.0081967,22.6 16.1606557,22.7 16.1606557,22.8 C16.2114754,22.9 16.1098361,23 15.957377,23 L15.957377,23 Z M15.9065574,24.7 C15.804918,24.7 15.7032787,24.6 15.7032787,24.5 C15.7032787,24.4 15.804918,24.25 15.9065574,24.25 C16.0081967,24.25 16.1098361,24.35 16.1098361,24.5 C16.1606557,24.6 16.0590164,24.7 15.9065574,24.7 L15.9065574,24.7 Z M15.9065574,26.1 C15.804918,26.1 15.652459,26 15.652459,25.9 C15.652459,25.8 15.7540984,25.7 15.9065574,25.7 C16.0081967,25.7 16.1098361,25.8 16.1098361,25.9 C16.1098361,26 16.0081967,26.1 15.9065574,26.1 L15.9065574,26.1 Z M15.8557377,27.25 C15.7540984,27.25 15.652459,27.15 15.652459,27.05 C15.652459,26.95 15.7540984,26.8 15.9065574,26.8 C16.0081967,26.8 16.1098361,26.9 16.1098361,27.05 C16.0590164,27.15 15.957377,27.25 15.8557377,27.25 L15.8557377,27.25 Z M15.804918,28.15 C15.7032787,28.15 15.6016393,28.05 15.6016393,27.95 C15.6016393,27.85 15.7032787,27.7 15.804918,27.7 C15.9065574,27.7 16.0081967,27.8 16.0081967,27.9 C16.0590164,28 15.957377,28.15 15.804918,28.15 L15.804918,28.15 Z M15.7540984,28.8 C15.652459,28.8 15.5508197,28.7 15.5508197,28.55 C15.5508197,28.45 15.652459,28.35 15.7540984,28.35 C15.8557377,28.35 16.0081967,28.45 15.957377,28.6 C16.0081967,28.7 15.9065574,28.8 15.7540984,28.8 L15.7540984,28.8 Z M13.9245902,28.75 C13.8229508,28.75 13.7213115,28.65 13.7213115,28.55 C13.7213115,28.45 13.8229508,28.35 13.9245902,28.35 C14.0262295,28.35 14.1786885,28.45 14.1786885,28.55 C14.1278689,28.65 14.0262295,28.75 13.9245902,28.75 L13.9245902,28.75 Z M13.5688525,27.85 C13.5688525,27.75 13.6704918,27.6 13.7721311,27.6 C13.8737705,27.6 14.0262295,27.7 14.0262295,27.8 C14.0262295,27.9 13.9245902,28 13.7721311,28 C13.6704918,28.05 13.5688525,28 13.5688525,27.85 L13.5688525,27.85 Z M13.4163934,26.95 C13.4163934,26.85 13.5180328,26.75 13.6704918,26.75 C13.7721311,26.75 13.8737705,26.85 13.8737705,26.95 C13.8737705,27.05 13.7721311,27.2 13.6704918,27.2 C13.5180328,27.2 13.4163934,27.1 13.4163934,26.95 L13.4163934,26.95 Z M13.3147541,25.85 C13.3147541,25.75 13.4163934,25.65 13.5688525,25.65 C13.6704918,25.65 13.7721311,25.75 13.7721311,25.9 C13.7721311,26 13.6704918,26.1 13.5688525,26.1 C13.4163934,26.05 13.3147541,25.95 13.3147541,25.85 L13.3147541,25.85 Z M13.1622951,24.4 C13.1622951,24.3 13.2639344,24.15 13.4163934,24.2 C13.5180328,24.2 13.6196721,24.3 13.6196721,24.45 C13.6196721,24.55 13.5180328,24.65 13.4163934,24.65 C13.2639344,24.65 13.1622951,24.55 13.1622951,24.4 L13.1622951,24.4 Z M12.9590164,22.7 C12.9590164,22.6 13.0606557,22.45 13.1622951,22.45 C13.2639344,22.45 13.3655738,22.55 13.3655738,22.65 C13.3655738,22.75 13.2639344,22.9 13.1622951,22.9 C13.0606557,22.9 12.9590164,22.8 12.9590164,22.7 L12.9590164,22.7 Z M12.8065574,20.6 C12.8065574,20.5 12.9081967,20.35 13.0098361,20.35 C13.1114754,20.35 13.2131148,20.45 13.2131148,20.55 C13.2131148,20.65 13.1114754,20.75 13.0098361,20.75 C12.9081967,20.85 12.8065574,20.75 12.8065574,20.6 L12.8065574,20.6 Z M12.095082,28.55 C11.9934426,28.55 11.8409836,28.45 11.8409836,28.35 C11.8409836,28.25 11.942623,28.1 12.0442623,28.1 C12.1459016,28.1 12.2983607,28.2 12.2983607,28.3 C12.3491803,28.45 12.247541,28.55 12.095082,28.55 L12.095082,28.55 Z M11.5868852,27.6 C11.5868852,27.5 11.6885246,27.4 11.7901639,27.4 C11.8918033,27.4 11.9934426,27.5 11.9934426,27.65 C11.9934426,27.75 11.8918033,27.85 11.7393443,27.85 C11.6885246,27.85 11.5868852,27.75 11.5868852,27.6 L11.5868852,27.6 Z M11.3327869,26.7 C11.3327869,26.6 11.4344262,26.5 11.5868852,26.5 C11.6885246,26.5 11.7901639,26.6 11.7901639,26.7 C11.7901639,26.8 11.6885246,26.95 11.5360656,26.9 C11.4344262,26.95 11.3327869,26.85 11.3327869,26.7 L11.3327869,26.7 Z M11.0278689,25.6 C11.0278689,25.5 11.1295082,25.4 11.2819672,25.4 C11.3836066,25.4 11.4852459,25.5 11.4852459,25.65 C11.4852459,25.75 11.3836066,25.85 11.2819672,25.85 C11.1295082,25.8 11.0278689,25.7 11.0278689,25.6 L11.0278689,25.6 Z M10.7229508,28.75 C10.6213115,28.75 10.4688525,28.65 10.5196721,28.5 C10.5196721,28.4 10.6213115,28.3 10.7229508,28.3 C10.8245902,28.3 10.9262295,28.4 10.9262295,28.5 C10.9770492,28.65 10.8754098,28.75 10.7229508,28.75 L10.7229508,28.75 Z M10.1639344,28 C10.1639344,27.9 10.2655738,27.8 10.3672131,27.8 C10.4688525,27.8 10.6213115,27.9 10.5704918,28.05 C10.5704918,28.15 10.4688525,28.25 10.3163934,28.25 C10.2655738,28.2 10.1639344,28.1 10.1639344,28 L10.1639344,28 Z M10.0114754,27.5 C9.90983607,27.5 9.75737705,27.4 9.75737705,27.3 C9.75737705,27.2 9.85901639,27.05 9.96065574,27.05 C10.0622951,27.05 10.1639344,27.15 10.1639344,27.25 C10.2147541,27.4 10.1131148,27.5 10.0114754,27.5 L10.0114754,27.5 Z M9.60491803,26.55 C9.50327869,26.55 9.40163934,26.45 9.40163934,26.35 C9.40163934,26.25 9.50327869,26.15 9.60491803,26.15 C9.70655738,26.15 9.85901639,26.25 9.85901639,26.35 C9.80819672,26.45 9.70655738,26.55 9.60491803,26.55 L9.60491803,26.55 Z M9.24918033,28.35 C9.14754098,28.35 8.99508197,28.25 9.04590164,28.1 C9.04590164,28 9.14754098,27.9 9.24918033,27.9 C9.35081967,27.9 9.50327869,28 9.50327869,28.1 C9.50327869,28.25 9.40163934,28.35 9.24918033,28.35 L9.24918033,28.35 Z M8.79180328,27.75 C8.69016393,27.75 8.53770492,27.65 8.58852459,27.5 C8.58852459,27.4 8.69016393,27.3 8.79180328,27.3 C8.89344262,27.3 8.99508197,27.4 8.99508197,27.5 C9.04590164,27.65 8.9442623,27.75 8.79180328,27.75 L8.79180328,27.75 Z M8.33442623,27 C8.23278689,27 8.13114754,26.9 8.13114754,26.8 C8.13114754,26.7 8.23278689,26.6 8.33442623,26.6 C8.43606557,26.6 8.58852459,26.7 8.58852459,26.8 C8.53770492,26.9 8.43606557,27 8.33442623,27 L8.33442623,27 Z M8.08032787,22 C8.08032787,21.9 8.18196721,21.8 8.28360656,21.8 C8.3852459,21.8 8.53770492,21.9 8.53770492,22.05 C8.53770492,22.15 8.43606557,22.25 8.28360656,22.25 C8.18196721,22.25 8.08032787,22.15 8.08032787,22 L8.08032787,22 Z M8.74098361,23.95 C8.63934426,23.95 8.53770492,23.85 8.53770492,23.7 C8.53770492,23.6 8.63934426,23.5 8.74098361,23.5 C8.84262295,23.5 8.99508197,23.6 8.99508197,23.7 C8.9442623,23.85 8.84262295,23.95 8.74098361,23.95 L8.74098361,23.95 Z M9.14754098,24.95 C9.24918033,24.95 9.35081967,25.05 9.35081967,25.15 C9.35081967,25.25 9.24918033,25.4 9.14754098,25.35 C9.04590164,25.35 8.9442623,25.25 8.9442623,25.1 C8.9442623,25.05 9.04590164,24.95 9.14754098,24.95 L9.14754098,24.95 Z M7.92786885,20.2 C7.82622951,20.2 7.67377049,20.1 7.67377049,19.95 C7.67377049,19.85 7.77540984,19.75 7.87704918,19.75 C7.72459016,19.65 7.62295082,19.5 7.4704918,19.35 C7.16557377,18.9 7.01311475,18.15 7.01311475,17.15 L7.01311475,13.15 C7.01311475,11.75 7.36885246,10.9 8.0295082,10.55 C8.28360656,10.4 8.58852459,10.35 8.89344262,10.35 C9.50327869,10.35 9.90983607,10.45 10.1639344,10.7 C10.4180328,10.95 10.6213115,11.25 10.6721311,11.7 C10.7737705,12.1 10.7737705,12.6 10.7737705,13.2 L10.7737705,13.95 L9.6557377,13.95 L9.6557377,12.7 C9.6557377,12.2 9.60491803,11.85 9.50327869,11.65 C9.40163934,11.45 9.19836066,11.35 8.89344262,11.35 C8.58852459,11.35 8.3852459,11.5 8.28360656,11.75 C8.18196721,12 8.08032787,12.5 8.08032787,13.15 L8.08032787,17.15 C8.08032787,17.9 8.13114754,18.45 8.23278689,18.75 C8.33442623,19.05 8.53770492,19.2 8.84262295,19.2 C9.14754098,19.2 9.35081967,19.05 9.50327869,18.75 C9.60491803,18.45 9.6557377,17.9 9.6557377,17.15 L9.6557377,15.9 L8.89344262,15.9 L8.89344262,15 L10.7229508,15 L10.7229508,20 L10.1131148,20 L9.96065574,19.25 C9.75737705,19.8 9.35081967,20.1 8.74098361,20.1 C8.48688525,20.1 8.23278689,20.05 8.0295082,19.95 C8.0295082,19.95 8.0295082,20 8.0295082,20 C8.13114754,20.1 8.0295082,20.2 7.92786885,20.2 L7.92786885,20.2 Z M7.82622951,26.05 C7.72459016,26.05 7.62295082,25.95 7.62295082,25.8 C7.62295082,25.7 7.72459016,25.6 7.82622951,25.6 C7.92786885,25.6 8.08032787,25.7 8.08032787,25.8 C8.08032787,25.95 7.97868852,26.05 7.82622951,26.05 L7.82622951,26.05 Z M7.41967213,27.25 C7.31803279,27.25 7.16557377,27.15 7.16557377,27.05 C7.16557377,26.95 7.26721311,26.85 7.36885246,26.85 C7.4704918,26.85 7.62295082,26.95 7.62295082,27.05 C7.67377049,27.1 7.52131148,27.25 7.41967213,27.25 L7.41967213,27.25 Z M7.1147541,24.65 C7.1147541,24.55 7.21639344,24.45 7.31803279,24.45 C7.41967213,24.45 7.52131148,24.55 7.52131148,24.7 C7.52131148,24.8 7.41967213,24.95 7.26721311,24.9 C7.21639344,24.9 7.1147541,24.8 7.1147541,24.65 L7.1147541,24.65 Z M6.86065574,26.45 C6.75901639,26.45 6.65737705,26.35 6.65737705,26.2 C6.65737705,26.1 6.75901639,26 6.86065574,26 C6.96229508,26 7.1147541,26.1 7.1147541,26.2 C7.1147541,26.35 7.01311475,26.45 6.86065574,26.45 L6.86065574,26.45 Z M6.60655738,23.25 C6.60655738,23.15 6.70819672,23.05 6.80983607,23.05 C6.91147541,23.05 7.01311475,23.15 7.06393443,23.25 C7.06393443,23.35 6.96229508,23.5 6.86065574,23.5 C6.70819672,23.45 6.60655738,23.35 6.60655738,23.25 L6.60655738,23.25 Z M6.35245902,8.7 C6.25081967,8.7 6.09836066,8.6 6.09836066,8.5 C6.09836066,8.4 6.2,8.25 6.35245902,8.25 C6.45409836,8.25 6.5557377,8.35 6.5557377,8.45 C6.5557377,8.6 6.45409836,8.7 6.35245902,8.7 L6.35245902,8.7 Z M6.35245902,21.8 C6.25081967,21.8 6.09836066,21.7 6.14918033,21.55 C6.14918033,21.45 6.25081967,21.35 6.40327869,21.35 C6.50491803,21.35 6.60655738,21.45 6.60655738,21.6 C6.5557377,21.7 6.45409836,21.8 6.35245902,21.8 L6.35245902,21.8 Z M6.30163934,25.5 C6.2,25.5 6.09836066,25.4 6.09836066,25.3 C6.09836066,25.2 6.2,25.05 6.35245902,25.05 C6.45409836,25.05 6.5557377,25.15 6.5557377,25.3 C6.5557377,25.4 6.45409836,25.5 6.30163934,25.5 L6.30163934,25.5 Z M5.94590164,19.85 C5.8442623,19.85 5.69180328,19.75 5.69180328,19.65 C5.69180328,19.55 5.79344262,19.45 5.89508197,19.45 C5.99672131,19.45 6.14918033,19.55 6.14918033,19.65 C6.14918033,19.75 6.04754098,19.85 5.94590164,19.85 L5.94590164,19.85 Z M5.79344262,24.35 C5.69180328,24.35 5.53934426,24.25 5.53934426,24.1 C5.53934426,24 5.64098361,23.9 5.79344262,23.9 C5.89508197,23.9 5.99672131,24 5.99672131,24.15 C5.99672131,24.2 5.89508197,24.3 5.79344262,24.35 L5.79344262,24.35 Z M5.43770492,17.45 C5.43770492,17.35 5.53934426,17.25 5.64098361,17.25 C5.74262295,17.25 5.89508197,17.35 5.89508197,17.45 C5.89508197,17.55 5.79344262,17.65 5.69180328,17.65 C5.53934426,17.65 5.43770492,17.55 5.43770492,17.45 L5.43770492,17.45 Z M5.23442623,22.95 C5.13278689,22.95 4.98032787,22.85 4.98032787,22.75 C4.98032787,22.65 5.08196721,22.55 5.18360656,22.55 C5.2852459,22.55 5.38688525,22.65 5.38688525,22.75 C5.43770492,22.8 5.33606557,22.95 5.23442623,22.95 L5.23442623,22.95 Z M5.03114754,24.9 C4.9295082,24.9 4.82786885,24.8 4.82786885,24.7 C4.82786885,24.6 4.9295082,24.45 5.03114754,24.45 C5.13278689,24.45 5.2852459,24.55 5.2852459,24.65 C5.2852459,24.8 5.18360656,24.9 5.03114754,24.9 L5.03114754,24.9 Z M4.77704918,21.3 C4.67540984,21.3 4.52295082,21.2 4.52295082,21.1 C4.52295082,21 4.62459016,20.85 4.72622951,20.85 C4.82786885,20.85 4.98032787,20.95 4.98032787,21.05 C4.98032787,21.2 4.87868852,21.3 4.77704918,21.3 L4.77704918,21.3 Z M4.47213115,23.75 C4.3704918,23.75 4.21803279,23.65 4.21803279,23.55 C4.21803279,23.45 4.31967213,23.35 4.47213115,23.35 C4.57377049,23.35 4.67540984,23.45 4.67540984,23.6 C4.72622951,23.65 4.62459016,23.75 4.47213115,23.75 L4.47213115,23.75 Z M4.11639344,19.25 C4.11639344,19.15 4.21803279,19 4.3704918,19.05 C4.47213115,19 4.57377049,19.1 4.57377049,19.2 C4.57377049,19.3 4.47213115,19.45 4.3704918,19.45 C4.21803279,19.45 4.11639344,19.35 4.11639344,19.25 L4.11639344,19.25 Z M3.96393443,22.35 C3.86229508,22.35 3.70983607,22.25 3.70983607,22.15 C3.70983607,22.05 3.81147541,21.95 3.91311475,21.95 C4.0147541,21.95 4.16721311,22.05 4.16721311,22.15 C4.16721311,22.25 4.06557377,22.35 3.96393443,22.35 L3.96393443,22.35 Z M3.91311475,14.85 C4.0147541,14.85 4.11639344,14.95 4.11639344,15.1 C4.11639344,15.2 4.0147541,15.3 3.86229508,15.3 C3.76065574,15.3 3.65901639,15.2 3.65901639,15.1 C3.70983607,14.95 3.81147541,14.85 3.91311475,14.85 L3.91311475,14.85 Z M3.4557377,20.8 C3.35409836,20.8 3.20163934,20.7 3.20163934,20.6 C3.20163934,20.5 3.30327869,20.4 3.4557377,20.4 C3.55737705,20.4 3.65901639,20.5 3.65901639,20.6 C3.70983607,20.7 3.60819672,20.8 3.4557377,20.8 L3.4557377,20.8 Z M3.4557377,23.15 C3.35409836,23.15 3.20163934,23.05 3.20163934,22.95 C3.20163934,22.85 3.30327869,22.7 3.40491803,22.7 C3.50655738,22.7 3.60819672,22.8 3.60819672,22.95 C3.65901639,23.05 3.55737705,23.15 3.4557377,23.15 L3.4557377,23.15 Z M3.04918033,19.1 C2.94754098,19.1 2.84590164,19 2.84590164,18.85 C2.84590164,18.75 2.94754098,18.65 3.04918033,18.65 C3.15081967,18.65 3.30327869,18.75 3.25245902,18.9 C3.30327869,19 3.20163934,19.1 3.04918033,19.1 L3.04918033,19.1 Z M2.89672131,21.85 C2.79508197,21.85 2.69344262,21.75 2.69344262,21.6 C2.69344262,21.5 2.79508197,21.4 2.89672131,21.4 C2.99836066,21.4 3.15081967,21.5 3.15081967,21.6 C3.15081967,21.75 3.04918033,21.85 2.89672131,21.85 L2.89672131,21.85 Z M2.64262295,22.55 C2.54098361,22.55 2.43934426,22.45 2.43934426,22.3 C2.43934426,22.2 2.54098361,22.1 2.64262295,22.1 C2.7442623,22.1 2.89672131,22.2 2.84590164,22.35 C2.84590164,22.45 2.7442623,22.55 2.64262295,22.55 L2.64262295,22.55 Z M2.23606557,20.15 C2.23606557,20.05 2.33770492,19.95 2.43934426,19.95 C2.54098361,19.95 2.69344262,20.05 2.64262295,20.2 C2.64262295,20.3 2.54098361,20.4 2.38852459,20.4 C2.33770492,20.35 2.23606557,20.25 2.23606557,20.15 L2.23606557,20.15 Z M2.13442623,21.3 C2.03278689,21.3 1.93114754,21.2 1.93114754,21.1 C1.93114754,21 2.03278689,20.85 2.13442623,20.85 C2.23606557,20.85 2.38852459,20.95 2.38852459,21.05 C2.33770492,21.2 2.23606557,21.3 2.13442623,21.3 L2.13442623,21.3 Z M1.67704918,19.95 C1.57540984,19.95 1.47377049,19.85 1.47377049,19.7 C1.47377049,19.6 1.57540984,19.5 1.67704918,19.5 C1.77868852,19.5 1.88032787,19.6 1.88032787,19.7 C1.93114754,19.85 1.8295082,19.95 1.67704918,19.95 L1.67704918,19.95 Z M1.32131148,18.4 C1.21967213,18.4 1.11803279,18.3 1.11803279,18.2 C1.11803279,18.1 1.21967213,17.95 1.37213115,18 C1.47377049,18 1.57540984,18.1 1.57540984,18.25 C1.57540984,18.35 1.47377049,18.45 1.32131148,18.4 L1.32131148,18.4 Z M1.11803279,19.55 C1.01639344,19.55 0.914754098,19.45 0.914754098,19.35 C0.914754098,19.25 1.01639344,19.1 1.11803279,19.1 C1.21967213,19.1 1.37213115,19.2 1.37213115,19.35 C1.37213115,19.45 1.2704918,19.55 1.11803279,19.55 L1.11803279,19.55 Z M0.914754098,16.6 C0.914754098,16.5 1.01639344,16.35 1.11803279,16.35 C1.21967213,16.35 1.37213115,16.45 1.37213115,16.55 C1.37213115,16.65 1.2704918,16.8 1.16885246,16.8 C1.01639344,16.8 0.914754098,16.75 0.914754098,16.6 L0.914754098,16.6 Z M0.813114754,14.95 C0.813114754,14.85 0.914754098,14.7 1.06721311,14.75 C1.16885246,14.75 1.2704918,14.85 1.2704918,15 C1.2704918,15.1 1.16885246,15.2 1.01639344,15.2 C0.914754098,15.15 0.813114754,15.05 0.813114754,14.95 L0.813114754,14.95 Z M1.11803279,13.25 C1.21967213,13.25 1.37213115,13.35 1.32131148,13.5 C1.32131148,13.6 1.21967213,13.7 1.06721311,13.7 C0.96557377,13.7 0.863934426,13.6 0.863934426,13.5 C0.914754098,13.35 1.01639344,13.2 1.11803279,13.25 L1.11803279,13.25 Z M0.914754098,10.75 C0.914754098,10.6 1.01639344,10.5 1.11803279,10.5 C1.21967213,10.5 1.37213115,10.6 1.37213115,10.75 C1.37213115,10.85 1.2704918,10.95 1.11803279,10.95 C1.01639344,10.95 0.914754098,10.85 0.914754098,10.75 L0.914754098,10.75 Z M1.57540984,11.85 C1.57540984,11.95 1.47377049,12.05 1.32131148,12.05 C1.21967213,12.05 1.11803279,11.95 1.11803279,11.8 C1.11803279,11.7 1.2704918,11.6 1.37213115,11.6 C1.47377049,11.65 1.57540984,11.75 1.57540984,11.85 L1.57540984,11.85 Z M1.67704918,10.1 C1.77868852,10.1 1.88032787,10.2 1.88032787,10.35 C1.88032787,10.45 1.77868852,10.55 1.62622951,10.55 C1.52459016,10.55 1.42295082,10.45 1.42295082,10.35 C1.47377049,10.2 1.57540984,10.1 1.67704918,10.1 L1.67704918,10.1 Z M2.13442623,8.75 C2.23606557,8.75 2.38852459,8.85 2.38852459,8.95 C2.38852459,9.05 2.28688525,9.15 2.13442623,9.15 C2.03278689,9.15 1.93114754,9.05 1.93114754,8.9 C1.88032787,8.85 1.98196721,8.75 2.13442623,8.75 L2.13442623,8.75 Z M2.08360656,11.75 C1.98196721,11.75 1.88032787,11.65 1.88032787,11.5 C1.88032787,11.4 1.98196721,11.3 2.08360656,11.3 C2.1852459,11.3 2.33770492,11.4 2.28688525,11.55 C2.33770492,11.65 2.23606557,11.75 2.08360656,11.75 L2.08360656,11.75 Z M2.08360656,18.3 C2.1852459,18.3 2.33770492,18.4 2.33770492,18.5 C2.33770492,18.6 2.23606557,18.75 2.13442623,18.75 C2.03278689,18.75 1.93114754,18.65 1.88032787,18.55 C1.88032787,18.4 1.98196721,18.3 2.08360656,18.3 L2.08360656,18.3 Z M1.8295082,16.55 C1.93114754,16.55 2.03278689,16.65 2.03278689,16.75 C2.03278689,16.85 1.93114754,16.95 1.77868852,16.95 C1.67704918,16.95 1.52459016,16.85 1.57540984,16.7 C1.62622951,16.65 1.72786885,16.55 1.8295082,16.55 L1.8295082,16.55 Z M1.62622951,13.25 C1.62622951,13.15 1.72786885,13.05 1.8295082,13.05 C1.93114754,13.05 2.08360656,13.15 2.08360656,13.25 C2.08360656,13.35 1.98196721,13.5 1.88032787,13.5 C1.72786885,13.5 1.62622951,13.4 1.62622951,13.25 L1.62622951,13.25 Z M1.72786885,14.75 C1.8295082,14.75 1.93114754,14.85 1.93114754,15 C1.93114754,15.1 1.8295082,15.2 1.67704918,15.2 C1.57540984,15.2 1.47377049,15.1 1.47377049,14.95 C1.52459016,14.85 1.62622951,14.75 1.72786885,14.75 L1.72786885,14.75 Z M2.43934426,9.7 C2.54098361,9.7 2.69344262,9.8 2.69344262,9.9 C2.69344262,10 2.59180328,10.15 2.49016393,10.15 C2.38852459,10.15 2.28688525,10.05 2.28688525,9.9 C2.23606557,9.8 2.33770492,9.7 2.43934426,9.7 L2.43934426,9.7 Z M2.64262295,7.5 C2.7442623,7.5 2.89672131,7.6 2.89672131,7.7 C2.89672131,7.8 2.79508197,7.95 2.69344262,7.95 C2.59180328,7.95 2.49016393,7.85 2.49016393,7.75 C2.38852459,7.6 2.49016393,7.5 2.64262295,7.5 L2.64262295,7.5 Z M3.15081967,8.45 C3.15081967,8.55 3.04918033,8.65 2.89672131,8.65 C2.79508197,8.65 2.69344262,8.55 2.69344262,8.4 C2.69344262,8.3 2.79508197,8.2 2.89672131,8.2 C3.04918033,8.2 3.15081967,8.3 3.15081967,8.45 L3.15081967,8.45 Z M3.4557377,6.9 C3.55737705,6.9 3.65901639,7 3.65901639,7.1 C3.65901639,7.2 3.55737705,7.3 3.4557377,7.3 C3.35409836,7.3 3.25245902,7.2 3.25245902,7.05 C3.20163934,7 3.35409836,6.9 3.4557377,6.9 L3.4557377,6.9 Z M3.25245902,9.45 C3.25245902,9.35 3.35409836,9.2 3.4557377,9.2 C3.55737705,9.2 3.70983607,9.3 3.70983607,9.4 C3.70983607,9.5 3.60819672,9.65 3.4557377,9.65 C3.35409836,9.65 3.25245902,9.55 3.25245902,9.45 L3.25245902,9.45 Z M2.84590164,11.2 C2.84590164,11.1 2.94754098,11 3.04918033,11 C3.15081967,11 3.30327869,11.1 3.25245902,11.2 C3.25245902,11.3 3.15081967,11.45 2.99836066,11.4 C2.94754098,11.4 2.84590164,11.3 2.84590164,11.2 L2.84590164,11.2 Z M2.79508197,13.3 C2.69344262,13.3 2.59180328,13.2 2.59180328,13.05 C2.59180328,12.95 2.69344262,12.85 2.84590164,12.85 C2.94754098,12.85 3.04918033,12.95 3.04918033,13.1 C3.04918033,13.2 2.89672131,13.3 2.79508197,13.3 L2.79508197,13.3 Z M2.49016393,15 C2.49016393,14.9 2.59180328,14.75 2.69344262,14.75 C2.79508197,14.75 2.89672131,14.85 2.94754098,14.95 C2.94754098,15.05 2.84590164,15.15 2.7442623,15.15 C2.59180328,15.25 2.49016393,15.15 2.49016393,15 L2.49016393,15 Z M2.79508197,16.75 C2.89672131,16.75 2.99836066,16.85 2.99836066,16.95 C2.99836066,17.05 2.89672131,17.2 2.79508197,17.2 C2.69344262,17.2 2.54098361,17.1 2.54098361,17 C2.59180328,16.85 2.69344262,16.75 2.79508197,16.75 L2.79508197,16.75 Z M3.96393443,7.65 C4.06557377,7.65 4.16721311,7.75 4.16721311,7.9 C4.16721311,8 4.06557377,8.1 3.91311475,8.1 C3.81147541,8.1 3.70983607,8 3.70983607,7.9 C3.70983607,7.75 3.81147541,7.65 3.96393443,7.65 L3.96393443,7.65 Z M4.26885246,17.2 C4.26885246,17.3 4.16721311,17.4 4.06557377,17.4 C3.96393443,17.4 3.81147541,17.3 3.81147541,17.2 C3.81147541,17.1 3.96393443,17 4.06557377,17 C4.16721311,17 4.26885246,17.1 4.26885246,17.2 L4.26885246,17.2 Z M4.06557377,13.05 C3.96393443,13.05 3.81147541,12.95 3.81147541,12.85 C3.81147541,12.75 3.91311475,12.6 4.06557377,12.65 C4.16721311,12.65 4.26885246,12.75 4.26885246,12.85 C4.26885246,12.95 4.16721311,13.05 4.06557377,13.05 L4.06557377,13.05 Z M4.31967213,10.6 C4.42131148,10.6 4.57377049,10.7 4.52295082,10.85 C4.52295082,10.95 4.42131148,11.05 4.31967213,11.05 C4.21803279,11.05 4.06557377,10.95 4.06557377,10.85 C4.11639344,10.7 4.21803279,10.6 4.31967213,10.6 L4.31967213,10.6 Z M4.47213115,6.3 C4.57377049,6.3 4.67540984,6.4 4.67540984,6.5 C4.67540984,6.6 4.57377049,6.75 4.42131148,6.7 C4.31967213,6.7 4.21803279,6.6 4.21803279,6.5 C4.26885246,6.45 4.3704918,6.3 4.47213115,6.3 L4.47213115,6.3 Z M4.72622951,8.75 C4.82786885,8.75 4.98032787,8.85 4.98032787,8.95 C4.98032787,9.05 4.87868852,9.2 4.72622951,9.15 C4.62459016,9.15 4.52295082,9.05 4.52295082,8.95 C4.52295082,8.85 4.62459016,8.75 4.72622951,8.75 L4.72622951,8.75 Z M5.03114754,5.15 C5.13278689,5.15 5.2852459,5.25 5.23442623,5.4 C5.23442623,5.5 5.13278689,5.6 4.98032787,5.6 C4.87868852,5.6 4.77704918,5.5 4.77704918,5.4 C4.82786885,5.25 4.9295082,5.15 5.03114754,5.15 L5.03114754,5.15 Z M5.43770492,7.35 C5.43770492,7.45 5.33606557,7.55 5.18360656,7.55 C5.08196721,7.55 4.98032787,7.45 4.98032787,7.35 C4.98032787,7.25 5.08196721,7.1 5.18360656,7.1 C5.33606557,7.1 5.43770492,7.25 5.43770492,7.35 L5.43770492,7.35 Z M5.74262295,15.1 C5.74262295,15.2 5.64098361,15.3 5.48852459,15.3 C5.38688525,15.3 5.2852459,15.2 5.2852459,15.1 C5.2852459,15 5.38688525,14.9 5.53934426,14.9 C5.64098361,14.9 5.74262295,15 5.74262295,15.1 L5.74262295,15.1 Z M5.64098361,12.4 C5.74262295,12.4 5.89508197,12.5 5.89508197,12.6 C5.89508197,12.7 5.79344262,12.85 5.69180328,12.85 C5.59016393,12.85 5.43770492,12.75 5.43770492,12.65 C5.43770492,12.5 5.53934426,12.4 5.64098361,12.4 L5.64098361,12.4 Z M5.74262295,5.7 C5.8442623,5.7 5.94590164,5.8 5.94590164,5.95 C5.94590164,6.05 5.8442623,6.15 5.74262295,6.15 C5.64098361,6.15 5.48852459,6.05 5.48852459,5.95 C5.53934426,5.85 5.64098361,5.7 5.74262295,5.7 L5.74262295,5.7 Z M6.14918033,10.45 C6.14918033,10.55 6.04754098,10.65 5.89508197,10.65 C5.79344262,10.65 5.69180328,10.55 5.69180328,10.4 C5.69180328,10.3 5.79344262,10.2 5.94590164,10.2 C6.09836066,10.2 6.14918033,10.3 6.14918033,10.45 L6.14918033,10.45 Z M6.35245902,4.55 C6.50491803,4.55 6.5557377,4.65 6.5557377,4.8 C6.5557377,4.9 6.45409836,5 6.30163934,5 C6.2,5 6.09836066,4.9 6.09836066,4.75 C6.09836066,4.65 6.2,4.55 6.35245902,4.55 L6.35245902,4.55 Z M6.80983607,6.6 C6.91147541,6.6 7.01311475,6.7 7.01311475,6.85 C7.01311475,6.95 6.91147541,7.05 6.75901639,7.05 C6.65737705,7.05 6.5557377,6.95 6.5557377,6.8 C6.60655738,6.65 6.70819672,6.55 6.80983607,6.6 L6.80983607,6.6 Z M6.86065574,3.6 C6.96229508,3.6 7.1147541,3.7 7.1147541,3.8 C7.1147541,3.9 7.01311475,4.05 6.86065574,4 C6.75901639,4 6.65737705,3.9 6.65737705,3.8 C6.65737705,3.7 6.75901639,3.6 6.86065574,3.6 L6.86065574,3.6 Z M7.31803279,5.15 C7.41967213,5.15 7.57213115,5.25 7.57213115,5.4 C7.57213115,5.5 7.4704918,5.6 7.36885246,5.6 C7.26721311,5.6 7.16557377,5.5 7.16557377,5.4 C7.1147541,5.25 7.21639344,5.15 7.31803279,5.15 L7.31803279,5.15 Z M7.41967213,2.8 C7.52131148,2.8 7.62295082,2.95 7.62295082,3.05 C7.62295082,3.15 7.52131148,3.25 7.36885246,3.25 C7.26721311,3.25 7.16557377,3.15 7.16557377,3 C7.21639344,2.9 7.31803279,2.8 7.41967213,2.8 L7.41967213,2.8 Z M7.82622951,4 C7.92786885,4 8.08032787,4.1 8.08032787,4.2 C8.08032787,4.3 7.97868852,4.45 7.82622951,4.4 C7.72459016,4.4 7.62295082,4.3 7.62295082,4.15 C7.62295082,4.1 7.72459016,4 7.82622951,4 L7.82622951,4 Z M8.13114754,10.05 C8.13114754,10.15 8.0295082,10.25 7.92786885,10.25 C7.77540984,10.25 7.67377049,10.15 7.72459016,10 C7.72459016,9.9 7.82622951,9.8 7.92786885,9.8 C8.0295082,9.85 8.13114754,9.95 8.13114754,10.05 L8.13114754,10.05 Z M8.28360656,7.8 C8.3852459,7.8 8.53770492,7.9 8.53770492,8 C8.53770492,8.1 8.43606557,8.25 8.28360656,8.2 C8.18196721,8.2 8.08032787,8.1 8.08032787,7.95 C8.08032787,7.9 8.18196721,7.8 8.28360656,7.8 L8.28360656,7.8 Z M8.33442623,3.05 C8.43606557,3.05 8.58852459,3.15 8.53770492,3.25 C8.53770492,3.35 8.43606557,3.45 8.28360656,3.45 C8.18196721,3.45 8.08032787,3.35 8.08032787,3.2 C8.13114754,3.15 8.23278689,3.05 8.33442623,3.05 L8.33442623,3.05 Z M8.79180328,2.3 C8.89344262,2.3 9.04590164,2.4 9.04590164,2.5 C9.04590164,2.6 8.9442623,2.7 8.84262295,2.7 C8.74098361,2.7 8.58852459,2.6 8.63934426,2.45 C8.58852459,2.4 8.69016393,2.3 8.79180328,2.3 L8.79180328,2.3 Z M9.24918033,1.7 C9.35081967,1.7 9.50327869,1.8 9.50327869,1.9 C9.50327869,2 9.40163934,2.15 9.3,2.15 C9.19836066,2.15 9.04590164,2.05 9.04590164,1.95 C9.04590164,1.8 9.14754098,1.7 9.24918033,1.7 L9.24918033,1.7 Z M8.9442623,6.3 C8.9442623,6.4 8.84262295,6.55 8.74098361,6.55 C8.63934426,6.55 8.48688525,6.45 8.48688525,6.35 C8.48688525,6.25 8.58852459,6.15 8.69016393,6.15 C8.84262295,6.05 8.9442623,6.15 8.9442623,6.3 L8.9442623,6.3 Z M8.9442623,4.85 C8.9442623,4.75 9.04590164,4.65 9.14754098,4.65 C9.24918033,4.65 9.40163934,4.75 9.40163934,4.85 C9.40163934,4.95 9.3,5.1 9.14754098,5.05 C9.04590164,5.1 8.9442623,5 8.9442623,4.85 L8.9442623,4.85 Z M9.55409836,3.5 C9.6557377,3.5 9.80819672,3.6 9.80819672,3.7 C9.80819672,3.8 9.70655738,3.95 9.55409836,3.9 C9.45245902,3.9 9.35081967,3.8 9.35081967,3.7 C9.35081967,3.6 9.45245902,3.5 9.55409836,3.5 L9.55409836,3.5 Z M10.0114754,2.55 C10.1131148,2.55 10.2147541,2.65 10.2147541,2.8 C10.2147541,2.9 10.1131148,3 10.0114754,3 C9.90983607,3 9.80819672,2.9 9.80819672,2.75 C9.75737705,2.65 9.85901639,2.55 10.0114754,2.55 L10.0114754,2.55 Z M10.3672131,1.85 C10.4688525,1.85 10.6213115,1.95 10.5704918,2.1 C10.5704918,2.2 10.4688525,2.3 10.3163934,2.3 C10.2147541,2.3 10.1131148,2.2 10.1131148,2.05 C10.1639344,1.95 10.2655738,1.85 10.3672131,1.85 L10.3672131,1.85 Z M10.7737705,1.3 C10.8754098,1.3 10.9770492,1.4 10.9770492,1.55 C10.9770492,1.65 10.8754098,1.75 10.7737705,1.75 C10.6721311,1.75 10.5704918,1.65 10.5704918,1.5 C10.5196721,1.4 10.6213115,1.3 10.7737705,1.3 L10.7737705,1.3 Z M10.5196721,9.7 C10.5196721,9.8 10.4180328,9.95 10.3163934,9.95 C10.2147541,9.95 10.0622951,9.85 10.0622951,9.75 C10.0622951,9.65 10.1639344,9.55 10.2655738,9.55 C10.3672131,9.45 10.5196721,9.55 10.5196721,9.7 L10.5196721,9.7 Z M10.3672131,7.65 C10.3672131,7.55 10.4688525,7.4 10.5704918,7.4 C10.6721311,7.4 10.8245902,7.5 10.7737705,7.65 C10.7737705,7.75 10.6721311,7.85 10.5704918,7.85 C10.4688525,7.85 10.3672131,7.75 10.3672131,7.65 L10.3672131,7.65 Z M10.9262295,6.1 C10.8245902,6.1 10.7229508,6 10.7229508,5.85 C10.7229508,5.75 10.8245902,5.65 10.9262295,5.65 C11.0278689,5.65 11.1803279,5.75 11.1803279,5.85 C11.1295082,6 11.0278689,6.1 10.9262295,6.1 L10.9262295,6.1 Z M10.9262295,23.95 C11.0278689,23.95 11.1803279,24.05 11.1803279,24.2 C11.1803279,24.3 11.0786885,24.4 10.9262295,24.4 C10.8245902,24.4 10.7229508,24.3 10.7229508,24.15 C10.7229508,24.05 10.8245902,23.95 10.9262295,23.95 L10.9262295,23.95 Z M10.2655738,20.55 C10.1639344,20.55 10.0622951,20.45 10.0622951,20.35 C10.0622951,20.25 10.1639344,20.1 10.3163934,20.1 C10.4180328,20.1 10.5196721,20.2 10.5196721,20.3 C10.5196721,20.45 10.4180328,20.55 10.2655738,20.55 L10.2655738,20.55 Z M10.5704918,22.2 C10.6721311,22.2 10.8245902,22.3 10.7737705,22.45 C10.7737705,22.55 10.6721311,22.65 10.5704918,22.65 C10.4688525,22.65 10.3163934,22.55 10.3163934,22.45 C10.3672131,22.3 10.4688525,22.2 10.5704918,22.2 L10.5704918,22.2 Z M11.2311475,4.25 C11.3327869,4.25 11.4344262,4.35 11.4344262,4.45 C11.4344262,4.55 11.3327869,4.65 11.2311475,4.65 C11.1295082,4.65 11.0278689,4.55 11.0278689,4.4 C11.0278689,4.35 11.1295082,4.25 11.2311475,4.25 L11.2311475,4.25 Z M11.5360656,3.1 C11.6377049,3.1 11.7901639,3.2 11.7901639,3.3 C11.7901639,3.4 11.6885246,3.5 11.5360656,3.5 C11.4344262,3.5 11.3327869,3.4 11.3327869,3.25 C11.3327869,3.2 11.4344262,3.1 11.5360656,3.1 L11.5360656,3.1 Z M11.8409836,2.2 C11.942623,2.2 12.0442623,2.3 12.0442623,2.45 C12.0442623,2.55 11.942623,2.65 11.7901639,2.65 C11.6885246,2.65 11.5868852,2.55 11.5868852,2.45 C11.5868852,2.3 11.7393443,2.2 11.8409836,2.2 L11.8409836,2.2 Z M12.095082,1.5 C12.1967213,1.5 12.3491803,1.6 12.2983607,1.75 C12.2983607,1.85 12.1967213,1.95 12.0442623,1.95 C11.942623,1.95 11.8409836,1.85 11.8409836,1.7 C11.8918033,1.6 11.9934426,1.5 12.095082,1.5 L12.095082,1.5 Z M13.0098361,9.2 C13.1114754,9.2 13.2131148,9.3 13.2131148,9.4 C13.2131148,9.5 13.1114754,9.6 13.0098361,9.6 C12.9081967,9.6 12.7557377,9.5 12.7557377,9.4 C12.8065574,9.3 12.9081967,9.2 13.0098361,9.2 L13.0098361,9.2 Z M13.2131148,7.15 C13.3147541,7.15 13.4163934,7.25 13.4163934,7.35 C13.4163934,7.45 13.3147541,7.6 13.2131148,7.6 C13.1114754,7.6 13.0098361,7.5 13.0098361,7.4 C12.9590164,7.25 13.0606557,7.15 13.2131148,7.15 L13.2131148,7.15 Z M13.3655738,5.4 C13.4672131,5.4 13.5688525,5.5 13.5688525,5.65 C13.5688525,5.8 13.4672131,5.85 13.3147541,5.85 C13.2131148,5.85 13.1114754,5.75 13.1114754,5.6 C13.1622951,5.5 13.2639344,5.4 13.3655738,5.4 L13.3655738,5.4 Z M13.5180328,4 C13.6196721,4 13.7213115,4.1 13.7213115,4.2 C13.7213115,4.3 13.6196721,4.45 13.5180328,4.45 C13.4163934,4.45 13.2639344,4.35 13.2639344,4.2 C13.3147541,4.1 13.4163934,4 13.5180328,4 L13.5180328,4 Z M13.6704918,2.85 C13.7721311,2.85 13.8737705,2.95 13.8737705,3.1 C13.8737705,3.2 13.7721311,3.3 13.6196721,3.3 C13.5180328,3.3 13.4163934,3.2 13.4163934,3.05 C13.4672131,2.95 13.5688525,2.85 13.6704918,2.85 L13.6704918,2.85 Z M13.7721311,1.95 C13.8737705,1.95 14.0262295,2.05 14.0262295,2.15 C14.0262295,2.25 13.9245902,2.4 13.8229508,2.4 C13.7213115,2.4 13.6196721,2.3 13.6196721,2.2 C13.5688525,2.1 13.6704918,2 13.7721311,1.95 L13.7721311,1.95 Z M13.9245902,1.3 C14.0262295,1.3 14.1786885,1.4 14.1278689,1.55 C14.1278689,1.65 14.0262295,1.75 13.8737705,1.75 C13.7721311,1.75 13.6704918,1.65 13.6704918,1.5 C13.7213115,1.4 13.8229508,1.3 13.9245902,1.3 L13.9245902,1.3 Z M15.804918,1.25 C15.9065574,1.25 16.0081967,1.35 16.0590164,1.45 C16.0590164,1.55 15.957377,1.7 15.8557377,1.7 C15.7540984,1.7 15.652459,1.6 15.652459,1.5 C15.5508197,1.35 15.652459,1.25 15.804918,1.25 L15.804918,1.25 Z M15.804918,2.35 C15.7032787,2.35 15.5508197,2.25 15.6016393,2.1 C15.6016393,2 15.7032787,1.9 15.804918,1.9 C15.9065574,1.9 16.0081967,2 16.0081967,2.15 C16.0590164,2.25 15.957377,2.35 15.804918,2.35 L15.804918,2.35 Z M15.8557377,3.25 C15.7540984,3.25 15.652459,3.15 15.652459,3.05 C15.652459,2.95 15.7540984,2.8 15.8557377,2.8 C15.957377,2.8 16.0590164,2.9 16.0590164,3.05 C16.0590164,3.15 15.957377,3.25 15.8557377,3.25 L15.8557377,3.25 Z M15.9065574,4.4 C15.804918,4.4 15.7032787,4.3 15.7032787,4.15 C15.7032787,4.05 15.804918,3.95 15.957377,3.95 C16.0590164,3.95 16.1606557,4.05 16.1606557,4.2 C16.1098361,4.3 16.0081967,4.4 15.9065574,4.4 L15.9065574,4.4 Z M16.1606557,5.55 C16.1606557,5.65 16.0590164,5.8 15.957377,5.8 C15.8557377,5.8 15.7032787,5.7 15.7540984,5.55 C15.7540984,5.45 15.8557377,5.35 15.957377,5.35 C16.0590164,5.35 16.1606557,5.45 16.1606557,5.55 L16.1606557,5.55 Z M15.957377,7.5 C15.8557377,7.5 15.7540984,7.4 15.7540984,7.25 C15.7540984,7.15 15.8557377,7.05 15.957377,7.05 C16.0590164,7.05 16.2114754,7.15 16.1606557,7.25 C16.2114754,7.4 16.1098361,7.5 15.957377,7.5 L15.957377,7.5 Z M16.2622951,9.35 C16.2622951,9.45 16.1606557,9.55 16.0590164,9.55 C15.957377,9.55 15.804918,9.45 15.8557377,9.3 C15.8557377,9.2 15.957377,9.1 16.1098361,9.1 C16.1606557,9.15 16.2622951,9.25 16.2622951,9.35 L16.2622951,9.35 Z M30.5934426,16.45 C30.5934426,16.45 30.5934426,16.45 30.5934426,16.45 C30.3901639,16.65 30.3393443,16.65 30.1360656,16.5 C30.0852459,16.7 29.9836066,16.8 29.8311475,16.75 C29.7295082,16.7 29.6278689,16.55 29.6786885,16.45 C29.7295082,16.4 29.7803279,16.35 29.8311475,16.35 C29.9327869,16.35 30.0344262,16.4 30.1360656,16.4 C30.1360656,16.3 30.1868852,16.2 30.3393443,16.15 C30.4918033,16.1 30.6442623,16 30.7459016,15.85 C30.7459016,15.7 30.7459016,15.55 30.7459016,15.4 C30.7459016,15.3 30.7459016,15.15 30.7459016,15.05 C30.695082,15.05 30.695082,15.05 30.6442623,15.05 C30.4918033,15.1 30.3901639,15.1 30.2885246,15 C30.1360656,15.15 30.0344262,15.2 29.8819672,15.1 C29.7803279,15 29.7803279,14.9 29.8819672,14.8 C29.9836066,14.7 30.0852459,14.7 30.2377049,14.8 C30.3901639,14.7 30.3901639,14.7 30.5934426,14.7 C30.5934426,14.7 30.6442623,14.7 30.6442623,14.7 C30.695082,14.7 30.7459016,14.7 30.7459016,14.65 C30.7459016,14.5 30.7459016,14.35 30.7459016,14.15 C30.6442623,14.05 30.542623,13.95 30.4409836,13.9 C30.2885246,13.85 30.1868852,13.8 30.1868852,13.6 C29.9836066,13.75 29.8819672,13.75 29.7803279,13.6 C29.7295082,13.5 29.7803279,13.35 29.8819672,13.3 C29.9327869,13.3 30.0344262,13.25 30.0344262,13.3 C30.0852459,13.35 30.1868852,13.45 30.2377049,13.5 C30.2885246,13.5 30.4409836,13.4 30.4918033,13.45 C30.5934426,13.5 30.695082,13.55 30.7967213,13.6 C30.7967213,13.5 30.7967213,13.4 30.7967213,13.3 C30.695082,13.25 30.6442623,13.2 30.6442623,13.1 C30.6442623,12.95 30.542623,12.85 30.4918033,12.75 C30.4409836,12.65 30.3393443,12.6 30.2885246,12.5 C30.2885246,12.5 30.2885246,12.45 30.2885246,12.45 C30.1360656,12.45 30.0344262,12.35 30.0344262,12.25 C30.0344262,12.15 30.0852459,12.05 30.2377049,12 C30.3393443,12 30.4409836,12.05 30.4918033,12.2 C30.4918033,12.25 30.4918033,12.25 30.542623,12.3 C30.5934426,12 30.3901639,11.75 30.2885246,11.5 C30.0852459,11.45 30.0344262,11.3 30.1360656,11.15 C29.8819672,11.15 29.7803279,11.1 29.7803279,11 C29.7295082,10.85 29.8311475,10.8 30.0344262,10.7 C30.0344262,10.6 30.0344262,10.55 30.0344262,10.45 C30.0344262,10.4 29.9836066,10.35 29.9327869,10.35 C29.7803279,10.3 29.7295082,10.15 29.8311475,10 C29.8819672,9.9 29.8819672,9.85 29.9327869,9.75 C29.9327869,9.75 29.8819672,9.75 29.8819672,9.75 C29.8819672,9.8 29.8311475,9.8 29.8311475,9.85 C29.7803279,9.9 29.6786885,9.95 29.6278689,9.95 C29.5770492,9.95 29.4754098,9.85 29.4754098,9.75 C29.4245902,9.65 29.5262295,9.55 29.5770492,9.55 C29.7295082,9.5 29.7295082,9.4 29.7295082,9.3 C29.4245902,9.3 29.3229508,9.2 29.4245902,8.9 C29.3737705,8.85 29.3229508,8.75 29.1704918,8.8 C29.1196721,8.8 29.0180328,8.75 28.9672131,8.65 C28.9163934,8.6 28.9672131,8.5 28.9672131,8.45 C28.9672131,8.4 29.0180328,8.4 29.0688525,8.35 C28.8147541,8.3 28.9163934,8.05 28.8147541,7.95 C28.8655738,8.1 28.8147541,8.2 28.7131148,8.25 C28.6114754,8.3 28.5098361,8.3 28.4590164,8.2 C28.4081967,8.15 28.357377,8.05 28.4081967,7.95 C28.5098361,7.8 28.6114754,7.8 28.7639344,7.85 C28.7131148,7.8 28.6622951,7.8 28.6622951,7.75 C28.5098361,7.75 28.4081967,7.6 28.4590164,7.5 C28.5098361,7.3 28.357377,7.2 28.3065574,7.1 C28.2557377,7.1 28.2557377,7.1 28.2557377,7.1 C28.1540984,7.2 28.052459,7.2 27.9508197,7.15 C27.8491803,7.05 27.8491803,6.95 27.9,6.85 C27.9,6.8 27.9,6.8 27.9,6.75 C27.9,6.55 27.7983607,6.45 27.6967213,6.35 C27.6967213,6.3 27.6459016,6.3 27.595082,6.3 C27.595082,6.35 27.5442623,6.35 27.5442623,6.4 C27.5442623,6.55 27.442623,6.65 27.3409836,6.65 C27.2393443,6.65 27.1377049,6.6 27.0868852,6.5 C27.0360656,6.4 27.0868852,6.3 27.1885246,6.2 C27.2393443,6.2 27.2393443,6.15 27.2393443,6.15 C27.2393443,5.95 27.2393443,5.75 27.0868852,5.6 C26.9852459,5.5 26.9852459,5.45 26.8836066,5.6 C26.7819672,5.75 26.6295082,5.75 26.5278689,5.6 C26.4262295,5.5 26.4770492,5.35 26.6295082,5.25 C26.7311475,5.2 26.7819672,5.15 26.6803279,5.05 C26.5786885,4.95 26.4770492,4.9 26.3245902,4.85 C26.3245902,4.85 26.2737705,4.85 26.2737705,4.85 C26.1721311,4.85 26.1213115,4.85 26.0196721,4.9 C25.9180328,5.05 25.8163934,5.1 25.7147541,5.05 C25.4606557,4.85 25.4098361,4.7 25.4098361,4.6 C25.4606557,4.45 25.5622951,4.4 25.8163934,4.45 C25.8163934,4.4 25.8163934,4.3 25.8163934,4.3 C25.7655738,4.25 25.7147541,4.2 25.6639344,4.15 C25.5114754,4.05 25.3590164,3.95 25.1557377,4.05 C25.0540984,4.1 24.952459,4.05 24.9016393,3.95 C24.8508197,3.85 24.8508197,3.75 24.952459,3.65 C25.0032787,3.6 25.0032787,3.6 25.0540984,3.55 C24.9016393,3.55 24.8,3.55 24.7491803,3.5 C24.6983607,3.45 24.647541,3.45 24.5459016,3.45 C24.3934426,3.5 24.2409836,3.4 24.2409836,3.25 C24.2409836,3.05 24.1393443,2.95 23.9360656,2.95 C23.8344262,2.95 23.7327869,2.9 23.6819672,2.8 C23.6819672,2.75 23.6311475,2.7 23.5803279,2.65 C23.5295082,2.7 23.5295082,2.75 23.4786885,2.8 C23.4278689,2.9 23.2754098,2.9 23.1737705,2.85 C23.0721311,2.8 23.0213115,2.65 23.0721311,2.55 C23.1737705,2.4 23.0213115,2.35 23.0213115,2.25 C22.8688525,2.4 22.7672131,2.4 22.6655738,2.35 C22.5639344,2.3 22.5131148,2.2 22.5639344,2.05 C22.7163934,2 22.6147541,2 22.5639344,2 C22.4622951,2 22.4114754,2.05 22.3606557,2.05 C22.3606557,2.25 22.3098361,2.35 22.157377,2.35 C22.0557377,2.35 21.9540984,2.3 21.9032787,2.2 C21.852459,2.05 21.9032787,2 22.157377,1.9 C22.1065574,1.8 21.9032787,1.75 21.852459,1.85 C21.7508197,1.95 21.7,2 21.547541,1.95 C21.4459016,1.9 21.395082,1.8 21.4459016,1.7 C21.4459016,1.65 21.4459016,1.6 21.3442623,1.65 C21.1409836,1.7 21.0901639,1.7 20.9885246,1.5 C20.9885246,1.45 20.9377049,1.45 20.8868852,1.45 C20.7852459,1.4 20.7344262,1.4 20.6327869,1.35 C20.5819672,1.35 20.5819672,1.3 20.5311475,1.25 C20.5311475,1.3 20.4803279,1.35 20.4803279,1.35 C20.4803279,1.45 20.3786885,1.55 20.2262295,1.55 C20.1245902,1.55 20.0229508,1.45 20.0229508,1.35 C20.0229508,1.3 20.0229508,1.3 20.0229508,1.25 C19.9213115,1.25 19.8196721,1.25 19.8196721,1.25 C19.7180328,1.15 19.5655738,1.1 19.4639344,1 C19.3622951,0.95 19.2098361,0.9 19.1081967,0.85 C19.1081967,0.85 19.057377,0.85 19.0065574,0.85 C19.0065574,0.9 19.0065574,0.9 19.0065574,0.95 C19.0065574,1.05 18.9557377,1.15 18.904918,1.2 C18.8032787,1.25 18.7016393,1.25 18.6508197,1.15 C18.6,1 18.4983607,0.95 18.3967213,0.85 C18.3967213,0.85 18.3967213,0.85 18.3967213,0.85 C18.295082,0.8 18.1934426,0.7 18.0409836,0.65 C17.9393443,0.55 17.8377049,0.5 17.7868852,0.4 C17.6852459,0.35 17.4819672,0.3 17.3295082,0.3 C17.3295082,0.3 17.3295082,0.3 17.3295082,0.3 C17.3295082,0.3 17.3295082,0.3 17.3295082,0.3 C17.3803279,0.4 17.4311475,0.45 17.4819672,0.55 C17.4819672,0.6 17.5327869,0.65 17.5327869,0.7 C17.4819672,0.8 17.5327869,0.8 17.5836066,0.85 C17.6852459,0.9 17.6852459,1.05 17.6344262,1.15 C17.5836066,1.25 17.4819672,1.3 17.3803279,1.25 C17.2786885,1.2 17.2278689,1.1 17.2786885,1 C17.2786885,1 17.2786885,0.95 17.2786885,0.95 C17.2278689,0.85 17.1262295,0.8 17.1262295,0.75 C17.0754098,0.6 17.0245902,0.55 16.9229508,0.6 C16.9229508,0.55 16.9229508,0.45 16.8721311,0.45 C16.7704918,0.4 16.6688525,0.35 16.6688525,0.25 C16.5672131,0.25 16.4655738,0.25 16.4147541,0.25 C16.3639344,0.25 16.3639344,0.25 16.3131148,0.25 C16.2622951,0.25 16.2114754,0.25 16.2114754,0.25 C16.1606557,0.25 16.0590164,0.25 16.0081967,0.25 C16.0081967,0.4 16.0590164,0.5 16.0590164,0.65 C16.0590164,0.75 16.0590164,0.9 16.1098361,1 C16.1606557,1.1 16.0081967,1.25 15.9065574,1.25 C15.804918,1.25 15.652459,1.15 15.7032787,1 C15.7540984,0.9 15.7540984,0.8 15.7032787,0.7 C15.7032787,0.7 15.7032787,0.65 15.7032787,0.65 C15.7032787,0.5 15.652459,0.4 15.652459,0.25 C15.3983607,0.25 15.1442623,0.25 14.8393443,0.3 C14.7885246,0.35 14.7885246,0.4 14.6868852,0.4 C14.6360656,0.4 14.6360656,0.45 14.5852459,0.5 C14.5344262,0.6 14.4836066,0.75 14.4327869,0.85 C14.2803279,0.85 14.2295082,0.9 14.2295082,0.95 C14.2803279,1.1 14.1786885,1.2 14.0262295,1.2 C13.9245902,1.2 13.7721311,1.1 13.7721311,1 C13.7721311,0.9 13.8737705,0.85 13.8737705,0.75 C13.8737705,0.65 13.8229508,0.6 13.8737705,0.5 C13.9245902,0.4 13.9245902,0.35 13.9754098,0.25 C13.9245902,0.25 13.8229508,0.25 13.7721311,0.25 C13.6704918,0.25 13.5688525,0.25 13.4163934,0.3 C13.4163934,0.35 13.3655738,0.4 13.2639344,0.45 C13.1622951,0.5 13.0606557,0.55 12.9590164,0.6 C12.857377,0.65 12.7557377,0.75 12.704918,0.8 C12.6540984,0.95 12.552459,1 12.4508197,1.05 C12.5016393,1.25 12.4508197,1.35 12.3491803,1.4 C12.247541,1.45 12.095082,1.35 12.0442623,1.25 C11.9934426,1.1 12.095082,1 12.2983607,0.95 C12.247541,0.8 12.247541,0.7 12.4508197,0.6 C12.4508197,0.6 12.5016393,0.55 12.5016393,0.55 C12.552459,0.5 12.552459,0.5 12.6032787,0.45 C12.5016393,0.45 12.4,0.5 12.3491803,0.5 C12.3491803,0.6 12.2983607,0.65 12.1967213,0.65 C12.095082,0.7 11.9934426,0.7 11.8918033,0.75 C11.7901639,0.8 11.6377049,0.8 11.5868852,0.9 C11.4852459,1 11.4344262,1.05 11.2819672,1.05 C11.2311475,1.25 11.1803279,1.35 11.0278689,1.35 C10.9262295,1.35 10.8245902,1.3 10.7737705,1.05 C10.7229508,1.05 10.6213115,1.05 10.5704918,1.1 C10.4688525,1.2 10.3672131,1.25 10.2655738,1.2 C10.2147541,1.3 10.1639344,1.4 10.0622951,1.4 C9.96065574,1.45 9.85901639,1.4 9.80819672,1.35 C9.85901639,1.55 9.80819672,1.65 9.70655738,1.7 C9.60491803,1.75 9.50327869,1.7 9.35081967,1.55 C9.24918033,1.6 9.09672131,1.6 9.04590164,1.65 C8.89344262,1.85 8.74098361,1.85 8.53770492,1.8 C8.53770492,1.8 8.53770492,1.8 8.48688525,1.8 C8.48688525,1.8 8.48688525,1.85 8.48688525,1.85 C8.69016393,2 8.63934426,2.1 8.53770492,2.15 C8.43606557,2.2 8.33442623,2.2 8.23278689,2.1 C8.18196721,2.05 8.13114754,2.05 8.0295082,2 C8.0295082,2.1 7.97868852,2.2 8.08032787,2.3 C8.18196721,2.35 8.18196721,2.45 8.13114754,2.55 C8.08032787,2.65 7.97868852,2.7 7.87704918,2.65 C7.77540984,2.6 7.72459016,2.55 7.72459016,2.4 C7.72459016,2.35 7.72459016,2.35 7.72459016,2.3 C7.62295082,2.35 7.57213115,2.45 7.52131148,2.55 C7.4704918,2.7 7.36885246,2.75 7.21639344,2.7 C7.06393443,2.7 6.96229508,2.8 6.96229508,2.95 C6.96229508,3.05 6.96229508,3.15 6.86065574,3.2 C6.75901639,3.25 6.65737705,3.25 6.60655738,3.15 C6.60655738,3.15 6.5557377,3.1 6.50491803,3.1 C6.50491803,3.35 6.2,3.25 6.14918033,3.4 C6.30163934,3.4 6.40327869,3.45 6.40327869,3.6 C6.40327869,3.7 6.35245902,3.8 6.25081967,3.85 C6.09836066,3.9 5.99672131,3.8 5.94590164,3.75 C5.8442623,3.8 5.79344262,3.85 5.74262295,3.85 C5.59016393,3.85 5.43770492,3.95 5.33606557,4.05 C5.33606557,4.05 5.33606557,4.1 5.33606557,4.15 C5.33606557,4.2 5.38688525,4.3 5.43770492,4.35 C5.53934426,4.25 5.64098361,4.2 5.74262295,4.3 C5.79344262,4.35 5.8442623,4.45 5.8442623,4.55 C5.8442623,4.65 5.74262295,4.7 5.64098361,4.7 C5.48852459,4.7 5.38688525,4.55 5.38688525,4.4 C5.2852459,4.5 5.18360656,4.5 5.03114754,4.45 C4.98032787,4.45 4.87868852,4.45 4.82786885,4.5 C4.72622951,4.6 4.57377049,4.7 4.3704918,4.65 C4.47213115,4.7 4.57377049,4.8 4.67540984,4.85 C4.77704918,4.9 4.82786885,4.95 4.82786885,5.05 C4.82786885,5.15 4.77704918,5.25 4.67540984,5.25 C4.57377049,5.3 4.47213115,5.25 4.42131148,5.2 C4.3704918,5.1 4.26885246,5.1 4.16721311,5.1 C4.11639344,5.1 4.06557377,5.1 4.0147541,5.1 C3.96393443,5.1 3.91311475,5.1 3.91311475,5.1 C3.86229508,5.15 3.86229508,5.2 3.86229508,5.25 C3.86229508,5.3 3.86229508,5.35 3.86229508,5.4 C3.86229508,5.45 3.86229508,5.45 3.86229508,5.5 C3.91311475,5.6 3.91311475,5.65 3.96393443,5.75 C4.11639344,5.8 4.21803279,5.9 4.21803279,6 C4.21803279,6.1 4.11639344,6.2 4.0147541,6.2 C3.86229508,6.2 3.81147541,6.1 3.76065574,5.9 C3.60819672,5.9 3.55737705,5.8 3.50655738,5.65 C3.40491803,5.8 3.50655738,6.05 3.30327869,6.1 C3.35409836,6.15 3.40491803,6.15 3.40491803,6.2 C3.25245902,6.3 3.25245902,6.35 3.35409836,6.5 C3.4557377,6.6 3.40491803,6.75 3.30327869,6.8 C3.20163934,6.85 3.04918033,6.85 2.99836066,6.75 C2.99836066,6.7 2.94754098,6.7 2.94754098,6.65 C2.79508197,6.8 2.69344262,7 2.7442623,7.2 C2.7442623,7.25 2.69344262,7.35 2.64262295,7.4 C2.59180328,7.45 2.49016393,7.4 2.38852459,7.45 C2.38852459,7.5 2.33770492,7.55 2.33770492,7.6 C2.28688525,7.65 2.28688525,7.7 2.28688525,7.8 C2.28688525,7.9 2.23606557,8 2.1852459,8 C2.08360656,8 2.08360656,8 2.03278689,8 C2.08360656,8 2.08360656,8.05 2.08360656,8.05 C2.23606557,8.1 2.23606557,8.25 2.1852459,8.35 C2.13442623,8.45 2.03278689,8.5 1.88032787,8.45 C1.8295082,8.45 1.8295082,8.45 1.77868852,8.45 C1.67704918,8.45 1.62622951,8.5 1.52459016,8.55 C1.52459016,8.55 1.52459016,8.55 1.52459016,8.55 C1.52459016,8.55 1.52459016,8.55 1.57540984,8.55 C1.67704918,8.6 1.77868852,8.7 1.72786885,8.8 C1.72786885,8.95 1.62622951,9 1.47377049,9 C1.42295082,9 1.37213115,9 1.32131148,9.05 C1.42295082,9.15 1.42295082,9.25 1.57540984,9.25 C1.67704918,9.25 1.72786885,9.35 1.77868852,9.45 C1.77868852,9.55 1.72786885,9.65 1.62622951,9.7 C1.52459016,9.75 1.42295082,9.7 1.37213115,9.6 C1.37213115,9.55 1.32131148,9.55 1.32131148,9.5 C1.2704918,9.5 1.21967213,9.5 1.11803279,9.5 C1.16885246,9.6 1.2704918,9.7 1.32131148,9.75 C1.37213115,9.85 1.37213115,9.95 1.32131148,10.05 C1.21967213,10.15 1.11803279,10.15 1.01639344,10.1 C0.96557377,10.1 0.96557377,10.05 0.914754098,10.05 C0.914754098,10.15 1.01639344,10.25 1.01639344,10.3 C1.01639344,10.45 0.914754098,10.5 0.813114754,10.5 C0.813114754,10.65 0.762295082,10.75 0.762295082,10.85 C0.863934426,10.9 0.96557377,10.95 0.96557377,11.1 C0.96557377,11.25 0.813114754,11.3 0.71147541,11.35 C0.71147541,11.4 0.71147541,11.45 0.71147541,11.45 C0.609836066,11.6 0.559016393,11.8 0.457377049,11.9 C0.457377049,11.9 0.406557377,11.9 0.406557377,11.9 C0.406557377,11.9 0.406557377,11.95 0.406557377,11.95 C0.355737705,12.05 0.304918033,12.15 0.304918033,12.3 C0.406557377,12.15 0.457377049,12.15 0.609836066,12.2 C0.609836066,12 0.71147541,11.9 0.863934426,11.9 C0.96557377,11.9 1.06721311,12.05 1.06721311,12.15 C1.06721311,12.2 1.01639344,12.25 0.96557377,12.3 C0.863934426,12.35 0.762295082,12.35 0.71147541,12.35 C0.71147541,12.4 0.660655738,12.5 0.609836066,12.55 C0.508196721,12.6 0.406557377,12.7 0.355737705,12.85 C0.355737705,12.9 0.304918033,12.9 0.304918033,12.95 C0.254098361,13 0.203278689,13.1 0.152459016,13.1 C0.152459016,13.2 0.101639344,13.35 0.101639344,13.45 C0.101639344,13.5 0.101639344,13.6 0.0508196721,13.65 C0.152459016,13.6 0.254098361,13.5 0.406557377,13.55 C0.406557377,13.55 0.406557377,13.5 0.457377049,13.5 C0.559016393,13.35 0.609836066,13.35 0.762295082,13.4 C0.863934426,13.45 0.914754098,13.55 0.914754098,13.65 C0.863934426,13.75 0.813114754,13.8 0.660655738,13.8 C0.609836066,13.8 0.609836066,13.8 0.609836066,13.8 C0.508196721,13.85 0.406557377,13.95 0.304918033,14.05 C0.203278689,14.15 0.152459016,14.15 0.101639344,14.2 C0.101639344,14.35 0.101639344,14.45 0.101639344,14.6 C0.152459016,14.6 0.254098361,14.6 0.304918033,14.65 C0.406557377,14.7 0.508196721,14.7 0.660655738,14.7 C0.762295082,14.7 0.863934426,14.8 0.863934426,14.9 C0.863934426,15 0.762295082,15.15 0.660655738,15.1 C0.508196721,15.05 0.355737705,15.05 0.254098361,15.05 C0.203278689,15.05 0.152459016,15.05 0.152459016,15.05 C0.152459016,15.3 0.152459016,15.55 0.152459016,15.8 C0.203278689,15.8 0.254098361,15.85 0.254098361,15.9 C0.355737705,16 0.457377049,16.05 0.559016393,16.1 C0.508196721,16.2 0.508196721,16.2 0.609836066,16.2 C0.71147541,16.2 0.813114754,16.25 0.863934426,16.35 C0.914754098,16.45 0.863934426,16.55 0.762295082,16.6 C0.660655738,16.65 0.559016393,16.65 0.508196721,16.55 C0.406557377,16.55 0.406557377,16.5 0.355737705,16.5 C0.254098361,16.55 0.152459016,16.5 0.0508196721,16.45 C0.0508196721,16.55 0.101639344,16.6 0.101639344,16.7 C0.101639344,16.8 0.152459016,16.9 0.152459016,17.05 C0.203278689,17.1 0.203278689,17.15 0.254098361,17.2 C0.304918033,17.3 0.355737705,17.4 0.457377049,17.45 C0.609836066,17.5 0.660655738,17.6 0.660655738,17.75 C0.863934426,17.7 0.96557377,17.75 1.01639344,17.9 C1.06721311,18 0.96557377,18.15 0.813114754,18.15 C0.660655738,18.15 0.559016393,18.05 0.559016393,17.85 C0.457377049,17.9 0.406557377,17.9 0.355737705,17.85 C0.355737705,17.95 0.355737705,18 0.406557377,18.1 C0.457377049,18.15 0.508196721,18.2 0.508196721,18.35 C0.508196721,18.35 0.508196721,18.4 0.559016393,18.4 C0.660655738,18.45 0.71147541,18.6 0.660655738,18.7 C0.813114754,18.7 0.914754098,18.75 0.914754098,18.9 C0.96557377,19.05 0.813114754,19.15 0.762295082,19.15 C0.762295082,19.25 0.813114754,19.4 0.813114754,19.45 C0.863934426,19.5 0.96557377,19.6 1.01639344,19.65 C1.01639344,19.75 0.96557377,19.85 0.96557377,19.95 C0.96557377,19.95 1.01639344,19.95 1.01639344,19.95 C1.16885246,19.9 1.2704918,19.9 1.32131148,20 C1.37213115,20.1 1.37213115,20.2 1.2704918,20.3 C1.21967213,20.35 1.16885246,20.45 1.11803279,20.55 C1.21967213,20.55 1.32131148,20.6 1.37213115,20.45 C1.42295082,20.35 1.52459016,20.35 1.62622951,20.35 C1.72786885,20.4 1.77868852,20.5 1.77868852,20.6 C1.77868852,20.7 1.67704918,20.75 1.57540984,20.8 C1.52459016,20.8 1.52459016,20.8 1.47377049,20.8 C1.42295082,20.85 1.37213115,20.95 1.32131148,21.05 C1.42295082,21.05 1.47377049,21.05 1.57540984,21.05 C1.67704918,21.05 1.77868852,21.1 1.8295082,21.25 C1.8295082,21.35 1.77868852,21.45 1.67704918,21.5 C1.57540984,21.5 1.52459016,21.5 1.47377049,21.5 C1.47377049,21.5 1.47377049,21.5 1.47377049,21.55 C1.52459016,21.55 1.52459016,21.55 1.57540984,21.55 C1.62622951,21.55 1.72786885,21.55 1.72786885,21.55 C1.77868852,21.6 1.8295082,21.6 1.88032787,21.55 C1.98196721,21.5 2.08360656,21.55 2.1852459,21.65 C2.23606557,21.75 2.1852459,21.85 2.13442623,21.95 C2.08360656,22 2.08360656,22 2.03278689,22.05 C2.23606557,22.1 2.28688525,22.2 2.23606557,22.4 C2.23606557,22.4 2.23606557,22.45 2.23606557,22.45 C2.28688525,22.5 2.33770492,22.6 2.38852459,22.65 C2.38852459,22.65 2.38852459,22.65 2.38852459,22.65 C2.49016393,22.6 2.59180328,22.6 2.64262295,22.7 C2.69344262,22.75 2.7442623,22.85 2.69344262,22.95 C2.69344262,22.95 2.69344262,23 2.69344262,23 C2.7442623,23.15 2.79508197,23.25 2.89672131,23.4 C2.94754098,23.35 2.94754098,23.35 2.94754098,23.35 C3.04918033,23.2 3.15081967,23.15 3.30327869,23.25 C3.40491803,23.35 3.4557377,23.45 3.30327869,23.6 C3.25245902,23.7 3.25245902,23.75 3.35409836,23.8 C3.35409836,23.8 3.35409836,23.8 3.40491803,23.85 C3.35409836,23.85 3.35409836,23.9 3.30327869,23.9 C3.40491803,24 3.50655738,24.1 3.40491803,24.25 C3.40491803,24.3 3.40491803,24.35 3.4557377,24.4 C3.55737705,24.25 3.60819672,24.1 3.81147541,24.1 C3.81147541,23.9 3.91311475,23.8 4.0147541,23.8 C4.11639344,23.8 4.21803279,23.9 4.26885246,24 C4.26885246,24.15 4.21803279,24.2 4.06557377,24.25 C4.0147541,24.35 3.96393443,24.45 3.96393443,24.5 C3.96393443,24.6 3.91311475,24.7 3.96393443,24.8 C4.06557377,24.95 4.3704918,25 4.47213115,24.85 C4.52295082,24.75 4.62459016,24.75 4.72622951,24.8 C4.77704918,24.85 4.87868852,24.95 4.87868852,25 C4.87868852,25.1 4.82786885,25.15 4.72622951,25.2 C4.62459016,25.25 4.57377049,25.3 4.52295082,25.35 C4.52295082,25.35 4.52295082,25.35 4.52295082,25.4 C4.67540984,25.35 4.77704918,25.45 4.87868852,25.55 C4.9295082,25.6 5.03114754,25.65 5.08196721,25.6 C5.23442623,25.55 5.33606557,25.55 5.43770492,25.7 C5.43770492,25.55 5.48852459,25.45 5.64098361,25.4 C5.74262295,25.4 5.8442623,25.45 5.89508197,25.55 C5.94590164,25.65 5.89508197,25.7 5.8442623,25.8 C5.69180328,25.95 5.59016393,25.85 5.48852459,25.75 C5.43770492,25.8 5.43770492,25.9 5.43770492,25.95 C5.43770492,26 5.43770492,26.05 5.43770492,26.05 C5.48852459,26.1 5.53934426,26.15 5.64098361,26.2 C5.79344262,26.25 5.94590164,26.3 6.09836066,26.35 C6.14918033,26.25 6.25081967,26.2 6.40327869,26.25 C6.50491803,26.3 6.5557377,26.35 6.5557377,26.45 C6.5557377,26.55 6.45409836,26.65 6.25081967,26.7 C6.30163934,26.75 6.35245902,26.8 6.40327869,26.8 C6.5557377,26.8 6.60655738,26.85 6.65737705,27 C6.70819672,26.95 6.70819672,26.95 6.75901639,26.95 C6.86065574,26.95 6.91147541,26.9 7.01311475,26.95 C7.1147541,27 7.16557377,27.1 7.1147541,27.2 C7.06393443,27.35 7.21639344,27.45 7.36885246,27.45 C7.52131148,27.4 7.62295082,27.45 7.67377049,27.6 C7.72459016,27.7 7.77540984,27.75 7.82622951,27.85 C7.82622951,27.85 7.82622951,27.85 7.87704918,27.85 C7.87704918,27.8 7.87704918,27.8 7.87704918,27.75 C7.87704918,27.65 7.92786885,27.55 8.0295082,27.55 C8.13114754,27.5 8.23278689,27.55 8.28360656,27.65 C8.33442623,27.75 8.33442623,27.85 8.28360656,27.9 C8.18196721,28 8.18196721,28.1 8.18196721,28.25 C8.28360656,28.2 8.33442623,28.15 8.43606557,28.1 C8.53770492,28.05 8.58852459,28.05 8.69016393,28.1 C8.79180328,28.15 8.84262295,28.25 8.79180328,28.35 C8.79180328,28.4 8.79180328,28.4 8.74098361,28.45 C8.84262295,28.45 8.89344262,28.4 8.9442623,28.45 C8.99508197,28.45 9.09672131,28.45 9.14754098,28.5 C9.24918033,28.65 9.40163934,28.7 9.55409836,28.7 C9.60491803,28.6 9.70655738,28.5 9.85901639,28.55 C10.0622951,28.6 10.0114754,28.75 9.96065574,28.95 C10.2655738,28.8 10.2655738,28.85 10.4180328,29.05 C10.5196721,29.1 10.6213115,29.1 10.6721311,29.15 C10.6721311,29 10.7229508,29 10.8245902,29 C10.8754098,28.8 10.9262295,28.75 11.0278689,28.7 C11.1803279,28.7 11.2311475,28.75 11.2819672,28.95 C11.3327869,28.95 11.4344262,28.95 11.4344262,29 C11.5360656,29.1 11.6377049,29.15 11.7393443,29.2 C11.8409836,29.25 11.9934426,29.3 12.095082,29.35 C12.1459016,29.35 12.1967213,29.4 12.247541,29.4 C12.3491803,29.4 12.4,29.45 12.5016393,29.45 C12.5016393,29.45 12.5016393,29.45 12.5016393,29.45 C12.5016393,29.45 12.5016393,29.45 12.5016393,29.45 C12.3491803,29.4 12.2983607,29.25 12.3491803,29.1 C12.1459016,29.05 12.0442623,28.95 12.095082,28.8 C12.1459016,28.7 12.247541,28.6 12.3491803,28.65 C12.5016393,28.7 12.552459,28.8 12.5016393,29 C12.6540984,29 12.7557377,29.05 12.7557377,29.2 C12.7557377,29.2 12.7557377,29.25 12.7557377,29.25 C12.9081967,29.35 13.0606557,29.5 13.2131148,29.55 C13.3147541,29.6 13.3655738,29.6 13.4163934,29.65 C13.5180328,29.65 13.6196721,29.65 13.6704918,29.65 C13.7721311,29.65 13.8737705,29.65 13.9245902,29.65 C13.8737705,29.5 13.8229508,29.4 13.8737705,29.2 C13.8737705,29.2 13.8737705,29.2 13.8229508,29.2 C13.7213115,29.1 13.6704918,29 13.7721311,28.9 C13.8229508,28.8 13.9245902,28.75 14.0262295,28.8 C14.1278689,28.85 14.1786885,28.95 14.1786885,29.1 C14.1786885,29.1 14.1786885,29.15 14.1786885,29.15 C14.2295082,29.25 14.2803279,29.35 14.3311475,29.45 C14.3819672,29.5 14.3819672,29.6 14.4836066,29.65 C14.4836066,29.65 14.5344262,29.7 14.5344262,29.7 C14.8393443,29.7 15.1442623,29.75 15.3983607,29.75 C15.3983607,29.7 15.3983607,29.65 15.4491803,29.6 C15.4491803,29.5 15.4491803,29.4 15.5,29.3 C15.5,29.25 15.5508197,29.2 15.5,29.15 C15.5,29.1 15.5,28.95 15.5508197,28.95 C15.6016393,28.9 15.7032787,28.85 15.804918,28.9 C15.8557377,28.9 15.957377,29.05 15.957377,29.05 C15.9065574,29.2 15.9065574,29.35 15.9065574,29.5 C15.9065574,29.5 15.9065574,29.5 15.9065574,29.5 C15.9065574,29.6 15.9065574,29.65 15.9065574,29.75 L15.957377,29.75 C16.1098361,29.75 16.2114754,29.75 16.3639344,29.75 C16.4147541,29.75 16.4655738,29.75 16.5163934,29.75 C16.5672131,29.75 16.6180328,29.75 16.6688525,29.75 C16.7196721,29.7 16.8213115,29.65 16.8721311,29.65 C16.8721311,29.6 16.8213115,29.55 16.8213115,29.5 C16.9737705,29.55 17.0245902,29.5 17.0754098,29.45 C17.1262295,29.35 17.1770492,29.25 17.2278689,29.2 C17.2278689,29.15 17.2278689,29.1 17.2278689,29.05 C17.2278689,28.95 17.3295082,28.85 17.4311475,28.9 C17.5327869,28.9 17.5836066,28.95 17.6344262,29.05 C17.6852459,29.15 17.6344262,29.25 17.5836066,29.3 C17.5327869,29.35 17.4819672,29.4 17.4819672,29.4 C17.5327869,29.5 17.4819672,29.6 17.3803279,29.65 C17.3295082,29.7 17.3295082,29.75 17.3295082,29.8 C17.4819672,29.75 17.6344262,29.75 17.7868852,29.7 C17.8377049,29.6 17.8885246,29.6 18.0918033,29.55 C18.1934426,29.5 18.295082,29.45 18.3967213,29.35 C18.4983607,29.3 18.6,29.2 18.7016393,29.05 C18.7016393,29 18.8032787,29 18.8540984,29 C18.904918,29 18.9557377,29 19.0065574,29 C19.0065574,29 19.0065574,29 19.0065574,29 C19.0065574,29 19.0065574,29 19.0065574,29 C18.904918,28.95 18.8540984,28.85 18.904918,28.75 C18.9557377,28.7 19.0065574,28.6 19.1081967,28.6 C19.1590164,28.6 19.2606557,28.65 19.3114754,28.7 C19.3622951,28.8 19.3622951,28.9 19.2606557,28.95 C19.1590164,29.05 19.057377,29.05 18.9557377,29 C18.9557377,29 18.9557377,29 18.9557377,29 C18.9557377,29 18.9557377,29 18.9557377,29 C19.0065574,29.1 19.0065574,29.2 19.057377,29.35 C19.057377,29.35 19.1081967,29.35 19.1590164,29.3 C19.2606557,29.25 19.4131148,29.2 19.5147541,29.15 C19.5655738,29.15 19.5655738,29.15 19.6163934,29.15 C19.6163934,29.15 19.6672131,29.15 19.6672131,29.1 C19.7180328,28.95 19.8704918,28.9 20.0229508,28.95 C20.0229508,28.95 20.0229508,28.95 20.0229508,28.9 C20.0229508,28.75 20.0737705,28.65 20.2262295,28.6 C20.3786885,28.6 20.4295082,28.65 20.4803279,28.85 C20.4803279,28.85 20.4803279,28.9 20.5311475,28.9 C20.5311475,28.9 20.5819672,28.9 20.5819672,28.85 C20.6327869,28.75 20.7344262,28.7 20.8360656,28.75 C20.8868852,28.75 20.9377049,28.7 20.9377049,28.7 C21.0393443,28.55 21.0901639,28.5 21.2934426,28.55 C21.3442623,28.55 21.395082,28.55 21.395082,28.5 C21.395082,28.4 21.395082,28.3 21.547541,28.25 C21.6491803,28.2 21.7508197,28.25 21.8016393,28.3 C21.852459,28.35 21.9540984,28.3 22.0557377,28.3 C22.0557377,28.3 22.1065574,28.25 22.1065574,28.25 C21.852459,28.2 21.8016393,28.1 21.8016393,27.95 C21.8016393,27.85 21.9032787,27.75 22.004918,27.75 C22.157377,27.75 22.2081967,27.85 22.2081967,28.05 C22.3098361,28.1 22.4114754,28.1 22.5639344,28.15 C22.5639344,28.05 22.5131148,27.95 22.5131148,27.85 C22.5131148,27.75 22.6147541,27.65 22.7163934,27.7 C22.8180328,27.7 22.8688525,27.8 22.9704918,27.85 C22.9704918,27.8 22.9704918,27.75 23.0213115,27.75 C23.0721311,27.7 23.0721311,27.65 23.0213115,27.6 C22.9704918,27.5 22.9704918,27.35 23.0721311,27.3 C23.1737705,27.25 23.3262295,27.25 23.3770492,27.35 C23.3770492,27.4 23.4278689,27.4 23.4278689,27.45 C23.4786885,27.45 23.4786885,27.4 23.4786885,27.4 C23.5295082,27.2 23.6311475,27.15 23.8344262,27.15 C23.8852459,27.15 23.9868852,27.05 24.0377049,27 C24.0377049,27 24.0377049,26.9 24.0377049,26.9 C24.0377049,26.75 24.1901639,26.6 24.2918033,26.65 C24.3934426,26.7 24.4442623,26.7 24.5459016,26.6 C24.5459016,26.6 24.5967213,26.6 24.647541,26.55 C24.6983607,26.5 24.7491803,26.5 24.8508197,26.45 C24.8,26.4 24.8,26.4 24.8,26.4 C24.647541,26.3 24.647541,26.2 24.6983607,26.05 C24.8,25.95 24.9016393,25.95 25.0540984,26 C25.0540984,26 25.104918,26.05 25.104918,26 C25.257377,25.95 25.4606557,25.9 25.5622951,25.75 C25.6639344,25.65 25.6639344,25.6 25.5622951,25.55 C25.4098361,25.6 25.257377,25.55 25.2065574,25.45 C25.1557377,25.35 25.2065574,25.25 25.3081967,25.2 C25.4098361,25.15 25.5114754,25.15 25.6639344,25.35 C25.7655738,25.35 25.8672131,25.4 25.9688525,25.4 C26.0704918,25.4 26.1213115,25.3 26.2229508,25.3 C26.2229508,25.3 26.2229508,25.3 26.2229508,25.3 C26.2737705,25.25 26.3245902,25.2 26.4262295,25.15 C26.3754098,25.1 26.3754098,25.05 26.3245902,25 C26.2229508,24.9 26.1721311,24.8 26.2229508,24.7 C26.3245902,24.55 26.4770492,24.6 26.5786885,24.7 C26.6295082,24.75 26.7311475,24.8 26.7311475,24.75 C26.7819672,24.7 26.8836066,24.6 26.8836066,24.5 C26.9344262,24.35 26.9344262,24.2 26.9344262,24.1 C26.8836066,24.05 26.8327869,24.05 26.7819672,24 C26.7311475,23.95 26.6803279,23.85 26.7311475,23.8 C26.7311475,23.75 26.8327869,23.65 26.9344262,23.65 C26.9852459,23.65 27.0868852,23.7 27.1377049,23.75 C27.1885246,23.8 27.1377049,23.85 27.1885246,23.9 C27.1885246,23.95 27.2393443,24 27.2393443,24 C27.2393443,24 27.2901639,24 27.3409836,23.95 C27.3918033,23.9 27.442623,23.85 27.4934426,23.8 C27.595082,23.65 27.6459016,23.55 27.5442623,23.4 C27.4934426,23.3 27.4934426,23.2 27.595082,23.15 C27.6967213,23.1 27.747541,23.05 27.8491803,23.15 C27.9,23.15 27.9,23.2 27.9508197,23.2 C28.0016393,23.05 28.1540984,22.95 28.1032787,22.75 C28.052459,22.65 28.1540984,22.5 28.3065574,22.5 C28.4081967,22.5 28.4590164,22.45 28.4590164,22.35 C28.4590164,22.35 28.4590164,22.35 28.4590164,22.35 C28.4590164,22.35 28.4590164,22.35 28.4590164,22.35 C28.4590164,22.35 28.4590164,22.35 28.4590164,22.35 C28.357377,22.45 28.2557377,22.45 28.1540984,22.4 C28.1032787,22.35 28.052459,22.25 28.052459,22.2 C28.052459,22.15 28.1540984,22.05 28.204918,22 C28.2557377,22 28.357377,22 28.4081967,22.05 C28.5098361,22.15 28.4590164,22.25 28.4081967,22.3 L28.4081967,22.3 C28.4590164,22.25 28.5098361,22.2 28.5098361,22.15 C28.5098361,22.05 28.5606557,21.95 28.6622951,21.9 C28.6622951,21.9 28.7131148,21.85 28.7131148,21.85 C28.6622951,21.8 28.6622951,21.8 28.6114754,21.75 C28.6114754,21.7 28.5606557,21.6 28.6114754,21.55 C28.6622951,21.5 28.7639344,21.4 28.8147541,21.4 C28.9672131,21.4 29.0180328,21.35 29.0688525,21.3 C29.0180328,21.2 28.9672131,21.1 29.0688525,21 C29.1196721,20.95 29.2721311,20.9 29.3737705,20.85 C29.3737705,20.75 29.3229508,20.7 29.2213115,20.65 C29.1704918,20.65 29.1196721,20.5 29.1196721,20.45 C29.1196721,20.4 29.2213115,20.3 29.2721311,20.25 C29.3229508,20.25 29.4245902,20.3 29.4754098,20.3 C29.5262295,20.3 29.5262295,20.35 29.5262295,20.35 C29.5262295,20.35 29.5262295,20.35 29.5770492,20.35 C29.5770492,20.3 29.5262295,20.2 29.5262295,20.15 C29.4245902,20 29.4754098,19.85 29.6786885,19.8 C29.7295082,19.8 29.7803279,19.75 29.7803279,19.7 C29.7295082,19.55 29.8311475,19.45 29.9836066,19.35 C29.9836066,19.35 29.9836066,19.35 29.9836066,19.3 C29.9327869,19.3 29.9327869,19.35 29.8819672,19.35 C29.7295082,19.45 29.5262295,19.3 29.5770492,19.15 C29.5770492,19.1 29.6786885,19 29.7295082,18.95 C29.8311475,18.9 29.8819672,18.95 29.9836066,19 C29.9836066,19 30.0344262,19.05 30.0852459,19.05 C30.0852459,19.05 30.0852459,19.05 30.0852459,19 C29.8311475,18.8 29.8819672,18.7 30.1360656,18.55 C30.1868852,18.35 30.2885246,18.2 30.3393443,18.05 C30.3901639,17.95 30.3901639,17.85 30.4409836,17.75 C30.3393443,17.8 30.2885246,17.9 30.2377049,17.95 C30.0852459,18.05 29.8819672,17.85 29.9327869,17.7 C29.9836066,17.55 30.0852459,17.55 30.1868852,17.55 C30.2885246,17.45 30.3393443,17.4 30.3901639,17.3 C30.4409836,17.2 30.542623,17.1 30.542623,17 C30.542623,16.9 30.5934426,16.8 30.6442623,16.75 C30.6442623,16.65 30.6442623,16.55 30.6442623,16.5 C30.6442623,16.5 30.6442623,16.45 30.6442623,16.45 C30.695082,16.45 30.6442623,16.45 30.5934426,16.45 L30.5934426,16.45 Z" id="Fill-1"></path>
          </g>
          <polygon id="Fill-61" points="19 12 18 17 19 17"></polygon>
        </g>
      </g>
    </g>
  </g>
</svg>
