<svg width="63" height="63" viewBox="0 0 63 63" fill="none" xmlns="http://www.w3.org/2000/svg">
<path d="M49.8755 51.1865H13.1255C11.6817 51.1865 10.5005 50.0053 10.5005 48.5615V22.3115H52.5005V48.5615C52.5005 50.0053 51.3192 51.1865 49.8755 51.1865Z" fill="#139BE6"/>
<path d="M55.125 22.3125H7.875V14.4375C7.875 12.9937 9.05625 11.8125 10.5 11.8125H52.5C53.9437 11.8125 55.125 12.9937 55.125 14.4375V22.3125Z" fill="#139BE6" fill-opacity="0.6"/>
<path d="M28.875 22.3125H34.125V51.1875H28.875V22.3125ZM42 3.9375H36.75L28.875 11.8125H34.125L42 3.9375Z" fill="#0D6CA1"/>
<path d="M26.25 3.9375H21L28.875 11.8125V22.3125H34.125V11.8125L26.25 3.9375Z" fill="#1084C3"/>
</svg>
