<svg width="65" height="65" viewBox="0 0 65 65" fill="none" xmlns="http://www.w3.org/2000/svg">
<path d="M27.0835 4.33301C22.9018 4.33301 19.5002 7.73467 19.5002 11.9163C19.5002 13.0842 19.7884 14.1773 20.2619 15.1663H8.66683C6.27266 15.1663 4.3335 17.1055 4.3335 19.4997V32.4997H30.3335V19.4997V15.1663H27.0835C25.2917 15.1663 23.8335 13.7082 23.8335 11.9163C23.8335 10.1245 25.2917 8.66634 27.0835 8.66634C28.8753 8.66634 30.3335 10.1245 30.3335 11.9163V15.1663H34.6668V11.9163C34.6668 10.1245 36.125 8.66634 37.9168 8.66634C39.7087 8.66634 41.1668 10.1245 41.1668 11.9163C41.1668 13.7082 39.7087 15.1663 37.9168 15.1663H34.6668V19.4997V32.4997H60.6668V19.4997C60.6668 17.1055 58.7277 15.1663 56.3335 15.1663H44.7384C45.212 14.1773 45.5002 13.0842 45.5002 11.9163C45.5002 7.73467 42.0985 4.33301 37.9168 4.33301C35.7935 4.33301 33.8782 5.21613 32.5002 6.62663C31.1222 5.21613 29.2068 4.33301 27.0835 4.33301ZM4.3335 36.833V49.833C4.3335 52.2272 6.27266 54.1663 8.66683 54.1663H30.3335V36.833H4.3335ZM34.6668 36.833V54.1663H56.3335C58.7277 54.1663 60.6668 52.2272 60.6668 49.833V36.833H34.6668Z" fill="url(#paint0_radial_925_1421)"/>
<defs>
<radialGradient id="paint0_radial_925_1421" cx="0" cy="0" r="1" gradientUnits="userSpaceOnUse" gradientTransform="translate(45.9055 39.4101) rotate(-128.698) scale(66.9918 69.2926)">
<stop stop-color="#1893E9"/>
<stop offset="1" stop-color="#05B5DE"/>
</radialGradient>
</defs>
</svg>