<?xml version="1.0" encoding="UTF-8"?>
<svg width="22px" height="10px" viewBox="0 0 22 10" version="1.1" xmlns="http://www.w3.org/2000/svg" xmlns:xlink="http://www.w3.org/1999/xlink">
    <!-- Generator: Sketch 59 (86127) - https://sketch.com -->
    <title>Shape</title>
    <desc>Created with Sketch.</desc>
    <g id="Web---Future" stroke="none" stroke-width="1" fill="none" fill-rule="evenodd">
        <g id="Artboard" transform="translate(-88.000000, -269.000000)" fill="#7F879D" fill-rule="nonzero">
            <g id="Group-5" transform="translate(64.000000, 47.000000)">
                <g id="Group" transform="translate(0.000000, 102.000000)">
                    <g id="Group-3" transform="translate(24.000000, 115.000000)">
                        <g id="icons8-visible" transform="translate(0.000000, 2.000000)">
                            <g id="icons8-2f_tap" transform="translate(0.000000, 3.000000)">
                                <path d="M5.86691622,0 C3.38621056,0 1.21742782,1.33915514 0.0921969683,3.31752214 C-0.0350428986,3.54082002 -0.0302928036,3.81328292 0.104657364,4.03224374 C0.239607531,4.25120457 0.484247775,4.38338521 0.746394889,4.37897852 C1.008542,4.37457183 1.24835434,4.23424754 1.37546791,4.01088143 C2.25067314,2.47210643 3.92730344,1.42857143 5.86691622,1.42857143 C7.80652892,1.42857143 9.48315908,2.47210643 10.3583645,4.01088143 C10.4875442,4.23820943 10.7332548,4.37928897 11,4.37928897 C11.2667452,4.37928897 11.5124558,4.23820943 11.6416355,4.01088143 C12.5168409,2.47210643 14.1934711,1.42857143 16.1330838,1.42857143 C18.0726965,1.42857143 19.7493266,2.47210643 20.6245321,4.01088143 C20.7516457,4.23424754 20.991458,4.37457183 21.2536051,4.37897852 C21.5157522,4.38338521 21.7603925,4.25120457 21.8953426,4.03224374 C22.0302928,3.81328292 22.0350429,3.54082002 21.907803,3.31752214 C20.7825724,1.33915514 18.6137895,0 16.1330838,0 C14.0395006,0 12.2094264,0.986476143 11,2.47349357 C9.7905736,0.986476143 7.96049944,0 5.86691622,0 Z M5.86691622,2.85714286 C3.84197058,2.85714286 2.20042781,4.45612589 2.20042781,6.42857143 C2.20042781,8.40101696 3.84197058,10 5.86691622,10 C7.89186186,10 9.53340463,8.40101696 9.53340463,6.42857143 C9.53340463,4.45612589 7.89186186,2.85714286 5.86691622,2.85714286 Z M16.1330838,2.85714286 C14.1081381,2.85714286 12.4665954,4.45612589 12.4665954,6.42857143 C12.4665954,8.40101696 14.1081381,10 16.1330838,10 C18.1580294,10 19.7995722,8.40101696 19.7995722,6.42857143 C19.7995722,4.45612589 18.1580294,2.85714286 16.1330838,2.85714286 Z" id="Shape"></path>
                            </g>
                        </g>
                    </g>
                </g>
            </g>
        </g>
    </g>
</svg>