<?xml version="1.0" encoding="UTF-8"?>
<svg width="150px" height="150px" viewBox="0 0 150 150" version="1.1" xmlns="http://www.w3.org/2000/svg" xmlns:xlink="http://www.w3.org/1999/xlink">
    <!-- Generator: Sketch 53.2 (72643) - https://sketchapp.com -->
    <title>Google (White)</title>
    <desc>Created with Sketch.</desc>
    <g id="Google-(White)" stroke="none" stroke-width="1" fill="none" fill-rule="evenodd">
        <g id="icons8-google_logo" fill="#FFFFFF" fill-rule="nonzero">
            <path d="M75.01,0 C33.5867104,0 0,33.58125 0,75 C0,116.41875 33.5867104,150 75.01,150 C137.560481,150 151.652599,91.91875 145.784976,62.5 L137.473586,62.5 L123.303946,62.5 L74.9855922,62.5 L74.9855922,87.5 L123.340557,87.5 C117.781757,109.051569 98.2683374,125 74.9855922,125 C47.3783967,125 24.9951974,102.6125 24.9951974,75 C24.9951974,47.3875 47.3783967,25 74.9855922,25 C87.5394301,25 98.975614,29.6609375 107.755177,37.3046875 L125.512996,19.5556638 C112.178052,7.40566437 94.4625124,0 75.01,0 Z" id="Path"></path>
        </g>
    </g>
</svg>