<?xml version="1.0" encoding="UTF-8"?>
<svg width="22px" height="21px" viewBox="0 0 22 21" version="1.1" xmlns="http://www.w3.org/2000/svg" xmlns:xlink="http://www.w3.org/1999/xlink">
    <title>Shape</title>
    <g id="Grade-levels-(SP-1201)" stroke="none" stroke-width="1" fill="none" fill-rule="evenodd">
        <g id="Import" transform="translate(-899.000000, -1235.000000)" fill="#FFFFFF" fill-rule="nonzero">
            <g id="Dropdown" transform="translate(749.000000, 1210.000000)">
                <g id="Group-2" transform="translate(150.000000, 25.000000)">
                    <path d="M1.83333333,0 C0.820416667,0 0,0.854318182 0,1.90909091 L0,3.81818182 C0,4.87295455 0.820416667,5.72727273 1.83333333,5.72727273 L2.75,5.72727273 L2.75,9.54545455 L2.75,11.4545455 L2.75,18.1363636 C2.75005062,18.6635227 3.16042661,19.0909091 3.66666667,19.0909091 L12.8333333,19.0909091 L12.8333333,17.1818182 L4.58333333,17.1818182 L4.58333333,11.4545455 L12.8333333,11.4545455 L12.8333333,9.54545455 L4.58333333,9.54545455 L4.58333333,5.72727273 L5.5,5.72727273 C6.51291667,5.72727273 7.33333333,4.87295455 7.33333333,3.81818182 L7.33333333,1.90909091 C7.33333333,0.854318182 6.51291667,0 5.5,0 L1.83333333,0 Z M16.5,7.63636364 C15.4870833,7.63636364 14.6666667,8.49068182 14.6666667,9.54545455 L14.6666667,11.4545455 C14.6666667,12.5093182 15.4870833,13.3636364 16.5,13.3636364 L20.1666667,13.3636364 C21.1795833,13.3636364 22,12.5093182 22,11.4545455 L22,9.54545455 C22,8.49068182 21.1795833,7.63636364 20.1666667,7.63636364 L16.5,7.63636364 Z M16.5,15.2727273 C15.4870833,15.2727273 14.6666667,16.1270455 14.6666667,17.1818182 L14.6666667,19.0909091 C14.6666667,20.1456818 15.4870833,21 16.5,21 L20.1666667,21 C21.1795833,21 22,20.1456818 22,19.0909091 L22,17.1818182 C22,16.1270455 21.1795833,15.2727273 20.1666667,15.2727273 L16.5,15.2727273 Z" id="Shape"></path>
                </g>
            </g>
        </g>
    </g>
</svg>