<?xml version="1.0" encoding="UTF-8"?>
<svg width="22px" height="21px" viewBox="0 0 22 21" version="1.1" xmlns="http://www.w3.org/2000/svg" xmlns:xlink="http://www.w3.org/1999/xlink">
    <title>Shape</title>
    <g id="Grade-levels-(SP-1201)" stroke="none" stroke-width="1" fill="none" fill-rule="evenodd">
        <g id="Import" transform="translate(-294.000000, -244.000000)" fill="#1F195E" fill-rule="nonzero">
            <g id="Group" transform="translate(273.000000, 224.000000)">
                <path d="M22.8333333,20 C21.8204167,20 21,20.8543182 21,21.9090909 L21,23.8181818 C21,24.8729545 21.8204167,25.7272727 22.8333333,25.7272727 L23.75,25.7272727 L23.75,29.5454545 L23.75,31.4545455 L23.75,38.1363636 C23.7500506,38.6635227 24.1604266,39.0909091 24.6666667,39.0909091 L33.8333333,39.0909091 L33.8333333,37.1818182 L25.5833333,37.1818182 L25.5833333,31.4545455 L33.8333333,31.4545455 L33.8333333,29.5454545 L25.5833333,29.5454545 L25.5833333,25.7272727 L26.5,25.7272727 C27.5129167,25.7272727 28.3333333,24.8729545 28.3333333,23.8181818 L28.3333333,21.9090909 C28.3333333,20.8543182 27.5129167,20 26.5,20 L22.8333333,20 Z M37.5,27.6363636 C36.4870833,27.6363636 35.6666667,28.4906818 35.6666667,29.5454545 L35.6666667,31.4545455 C35.6666667,32.5093182 36.4870833,33.3636364 37.5,33.3636364 L41.1666667,33.3636364 C42.1795833,33.3636364 43,32.5093182 43,31.4545455 L43,29.5454545 C43,28.4906818 42.1795833,27.6363636 41.1666667,27.6363636 L37.5,27.6363636 Z M37.5,35.2727273 C36.4870833,35.2727273 35.6666667,36.1270455 35.6666667,37.1818182 L35.6666667,39.0909091 C35.6666667,40.1456818 36.4870833,41 37.5,41 L41.1666667,41 C42.1795833,41 43,40.1456818 43,39.0909091 L43,37.1818182 C43,36.1270455 42.1795833,35.2727273 41.1666667,35.2727273 L37.5,35.2727273 Z" id="Shape"></path>
            </g>
        </g>
    </g>
</svg>