<svg xmlns="http://www.w3.org/2000/svg" width="26" height="26" viewBox="0 0 26 26">
  <g>
    <path fill="rgb(31,25,94)" fill-rule="evenodd" d="M5 0h16c2.75957512 0 5 2.24042488 5 5v16c0 2.75957512-2.24042488 5-5 5H5c-2.75957512 0-5-2.24042488-5-5V5c0-2.75957512 2.24042488-5 5-5z"/>
    <path fill="rgb(255,255,255)" fill-rule="evenodd" d="M6.3333435 5.5C5.5966797 5.5 5 6.1102295 5 6.86364746v1.36364746c0 .75335694.59667969 1.36358643 1.3333435 1.36358643H7v8.86364746c.00003052.37658691.29849243.68182373.6666565.68182373h6.666687v-1.36364746h-6v-4.09088135h6v-1.36364746h-6V9.59088135H9c.73666382 0 1.3333435-.6102295 1.3333435-1.36358643V6.86364746C10.3333435 6.1102295 9.73666383 5.5 9 5.5H6.3333435zM17 10.9545288c-.73666382 0-1.3333435.6102295-1.3333435 1.36364747v1.36364746c0 .75335693.59667968 1.36358643 1.3333435 1.36358643h2.6666565c.73666381 0 1.3333435-.6102295 1.3333435-1.36358643v-1.36364746c0-.75341797-.59667969-1.36364746-1.3333435-1.36364746H17zm-1.3333435 6.81823731c0-.75341797.59667968-1.36364746 1.3333435-1.36364746h2.6666565c.73666381 0 1.3333435.6102295 1.3333435 1.36364746v1.36364746C21 19.88977051 20.40332031 20.5 19.6666565 20.5H17c-.73666382 0-1.3333435-.6102295-1.3333435-1.36358643v-1.36364746z"/>
  </g>
</svg>
