<?xml version="1.0" encoding="UTF-8"?>
<svg width="150px" height="150px" viewBox="0 0 150 150" version="1.1" xmlns="http://www.w3.org/2000/svg" xmlns:xlink="http://www.w3.org/1999/xlink">
    <!-- Generator: Sketch 53.2 (72643) - https://sketchapp.com -->
    <title>Grid (Blue-Gray)</title>
    <desc>Created with Sketch.</desc>
    <g id="Grid-(Blue-Gray)" stroke="none" stroke-width="1" fill="none" fill-rule="evenodd">
        <g id="icons8-view_module" transform="translate(75.000000, 75.000000) rotate(90.000000) translate(-75.000000, -75.000000) translate(28.000000, 0.000000)" fill="#7F879D" fill-rule="nonzero">
            <path d="M7.08730159,0 C3.17511111,0 0,3.15940299 0,7.05223881 L0,63.4701493 C0,67.3629851 3.17511111,70.5223881 7.08730159,70.5223881 L35.4365079,70.5223881 C39.3486984,70.5223881 42.5238095,67.3629851 42.5238095,63.4701493 L42.5238095,7.05223881 C42.5238095,3.15940299 39.3486984,0 35.4365079,0 L7.08730159,0 Z M58.5634921,0 C54.6513016,0 51.4761905,3.15940299 51.4761905,7.05223881 L51.4761905,63.4701493 C51.4761905,67.3629851 54.6513016,70.5223881 58.5634921,70.5223881 L86.9126984,70.5223881 C90.8248889,70.5223881 94,67.3629851 94,63.4701493 L94,7.05223881 C94,3.15940299 90.8248889,0 86.9126984,0 L58.5634921,0 Z M7.08730159,79.4776119 C3.17511111,79.4776119 0,82.6370149 0,86.5298507 L0,142.947761 C0,146.840597 3.17511111,150 7.08730159,150 L35.4365079,150 C39.3486984,150 42.5238095,146.840597 42.5238095,142.947761 L42.5238095,86.5298507 C42.5238095,82.6370149 39.3486984,79.4776119 35.4365079,79.4776119 L7.08730159,79.4776119 Z M58.5634921,79.4776119 C54.6513016,79.4776119 51.4761905,82.6370149 51.4761905,86.5298507 L51.4761905,142.947761 C51.4761905,146.840597 54.6513016,150 58.5634921,150 L86.9126984,150 C90.8248889,150 94,146.840597 94,142.947761 L94,86.5298507 C94,82.6370149 90.8248889,79.4776119 86.9126984,79.4776119 L58.5634921,79.4776119 Z" id="Shape"></path>
        </g>
    </g>
</svg>