<svg width="58" height="52" viewBox="0 0 58 52" fill="none" xmlns="http://www.w3.org/2000/svg">
<path d="M26.7999 0.799805C24.3689 0.799805 22.3999 2.7688 22.3999 5.1998V11.7998C22.3999 14.2308 24.3689 16.1998 26.7999 16.1998H33.3999L37.7999 20.5998L42.1999 16.1998H48.7999C51.2309 16.1998 53.1999 14.2308 53.1999 11.7998V5.1998C53.1999 2.7688 51.2309 0.799805 48.7999 0.799805H26.7999ZM28.9999 22.7998C27.2495 22.7998 25.5707 23.4952 24.333 24.7329C23.0953 25.9706 22.3999 27.6494 22.3999 29.3998C22.3999 31.1502 23.0953 32.829 24.333 34.0667C25.5707 35.3045 27.2495 35.9998 28.9999 35.9998C30.7503 35.9998 32.4291 35.3045 33.6668 34.0667C34.9045 32.829 35.5999 31.1502 35.5999 29.3998C35.5999 27.6494 34.9045 25.9706 33.6668 24.7329C32.4291 23.4952 30.7503 22.7998 28.9999 22.7998ZM11.3999 24.9998C9.64947 24.9998 7.97074 25.6952 6.733 26.9329C5.49526 28.1706 4.7999 29.8494 4.7999 31.5998C4.7999 33.3502 5.49526 35.029 6.733 36.2667C7.97074 37.5045 9.64947 38.1998 11.3999 38.1998C13.1503 38.1998 14.8291 37.5045 16.0668 36.2667C17.3045 35.029 17.9999 33.3502 17.9999 31.5998C17.9999 29.8494 17.3045 28.1706 16.0668 26.9329C14.8291 25.6952 13.1503 24.9998 11.3999 24.9998ZM46.5999 24.9998C44.8495 24.9998 43.1707 25.6952 41.933 26.9329C40.6953 28.1706 39.9999 29.8494 39.9999 31.5998C39.9999 33.3502 40.6953 35.029 41.933 36.2667C43.1707 37.5045 44.8495 38.1998 46.5999 38.1998C48.3503 38.1998 50.0291 37.5045 51.2668 36.2667C52.5045 35.029 53.1999 33.3502 53.1999 31.5998C53.1999 29.8494 52.5045 28.1706 51.2668 26.9329C50.0291 25.6952 48.3503 24.9998 46.5999 24.9998ZM28.9999 40.3998C24.6635 40.3998 20.5253 43.0551 18.1804 44.8814C16.3139 43.7141 13.8983 42.5998 11.3999 42.5998C6.1353 42.5998 1.16475 47.5326 1.16475 47.5326V47.5369C0.925367 47.7429 0.733156 47.9981 0.601179 48.285C0.469203 48.572 0.400555 48.884 0.399902 49.1998C0.399902 49.7833 0.631687 50.3429 1.04427 50.7554C1.45685 51.168 2.01643 51.3998 2.5999 51.3998H20.1999H39.9999H55.3999C55.9834 51.3998 56.543 51.168 56.9555 50.7554C57.3681 50.3429 57.5999 49.7833 57.5999 49.1998C57.5999 48.8832 57.5315 48.5704 57.3995 48.2827C57.2675 47.995 57.075 47.7391 56.8351 47.5326C56.8351 47.5326 56.8181 47.5157 56.8179 47.5154C56.8136 47.5126 56.8093 47.5097 56.805 47.5068C56.7207 47.4236 51.8193 42.5998 46.5999 42.5998C44.1015 42.5998 41.6859 43.7141 39.8194 44.8814C37.4745 43.0551 33.3363 40.3998 28.9999 40.3998Z" fill="#B7C1CF"/>
</svg>
