<svg xmlns="http://www.w3.org/2000/svg" width="14" height="19" viewBox="0 0 14 19">
  <path fill="rgb(127,135,157)" fill-rule="evenodd" d="M6.45007324.2319336C6.60217285.0771637 6.80108643 0 7 0c.19891357 0 .39782715.0771637.54992676.2319336l6.22216797 6.33332824c.2224121.22642517.28918457.56671143.1685791.86279297-.11975098.29608154-.40429688.48861694-.71850586.48861694H.77783203c-.31420898 0-.59875488-.1925354-.71850586-.48861694-.12060547-.29608154-.053833-.6363678.1685791-.86279297L6.45007324.2319336zM.05932617 11.57192992c.11975098-.29608154.40429688-.48860168.71850586-.48860168h12.44433594c.31420898 0 .59875488.19252014.71850586.48860168.12060547.29608154.053833.63638306-.1685791.86279297l-6.22216797 6.3333435C7.39825439 18.92243959 7.19909668 19 7 19c-.19909668 0-.3982544-.07756042-.54992676-.2319336L.22790527 12.4347229c-.2224121-.22640991-.28918457-.56671143-.1685791-.86279297z"/>
</svg>
