<svg width="13" height="14" viewBox="0 0 13 14" fill="none" xmlns="http://www.w3.org/2000/svg">
<path d="M6.29167 0.375C6.72867 0.375 7.08333 0.729667 7.08333 1.16667V6.3125C7.08333 6.53111 7.26055 6.70833 7.47917 6.70833C7.69778 6.70833 7.875 6.53111 7.875 6.3125V2.75C7.875 2.313 8.22967 1.95833 8.66667 1.95833C9.10367 1.95833 9.45833 2.313 9.45833 2.75V6.3125V7.5V9.15291L10.9829 7.75203L10.9875 7.75822C11.1625 7.60147 11.3875 7.5 11.6401 7.5C12.1839 7.5 12.625 7.94107 12.625 8.48495C12.625 8.77628 12.4936 9.02962 12.2926 9.21012L12.2987 9.21785L8.44401 12.7603C7.7988 13.4213 6.90027 13.8333 5.90356 13.8333H4.70833C2.52254 13.8333 0.75 12.0608 0.75 9.875V9.08333V6.3125V3.54167C0.75 3.10467 1.10467 2.75 1.54167 2.75C1.97867 2.75 2.33333 3.10467 2.33333 3.54167V6.3125C2.33333 6.53111 2.51055 6.70833 2.72917 6.70833C2.94778 6.70833 3.125 6.53111 3.125 6.3125V1.95833C3.125 1.52133 3.47967 1.16667 3.91667 1.16667C4.35367 1.16667 4.70833 1.52133 4.70833 1.95833V6.3125C4.70833 6.53111 4.88555 6.70833 5.10417 6.70833C5.32278 6.70833 5.5 6.53111 5.5 6.3125V1.16667C5.5 0.729667 5.85467 0.375 6.29167 0.375Z" fill="#7F879D"/>
</svg>
