<svg width="122" height="122" viewBox="0 0 122 122" fill="none" xmlns="http://www.w3.org/2000/svg">
<g filter="url(#filter0_d_1009_2171)">
<circle cx="61" cy="56" r="34" fill="url(#paint0_radial_1009_2171)"/>
</g>
<path d="M57.0627 62.6175V62.1484C57.0719 60.5385 57.2145 59.2553 57.4905 58.2986C57.7756 57.3418 58.1896 56.5691 58.7324 55.9804C59.2751 55.3916 59.9282 54.8581 60.6918 54.3797C61.2621 54.0118 61.7727 53.63 62.2234 53.2344C62.6742 52.8389 63.0329 52.4019 63.2997 51.9236C63.5665 51.436 63.6999 50.8933 63.6999 50.2953C63.6999 49.6606 63.5481 49.104 63.2445 48.6257C62.941 48.1473 62.5316 47.7793 62.0164 47.5218C61.5105 47.2642 60.9493 47.1354 60.333 47.1354C59.7351 47.1354 59.1693 47.2688 58.6358 47.5356C58.1022 47.7931 57.6653 48.1795 57.3249 48.6947C56.9845 49.2006 56.8005 49.8308 56.7729 50.5851H51.1431C51.1891 48.7453 51.6306 47.2274 52.4677 46.0315C53.3049 44.8264 54.4134 43.9295 55.7932 43.3408C57.1731 42.7428 58.6956 42.4438 60.3606 42.4438C62.1912 42.4438 63.8103 42.7474 65.2177 43.3546C66.6252 43.9525 67.7291 44.8218 68.5294 45.9625C69.3298 47.1032 69.7299 48.4785 69.7299 50.0883C69.7299 51.1646 69.5505 52.1213 69.1918 52.9585C68.8422 53.7864 68.35 54.5223 67.7153 55.1663C67.0806 55.801 66.3308 56.3759 65.4661 56.8911C64.7394 57.3234 64.1414 57.7742 63.6723 58.2434C63.2123 58.7125 62.8674 59.2553 62.6374 59.8716C62.4166 60.4879 62.3016 61.2469 62.2924 62.1484V62.6175H57.0627ZM59.7949 71.4487C58.8749 71.4487 58.0884 71.1267 57.4353 70.4828C56.7913 69.8297 56.474 69.0477 56.4832 68.137C56.474 67.2355 56.7913 66.4628 57.4353 65.8188C58.0884 65.1749 58.8749 64.8529 59.7949 64.8529C60.6688 64.8529 61.4369 65.1749 62.0992 65.8188C62.7616 66.4628 63.0973 67.2355 63.1065 68.137C63.0973 68.7442 62.9364 69.3007 62.6236 69.8067C62.32 70.3034 61.9199 70.7036 61.4231 71.0072C60.9263 71.3015 60.3836 71.4487 59.7949 71.4487Z" fill="white"/>
<defs>
<filter id="filter0_d_1009_2171" x="0" y="0" width="122" height="122" filterUnits="userSpaceOnUse" color-interpolation-filters="sRGB">
<feFlood flood-opacity="0" result="BackgroundImageFix"/>
<feColorMatrix in="SourceAlpha" type="matrix" values="0 0 0 0 0 0 0 0 0 0 0 0 0 0 0 0 0 0 127 0" result="hardAlpha"/>
<feMorphology radius="5" operator="dilate" in="SourceAlpha" result="effect1_dropShadow_1009_2171"/>
<feOffset dy="5"/>
<feGaussianBlur stdDeviation="11"/>
<feColorMatrix type="matrix" values="0 0 0 0 0 0 0 0 0 0 0 0 0 0 0 0 0 0 0.12 0"/>
<feBlend mode="normal" in2="BackgroundImageFix" result="effect1_dropShadow_1009_2171"/>
<feBlend mode="normal" in="SourceGraphic" in2="effect1_dropShadow_1009_2171" result="shape"/>
</filter>
<radialGradient id="paint0_radial_1009_2171" cx="0" cy="0" r="1" gradientUnits="userSpaceOnUse" gradientTransform="translate(34.4725 22) rotate(51.5305) scale(85.1925)">
<stop stop-color="#15D593"/>
<stop offset="1" stop-color="#00B467"/>
</radialGradient>
</defs>
</svg>
