<svg width="20" height="20" viewBox="0 0 20 20" fill="none" xmlns="http://www.w3.org/2000/svg">
<path fill-rule="evenodd" clip-rule="evenodd" d="M9.41732 0.23763C9.57302 0.0853125 9.78218 1.41944e-05 10 0C10.2096 0.000654445 10.4113 0.0802718 10.5648 0.222982L15.8333 4.53288V3.33333C15.8333 2.87333 16.2067 2.5 16.6667 2.5H17.5C17.96 2.5 18.3333 2.87333 18.3333 3.33333V6.57715L19.6647 7.66602C19.6844 7.6809 19.7034 7.69665 19.7217 7.71322L19.7347 7.72298C19.9041 7.88076 20.0002 8.10187 20 8.33333C20 8.79357 19.6269 9.16667 19.1667 9.16667H18.3333V18.3333C18.3333 19.2542 17.5875 20 16.6667 20H3.33333C2.4125 20 1.66667 19.2542 1.66667 18.3333V9.16667H0.833333C0.373096 9.16667 0 8.79357 0 8.33333C0.000281432 8.10243 0.0963526 7.882 0.265299 7.72461V7.72298L0.296224 7.69694C0.306338 7.68856 0.316649 7.68042 0.327148 7.67253L9.41732 0.23763ZM15.8333 10.8333H12.5V17.5H15.8333V10.8333Z" fill="#6651F1"/>
</svg>
