<svg width="24" height="24" viewBox="0 0 24 24" fill="none" xmlns="http://www.w3.org/2000/svg">
<path fill-rule="evenodd" clip-rule="evenodd" d="M1 2.30223L2.30223 1L7.3821 6.07986L11.5348 2.68337C11.6724 2.54873 11.8573 2.47332 12.0498 2.47331C12.2351 2.47389 12.4134 2.54427 12.5491 2.67042L17.2064 6.48031V5.41993C17.2064 5.0133 17.5365 4.68328 17.9431 4.68328H18.6797C19.0864 4.68328 19.4164 5.0133 19.4164 5.41993V8.28742L20.5933 9.24996C20.6107 9.26312 20.6275 9.27704 20.6437 9.29169L20.6552 9.30032C20.7292 9.36931 20.7883 9.45283 20.8286 9.54566C20.869 9.63849 20.8898 9.73864 20.8897 9.83986C20.8897 10.0352 20.8121 10.2226 20.6739 10.3608C20.5358 10.4989 20.3484 10.5765 20.1531 10.5765H19.4164V18.1142L23 21.6978L21.6998 22.9979L5.79057 7.08867L5.7885 7.09074L1 2.30223ZM5.22944 7.84053L3.49918 9.25572C3.4899 9.26269 3.48079 9.26989 3.47185 9.2773L3.44451 9.30032V9.30176C3.37062 9.37059 3.31168 9.45387 3.27134 9.54644C3.23099 9.63901 3.21011 9.73888 3.20999 9.83986C3.20999 10.0352 3.2876 10.2226 3.42575 10.3608C3.5639 10.4989 3.75127 10.5765 3.94664 10.5765H4.6833V18.6797C4.6833 19.4937 5.3426 20.153 6.15661 20.153H17.5419L15.332 17.9431H14.2598V16.8709L5.22944 7.84053ZM14.2598 12.9576L17.2064 15.9042V12.0498H14.2598V12.9576Z" fill="#7083A0"/>
</svg>
