<svg width="21" height="21" viewBox="0 0 21 21" fill="none" xmlns="http://www.w3.org/2000/svg">
  <path fill-rule="evenodd" clip-rule="evenodd" d="M9.88818 0.249512C10.0517 0.0895781 10.2713 1.49041e-05 10.5 0C10.7201 0.000687168 10.9318 0.0842853 11.093 0.234131L16.625 4.75952V3.5C16.625 3.017 17.017 2.625 17.5 2.625H18.375C18.858 2.625 19.25 3.017 19.25 3.5V6.90601L20.6479 8.04932C20.6686 8.06494 20.6886 8.08148 20.7078 8.09888L20.7214 8.10913C20.8993 8.2748 21.0002 8.50696 21 8.75C21 9.23325 20.6082 9.625 20.125 9.625H19.25V19.25C19.25 20.2169 18.4669 21 17.5 21H3.5C2.53312 21 1.75 20.2169 1.75 19.25V9.625H0.875C0.391751 9.625 0 9.23325 0 8.75C0.000295504 8.50756 0.10117 8.2761 0.278564 8.11084V8.10913L0.311035 8.08179C0.321655 8.07299 0.332482 8.06444 0.343506 8.05615L9.88818 0.249512ZM16.625 11.375H13.125V18.375H16.625V11.375Z" fill="#FFFFFF"/>
</svg>
