<?xml version="1.0" encoding="UTF-8"?>
<svg width="26px" height="22px" viewBox="0 0 26 22" version="1.1" xmlns="http://www.w3.org/2000/svg" xmlns:xlink="http://www.w3.org/1999/xlink">
    <title>Shape</title>
    <g id="Kiosk-Mode:-ID-Scanning-(SP-1043)" stroke="none" stroke-width="1" fill="none" fill-rule="evenodd">
        <g id="Import" transform="translate(-292.000000, -244.000000)" fill="#1F195E" fill-rule="nonzero">
            <g id="Group" transform="translate(273.000000, 224.000000)">
                <path d="M39,20 C36.783,20 35.058141,21.1375781 34.869141,21.2675781 C33.964141,21.8875781 33.736656,23.1143906 34.347656,24.0253906 C34.958656,24.9363906 36.199234,25.179125 37.115234,24.578125 C37.123234,24.571125 38.006,24 39,24 C39.497,24 40,24.2496094 40,24.7246094 C40,25.2716094 39.178156,25.4520938 38.910156,25.4960938 C38.823156,25.5060937 38.753125,25.5144844 38.703125,25.5214844 C37.635125,25.6824844 36.886672,26.661375 37.013672,27.734375 C37.140672,28.807375 38.085828,29.580188 39.173828,29.492188 C39.272828,29.483187 39.372656,29.472984 39.472656,29.458984 C39.958656,29.421984 40.688688,29.498078 40.929688,29.705078 C40.994688,29.761078 41,29.981828 41,30.048828 C41,30.944828 39.02,31 39,31 C38.505,31 37.973031,30.824297 37.582031,30.654297 C37.849031,31.447297 38,32.312281 38,33.238281 C38,33.806281 37.914578,34.348094 37.767578,34.871094 C38.159578,34.946094 38.57,35 39,35 C41.89,35 45,33.450828 45,30.048828 C45,28.328828 44.231266,27.281172 43.572266,26.701172 C43.843266,26.129172 44,25.4716094 44,24.7246094 C44,22.0756094 41.804,20 39,20 Z M23.8339844,20.0078125 C23.67725,20.0209844 23.5196875,20.0525156 23.3671875,20.1035156 L20.3671875,21.1035156 C19.3191875,21.4535156 18.7545156,22.5848125 19.1035156,23.6328125 C19.4525156,24.6818125 20.5888125,25.2464375 21.6328125,24.8984375 L22,24.7753906 L22,31 L21,31 C19.896,31 19,31.896 19,33 C19,34.104 19.896,35 21,35 L25.3066406,35 C24.0996406,33.856 23.6714375,32.043219 24.3984375,30.449219 C24.7474375,29.683219 25.287,28.869391 26,28.150391 L26,22 C26,21.357 25.6919219,20.7529531 25.1699219,20.3769531 C24.7791719,20.0957031 24.3041875,19.9682969 23.8339844,20.0078125 Z M31,28 C28.406,28 26.77375,30.061297 26.21875,31.279297 C25.76075,32.283297 26.2039844,33.469734 27.208984,33.927734 C28.211984,34.384734 29.399422,33.9425 29.857422,32.9375 C29.862422,32.9285 30.351,32 31,32 C31.325,32 32.000906,31.999172 32.003906,33.201172 C31.854906,34.047172 29.379781,36.168594 28.050781,37.308594 C27.577781,37.713594 27.111875,38.114859 26.671875,38.505859 C26.050875,39.057859 25.8358594,39.934938 26.1308594,40.710938 C26.4268594,41.486937 27.17,42 28,42 L35,42 C36.104,42 37,41.104 37,40 C37,38.896 36.104,38 35,38 L33.277344,38 C34.853344,36.46 36,34.914281 36,33.238281 C36,30.153281 33.944,28 31,28 Z" id="Shape"></path>
            </g>
        </g>
    </g>
</svg>