<?xml version="1.0" encoding="UTF-8"?>
<svg width="26px" height="22px" viewBox="0 0 26 22" version="1.1" xmlns="http://www.w3.org/2000/svg" xmlns:xlink="http://www.w3.org/1999/xlink">
    <title>icons8-numbers</title>
    <g id="Kiosk-Mode:-ID-Scanning-(SP-1043)" stroke="none" stroke-width="1" fill="none" fill-rule="evenodd">
        <g id="Import" transform="translate(-1931.000000, -221.000000)" fill="#FFFFFF" fill-rule="nonzero">
            <g id="Dropdown" transform="translate(1778.000000, 197.000000)">
                <g id="icons8-numbers" transform="translate(153.000000, 24.000000)">
                    <path d="M20,0 C17.783,0 16.058141,1.1375781 15.869141,1.2675781 C14.964141,1.8875781 14.736656,3.1143906 15.347656,4.0253906 C15.958656,4.9363906 17.199234,5.179125 18.115234,4.578125 C18.123234,4.571125 19.006,4 20,4 C20.497,4 21,4.2496094 21,4.7246094 C21,5.2716094 20.178156,5.4520938 19.910156,5.4960938 C19.823156,5.5060937 19.753125,5.5144844 19.703125,5.5214844 C18.635125,5.6824844 17.886672,6.661375 18.013672,7.734375 C18.140672,8.807375 19.085828,9.580188 20.173828,9.492188 C20.272828,9.483187 20.372656,9.472984 20.472656,9.458984 C20.958656,9.421984 21.688688,9.498078 21.929688,9.705078 C21.994688,9.761078 22,9.981828 22,10.048828 C22,10.944828 20.02,11 20,11 C19.505,11 18.973031,10.824297 18.582031,10.654297 C18.849031,11.447297 19,12.312281 19,13.238281 C19,13.806281 18.914578,14.348094 18.767578,14.871094 C19.159578,14.946094 19.57,15 20,15 C22.89,15 26,13.450828 26,10.048828 C26,8.328828 25.231266,7.281172 24.572266,6.701172 C24.843266,6.129172 25,5.4716094 25,4.7246094 C25,2.0756094 22.804,0 20,0 Z M4.8339844,0.0078125 C4.67725,0.0209844 4.5196875,0.0525156 4.3671875,0.1035156 L1.3671875,1.1035156 C0.3191875,1.4535156 -0.2454844,2.5848125 0.1035156,3.6328125 C0.4525156,4.6818125 1.5888125,5.2464375 2.6328125,4.8984375 L3,4.7753906 L3,11 L2,11 C0.896,11 0,11.896 0,13 C0,14.104 0.896,15 2,15 L6.3066406,15 C5.0996406,13.856 4.6714375,12.043219 5.3984375,10.449219 C5.7474375,9.683219 6.287,8.869391 7,8.150391 L7,2 C7,1.357 6.6919219,0.7529531 6.1699219,0.3769531 C5.7791719,0.0957031 5.3041875,-0.0317031 4.8339844,0.0078125 Z M12,8 C9.406,8 7.77375,10.061297 7.21875,11.279297 C6.76075,12.283297 7.2039844,13.469734 8.208984,13.927734 C9.211984,14.384734 10.399422,13.9425 10.857422,12.9375 C10.862422,12.9285 11.351,12 12,12 C12.325,12 13.000906,11.999172 13.003906,13.201172 C12.854906,14.047172 10.379781,16.168594 9.050781,17.308594 C8.577781,17.713594 8.111875,18.114859 7.671875,18.505859 C7.050875,19.057859 6.8358594,19.934938 7.1308594,20.710938 C7.4268594,21.486937 8.17,22 9,22 L16,22 C17.104,22 18,21.104 18,20 C18,18.896 17.104,18 16,18 L14.277344,18 C15.853344,16.46 17,14.914281 17,13.238281 C17,10.153281 14.944,8 12,8 Z" id="Shape"></path>
                </g>
            </g>
        </g>
    </g>
</svg>