<svg xmlns="http://www.w3.org/2000/svg" width="26" height="26" viewBox="0 0 26 26">
  <g>
    <path fill="rgb(31,25,94)" fill-rule="evenodd" d="M5 0h16c2.75957512 0 5 2.24042488 5 5v16c0 2.75957512-2.24042488 5-5 5H5c-2.75957512 0-5-2.24042488-5-5V5c0-2.75957512 2.24042488-5 5-5z"/>
    <path fill="rgb(255,255,255)" fill-rule="evenodd" d="M18.0769043 6c-1.44958496 0-2.57736206.72390747-2.70092774.80664063-.59173584.39453124-.74047851 1.17523193-.3409729 1.75497436.3994751.57971191 1.21063233.7341919 1.80957031.3517456.00521851-.00445556.58242798-.36791992 1.23233033-.36791992.32498169 0 .6538391.158844.6538391.4611206 0 .34811402-.5373535.46295167-.71258544.4909668-.05688477.00634766-.10266113.01168824-.13534546.0161438-.69833374.10244751-1.1876831.72537232-1.10464478 1.40820313.08303833.68283081.7010193 1.17462158 1.41238404 1.11862183.0647583-.0057373.13000488-.01223755.19540405-.02114869.31777954-.02352905.79510498.02487183.95266724.15661622.04251098.03564453.04598999.17611694.04598999.21875 0 .57019043-1.2946167.60528564-1.30770874.60528564-.32363892 0-.67147827-.1118164-.92712403-.22000122.17456055.50463867.27328492 1.05508423.27328492 1.64434814 0 .36148072-.05584717.70626831-.15197754 1.0390625.25631714.0477295.5246582.08203125.80581665.08203125 1.88961792 0 3.9230957-.98580932 3.9230957-3.15072631 0-1.09454346-.50265503-1.76123047-.93353271-2.13034058.17718505-.36398315.27966308-.78244019.27966308-1.2578125C21.34613037 7.3208313 19.91030884 6 18.0769043 6zm-9.91622925.00497437c-.10247803.00836181-.20550537.02844238-.3052063.06088256L5.8939209 6.70224c-.68521118.22271729-1.05444336.94262695-.82623291 1.6095581.22817993.66754151.97116089 1.02682496 1.65377807.80538941l.2400818-.0783081V13h-.65386964C5.58584595 13 5 13.57019043 5 14.2727356c0 .70254516.58584595 1.27270507 1.30767822 1.27270507h2.81588745c-.78918457-.72799682-1.06915283-1.8815918-.59381103-2.89593505.22817993-.48745728.58096313-1.00534058 1.04718017-1.46289063v-3.9138794c0-.40917968-.20144653-.7935791-.54275512-1.03286743-.25549317-.1789856-.56607056-.26004028-.87350464-.2348938zm1.55926514 7.17276c.36288452-.77508544 1.43014526-2.0868225 3.1262207-2.0868225 1.92492676 0 3.26922607 1.37026977 3.26922607 3.33346557 0 1.06652832-.74972534 2.0501709-1.7802124 3.03018189h1.1263733c.72183227 0 1.30767821.5701599 1.30767821 1.27270507 0 .70254517-.58584594 1.2727356-1.30767822 1.2727356h-4.57693481c-.5426941 0-1.02859497-.32647705-1.22213745-.8203125-.1928711-.49380493-.05227662-1.05194092.35375976-1.40322876.28768921-.24880981.59231568-.5041809.90158081-.76190186.86895752-.72543334 2.48730469-2.07543945 2.58474732-2.61380004-.00198365-.7644043-.44329834-.7644043-.6564026-.7644043-.42434692 0-.74380492.59088135-.7470703.59661865-.299469.63952637-1.0758667.92095947-1.73168946.63012695-.65710449-.29144287-.94689941-1.04644775-.64746093-1.68536376z"/>
  </g>
</svg>
