<?xml version="1.0" encoding="UTF-8"?>
<svg width="150px" height="150px" viewBox="0 0 150 150" version="1.1" xmlns="http://www.w3.org/2000/svg" xmlns:xlink="http://www.w3.org/1999/xlink">
    <!-- Generator: Sketch 53.2 (72643) - https://sketchapp.com -->
    <title>Inbox (Navy)</title>
    <desc>Created with Sketch.</desc>
    <g id="Inbox-(Navy)" stroke="none" stroke-width="1" fill="none" fill-rule="evenodd">
        <g id="icons8-inbox" transform="translate(0.000000, 18.000000)" fill="#1F195E" fill-rule="nonzero">
            <path d="M31.1899038,0 C23.6853981,0 17.3753019,5.0087905 14.7836538,11.859375 L14.7836538,12.0390625 L0.360576923,55.703125 L0,56.6015625 L0,92 C0,104.645509 10.3891212,115 23.0769231,115 L126.923077,115 C139.610879,115 150,104.645509 150,92 L150,56.6015625 L149.639423,55.703125 L134.675481,11.859375 C132.241587,5.390625 126.021635,0 118.269231,0 L31.1899038,0 Z M31.1899038,11.5 L118.269231,11.5 C120.905948,11.5 122.821517,13.0722685 123.858173,15.8125 L138.28125,57.5 L92.3076923,57.5 C92.3076923,67.2705092 84.8031865,74.75 75,74.75 C65.1968135,74.75 57.6923077,67.2705092 57.6923077,57.5 L11.71875,57.5 L25.6009615,15.8125 C26.4798692,13.4765625 29.4546288,11.5 31.1899038,11.5 Z" id="Shape"></path>
        </g>
    </g>
</svg>