<?xml version="1.0" encoding="UTF-8"?>
<svg width="150px" height="150px" viewBox="0 0 150 150" version="1.1" xmlns="http://www.w3.org/2000/svg" xmlns:xlink="http://www.w3.org/1999/xlink">
    <!-- Generator: Sketch 53.2 (72643) - https://sketchapp.com -->
    <title>Info (Navy)</title>
    <desc>Created with Sketch.</desc>
    <g id="Info-(Navy)" stroke="none" stroke-width="1" fill="none" fill-rule="evenodd">
        <g id="icons8-info" fill="#1F195E" fill-rule="nonzero">
            <path d="M75,0 C33.58125,0 0,33.58125 0,75 C0,116.41875 33.58125,150 75,150 C116.41875,150 150,116.41875 150,75 C150,33.58125 116.41875,0 75,0 Z M75.25,112.5 L74.75,112.5 C71.4362915,112.5 68.75,109.813708 68.75,106.5 L68.75,74.75 C68.75,71.4362915 71.4362915,68.75 74.75,68.75 L75.25,68.75 C78.5637085,68.75 81.25,71.4362915 81.25,74.75 L81.25,106.5 C81.25,109.813708 78.5637085,112.5 75.25,112.5 Z M75,53.125 C69.825,53.125 65.625,48.925 65.625,43.75 C65.625,38.575 69.825,34.375 75,34.375 C80.175,34.375 84.375,38.575 84.375,43.75 C84.375,48.925 80.175,53.125 75,53.125 Z" id="Shape"></path>
        </g>
    </g>
</svg>