<svg width="32" height="33" viewBox="0 0 32 33" fill="none" xmlns="http://www.w3.org/2000/svg">
<path d="M9.33073 0.415039C4.1854 0.415039 0 4.60431 0 9.75098V23.0843C0 28.2296 4.18927 32.415 9.33594 32.415H22.6693C27.8146 32.415 32 28.2258 32 23.0791V9.74577C32 4.60044 27.8107 0.415039 22.6641 0.415039H9.33073ZM25.3333 5.74837C26.0693 5.74837 26.6667 6.34571 26.6667 7.08171C26.6667 7.81771 26.0693 8.41504 25.3333 8.41504C24.5973 8.41504 24 7.81771 24 7.08171C24 6.34571 24.5973 5.74837 25.3333 5.74837ZM16 8.41504C20.412 8.41504 24 12.003 24 16.415C24 20.827 20.412 24.415 16 24.415C11.588 24.415 8 20.827 8 16.415C8 12.003 11.588 8.41504 16 8.41504ZM16 11.0817C14.5855 11.0817 13.229 11.6436 12.2288 12.6438C11.2286 13.644 10.6667 15.0006 10.6667 16.415C10.6667 17.8295 11.2286 19.1861 12.2288 20.1863C13.229 21.1865 14.5855 21.7484 16 21.7484C17.4145 21.7484 18.771 21.1865 19.7712 20.1863C20.7714 19.1861 21.3333 17.8295 21.3333 16.415C21.3333 15.0006 20.7714 13.644 19.7712 12.6438C18.771 11.6436 17.4145 11.0817 16 11.0817Z" fill="#FD287E"/>
</svg>
