<svg width="18" height="18" viewBox="0 0 18 18" fill="none" xmlns="http://www.w3.org/2000/svg">
  <path fill-rule="evenodd" clip-rule="evenodd" d="M1.38462 0.5C0.619615 0.5 0 1.16152 0 1.97826V4.93478C0 5.75152 0.619615 6.41304 1.38462 6.41304H5.53846C6.30346 6.41304 6.92308 5.75152 6.92308 4.93478V1.97826C6.92308 1.16152 6.30346 0.5 5.53846 0.5H1.38462ZM3.44531 7.8913C3.06296 7.8913 2.753 8.22222 2.753 8.63043C2.753 9.03865 3.06296 9.36957 3.44531 9.36957C3.82766 9.36957 4.13762 9.03865 4.13762 8.63043C4.13762 8.22222 3.82766 7.8913 3.44531 7.8913ZM2.753 11.587C2.753 11.1787 3.06296 10.8478 3.44531 10.8478C3.82766 10.8478 4.13762 11.1787 4.13762 11.587C4.13762 11.9952 3.82766 12.3261 3.44531 12.3261C3.06296 12.3261 2.753 11.9952 2.753 11.587ZM12.4615 11.587C11.6965 11.587 11.0769 12.2485 11.0769 13.0652V16.0217C11.0769 16.8385 11.6965 17.5 12.4615 17.5H16.6154C17.3804 17.5 18 16.8385 18 16.0217V13.0652C18 12.2485 17.3804 11.587 16.6154 11.587H12.4615ZM2.753 14.5435C2.753 14.1353 3.06296 13.8043 3.44531 13.8043C3.82766 13.8043 4.13762 14.1353 4.13762 14.5435C4.13762 14.9517 3.82766 15.2826 3.44531 15.2826C3.06296 15.2826 2.753 14.9517 2.753 14.5435ZM6.21454 13.8043C5.83219 13.8043 5.52224 14.1353 5.52224 14.5435C5.52224 14.9517 5.83219 15.2826 6.21454 15.2826C6.59689 15.2826 6.90685 14.9517 6.90685 14.5435C6.90685 14.1353 6.59689 13.8043 6.21454 13.8043ZM8.29147 14.5435C8.29147 14.1353 8.60142 13.8043 8.98377 13.8043C9.36612 13.8043 9.67608 14.1353 9.67608 14.5435C9.67608 14.9517 9.36612 15.2826 8.98377 15.2826C8.60142 15.2826 8.29147 14.9517 8.29147 14.5435Z" fill="#00B476"/>
</svg>
