<svg width="20" height="20" viewBox="0 0 20 20" fill="none" xmlns="http://www.w3.org/2000/svg">
<rect width="20" height="20" rx="5" fill="#7083A0"/>
<path fill-rule="evenodd" clip-rule="evenodd" d="M5.84615 5C5.37865 5 5 5.40129 5 5.89674V7.69021C5 8.18566 5.37865 8.58695 5.84615 8.58695H8.38461C8.85211 8.58695 9.23076 8.18566 9.23076 7.69021V5.89674C9.23076 5.40129 8.85211 5 8.38461 5H5.84615ZM7.10569 9.48438C6.87203 9.48438 6.68262 9.68512 6.68262 9.93274C6.68262 10.1804 6.87203 10.3811 7.10569 10.3811C7.33935 10.3811 7.52877 10.1804 7.52877 9.93274C7.52877 9.68512 7.33935 9.48438 7.10569 9.48438ZM6.68262 11.7257C6.68262 11.4781 6.87203 11.2773 7.10569 11.2773C7.33935 11.2773 7.52877 11.4781 7.52877 11.7257C7.52877 11.9733 7.33935 12.1741 7.10569 12.1741C6.87203 12.1741 6.68262 11.9733 6.68262 11.7257ZM12.6152 11.7266C12.1477 11.7266 11.769 12.1279 11.769 12.6233V14.4168C11.769 14.9122 12.1477 15.3135 12.6152 15.3135H15.1537C15.6212 15.3135 15.9998 14.9122 15.9998 14.4168V12.6233C15.9998 12.1279 15.6212 11.7266 15.1537 11.7266H12.6152ZM6.68262 13.5187C6.68262 13.2711 6.87203 13.0703 7.10569 13.0703C7.33935 13.0703 7.52877 13.2711 7.52877 13.5187C7.52877 13.7663 7.33935 13.967 7.10569 13.967C6.87203 13.967 6.68262 13.7663 6.68262 13.5187ZM8.79759 13.0703C8.56393 13.0703 8.37451 13.2711 8.37451 13.5187C8.37451 13.7663 8.56393 13.967 8.79759 13.967C9.03125 13.967 9.22066 13.7663 9.22066 13.5187C9.22066 13.2711 9.03125 13.0703 8.79759 13.0703ZM10.0669 13.5187C10.0669 13.2711 10.2563 13.0703 10.49 13.0703C10.7236 13.0703 10.913 13.2711 10.913 13.5187C10.913 13.7663 10.7236 13.967 10.49 13.967C10.2563 13.967 10.0669 13.7663 10.0669 13.5187Z" fill="white"/>
</svg>
