<svg xmlns="http://www.w3.org/2000/svg" width="26" height="26" viewBox="0 0 26 26">
  <g>
    <path fill="rgb(114,204,27)" fill-rule="evenodd" d="M5 0h16c2.75957512 0 5 2.24042488 5 5v16c0 2.75957512-2.24042488 5-5 5H5c-2.75957512 0-5-2.24042488-5-5V5c0-2.75957512 2.24042488-5 5-5z"/>
    <path fill="rgb(255,255,255)" fill-rule="evenodd" d="M9.82122803 3c-1.1685791 0-2.11584473.96704102-2.11584473 2.15992737 0 1.1929016.94726563 2.15992737 2.11584473 2.15992737 1.16851806 0 2.11578369-.96702576 2.11578369-2.15992737C11.93701172 3.96704102 10.98974609 3 9.82122802 3zM9.1159668 8.7598114c-1.16015625 0-2.11584473.97558594-2.11584473 2.15992737v4.31987c-.00256348.1926422.07061768.3782959.203125.51544189.13256836.13716125.31341553.21437073.50213623.21437073v4.28611755c0 .41038513.3267212.74388123.72869873.74388123.383667 0 .7019043-.3037262.72729492-.69467163l.30859375-4.73046875c.01269532-.187912.16577149-.33467103.35125733-.33467103.18548584 0 .338562.14744568.35125732.33607483l.30853272 4.72906495c.02539062.39022827.34362793.69467163.72735595.69467163.40197754 0 .7286377-.3334961.7286377-.74388123v-4.16659546c.04162598.24925232.20831299.45794678.43908691.54981995.2307129.0918579.49176026.05343628.68774414-.1012268.01715088-.01329041.03369141-.02735902.04956055-.04219056l.00549316-.00422669c.00750733-.00732421.01489258-.01483154.0220337-.02249145l.02758789-.02812195.47937011-.48796081-.2989502 4.27627563c-.01776122.25675964.0999756.50370789.30895997.64776611.20892334.14407349.47729492.16337586.7039795.05064392.22668456-.11274719.37719726-.34039306.39489745-.59716796l.00408936-.05203247.2713623-1.94758606c.07122803-.50975037.79248047-.50975037.8637085 0l.26861572 1.92790222.00549317.0717163c.01763916.2567749.16815185.48442078.39483642.59716797.22668457.11273194.49505615.09342957.70404053-.05064392.20892334-.14405822.32672119-.39100647.30889892-.6477661l-.29888916-4.27767945.50689698.51748657c.17687988.18807983.4395752.26385498.68676757.19807434.24713135-.06576538.44012452-.26281738.50457764-.51512146.06445313-.25230408-.00976562-.52046204-.19403076-.7010498l-.53997803-.55122376c-.68933105-.70368957-1.62548828-1.09965515-2.600708-1.09965515h-.3581543c-.75396729 0-1.48248291.23899841-2.09375.67216492l-.41326905-3.79112244c-.11883544-1.08773804-1.02990722-1.92088318-2.10205078-1.92088318H9.1159668zm4.93688965 2.87991333c0-.79527283.63153076-1.43995666 1.41052246-1.43995666.77905273 0 1.4105835.64468383 1.4105835 1.43995666 0 .79525757-.63153077 1.43995667-1.4105835 1.43995667-.7789917 0-1.41052246-.6446991-1.41052246-1.43995667z"/>
  </g>
</svg>
