<?xml version="1.0" encoding="UTF-8"?>
<svg width="15px" height="22px" viewBox="0 0 15 22" version="1.1" xmlns="http://www.w3.org/2000/svg" xmlns:xlink="http://www.w3.org/1999/xlink">
    <title>Shape</title>
    <g id="Parent-accounts-(SP-1091)" stroke="none" stroke-width="1" fill="none" fill-rule="evenodd">
        <g id="Accounts-tab" transform="translate(-991.000000, -69.000000)" fill="#FFFFFF" fill-rule="nonzero">
            <g id="Admins" transform="translate(244.231013, 29.000000)">
                <g id="Group-4" transform="translate(599.268987, 31.000000)">
                    <g id="Group-6" transform="translate(135.000000, 0.000000)">
                        <g id="icons8-single_father" transform="translate(13.000000, 9.500000)">
                            <path d="M3.29141998,0 C1.9281305,0 0.822966007,1.1282061 0.822966007,2.51991886 C0.822966007,3.91163162 1.9281305,5.03983773 3.29141998,5.03983773 C4.65470947,5.03983773 5.75987396,3.91163162 5.75987396,2.51991886 C5.75987396,1.1282061 4.65470947,0 3.29141998,0 Z M2.46860199,6.71978363 C1.11509124,6.71978363 7.21343677e-05,7.85797219 7.21343677e-05,9.2397025 L7.21343677e-05,14.2795402 C-0.00283998577,14.5042913 0.0825259875,14.7208906 0.237156936,14.8809036 C0.391787885,15.0409167 0.602784842,15.1309955 0.822966007,15.1309973 L0.822966007,20.1314613 C0.822966007,20.6102459 1.20409785,20.9993239 1.67310402,20.9993239 C2.12071701,20.9993239 2.49201363,20.6449863 2.52163508,20.188881 L2.88161795,14.6699966 C2.89642867,14.4507637 3.07501885,14.2795402 3.29141998,14.2795402 C3.50782112,14.2795402 3.68641129,14.4515642 3.70122202,14.6716371 L4.06120489,20.188881 C4.09082634,20.6441463 4.46212295,20.9993239 4.90973594,20.9993239 C5.3787422,20.9993239 5.75987396,20.6102459 5.75987396,20.1314613 L5.75987396,15.2704462 C5.80844536,15.5612389 6.00286783,15.8047155 6.27208575,15.9118927 C6.54130367,16.0190699 6.84586212,15.9742404 7.07445406,15.793788 C7.09446464,15.7782924 7.11376978,15.7618697 7.13230886,15.7445715 C7.13445932,15.7429414 7.13660196,15.7413007 7.13873672,15.7396492 C7.14749604,15.7310939 7.15606916,15.722342 7.16444978,15.7134001 L7.19659152,15.6805891 L7.75585021,15.11131 L7.40711691,20.1002907 C7.38636105,20.3998484 7.52375965,20.6879483 7.76753896,20.8560302 C8.01131827,21.0241122 8.3244279,21.0466305 8.5888837,20.9151 C8.85333949,20.7835695 9.02894858,20.5179807 9.04953897,20.2184111 L9.05435986,20.1577104 L9.37095224,17.8855181 C9.45405686,17.2908172 10.2954779,17.2908172 10.3785826,17.8855181 L10.691961,20.1347422 L10.6983889,20.2184111 C10.7189793,20.5179807 10.8945884,20.7835695 11.1590441,20.9151 C11.4234999,21.0466305 11.7366096,21.0241122 11.9803889,20.8560302 C12.2241682,20.6879483 12.3615668,20.3998484 12.3408109,20.1002907 L11.9920776,15.1096695 L12.5834781,15.7134001 C12.7898545,15.9328353 13.0963134,16.0212297 13.3846634,15.9444925 C13.6730134,15.8677552 13.8981964,15.6378774 13.9733664,15.3435155 C14.0485365,15.0491537 13.9619473,14.7363054 13.7469937,14.5256263 L13.1170237,13.882522 C12.3128277,13.0615584 11.2206413,12.5995943 10.0828823,12.5995943 L9.6650455,12.5995943 C8.78538559,12.5995943 7.93545246,12.8784334 7.22230458,13.383788 L6.74018425,8.96080544 C6.60151638,7.6917827 5.53860339,6.71978363 4.28780156,6.71978363 L3.29141998,6.71978363 L2.46860199,6.71978363 Z M9.87396392,8.39972954 C8.96510426,8.39972954 8.22832794,9.15186694 8.22832794,10.0796755 C8.22832794,11.007484 8.96510426,11.7596214 9.87396392,11.7596214 C10.7828236,11.7596214 11.5195999,11.007484 11.5195999,10.0796755 C11.5195999,9.15186694 10.7828236,8.39972954 9.87396392,8.39972954 Z" id="Shape"></path>
                        </g>
                    </g>
                </g>
            </g>
        </g>
    </g>
</svg>