<?xml version="1.0" encoding="UTF-8"?>
<svg width="150px" height="150px" viewBox="0 0 150 150" version="1.1" xmlns="http://www.w3.org/2000/svg" xmlns:xlink="http://www.w3.org/1999/xlink">
    <!-- Generator: Sketch 53.2 (72643) - https://sketchapp.com -->
    <title>iPad (Jade)</title>
    <desc>Created with Sketch.</desc>
    <g id="iPad-(Jade)" stroke="none" stroke-width="1" fill="none" fill-rule="evenodd">
        <g id="icons8-ipad_mini" transform="translate(14.000000, 0.000000)" fill="#00B476" fill-rule="nonzero">
            <path d="M122,136.363636 L122,13.6363636 C122,6.11590909 115.920333,0 108.444444,0 L13.5555556,0 C6.07966667,0 0,6.11590909 0,13.6363636 L0,136.363636 C0,143.884091 6.07966667,150 13.5555556,150 L108.444444,150 C115.920333,150 122,143.884091 122,136.363636 Z M54.2222222,129.545455 L13.5555556,129.545455 L13.5555556,13.6363636 L108.444444,13.6363636 L108.444444,129.545455 L67.7777778,129.545455 C67.7777778,133.309091 64.7413333,136.363636 61,136.363636 C57.2586667,136.363636 54.2222222,133.309091 54.2222222,129.545455 Z" id="Shape"></path>
        </g>
    </g>
</svg>