<svg xmlns="http://www.w3.org/2000/svg" width="12" height="16" viewBox="0 0 12 16">
  <path fill="#FFFFFF" fill-rule="evenodd" d="M4.2000122 1.77777863C4.2000122.80295563 5.0130005 0 6 0c.98699951 0 1.7999878.80295563 1.7999878 1.77777863h2.4000244C11.18701173 1.77777863 12 2.58075714 12 3.55555725V14.222229C12 15.19702148 11.18701172 16 10.2000122 16H1.7999878C.81298827 16 0 15.19702148 0 14.222229V3.55555725c0-.9748001.81298828-1.77777862 1.7999878-1.77777862h2.4000244zm2.40002442 0c0-.33429718-.26153564-.59259034-.60003662-.59259034-.33843994 0-.59997559.25829316-.59997559.59259034 0 .3343048.26153565.59259796.59997559.59259796.33850098 0 .60003662-.25829315.60003662-.59259796zM1.7999878 2.96295929h2.40002442v.59259033c0 .3271103.26879883.59259796.59997558.59259796h2.40002442c.33117675 0 .59997558-.26548767.59997558-.59259796V2.9629593h2.40002442c.33898925 0 .59997558.2577591.59997558.59259033v10.66666413c0 .33483886-.26098633.59259033-.59997558.59259033H1.79998779c-.33898925 0-.59997558-.25775147-.59997558-.59259033V3.55554962c0-.33483124.26098633-.59259033.59997558-.59259033zm1.2732544 3.84940338c.10913086-.18458557.31036377-.29686737.5267334-.29384613H8.4000244c.21636963-.00302124.41760254.10926056.5267334.29384613.10906983.1845932.10906983.4128952 0 .5974884-.10913086.1845932-.31036377.296875-.5267334.29384613H3.5999756c-.21636963.00302887-.41760254-.10925293-.5267334-.29384613-.10906983-.1845932-.10906983-.4128952 0-.5974884zm.5267334 2.07653046c-.21636963-.00302124-.41760254.10926056-.5267334.29384613-.10906983.1845932-.10906983.4128952 0 .5974884.10913086.1845932.31036377.296875.5267334.29384613h3c.21643066.00302887.41766357-.10925293.5267334-.29384613.10913085-.1845932.10913085-.4128952 0-.5974884-.10906983-.18458557-.31030274-.29686737-.5267334-.29384613h-3zm-.5267334 2.66421509c.10913086-.18458558.31036377-.29686738.5267334-.29384614H8.4000244c.21636963-.00302124.41760254.10926056.5267334.29384614.10906983.1845932.10906983.4128952 0 .5974884-.10913086.1845932-.31036377.296875-.5267334.29384613H3.5999756c-.21636963.00302887-.41760254-.10925293-.5267334-.29384613-.10906983-.1845932-.10906983-.4128952 0-.5974884z"/>
</svg>
