<svg xmlns="http://www.w3.org/2000/svg" width="26" height="26" viewBox="0 0 26 26">
  <g>
    <path fill="rgb(31,25,94)" fill-rule="evenodd" d="M5 0h16c2.75957512 0 5 2.24042488 5 5v16c0 2.75957512-2.24042488 5-5 5H5c-2.75957512 0-5-2.24042488-5-5V5c0-2.75957512 2.24042488-5 5-5z"/>
    <path fill="rgb(255,255,255)" fill-rule="evenodd" d="M11.19999695 5.777771C11.19999695 4.80296326 12.01300049 4 13 4s1.80000305.80296326 1.80000305 1.777771h2.3999939C18.1869812 5.777771 19 6.58076477 19 7.55555725V18.222229C19 19.19702148 18.1869812 20 17.19999695 20h-8.3999939C7.8130188 20 7 19.19702148 7 18.222229V7.55555725C7 6.58076477 7.8130188 5.777771 8.80000305 5.777771h2.3999939zm2.3999939 0c0-.33428955-.2615204-.59259034-.59999085-.59259034-.33848572 0-.6000061.25830079-.6000061.59259034 0 .3343048.26152038.59259033.6000061.59259033.33847046 0 .59999084-.25828552.59999084-.59259033zm-4.7999878 1.18519592h2.3999939v.59259033c0 .32711792.26879883.59259033.6000061.59259033h2.3999939c.33120727 0 .6000061-.2654724.6000061-.59259033v-.59259033h2.3999939c.33901977 0 .6000061.25776672.6000061.59259033V18.222229c0 .33482361-.26098633.59259034-.6000061.59259034h-8.3999939c-.33901977 0-.6000061-.25776673-.6000061-.59259034V7.55555725c0-.3348236.26098633-.59259033.6000061-.59259033zm1.27326966 3.84941101c.10908508-.18460083.3103485-.296875.5267334-.29385376h4.79998779c.21638488-.00302124.41764831.10925293.5267334.29385376.10908508.18458557.10908508.41288757 0 .59747314-.10908509.18460083-.31034852.296875-.5267334.29385376h-4.7999878c-.21638488.00302124-.41764831-.10925293-.5267334-.29385376-.10908508-.18458557-.10908508-.41288757 0-.59747314zm.5267334 2.07650757c-.2163849-.00302124-.41764832.10925293-.5267334.29385376-.10908509.18458557-.10908509.41288757 0 .59747314.10908508.18460083.3103485.296875.5267334.29385376h3c.21636962.00302124.4176483-.10925293.5267334-.29385376.10906982-.18458557.10906982-.41288757 0-.59747314-.1090851-.18460083-.31036378-.296875-.5267334-.29385376h-3zm-.5267334 2.66423034c.10908508-.18460083.3103485-.296875.5267334-.29385376h4.79998779c.21638488-.00302124.41764831.10925293.5267334.29385376.10908508.18458558.10908508.41288758 0 .59747315-.10908509.18460083-.31034852.296875-.5267334.29385376h-4.7999878c-.21638488.00302124-.41764831-.10925293-.5267334-.29385376-.10908508-.18458557-.10908508-.41288757 0-.59747315z"/>
  </g>
</svg>
