<svg width="26" height="27" viewBox="0 0 26 27" fill="none" xmlns="http://www.w3.org/2000/svg">
<path fill-rule="evenodd" clip-rule="evenodd" d="M21.5 0.000118072C21.2294 -0.00403777 20.9687 0.101665 20.7773 0.293087C20.3869 0.683594 20.3869 1.31664 20.7773 1.70715C21.1679 2.09757 21.8009 2.09757 22.1914 1.70715C22.5818 1.31664 22.5818 0.683594 22.1914 0.293087C22.0077 0.109322 21.7598 0.00424975 21.5 0.000118072ZM4.5293 0.000118072C4.25937 -0.00350758 3.99944 0.102155 3.80859 0.293087C3.41817 0.683594 3.41817 1.31664 3.80859 1.70715C4.1991 2.09757 4.83215 2.09757 5.22266 1.70715C5.61308 1.31664 5.61308 0.683594 5.22266 0.293087C5.03851 0.108854 4.78975 0.00374394 4.5293 0.000118072ZM4 9.48449C4 4.51349 8.029 0.484493 13 0.484493C17.971 0.484493 22 4.51349 22 9.48449C22 12.6815 20.3646 14.6521 18.6624 16.7031C17.7024 17.8598 16.7212 19.0421 16 20.4845H10C9.27882 19.0421 8.29759 17.8598 7.33763 16.7031C5.63538 14.6521 4 12.6815 4 9.48449ZM13 3.48449V8.48449H17L13 15.4845V10.4845H9L13 3.48449ZM0 9.48449C0 8.93221 0.447715 8.48449 1 8.48449C1.55228 8.48449 2 8.93221 2 9.48449C2 10.0368 1.55228 10.4845 1 10.4845C0.447715 10.4845 0 10.0368 0 9.48449ZM25 8.48449C24.4477 8.48449 24 8.93221 24 9.48449C24 10.0368 24.4477 10.4845 25 10.4845C25.5523 10.4845 26 10.0368 26 9.48449C26 8.93221 25.5523 8.48449 25 8.48449ZM3.80664 17.2618C3.99796 17.0704 4.25869 16.9647 4.5293 16.9689C4.78975 16.9725 5.03851 17.0776 5.22266 17.2618C5.61308 17.6523 5.61308 18.2854 5.22266 18.6759C5.03505 18.864 4.78031 18.9697 4.51465 18.9697C4.24899 18.9697 3.99425 18.864 3.80664 18.6759C3.41622 18.2854 3.41622 17.6523 3.80664 17.2618ZM21.498 16.9708C21.2284 16.9667 20.9685 17.0716 20.7773 17.2618C20.5893 17.4494 20.4835 17.7042 20.4835 17.9698C20.4835 18.2355 20.5893 18.4902 20.7773 18.6779C21.1679 19.0683 21.8009 19.0683 22.1914 18.6779C22.3795 18.4902 22.4852 18.2355 22.4852 17.9698C22.4852 17.7042 22.3795 17.4494 22.1914 17.2618C22.0069 17.0783 21.7582 16.9739 21.498 16.9708ZM10 23.4845V22.4845H16V23.4845C16 24.5895 15.105 25.4845 14 25.4845C14 26.0368 13.5523 26.4845 13 26.4845C12.4477 26.4845 12 26.0368 12 25.4845C10.895 25.4845 10 24.5895 10 23.4845Z" fill="#00B476"/>
</svg>
