<svg width="26" height="26" viewBox="0 0 26 26" fill="none" xmlns="http://www.w3.org/2000/svg">
<path fill-rule="evenodd" clip-rule="evenodd" d="M13 0C5.83313 0 0 5.83313 0 13C0 20.1669 5.83313 26 13 26C20.1669 26 26 20.1669 26 13C26 5.83313 20.1669 0 13 0ZM11.9167 2.21956V4.33333H9.75V2.66178C10.4441 2.44477 11.1697 2.29337 11.9167 2.21956ZM19.153 4.08154C17.6856 3.06873 15.9567 2.40466 14.0833 2.21956V6.5L11.9167 7.58333L10.8333 6.5H8.66667V8.66667L3.25 11.9167V14.0833H6.5L9.75 17.3333L9.71191 21.7048L11.8236 23.7677C12.2105 23.8094 12.6017 23.8333 13 23.8333C14.4973 23.8333 15.9214 23.5309 17.217 22.9849L19.5 18.4167L18.4167 16.25H16.25L14.0833 14.0833V11.9167L16.25 9.75H18.4167L20.5833 10.8333L21.6667 8.66667L18.4167 7.58333L16.25 8.66667V6.5L17.3333 5.41667H18.4167V4.33333L19.153 4.08154Z" fill="#FFFFFF"/>
</svg>
