<svg width="20" height="20" viewBox="0 0 20 20" fill="none" xmlns="http://www.w3.org/2000/svg">
<rect width="20" height="20" rx="5" fill="#F53D45"/>
<path d="M13.8203 3.5C13.7553 3.5 13.7003 3.55035 13.6953 3.61035L13.6797 3.74023C13.6647 3.90523 13.5399 4.03043 13.3799 4.06543C13.2749 4.09043 13.1703 4.11539 13.0703 4.15039C12.9153 4.20039 12.7445 4.14965 12.6445 4.01465L12.5703 3.91504C12.5353 3.86004 12.4603 3.84988 12.4053 3.87988L12.0947 4.05957C12.0397 4.08957 12.015 4.15973 12.04 4.21973L12.0947 4.33984C12.1597 4.48984 12.1201 4.65953 11.9951 4.76953C11.9201 4.84453 11.8395 4.92012 11.7695 4.99512C11.6595 5.12012 11.4898 5.15973 11.3398 5.09473L11.2197 5.04004C11.1597 5.01504 11.0896 5.03973 11.0596 5.09473L10.8799 5.40527C10.8449 5.46027 10.8602 5.53531 10.9102 5.57031L11.0146 5.64453C11.1296 5.72953 11.1802 5.865 11.1602 6C11.1602 6.02 11.1545 6.04531 11.1445 6.07031C11.1145 6.17031 11.0854 6.27488 11.0654 6.37988C11.0304 6.53988 10.9002 6.66469 10.7402 6.67969L10.6299 6.69531C10.5499 6.70031 10.5 6.75531 10.5 6.82031V7V7.17969C10.5 7.24469 10.5504 7.29969 10.6104 7.30469L10.7402 7.32031C10.9052 7.33531 11.0304 7.46012 11.0654 7.62012C11.0904 7.72512 11.1154 7.82969 11.1504 7.92969C11.2004 8.08469 11.1496 8.25547 11.0146 8.35547L10.915 8.42969C10.86 8.46469 10.8449 8.53973 10.8799 8.59473L11.0596 8.90527C11.0896 8.96027 11.1597 8.98496 11.2197 8.95996L11.3398 8.90527C11.4898 8.84027 11.6595 8.87988 11.7695 9.00488C11.8445 9.07988 11.9151 9.15547 11.9951 9.23047C12.1201 9.34047 12.1597 9.51016 12.0947 9.66016L12.04 9.78027C12.015 9.84027 12.0397 9.91043 12.0947 9.94043L12.4053 10.1201C12.4603 10.1501 12.5353 10.14 12.5703 10.085L12.6445 9.98535C12.7445 9.85035 12.9153 9.79961 13.0703 9.84961C13.1703 9.88461 13.2749 9.90957 13.3799 9.93457C13.5399 9.96457 13.6647 10.0948 13.6797 10.2598L13.6953 10.3896C13.7003 10.4496 13.7553 10.5 13.8203 10.5H14.1797C14.2447 10.5 14.2997 10.4496 14.3047 10.3896L14.3203 10.2598C14.3353 10.0948 14.4601 9.96957 14.6201 9.93457C14.7251 9.90957 14.8297 9.88461 14.9297 9.84961C15.0847 9.79961 15.2555 9.85035 15.3555 9.98535L15.4297 10.085C15.4447 10.11 15.47 10.1249 15.5 10.1299C15.53 10.1399 15.5647 10.1351 15.5947 10.1201L15.9053 9.94043C15.9603 9.91043 15.9851 9.84027 15.9551 9.78027L15.9053 9.66016C15.8403 9.51016 15.8799 9.34047 16.0049 9.23047L16.2305 9.00488C16.3005 8.92488 16.4 8.88 16.5 8.875C16.55 8.87 16.6052 8.88027 16.6602 8.90527L16.7803 8.95996C16.8403 8.98496 16.9104 8.96027 16.9404 8.90527L17.1201 8.59473C17.1501 8.53973 17.135 8.46469 17.085 8.42969L16.9854 8.35547C16.8504 8.25547 16.7996 8.08469 16.8496 7.92969C16.8846 7.82969 16.9096 7.72512 16.9346 7.62012C16.9646 7.46012 17.0948 7.33531 17.2598 7.32031C17.3048 7.31531 17.3496 7.30969 17.3896 7.30469C17.4496 7.29969 17.5 7.24469 17.5 7.17969V6.82031C17.5 6.75531 17.4496 6.70031 17.3896 6.69531L17.2598 6.67969C17.0948 6.66469 16.9696 6.53988 16.9346 6.37988C16.9096 6.27488 16.8846 6.17031 16.8496 6.07031C16.7996 5.91531 16.8504 5.74453 16.9854 5.64453L17.085 5.57031C17.14 5.53531 17.1501 5.46027 17.1201 5.40527L16.9404 5.09473C16.9104 5.03973 16.8403 5.01504 16.7803 5.04004L16.6602 5.09473C16.5102 5.15973 16.3405 5.12012 16.2305 4.99512L16.0049 4.76953C15.8799 4.65953 15.8403 4.48984 15.9053 4.33984L15.9551 4.21973C15.9851 4.15973 15.9603 4.08957 15.9053 4.05957L15.5947 3.87988C15.5397 3.84988 15.4647 3.86004 15.4297 3.91504L15.3555 4.01465C15.2555 4.14965 15.0847 4.20039 14.9297 4.15039C14.8247 4.11539 14.7251 4.09043 14.6201 4.06543C14.4601 4.03543 14.3354 3.90523 14.3154 3.74023L14.3047 3.61035C14.2997 3.55035 14.2447 3.5 14.1797 3.5H13.8203ZM14 5C14.85 5 15.5704 5.52539 15.8604 6.27539C15.9504 6.50039 16 6.745 16 7C16 7.505 15.81 7.96531 15.5 8.32031C15.135 8.73531 14.6 9 14 9C12.895 9 12 8.105 12 7C12 6.635 12.0995 6.295 12.2695 6C12.6145 5.4 13.26 5 14 5ZM5 6C4.18 6 3.5 6.68 3.5 7.5V14C3.5 14.385 3.64953 14.735 3.89453 15H2.5C2.5 15.83 3.17 16.5 4 16.5H16C16.83 16.5 17.5 15.83 17.5 15H16.1055C16.3505 14.735 16.5 14.385 16.5 14V10.9404C16.195 11.1454 15.855 11.3154 15.5 11.4404V14C15.5 14.285 15.285 14.5 15 14.5H5C4.715 14.5 4.5 14.285 4.5 14V7.5C4.5 7.215 4.715 7 5 7H9.53516C9.55016 6.655 9.60531 6.32 9.69531 6H5ZM14 6.5C13.8674 6.5 13.7402 6.55268 13.6464 6.64645C13.5527 6.74021 13.5 6.86739 13.5 7C13.5 7.13261 13.5527 7.25979 13.6464 7.35355C13.7402 7.44732 13.8674 7.5 14 7.5C14.1326 7.5 14.2598 7.44732 14.3536 7.35355C14.4473 7.25979 14.5 7.13261 14.5 7C14.5 6.86739 14.4473 6.74021 14.3536 6.64645C14.2598 6.55268 14.1326 6.5 14 6.5Z" fill="white"/>
</svg>
