<svg width="17" height="17" viewBox="0 0 17 17" fill="none" xmlns="http://www.w3.org/2000/svg">
  <path d="M16.2917 0C16.2237 0.000466337 16.1561 0.0107169 16.0911 0.0304362C16.0719 0.0356341 16.053 0.0416344 16.0343 0.0484212L0.460693 5.00122V5.00399C0.183996 5.10724 0.000398373 5.37133 0 5.66667C0.000524749 5.91403 0.130058 6.14321 0.341716 6.27124L5.07454 10.026L14.4309 2.56909L6.97404 11.9255L10.726 16.6555C10.8539 16.8691 11.0844 16.9999 11.3333 17C11.6287 16.9996 11.8928 16.816 11.996 16.5393H11.9988L16.9557 0.951823C16.9608 0.937677 16.9654 0.923374 16.9696 0.908936C16.9893 0.843875 16.9995 0.776315 17 0.708333C17 0.317132 16.6829 0 16.2917 0Z" fill="#FFFFFF"/>
</svg>
