<?xml version="1.0" encoding="UTF-8"?>
<svg width="18px" height="27px" viewBox="0 0 18 27" version="1.1" xmlns="http://www.w3.org/2000/svg" xmlns:xlink="http://www.w3.org/1999/xlink">
    <!-- Generator: Sketch 53.2 (72643) - https://sketchapp.com -->
    <title>Shape</title>
    <desc>Created with Sketch.</desc>
    <g id="Web---1.5" stroke="none" stroke-width="1" fill="none" fill-rule="evenodd">
        <g id="Getting-Started" transform="translate(-780.000000, -350.000000)" fill="#DA389D" fill-rule="nonzero">
            <g id="Group" transform="translate(742.000000, 317.000000)">
                <g id="icons8-launched_rocket" transform="translate(38.000000, 33.000000)">
                    <path d="M9,0 C9,0 3,4 3,13 C3,13.158852 3.0136525,13.317961 3.0234375,13.476562 C1.9893702,14.312624 0,16.103518 0,17.544922 C0,19.363922 1.8183594,23 1.8183594,23 L5.119141,18.873047 L6,21 L12,21 L12.880859,18.873047 L16.181641,23 C16.181641,23 18,19.363922 18,17.544922 C18,16.103518 16.01063,14.312624 14.976562,13.476562 C14.986348,13.317961 15,13.158852 15,13 C15,4 9,0 9,0 Z M9,7 C10.105,7 11,7.895 11,9 C11,10.105 10.105,11 9,11 C7.895,11 7,10.105 7,9 C7,7.895 7.895,7 9,7 Z M6.417969,22 C6.158969,22.334 6,22.717812 6,23.132812 C6,25.035813 9,27 9,27 C9,27 12,25.061812 12,23.132812 C12,22.717813 11.841984,22.335 11.583984,22 L10.738281,22 C10.756281,22.077 10.800781,22.145562 10.800781,22.226562 C10.800781,23.585562 9,24.265625 9,24.265625 C9,24.265625 7.199219,23.585562 7.199219,22.226562 C7.199219,22.146563 7.243719,22.077 7.261719,22 L6.417969,22 Z" id="Shape"></path>
                </g>
            </g>
        </g>
    </g>
</svg>