<?xml version="1.0" encoding="UTF-8"?>
<svg width="150px" height="150px" viewBox="0 0 150 150" version="1.1" xmlns="http://www.w3.org/2000/svg" xmlns:xlink="http://www.w3.org/1999/xlink">
    <!-- Generator: Sketch 58 (84663) - https://sketch.com -->
    <title>Launch (Jade)</title>
    <desc>Created with Sketch.</desc>
    <g id="Launch-(Jade)" stroke="none" stroke-width="1" fill="none" fill-rule="evenodd">
        <g id="icons8-launched_rocket" transform="translate(25.000000, 0.000000)" fill="#00B476" fill-rule="nonzero">
            <path d="M50,0 C50,0 16.6666667,22.2222222 16.6666667,72.2222222 C16.6666667,73.1047333 16.7425139,73.9886722 16.796875,74.8697889 C11.0520567,79.5145778 0,89.4639889 0,97.4717889 C0,107.577344 10.1019967,127.777778 10.1019967,127.777778 L28.4396722,104.850261 L33.3333333,116.666667 L66.6666667,116.666667 L71.5603278,104.850261 L89.8980056,127.777778 C89.8980056,127.777778 100,107.577344 100,97.4717889 C100,89.4639889 88.9479444,79.5145778 83.2031222,74.8697889 C83.2574889,73.9886722 83.3333333,73.1047333 83.3333333,72.2222222 C83.3333333,22.2222222 50,0 50,0 Z M50,38.8888889 C56.1388889,38.8888889 61.1111111,43.8611111 61.1111111,50 C61.1111111,56.1388889 56.1388889,61.1111111 50,61.1111111 C43.8611111,61.1111111 38.8888889,56.1388889 38.8888889,50 C38.8888889,43.8611111 43.8611111,38.8888889 50,38.8888889 Z M35.6553833,122.222222 C34.2164944,124.077778 33.3333333,126.210067 33.3333333,128.515622 C33.3333333,139.08785 50,150 50,150 C50,150 66.6666667,139.232289 66.6666667,128.515622 C66.6666667,126.210072 65.7888,124.083333 64.3554667,122.222222 L59.6571167,122.222222 C59.7571167,122.65 60.0043389,123.0309 60.0043389,123.4809 C60.0043389,131.0309 50,134.809028 50,134.809028 C50,134.809028 39.9956611,131.0309 39.9956611,123.4809 C39.9956611,123.036461 40.2428833,122.65 40.3428833,122.222222 L35.6553833,122.222222 Z" id="Shape"></path>
        </g>
    </g>
</svg>