<svg width="22" height="22" viewBox="0 0 22 22" fill="none" xmlns="http://www.w3.org/2000/svg">
<path d="M4.22353 0.0118131C4.11665 0.0103774 4.01056 0.030378 3.91153 0.0706334C3.8125 0.110889 3.72254 0.170582 3.64697 0.246188C3.49698 0.396212 3.41272 0.599669 3.41272 0.811813C3.41272 1.02396 3.49698 1.22741 3.64697 1.37744C3.797 1.52743 4.00045 1.61169 4.2126 1.61169C4.42474 1.61169 4.6282 1.52743 4.77822 1.37744C4.92821 1.22741 5.01248 1.02396 5.01248 0.811813C5.01248 0.599669 4.92821 0.396212 4.77822 0.246188C4.63091 0.0988021 4.4319 0.0147138 4.22353 0.0118131ZM17.8001 0.0118131C17.6929 0.0101675 17.5866 0.0300661 17.4872 0.0703275C17.3879 0.110589 17.2977 0.170392 17.222 0.246188C17.072 0.396212 16.9877 0.599669 16.9877 0.811813C16.9877 1.02396 17.072 1.22741 17.222 1.37744C17.372 1.52743 17.5755 1.61169 17.7876 1.61169C17.9997 1.61169 18.2032 1.52743 18.3532 1.37744C18.5032 1.22741 18.5875 1.02396 18.5875 0.811813C18.5875 0.599669 18.5032 0.396212 18.3532 0.246188C18.2063 0.0991761 18.0079 0.0151184 17.8001 0.0118131ZM11.0001 0.399313C7.0233 0.399313 3.8001 3.62251 3.8001 7.59931C3.8001 11.5993 7.0001 13.1993 8.6001 16.3993H13.4001C15.0001 13.1993 18.2001 11.5993 18.2001 7.59931C18.2001 3.62251 14.9769 0.399313 11.0001 0.399313ZM11.0001 2.79931V6.79931H14.2001L11.0001 12.3993V8.39931H7.8001L11.0001 2.79931ZM1.4001 6.79931C1.18792 6.79931 0.984441 6.8836 0.834412 7.03363C0.684383 7.18366 0.600098 7.38714 0.600098 7.59931C0.600098 7.81149 0.684383 8.01497 0.834412 8.165C0.984441 8.31503 1.18792 8.39931 1.4001 8.39931C1.61227 8.39931 1.81575 8.31503 1.96578 8.165C2.11581 8.01497 2.2001 7.81149 2.2001 7.59931C2.2001 7.38714 2.11581 7.18366 1.96578 7.03363C1.81575 6.8836 1.61227 6.79931 1.4001 6.79931ZM20.6001 6.79931C20.3879 6.79931 20.1844 6.8836 20.0344 7.03363C19.8844 7.18366 19.8001 7.38714 19.8001 7.59931C19.8001 7.81149 19.8844 8.01497 20.0344 8.165C20.1844 8.31503 20.3879 8.39931 20.6001 8.39931C20.8123 8.39931 21.0158 8.31503 21.1658 8.165C21.3158 8.01497 21.4001 7.81149 21.4001 7.59931C21.4001 7.38714 21.3158 7.18366 21.1658 7.03363C21.0158 6.8836 20.8123 6.79931 20.6001 6.79931ZM4.22353 13.5868C4.11639 13.5852 4.01 13.6051 3.91069 13.6453C3.81137 13.6856 3.72116 13.7454 3.64541 13.8212C3.49542 13.9712 3.41116 14.1747 3.41116 14.3868C3.41116 14.599 3.49542 14.8024 3.64541 14.9524C3.71972 15.0269 3.80801 15.0861 3.9052 15.1264C4.00239 15.1667 4.10659 15.1875 4.21182 15.1875C4.31705 15.1875 4.42124 15.1667 4.51843 15.1264C4.61563 15.0861 4.70391 15.0269 4.77822 14.9524C4.92821 14.8024 5.01248 14.599 5.01248 14.3868C5.01248 14.1747 4.92821 13.9712 4.77822 13.8212C4.63091 13.6738 4.4319 13.5897 4.22353 13.5868ZM17.7985 13.5884C17.6918 13.5867 17.5857 13.6065 17.4867 13.6465C17.3877 13.6865 17.2977 13.7459 17.222 13.8212C17.1475 13.8955 17.0884 13.9838 17.048 14.081C17.0077 14.1782 16.9869 14.2824 16.9869 14.3876C16.9869 14.4928 17.0077 14.597 17.048 14.6942C17.0884 14.7914 17.1475 14.8797 17.222 14.954C17.372 15.104 17.5755 15.1883 17.7876 15.1883C17.9997 15.1883 18.2032 15.104 18.3532 14.954C18.4277 14.8797 18.4868 14.7914 18.5272 14.6942C18.5675 14.597 18.5883 14.4928 18.5883 14.3876C18.5883 14.2824 18.5675 14.1782 18.5272 14.081C18.4868 13.9838 18.4277 13.8955 18.3532 13.8212C18.2057 13.6744 18.0067 13.5909 17.7985 13.5884ZM8.6001 17.9993V18.7993C8.6001 19.6833 9.3161 20.3993 10.2001 20.3993C10.2001 20.6115 10.2844 20.815 10.4344 20.965C10.5844 21.115 10.7879 21.1993 11.0001 21.1993C11.2123 21.1993 11.4158 21.115 11.5658 20.965C11.7158 20.815 11.8001 20.6115 11.8001 20.3993C12.6841 20.3993 13.4001 19.6833 13.4001 18.7993V17.9993H8.6001Z" fill="url(#paint0_radial_296_1329)"/>
<defs>
<radialGradient id="paint0_radial_296_1329" cx="0" cy="0" r="1" gradientUnits="userSpaceOnUse" gradientTransform="translate(17.9434 16.3947) rotate(-123.045) scale(31.805 31.5724)">
<stop stop-color="#E7A700"/>
<stop offset="1" stop-color="#EFCE00"/>
</radialGradient>
</defs>
</svg>
