<svg width="34" height="34" viewBox="0 0 34 34" fill="none" xmlns="http://www.w3.org/2000/svg">
<rect y="0.207031" width="33.2073" height="33.2073" rx="4" fill="#F0F2F5"/>
<path d="M19.5082 13.4103C20.1917 14.0938 20.1917 15.2055 19.5082 15.8891L16.0028 19.3944C15.3408 20.0564 14.186 20.0564 13.524 19.3944L12.4619 20.457C13.0769 21.0715 13.8941 21.41 14.7634 21.41C15.6328 21.41 16.45 21.0715 17.0649 20.4565L20.5703 16.9512C21.1852 16.3367 21.5237 15.519 21.5237 14.6497C21.5237 13.7803 21.1852 12.9626 20.5703 12.3477L19.5082 13.4103Z" fill="#C5CAE9"/>
<path d="M20.5219 16.1516C20.1353 16.1516 19.7627 16.093 19.4122 15.9844L16.0986 19.2979C16.2068 19.649 16.2654 20.0215 16.2654 20.4081C16.2654 20.635 16.2419 20.8558 16.2033 21.0716C16.5178 20.9159 16.8092 20.7116 17.0646 20.4562L20.57 16.9509C20.8253 16.6955 21.0302 16.404 21.1854 16.0895C20.9696 16.1281 20.7487 16.1516 20.5219 16.1516Z" fill="#7986CB"/>
<path d="M10.5069 26.9182C9.30304 26.9182 8.17131 26.4495 7.32002 25.5982C6.46872 24.7469 6 23.6151 6 22.4113C6 21.2075 6.46872 20.0757 7.32002 19.2244L9.32307 17.2214C10.1744 16.3701 11.3061 15.9014 12.5099 15.9014C13.7138 15.9014 14.8455 16.3701 15.6968 17.2214C16.5481 18.0727 17.0168 19.2044 17.0168 20.4082C17.0168 21.6121 16.5481 22.7438 15.6968 23.5951L13.6937 25.5982C12.8424 26.4495 11.7107 26.9182 10.5069 26.9182ZM12.5099 17.4037C11.7072 17.4037 10.9531 17.7161 10.3852 18.2835L8.38214 20.2866C7.81477 20.8544 7.50229 21.6086 7.50229 22.4113C7.50229 23.214 7.81477 23.9682 8.38214 24.536C8.9495 25.1039 9.70415 25.4159 10.5069 25.4159C11.3096 25.4159 12.0638 25.1034 12.6316 24.536L14.6347 22.533C15.202 21.9651 15.5145 21.211 15.5145 20.4082C15.5145 19.6055 15.202 18.8514 14.6347 18.2835C14.0668 17.7161 13.3127 17.4037 12.5099 17.4037Z" fill="#9FA8DA"/>
<path d="M20.522 16.9026C19.3182 16.9026 18.1865 16.4338 17.3352 15.5825C16.4839 14.7312 16.0151 13.5995 16.0151 12.3957C16.0151 11.1918 16.4839 10.0601 17.3352 9.20881L19.3382 7.20576C20.1895 6.35446 21.3212 5.88574 22.5251 5.88574C23.7289 5.88574 24.8606 6.35446 25.7119 7.20576C26.5632 8.05706 27.032 9.18878 27.032 10.3926C27.032 11.5965 26.5632 12.7282 25.7119 13.5795L23.7089 15.5825C22.8576 16.4338 21.7259 16.9026 20.522 16.9026ZM22.5251 7.38804C21.7223 7.38804 20.9682 7.70051 20.4003 8.26788L18.3973 10.2709C17.8299 10.8388 17.5174 11.593 17.5174 12.3957C17.5174 13.1984 17.8299 13.9526 18.3973 14.5204C18.9646 15.0883 19.7193 15.4003 20.522 15.4003C21.3247 15.4003 22.0789 15.0878 22.6468 14.5204L24.6498 12.5174C25.2172 11.9495 25.5297 11.1953 25.5297 10.3926C25.5297 9.5899 25.2172 8.83575 24.6498 8.26788C24.082 7.70051 23.3278 7.38804 22.5251 7.38804Z" fill="#9FA8DA"/>
<path d="M10.5083 18.1548C10.5083 18.1603 10.5093 18.1658 10.5093 18.1713C11.0606 17.6771 11.7637 17.4037 12.5099 17.4037C13.0727 17.4037 13.6105 17.5604 14.0782 17.8483C14.1148 17.7667 14.1654 17.6906 14.232 17.6235L15.1183 16.7371C14.3607 16.1968 13.4588 15.9014 12.5099 15.9014C11.9866 15.9014 11.4783 15.995 10.9996 16.1653" fill="#7986CB"/>
<path d="M16.8509 15.0041L17.7373 14.1182C17.8029 14.0526 17.88 14.002 17.9626 13.9655C17.6747 13.4968 17.5174 12.9589 17.5174 12.3956C17.5174 11.6495 17.7903 10.9469 18.2846 10.3955C17.594 10.393 16.9035 10.5568 16.2785 10.8868C16.1088 11.3655 16.0151 11.8728 16.0151 12.3956C16.0151 13.345 16.3106 14.2469 16.8509 15.0041Z" fill="#7986CB"/>
<path d="M13.524 19.3936C13.193 19.0626 13.0107 18.6224 13.0107 18.1542C13.0107 17.686 13.193 17.2458 13.524 16.9148L17.0293 13.4095C17.3708 13.0679 17.82 12.8972 18.2687 12.8972C18.7174 12.8972 19.1666 13.0679 19.5081 13.4095L20.5221 13.3969L20.5702 12.3468C19.3013 11.0784 17.2361 11.0784 15.9672 12.3468L12.4618 15.8522C11.1924 17.1211 11.1924 19.1863 12.4618 20.4557L13.5114 20.4076L13.524 19.3936Z" fill="#C5CAE9"/>
</svg>
