<svg width="31" height="32" viewBox="0 0 31 32" fill="none" xmlns="http://www.w3.org/2000/svg">
<path d="M28.1818 0.915039H2.81818C1.26114 0.915039 0 2.17618 0 3.73322V29.0969C0 30.6539 1.26114 31.915 2.81818 31.915H28.1818C29.7389 31.915 31 30.6539 31 29.0969V3.73322C31 2.17618 29.7389 0.915039 28.1818 0.915039ZM9.79882 26.2787H5.642V12.9036H9.79882V26.2787ZM7.67814 10.9914C6.33809 10.9914 5.2545 9.90504 5.2545 8.56781C5.2545 7.23058 6.3395 6.14558 7.67814 6.14558C9.01396 6.14558 10.1004 7.23199 10.1004 8.56781C10.1004 9.90504 9.01396 10.9914 7.67814 10.9914ZM25.3693 26.2787H21.2153V19.7743C21.2153 18.2229 21.1871 16.2276 19.0551 16.2276C16.8922 16.2276 16.5596 17.9171 16.5596 19.6616V26.2787H12.4056V12.9036H16.3934V14.7312H16.4497C17.0049 13.68 18.3605 12.571 20.3825 12.571C24.5915 12.571 25.3693 15.3413 25.3693 18.9429V26.2787Z" fill="#2B67B3"/>
</svg>
