<?xml version="1.0" encoding="UTF-8"?>
<svg width="150px" height="150px" viewBox="0 0 150 150" version="1.1" xmlns="http://www.w3.org/2000/svg" xmlns:xlink="http://www.w3.org/1999/xlink">
    <!-- Generator: Sketch 53.2 (72643) - https://sketchapp.com -->
    <title>List (Navy)</title>
    <desc>Created with Sketch.</desc>
    <g id="List-(Navy)" stroke="none" stroke-width="1" fill="none" fill-rule="evenodd">
        <path d="M14,4 L137,4 C141.418278,4 145,7.581722 145,12 L145,34 C145,38.418278 141.418278,42 137,42 L14,42 C9.581722,42 6,38.418278 6,34 L6,12 C6,7.581722 9.581722,4 14,4 Z M14,56 L137,56 C141.418278,56 145,59.581722 145,64 L145,86 C145,90.418278 141.418278,94 137,94 L14,94 C9.581722,94 6,90.418278 6,86 L6,64 C6,59.581722 9.581722,56 14,56 Z M14,108 L137,108 C141.418278,108 145,111.581722 145,116 L145,138 C145,142.418278 141.418278,146 137,146 L14,146 C9.581722,146 6,142.418278 6,138 L6,116 C6,111.581722 9.581722,108 14,108 Z" id="Combined-Shape" fill="#1F195E"></path>
    </g>
</svg>