<?xml version="1.0" encoding="UTF-8"?>
<svg width="150px" height="150px" viewBox="0 0 150 150" version="1.1" xmlns="http://www.w3.org/2000/svg" xmlns:xlink="http://www.w3.org/1999/xlink">
    <!-- Generator: Sketch 53.2 (72643) - https://sketchapp.com -->
    <title>Lock (Blue-Gray)</title>
    <desc>Created with Sketch.</desc>
    <g id="Lock-(Blue-Gray)" stroke="none" stroke-width="1" fill="none" fill-rule="evenodd">
        <g id="icons8-lock_filled" transform="translate(14.000000, 0.000000)" fill="#7F879D" fill-rule="nonzero">
            <path d="M60.5,0 C39.3672895,0 22.2894737,17.1168543 22.2894737,38.2978723 L22.2894737,54.2553191 L9.55263158,54.2553191 C4.14196055,54.2553191 0,58.4067479 0,63.8297872 L0,140.425532 C0,145.848571 4.14196055,150 9.55263158,150 L111.447368,150 C116.858039,150 121,145.848571 121,140.425532 L121,63.8297872 C121,58.4067479 116.858039,54.2553191 111.447368,54.2553191 L98.7105263,54.2553191 L98.7105263,38.2978723 C98.7105263,17.1168543 81.6327105,0 60.5,0 Z M60.5,6.38297872 C78.2246086,6.38297872 92.3421053,20.5327468 92.3421053,38.2978723 L92.3421053,54.2553191 L28.6578947,54.2553191 L28.6578947,38.2978723 C28.6578947,20.5327468 42.7753914,6.38297872 60.5,6.38297872 Z M60.5,86.1702128 C65.910671,86.1702128 70.0526316,90.3216415 70.0526316,95.7446809 C70.0526316,98.6120362 68.7839243,101.130319 66.8684211,102.726064 L66.8684211,111.702128 C66.8684211,115.217754 64.0076085,118.085106 60.5,118.085106 C56.9923947,118.085106 54.1315789,115.217754 54.1315789,111.702128 L54.1315789,102.726064 C52.2160789,101.130319 50.9473684,98.6120362 50.9473684,95.7446809 C50.9473684,90.3216415 55.089329,86.1702128 60.5,86.1702128 Z" id="Shape"></path>
        </g>
    </g>
</svg>