<svg width="9" height="10" viewBox="0 0 9 10" fill="none" xmlns="http://www.w3.org/2000/svg">
<path fill-rule="evenodd" clip-rule="evenodd" d="M1.52 2.66C1.52 1.19535 2.71535 0 4.18 0C4.22632 0.000843282 4.2721 0.01015 4.31508 0.0274609C5.7139 0.102055 6.84 1.2432 6.84 2.66V3.42H7.6C8.0199 3.42 8.36 3.7601 8.36 4.18V8.74C8.36 9.1599 8.0199 9.5 7.6 9.5H0.76C0.3401 9.5 0 9.1599 0 8.74V4.18C0 3.7601 0.3401 3.42 0.76 3.42H1.52V2.66ZM6.08 2.66C6.08 1.60601 5.23399 0.76 4.18 0.76C3.12601 0.76 2.28 1.60601 2.28 2.66V3.42H6.08V2.66Z" fill="#7F879D"/>
</svg>
