<svg width="32" height="36" viewBox="0 0 32 36" fill="none" xmlns="http://www.w3.org/2000/svg">
  <path id="Shape" fill-rule="evenodd" clip-rule="evenodd" d="M15.3 0C9.93897 0 5.56364 4.52976 5.56364 10.08V12.96H2.78182C1.24486 12.96 0 14.2488 0 15.84V33.12C0 34.7112 1.24486 36 2.78182 36H27.8182C29.3551 36 30.6 34.7112 30.6 33.12V15.84C30.6 14.2488 29.3551 12.96 27.8182 12.96H25.0364V10.08C25.0364 4.71108 20.9145 0.386734 15.7944 0.104062C15.6371 0.0384631 15.4696 0.00319559 15.3 0ZM15.3 2.88C19.1579 2.88 22.2545 6.08592 22.2545 10.08V12.96H8.34545V10.08C8.34545 6.08592 11.4421 2.88 15.3 2.88ZM9.73636 24.48C9.73636 22.8888 8.4915 21.6 6.95455 21.6C5.41759 21.6 4.17273 22.8888 4.17273 24.48C4.17273 26.0698 5.41759 27.36 6.95455 27.36C8.4915 27.36 9.73636 26.0698 9.73636 24.48ZM15.3 21.6C16.837 21.6 18.0818 22.8888 18.0818 24.48C18.0818 26.0698 16.837 27.36 15.3 27.36C13.763 27.36 12.5182 26.0698 12.5182 24.48C12.5182 22.8888 13.763 21.6 15.3 21.6ZM26.4273 24.48C26.4273 22.8888 25.1824 21.6 23.6455 21.6C22.1085 21.6 20.8636 22.8888 20.8636 24.48C20.8636 26.0698 22.1085 27.36 23.6455 27.36C25.1824 27.36 26.4273 26.0698 26.4273 24.48Z" fill="#FFFFFF"/>
</svg>
