<?xml version="1.0" encoding="UTF-8"?>
<svg width="224px" height="34px" viewBox="0 0 224 34" version="1.1" xmlns="http://www.w3.org/2000/svg" xmlns:xlink="http://www.w3.org/1999/xlink">
    <!-- Generator: Sketch 52.5 (67469) - http://www.bohemiancoding.com/sketch -->
    <title>Longo</title>
    <desc>Created with Sketch.</desc>
    <g id="Web---Sign-in" stroke="none" stroke-width="1" fill="none" fill-rule="evenodd">
        <g id="Landing" transform="translate(-528.000000, -69.000000)" fill="#FFFFFF" fill-rule="nonzero">
            <g id="Longo" transform="translate(528.000000, 69.000000)">
                <path d="M220.230693,22.2465399 L209.460846,32.9099993 C207.998793,34.35761 205.634941,34.3641495 204.181036,32.9246061 C202.72713,31.4850628 202.733736,29.1445624 204.195789,27.6969517 L214.965636,17.0334924 L204.128135,6.30304827 C202.666082,4.85543774 202.659477,2.5149371 204.113383,1.07539375 C205.567288,-0.364149564 207.93114,-0.357609857 209.393193,1.09000068 L222.916061,14.4792856 C224.355621,15.9046252 224.362124,18.2091181 222.930587,19.6265146 L220.257558,22.2731388 L220.230693,22.2465399 Z M202.727758,22.6028803 L197.342428,27.9350113 C195.88365,29.3793799 193.531601,29.3923484 192.088979,27.9639781 C190.646358,26.5356074 190.659456,24.2067922 192.118235,22.7624239 L197.503564,17.4302927 L192.102711,12.0827907 C190.643932,10.6384223 190.630834,8.3096072 192.073455,6.88123659 C193.516076,5.45286598 195.868126,5.46583476 197.326904,6.91020315 L205.362189,14.8661129 C206.798525,16.2882603 206.811422,18.5812474 205.390995,19.9876431 L202.738712,22.613726 L202.727758,22.6028803 Z" id="Arrow"></path>
                <path d="M5.22713998,21.1228295 C5.39308176,22.3352686 5.71903396,23.2415832 6.20500632,23.8418005 C7.09398015,24.9341961 8.61706581,25.4803857 10.7743089,25.4803857 C12.0662842,25.4803857 13.1152577,25.3363357 13.9212606,25.0482314 C15.4502956,24.4960315 16.2148016,23.4696751 16.2148016,21.9691317 C16.2148016,21.0928144 15.8355118,20.414579 15.0769208,19.9344051 C14.3183298,19.4662355 13.1271227,19.0520918 11.5032639,18.6919613 L8.72967936,18.0617363 C6.00349297,17.4375102 4.1188967,16.7592748 3.07583408,16.0270096 C1.3097394,14.8025662 0.426705305,12.8879015 0.426705305,10.2829582 C0.426705305,7.90609743 1.28010738,5.93141193 2.98693713,4.35884243 C4.6937669,2.78627296 7.20063548,2 10.5076182,2 C13.2693635,2 15.6251088,2.74125734 17.5749248,4.22379421 C19.5247407,5.70633108 20.5470453,7.85807806 20.6418691,10.6790996 L15.3791704,10.6790996 C15.2843465,9.08252147 14.5968837,7.94812768 13.3167614,7.27588422 C12.4633465,6.83172338 11.4025203,6.60964628 10.134251,6.60964628 C8.72374587,6.60964628 7.59772924,6.89774629 6.75616735,7.47395496 C5.91460543,8.05016363 5.49383081,8.85444284 5.49383081,9.88681668 C5.49383081,10.8351601 5.90867905,11.543406 6.73838794,12.0115755 C7.27177224,12.3236885 8.40964167,12.6898157 10.1520304,13.1099678 L14.6679949,14.2083601 C16.6474433,14.688534 18.1408969,15.3307569 19.1484006,16.1350482 C20.7129945,17.3835003 21.4952797,19.1901274 21.4952797,21.5549838 C21.4952797,23.979862 20.5796504,25.993561 18.7483644,27.5961414 C16.9170783,29.1987218 14.3302032,30 10.9876616,30 C7.57400209,30 4.88934141,29.210726 2.93359898,27.6321542 C0.977856546,26.0535826 0,23.8838294 0,21.1228295 L5.22713998,21.1228295 Z M46.7515837,9.2565916 C47.6049986,9.2565916 48.4465481,9.42464995 49.2762571,9.76077168 C50.1059657,10.0968934 50.8586191,10.6850976 51.5342393,11.5254019 C52.0794764,12.2096497 52.4469134,13.0499414 52.6365613,14.0463022 C52.7550909,14.7065413 52.814355,15.6728767 52.814355,16.9453375 L52.7787962,29.3157555 L47.5872149,29.3157555 L47.5872149,16.8192925 C47.5872149,16.075023 47.468687,15.4628105 47.2316274,14.9826366 C46.781214,14.0703062 45.9515173,13.6141479 44.7425129,13.6141479 C43.3438609,13.6141479 42.3778572,14.202352 41.844473,15.3787781 C41.5718543,16.0030041 41.4355469,16.7532646 41.4355469,17.6295819 L41.4355469,29.3157555 L36.3328626,29.3157555 L36.3328626,17.6295819 C36.3328626,16.4651602 36.2143347,15.6188665 35.9772748,15.0906752 C35.5505673,14.1423318 34.7149444,13.6681671 33.4703812,13.6681671 C32.0243171,13.6681671 31.052387,14.1423318 30.5545616,15.0906752 C30.281943,15.6308708 30.1456357,16.43515 30.1456357,17.5035369 L30.1456357,29.3157555 L25.0073927,29.3157555 L25.0073927,9.72475881 L29.9322831,9.72475881 L29.9322831,12.5877813 C30.5604912,11.5674118 31.1531316,10.8411597 31.7102218,10.4090032 C32.6940194,9.64072496 33.9681964,9.2565916 35.5327903,9.2565916 C37.0144134,9.2565916 38.2115467,9.58670621 39.1242264,10.2469453 C39.8591114,10.859167 40.4161934,11.6454399 40.7954889,12.6057877 C41.4592562,11.4533704 42.2830263,10.6070766 43.266824,10.066881 C44.3098865,9.52668536 45.4714617,9.2565916 46.7515837,9.2565916 Z M68.1142022,19.7723472 C67.7941715,19.9764211 67.4711825,20.1414784 67.1452256,20.267524 C66.8192683,20.3935697 66.3718248,20.5106103 65.8028817,20.6186494 L64.6650009,20.8347266 C63.5982321,21.0267962 62.8337261,21.2608774 62.3714599,21.5369774 C61.5891629,22.005147 61.1980202,22.731399 61.1980202,23.7157555 C61.1980202,24.5920729 61.4380394,25.2252927 61.9180854,25.615434 C62.3981311,26.0055752 62.981882,26.200643 63.669355,26.200643 C64.7598298,26.200643 65.764355,25.8765305 66.6829613,25.2282957 C67.6015676,24.580061 68.078643,23.3976505 68.1142022,21.6810289 L68.1142022,19.7723472 Z M65.0383678,17.3774919 C65.9747538,17.2574484 66.6444372,17.1073963 67.0474386,16.9273311 C67.7704708,16.6152181 68.1319816,16.1290493 68.1319816,15.4688102 C68.1319816,14.664519 67.8564035,14.1093262 67.3052399,13.8032154 C66.7540763,13.4971045 65.9451219,13.3440514 64.8783535,13.3440514 C63.6812019,13.3440514 62.8337265,13.6441556 62.335901,14.2443729 C61.9803115,14.6885338 61.7432553,15.2887421 61.6247254,16.045016 L56.735394,16.045016 C56.8420708,14.3283944 57.3161829,12.9179047 58.157745,11.8135048 C59.4971322,10.0848788 61.7965766,9.22057877 65.0561472,9.22057877 C67.1778317,9.22057877 69.0624278,9.64672669 70.7099925,10.4990353 C72.3575575,11.351344 73.1813276,12.9599024 73.1813276,15.3247588 L73.1813276,24.3279742 C73.1813276,24.9522002 73.1931804,25.7084628 73.2168864,26.5967844 C73.2524452,27.2690279 73.3531941,27.7251862 73.519136,27.9652733 C73.6850776,28.2053601 73.9339867,28.4034291 74.2658702,28.5594855 L74.2658702,29.3157555 L68.7542599,29.3157555 C68.6001711,28.9196119 68.493496,28.547483 68.4342308,28.1993568 C68.374966,27.8512307 68.3275547,27.4550932 68.2919959,27.0109324 C67.5926698,27.7792105 66.7866791,28.4334377 65.873999,28.9736333 C64.7835245,29.6098637 63.5508327,29.9279742 62.1758864,29.9279742 C60.4216449,29.9279742 58.9726392,29.4207981 57.8288261,28.4064309 C56.6850131,27.3920634 56.1131154,25.9545644 56.1131154,24.0938906 C56.1131154,21.6810168 57.0317078,19.9344105 58.8689204,18.8540192 C59.876424,18.2658062 61.358025,17.8456604 63.3137672,17.5935691 L65.0383678,17.3774919 Z M88.1611454,9.22057877 C88.2559693,9.22057877 88.3359758,9.2235798 88.4011672,9.22958196 C88.4663586,9.23558415 88.6115555,9.24458728 88.8367622,9.2565916 L88.8367622,14.5144694 C88.5167315,14.4784564 88.2322643,14.454448 87.9833516,14.4424437 C87.7344389,14.4304393 87.5329411,14.4244372 87.3788524,14.4244372 C85.340139,14.4244372 83.9711398,15.0966706 83.271814,16.4411575 C82.8806654,17.1974314 82.6850942,18.3618356 82.6850942,19.9344051 L82.6850942,29.3157555 L77.5824099,29.3157555 L77.5824099,9.68874594 L82.4184034,9.68874594 L82.4184034,13.1099678 C83.2007003,11.8014939 83.8822365,10.9071835 84.4630327,10.4270096 C85.4112716,9.62271834 86.6439634,9.22057877 88.1611454,9.22057877 Z M89.7708639,13.5241157 L89.7708639,9.86881026 L92.473331,9.86881026 L92.473331,4.3948553 L97.4871182,4.3948553 L97.4871182,9.86881026 L100.63407,9.86881026 L100.63407,13.5241157 L97.4871182,13.5241157 L97.4871182,23.8958198 C97.4871182,24.7001111 97.5878671,25.2012851 97.7893678,25.3993568 C97.9908685,25.5974286 98.6072143,25.6964629 99.638424,25.6964629 C99.7925131,25.6964629 99.955489,25.6934619 100.127357,25.6874597 C100.299226,25.6814575 100.468128,25.6724544 100.63407,25.6604501 L100.63407,29.4958197 L98.2338524,29.5858519 C95.8395495,29.6698823 94.2038622,29.2497367 93.3267416,28.3254017 C92.7577982,27.7371887 92.473331,26.8308742 92.473331,25.6064308 L92.473331,13.5241157 L89.7708639,13.5241157 Z M119.009751,11.2192926 C119.009751,9.83879264 118.651203,8.85445092 117.934098,8.26623793 C117.216992,7.6780249 116.212467,7.3839228 114.920492,7.3839228 L109.817807,7.3839228 L109.817807,15.1987138 L114.920492,15.1987138 C116.212467,15.1987138 117.216992,14.8806034 117.934098,14.2443729 C118.651203,13.6081425 119.009751,12.5997925 119.009751,11.2192926 Z M124.432464,11.1832797 C124.432464,14.3164143 123.650179,16.5311832 122.085585,17.8276527 C120.520991,19.1241222 118.286737,19.7723472 115.382756,19.7723472 L109.817807,19.7723472 L109.817807,29.3157555 L104.377315,29.3157555 L104.377315,2.77427652 L115.791682,2.77427652 C118.423044,2.77427652 120.520991,3.45851404 122.085585,4.82700964 C123.650179,6.19550523 124.432464,8.31424071 124.432464,11.1832797 Z M138.772224,19.7723472 C138.452194,19.9764211 138.129205,20.1414784 137.803247,20.267524 C137.47729,20.3935697 137.029847,20.5106103 136.460904,20.6186494 L135.323023,20.8347266 C134.256254,21.0267962 133.491748,21.2608774 133.029482,21.5369774 C132.247185,22.005147 131.856042,22.731399 131.856042,23.7157555 C131.856042,24.5920729 132.096062,25.2252927 132.576108,25.615434 C133.056153,26.0055752 133.639904,26.200643 134.327377,26.200643 C135.417852,26.200643 136.422377,25.8765305 137.340983,25.2282957 C138.25959,24.580061 138.736665,23.3976505 138.772224,21.6810289 L138.772224,19.7723472 Z M135.69639,17.3774919 C136.632776,17.2574484 137.302459,17.1073963 137.705461,16.9273311 C138.428493,16.6152181 138.790003,16.1290493 138.790003,15.4688102 C138.790003,14.664519 138.514426,14.1093262 137.963262,13.8032154 C137.412098,13.4971045 136.603144,13.3440514 135.536376,13.3440514 C134.339224,13.3440514 133.491749,13.6441556 132.993923,14.2443729 C132.638334,14.6885338 132.401277,15.2887421 132.282748,16.045016 L127.393416,16.045016 C127.500093,14.3283944 127.974205,12.9179047 128.815767,11.8135048 C130.155154,10.0848788 132.454599,9.22057877 135.714169,9.22057877 C137.835854,9.22057877 139.72045,9.64672669 141.368015,10.4990353 C143.01558,11.351344 143.83935,12.9599024 143.83935,15.3247588 L143.83935,24.3279742 C143.83935,24.9522002 143.851203,25.7084628 143.874909,26.5967844 C143.910467,27.2690279 144.011216,27.7251862 144.177158,27.9652733 C144.3431,28.2053601 144.592009,28.4034291 144.923892,28.5594855 L144.923892,29.3157555 L139.412282,29.3157555 C139.258193,28.9196119 139.151518,28.547483 139.092253,28.1993568 C139.032988,27.8512307 138.985577,27.4550932 138.950018,27.0109324 C138.250692,27.7792105 137.444701,28.4334377 136.532021,28.9736333 C135.441547,29.6098637 134.208855,29.9279742 132.833909,29.9279742 C131.079667,29.9279742 129.630661,29.4207981 128.486848,28.4064309 C127.343035,27.3920634 126.771138,25.9545644 126.771138,24.0938906 C126.771138,21.6810168 127.68973,19.9344105 129.526943,18.8540192 C130.534446,18.2658062 132.016047,17.8456604 133.971789,17.5935691 L135.69639,17.3774919 Z M152.240794,23.0495176 C152.347471,23.961848 152.578601,24.610073 152.93419,24.9942121 C153.562398,25.6784599 154.723974,26.0205787 156.41895,26.0205787 C157.414601,26.0205787 158.205776,25.8705266 158.792499,25.5704179 C159.379221,25.2703092 159.672578,24.8201529 159.672578,24.2199356 C159.672578,23.6437269 159.435522,23.2055748 158.961403,22.9054661 C158.487283,22.6053575 156.727141,22.0891783 153.680924,21.3569131 C151.488122,20.8047131 149.941331,20.1144735 149.040504,19.2861736 C148.139678,18.4698779 147.689271,17.2934696 147.689271,15.7569131 C147.689271,13.9442567 148.39155,12.386716 149.796129,11.0842443 C151.200707,9.78177266 153.177163,9.13054661 155.725554,9.13054661 C158.143563,9.13054661 160.114092,9.6197164 161.637201,10.5980707 C163.160309,11.576425 164.034453,13.2660115 164.25966,15.666881 L159.192535,15.666881 C159.121417,15.0066419 158.937698,14.4844606 158.641374,14.1003215 C158.084284,13.4040693 157.136059,13.0559485 155.796672,13.0559485 C154.694344,13.0559485 153.909096,13.2300089 153.440903,13.578135 C152.97271,13.9262611 152.738617,14.3344027 152.738617,14.8025723 C152.738617,15.3907853 152.987526,15.8169332 153.485351,16.0810289 C153.983177,16.3571289 155.743319,16.8312935 158.76583,17.5035369 C160.780837,17.9837108 162.29207,18.7099629 163.299573,19.682315 C164.295224,20.6666715 164.793042,21.8970986 164.793042,23.3736333 C164.793042,25.3183376 164.07891,26.9058887 162.650626,28.1363344 C161.222341,29.3667798 159.014756,29.9819935 156.027804,29.9819935 C152.981587,29.9819935 150.732517,29.3307675 149.280526,28.0282957 C147.828535,26.725824 147.102551,25.0662479 147.102551,23.0495176 L152.240794,23.0495176 Z M172.447752,23.0495176 C172.554429,23.961848 172.785559,24.610073 173.141148,24.9942121 C173.769356,25.6784599 174.930932,26.0205787 176.625908,26.0205787 C177.621559,26.0205787 178.412734,25.8705266 178.999456,25.5704179 C179.586179,25.2703092 179.879536,24.8201529 179.879536,24.2199356 C179.879536,23.6437269 179.64248,23.2055748 179.168361,22.9054661 C178.694241,22.6053575 176.9341,22.0891783 173.887883,21.3569131 C171.695081,20.8047131 170.148289,20.1144735 169.247462,19.2861736 C168.346635,18.4698779 167.896229,17.2934696 167.896229,15.7569131 C167.896229,13.9442567 168.598508,12.386716 170.003086,11.0842443 C171.407665,9.78177266 173.38412,9.13054661 175.932512,9.13054661 C178.350521,9.13054661 180.32105,9.6197164 181.844158,10.5980707 C183.367267,11.576425 184.241412,13.2660115 184.466618,15.666881 L179.399493,15.666881 C179.328375,15.0066419 179.144656,14.4844606 178.848332,14.1003215 C178.291241,13.4040693 177.343017,13.0559485 176.00363,13.0559485 C174.901302,13.0559485 174.116054,13.2300089 173.647861,13.578135 C173.179668,13.9262611 172.945575,14.3344027 172.945575,14.8025723 C172.945575,15.3907853 173.194484,15.8169332 173.692309,16.0810289 C174.190135,16.3571289 175.950276,16.8312935 178.972787,17.5035369 C180.987795,17.9837108 182.499028,18.7099629 183.506531,19.682315 C184.502182,20.6666715 185,21.8970986 185,23.3736333 C185,25.3183376 184.285868,26.9058887 182.857584,28.1363344 C181.429299,29.3667798 179.221714,29.9819935 176.234762,29.9819935 C173.188545,29.9819935 170.939475,29.3307675 169.487484,28.0282957 C168.035494,26.725824 167.309509,25.0662479 167.309509,23.0495176 L172.447752,23.0495176 Z" id="SmartPass"></path>
            </g>
        </g>
    </g>
</svg>