<?xml version="1.0" encoding="UTF-8"?>
<svg width="173px" height="27px" viewBox="0 0 173 27" version="1.1" xmlns="http://www.w3.org/2000/svg" xmlns:xlink="http://www.w3.org/1999/xlink">
    <!-- Generator: Sketch 59 (86127) - https://sketch.com -->
    <title>Longo</title>
    <desc>Created with Sketch.</desc>
    <g id="Web---Future" stroke="none" stroke-width="1" fill="none" fill-rule="evenodd">
        <g id="Getting-Started" transform="translate(-30.000000, -30.000000)" fill="#D6DAE2" fill-rule="nonzero">
            <g id="Longo" transform="translate(30.000000, 30.000000)">
                <path d="M170.144465,17.66637 L161.985489,26.1344112 C160.877874,27.2839844 159.087077,27.2891775 157.985633,26.1460107 C156.88419,25.0028439 156.889194,23.1442113 157.996809,21.9946381 L166.155785,13.5265969 L157.945557,5.00536186 C156.837941,3.85578879 156.832937,1.99715593 157.934381,0.853989154 C159.035825,-0.289177595 160.826621,-0.283984298 161.934237,0.865588772 L172.178834,11.4982562 C173.26941,12.6301435 173.274337,14.460182 172.189838,15.5857616 L170.164816,17.6874926 L170.144465,17.66637 Z M156.884665,17.9493461 L152.80487,22.1836855 C151.699735,23.3306841 149.917879,23.3409826 148.824984,22.2066885 C147.732089,21.0723941 147.742012,19.2230409 148.847147,18.0760425 L152.926942,13.841703 L148.835387,9.59515729 C147.730252,8.44815887 147.720329,6.59880572 148.813224,5.46451141 C149.906118,4.3302171 151.687974,4.34051584 152.793109,5.48751426 L158.880447,11.8054426 C159.96858,12.9347949 159.97835,14.7556965 158.902269,15.8725401 L156.892963,17.9579589 L156.884665,17.9493461 Z" id="Arrow"></path>
                <path d="M4.01218312,16.0250803 C4.13955465,16.977711 4.38974498,17.6898154 4.76276161,18.1614147 C5.44510909,19.0197255 6.61418024,19.4488745 8.27001011,19.4488745 C9.26168845,19.4488745 10.0668464,19.3356924 10.6855081,19.1093247 C11.8591458,18.6754533 12.4459558,17.8690305 12.4459558,16.6900321 C12.4459558,16.001497 12.1548253,15.4685978 11.5725554,15.0913183 C10.9902856,14.7234708 10.0759537,14.3980721 8.82953227,14.1151125 L6.70061876,13.6199356 C4.6080865,13.1294723 3.16153152,12.596573 2.36091048,12.0212218 C1.00531348,11.0591591 0.327525153,9.55477976 0.327525153,7.50803857 C0.327525153,5.64050512 0.98256891,4.08896651 2.29267607,2.85337619 C3.60278324,1.6177859 5.52697426,1 8.06530691,1 C10.1851331,1 11.9933268,1.58241648 13.4899422,2.74726688 C14.9865577,3.91211728 15.7712456,5.60277562 15.8440293,7.81929258 L11.8045524,7.81929258 C11.7317687,6.5648383 11.2040945,5.67352889 10.2215142,5.1453376 C9.56646058,4.79635409 8.75220478,4.62186493 7.77872239,4.62186493 C6.6960644,4.62186493 5.83177055,4.84822923 5.18581494,5.30096461 C4.5398593,5.75369999 4.21688635,6.38563366 4.21688635,7.19678453 C4.21688635,7.94191151 4.5353104,8.49839041 5.17216804,8.86623792 C5.58157653,9.11146957 6.4549682,9.39914087 7.79236927,9.7292604 L11.2586771,10.5922829 C12.7780375,10.9695624 13.9243641,11.4741661 14.6976913,12.1061093 C15.8986228,13.0870359 16.4990796,14.5065287 16.4990796,16.3646301 C16.4990796,18.2698915 15.7962722,19.8520836 14.3906364,21.1112539 C12.9850006,22.3704243 10.9993992,23 8.4337727,23 C5.81355836,23 3.7528999,22.3798561 2.25173543,21.1395497 C0.75057097,19.8992434 0,18.1944374 0,16.0250803 L4.01218312,16.0250803 Z M35.8849994,6.70160769 C36.540053,6.70160769 37.1859991,6.83365353 37.8228568,7.09774918 C38.4597142,7.36184482 39.0374266,7.82400524 39.5560107,8.48424435 C39.974517,9.02186761 40.2565497,9.68209679 40.4021173,10.4649517 C40.4930968,10.983711 40.538586,11.7429746 40.538586,12.7427652 L40.5112922,22.4623793 L36.5264028,22.4623793 L36.5264028,12.6437299 C36.5264028,12.0589467 36.4354246,11.5779225 36.2534654,11.2006431 C35.9077426,10.483812 35.2708944,10.1254019 34.3429018,10.1254019 C33.2693419,10.1254019 32.5278688,10.5875623 32.1184603,11.5118971 C31.9092071,12.0023604 31.8045819,12.5918507 31.8045819,13.2803858 L31.8045819,22.4623793 L27.887927,22.4623793 L27.887927,13.2803858 C27.887927,12.365483 27.7969488,11.7005379 27.6149893,11.2855305 C27.2874625,10.5404035 26.6460654,10.1678456 25.6907791,10.1678456 C24.5808272,10.1678456 23.8348051,10.5404035 23.4526905,11.2855305 C23.2434373,11.7099699 23.1388123,12.3419036 23.1388123,13.1813504 L23.1388123,22.4623793 L19.1948636,22.4623793 L19.1948636,7.06945335 L22.9750497,7.06945335 L22.9750497,9.31897104 C23.4572419,8.51725214 23.9121334,7.94662547 24.3397378,7.60707392 C25.094869,7.00342675 26.0728858,6.70160769 27.2738174,6.70160769 C28.4110632,6.70160769 29.329944,6.96098345 30.0304873,7.47974274 C30.5945612,7.96077408 31.0221592,8.57855996 31.3132941,9.33311894 C31.8227804,8.42764817 32.4550796,7.76270306 33.2102108,7.33826364 C34.0108318,6.91382421 34.9024192,6.70160769 35.8849994,6.70160769 Z M52.2822525,14.9639871 C52.0366073,15.1243309 51.7886914,15.2540187 51.5384975,15.3530546 C51.2883032,15.4520905 50.9448601,15.544051 50.5081579,15.6289388 L49.6347574,15.7987138 C48.8159403,15.9496256 48.2291303,16.1335466 47.8743097,16.3504822 C47.273844,16.7183298 46.9736155,17.2889564 46.9736155,18.0623793 C46.9736155,18.7509144 47.1578465,19.2484442 47.5263142,19.5549838 C47.8947817,19.8615234 48.34285,20.0147909 48.870532,20.0147909 C49.707545,20.0147909 50.478586,19.7601311 51.1836784,19.2508038 C51.8887708,18.7414765 52.2549584,17.8124397 52.2822525,16.4636655 L52.2822525,14.9639871 Z M49.9213418,13.082315 C50.6400813,12.9879952 51.1541085,12.8700971 51.4634394,12.7286173 C52.0184154,12.4833857 52.2958994,12.1013959 52.2958994,11.5826366 C52.2958994,10.9506935 52.0843746,10.5144706 51.6613193,10.2739549 C51.2382639,10.0334393 50.6173368,9.91318323 49.79852,9.91318323 C48.8796252,9.91318323 48.2291306,10.1489794 47.8470159,10.6205787 C47.574077,10.9695623 47.3921203,11.4411545 47.3011406,12.0353697 L43.5482484,12.0353697 C43.63013,10.6865956 43.9940431,9.57835372 44.6399989,8.71061091 C45.668069,7.35240477 47.433048,6.67331189 49.9349887,6.67331189 C51.5635249,6.67331189 53.0100797,7.0081424 54.2746969,7.67781347 C55.5393144,8.34748455 56.1716136,9.61135186 56.1716136,11.4694533 L56.1716136,18.5434083 C56.1716136,19.0338716 56.1807115,19.6280779 56.1989074,20.3260449 C56.2262012,20.8542362 56.3035328,21.2126463 56.4309044,21.4012862 C56.5582758,21.5899258 56.7493303,21.7455514 57.0040733,21.8681672 L57.0040733,22.4623793 L52.77354,22.4623793 C52.6552665,22.1511236 52.5733861,21.8587367 52.5278961,21.5852089 C52.4824064,21.3116812 52.446015,21.0004304 52.4187212,20.6514469 C51.8819411,21.255094 51.2632888,21.7691296 50.5627452,22.193569 C49.7257324,22.6934643 48.7795581,22.9434083 47.7241939,22.9434083 C46.377695,22.9434083 45.2654852,22.5449128 44.3875314,21.74791 C43.5095776,20.950907 43.0706075,19.8214435 43.0706075,18.3594854 C43.0706075,16.463656 43.7756892,15.0913225 45.185874,14.2424437 C45.9592012,13.7802763 47.09643,13.4501617 48.5975943,13.25209 L49.9213418,13.082315 Z M67.6696359,6.67331189 C67.7424197,6.67331189 67.8038301,6.67566984 67.8538689,6.68038582 C67.9039077,6.68510183 68.0153561,6.69217572 68.1882175,6.70160769 L68.1882175,10.8327974 C67.9425723,10.8045014 67.7242245,10.7856377 67.5331672,10.7762057 C67.3421099,10.7667738 67.1874467,10.7620578 67.0691732,10.7620578 C65.5043229,10.7620578 64.4535235,11.2902412 63.9167437,12.3466237 C63.6165107,12.9408389 63.4663966,13.855728 63.4663966,15.0913183 L63.4663966,22.4623793 L59.5497417,22.4623793 L59.5497417,7.04115752 L63.2616934,7.04115752 L63.2616934,9.7292604 C63.8621592,8.70117381 64.3852842,7.99850132 64.8310846,7.62122185 C65.558922,6.9892787 66.5050963,6.67331189 67.6696359,6.67331189 Z M68.9052036,10.0546623 L68.9052036,7.18263663 L70.9795297,7.18263663 L70.9795297,2.88167202 L74.8279502,2.88167202 L74.8279502,7.18263663 L77.2434482,7.18263663 L77.2434482,10.0546623 L74.8279502,10.0546623 L74.8279502,18.2038584 C74.8279502,18.8358016 74.9052818,19.2295811 75.0599472,19.3852089 C75.2146126,19.5408367 75.6876996,19.6186494 76.4792227,19.6186494 C76.5974965,19.6186494 76.7225916,19.6162915 76.854512,19.6115755 C76.9864327,19.6068595 77.1160766,19.5997856 77.2434482,19.5903536 L77.2434482,22.6038583 L75.4011191,22.674598 C73.5633299,22.7406218 72.3078293,22.4105074 71.63458,21.6842442 C71.1978775,21.2220768 70.9795297,20.5099726 70.9795297,19.5479099 L70.9795297,10.0546623 L68.9052036,10.0546623 Z M91.3480251,8.24372987 C91.3480251,7.15905136 91.0728157,6.38564001 90.5223887,5.92347266 C89.9719617,5.46130528 89.2009205,5.23022506 88.2092423,5.23022506 L84.2925873,5.23022506 L84.2925873,11.370418 L88.2092423,11.370418 C89.2009205,11.370418 89.9719617,11.1204741 90.5223887,10.6205787 C91.0728157,10.1206834 91.3480251,9.32840838 91.3480251,8.24372987 Z M95.5103239,8.21543404 C95.5103239,10.6771827 94.909867,12.4173582 93.7089355,13.4360128 C92.508004,14.4546674 90.793063,14.9639871 88.5640611,14.9639871 L84.2925873,14.9639871 L84.2925873,22.4623793 L80.1166416,22.4623793 L80.1166416,1.60836012 L88.8779395,1.60836012 C90.8976879,1.60836012 92.508004,2.14597532 93.7089355,3.22122186 C94.909867,4.2964684 95.5103239,5.96118913 95.5103239,8.21543404 Z M106.517059,14.9639871 C106.271413,15.1243309 106.023498,15.2540187 105.773303,15.3530546 C105.523109,15.4520905 105.179666,15.544051 104.742964,15.6289388 L103.869564,15.7987138 C103.050746,15.9496256 102.463937,16.1335466 102.109116,16.3504822 C101.50865,16.7183298 101.208422,17.2889564 101.208422,18.0623793 C101.208422,18.7509144 101.392653,19.2484442 101.76112,19.5549838 C102.129588,19.8615234 102.577656,20.0147909 103.105338,20.0147909 C103.942351,20.0147909 104.713392,19.7601311 105.418485,19.2508038 C106.123577,18.7414765 106.489765,17.8124397 106.517059,16.4636655 L106.517059,14.9639871 Z M104.156148,13.082315 C104.874888,12.9879952 105.388915,12.8700971 105.698246,12.7286173 C106.253222,12.4833857 106.530705,12.1013959 106.530705,11.5826366 C106.530705,10.9506935 106.319181,10.5144706 105.896125,10.2739549 C105.47307,10.0334393 104.852143,9.91318323 104.033326,9.91318323 C103.114431,9.91318323 102.463937,10.1489794 102.081822,10.6205787 C101.808883,10.9695623 101.626926,11.4411545 101.535947,12.0353697 L97.7830546,12.0353697 C97.8649362,10.6865956 98.2288493,9.57835372 98.8748051,8.71061091 C99.9028752,7.35240477 101.667854,6.67331189 104.169795,6.67331189 C105.798331,6.67331189 107.244886,7.0081424 108.509503,7.67781347 C109.774121,8.34748455 110.40642,9.61135186 110.40642,11.4694533 L110.40642,18.5434083 C110.40642,19.0338716 110.415518,19.6280779 110.433714,20.3260449 C110.461007,20.8542362 110.538339,21.2126463 110.665711,21.4012862 C110.793082,21.5899258 110.984137,21.7455514 111.23888,21.8681672 L111.23888,22.4623793 L107.008346,22.4623793 C106.890073,22.1511236 106.808192,21.8587367 106.762702,21.5852089 C106.717213,21.3116812 106.680821,21.0004304 106.653527,20.6514469 C106.116747,21.255094 105.498095,21.7691296 104.797551,22.193569 C103.960539,22.6934643 103.014364,22.9434083 101.959,22.9434083 C100.612501,22.9434083 99.5002914,22.5449128 98.6223376,21.74791 C97.7443838,20.950907 97.3054137,19.8214435 97.3054137,18.3594854 C97.3054137,16.463656 98.0104954,15.0913225 99.4206802,14.2424437 C100.194007,13.7802763 101.331236,13.4501617 102.8324,13.25209 L104.156148,13.082315 Z M116.855096,17.5389067 C116.936978,18.2557377 117.114385,18.7650574 117.387324,19.0668809 C117.869517,19.6045042 118.761104,19.8733118 120.062113,19.8733118 C120.826342,19.8733118 121.433622,19.7554138 121.883972,19.5196141 C122.334321,19.2838144 122.559492,18.9301202 122.559492,18.4585208 C122.559492,18.0057854 122.377536,17.6615231 122.013617,17.4257234 C121.649699,17.1899237 120.298671,16.7843544 117.960493,16.2090031 C116.27737,15.7751317 115.090103,15.2328006 114.398657,14.5819935 C113.707212,13.9406184 113.361495,13.0162975 113.361495,11.8090032 C113.361495,10.3847731 113.900541,9.16099116 114.97865,8.13762055 C116.056759,7.11424995 117.573822,6.60257233 119.529885,6.60257233 C121.38587,6.60257233 122.898384,6.98692003 124.067473,7.75562699 C125.236562,8.52433392 125.907526,9.85186619 126.080388,11.7382636 L122.191027,11.7382636 C122.136439,11.2195043 121.995423,10.8092191 121.767973,10.5073955 C121.340369,9.9603402 120.612543,9.68681667 119.584472,9.68681667 C118.738361,9.68681667 118.13563,9.82357845 117.776261,10.0971061 C117.416891,10.3706337 117.237209,10.6913164 117.237209,11.059164 C117.237209,11.5213313 117.428263,11.8561618 117.810378,12.0636655 C118.192492,12.2806013 119.54352,12.6531591 121.863502,13.1813504 C123.410156,13.5586299 124.570129,14.1292566 125.343456,14.8932475 C126.107685,15.6666705 126.489794,16.6334346 126.489794,17.7935691 C126.489794,19.321551 125.94165,20.5689125 124.845345,21.5356913 C123.74904,22.5024698 122.054569,22.9858521 119.761882,22.9858521 C117.423704,22.9858521 115.697391,22.4741745 114.58289,21.4508038 C113.468389,20.4274332 112.911147,19.1234805 112.911147,17.5389067 L116.855096,17.5389067 Z M132.365302,17.5389067 C132.447183,18.2557377 132.624591,18.7650574 132.89753,19.0668809 C133.379722,19.6045042 134.27131,19.8733118 135.572319,19.8733118 C136.336548,19.8733118 136.943828,19.7554138 137.394177,19.5196141 C137.844527,19.2838144 138.069698,18.9301202 138.069698,18.4585208 C138.069698,18.0057854 137.887741,17.6615231 137.523823,17.4257234 C137.159904,17.1899237 135.808876,16.7843544 133.470699,16.2090031 C131.787575,15.7751317 130.600309,15.2328006 129.908863,14.5819935 C129.217417,13.9406184 128.8717,13.0162975 128.8717,11.8090032 C128.8717,10.3847731 129.410747,9.16099116 130.488855,8.13762055 C131.566964,7.11424995 133.084028,6.60257233 135.040091,6.60257233 C136.896076,6.60257233 138.40859,6.98692003 139.577678,7.75562699 C140.746767,8.52433392 141.417732,9.85186619 141.590594,11.7382636 L137.701232,11.7382636 C137.646645,11.2195043 137.505628,10.8092191 137.278179,10.5073955 C136.850574,9.9603402 136.122748,9.68681667 135.094678,9.68681667 C134.248567,9.68681667 133.645836,9.82357845 133.286466,10.0971061 C132.927096,10.3706337 132.747414,10.6913164 132.747414,11.059164 C132.747414,11.5213313 132.938469,11.8561618 133.320583,12.0636655 C133.702698,12.2806013 135.053726,12.6531591 137.373707,13.1813504 C138.920361,13.5586299 140.080335,14.1292566 140.853662,14.8932475 C141.617891,15.6666705 142,16.6334346 142,17.7935691 C142,19.321551 141.451856,20.5689125 140.355551,21.5356913 C139.259246,22.5024698 137.564775,22.9858521 135.272087,22.9858521 C132.93391,22.9858521 131.207597,22.4741745 130.093096,21.4508038 C128.978595,20.4274332 128.421353,19.1234805 128.421353,17.5389067 L132.365302,17.5389067 Z" id="SmartPass"></path>
            </g>
        </g>
    </g>
</svg>