<svg xmlns="http://www.w3.org/2000/svg" width="26" height="26" viewBox="0 0 26 26">
  <g>
    <path fill="rgb(227,44,102)" fill-rule="evenodd" d="M5 0h16c2.75957512 0 5 2.24042488 5 5v16c0 2.75957512-2.24042488 5-5 5H5c-2.75957512 0-5-2.24042488-5-5V5c0-2.75957512 2.24042488-5 5-5z"/>
    <path fill="rgb(255,255,255)" fill-rule="evenodd" d="M4.81152344 11.2585144C4.9112854 11.03234863 8.0892334 5 14.58349609 5 18.9710083 5 20.5 7.85455322 20.5 9.36364746v.18466187c1.47616577.54064941 1.5 2.0830078 1.5 2.6960144V13c0 .40145874-.33599854.7272644-.75.7272644-.23699951 0-.4472351-.10617065-.58447266-.27270507C20.399292 13.13381958 19.95770264 13 19.53320312 13h-1.54980468C15.57739258 13 13.75 17.01455688 13.75 20.2727356c0 .24508667-.12689209.47338867-.3383789.60794067C13.28710937 20.95996094 13.14401244 21 13 21c-.10125732 0-.20358276-.0189209-.29882813-.05966187-.99523925-.41891479-2.2559204-1.32208251-3.06591796-2.67044067-.63000489.25308228-1.52328492.67288208-1.90429688 1.05395508-.14175415.14181518-.33581543.22158813-.5390625.22158813h-.08789062c-.35626221 0-.66339112-.24346923-.73388672-.58236694-.08999634-.42544556-.28930664-1.74880981.2109375-3.49716186-.55801392.14401245-1.15426636.31604003-1.56152344.46731567-.23098755.08581543-.49108887.0557251-.69433594-.07952881C4.12118531 15.71841431 4 15.49353027 4 15.25427246v-.07244873c0-.1040039.02313232-.206604.06738281-.30114746.41625977-.88800049 1.12783814-1.86395264 1.72558594-2.60794067H5.5c-.25201416 0-.4881897-.12234498-.62695313-.3267212-.13876342-.2043457-.1612854-.46276855-.06152343-.6875zm13.21142578-1.89486694L15.25 7.90908813c0 1.14254761.2564392 1.83343506.9711914 2.03125.91574097.2538147 1.80175782-.57669067 1.80175782-.57669067z"/>
  </g>
</svg>
