<svg width="22" height="20" viewBox="0 0 22 20" fill="none" xmlns="http://www.w3.org/2000/svg">
<path d="M20.5874 0.390723C20.3755 0.394035 20.1736 0.481283 20.026 0.633318C19.8783 0.785353 19.797 0.989754 19.7999 1.20166V1.5251L3.79993 8.00166V12.0017L7.539 13.5142L7.25618 14.1829C6.74257 15.3948 7.31845 16.8149 8.52962 17.3282C8.53014 17.3282 8.53066 17.3282 8.53118 17.3282L10.4343 18.1345C11.6462 18.6481 13.0679 18.0706 13.5812 16.8595L13.9062 16.0923L19.7999 18.4782V18.8017C19.7984 18.9077 19.818 19.0129 19.8575 19.1113C19.8971 19.2097 19.9558 19.2992 20.0302 19.3747C20.1046 19.4502 20.1933 19.5101 20.2911 19.5511C20.3889 19.592 20.4939 19.6131 20.5999 19.6131C20.7059 19.6131 20.8109 19.592 20.9087 19.5511C21.0065 19.5101 21.0952 19.4502 21.1697 19.3747C21.2441 19.2992 21.3028 19.2097 21.3423 19.1113C21.3818 19.0129 21.4014 18.9077 21.3999 18.8017V1.20166C21.4014 1.09463 21.3814 0.988391 21.341 0.889239C21.3007 0.790087 21.2409 0.700036 21.1651 0.624419C21.0894 0.548802 20.9992 0.489156 20.9 0.449015C20.8007 0.408873 20.6945 0.389051 20.5874 0.390723ZM1.38743 7.59072C1.17553 7.59403 0.973604 7.68128 0.825963 7.83332C0.678322 7.98535 0.597032 8.18975 0.599934 8.40166V11.6017C0.598434 11.7077 0.618019 11.8129 0.65755 11.9113C0.697081 12.0097 0.75577 12.0992 0.830205 12.1747C0.904641 12.2502 0.993339 12.3101 1.09114 12.3511C1.18895 12.392 1.29391 12.4131 1.39993 12.4131C1.50595 12.4131 1.61092 12.392 1.70872 12.3511C1.80653 12.3101 1.89523 12.2502 1.96966 12.1747C2.0441 12.0992 2.10279 12.0097 2.14232 11.9113C2.18185 11.8129 2.20143 11.7077 2.19993 11.6017V8.40166C2.2014 8.29463 2.18137 8.18839 2.14104 8.08924C2.10071 7.99009 2.04089 7.90003 1.96513 7.82442C1.88936 7.7488 1.7992 7.68915 1.69997 7.64901C1.60074 7.60887 1.49446 7.58905 1.38743 7.59072ZM9.02181 14.1157L12.4218 15.4923L12.1077 16.236C11.9314 16.6521 11.4746 16.837 11.0593 16.661L9.15462 15.8548C8.73859 15.6785 8.55363 15.2216 8.72962 14.8063L9.02181 14.1157Z" fill="url(#paint0_radial_296_1315)"/>
<defs>
<radialGradient id="paint0_radial_296_1315" cx="0" cy="0" r="1" gradientUnits="userSpaceOnUse" gradientTransform="translate(17.3304 15.1715) rotate(-127.529) scale(35.5495 36.384)">
<stop stop-color="#D22C9F"/>
<stop offset="1" stop-color="#F46095"/>
</radialGradient>
</defs>
</svg>
