<svg width="24" height="24" viewBox="0 0 24 24" fill="none" xmlns="http://www.w3.org/2000/svg">
<path fill-rule="evenodd" clip-rule="evenodd" d="M0 12C0 5.373 5.373 0 12 0C18.627 0 24 5.373 24 12C24 18.627 18.627 24 12 24C5.373 24 0 18.627 0 12ZM13 18C13.443 18 13.807 17.707 13.938 17.308L16.937 8.31C16.97 8.211 17 8.11 17 8C17 7.448 16.552 7 16 7C15.89 7 15.789 7.03 15.69 7.062L6.692 10.062C6.293 10.193 6 10.557 6 11C6 11.48 6.344 11.861 6.795 11.959L11 13L12.041 17.205C12.139 17.655 12.52 18 13 18Z" fill="#1F195E"/>
</svg>
