<svg xmlns="http://www.w3.org/2000/svg" width="18" height="18" viewBox="0 0 18 18">
  <path fill="rgb(31,25,94)" fill-rule="evenodd" d="M3.59863281.91894531C3.59863281.41168213 4.00183105 0 4.4987793 0h11.7010498C17.194458 0 18 .82244873 18 1.83789063v8.27062988c0 .50726318-.40319824.91894531-.90002441.91894531-.49682618 0-.90014649-.41168213-.90014649-.91894531V1.83789063H4.4987793c-.49694825 0-.90014649-.41168213-.90014649-.91894532zM.00708008 5.51373291c0-1.01080322.80126953-1.83789062 1.79138183-1.83789062h10.8010254c.9901123 0 1.8001709.8270874 1.8001709 1.83789062v8.27062988c0 1.01086426-.8100586 1.83789063-1.8001709 1.83789063H3.5986328l-2.06213379 2.10717773C.96948242 18.30834961-.00085449 17.89666748 0 17.07788085L.00708008 5.51373292z"/>
</svg>
