<svg xmlns="http://www.w3.org/2000/svg" width="26.052" height="26" viewBox="0 0 26.052 26">
  <path fill="#FFFFFF" fill-rule="evenodd" d="M6.37304688 2.70833302C6.37304688 1.21256256 7.59503174 0 9.10235596 0c.72387695 0 1.41809082.28534126 1.92993164.79325294.51184082.50791073.79937744 1.19678593.79937744 1.91508008 0 1.4957714-1.22192383 2.70833301-2.72930908 2.70833301-1.50732422 0-2.72930909-1.2125616-2.72930909-2.70833301zM21.6572876 7.58333397c0-1.19661713.97753906-2.16666699 2.18347168-2.16666699 1.20587158 0 2.18347168.97004986 2.18347168 2.16666699S25.04663086 9.75 23.84075928 9.75c-1.20593262 0-2.18347168-.9700489-2.18347168-2.16666603zM2.54986572 6.48518753c-.51898193.00219536-.96472168.36664772-1.06610107.87174606l-1.4520874 6.72851563c-.09515381.383564.02764892.78810882.32037353 1.05575561.29278565.2676468.70916748.3559761 1.08660889.23051072.3774414-.12546158.65618896-.44483185.72741699-.83346749l1.45422363-6.72851562c.07415772-.322464-.00415039-.66088867-.21264648-.91892624-.20855713-.25803757-.52441406-.4074192-.85778809-.40561867zM5.31970215 9.8430996c.22070312-1.3041439 1.35827637-2.25943374 2.69091797-2.25976562 1.4199829.0007553 2.60217285 1.08184051 2.71868896 2.486166l.75482178 3.22037697 2.19622803 2.66390037c.25543213.29850197.32867431.71053696.19152832 1.07772446-.137146.3671875-.46325684.63237381-.85302735.6936264-.3897705.0612526-.78253173-.09096527-1.02728271-.39814186L9.63330078 14.4663086c-.00653076-.00906944-.01293945-.01823997-.01916504-.02750587l-.58001709 1.99104881 2.71014405 8.06152344c.22851562.53425217-.00775147 1.15229797-.5357666 1.40182114-.52807618.24952697-1.16052247.04193878-1.43444825-.47083283l-.13433838-.25390625L4.6203003 16.453125c-.27856445-.37206459-.4295044-.8229599-.4307251-1.28645706.00079346-.21748543.0345459-.43361283.10021973-.64111328l1.02990723-4.68245507zm11.85339355.97542191c-.47857666-.00247574-.90301513.30459404-1.04693603.75748634l-1.44146729 4.33333397c-.1305542.36950493-.05004883.78017807.2105713 1.07417488.2606201.2939949.66082763.4255581 1.04681396.34412384.38598632-.08143425.69763183-.36319542.81518554-.73698425l1.44360352-4.33333397c.11566162-.33063507.06329346-.69636154-.14068604-.98190307-.20397949-.28553963-.53436279-.455719-.88708496-.45689774zm4.2666626 1.1087265c.0793457-.01517677.16015625-.02156448.2409668-.01904297.0522461.00193787.10424804.00759316.15563965.01692581.81610107.06715012 1.52575683.58180237 1.83807373 1.33300782.0357666.07081604.06365966.14531707.08312988.22216797l.6140747 2.5030918 1.41375733 1.75830079c.26239014.30050278.33776856.71948624.19647217 1.09155655-.14129639.37207031-.47662354.63744163-.8735962.69136238-.39703368.05392074-.79187011-.11227608-1.02874755-.4329834l-1.2857666-1.59749222-.34326172 1.17219925 2.36468506 5.76155663c.26098633.52797317.05010986 1.16614914-.47521973 1.43828964-.52532959.2721405-1.17358398.07896805-1.46087646-.43535996l-.09387207-.17138671-3.88073731-6.52116013c-.33685303-.39181519-.52209473-.88990211-.5223999-1.40494728.0010376-.30192375.06567383-.60029411.1897583-.87597656l.980896-2.9537754c.0079956-.02625466.01654052-.05235482.02557373-.07828904l.00213623-.00211525c.26452636-.82137108.99475097-1.4088688 1.85931396-1.49592972zM3.58831787 19.0323887l-.24945068 1.18912887-1.859375 4.18310356c-.28387451.5265007-.0838623 1.18567658.44781494 1.46842575C2.09210205 25.95971298 2.26757813 26 2.4411621 26c.3897705 0 .76617432-.20620728.96380615-.57128906l1.953125-3.32405472-1.76977539-3.07226753zm13.67218018 2.9326191l.3262329-1.17854882 1.52459718 2.56022072-2.07470704 2.26399994C16.82043457 25.86742783 16.51086426 26 16.1986084 26c-.24780273 0-.49523925-.081707-.69934081-.2517891-.46289063-.38241576-.52508545-1.06621932-.13861084-1.52555465l1.8998413-2.25764847z"/>
</svg>
