<?xml version="1.0" encoding="UTF-8"?>
<svg width="27px" height="26px" viewBox="0 0 27 26" version="1.1" xmlns="http://www.w3.org/2000/svg">
    <title>Shape</title>
    <g id="Teacher-view-refresh-(SP-1153)" stroke="none" stroke-width="1" fill="none" fill-rule="evenodd">
        <g id="Teacher-Home" transform="translate(-628.000000, -10.000000)" fill="#7083A0" fill-rule="nonzero">
            <g id="Group-9" transform="translate(495.500000, 10.000000)">
                <g id="Group-11" transform="translate(112.000000, 0.000000)">
                    <path d="M30.0815724,0 C28.5742083,0 27.3522483,1.21256214 27.3522483,2.70833333 C27.3522483,4.20410453 28.5742083,5.41666667 30.0815724,5.41666667 C31.5889365,5.41666667 32.8108965,4.20410453 32.8108965,2.70833333 C32.8108965,1.99003867 32.5233435,1.30116349 32.011496,0.793252468 C31.4996484,0.285341443 30.8054341,0 30.0815724,0 L30.0815724,0 Z M44.8199225,5.41666667 C43.6140313,5.41666667 42.6364633,6.38671638 42.6364633,7.58333333 C42.6364633,8.77995029 43.6140313,9.75 44.8199225,9.75 C46.0258138,9.75 47.0033818,8.77995029 47.0033818,7.58333333 C47.0033818,6.38671638 46.0258138,5.41666667 44.8199225,5.41666667 Z M23.5290623,6.48517265 C23.0100506,6.4873838 22.5643275,6.851835 22.4629201,7.35693357 L21.0108343,14.0854491 C20.9157,14.469014 21.0384732,14.8735594 21.33124,15.1412063 C21.6240069,15.4088531 22.0403647,15.4971801 22.4178245,15.3717166 C22.7952843,15.2462531 23.0740199,14.9268846 23.1452511,14.5382488 L24.599469,7.80973267 C24.6736494,7.48726882 24.5953261,7.14884381 24.3867975,6.89080612 C24.1782689,6.63276842 23.8623796,6.48338646 23.5290623,6.48517265 Z M28.9898427,7.58333333 C27.6571841,7.58366569 26.519621,8.53895411 26.2988997,9.8430995 L25.2690064,14.5255532 C25.2033637,14.7330554 25.1695792,14.9491823 25.168789,15.1666667 C25.1699993,15.6301638 25.3209648,16.0810602 25.5995104,16.453125 L30.6189086,25.1684572 L30.7532416,25.4223634 C31.0271972,25.9351367 31.659622,26.1427204 32.1876833,25.8931966 C32.7157446,25.6436728 32.9519666,25.0256292 32.723473,24.4913738 L30.0133393,16.4298507 L30.5933207,14.4388021 C30.5995744,14.4480685 30.605972,14.4572386 30.6125111,14.466309 L32.9708174,17.3269861 C33.2155679,17.6341616 33.6083097,17.7863792 33.998076,17.7251278 C34.3878422,17.6638763 34.7139685,17.3986891 34.8510943,17.031502 C34.9882202,16.664315 34.9150029,16.2522782 34.6595867,15.9537755 L32.4633345,13.2898762 L31.708505,10.0694988 C31.5920213,8.66517326 30.409838,7.58408884 28.9898427,7.58333333 Z M38.1522689,10.8185071 C37.6737027,10.8160466 37.2492902,11.1231163 37.1053177,11.5760092 L35.6638928,15.9093426 C35.5333055,16.278848 35.6138019,16.6895212 35.8744427,16.9835167 C36.1350834,17.2775121 36.5353059,17.4090764 36.9212815,17.3276416 C37.307257,17.2462068 37.6189175,16.9644465 37.7364739,16.5906574 L39.1800298,12.2573241 C39.2957181,11.9266885 39.2433212,11.560962 39.0393544,11.2754211 C38.8353877,10.9898802 38.5049775,10.8197003 38.1522689,10.8185071 L38.1522689,10.8185071 Z M42.659918,11.9082037 C42.5791393,11.9056827 42.4983282,11.9120695 42.41897,11.9272465 C41.554418,12.0143073 40.824192,12.6018063 40.5596179,13.4231771 L40.5574858,13.4252928 C40.5484581,13.4512258 40.5399276,13.4773265 40.5318989,13.503581 L39.5510475,16.4573565 C39.4269739,16.7330386 39.3623343,17.0314097 39.3612743,17.3333333 C39.3615946,17.848378 39.5468014,18.3464652 39.8836844,18.7382812 L43.7644416,25.2594398 L43.8582627,25.4308264 C44.1455944,25.9451562 44.7938032,26.1383295 45.3191586,25.8661893 C45.844514,25.5940491 46.0553712,24.9558696 45.7943764,24.427897 L43.4296725,18.6663414 L43.7729713,17.4941412 L45.0587384,19.0916342 C45.2956,19.4123417 45.6904629,19.5785377 46.0874573,19.5246173 C46.4844517,19.4706969 46.8197862,19.2053244 46.9610894,18.833254 C47.1023927,18.4611835 47.0269592,18.0422017 46.764566,17.7416991 L45.3508612,15.9833982 L44.7367633,13.4803056 C44.717314,13.4034549 44.6894275,13.3289534 44.6536041,13.2581377 C44.341316,12.5069315 43.6316852,11.9922805 42.8155746,11.9251297 C42.7641642,11.9157982 42.7121449,11.9101416 42.659918,11.9082037 Z M24.5674848,19.0323889 L24.3180075,20.2215173 L22.4586554,24.4046227 C22.1748057,24.9311227 22.3747629,25.5902974 22.9064352,25.8730463 C23.0712864,25.9597141 23.2467307,26 23.4203158,26 C23.8100632,26 24.1865053,25.793794 24.3841083,25.4287107 L26.3372809,22.1046551 L24.5674848,19.0323889 Z M38.5659318,20.7864583 L38.2396924,21.9650069 L36.3398274,24.2226563 C35.9533551,24.6819896 36.0155324,25.3657928 36.4784258,25.7482095 C36.6825792,25.9182928 36.9299924,26 37.1778151,26 C37.4900497,26 37.7996402,25.8674271 38.0158027,25.6106771 L40.0905159,23.3466794 L38.5659318,20.7864583 Z" id="Shape"></path>
                </g>
            </g>
        </g>
    </g>
</svg>
