<svg width="20" height="19" viewBox="0 0 20 19" fill="none" xmlns="http://www.w3.org/2000/svg">
  <path fill-rule="evenodd" clip-rule="evenodd" d="M0 1.40741C0 0.629815 0.639286 0 1.42857 0H4.90513C5.40728 0 5.87216 0.259458 6.13002 0.683087L6.57087 1.40741H17.1429C17.9321 1.40741 18.5714 2.03722 18.5714 2.81481V3.51852H7.85714H0V1.40741ZM0 5.62963C0 5.24119 0.32 4.92593 0.714286 4.92593H17.8571C18.2514 4.92593 18.5714 5.24119 18.5714 5.62963V8.80867C17.55 8.13452 16.3221 7.74074 15 7.74074C11.4493 7.74074 8.57143 10.576 8.57143 14.0741C8.57143 14.5582 8.63105 15.0283 8.73605 15.4815H1.42857C0.639286 15.4815 0 14.8517 0 14.0741V5.62963ZM15 9.14815C12.2386 9.14815 10 11.3536 10 14.0741C10 16.7946 12.2386 19 15 19C17.7614 19 20 16.7946 20 14.0741C20 11.3536 17.7614 9.14815 15 9.14815ZM15.7143 11.963C15.7143 11.5738 15.3943 11.2593 15 11.2593C14.6057 11.2593 14.2857 11.5738 14.2857 11.963V13.3704H12.8571C12.4629 13.3704 12.1429 13.6849 12.1429 14.0741C12.1429 14.4632 12.4629 14.7778 12.8571 14.7778H14.2857V16.1852C14.2857 16.5743 14.6057 16.8889 15 16.8889C15.3943 16.8889 15.7143 16.5743 15.7143 16.1852V14.7778H17.1429C17.5371 14.7778 17.8571 14.4632 17.8571 14.0741C17.8571 13.6849 17.5371 13.3704 17.1429 13.3704H15.7143V11.963Z" fill="#00B476"/>
</svg>
