<svg width="14" height="15" viewBox="0 0 14 15" fill="none" xmlns="http://www.w3.org/2000/svg">
<path d="M12.0076 2.25019C11.9902 2.25074 11.9728 2.25227 11.9556 2.25475H9.21667C9.15483 2.25388 9.09343 2.2653 9.03605 2.28836C8.97866 2.31142 8.92643 2.34566 8.88239 2.38908C8.83835 2.4325 8.80338 2.48424 8.77951 2.54129C8.75565 2.59835 8.74335 2.65957 8.74335 2.72142C8.74335 2.78326 8.75565 2.84449 8.77951 2.90155C8.80338 2.9586 8.83835 3.01034 8.88239 3.05376C8.92643 3.09718 8.97866 3.13142 9.03605 3.15448C9.09343 3.17754 9.15483 3.18896 9.21667 3.18809H10.8901L6.08672 7.99147C6.04193 8.03447 6.00617 8.08598 5.98154 8.14297C5.95691 8.19996 5.94389 8.2613 5.94326 8.32339C5.94263 8.38547 5.95439 8.44706 5.97786 8.50454C6.00133 8.56203 6.03603 8.61425 6.07993 8.65815C6.12384 8.70206 6.17606 8.73676 6.23354 8.76023C6.29103 8.78369 6.35261 8.79546 6.4147 8.79482C6.47679 8.79419 6.53812 8.78118 6.59511 8.75655C6.65211 8.73191 6.70361 8.69615 6.74661 8.65137L11.55 3.84798V5.52142C11.5491 5.58326 11.5606 5.64465 11.5836 5.70204C11.6067 5.75942 11.6409 5.81165 11.6843 5.85569C11.7277 5.89973 11.7795 5.9347 11.8365 5.95857C11.8936 5.98244 11.9548 5.99473 12.0167 5.99473C12.0785 5.99473 12.1397 5.98244 12.1968 5.95857C12.2538 5.9347 12.3056 5.89973 12.349 5.85569C12.3924 5.81165 12.4267 5.75942 12.4497 5.70204C12.4728 5.64465 12.4842 5.58326 12.4833 5.52142V2.78066C12.4926 2.71347 12.4872 2.64507 12.4673 2.58021C12.4475 2.51534 12.4137 2.45559 12.3685 2.40509C12.3232 2.3546 12.2674 2.31458 12.2051 2.28783C12.1428 2.26108 12.0754 2.24824 12.0076 2.25019ZM2.68333 4.12142C2.17324 4.12142 1.75 4.54466 1.75 5.05475V12.0548C1.75 12.5648 2.17324 12.9881 2.68333 12.9881H9.68333C10.1934 12.9881 10.6167 12.5648 10.6167 12.0548V7.38809V6.18496L9.68333 7.11829V8.32142V12.0548H2.68333V5.05475H6.41667H7.35H7.61979L8.55313 4.12142H7.35H6.41667H2.68333Z" fill="white"/>
</svg>
