<svg xmlns="http://www.w3.org/2000/svg" width="74" height="80" viewBox="0 0 74 80">
  <g>
    <path fill="rgb(224,229,234)" fill-rule="evenodd" d="M34.95220947 0H11C4.92895508 0 0 4.92893982 0 11v35.86776733c0 5.54873658 4.11730957 10.1434021 9.4607544 10.89294434V22.64694214c0-7.17489624 5.82513427-13 13-13h23.4088745C45.2019043 4.21322632 40.56518556 0 34.95220948 0zM24.51538086 13.77804565h23.95220947c6.07104492 0 11 4.92893982 11 11v21.4932251c-.09313965.4022522-.71258545.43814087-.81671142-.01135254 0 0-.82843018-3.57589721-6.75952149-5.42901611-5.93115234-1.8531189-10.418396 1.21279907-10.418396 1.21279907-2.24822997 1.53613281-3.90722656 3.79119873-4.70446777 6.3947754l-4.84173584 15.81265258c-.0036621.01193237-.00726318.02389526-.01074219.03585815l-1.34692382 4.60321045h-6.05371094c-6.07104492 0-11-4.92892456-11-11v-33.1121521c0-6.07106018 4.92895508-11 11-11z"/>
    <path fill="rgb(224,229,234)" fill-rule="evenodd" d="M46.02355957 47.59942627C46.02355957 45.61129761 47.64324951 44 49.6416626 44c1.99841308 0 3.61810303 1.6112976 3.61810303 3.59942627 0 1.98809814-1.61968995 3.59942627-3.61810303 3.59942627-1.99841309 0-3.61810303-1.61132813-3.61810303-3.59942627zm-5.49499512 4.83670044c.29681397-.88861084 1.07977295-1.45101929 1.89953614-1.41726685.11590576.00561524.24310302.03936768.3618164.06750489l2.48742676.71987915c.0593872.0140686.09893799.04779052.1583252.06747436-.16394043.20809937-.2685547.42181397-.31658936.5848999v.04501343c-.52862549 2.32836914-2.0380249 8.99853516-2.19348145 9.92089844-.09613037.4724121-.0791626.92236328-.02264404 1.32730102-.1017456-.00564575-.21765137-.02252197-.31658935-.04501342l-3.12060547-.71987915c-.50030518-.0984192-.93560791-.41055298-1.19848633-.87734986-.29681397-.52584839-.33917236-1.1838684-.11303711-1.79971313l2.37432861-7.87374878zm6.26385498-.51739502c-.74908447 0-.97235107.7423706-.97235107.7423706-.52575684 2.31433106-2.02105713 8.98168946-2.17089844 9.87591553-.2034912 1.00952149.06506348 1.82785034.45227051 2.51959229l-1.74121094 6.47897339s-2.90576172 4.18151855-3.73114013 5.37661743c-.59924317.89425659-1.04870606 1.94595337 0 2.76705932 1.11517334.83209229 1.96606445-.14004516 2.5618286-.82070922.0444336-.05078125.08746339-.0999756.12908936-.14663697.52575684-.59613037 2.8605957-3.74563598 3.45983887-4.56674194.4494629-.52304077.6642456-.97018433.81408692-1.41729736.14129638-.28399659.92993164-2.46615601 1.26629638-3.39694214 2.2189331 3.4335022 5.42718506 8.37710571 6.08294678 9.2460022.89886475 1.19512939 1.73272705 1.72662353 3.00756836 1.05734252 1.04870605-.59616088.89324951-1.93188476.29394531-2.90203857-.59924316-.9701538-7.50756836-12.10305786-7.50756836-12.10305786l1.28900147-5.35412598s.82250976 1.55505371 1.19848632 2.22714234c.22613526.29806518.37310792.44430542.97235108.7423706.59924316.37399292 2.24438476 1.28509522 3.14324951 1.73223877.82537842.37399292 1.8796997.52304077 2.3291626-.22497559.3731079-.82110595-.1470337-1.73220825-.74627686-1.95718383-.6755371-.29806519-3.68591308-2.09216309-3.68591308-2.09216309s-1.50378418-3.75970459-2.3291626-5.62408447c-.74908447-1.71536255-1.33984375-2.15966797-2.46484375-2.15966797h-1.65075684zm17.20861817 3.98184204c0-1.78845215 1.45855713-3.23947144 3.25628662-3.23947144 1.7977295 0 3.25628662 1.4510193 3.25628662 3.23947144 0 1.78848267-1.45855713 3.23950195-3.25628662 3.23950195-1.7977295 0-3.25628662-1.45101928-3.25628662-3.23950195zm-2.08044434 3.12701416c-.63879394 0-1.51226806.2699585-2.0578003 1.57473755-.16674804.45275879-.44659423 1.37789917-.74621581 2.36212158-.23742676.77893067-.47485352 1.5522461-.63317871 2.02468872-.2713623.76486206-.25720215 1.4256897.02264404 1.95718384.17523193.33462524.55114746.78738403 1.37939453 1.0123291.37310791.08154297.70666504.20248413.97235108.29244995.18371582.06185913.34204101.10687256.4522705.13497925.22613526.05905151.42681885.08999634.63317871.08999634.1412964 0 .35614014-.03375244.58789063-.1124878-.10736084-.41900634-.12719727-.88015746-.022583-1.39477538.07348632-.50054932.52856445-2.42678833 1.10803222-4.90420533.16394043-.70300293.30529785-1.34979248.40704346-1.79971313.04803466-.18841553.14416503-.36557007.2713623-.539917-.17523193-.1152954-.38726807-.21932983-.61053467-.29244995-.01416015-.00280761-.27703857-.08435058-.9724121-.29244995-.27136231-.07592773-.54553223-.11248779-.79144288-.11248779zm2.80407715 1.41726685s.15264893-.5848999.67840576-.5848999h1.19848633c.82537842 0 1.26068115.27557372 1.78643799 1.61975097.59924316 1.34133911 1.65075683 4.4317627 1.65075683 4.4317627s2.77575684 1.41729736 3.30151368 1.64224243c.44946289.22497558.8932495.89422607.52008056 1.41726684-.29962158.52304077-1.05151367.43307495-1.65075683.13497925-.67553711-.29806518-2.46765137-1.19229126-2.91705323-1.41726684-.37597656-.22494507-.52862548-.29244996-.67840576-.51742554-.29962158-.44711304-.90454101-1.597229-.90454101-1.597229l-.81408692 3.08200073s5.15863037 8.27584839 5.60809326 9.02105713c.44940186.67208862.52288819 1.64505004-.22613525 2.09216308-.89886475.52304077-1.51794434.0562439-2.19348145-.76489258-.42681884-.58209228-2.71075439-4.11401367-4.38696289-6.70391845-.31378173.7001953-.99499511 2.13998413-1.06280517 2.33963012-.14984131.2980957-.28833008.66082764-.58795166 1.03485108-.52575684.59613037-2.24719238 2.9498291-2.62310791 3.39694214-.05078125.0505371-.10443115.10687256-.1607666.16607666-.44213868.46438598-1.05194092 1.10488891-1.78399659.50881958-.74902343-.5961609-.44940185-1.33010865 0-2.00219727.59924317-.89422607 2.7588501-4.0043335 2.7588501-4.0043335l1.31152344-4.8142395c-.27697754-.52304077-.49182129-1.11639404-.33917236-1.82220459.07348632-.59616089 1.13909912-5.01669311 1.51507568-6.65893554z"/>
  </g>
</svg>
