<svg xmlns="http://www.w3.org/2000/svg" width="68" height="75" viewBox="0 0 68 75">
  <path fill="rgb(226,230,236)" fill-rule="evenodd" d="M52.53033447 6.43920898C53.1940918 2.71560668 56.42529297.00317383 60.20117187 0 64.50836182 0 68 3.49777222 68 7.8125c-.00152588 2.66485596-1.35894775 5.1451416-3.60083008 6.57958984 5.22174072 7.61276245 2.2664795 17.74743653.12127686 25.10427857-.8404541 2.8822937-1.5565796 5.3381958-1.6079712 7.04904175-.06469726 2.08740234.6585083 4.7602539 1.43841553 7.64285278 1.590271 5.87774658 3.41644287 12.62753296-.71942138 17.06417847C62.46160889 73.2993164 58.73553467 75 54.97967529 75c-4.53167724 0-11.9810791-2.06942749-19.61889648-5.20019531C33.56872559 71.09277344 31.388916 71.875 29.01208496 71.875c-6.03631592 0-10.92443848-4.8968811-10.92443848-10.9375 0-.0439148.01165772-.0843811.01220704-.12817383C4.69299316 52.22137451-1.7966919 43.82293701.43066406 37.51220703c.00091553-.00457764.005188-.0076294.00610352-.01220703 1.74993896-8.85736084 16.3326416-8.13873291 21.34313965-12.01171875 1.38226318-1.06640625 2.88378906-3.13571167 4.63787841-5.55297852 5.25073243-7.2359314 12.76403809-17.58999633 26.11254883-13.49609375zM35.39123535 49.35302734C23.99255371 42.80303955 14.71691895 40.4663086 9.8380127 40.4663086c-1.32580567 0-2.58978272.22891236-3.48510743.48828125.68151856 2.54440308 4.37200928 7.46289063 13.73931885 13.69628907C22.0692749 51.84432983 25.31896972 50 29.01208496 50c6.0269165 0 10.91223145 4.8968811 10.91223145 10.9375 0 1.29971313-.26733399 2.53009033-.68237305 3.68652344C45.85095215 67.20535278 51.81768799 68.75 54.97967529 68.75c1.0855713 0 2.07714844-.27416992 2.74786377-.55541992-1.34143066-3.1812439-8.28283691-10.76342774-22.3363037-18.84155274z"/>
</svg>
