<?xml version="1.0" encoding="UTF-8"?>
<svg width="150px" height="150px" viewBox="0 0 150 150" version="1.1" xmlns="http://www.w3.org/2000/svg" xmlns:xlink="http://www.w3.org/1999/xlink">
    <!-- Generator: Sketch 53.2 (72643) - https://sketchapp.com -->
    <title>Notifications (White)</title>
    <desc>Created with Sketch.</desc>
    <g id="Notifications-(White)" stroke="none" stroke-width="1" fill="none" fill-rule="evenodd">
        <g id="icons8-appointment_reminders" fill="#FFFFFF" fill-rule="nonzero">
            <path d="M97.8352035,0 C84.4875344,0 71.1447546,5.0951533 60.9620639,15.2756835 L48.0131756,28.2090954 C40.6858085,35.5349059 31.9766178,41.2424096 22.4719039,45.126914 L104.850778,127.488309 C108.736106,117.985612 114.444821,109.284785 121.772186,101.952456 L134.721075,89.0063156 C152.118469,71.6126126 154.597922,45.0108156 142.271409,24.9248238 C146.966911,22.8316825 149.993737,18.1752483 150,13.0352499 C150,5.83608016 144.162681,0 136.961984,0 C131.820894,0.00626057615 127.163471,3.03244433 125.069885,7.72695004 C116.736174,2.61239247 107.295927,0 97.8352035,0 Z M6.51815966,45.5597234 C3.86542418,45.5604194 1.47760241,47.1679825 0.479398726,49.6252233 C-0.518804958,52.0824641 0.0716619504,54.8993825 1.97267957,56.7491624 L37.3306589,92.099639 C30.6625587,94.2988806 26.1529218,100.520757 26.138846,107.540811 C26.138846,116.539774 33.4354944,123.834874 42.4363663,123.834874 C49.4592137,123.828099 55.6879372,119.324261 57.8935473,112.658164 L93.2387943,147.995912 C94.8738696,149.698581 97.3018769,150.384462 99.5864115,149.789033 C101.870946,149.193603 103.655022,147.409906 104.250578,145.125856 C104.846134,142.841806 104.160107,140.414314 102.457076,138.779586 L11.1909638,47.5328366 C9.96362383,46.2714614 8.27830352,45.5598271 6.51815966,45.5597234 Z" id="Shape"></path>
        </g>
    </g>
</svg>