<?xml version="1.0" encoding="UTF-8"?>
<svg width="150px" height="150px" viewBox="0 0 150 150" version="1.1" xmlns="http://www.w3.org/2000/svg" xmlns:xlink="http://www.w3.org/1999/xlink">
    <!-- Generator: Sketch 53.2 (72643) - https://sketchapp.com -->
    <title>Options (Blue-Gray)</title>
    <desc>Created with Sketch.</desc>
    <g id="Options-(Blue-Gray)" stroke="none" stroke-width="1" fill="none" fill-rule="evenodd">
        <g id="icons8-sorting_options" transform="translate(0.000000, 7.000000)" fill="#7F879D" fill-rule="nonzero">
            <path d="M106.212954,0 C98.1402916,0 91.2610689,5.24753591 88.6556674,12.4545455 L6.33150086,12.4545455 C4.0801984,12.4227846 1.98614972,13.6027007 0.851207022,15.5424809 C-0.283735674,17.4822611 -0.283735674,19.8813752 0.851207022,21.8211554 C1.98614972,23.7609357 4.0801984,24.9408518 6.33150086,24.9090909 L88.6556674,24.9090909 C91.2610689,32.1161005 98.1402916,37.3636364 106.212954,37.3636364 C114.285617,37.3636364 121.164839,32.1161005 123.770241,24.9090909 L143.668499,24.9090909 C145.919802,24.9408518 148.01385,23.7609357 149.148793,21.8211554 C150.283736,19.8813752 150.283736,17.4822611 149.148793,15.5424809 C148.01385,13.6027007 145.919802,12.4227846 143.668499,12.4545455 L123.770241,12.4545455 C121.164839,5.24753591 114.285617,0 106.212954,0 Z M106.212954,12.4545455 C109.607862,12.4545455 112.196016,15.0003262 112.382388,18.3291017 C112.368562,18.5681016 112.368562,18.8076979 112.382388,19.0466978 C112.190154,22.3693569 109.603661,24.9090909 106.212954,24.9090909 C102.818046,24.9090909 100.229893,22.3633102 100.04352,19.0345346 C100.057346,18.7955348 100.057346,18.5559385 100.04352,18.3169386 C100.235755,14.9942795 102.822247,12.4545455 106.212954,12.4545455 Z M56.2722275,49.8181818 C48.199565,49.8181818 41.3203398,55.0657177 38.7149408,62.2727273 L6.33150086,62.2727273 C4.0801984,62.2409664 1.98614972,63.4208825 0.851207022,65.3606627 C-0.283735674,67.300443 -0.283735674,69.699557 0.851207022,71.6393373 C1.98614972,73.5791175 4.0801984,74.7590336 6.33150086,74.7272727 L38.7149408,74.7272727 C41.3203398,81.9342823 48.199565,87.1818182 56.2722275,87.1818182 C64.34489,87.1818182 71.2241128,81.9342823 73.8295142,74.7272727 L143.668499,74.7272727 C145.919802,74.7590336 148.01385,73.5791175 149.148793,71.6393373 C150.283736,69.699557 150.283736,67.300443 149.148793,65.3606627 C148.01385,63.4208825 145.919802,62.2409664 143.668499,62.2727273 L73.8295142,62.2727273 C71.2241128,55.0657177 64.34489,49.8181818 56.2722275,49.8181818 Z M56.2722275,62.2727273 C59.6671357,62.2727273 62.2552889,64.8185111 62.4416614,68.147281 C62.4278353,68.3862822 62.4278353,68.6258797 62.4416614,68.8648808 C62.2494271,72.1875356 59.6629344,74.7272727 56.2722275,74.7272727 C52.8773193,74.7272727 50.2891661,72.1814889 50.1027936,68.852719 C50.1166197,68.6137178 50.1166197,68.3741203 50.1027936,68.1351192 C50.2950279,64.8124644 52.8815206,62.2727273 56.2722275,62.2727273 Z M81.2425908,99.6363636 C73.1699283,99.6363636 66.2907056,104.8839 63.6853041,112.090909 L6.33150086,112.090909 C4.0801984,112.059148 1.98614972,113.239064 0.851207022,115.178845 C-0.283735674,117.118625 -0.283735674,119.517739 0.851207022,121.457519 C1.98614972,123.397299 4.0801984,124.577215 6.33150086,124.545455 L63.6853041,124.545455 C66.2907056,131.752464 73.1699283,137 81.2425908,137 C89.3152533,137 96.1944761,131.752464 98.7998775,124.545455 L143.668499,124.545455 C145.919802,124.577215 148.01385,123.397299 149.148793,121.457519 C150.283736,119.517739 150.283736,117.118625 149.148793,115.178845 C148.01385,113.239064 145.919802,112.059148 143.668499,112.090909 L98.7998775,112.090909 C96.1944761,104.8839 89.3152533,99.6363636 81.2425908,99.6363636 Z M81.2425908,112.090909 C84.637499,112.090909 87.2256522,114.636693 87.4120247,117.965463 C87.3981986,118.204464 87.3981986,118.444062 87.4120247,118.683063 C87.2197904,122.005717 84.6332977,124.545455 81.2425908,124.545455 C77.8476827,124.545455 75.2595295,121.999671 75.0731569,118.670901 C75.086983,118.4319 75.086983,118.192302 75.0731569,117.953301 C75.2653913,114.630646 77.8518839,112.090909 81.2425908,112.090909 Z" id="Shape"></path>
        </g>
    </g>
</svg>