<svg xmlns="http://www.w3.org/2000/svg" width="18" height="18" viewBox="0 0 18 18">
  <path fill="rgb(31,25,94)" fill-rule="evenodd" d="M16.36364746 0c-.90374756 0-1.63635254.7326355-1.63635254 1.63635254.00006104.09320068.00805664.18621826.02392578.27807617l-2.7341919 2.27874756c-.1800537-.0668335-.37042235-.10144043-.5625-.1022644-.32055663.00033569-.63391112.0947876-.9012451.27166748L8.17700194 3.17364502c-.05230713-.86297607-.76696777-1.53634644-1.63153076-1.53729248-.90374756 0-1.63635254.7326355-1.63635254 1.63638306.00042725.03518676.00201416.07037353.00476074.10546875L2.36029053 5.08007813c-.22497559-.11181641-.47271729-.1703186-.723938-.17099C.73260499 4.90908813 0 5.64172363 0 6.54544067c0 .90374756.73260498 1.63638306 1.63635254 1.63638306.90374756 0 1.63635254-.7326355 1.63635254-1.63638306-.00048828-.03463745-.0020752-.06930542-.00476074-.10385131L5.8215332 4.73809814c.22497559.11181641.47271729.1703186.723938.17099.32055663-.0003357.63391112-.0947876.9012451-.27166749l2.37628175 1.18893433c.05230713.86297607.76696777 1.53634644 1.63153076 1.53729248.90374756 0 1.63635254-.7326355 1.63635254-1.63638306 0-.09320068-.00805664-.18621826-.02392578-.27804565l2.7341919-2.27877808c.1800537.06686402.37042235.10147095.5625.10229493C17.26739501 3.2727356 18 2.5401001 18 1.63635254 18 .7326355 17.26739502 0 16.36364746 0zm-.81817627 6.54544067c-.45166015 0-.81817627.36654663-.81817627.81817627V18H18V7.36361694c0-.45162964-.36651611-.81817627-.81817627-.81817627h-1.63635254zM4.90911865 9c0-.45162964.36651612-.81817627.81817627-.81817627h1.63635254c.45166016 0 .81817627.36654663.81817627.81817627v9H4.90911865V9zm5.72723389.81817627c-.45166016 0-.81817627.36654663-.81817627.81817627V18h3.27270508v-7.36364746c0-.45162964-.36651612-.81817627-.81817627-.81817627h-1.63635254zM0 12.2727356c0-.45162964.36651611-.81817627.81817627-.81817627h1.63635254c.45166015 0 .81817627.36654663.81817627.81817627V18H0v-5.7272644z"/>
</svg>
