<svg width="34" height="38" viewBox="0 0 34 38" fill="none" xmlns="http://www.w3.org/2000/svg">
  <path fill-rule="evenodd" clip-rule="evenodd" d="M0 5.93186C0 3.14119 2.26229 0.878906 5.05296 0.878906H15.9969C18.5859 0.878906 20.7202 2.82604 21.0151 5.33579H10.2785C6.99532 5.33579 4.3338 7.9973 4.3338 11.2804V27.563C1.88376 27.2139 0 25.1074 0 22.5609V5.93186ZM11.2441 7.24436C8.45343 7.24436 6.19114 9.50665 6.19114 12.2973V27.6532C6.19114 30.4439 8.45344 32.7062 11.2441 32.7062H16.2905C16.0305 31.8353 15.8906 30.9094 15.8906 29.9489C15.8906 24.7789 19.9426 20.6129 24.9709 20.6129C25.7553 20.6129 26.5159 20.7143 27.241 20.905V12.2973C27.241 9.50665 24.9787 7.24436 22.1881 7.24436H11.2441ZM24.8792 22.3103C20.8325 22.3103 17.5416 25.5248 17.5416 29.4774C17.5416 33.43 20.8325 36.6444 24.8792 36.6444C26.4616 36.6444 27.9239 36.1472 29.1236 35.3122L31.3521 37.489C31.5905 37.7219 31.9037 37.8389 32.2167 37.8389C32.5298 37.8389 32.8429 37.7219 33.0814 37.489C33.5595 37.0219 33.5595 36.2657 33.0814 35.7999L30.8529 33.6231C31.7077 32.4513 32.2167 31.0231 32.2167 29.4774C32.2167 25.5248 28.9258 22.3103 24.8792 22.3103ZM24.8792 24.6994C27.5769 24.6994 29.7709 26.8423 29.7709 29.4774C29.7709 32.1124 27.5769 34.2554 24.8792 34.2554C22.1814 34.2554 19.9874 32.1124 19.9874 29.4774C19.9874 26.8423 22.1814 24.6994 24.8792 24.6994Z" fill="#7F879D"/>
</svg>
