<svg xmlns="http://www.w3.org/2000/svg" width="15" height="18" viewBox="0 0 15 18">
  <path fill="rgb(112,131,160)" fill-rule="evenodd" d="M2 0h8.14286041c1.10382843 0 2 .89616394 2 2v.2429657c-.1810913-.05397034-.37290191-.08296204-.57142639-.08296204H3.42857361c-1.10382843 0-2 .89616394-2 2v10.3999939c0 .170578.02140808.33621216.0616684.49433899C.63298797 14.82870483 0 14.04768372 0 13.11999512V2C0 .89616394.89617157 0 2 0zm11 3.6000061H4.85713959c-1.10382843 0-2 .89616394-2 2V16c0 1.10383606.89617157 2 2 2H13c1.10382843 0 2-.89616394 2-2V5.6000061c0-1.10383606-.89617157-2-2-2z"/>
</svg>
