<svg width="17" height="13" viewBox="0 0 17 13" fill="none" xmlns="http://www.w3.org/2000/svg">
<path fill-rule="evenodd" clip-rule="evenodd" d="M0 1.3C0 0.58175 0.585192 0 1.30769 0H15.6923C16.4148 0 17 0.58175 17 1.3V11.7C17 12.4183 16.4148 13 15.6923 13H1.30769C0.585192 13 0 12.4183 0 11.7V1.3ZM13.1497 1.30127H12.2749C12.2272 1.50407 12.1958 1.72213 12.1958 1.96523C12.1958 2.50343 12.326 2.96055 12.5738 3.28555C12.8392 3.67165 13.2683 3.87969 13.7921 3.87969C14.6551 3.87969 15.2664 3.33346 15.2658 2.56191C15.2658 1.86641 14.7496 1.35078 14.0526 1.35078C13.6263 1.35078 13.294 1.54143 13.1306 1.88398H13.082C13.0716 1.66298 13.0974 1.46897 13.1497 1.30127ZM13.7844 2.01855C13.4549 2.01855 13.2046 2.26497 13.2046 2.58477C13.2046 2.90977 13.4575 3.16367 13.7844 3.16367C14.1113 3.16367 14.3667 2.91224 14.3667 2.58984C14.3667 2.26484 14.1166 2.01855 13.7844 2.01855ZM4.83233 6.49365C4.83233 5.2632 4.22646 4.55 3.26923 4.55C2.31004 4.55 1.70613 5.26586 1.70613 6.49111C1.70613 7.71701 2.30219 8.45 3.26923 8.45C4.23365 8.45 4.83233 7.71435 4.83233 6.49365ZM8.5 4.55C9.45723 4.55 10.0631 5.2632 10.0631 6.49365C10.0631 7.71435 9.46442 8.45 8.5 8.45C7.53296 8.45 6.9369 7.71701 6.9369 6.49111C6.9369 5.26586 7.54081 4.55 8.5 4.55ZM2.66774 6.49111C2.66774 5.67796 2.90831 5.27236 3.26923 5.27236C3.63015 5.27236 3.87327 5.67861 3.87327 6.49111C3.87327 7.30881 3.63015 7.72637 3.26923 7.72637C2.90831 7.72637 2.66774 7.30881 2.66774 6.49111ZM8.5 5.27236C8.13908 5.27236 7.89851 5.67796 7.89851 6.49111C7.89851 7.30881 8.13908 7.72637 8.5 7.72637C8.86092 7.72637 9.10404 7.30881 9.10404 6.49111C9.10404 5.67861 8.86092 5.27236 8.5 5.27236ZM15.1789 7.15H12.2826V7.91426H14.1816V7.96885L12.5533 11.05H13.598L15.1789 7.9168V7.15Z" fill="white"/>
</svg>
