<svg width="36" height="28" viewBox="0 0 36 28" fill="none" xmlns="http://www.w3.org/2000/svg">
<path fill-rule="evenodd" clip-rule="evenodd" d="M0.692383 3.46953C0.692383 1.97778 1.89719 0.769531 3.38469 0.769531H33.0001C34.4876 0.769531 35.6924 1.97778 35.6924 3.46953V25.0695C35.6924 26.5613 34.4876 27.7695 33.0001 27.7695H3.38469C1.89719 27.7695 0.692383 26.5613 0.692383 25.0695V3.46953ZM27.7653 3.47217H25.9643C25.866 3.89337 25.8013 4.34627 25.8013 4.85117C25.8013 5.96897 26.0694 6.91836 26.5796 7.59336C27.1261 8.39526 28.0095 8.82734 29.0878 8.82734C30.8647 8.82734 32.1233 7.69288 32.1219 6.09043C32.1219 4.64593 31.0592 3.575 29.6242 3.575C28.7465 3.575 28.0624 3.97097 27.7259 4.68242H27.626C27.6044 4.22342 27.6576 3.82047 27.7653 3.47217ZM29.072 4.96191C28.3936 4.96191 27.8784 5.47369 27.8784 6.13789C27.8784 6.81289 28.399 7.34023 29.072 7.34023C29.7451 7.34023 30.271 6.81804 30.271 6.14844C30.271 5.47344 29.7559 4.96191 29.072 4.96191ZM10.6413 14.2563C10.6413 11.7008 9.39392 10.2195 7.42315 10.2195C5.44834 10.2195 4.205 11.7063 4.205 14.2511C4.205 16.7972 5.43219 18.3195 7.42315 18.3195C9.40873 18.3195 10.6413 16.7916 10.6413 14.2563ZM18.1924 10.2195C20.1632 10.2195 21.4105 11.7008 21.4105 14.2563C21.4105 16.7916 20.178 18.3195 18.1924 18.3195C16.2014 18.3195 14.9742 16.7972 14.9742 14.2511C14.9742 11.7063 16.2176 10.2195 18.1924 10.2195ZM6.1848 14.2511C6.1848 12.5622 6.68008 11.7198 7.42315 11.7198C8.16623 11.7198 8.66677 12.5636 8.66677 14.2511C8.66677 15.9494 8.16623 16.8166 7.42315 16.8166C6.68008 16.8166 6.1848 15.9494 6.1848 14.2511ZM18.1924 11.7198C17.4493 11.7198 16.954 12.5622 16.954 14.2511C16.954 15.9494 17.4493 16.8166 18.1924 16.8166C18.9355 16.8166 19.436 15.9494 19.436 14.2511C19.436 12.5636 18.9355 11.7198 18.1924 11.7198ZM31.9431 15.6195H25.9801V17.2068H29.8897V17.3202L26.5375 23.7195H28.6882L31.9431 17.2121V15.6195Z" fill="url(#paint0_radial_0_19993)"/>
<defs>
<radialGradient id="paint0_radial_0_19993" cx="0" cy="0" r="1" gradientUnits="userSpaceOnUse" gradientTransform="translate(28.7275 21.4007) rotate(-131.944) scale(41.8237 44.4087)">
<stop stop-color="#5E4FED"/>
<stop offset="1" stop-color="#7D57FF"/>
</radialGradient>
</defs>
</svg>
