<svg xmlns="http://www.w3.org/2000/svg" width="16" height="12" viewBox="0 0 16 12">
  <path fill="rgb(255,255,255)" fill-rule="evenodd" d="M0 1.2000122C0 .5369873.55078125 0 1.23077393 0h13.53845214C15.44921875 0 16 .5369873 16 1.2000122v9.5999756C16 11.4630127 15.44921875 12 14.76922607 12H1.23077393C.55078125 12 0 11.4630127 0 10.7999878V1.2000122zm12.37619019.00115968h-.82330323c-.04492187.18719482-.07452392.38848876-.07452392.61291503 0 .49676514.12252807.91870118.35577392 1.21875.24984741.35638428.65371704.54840088 1.14663697.54840088.81228637 0 1.38763427-.50421142 1.38702392-1.21636963 0-.6420288-.48583984-1.11798095-1.1418457-1.11798095-.4012146 0-.71392822.17596435-.86776734.4921875H12.3125c-.00985718-.20404053.01446533-.38311768.06369019-.53790283zm.59738159.66210937c-.31018067 0-.54568482.22747803-.54568482.52264404 0 .2999878.23797608.5343628.54568482.5343628.30767822 0 .54806518-.23205567.54806518-.52966309 0-.2999878-.23547363-.52734375-.54806518-.52734375zM4.5480957 5.99414063c0-1.13580323-.57025146-1.79412842-1.47116089-1.79412842-.902771 0-1.47116088.6607666-1.47116088 1.79180908 0 1.1315918.56100463 1.8081665 1.47116088 1.8081665.90768433 0 1.4711609-.67901611 1.4711609-1.80584717zM8 4.2000122c.90090942 0 1.47116089.6583252 1.47116089 1.79412842 0 1.12683105-.56347656 1.80584716-1.47116089 1.80584716-.91015625 0-1.47116089-.6765747-1.47116089-1.8081665 0-1.13104248.5683899-1.79180908 1.47116089-1.79180908zM2.51080322 5.99182129c0-.75061035.22640991-1.125.56610108-1.125.33969116 0 .56851196.375.56851196 1.125 0 .75482178-.2288208 1.14025879-.56851196 1.14025879-.33969117 0-.56610108-.38543701-.56610108-1.1402588zM8 4.86682129c-.33969116 0-.56610107.37438965-.56610107 1.125 0 .75482178.2264099 1.14025879.56610107 1.14025879.33969116 0 .56851196-.38543701.56851196-1.1402588 0-.75-.2288208-1.125-.56851196-1.125zm6.28604126 1.7331543h-2.72595215v.70544433h1.78726196v.05041504l-1.53244018 2.84411621h.9831543l1.48797607-2.89215088v-.7078247z"/>
</svg>
