<?xml version="1.0" encoding="UTF-8"?>
<svg width="12px" height="13px" viewBox="0 0 12 13" version="1.1" xmlns="http://www.w3.org/2000/svg" xmlns:xlink="http://www.w3.org/1999/xlink">
    <title>Shape</title>
    <g id="Pass-Limits-(SP-1076)" stroke="none" stroke-width="1" fill="none" fill-rule="evenodd">
        <g id="Artboard" transform="translate(-1173.000000, -431.000000)" fill="#FFFFFF" fill-rule="nonzero">
            <g id="Group-4" transform="translate(1027.000000, 356.500000)">
                <g id="Now" transform="translate(25.000000, 66.000000)">
                    <g id="Group-6" transform="translate(114.000000, 3.000000)">
                        <path d="M13,6 C11.072833,6 9.5,7.50991973 9.5,9.36 L9.5,10.32 L8.5,10.32 C7.9475,10.32 7.5,10.7496 7.5,11.28 L7.5,17.04 C7.5,17.5704 7.9475,18 8.5,18 L17.5,18 C18.0525,18 18.5,17.5704 18.5,17.04 L18.5,11.28 C18.5,10.7496 18.0525,10.32 17.5,10.32 L16.5,10.32 L16.5,9.36 C16.5,7.5703595 15.0182905,6.12891134 13.1777345,6.03468749 C13.1211875,6.01282102 13.060952,6.0010652 13,6 Z M13,6.96 C14.386833,6.96 15.5,8.02864027 15.5,9.36 L15.5,10.32 L10.5,10.32 L10.5,9.36 C10.5,8.02864027 11.613167,6.96 13,6.96 Z" id="Shape"></path>
                    </g>
                </g>
            </g>
        </g>
    </g>
</svg>