<svg width="17" height="17" viewBox="0 0 17 17" fill="none" xmlns="http://www.w3.org/2000/svg">
<path fill-rule="evenodd" clip-rule="evenodd" d="M1.95455 16.5H15.0455C15.8491 16.5 16.5 15.8491 16.5 15.0455V1.95455C16.5 1.15091 15.8491 0.5 15.0455 0.5H1.95455C1.15091 0.5 0.5 1.15091 0.5 1.95455V15.0455C0.5 15.8491 1.15091 16.5 1.95455 16.5ZM10.6818 5.59091C10.6818 5.18945 11.0076 4.86364 11.4091 4.86364C11.8105 4.86364 12.1364 5.18945 12.1364 5.59091V11.4091C12.1364 11.8105 11.8105 12.1364 11.4091 12.1364C11.0076 12.1364 10.6818 11.8105 10.6818 11.4091V5.59091ZM5.38145 4.93345C5.09636 4.76909 4.86364 4.90364 4.86364 5.23236V11.7669C4.86364 12.0956 5.09636 12.2302 5.38145 12.0658L9.708 8.90727C10.0338 8.64691 10.0244 8.34073 9.71891 8.1L5.38145 4.93345Z" fill="#7083A0"/>
</svg>
