<?xml version="1.0" encoding="UTF-8"?>
<svg width="124px" height="96px" viewBox="0 0 124 96" version="1.1" xmlns="http://www.w3.org/2000/svg" xmlns:xlink="http://www.w3.org/1999/xlink">
    <title>Shape</title>
    <defs>
        <path d="M9.53846154,0 C4.26846154,0 0,4.296 0,9.6 L0,86.4 C0,91.704 4.26846154,96 9.53846154,96 L114.461538,96 C119.731538,96 124,91.704 124,86.4 L124,9.6 C124,4.296 119.731538,0 114.461538,0 L9.53846154,0 Z M100.153846,14.4 C105.423846,14.4 109.692308,18.696 109.692308,24 C109.692308,29.304 105.423846,33.6 100.153846,33.6 C94.8838462,33.6 90.6153846,29.304 90.6153846,24 C90.6153846,18.696 94.8838462,14.4 100.153846,14.4 Z M33.3846154,33.6093744 C36.3379615,33.6093744 39.2910072,34.7444976 41.5444735,37.0125024 L57.1003594,52.6687488 L62,57.6 L67.5144231,63.15 C69.5270385,65.1756 72.7767494,65.1568512 74.7893648,63.1312512 C76.8067494,61.1056512 76.8067494,57.8116512 74.7893648,55.7812512 L69.2935703,50.2593744 L72.9170649,46.6125024 C77.4239928,42.0764976 84.7298534,42.0764976 89.2367812,46.6125024 L109.692308,67.2 L109.692308,81.6 L14.3076923,81.6 L14.3076923,48 L25.2247596,37.0125024 C27.4782212,34.7444976 30.4312692,33.6093744 33.3846154,33.6093744 Z" id="path-1"></path>
    </defs>
    <g id="Web" stroke="none" stroke-width="1" fill="none" fill-rule="evenodd">
        <g id="Import" transform="translate(-1929.000000, -351.000000)">
            <g id="Group-4" transform="translate(1929.000000, 351.000000)">
                <mask id="mask-2" fill="white">
                    <use xlink:href="#path-1"></use>
                </mask>
                <use id="Shape" fill="#7F879D" fill-rule="nonzero" xlink:href="#path-1"></use>
            </g>
        </g>
    </g>
</svg>
