<svg width="28" height="25" viewBox="0 0 28 25" fill="none" xmlns="http://www.w3.org/2000/svg">
<path fill-rule="evenodd" clip-rule="evenodd" d="M0 2C0 0.895 0.895 0 2 0H24C25.105 0 26 0.895 26 2V10.5176C24.57 9.55958 22.851 9 21 9C18.004 9 15.3567 10.4697 13.7207 12.7207L8.71094 7.71094C7.76594 6.76594 6.23406 6.76594 5.28906 7.71094L3 10V17H12.0586C12.0216 17.329 12 17.662 12 18C12 18.688 12.0835 19.356 12.2305 20H2C0.895 20 0 19.105 0 18V2ZM23 5C23 3.895 22.105 3 21 3C19.895 3 19 3.895 19 5C19 6.105 19.895 7 21 7C22.105 7 23 6.105 23 5ZM21 11C17.134 11 14 14.134 14 18C14 21.866 17.134 25 21 25C24.866 25 28 21.866 28 18C28 14.134 24.866 11 21 11ZM22 15C22 14.447 21.552 14 21 14C20.448 14 20 14.447 20 15V17H18C17.448 17 17 17.447 17 18C17 18.553 17.448 19 18 19H20V21C20 21.553 20.448 22 21 22C21.552 22 22 21.553 22 21V19H24C24.552 19 25 18.553 25 18C25 17.447 24.552 17 24 17H22V15Z" fill="white"/>
</svg>
