<?xml version="1.0" encoding="UTF-8"?>
<svg width="20px" height="21px" viewBox="0 0 20 21" version="1.1" xmlns="http://www.w3.org/2000/svg" xmlns:xlink="http://www.w3.org/1999/xlink">
    <title>icons8-circled_play</title>
    <g id="Digital-ID-Cards-(SP-1202)" stroke="none" stroke-width="1" fill="none" fill-rule="evenodd">
        <g id="Accounts-tab" transform="translate(-564.000000, -73.000000)" fill="#FFFFFF" fill-rule="nonzero">
            <g id="Group-14" transform="translate(262.000000, 37.000000)">
                <g id="Group-6" transform="translate(293.000000, 27.000000)">
                    <g id="icons8-circled_play" transform="translate(9.000000, 9.500000)">
                        <path d="M10,0 C4.4775,0 0,4.4775 0,10 C0,15.5225 4.4775,20 10,20 C15.5225,20 20,15.5225 20,10 C20,4.4775 15.5225,0 10,0 Z M14.42,10.335 L8.08,13.995 C7.76083333,14.1791667 7.5,14.0283333 7.5,13.66 L7.5,6.33916667 C7.5,5.97083333 7.76083333,5.82 8.08,6.00416667 L14.42,9.66416667 C14.7391667,9.84916667 14.7391667,10.1508333 14.42,10.335 Z" id="Shape"></path>
                    </g>
                </g>
            </g>
        </g>
    </g>
</svg>