<svg xmlns="http://www.w3.org/2000/svg" width="56" height="24" viewBox="0 0 56 24">
  <g>
    <path fill="rgb(240,242,245)" fill-rule="evenodd" d="M4 0h48c2.2076601 0 4 1.7923399 4 4v16c0 2.2076601-1.7923399 4-4 4H4c-2.2076601 0-4-1.7923399-4-4V4c0-2.2076601 1.7923399-4 4-4z"/>
    <text font-size="0" style="white-space:pre">
      <tspan x="23" y="16" fill="rgb(112,131,160)" font-family="Arial" font-size="13" font-weight="400" style="white-space:pre;text-transform:none">Plus</tspan>
    </text>
    <path fill="rgb(235,187,0)" fill-rule="evenodd" d="M11.66125488 7.6800232l-2.19500732-.74639893L8.734375 4.69503784c-.08563232-.26004028-.50811768-.26004028-.59313965 0l-.7324829 2.23858643-2.19500733.74639892C5.08624268 7.72399902 5 7.84573364 5 7.9827881c0 .13705444.08624268.25878906.21374512.30276489l2.19561767.74639892.73187256 2.2392273c.04251099.12939453.16189575.2173462.29626465.2173462s.25375366-.08795167.296875-.21798707l.73187256-2.2392273 2.19561767-.74639892c.1268921-.04333496.21313477-.16506958.21313477-.30212402 0-.13705445-.08624268-.25878907-.21374512-.3027649zm8.14624024 4.47012328l-3.41061402-1.44882202-1.42062378-3.47833252c-.09750366-.23776245-.48001098-.23776245-.57751464 0l-1.42062378 3.47833252-3.41061402 1.44882202c-.11688232.04971314-.19250488.16571045-.19250488.29449463 0 .12875367.07562256.24475098.19250488.29446411l3.41061402 1.44882203 1.42062378 3.47833252c.04876709.11920166.1625061.19631958.28875732.19631958s.23999023-.07711792.28875732-.19631958l1.42062378-3.47833252 3.41061402-1.44882203C19.92437744 12.6893921 20 12.57339478 20 12.44464112c0-.12878419-.07562256-.2447815-.19250488-.29449464zM9.1531372 15.53860474l1.25811767.42770385c.12750244.04397583.21374512.16571045.21374512.3027649 0 .13702392-.08624268.25878906-.21313477.30212402l-1.25811767.42770386-.41937256 1.28311157C8.69125366 18.41201782 8.5718689 18.5 8.4375 18.5s-.25375366-.08798218-.29626465-.2173767l-.41937256-1.28308106-1.25811767-.42770386C6.33624268 16.52786255 6.25 16.4060974 6.25 16.26907348c0-.13705444.08624268-.25878906.21313477-.30276489l1.25811767-.42770385.41937256-1.28311158c.08499146-.26004028.50750732-.26004028.59313965 0l.41937256 1.28311158z"/>
  </g>
</svg>
