<svg xmlns="http://www.w3.org/2000/svg" width="26" height="25" viewBox="0 0 26 25">
  <path fill="#7E879D" fill-rule="evenodd" d="M11.5461731 5.67861176L7.7414856 4.3457489 6.4729309.34829712c-.1484375-.46439362-.88076781-.46439362-1.02810668 0L4.1751709 4.3457489.37051392 5.67861176C.14950562 5.75714874 0 5.97454834 0 6.2192688c0 .24472046.14950562.46212005.37051392.54065704l3.8057251 1.33286286 1.2685852 3.99858856c.07366943.23105621.28057861.38813782.51351929.38813782.23291015 0 .43981933-.1570816.5145874-.3892746L7.7414856 8.09165192l3.80575561-1.33286286c.21994019-.0774002.36941528-.2947998.36941528-.53952026 0-.24472046-.1494751-.46212006-.3704834-.54065704zm14.12017822 7.9823761l-5.91174317-2.58718873-2.46243286-6.21129608c-.16900634-.42456055-.83200073-.42456055-1.00100708 0l-2.46240234 6.21129608-5.91174316 2.58718872c-.2026062.08878327-.3336792.29593659-.3336792.52586365 0 .22991944.131073.43708038.3336792.52585602l5.91174316 2.58718872 2.46240234 6.21130371c.08450318.21284485.28167725.35057068.5005188.35057068.21881104 0 .4159851-.13772583.50048828-.35057068l2.46243286-6.21130371 5.91174317-2.58718872C25.868927 14.62393188 26 14.41677094 26 14.1868515c0-.22992706-.131073-.43708038-.33364868-.52586365zm-18.46762085 6.0508194l2.18075561.76374816c.2210083.07853699.37051392.29593658.37051392.54065704 0 .24472046-.14950562.46212006-.36941528.53952027l-2.18075562.76374817-.7269287 2.29125213C6.39816283 24.84292603 6.19125365 25 5.95831298 25c-.23291016 0-.43981934-.15707397-.51348877-.38813782l-.72692871-2.2912445-2.1807251-.76374817c-.2210083-.07853699-.37051392-.29593659-.37051392-.54065705 0-.24472046.14950562-.46212005.36941529-.54065704l2.18075561-.76374817.7268982-2.29125214c.14733886-.46439361.87966919-.46439361 1.02810669 0l.72689819 2.29125214z"/>
</svg>
