<?xml version="1.0" encoding="UTF-8"?>
<svg width="150px" height="150px" viewBox="0 0 150 150" version="1.1" xmlns="http://www.w3.org/2000/svg" xmlns:xlink="http://www.w3.org/1999/xlink">
    <!-- Generator: Sketch 53.2 (72643) - https://sketchapp.com -->
    <title>Print (Jade)</title>
    <desc>Created with Sketch.</desc>
    <g id="Print-(Jade)" stroke="none" stroke-width="1" fill="none" fill-rule="evenodd">
        <g id="icons8-print" transform="translate(0.000000, 9.000000)" fill="#00B476" fill-rule="nonzero">
            <path d="M28.8461538,0 C25.6615385,0 23.0769231,2.5906087 23.0769231,5.7826087 L23.0769231,17.3478261 L126.923077,17.3478261 L126.923077,5.7826087 C126.923077,2.5906087 124.338462,0 121.153846,0 L28.8461538,0 Z M11.5384615,28.9130435 C5.16346154,28.9130435 0,34.0884783 0,40.4782609 L0,92.5217391 C0,98.9115217 5.16346154,104.086957 11.5384615,104.086957 L23.0769231,104.086957 L23.0769231,133 L126.923077,133 L126.923077,104.086957 L138.461538,104.086957 C144.836538,104.086957 150,98.9115217 150,92.5217391 L150,40.4782609 C150,34.0884783 144.836538,28.9130435 138.461538,28.9130435 L11.5384615,28.9130435 Z M34.6153846,63.6086957 L115.384615,63.6086957 L115.384615,121.434783 L34.6153846,121.434783 L34.6153846,63.6086957 Z" id="Shape"></path>
        </g>
    </g>
</svg>