<?xml version="1.0" encoding="UTF-8"?>
<svg width="18px" height="18px" viewBox="0 0 18 18" version="1.1" xmlns="http://www.w3.org/2000/svg">
    <title>Combined Shape</title>
    <g id="Web" stroke="none" stroke-width="1" fill="none" fill-rule="evenodd">
        <g id="Main" transform="translate(-2643.000000, -321.000000)" fill="#7F879D" fill-rule="nonzero">
            <g id="Group-5" transform="translate(2616.000000, 133.000000)">
                <g id="Group-4" transform="translate(-0.500000, 81.000000)">
                    <g id="Button" transform="translate(0.500000, 96.000000)">
                        <path d="M42,22 C43.3236,22 44.4,23.1416364 44.4,24.5454545 L44.4,25.1818182 C44.7312,25.1818182 45,25.4669091 45,25.8181818 L45,28.3636364 C45,28.7149091 44.7312,29 44.4,29 L39.6,29 C39.2688,29 39,28.7149091 39,28.3636364 L39,25.8181818 C39,25.4669091 39.2688,25.1818182 39.6,25.1818182 L39.6,24.5454545 C39.6,23.1416364 40.6764,22 42,22 Z M40.0769231,11 C41.1250385,11 42.1091998,11.4085312 42.8506614,12.1493389 C43.5914684,12.8908005 44,13.8749615 44,14.9230769 C44,15.9711923 43.5914684,16.955353 42.8506614,17.6968152 L42.8506614,17.6968152 L41.5429691,19.0045075 C40.8015069,19.7453146 39.8173462,20.1538462 38.7692308,20.1538462 C38.4089615,20.1538462 38.0575395,20.1023865 37.719501,20.0095403 L37.719501,20.0095403 L38.8956578,18.8333836 C39.5226963,18.8033067 40.1410817,18.5572356 40.6183894,18.0799279 L40.6183894,18.0799279 L41.9260817,16.7722356 C42.9460817,15.7528894 42.9460817,14.0939183 41.9260817,13.0739183 C41.4160817,12.5645721 40.7471154,12.3102464 40.0769231,12.3102464 C39.4067308,12.3102464 38.7377644,12.5639183 38.2277644,13.0739183 L38.2277644,13.0739183 L36.9200721,14.3816106 C36.0604737,15.2406582 35.9336674,16.5500861 36.5229116,17.5525088 L36.5229116,17.5525088 L38.3069413,15.7684796 C38.4253669,15.6465935 38.5865922,15.5755994 38.7564605,15.5705379 C39.0260304,15.5625882 39.2728304,15.7209469 39.3779389,15.9693082 C39.4830474,16.2176695 39.424902,16.5050836 39.2315203,16.6930587 L39.2315203,16.6930587 L32.6930587,23.2315203 C32.5290631,23.4023306 32.2855383,23.4711373 32.0564037,23.4114039 C31.8272691,23.3516704 31.6483296,23.172731 31.5885961,22.9435964 C31.5288626,22.7144618 31.5976693,22.470937 31.7684796,22.3069413 L31.7684796,22.3069413 L33.5525088,20.5229116 C33.1452659,20.2840629 32.6908919,20.1564001 32.2320462,20.1564001 C31.5618539,20.1564001 30.8916106,20.4100721 30.3816106,20.9200721 L30.3816106,20.9200721 L29.0739183,22.2277644 C28.0539183,23.2471106 28.0545721,24.9060817 29.0739183,25.9260817 C30.0932644,26.9460817 31.7522356,26.9460817 32.7722356,25.9260817 L32.7722356,25.9260817 L34.0799279,24.6183894 C34.5572356,24.1404279 34.8033067,23.5226963 34.8333836,22.8956578 L34.8333836,22.8956578 L36.0095403,21.719501 C36.1023865,22.0575395 36.1538462,22.4089615 36.1538462,22.7692308 C36.1538462,23.8173462 35.7453146,24.8015075 35.0045075,25.5429691 L35.0045075,25.5429691 L33.6968152,26.8506614 C32.9553537,27.5914684 31.9711923,28 30.9230769,28 C29.8749615,28 28.8901466,27.5921229 28.1493389,26.8506614 C27.4085312,26.1091992 27,25.1250385 27,24.0769231 C27,23.0288077 27.4085312,22.044647 28.1493389,21.3031848 L28.1493389,21.3031848 L29.4570312,19.9954925 C30.1984928,19.2546854 31.1826538,18.8461538 32.2307692,18.8461538 C33.0569071,18.8461538 33.8417527,19.1036058 34.501352,19.5740683 L34.501352,19.5740683 L35.5740683,18.501352 C35.1033795,17.8418285 34.8461538,17.0574067 34.8461538,16.2307692 C34.8461538,15.1826538 35.2546854,14.1984928 35.9954925,13.4570312 L35.9954925,13.4570312 L37.3031848,12.1493389 C38.044647,11.4085312 39.0288077,11 40.0769231,11 Z M42,23.2727273 C41.3382,23.2727273 40.8,23.8435455 40.8,24.5454545 L40.8,25.1818182 L43.2,25.1818182 L43.2,24.5454545 C43.2,23.8435455 42.6618,23.2727273 42,23.2727273 Z" id="Combined-Shape"></path>
                    </g>
                </g>
            </g>
        </g>
    </g>
</svg>
