<?xml version="1.0" encoding="UTF-8"?>
<svg width="150px" height="150px" viewBox="0 0 150 150" version="1.1" xmlns="http://www.w3.org/2000/svg" xmlns:xlink="http://www.w3.org/1999/xlink">
    <!-- Generator: Sketch 53.2 (72643) - https://sketchapp.com -->
    <title>Profile Switch (Jade)</title>
    <desc>Created with Sketch.</desc>
    <g id="Profile-Switch-(Jade)" stroke="none" stroke-width="1" fill="none" fill-rule="evenodd">
        <g id="icons8-change_user_male" transform="translate(0.000000, 6.000000)" fill="#00B476" fill-rule="nonzero">
            <path d="M69.2307692,0 C31.0646169,0 0,30.9610682 0,69 C0,107.03893 31.0646169,138 69.2307692,138 C107.396919,138 138.461538,107.03893 138.461538,69 L150,69 L132.692308,46 L115.384615,69 L126.923077,69 C126.923077,100.823571 101.160773,126.5 69.2307692,126.5 C37.3007677,126.5 11.5384615,100.823571 11.5384615,69 C11.5384615,37.1764318 37.3007677,11.5 69.2307692,11.5 C88.7029904,11.5 105.795462,21.1063358 116.252256,35.8027344 C117.443627,37.4804557 119.442666,38.3971106 121.496127,38.2072997 C123.549588,38.0174888 125.34539,36.7500593 126.206866,34.8825838 C127.068342,33.0151083 126.864568,30.831403 125.672325,29.1542969 C113.144504,11.5471954 92.5200865,0 69.2307692,0 Z M69.2307692,28.75 C54.9576923,28.75 49.0329635,38.6455706 49.0271942,50.5595717 C49.0271942,54.5673217 50.8075442,58.6005845 50.8075442,58.6005845 C50.0979288,59.0433345 48.9245192,60.4455295 49.21875,62.9467795 C49.7725962,67.6100295 51.6415558,68.7954265 52.8357865,68.8989265 C53.2915558,73.2459265 57.6230769,78.813272 59.1346154,79.624022 L59.1346154,86.890136 C56.5442308,95.279386 44.0087769,92.6054577 35.2914663,100.074708 C43.7318481,109.222958 55.8057692,115 69.2307692,115 C82.6557692,115 94.7296846,109.222958 103.170069,100.074708 C94.4527673,92.6054577 81.9173077,95.2681562 79.3269231,86.8789062 L79.3269231,79.6127922 C80.8442308,78.8020422 85.1699827,73.2346967 85.6257519,68.8876967 C86.8199827,68.7841967 88.6889423,67.6100295 89.2427885,62.9467795 C89.5370192,60.4455295 88.3581115,59.0321047 87.6427269,58.5893547 C87.6427269,58.5893547 89.4230769,54.947092 89.4230769,50.548342 C89.4230769,41.722092 86.2153846,34.1967772 79.3269231,34.1967772 C79.3269231,34.1967772 76.9384615,28.75 69.2307692,28.75 Z" id="Shape"></path>
        </g>
    </g>
</svg>