<svg xmlns="http://www.w3.org/2000/svg" width="26" height="26" viewBox="0 0 26 26">
  <g>
    <path fill="rgb(7,171,195)" fill-rule="evenodd" d="M5 0h16c2.75957512 0 5 2.24042488 5 5v16c0 2.75957512-2.24042488 5-5 5H5c-2.75957512 0-5-2.24042488-5-5V5c0-2.75957512 2.24042488-5 5-5z"/>
    <path fill="rgb(255,255,255)" fill-rule="evenodd" d="M4.5 7.77999878C4.5 7.07281494 5.0753479 6.5 5.78570557 6.5h14.14285278c.71035767 0 1.28573608.57281494 1.28573608 1.27999878v5.45126343c-.919281-.61312867-2.02435302-.97125244-3.21429443-.97125244-1.92599487 0-3.62783813.94061279-4.67953491 2.38122558l-3.22058106-3.2062378c-.6074829-.60479735-1.59228515-.60479735-2.19976806 0L6.42855835 12.8999939v4.48001098h5.82339477c-.02377319.21054077-.03765869.42367554-.03765869.63998413 0 .44033814.0536499.86785889.14816285 1.27999878H5.78570557C5.0753479 19.2999878 4.5 18.72720337 4.5 18.01998901V7.77999878zM19.28573608 9.7000122c0-.70718384-.57537841-1.27999878-1.28573608-1.27999878-.71035767 0-1.28570557.57281494-1.28570557 1.27999878 0 .70721435.5753479 1.27999878 1.28570557 1.27999878.71035767 0 1.28573608-.57278443 1.28573608-1.27999878zM18 13.54000854c-2.48529053 0-4.5 2.00576783-4.5 4.480011C13.5 20.4942627 15.51470947 22.5 18 22.5s4.5-2.0057373 4.5-4.47998047c0-2.47424316-2.01470947-4.48001099-4.5-4.48001099zm.64285278 2.55999756c0-.35394287-.28799438-.64001464-.64285278-.64001464s-.6428833.28607177-.6428833.64001464v1.27999878h-1.28570557c-.3548584 0-.64285278.28607178-.64285278.63998413 0 .35391236.28799438.64001465.64285278.64001465h1.28570557v1.27999878c0 .35391235.2880249.63998413.6428833.63998413.3548584 0 .64285278-.28607178.64285278-.63998413v-1.27999878h1.28570557c.3548584 0 .64285278-.2861023.64285278-.64001465 0-.35391235-.28799438-.63998413-.64285278-.63998413h-1.28570557V16.1000061z"/>
  </g>
</svg>
