<svg xmlns="http://www.w3.org/2000/svg" width="20" height="20" viewBox="0 0 20 20">
  <path fill="rgb(112,131,160)" fill-rule="evenodd" d="M0 1.81817627C0 .81365967.81365967 0 1.81817627 0h3.63635254c1.00457764 0 1.81817627.81365967 1.81817627 1.81817627v3.63635254c0 1.00457764-.81359863 1.81817627-1.81817627 1.81817627H1.81817627C.81365967 7.27270508 0 6.45910645 0 5.4545288V1.81817627zm12.72729492 0C12.72729492.81365967 13.5409546 0 14.5454712 0h3.63635254C19.18640137 0 20 .81365967 20 1.81817627v3.63635254c0 1.00457764-.81359863 1.81817627-1.81817627 1.81817627h-3.63635254c-1.0045166 0-1.81817627-.81359863-1.81817627-1.81817627V1.81817627zm-10.90911865 0h3.63635254v3.63635254H1.81817627V1.81817627zm9.09088135 1.81817627H9.09088135V1.81817627h1.81817627v1.81817627zm3.63641357-1.81817627h3.63635254v3.63635254h-3.63635254V1.81817627zM2.72729492 4.54547119V2.72729492H4.5454712V4.5454712H2.72729492zm12.72723389 0h1.81817627V2.72729492H15.4545288V4.5454712zM9.09088135 7.27270508V5.4545288h1.81817627v1.81817627H9.09088135zM1.81817627 9.09088135v1.81817627h1.81817627V9.09088135H1.81817627zm3.63635254 1.81817627V9.09088135h1.81817627v1.81817627H5.4545288zm3.63635254-1.81817627v1.81817627l1.8182373.00006103v1.81817627h-1.8182373v1.81817627h1.81817627l.00006103 1.81817627h-1.8182373v1.81817627h1.81817627L10.90911865 20h1.81817627v-1.81817627h1.81817627V20h1.81817627v-1.81817627h1.81817627v-1.81817627H20V14.5454712h-1.81817627v-1.81817627H20v-1.81817627h-1.81817627v-1.8182373h-1.81817627v1.81817627l-1.81817627.00006103v-1.8182373h-1.81817627v1.8182373h-1.81817627l-.00006103-1.8182373H9.09088135zm3.63641357 3.63641357v-1.81817627l1.81817627-.00006103v1.8182373h-1.81817627zm0 1.81817627v-1.81817627h-1.8182373l.00006103 1.81817627h1.81817627zm1.81817627 0v-1.81817627h1.81817627v1.81817627H14.5454712zm0 1.81817627V14.5454712h-1.81817627v1.81817627h-1.8182373l.00006103 1.81817627h1.81817627v-1.81817627h1.81817627zm1.81817627 0v1.81817627H14.5454712v-1.81817627h1.81817627zm0 0V14.5454712h1.81817627v1.81817627h-1.81817627zm0-3.63635254h1.81817627v-1.8182373l-1.81817627.00006103v1.81817627zM0 14.5454712c0-1.0045166.81365967-1.81817627 1.81817627-1.81817627h3.63635254c1.00457764 0 1.81817627.81365967 1.81817627 1.81817627v3.63635254C7.27270508 19.18640137 6.45910645 20 5.4545288 20H1.81817627C.81365967 20 0 19.18640137 0 18.18182373v-3.63635254zm5.4545288 0v3.63635254H1.81817628v-3.63635254h3.63635254zm-2.72723388 2.72723389V15.4545288H4.5454712v1.81817627H2.72729492z"/>
</svg>
