<?xml version="1.0" encoding="UTF-8"?>
<svg width="150px" height="150px" viewBox="0 0 150 150" version="1.1" xmlns="http://www.w3.org/2000/svg" xmlns:xlink="http://www.w3.org/1999/xlink">
    <!-- Generator: Sketch 53.2 (72643) - https://sketchapp.com -->
    <title>Received (Jade)</title>
    <desc>Created with Sketch.</desc>
    <g id="Received-(Jade)" stroke="none" stroke-width="1" fill="none" fill-rule="evenodd">
        <g id="icons8-time_card_filled" transform="translate(26.000000, 1.000000)" fill="#00B476" fill-rule="nonzero">
            <path d="M36.9158846,0 C35.2825513,0 33.9809904,0.982784691 33.6492179,2.61650062 L25.5335929,47.7096122 L13.7174487,47.7096122 C10.4507821,47.7096122 7.1841154,49.3433281 5.2190096,52.2789098 L1.63333333,57.8309921 C0.650782067,59.4647081 0,61.4175083 0,63.3830744 L0,135.598422 C0,143.116071 5.88255127,149 13.3856763,149 L84.6143237,149 C92.1174487,149 98,143.116071 98,135.598422 L98,63.3830744 C98,61.4175083 97.3492179,59.4647081 96.3666667,57.8309921 L92.7809904,52.2789098 C90.8158846,49.3433281 87.8809904,47.7096122 84.2825513,47.7096122 L80.5182308,47.7096122 L85.2523429,22.2210918 C81.3348975,16.3371593 79.0507821,13.0697275 74.8143237,7.18579824 L37.5666667,0.319087594 C37.2348975,0.319087594 37.2476571,0 36.9158846,0 Z M39.5190096,7.18579824 L70.8841154,13.0697275 L78.0809904,23.5229576 L70.9479167,64.0467715 L29.1320321,64.0467715 L39.5190096,7.18579824 Z M43.3981763,12.1379997 L42.1986987,18.5707561 L68.3320321,23.4719039 L69.5315096,17.0391475 L43.3981763,12.1379997 Z M40.1059904,25.2077271 L38.9447917,31.6404836 L71.6114583,37.5244128 L72.7726571,31.0916563 L40.1059904,25.2077271 Z M37.4901058,38.2774546 L36.3416667,44.7102111 L69.0083333,50.5941403 L70.1567725,44.1613838 L37.4901058,38.2774546 Z M19.6,57.5119078 L23.7726571,57.5119078 L22.5986987,64.0467715 L19.6,64.0467715 C17.6348975,64.0467715 16.3333333,62.7321399 16.3333333,60.7793397 C16.3333333,58.8137736 17.6348975,57.5119078 19.6,57.5119078 Z M78.6934904,57.5629614 C80.4799487,57.6905939 81.6666667,58.9158808 81.6666667,60.7793397 C81.6666667,62.7321399 80.3651058,64.0467715 78.4,64.0467715 L77.48125,64.0467715 L78.6934904,57.5629614 Z M49.3190096,70.9007196 C67.2856763,70.9007196 81.9856763,85.604163 81.9856763,103.575038 C81.9856763,121.545913 67.2856763,136.249357 49.3190096,136.249357 C31.3523429,136.249357 16.6523429,121.545913 16.6523429,103.575038 C16.6523429,85.604163 31.3523429,70.9007196 49.3190096,70.9007196 Z M49.3190096,80.7030152 C47.3666667,80.7030152 46.0523429,82.0048842 46.0523429,83.970447 L46.0523429,100.307606 L26.4523429,100.307606 C24.5,100.307606 23.1856763,101.609475 23.1856763,103.575038 C23.1856763,105.540604 24.5,106.84247 26.4523429,106.84247 L49.3190096,106.84247 C50.9523429,106.84247 52.5856763,105.540604 52.5856763,103.575038 L52.5856763,83.970447 C52.5856763,82.0048842 51.2841154,80.7030152 49.3190096,80.7030152 Z" id="Shape"></path>
        </g>
    </g>
</svg>