<svg xmlns="http://www.w3.org/2000/svg" width="13" height="13" viewBox="0 0 13 13">
  <path fill="#FFFFFF" fill-rule="evenodd" d="M12.40980587 0c.17080805.0000374.33322663.07405718.44531272.20294445.11208608.12888728.16285042.30000555.1391836.46916518v4.93187854c.0030105.21286807-.10882947.41086728-.29269419.51817986-.18386472.10731257-.41126803.10731257-.59513275 0-.18386473-.10731258-.2957047-.30531179-.2926942-.51817986V2.0209404L1.01616282 12.81850316c-.14804714.15419935-.36788993.216315-.57474206.16239095-.20685213-.05392405-.36839043-.21546153-.42231477-.4223126-.05392433-.20685108.00819165-.42669275.16239179-.57473912L10.97911573 1.18627932h-3.5830661c-.21286916.00301048-.41086938-.10882891-.5181825-.2926927-.10731313-.18386378-.10731313-.41126592 0-.5951297.10731312-.18386379.30531334-.29570319.5181825-.2926927h4.93882083C12.35970114.00225309 12.38473032.00032778 12.40980587 0z"/>
</svg>
