<?xml version="1.0" encoding="UTF-8"?>
<svg width="17px" height="19px" viewBox="0 0 17 19" version="1.1" xmlns="http://www.w3.org/2000/svg">
  <title>Shape</title>
  <g id="Web---Future" stroke="none" stroke-width="1" fill="none" fill-rule="evenodd">
    <g id="Artboard" transform="translate(-107.000000, -348.000000)" fill="#FFFFFF" fill-rule="nonzero">
      <g id="Group-5" transform="translate(79.000000, 134.000000)">
        <g id="Button" transform="translate(0.000000, 205.000000)">
          <g id="icons8-wedding_gift" transform="translate(28.000000, 9.000000)">
            <path d="M10.2708333,0 C9.43642587,0 8.69698821,0.436916473 8.24682608,1.09615385 C7.91134525,0.866918335 7.51194583,0.730769231 7.08333333,0.730769231 C5.91814625,0.730769231 4.95833333,1.72098361 4.95833333,2.92307692 C4.95833333,3.1801926 5.0107075,3.42373313 5.09114583,3.65384615 L1.41666667,3.65384615 C0.633958333,3.65384615 0,4.30788462 0,5.11538462 L0,6.57692308 L17,6.57692308 L17,5.11538462 C17,4.30788462 16.3660417,3.65384615 15.5833333,3.65384615 L12.4982095,3.65384615 C12.6543793,3.31977047 12.75,2.95085361 12.75,2.55769231 C12.75,1.15374701 11.6316748,0 10.2708333,0 Z M10.2708333,1.46153846 C10.8664085,1.46153846 11.3333333,1.94325299 11.3333333,2.55769231 C11.3333333,3.17213163 10.8664085,3.65384615 10.2708333,3.65384615 L9.20833333,3.65384615 L9.20833333,2.92307692 L9.20833333,2.55769231 C9.20833333,1.94325299 9.67525817,1.46153846 10.2708333,1.46153846 Z M7.08333333,2.19230769 C7.48356292,2.19230769 7.79166667,2.51017024 7.79166667,2.92307692 L7.79166667,3.65384615 L7.08333333,3.65384615 C6.68310375,3.65384615 6.375,3.33598361 6.375,2.92307692 C6.375,2.51017024 6.68310375,2.19230769 7.08333333,2.19230769 Z M0.708333333,8.03846154 L0.708333333,17.5384615 C0.708333333,18.3459615 1.34229167,19 2.125,19 L14.875,19 C15.6577083,19 16.2916667,18.3459615 16.2916667,17.5384615 L16.2916667,8.03846154 L0.708333333,8.03846154 Z M6.92561867,10.2307692 C7.572327,10.2307692 8.14158333,10.5573887 8.5,11.0543118 C8.85841667,10.5573887 9.427673,10.2307692 10.0743813,10.2307692 C11.1609647,10.2307692 12.0416667,11.1393668 12.0416667,12.2603668 C12.0416667,13.8958283 9.7418415,15.9405659 8.84863317,16.6735275 C8.64250746,16.8423352 8.35749183,16.8423352 8.15136683,16.6735275 C7.25815921,15.9405659 4.95833333,13.8958283 4.95833333,12.2603668 C4.95833333,11.1393668 5.83903533,10.2307692 6.92561867,10.2307692 Z" id="Shape"></path>
          </g>
        </g>
      </g>
    </g>
  </g>
</svg>
