<svg width="26" height="26" viewBox="0 0 26 26" fill="none" xmlns="http://www.w3.org/2000/svg">
<rect width="26" height="26" rx="5" fill="#7083A0"/>
<path fill-rule="evenodd" clip-rule="evenodd" d="M16.0769 7.90909V6L20.3845 8.54545L16.0769 11.0909V9.18182H8.69237C7.32601 9.18182 6.23087 10.3143 6.23087 11.7273C6.23401 11.9568 6.11741 12.1702 5.92572 12.2859C5.73404 12.4016 5.49696 12.4016 5.30527 12.2859C5.11358 12.1702 4.99698 11.9568 5.00012 11.7273C5.00012 9.62624 6.66064 7.90909 8.69237 7.90909H16.0769ZM19.7691 14.2727C19.7645 13.9218 20.0355 13.6331 20.3749 13.6277C20.5412 13.625 20.7015 13.692 20.8193 13.8136C20.937 13.9351 21.0022 14.1007 20.9999 14.2727C20.9999 16.3738 19.3394 18.0909 17.3076 18.0909H9.92313V20L5.6155 17.4545L9.92313 14.9091V16.8182H17.3076C18.674 16.8182 19.7691 15.6857 19.7691 14.2727Z" fill="white"/>
</svg>
