<?xml version="1.0" encoding="UTF-8"?>
<svg width="17px" height="17px" viewBox="0 0 17 17" version="1.1" xmlns="http://www.w3.org/2000/svg" xmlns:xlink="http://www.w3.org/1999/xlink">
    <title>Rectangle 2</title>
    <g id="Recurring-Future-Passes" stroke="none" stroke-width="1" fill="none" fill-rule="evenodd">
        <g id="Artboard" transform="translate(-2890.000000, -304.000000)" fill="#FFFFFF">
            <g id="Counselor" transform="translate(2687.000000, 260.000000)">
                <g id="Group-25" transform="translate(203.000000, 44.000000)">
                    <path d="M13.7307692,0 C15.5363155,-3.31673474e-16 17,1.46368447 17,3.26923077 L17,13.7307692 C17,15.5363155 15.5363155,17 13.7307692,17 L3.26923077,17 C1.46368447,17 2.21115649e-16,15.5363155 0,13.7307692 L0,3.26923077 C-2.21115649e-16,1.46368447 1.46368447,3.31673474e-16 3.26923077,0 L13.7307692,0 Z M13.3220477,8.91039522 C13.1001391,8.91398231 12.9229347,9.1026843 12.9259736,9.33216783 C12.9259736,10.2560302 12.2099219,10.9965035 11.3165297,10.9965035 L6.48819788,10.9965035 L6.48819788,9.74825175 L3.67167101,11.4125874 L6.48819788,13.0769231 L6.48819788,11.8286713 L11.3165297,11.8286713 C12.6449747,11.8286713 13.7307333,10.7059209 13.7307333,9.33216783 C13.7321849,9.21970021 13.6895836,9.11139926 13.6125987,9.03194177 C13.5356138,8.95248427 13.4308029,8.90863862 13.3220477,8.91039522 Z M10.5118077,3.92307692 L10.5118077,5.17132867 L5.68347592,5.17132867 C4.35503068,5.17132867 3.26926962,6.29407894 3.26926962,7.66783217 C3.26725787,7.81788697 3.34349546,7.95746043 3.46882992,8.03310713 C3.59416438,8.10875383 3.74917765,8.10875383 3.87451211,8.03310713 C3.99984657,7.95746043 4.07608415,7.81788697 4.07403199,7.66783217 C4.07403199,6.74396984 4.79008382,6.0034965 5.68347592,6.0034965 L10.5118077,6.0034965 L10.5118077,7.25174825 L13.3283346,5.58741259 L10.5118077,3.92307692 Z" id="Rectangle-2"></path>
                </g>
            </g>
        </g>
    </g>
</svg>