<?xml version="1.0" encoding="UTF-8" standalone="no"?>
<svg
   width="151px"
   height="150px"
   viewBox="0 0 151 150"
   version="1.1"
   id="svg7090"
   xmlns="http://www.w3.org/2000/svg"
   xmlns:svg="http://www.w3.org/2000/svg"
   xmlns:rdf="http://www.w3.org/1999/02/22-rdf-syntax-ns#"
   xmlns:cc="http://creativecommons.org/ns#"
   xmlns:dc="http://purl.org/dc/elements/1.1/">
  <defs
     id="defs7094" />
  <!-- Generator: Sketch 53.2 (72643) - https://sketchapp.com -->
  <title
     id="title7083">Report (Blue-Gray)</title>
  <desc
     id="desc7085">Created with Sketch.</desc>
  <g
     id="Report-(Blue-Gray)"
     stroke="none"
     stroke-width="1"
     fill="none"
     fill-rule="evenodd"
     transform="translate(1.000000, 0.000000)">
    <path
       d="m 75,9 c -4.797508,0 -8.907329,2.930186 -10.648286,7.104025 L 1.7352761,124.34723 v 0.0113 C 0.60520411,126.18317 0.00433938,128.28716 0,130.43478 0,136.82208 5.1659452,142 11.538462,142 c 0.270745,-0.002 0.541345,-0.013 0.811298,-0.0339 L 12.372295,142 H 75 137.62771 l 0.0225,-0.0452 c 0.26982,0.0246 0.54042,0.0397 0.8113,0.0452 C 144.83405,142 150,136.82208 150,130.43478 c -0.002,-2.15146 -0.60319,-4.25964 -1.73528,-6.08755 l -0.0901,-0.15812 c -0.004,-0.004 -0.008,-0.008 -0.0113,-0.0113 L 85.648286,16.104025 C 83.907329,11.930186 79.797508,9 75,9 Z M 68.002552,57.338995 H 81.997448 L 80.83684,94.767831 H 69.16316 Z m 7.019983,48.869815 c 4.742307,0 7.583382,2.55746 7.583382,6.92332 0,4.28491 -2.841075,6.83297 -7.583382,6.83297 -4.776924,0 -7.63972,-2.54805 -7.63972,-6.83297 0,-4.36586 2.857027,-6.92332 7.63972,-6.92332 z"
       id="Shape"
       style="fill:#7083a0;fill-opacity:1;fill-rule:nonzero" />
  </g>
  <metadata
     id="metadata7096">
    <rdf:RDF>
      <cc:Work
         rdf:about="">
        <dc:title>Report (Blue-Gray)</dc:title>
      </cc:Work>
    </rdf:RDF>
  </metadata>
</svg>
