<svg xmlns="http://www.w3.org/2000/svg" width="18" height="16" viewBox="0 0 18 16">
  <path fill="white" fill-rule="evenodd" d="M9 0c-.57569885 0-1.06887817.35250854-1.27779388.85461426L.20823669 13.87637329v.00134277C.07262421 14.097229.0005188 14.3503418 0 14.60870361 0 15.37710571.6199112 16 1.38461304 16c.03249359-.00021362.0649643-.0015564.0973587-.00408936L1.48467254 16h15.03065491l.0027008-.00543213c.03237916.0029602.06484986.00476074.09735871.00543213C17.38008881 16 18 15.37710571 18 14.60870361c-.00026703-.25881958-.07238007-.51245117-.2082367-.73233032l-.01081085-.01904297-.0013504-.00134277L10.27779388.85461425C10.06887818.35250856 9.57569885 0 9 0zm.8396988 5.81521606l-.1392746 4.50271607H8.29958343l-.1392746-4.50271607h1.67938995zm.0730133 6.7119751c0-.52520752-.34093476-.83288574-.9100113-.83288574-.5739212 0-.9167633.30767822-.9167633.83288574 0 .51547241.34353638.82199097.9167633.82199097.56907654 0 .9100113-.30651856.9100113-.82199097z"/>
</svg>
