<svg width="21" height="20" viewBox="0 0 21 20" fill="none" xmlns="http://www.w3.org/2000/svg">
  <path fill-rule="evenodd" clip-rule="evenodd" d="M7.72221 0.863166C7.93112 0.356029 8.4243 0 9 0C9.5757 0 10.0689 0.356029 10.2778 0.863166L14.8909 8.93738L15.2703 9.60159C15.2703 9.60159 12.8401 10.5183 12.0049 11.1531C11.6146 11.4497 11.2797 11.772 11 12.12C9.68203 13.7601 10 16.16 10 16.16H9L1.48197 16.1559C1.44958 16.1584 1.4171 16.1598 1.38462 16.16C0.619913 16.16 0 15.5309 0 14.7548C0.000520725 14.4938 0.0726245 14.2382 0.208233 14.0151L7.72221 0.863166ZM9.83954 5.87457H8.16016L8.29943 10.4223H9.70027L9.83954 5.87457ZM9.0027 11.8123C9.57178 11.8123 9.91271 12.123 9.91271 12.6535C9.91271 13.1741 9.57178 13.4837 9.0027 13.4837C8.42947 13.4837 8.08594 13.1741 8.08594 12.6535C8.08594 12.123 8.42878 11.8123 9.0027 11.8123ZM15.8147 10.8519C13.3636 10.8519 11.3703 12.7455 11.3703 15.0741C11.3703 17.4026 13.3636 19.2963 15.8147 19.2963C16.7732 19.2963 17.6589 19.0034 18.3855 18.5115L19.7353 19.7938C19.8798 19.9311 20.0694 20 20.2591 20C20.4487 20 20.6383 19.9311 20.7828 19.7938C21.0724 19.5187 21.0724 19.0732 20.7828 18.7988L19.433 17.5164C19.9507 16.8261 20.2591 15.9847 20.2591 15.0741C20.2591 12.7455 18.2657 10.8519 15.8147 10.8519ZM15.8147 12.2593C17.4487 12.2593 18.7776 13.5217 18.7776 15.0741C18.7776 16.6264 17.4487 17.8889 15.8147 17.8889C14.1806 17.8889 12.8517 16.6264 12.8517 15.0741C12.8517 13.5217 14.1806 12.2593 15.8147 12.2593Z" fill="#FFFFFF"/>
</svg>
