<?xml version="1.0" encoding="UTF-8"?>
<svg width="150px" height="150px" viewBox="0 0 150 150" version="1.1" xmlns="http://www.w3.org/2000/svg" xmlns:xlink="http://www.w3.org/1999/xlink">
    <!-- Generator: Sketch 53.2 (72643) - https://sketchapp.com -->
    <title>Report (White)</title>
    <desc>Created with Sketch.</desc>
    <g id="Report-(White)" stroke="none" stroke-width="1" fill="none" fill-rule="evenodd">
        <g id="icons8-error" transform="translate(0.000000, 9.000000)" fill="#FFFFFF" fill-rule="nonzero">
            <path d="M75,0 C70.2024923,0 66.0926712,2.93018545 64.3517135,7.10402499 L1.73527615,115.347234 L1.73527615,115.358527 C0.605204106,117.183167 0.00433937704,119.28716 0,121.434783 C1.28102657e-15,127.822076 5.16594519,133 11.5384615,133 C11.8092071,132.998251 12.0798073,132.98695 12.3497596,132.96612 L12.3722954,133 L75,133 L137.627706,133 L137.65024,132.954826 C137.92006,132.979427 138.190661,132.994494 138.461538,133 C144.834055,133 150,127.822076 150,121.434783 C149.997754,119.28332 149.39681,117.175136 148.264725,115.347234 L148.174581,115.189114 C148.170828,115.185347 148.167072,115.181583 148.163313,115.177821 L85.6482865,7.10402499 C83.9073288,2.93018545 79.7975077,0 75,0 Z M68.0025519,48.3389946 L81.9974481,48.3389946 L80.8368404,85.7678314 L69.1631596,85.7678314 L68.0025519,48.3389946 Z M75.0225346,97.2088153 C79.7648423,97.2088153 82.6059173,99.7662665 82.6059173,104.13213 C82.6059173,108.417043 79.7648423,110.965098 75.0225346,110.965098 C70.2456115,110.965098 67.3828154,108.417049 67.3828154,104.13213 C67.3828154,99.7662665 70.2398423,97.2088153 75.0225346,97.2088153 Z" id="Shape"></path>
        </g>
    </g>
</svg>