<?xml version="1.0" encoding="UTF-8"?>
<svg width="24px" height="24px" viewBox="0 0 24 24" version="1.1" xmlns="http://www.w3.org/2000/svg">
    <title>Shape</title>
    <g id="Web" stroke="none" stroke-width="1" fill="none" fill-rule="evenodd">
        <g id="Student" transform="translate(-836.000000, -42.000000)" fill="#5352E4" fill-rule="nonzero">
            <g id="icons8-cancel" transform="translate(824.000000, 30.000000)">
                <path d="M34.8701363,12.0004801 C34.5850418,12.0089749 34.3144532,12.1281246 34.1156963,12.3326869 L27.2099981,19.2383019 L27.2099981,14.2059044 C27.2140599,13.9092893 27.0978727,13.6236631 26.8879102,13.4141068 C26.6779476,13.2045506 26.3920948,13.0889148 26.0954845,13.0935475 C25.4902687,13.1030079 25.0069755,13.6006788 25.0152636,14.2059044 L25.0152636,21.7202073 C24.9562715,22.0703776 25.0703577,22.4274495 25.3214576,22.6785463 C25.5725575,22.9296431 25.9296336,23.0437279 26.2798082,22.9847366 L33.7942017,22.9847366 C34.1899517,22.9903334 34.5580586,22.7824116 34.7575669,22.4405885 C34.9570753,22.0987654 34.9570753,21.6759997 34.7575669,21.3341766 C34.5580586,20.9923535 34.1899517,20.7844317 33.7942017,20.7900286 L28.7617435,20.7900286 L35.6674416,13.884414 C35.9919994,13.5689342 36.0895865,13.0865653 35.9131801,12.6697389 C35.7367738,12.2529125 35.3225627,11.987138 34.8701363,12.0004801 Z M21.8708368,25.0004579 C21.8299462,25.0017503 21.7891598,25.005328 21.7486687,25.0111741 L14.2106697,25.0111741 C13.8149181,25.0055776 13.4468099,25.2134873 13.2473008,25.5552904 C13.0477917,25.8970936 13.0477917,26.3198346 13.2473008,26.6616378 C13.4468099,27.003441 13.8149181,27.2113506 14.2106697,27.2057541 L19.2431469,27.2057541 L12.3374224,34.1109663 C12.0507475,34.3861855 11.9352683,34.7948701 12.0355212,35.1794047 C12.1357741,35.5639393 12.4360933,35.8642362 12.8206565,35.9644815 C13.2052196,36.0647268 13.6139345,35.9492561 13.8891741,35.6626024 L20.7948982,28.7573903 L20.7948982,33.7894943 C20.7893012,34.1852165 20.9972263,34.5532974 21.3390549,34.7527917 C21.6808834,34.952286 22.1036558,34.952286 22.4454843,34.7527917 C22.7873128,34.5532974 22.9952379,34.1852165 22.989641,33.7894943 L22.989641,26.2477684 C23.033876,25.9280053 22.93507,25.6049865 22.719518,25.364676 C22.5039659,25.1243656 22.1935341,24.9911414 21.8708368,25.0004579 L21.8708368,25.0004579 Z" id="Shape"></path>
            </g>
        </g>
    </g>
</svg>
