<?xml version="1.0" encoding="UTF-8"?>
<svg width="24px" height="24px" viewBox="0 0 24 24" version="1.1" xmlns="http://www.w3.org/2000/svg">
    <title>Shape</title>
    <g id="Web" stroke="none" stroke-width="1" fill="none" fill-rule="evenodd">
        <g id="Student" transform="translate(-597.000000, -104.000000)" fill="#5352E4" fill-rule="nonzero">
            <g id="icons8-cancel" transform="translate(585.000000, 92.000000)">
                <path d="M21.8701363,25.0004801 C21.5850418,25.0089749 21.3144532,25.1281246 21.1156963,25.3326869 L14.2099981,32.2383019 L14.2099981,27.2059044 C14.2140599,26.9092893 14.0978727,26.6236631 13.8879102,26.4141068 C13.6779476,26.2045506 13.3920948,26.0889148 13.0954845,26.0935475 C12.4902687,26.1030079 12.0069755,26.6006788 12.0152636,27.2059044 L12.0152636,34.7202073 C11.9562715,35.0703776 12.0703577,35.4274495 12.3214576,35.6785463 C12.5725575,35.9296431 12.9296336,36.0437279 13.2798082,35.9847366 L20.7942017,35.9847366 C21.1899517,35.9903334 21.5580586,35.7824116 21.7575669,35.4405885 C21.9570753,35.0987654 21.9570753,34.6759997 21.7575669,34.3341766 C21.5580586,33.9923535 21.1899517,33.7844317 20.7942017,33.7900286 L15.7617435,33.7900286 L22.6674416,26.884414 C22.9919994,26.5689342 23.0895865,26.0865653 22.9131801,25.6697389 C22.7367738,25.2529125 22.3225627,24.987138 21.8701363,25.0004801 Z M34.8708368,12.0004579 C34.8299462,12.0017503 34.7891598,12.005328 34.7486687,12.0111741 L27.2106697,12.0111741 C26.8149181,12.0055776 26.4468099,12.2134873 26.2473008,12.5552904 C26.0477917,12.8970936 26.0477917,13.3198346 26.2473008,13.6616378 C26.4468099,14.003441 26.8149181,14.2113506 27.2106697,14.2057541 L32.2431469,14.2057541 L25.3374224,21.1109663 C25.0507475,21.3861855 24.9352683,21.7948701 25.0355212,22.1794047 C25.1357741,22.5639393 25.4360933,22.8642362 25.8206565,22.9644815 C26.2052196,23.0647268 26.6139345,22.9492561 26.8891741,22.6626024 L33.7948982,15.7573903 L33.7948982,20.7894943 C33.7893012,21.1852165 33.9972263,21.5532974 34.3390549,21.7527917 C34.6808834,21.952286 35.1036558,21.952286 35.4454843,21.7527917 C35.7873128,21.5532974 35.9952379,21.1852165 35.989641,20.7894943 L35.989641,13.2477684 C36.033876,12.9280053 35.93507,12.6049865 35.719518,12.364676 C35.5039659,12.1243656 35.1935341,11.9911414 34.8708368,12.0004579 L34.8708368,12.0004579 Z" id="Shape"></path>
            </g>
        </g>
    </g>
</svg>
