<svg width="35" height="30" viewBox="0 0 35 30" fill="none" xmlns="http://www.w3.org/2000/svg">
<path d="M20.6016 0.302395C18.6651 0.331409 16.2611 0.629888 13.2737 1.2895C1.32396 3.92797 0.264013 7.85883 0.965747 11.0369C1.18995 12.054 1.60985 12.6999 1.99491 13.1027C2.39011 13.5143 3.00104 13.6221 3.50898 13.3624C4.77691 12.7126 7.51057 11.3119 8.77851 10.6633C9.19524 10.4505 9.45849 10.0298 9.47369 9.56242L9.54543 7.19484C9.5619 6.66538 9.89494 6.20447 10.394 6.02713C11.2579 5.72187 12.6831 5.25134 14.0802 4.94354C15.4773 4.63574 16.9682 4.46193 17.8802 4.37453C18.4071 4.32386 18.9051 4.6034 19.1419 5.07713L20.2032 7.19237C20.4135 7.61037 20.8343 7.88219 21.3017 7.89992L27.2095 8.12752C27.7808 8.14906 28.295 7.79388 28.4786 7.25174C28.6572 6.72481 28.7647 5.96309 28.5405 4.94849C28.0142 2.56494 26.411 0.215351 20.6016 0.302395ZM28.6667 10.4333C28.3307 10.4333 28.0085 10.5667 27.771 10.8043C27.5334 11.0418 27.4 11.364 27.4 11.6999C27.4 12.0359 27.5334 12.358 27.771 12.5956C28.0085 12.8331 28.3307 12.9666 28.6667 12.9666C29.0026 12.9666 29.3248 12.8331 29.5623 12.5956C29.7999 12.358 29.9333 12.0359 29.9333 11.6999C29.9333 11.364 29.7999 11.0418 29.5623 10.8043C29.3248 10.5667 29.0026 10.4333 28.6667 10.4333ZM13.4469 11.6826C13.1114 11.6878 12.7916 11.826 12.5579 12.0667C12.3241 12.3074 12.1954 12.6311 12.2 12.9666V14.2333C12.2 14.2349 12.2 14.2366 12.2 14.2382C11.3612 14.2531 10.5506 14.5402 9.89426 15.0645L6.16601 18.0456C5.15901 18.8512 4.49789 20.0097 4.31549 21.2865L3.51392 26.8999H3.33333C3.16548 26.8975 2.99883 26.9286 2.84307 26.9911C2.68731 27.0537 2.54554 27.1467 2.42601 27.2645C2.30647 27.3824 2.21155 27.5228 2.14677 27.6777C2.08198 27.8325 2.04862 27.9987 2.04862 28.1666C2.04862 28.3345 2.08198 28.5006 2.14677 28.6555C2.21155 28.8104 2.30647 28.9508 2.42601 29.0687C2.54554 29.1865 2.68731 29.2794 2.84307 29.342C2.99883 29.4046 3.16548 29.4356 3.33333 29.4333H28.6667C28.8345 29.4356 29.0012 29.4046 29.1569 29.342C29.3127 29.2794 29.4544 29.1865 29.574 29.0687C29.6935 28.9508 29.7884 28.8104 29.8532 28.6555C29.918 28.5006 29.9514 28.3345 29.9514 28.1666C29.9514 27.9987 29.918 27.8325 29.8532 27.6777C29.7884 27.5228 29.6935 27.3824 29.574 27.2645C29.4544 27.1467 29.3127 27.0537 29.1569 26.9911C29.0012 26.9286 28.8345 26.8975 28.6667 26.8999H28.4861L27.6845 21.2865C27.5021 20.011 26.841 18.8512 25.834 18.0456L22.1082 15.0645C21.4519 14.5402 20.6388 14.2531 19.8 14.2382C19.8 14.2366 19.8 14.2349 19.8 14.2333V12.9666C19.8023 12.7971 19.7706 12.6289 19.7067 12.4719C19.6429 12.3149 19.5482 12.1723 19.4282 12.0526C19.3083 11.9329 19.1655 11.8385 19.0084 11.7749C18.8513 11.7113 18.683 11.68 18.5135 11.6826C18.178 11.6878 17.8583 11.826 17.6245 12.0667C17.3908 12.3074 17.2621 12.6311 17.2667 12.9666V14.2333H14.7333V12.9666C14.7356 12.7971 14.7039 12.6289 14.6401 12.4719C14.5762 12.3149 14.4815 12.1723 14.3615 12.0526C14.2416 11.9329 14.0988 11.8385 13.9417 11.7749C13.7846 11.7113 13.6163 11.68 13.4469 11.6826ZM33.7333 11.6999C33.3974 11.6999 33.0752 11.8334 32.8377 12.0709C32.6001 12.3085 32.4667 12.6306 32.4667 12.9666C32.4667 13.3025 32.6001 13.6247 32.8377 13.8623C33.0752 14.0998 33.3974 14.2333 33.7333 14.2333C34.0693 14.2333 34.3914 14.0998 34.629 13.8623C34.8665 13.6247 35 13.3025 35 12.9666C35 12.6306 34.8665 12.3085 34.629 12.0709C34.3914 11.8334 34.0693 11.6999 33.7333 11.6999ZM29.9333 15.4999C29.5974 15.4999 29.2752 15.6334 29.0377 15.8709C28.8001 16.1085 28.6667 16.4306 28.6667 16.7666C28.6667 17.1025 28.8001 17.4247 29.0377 17.6623C29.2752 17.8998 29.5974 18.0333 29.9333 18.0333C30.2693 18.0333 30.5914 17.8998 30.829 17.6623C31.0665 17.4247 31.2 17.1025 31.2 16.7666C31.2 16.4306 31.0665 16.1085 30.829 15.8709C30.5914 15.6334 30.2693 15.4999 29.9333 15.4999ZM13.4667 18.0333C14.1659 18.0333 14.7333 18.6007 14.7333 19.2999C14.7333 19.9991 14.1659 20.5666 13.4667 20.5666C12.7675 20.5666 12.2 19.9991 12.2 19.2999C12.2 18.6007 12.7675 18.0333 13.4667 18.0333ZM18.5333 18.0333C19.2325 18.0333 19.8 18.6007 19.8 19.2999C19.8 19.9991 19.2325 20.5666 18.5333 20.5666C17.8341 20.5666 17.2667 19.9991 17.2667 19.2999C17.2667 18.6007 17.8341 18.0333 18.5333 18.0333ZM33.7333 18.0333C33.3974 18.0333 33.0752 18.1667 32.8377 18.4043C32.6001 18.6418 32.4667 18.964 32.4667 19.2999C32.4667 19.6359 32.6001 19.958 32.8377 20.1956C33.0752 20.4331 33.3974 20.5666 33.7333 20.5666C34.0693 20.5666 34.3914 20.4331 34.629 20.1956C34.8665 19.958 35 19.6359 35 19.2999C35 18.964 34.8665 18.6418 34.629 18.4043C34.3914 18.1667 34.0693 18.0333 33.7333 18.0333ZM13.4667 23.0999C14.1659 23.0999 14.7333 23.6674 14.7333 24.3666C14.7333 25.0658 14.1659 25.6333 13.4667 25.6333C12.7675 25.6333 12.2 25.0658 12.2 24.3666C12.2 23.6674 12.7675 23.0999 13.4667 23.0999ZM18.5333 23.0999C19.2325 23.0999 19.8 23.6674 19.8 24.3666C19.8 25.0658 19.2325 25.6333 18.5333 25.6333C17.8341 25.6333 17.2667 25.0658 17.2667 24.3666C17.2667 23.6674 17.8341 23.0999 18.5333 23.0999Z" fill="#1F195E"/>
</svg>
