<svg width="21" height="17" viewBox="0 0 21 17" fill="none" xmlns="http://www.w3.org/2000/svg">
  <path fill-rule="evenodd" clip-rule="evenodd" d="M2.3085 0C1.03355 0 0 1.03355 0 2.3085C0 3.58345 1.03355 4.617 2.3085 4.617C3.58345 4.617 4.617 3.58345 4.617 2.3085C4.617 1.03355 3.58345 0 2.3085 0ZM6.156 0.7695V2.3085H15.39V6.17058C15.517 6.16092 15.6453 6.156 15.7747 6.156C16.172 6.156 16.5585 6.20232 16.929 6.28984V1.539C16.929 1.11403 16.5845 0.769543 16.1595 0.7695H6.156ZM10.9068 12.312C10.8193 11.9415 10.773 11.555 10.773 11.1578C10.773 11.0283 10.7779 10.9 10.7876 10.773H6.156V11.4132C6.14227 11.4963 6.14227 11.5811 6.156 11.6642V12.312H10.9068ZM0 7.695C0 6.8447 0.688703 6.156 1.539 6.156H3.8475H6.156H9.234C9.51151 6.15208 9.76963 6.29788 9.90953 6.53757C10.0494 6.77727 10.0494 7.07373 9.90953 7.31343C9.76963 7.55312 9.51151 7.69893 9.234 7.695H6.156H5.3865C4.96174 7.695 4.617 8.03974 4.617 8.4645V12.312H0V7.695ZM1.539 13.851C0.689034 13.851 0 14.54 0 15.39C0 16.24 0.689034 16.929 1.539 16.929C2.38897 16.929 3.078 16.24 3.078 15.39C3.078 14.54 2.38897 13.851 1.539 13.851ZM9.234 15.39C9.234 14.54 9.92303 13.851 10.773 13.851C11.623 13.851 12.312 14.54 12.312 15.39C12.312 16.24 11.623 16.929 10.773 16.929C9.92303 16.929 9.234 16.24 9.234 15.39ZM6.156 13.851C5.30603 13.851 4.617 14.54 4.617 15.39C4.617 16.24 5.30603 16.929 6.156 16.929C7.00597 16.929 7.695 16.24 7.695 15.39C7.695 14.54 7.00597 13.851 6.156 13.851Z" fill="#FFFFFF"/>
  <path fill-rule="evenodd" clip-rule="evenodd" d="M11.5425 11.158C11.5425 8.82077 13.4375 6.92578 15.7747 6.92578C18.112 6.92578 20.007 8.82077 20.007 11.158C20.007 13.4953 18.112 15.3903 15.7747 15.3903C13.4375 15.3903 11.5425 13.4953 11.5425 11.158ZM15.4739 13.0156L18.1402 10.3493C18.2781 10.2114 18.2781 9.98852 18.1402 9.85062C18.0023 9.71272 17.7794 9.71272 17.6415 9.85062L15.2245 12.2676L14.2561 11.2991C14.1182 11.1612 13.8953 11.1612 13.7574 11.2991C13.6195 11.437 13.6195 11.6599 13.7574 11.7978L14.9752 13.0156C15.0411 13.0819 15.1311 13.119 15.2245 13.119C15.318 13.119 15.4076 13.0819 15.4739 13.0156Z" fill="#FFFFFF"/>
</svg>
