<?xml version="1.0" encoding="UTF-8"?>
<svg width="150px" height="150px" viewBox="0 0 150 150" version="1.1" xmlns="http://www.w3.org/2000/svg" xmlns:xlink="http://www.w3.org/1999/xlink">
    <!-- Generator: Sketch 53.2 (72643) - https://sketchapp.com -->
    <title>Room (Purple)</title>
    <desc>Created with Sketch.</desc>
    <g id="Room-(Purple)" stroke="none" stroke-width="1" fill="none" fill-rule="evenodd">
        <g id="icons8-classroom" transform="translate(3.000000, 6.000000)" fill="#6651F1" fill-rule="nonzero">
            <path d="M18.770985,5.571301e-15 C8.40405623,0 0,8.42518698 0,18.8181818 C0,29.2111767 8.40405623,37.6363636 18.770985,37.6363636 C29.1379137,37.6363636 37.54197,29.2111767 37.54197,18.8181818 C37.54197,8.42518698 29.1379137,0 18.770985,0 L18.770985,5.571301e-15 Z M50.0559599,6.27272727 L50.0559599,18.8181818 L125.1399,18.8181818 L125.1399,87.8181818 L50.0559599,87.8181818 L50.0559599,93.0372854 C49.9442785,93.7146862 49.9442785,94.4058725 50.0559599,95.0832734 L50.0559599,100.363636 L131.396895,100.363636 L137.65389,100.363636 C139.910387,100.395629 142.009267,99.2071004 143.146829,97.2531612 C144.28439,95.299222 144.28439,92.8825962 143.146829,90.928657 C142.009267,88.9747178 139.910387,87.7861891 137.65389,87.8181818 L137.65389,12.5454545 C137.653544,9.08126641 134.852395,6.27307364 131.396895,6.27272727 L50.0559599,6.27272727 Z M12.51399,50.1818182 C5.60001052,50.1818182 0,55.7959091 0,62.7272727 L0,100.363636 L37.54197,100.363636 L37.54197,69 C37.54197,65.5374545 40.3451037,62.7272727 43.7989649,62.7272727 L50.0559599,62.7272727 L75.0839399,62.7272727 C77.340437,62.7592655 79.4393175,61.5707368 80.576879,59.6167976 C81.7144404,57.6628584 81.7144404,55.2462325 80.576879,53.2922933 C79.4393175,51.3383541 77.340437,50.1498255 75.0839399,50.1818182 L50.0559599,50.1818182 L31.284975,50.1818182 L12.51399,50.1818182 Z M12.51399,112.909091 C5.60270416,112.909091 0,118.525882 0,125.454545 C0,132.383209 5.60270416,138 12.51399,138 C19.4252758,138 25.02798,132.383209 25.02798,125.454545 C25.02798,118.525882 19.4252758,112.909091 12.51399,112.909091 Z M50.0559599,112.909091 C43.1446741,112.909091 37.54197,118.525882 37.54197,125.454545 C37.54197,132.383209 43.1446741,138 50.0559599,138 C56.9672458,138 62.5699499,132.383209 62.5699499,125.454545 C62.5699499,118.525882 56.9672458,112.909091 50.0559599,112.909091 Z M87.5979299,112.909091 C80.6866441,112.909091 75.0839399,118.525882 75.0839399,125.454545 C75.0839399,132.383209 80.6866441,138 87.5979299,138 C94.5092157,138 100.11192,132.383209 100.11192,125.454545 C100.11192,118.525882 94.5092157,112.909091 87.5979299,112.909091 Z M125.1399,112.909091 C118.228614,112.909091 112.62591,118.525882 112.62591,125.454545 C112.62591,132.383209 118.228614,138 125.1399,138 C132.051186,138 137.65389,132.383209 137.65389,125.454545 C137.65389,118.525882 132.051186,112.909091 125.1399,112.909091 Z" id="Shape"></path>
        </g>
    </g>
</svg>