<?xml version="1.0" encoding="utf-8"?>
<svg version="1.1" xmlns="http://www.w3.org/2000/svg" xmlns:xlink="http://www.w3.org/1999/xlink" height="84" width="84">
  <defs>
    <path id="path-1" opacity="1" fill-rule="evenodd" d="M42,0 C18.805496215820312,0 0,18.805496215820312 0,42 C0,65.19450378417969 18.805496215820312,84 42,84 C65.19451904296875,84 84,65.19450378417969 84,42 C84,18.805496215820312 65.19451904296875,0 42,0 L39.9013671875,7.1025390625 L39.9013671875,10.5 L44.0986328125,10.5 L44.0986328125,7.1025390625 C48.94427490234375,7.390380859375 53.516754150390625,8.657119750976562 57.6337890625,10.71875 L55.931640625,13.671875 L59.568359375,15.7705078125 L61.2841796875,12.796875 C65.22122192382812,15.401824951171875 68.59817504882812,18.778778076171875 71.203125,22.7158203125 L68.2294921875,24.431640625 L70.328125,28.068359375 L73.28125,26.3662109375 C75.3428955078125,30.483245849609375 76.609619140625,35.05574035644531 76.8974609375,39.9013671875 L73.5,39.9013671875 L73.5,44.0986328125 L76.8974609375,44.0986328125 C76.609619140625,48.94425964355469 75.3428955078125,53.516754150390625 73.28125,57.6337890625 L70.328125,55.931640625 L68.2294921875,59.568359375 L71.203125,61.2841796875 C68.59817504882812,65.22122192382812 65.22122192382812,68.59817504882812 61.2841796875,71.203125 L59.568359375,68.2294921875 L55.931640625,70.328125 L57.6337890625,73.28125 C53.516754150390625,75.3428955078125 48.94427490234375,76.609619140625 44.0986328125,76.8974609375 L44.0986328125,73.5 L39.9013671875,73.5 L39.9013671875,76.8974609375 C35.05572509765625,76.609619140625 30.483245849609375,75.3428955078125 26.3662109375,73.28125 L28.068359375,70.328125 L24.431640625,68.2294921875 L22.7158203125,71.203125 C18.778778076171875,68.59817504882812 15.401824951171875,65.22122192382812 12.796875,61.2841796875 L15.7705078125,59.568359375 L13.671875,55.931640625 L10.71875,57.6337890625 C8.657119750976562,53.516754150390625 7.390380859375,48.94425964355469 7.1025390625,44.0986328125 L10.5,44.0986328125 L10.5,39.9013671875 L7.1025390625,39.9013671875 C7.390380859375,35.05574035644531 8.657119750976562,30.483245849609375 10.71875,26.3662109375 L13.671875,28.068359375 L15.7705078125,24.431640625 L12.796875,22.7158203125 C15.401824951171875,18.778778076171875 18.778778076171875,15.401824951171875 22.7158203125,12.796875 L24.431640625,15.7705078125 L28.068359375,13.671875 L26.3662109375,10.71875 C30.483245849609375,8.657119750976562 35.05572509765625,7.390380859375 39.9013671875,7.1025390625 L36.75,36.75 L63,21 L47.25,47.25 L21,63 L36.75,36.75 L42,0Z"/>
  </defs>
  <g opacity="1">
    <g opacity="1">
      <g opacity="1">
        <use xlink:href="#path-1" fill="rgb(127,135,157)" fill-opacity="1"/>
      </g>
    </g>
  </g>
</svg>