
<svg width="40px" height="40px" viewBox="0 0 40 40" version="1.1" xmlns="http://www.w3.org/2000/svg" xmlns:xlink="http://www.w3.org/1999/xlink">
  <g id="Email-notifications-(SP-1164)" stroke="none" stroke-width="1" fill="none" fill-rule="evenodd">
    <g id="Artboard" transform="translate(-4709.000000, -555.000000)" fill-rule="nonzero">
      <g id="Dropdown" transform="translate(4662.000000, 462.000000)">
        <g id="Group-8" transform="translate(28.000000, 73.500000)">
          <g id="icons8-safari-2" transform="translate(19.000000, 19.500000)">
            <path d="M40,20 C40,31.044 31.044,40 20,40 C8.956,40 0,31.044 0,20 C0,8.956 8.956,0 20,0 C31.044,0 40,8.956 40,20 Z" id="Path" fill="#CFD8DC"></path>
            <path d="M37,20 C37,29.391 29.391,37 20,37 C10.609,37 3,29.391 3,20 C3,10.609 10.609,3 20,3 C29.391,3 37,10.609 37,20 Z" id="Path" fill="#448AFF"></path>
            <polygon id="Path" fill="#FF3D00" points="17.898 17.898 22.101 22.101 31.3 8.699"></polygon>
            <polygon id="Path" fill="#BF360C" points="20 20 31.301 8.699 22.102 22.101"></polygon>
            <polygon id="Path" fill="#FFFFFF" points="17.898 17.898 8.699 31.3 22.101 22.101"></polygon>
            <polygon id="Path" fill="#BDBDBD" points="20 20 8.699 31.301 22.101 22.102"></polygon>
            <path d="M13.102,6.699 C13.7,6.398 14.301,6.101 14.899,5.898 L16.102,8.601 L14.301,9.398 L13.102,6.699 Z M32,21 L34.898,21 C34.898,20.699 35,20.301 35,20 C35,19.699 35,19.301 34.898,19 L32,19 L32,21 Z M8.699,10.102 L10.801,12.2 L12.199,10.802 L10.101,8.7 C9.602,9.199 9.199,9.602 8.699,10.102 Z M21,5.102 C20.699,5 20.301,5 20,5 C19.699,5 19.301,5 19,5.102 L19,8 L21,8 L21,5.102 Z M26.398,6.5 C25.8,6.199 25.199,6 24.5,5.801 L23.398,8.602 L25.3,9.301 L26.398,6.5 Z M8.5,16.5 L9.199,14.602 L6.5,13.5 C6.199,14.102 6,14.699 5.801,15.398 L8.5,16.5 Z M8,19 L5.102,19 C5,19.301 5,19.699 5,20 C5,20.301 5,20.699 5.102,21 L8,21 L8,19 Z M31.5,23.5 L30.801,25.398 L33.5,26.5 C33.801,25.898 34,25.301 34.199,24.602 L31.5,23.5 Z M34.102,14.898 C33.899,14.3 33.602,13.699 33.301,13.101 L30.602,14.3 L31.399,16.101 L34.102,14.898 Z M31.301,29.898 L29.199,27.8 L27.801,29.198 L29.899,31.3 C30.398,30.801 30.801,30.398 31.301,29.898 Z M9.398,25.699 L8.601,23.898 L5.898,25.101 C6.101,25.699 6.398,26.3 6.699,26.898 L9.398,25.699 Z M25.699,30.602 L23.898,31.399 L25.101,34.102 C25.699,33.899 26.3,33.602 26.898,33.301 L25.699,30.602 Z M16.5,31.5 L14.602,30.801 L13.5,33.5 C14.102,33.801 14.699,34 15.398,34.199 L16.5,31.5 Z M21,34.898 L21,32 L19,32 L19,34.898 C19.301,34.898 19.699,35 20,35 C20.301,35 20.699,35 21,34.898 Z" id="Shape" fill="#BBDEFB"></path>
          </g>
        </g>
      </g>
    </g>
  </g>
</svg>
