<svg width="32" height="32" viewBox="0 0 32 32" fill="none" xmlns="http://www.w3.org/2000/svg">
<path d="M3.19999 0.799805C1.87399 0.799805 0.799988 1.8738 0.799988 3.1998V24.7998C0.799988 26.1258 1.87399 27.1998 3.19999 27.1998H16.025C17.3787 30.0306 20.2637 31.9998 23.6 31.9998C28.225 31.9998 32 28.2248 32 23.5998C32 20.2635 30.0307 17.3785 27.2 16.0248V3.1998C27.2 1.8738 26.126 0.799805 24.8 0.799805H3.19999ZM3.19999 3.1998H24.8V7.9998H3.19999V3.1998ZM9.19999 11.5998C9.86239 11.5998 10.4 12.1374 10.4 12.7998C10.4 13.4622 9.86239 13.9998 9.19999 13.9998C8.53759 13.9998 7.99999 13.4622 7.99999 12.7998C7.99999 12.1374 8.53759 11.5998 9.19999 11.5998ZM14 11.5998C14.6624 11.5998 15.2 12.1374 15.2 12.7998C15.2 13.4622 14.6624 13.9998 14 13.9998C13.3376 13.9998 12.8 13.4622 12.8 12.7998C12.8 12.1374 13.3376 11.5998 14 11.5998ZM18.8 11.5998C19.4624 11.5998 20 12.1374 20 12.7998C20 13.4622 19.4624 13.9998 18.8 13.9998C18.1376 13.9998 17.6 13.4622 17.6 12.7998C17.6 12.1374 18.1376 11.5998 18.8 11.5998ZM23.6 11.5998C24.2624 11.5998 24.8 12.1374 24.8 12.7998C24.8 13.4622 24.2624 13.9998 23.6 13.9998C22.9376 13.9998 22.4 13.4622 22.4 12.7998C22.4 12.1374 22.9376 11.5998 23.6 11.5998ZM4.39999 16.3998C5.06239 16.3998 5.59999 16.9374 5.59999 17.5998C5.59999 18.2622 5.06239 18.7998 4.39999 18.7998C3.73759 18.7998 3.19999 18.2622 3.19999 17.5998C3.19999 16.9374 3.73759 16.3998 4.39999 16.3998ZM9.19999 16.3998C9.86239 16.3998 10.4 16.9374 10.4 17.5998C10.4 18.2622 9.86239 18.7998 9.19999 18.7998C8.53759 18.7998 7.99999 18.2622 7.99999 17.5998C7.99999 16.9374 8.53759 16.3998 9.19999 16.3998ZM14 16.3998C14.6624 16.3998 15.2 16.9374 15.2 17.5998C15.2 18.2622 14.6624 18.7998 14 18.7998C13.3376 18.7998 12.8 18.2622 12.8 17.5998C12.8 16.9374 13.3376 16.3998 14 16.3998ZM23.6 17.5998C26.9279 17.5998 29.6 20.2719 29.6 23.5998C29.6 26.9277 26.9279 29.5998 23.6 29.5998C20.2721 29.5998 17.6 26.9277 17.6 23.5998C17.6 20.2719 20.2721 17.5998 23.6 17.5998ZM23.5812 18.7834C23.2634 18.7884 22.9605 18.9192 22.739 19.1473C22.5176 19.3753 22.3956 19.6819 22.4 19.9998V24.0967L24.5422 26.2389C24.6528 26.354 24.7852 26.446 24.9317 26.5093C25.0783 26.5727 25.236 26.6061 25.3957 26.6077C25.5553 26.6094 25.7137 26.5791 25.8615 26.5188C26.0093 26.4584 26.1436 26.3692 26.2565 26.2563C26.3694 26.1434 26.4586 26.0091 26.5189 25.8613C26.5793 25.7135 26.6095 25.5551 26.6079 25.3955C26.6063 25.2358 26.5728 25.0781 26.5095 24.9316C26.4462 24.785 26.3542 24.6526 26.2391 24.542L24.8 23.1029V19.9998C24.8022 19.8393 24.7721 19.6799 24.7116 19.5312C24.6511 19.3824 24.5614 19.2474 24.4478 19.1339C24.3341 19.0205 24.1989 18.931 24.05 18.8708C23.9012 18.8106 23.7418 18.7809 23.5812 18.7834ZM4.39999 21.1998C5.06239 21.1998 5.59999 21.7374 5.59999 22.3998C5.59999 23.0622 5.06239 23.5998 4.39999 23.5998C3.73759 23.5998 3.19999 23.0622 3.19999 22.3998C3.19999 21.7374 3.73759 21.1998 4.39999 21.1998ZM9.19999 21.1998C9.86239 21.1998 10.4 21.7374 10.4 22.3998C10.4 23.0622 9.86239 23.5998 9.19999 23.5998C8.53759 23.5998 7.99999 23.0622 7.99999 22.3998C7.99999 21.7374 8.53759 21.1998 9.19999 21.1998ZM14 21.1998C14.6624 21.1998 15.2 21.7374 15.2 22.3998C15.2 23.0622 14.6624 23.5998 14 23.5998C13.3376 23.5998 12.8 23.0622 12.8 22.3998C12.8 21.7374 13.3376 21.1998 14 21.1998Z" fill="#1F195E"/>
</svg>
