<svg xmlns="http://www.w3.org/2000/svg" width="21" height="21" viewBox="0 0 21 21">
  <path fill="rgb(127,135,157)" fill-rule="evenodd" d="M0 1.61547852C0 .72290039.72286987 0 1.61538696 0h14.53845215c.8925171 0 1.61538696.7229004 1.61538696 1.61547852v6.88427734c-.5177307-.18334961-1.06027221-.31567383-1.6248474-.37719727.00082397-.01611328.00946044-.02954101.00946044-.0456543 0-.44580077-.36184692-.80761718-.80767822-.80761718-.44586182 0-.80770874.3618164-.80770874.80761719 0 .01611328.00787353.02954101.00946045.0456543-.63079834.06884765-1.23440552.2236328-1.8062439.44335937.1065979-.13720703.18139649-.30151367.18139649-.48901367 0-.44580078-.36184693-.8076172-.80767823-.8076172-.44586181 0-.80770874.36181642-.80770874.8076172 0 .42333984.32943726.76123047.7445984.79516601-.96923829.49414063-1.81137086 1.1977539-2.46881104 2.05395508C9.44613648 10.67626953 9.18991088 10.5 8.88461304 10.5c-.4458313 0-.80767823.3618164-.80767823.80761719 0 .4321289.3409729.77807617.76824952.79980468-.31903077.6381836-.54302979 1.32788086-.66256714 2.05566407-.06137085.11376953-.10568238.23730468-.10568238.37548828 0 .0571289.02023316.10668945.03152466.16088867-.01855468.21313477-.03152466.42871094-.03152466.64672852 0 .85131836.1538086 1.66381836.42276001 2.4230957H1.61538696C.72286987 17.7692871 0 17.0463867 0 16.15380859V1.61547852zm16.15383911 0H1.61538696V4.8461914h14.53845215V1.6154785zm-10.5 5.65380859c.44586182 0 .80770874.3618164.80770874.80761719 0 .44580078-.36184692.80786132-.80770874.80786132-.4458313 0-.80767822-.36206054-.80767822-.80786132s.36184692-.8076172.80767822-.8076172zm4.03848267.80761719c0-.44580078-.36184693-.8076172-.80770874-.8076172-.4458313 0-.80767823.36181642-.80767823.8076172s.36184693.80786132.80767823.80786132c.44586181 0 .80770874-.36206054.80770874-.80786132zm5.6538391 1.61547851c-3.12252807 0-5.6538391 2.53125-5.6538391 5.6538086C9.69232178 18.46875 12.2236328 21 15.34616088 21 18.46871949 21 21 18.46875 21 15.3461914c0-3.12255859-2.53128052-5.65380859-5.65383911-5.65380859zM3.23077394 11.3076172c0-.44580078-.36184693-.80761719-.80770874-.80761719-.4458313 0-.80767823.3618164-.80767823.80761719 0 .44580078.36184693.80786133.80767823.80786133.44586181 0 .80770874-.36206055.80770874-.80786133zM5.6538391 10.5c.44586182 0 .80770874.3618164.80770874.80761719 0 .44580078-.36184692.80786133-.80770874.80786133-.4458313 0-.80767822-.36206055-.80767822-.80786133 0-.44580078.36184692-.80761719.80767822-.80761719zm10.5 2.4230957c0-.4465332-.36184692-.80761718-.80767822-.80761718-.44586182 0-.80770874.36108398-.80770874.80761718v1.61547852h-1.61538696c-.4458313 0-.80767823.36108398-.80767823.80761719 0 .44677734.36184693.80786132.80767823.80786132h1.61538696v1.61523438c0 .44677734.36184692.80761719.80770874.80761719.4458313 0 .80767822-.36083985.80767822-.8076172v-1.61523437h1.61538696c.44586182 0 .80770874-.36108398.80770874-.80786132 0-.4465332-.36184692-.8076172-.80770874-.8076172h-1.61538696v-1.6154785zm-13.73077392.8076172c.44586181 0 .80770874.3618164.80770874.80761718 0 .44580078-.36184693.80786133-.80770874.80786133-.4458313 0-.80767823-.36206055-.80767823-.80786133 0-.44580078.36184693-.80761719.80767823-.80761719zm4.03848266.80761718c0-.44580078-.36184692-.80761719-.80770874-.80761719-.4458313 0-.80767822.3618164-.80767822.80761719 0 .44580078.36184692.80786133.80767822.80786133.44586182 0 .80770874-.36206055.80770874-.80786133z"/>
</svg>
