<svg width="18" height="21" viewBox="0 0 18 21" fill="none" xmlns="http://www.w3.org/2000/svg">
<path d="M9.79995 0.800781C9.35835 0.800781 8.99995 1.15918 8.99995 1.60078C8.99995 2.04238 9.35835 2.40078 9.79995 2.40078H12.2C12.6416 2.40078 13 2.04238 13 1.60078C13 1.15918 12.6416 0.800781 12.2 0.800781H9.79995ZM8.99995 3.20078C8.79535 3.20078 8.59073 3.27876 8.43433 3.43516L4.43433 7.43516C4.28393 7.58476 4.19995 7.78878 4.19995 8.00078H1.79995C0.915951 8.00078 0.199951 8.71678 0.199951 9.60078V19.2008C0.199951 20.0848 0.915951 20.8008 1.79995 20.8008H6.59995V17.6008C6.59995 16.2752 7.67435 15.2008 8.99995 15.2008C10.3256 15.2008 11.4 16.2752 11.4 17.6008V20.8008H16.2C17.084 20.8008 17.8 20.0848 17.8 19.2008V9.60078C17.8 8.71678 17.084 8.00078 16.2 8.00078H13.8C13.8 7.78878 13.716 7.58476 13.5656 7.43516L9.56558 3.43516C9.40918 3.27876 9.20455 3.20078 8.99995 3.20078ZM8.99995 7.20078C10.3256 7.20078 11.4 8.27518 11.4 9.60078C11.4 10.9264 10.3256 12.0008 8.99995 12.0008C7.67435 12.0008 6.59995 10.9264 6.59995 9.60078C6.59995 8.27518 7.67435 7.20078 8.99995 7.20078ZM2.59995 10.4008H4.19995V12.0008H2.59995V10.4008ZM13.8 10.4008H15.4V12.0008H13.8V10.4008ZM2.59995 13.6008H4.19995V15.2008H2.59995V13.6008ZM13.8 13.6008H15.4V15.2008H13.8V13.6008ZM2.59995 16.8008H4.19995V18.4008H2.59995V16.8008ZM13.8 16.8008H15.4V18.4008H13.8V16.8008Z" fill="url(#paint0_radial_296_1322)"/>
<defs>
<radialGradient id="paint0_radial_296_1322" cx="0" cy="0" r="1" gradientUnits="userSpaceOnUse" gradientTransform="translate(14.3565 16.1796) rotate(-121.385) scale(27.5019 26.1139)">
<stop stop-color="#5C4AE3"/>
<stop offset="0.507588" stop-color="#4B59E5"/>
<stop offset="1" stop-color="#336DE4"/>
</radialGradient>
</defs>
</svg>
