<?xml version="1.0" encoding="UTF-8"?>
<svg width="150px" height="150px" viewBox="0 0 150 150" version="1.1" xmlns="http://www.w3.org/2000/svg" xmlns:xlink="http://www.w3.org/1999/xlink">
    <!-- Generator: Sketch 53.2 (72643) - https://sketchapp.com -->
    <title>School (Navy)</title>
    <desc>Created with Sketch.</desc>
    <g id="School-(Navy)" stroke="none" stroke-width="1" fill="none" fill-rule="evenodd">
        <g id="icons8-school_building" transform="translate(9.000000, 0.000000)" fill="#1F195E" fill-rule="nonzero">
            <path d="M72,0 C68.688,0 66,2.688 66,6 C66,9.312 68.688,12 72,12 L90,12 C93.312,12 96,9.312 96,6 C96,2.688 93.312,0 90,0 L72,0 Z M66,18 C64.4655,18 62.930814,18.5848122 61.757814,19.7578128 L31.7578128,49.7578128 C30.6298122,50.8798128 30,52.41 30,54 L12,54 C5.37,54 0,59.37 0,66 L0,138 C0,144.63 5.37,150 12,150 L48,150 L48,126 C48,116.058 56.058,108 66,108 C75.942,108 84,116.058 84,126 L84,150 L120,150 C126.63,150 132,144.63 132,138 L132,66 C132,59.37 126.63,54 120,54 L102,54 C102,52.41 101.370186,50.8798128 100.242186,49.7578128 L70.242186,19.7578128 C69.069186,18.5848122 67.5345,18 66,18 Z M66,48 C75.942,48 84,56.058 84,66 C84,75.942 75.942,84 66,84 C56.058,84 48,75.942 48,66 C48,56.058 56.058,48 66,48 Z M18,72 L30,72 L30,84 L18,84 L18,72 Z M102,72 L114,72 L114,84 L102,84 L102,72 Z M18,96 L30,96 L30,108 L18,108 L18,96 Z M102,96 L114,96 L114,108 L102,108 L102,96 Z M18,120 L30,120 L30,132 L18,132 L18,120 Z M102,120 L114,120 L114,132 L102,132 L102,120 Z" id="Shape"></path>
        </g>
    </g>
</svg>