<?xml version="1.0" encoding="UTF-8"?>
<svg width="707px" height="488px" viewBox="0 0 380 488" version="1.1" xmlns="http://www.w3.org/2000/svg" xmlns:xlink="http://www.w3.org/1999/xlink">
  <!-- Generator: Sketch 53.2 (72643) - https://sketchapp.com -->
  <title>undraw_wall_post_83ul</title>
  <desc>Created with Sketch.</desc>
  <defs>
    <linearGradient x1="50.0005818%" y1="100%" x2="50.0005818%" y2="1.14327069e-15%" id="linearGradient-1">
      <stop stop-color="#808080" stop-opacity="0.25" offset="0%"></stop>
      <stop stop-color="#808080" stop-opacity="0.12" offset="54%"></stop>
      <stop stop-color="#808080" stop-opacity="0.1" offset="100%"></stop>
    </linearGradient>
    <linearGradient x1="50.0880863%" y1="99.9897113%" x2="50.0880863%" y2="-0.0330662392%" id="linearGradient-2">
      <stop stop-color="#808080" stop-opacity="0.25" offset="0%"></stop>
      <stop stop-color="#808080" stop-opacity="0.12" offset="54%"></stop>
      <stop stop-color="#808080" stop-opacity="0.1" offset="100%"></stop>
    </linearGradient>
    <linearGradient x1="49.9531835%" y1="100.017068%" x2="49.9531835%" y2="-0.034135518%" id="linearGradient-3">
      <stop stop-color="#808080" stop-opacity="0.25" offset="0%"></stop>
      <stop stop-color="#808080" stop-opacity="0.12" offset="54%"></stop>
      <stop stop-color="#808080" stop-opacity="0.1" offset="100%"></stop>
    </linearGradient>
    <linearGradient x1="50.0000117%" y1="99.9998312%" x2="50.0000117%" y2="-0.00256358421%" id="linearGradient-4">
      <stop stop-color="#5B2828" stop-opacity="0.25" offset="0%"></stop>
      <stop stop-color="#808080" stop-opacity="0.12" offset="54%"></stop>
      <stop stop-color="#808080" stop-opacity="0.1" offset="100%"></stop>
    </linearGradient>
    <linearGradient x1="50.0000117%" y1="99.9998312%" x2="50.0000117%" y2="-0.00256358421%" id="linearGradient-5">
      <stop stop-color="#5B2828" stop-opacity="0.25" offset="0%"></stop>
      <stop stop-color="#808080" stop-opacity="0.12" offset="54%"></stop>
      <stop stop-color="#808080" stop-opacity="0.1" offset="100%"></stop>
    </linearGradient>
  </defs>
  <style>
    #pencil {
    transform-origin: 125% 10%;
    animation: pencilRotate 2s ease forwards infinite;
    }
    @keyframes pencilRotate {
    0% {
    transform: rotate(2deg);
    }
    50% {
    transform: rotate(-2deg);

    }
    100% {
    transform: rotate(2deg);

    }
    }
  </style>
  <g id="Web---1.5" stroke="none" stroke-width="1" fill="none" fill-rule="evenodd">
    <g id="Getting-Started" transform="translate(0.000000, -126.000000)" fill-rule="nonzero">
      <g id="undraw_wall_post_83ul" transform="translate(-147.000000, 126.000000)">
        <g id="Group" opacity="0.1" transform="translate(0.000000, 36.000000)" fill="#00B476">
          <path d="M41.3448767,35.1848575 C47.6046027,46.070882 44.1372055,60.2012483 37.3374247,70.7560923 C30.5376438,81.3109362 20.8657534,89.6885753 13.3295342,99.7589145 C-1.65084932,119.850529 -5.52328767,151.576391 13.3663562,168.08635 C17.4351781,171.643474 22.4675068,174.458507 24.9468493,179.254491 C28.3712877,185.871967 25.8367123,193.84483 23.2530411,200.854817 L23.0382466,201.431316 C13.2743014,227.882822 27.6593973,257.198426 54.6191781,265.496336 C69.5381918,270.089932 83.0027397,277.53536 92.9692055,289.574383 C101.677589,300.098562 106.709918,313.082062 112.454137,325.470665 C122.837918,347.849878 136.241096,369.247815 154.762521,385.543121 C173.283945,401.838426 197.451397,412.638589 222.122082,411.749308 C278.47189,409.719294 319.964055,350.419593 376.25863,347.29791 C380.315178,347.070991 384.635616,347.224315 388.02937,349.456716 C392.816219,352.609064 394.282959,358.797232 396.29589,364.175848 C406.955836,392.651235 439.052274,405.775794 467.791781,415.748005 L521.79726,434.502632 C551.132055,444.683365 581.939726,455.017422 612.624658,450.301167 C643.309589,445.584912 673.270356,420.402931 671.93863,389.394627 C670.846247,363.924396 649.72274,341.508385 652.490521,316.160814 C654.40526,298.645047 667.532274,283.932049 669.729315,266.446947 C672.018411,248.250421 662.064219,230.777585 650.606466,216.450963 C617.638575,175.212863 570.653808,148.031533 524.798247,121.81308 C492.499288,103.34057 460.03463,84.794464 425.262466,71.5227137 C339.541041,38.8891723 245.326027,40.2936228 154.007671,31.3885482 C138.303123,29.8553053 121.886685,28.0522117 107.495452,21.1158209 C96.4488767,15.7924016 87.814137,3.48352782 75.693589,0.877014925 C66.4574247,-1.11006784 52.7964932,2.99289009 44.7324932,7.47609227 C30.034411,15.70654 34.0848219,22.5570692 41.3448767,35.1848575 Z" id="Path"></path>
        </g>
        <path d="M606.904231,4.35586134e-15 L114.095769,4.35586134e-15 C109.539024,0.0194587363 105.176924,1.84912589 101.970353,5.08596181 C98.7637827,8.32279774 96.9757946,12.7012668 97.0002476,17.2568785 L97.0002476,363.743121 C96.9757946,368.298733 98.7637827,372.677202 101.970353,375.914038 C105.176924,379.150874 109.539024,380.980541 114.095769,381 L606.904231,381 C611.460976,380.980541 615.823076,379.150874 619.029647,375.914038 C622.236217,372.677202 624.024205,368.298733 623.999752,363.743121 L623.999752,17.2568785 C624.024205,12.7012668 622.236217,8.32279774 619.029647,5.08596181 C615.823076,1.84912589 611.460976,0.0194587363 606.904231,4.35586134e-15 Z" id="Path" fill="url(#linearGradient-1)"></path>
        <path d="M621,36 L621,359.998286 C621,369.388074 613.402542,377 604.030603,377 L114.969397,377 C105.597458,377 98,369.388074 98,359.998286 L98,36 L621,36 Z" id="Path" fill="#F6F7F9"></path>
        <path d="M226,204 L226,377 L115.001874,377 C105.615167,377 98,369.281755 98,359.76544 L98,204 L226,204 Z" id="Path" fill="#DDE1EC"></path>
        <rect id="Rectangle" fill="#DDE1EC" x="265" y="77" width="213" height="6"></rect>
        <rect id="Rectangle" fill="#DDE1EC" x="265" y="120" width="128" height="6"></rect>
        <rect id="Rectangle" fill="#DDE1EC" x="422" y="120" width="43" height="6"></rect>
        <g id="Group" opacity="0.1" transform="translate(138.000000, 268.000000)" fill="#00B476">
          <rect id="Rectangle" x="0.117746479" y="0.024" width="43.6591549" height="5.85"></rect>
        </g>
        <rect id="Rectangle" fill="#DDE1EC" x="422" y="175" width="43" height="6"></rect>
        <rect id="Rectangle" fill="#DDE1EC" x="422" y="231" width="43" height="6"></rect>
        <rect id="Rectangle" fill="#DDE1EC" x="422" y="138" width="43" height="6"></rect>
        <rect id="Rectangle" fill="#DDE1EC" x="496" y="138" width="43" height="6"></rect>
        <rect id="Rectangle" fill="#DDE1EC" x="422" y="156" width="43" height="6"></rect>
        <rect id="Rectangle" fill="#DDE1EC" x="496" y="156" width="43" height="6"></rect>
        <rect id="Rectangle" fill="#DDE1EC" x="496" y="191" width="43" height="6"></rect>
        <rect id="Rectangle" fill="#DDE1EC" x="496" y="209" width="43" height="6"></rect>
        <rect id="Rectangle" fill="#DDE1EC" x="496" y="249" width="43" height="6"></rect>
        <rect id="Rectangle" fill="#DDE1EC" x="265" y="138" width="128" height="6"></rect>
        <rect id="Rectangle" fill="#DDE1EC" x="265" y="156" width="128" height="6"></rect>
        <rect id="Rectangle" fill="#DDE1EC" x="265" y="175" width="128" height="6"></rect>
        <rect id="Rectangle" fill="#DDE1EC" x="265" y="193" width="128" height="6"></rect>
        <rect id="Rectangle" fill="#DDE1EC" x="265" y="213" width="128" height="6"></rect>
        <rect id="Rectangle" fill="#DDE1EC" x="265" y="231" width="128" height="6"></rect>
        <rect id="Rectangle" fill="#DDE1EC" x="265" y="249" width="128" height="6"></rect>
        <rect id="Rectangle" fill="#00B476" x="98" y="36" width="128" height="170"></rect>
        <path d="M621,20.8390046 C620.99661,11.5380934 613.400145,3.99999939 604.030603,4 L114.969397,4 C105.597458,4 98,11.5418077 98,20.845099 L98,40 L621,40 L621,20.8390046 Z" id="Path" fill="#E8EAF1"></path>
        <circle id="Oval" fill="#FFFF00" cx="141" cy="20" r="7"></circle>
        <circle id="Oval" fill="#69F0AE" cx="163" cy="20" r="7"></circle>
        <path d="M199.999966,121.526079 C200.011613,130.117188 197.061146,138.4495 191.64612,145.117883 C191.442217,145.371292 191.238314,145.618521 191.028232,145.86575 L191.028232,145.86575 C190.987294,145.90777 190.950081,145.953266 190.917012,146.001726 C188.998587,148.222653 186.827455,150.211894 184.447724,151.929035 L184.13878,152.157721 C183.712438,152.460577 183.279916,152.775793 182.841215,153.035384 L182.53845,153.226986 L181.889668,153.628733 C181.793747,153.689434 181.694753,153.745135 181.593082,153.795612 C181.512612,153.853373 181.427931,153.905023 181.339748,153.95013 C180.3882,154.506395 179.405758,155.019394 178.398601,155.489129 C178.287381,155.550936 178.163803,155.600382 178.046405,155.656008 C177.929006,155.711635 177.79307,155.779623 177.657135,155.829068 C177.5212,155.878514 177.255508,156.008309 177.039247,156.088659 C174.881296,157.002432 172.640373,157.706163 170.34752,158.190103 C168.16207,158.658072 165.939067,158.929048 163.705224,158.999777 L163.365385,158.999777 L162.481805,158.999777 C159.53384,159.00995 156.594991,158.671788 153.726332,157.99232 L153.18877,157.862525 C151.928278,157.532887 150.692502,157.149682 149.481442,156.712911 C148.746155,156.44096 148.017047,156.144285 147.306476,155.829068 C147.127288,155.748719 146.95428,155.67455 146.775092,155.58802 L146.23753,155.346972 L145.767935,155.105924 L145.767935,155.105924 L145.273624,154.852515 L144.723704,154.562021 L144.105816,154.20972 L144.006954,154.154094 C141.373088,152.658994 138.929186,150.851463 136.728233,148.770688 C136.542867,148.591447 136.351321,148.418387 136.172134,148.226784 C135.992946,148.035182 135.782864,147.84358 135.597498,147.645797 C123.820165,135.51369 121.614496,116.998881 130.211903,102.438087 C138.80931,87.8772924 156.083703,80.8713144 172.390884,85.3315519 C188.698064,89.7917894 200.005358,104.615251 199.999966,121.526079 L199.999966,121.526079 Z" id="Path" fill="#FFFFFF"></path>
        <path d="M188.305109,133.958824 C188.228783,134.51518 188.109311,135.064538 187.947809,135.60177 C187.928501,135.68594 187.902164,135.768283 187.869082,135.847904 C187.869082,135.614076 187.82669,135.367942 187.814578,135.103348 L187.814578,135.103348 C187.6329,132.365105 187.475446,128.039297 188.02048,125.479502 C188.535235,123.07354 184.786611,123.805789 182.28551,125.959463 L182.28551,125.959463 C181.554534,126.56471 180.959794,127.322193 180.541401,128.180824 C180.486897,128.106984 180.432394,128.039297 180.371834,127.965457 C179.156162,126.435199 177.340778,125.524153 175.405968,125.473348 C171.454086,125.211196 167.718276,123.547357 164.850473,120.772185 C164.729355,120.273764 164.638516,119.781495 164.565845,119.283074 C164.565845,119.12924 164.517397,118.969252 164.499229,118.815419 C165.897849,117.544462 166.876928,115.866359 167.303127,114.009649 C167.303127,114.009649 167.303127,113.960422 167.303127,113.935809 C167.453985,113.265586 167.531166,112.58042 167.533253,111.892895 C167.533253,111.60984 167.533253,111.339093 167.502973,111.068345 C167.502973,110.969892 167.502973,110.865285 167.472693,110.766831 C167.442414,110.668377 167.472693,110.533003 167.424246,110.422243 C167.576244,110.353707 167.723891,110.275613 167.866329,110.188416 C168.727013,109.65088 169.410213,108.864559 169.828452,107.930134 L169.828452,107.880908 C169.979087,107.549227 170.108548,107.208036 170.216032,106.859451 C170.510864,105.859595 170.679758,104.825795 170.718674,103.782774 C170.718674,103.653553 170.718674,103.524333 170.718674,103.382806 C170.718674,102.576716 170.56122,101.567566 169.78606,101.401425 C168.762607,101.179905 168.017727,102.74901 166.982163,102.582869 C166.667686,102.505403 166.384335,102.331368 166.170667,102.084448 C165.468179,101.376812 164.995816,100.466115 164.293327,99.7523264 C163.19612,98.7188771 161.778115,98.1072921 160.284299,98.0232337 C158.802782,97.9404059 157.31733,98.0793157 155.875578,98.4355085 C155.07948,98.5705489 154.310378,98.8365825 153.598547,99.2231379 C152.88769,99.6183724 152.387913,100.315774 152.235961,101.124524 C152.219387,101.298463 152.219387,101.473621 152.235961,101.64756 C152.235961,101.906 152.235961,102.176748 152.235961,102.441342 C152.22826,102.554889 152.214106,102.667889 152.19357,102.779777 C151.975521,103.516483 151.469953,104.130255 150.794649,104.478103 C150.15272,104.865764 149.438119,105.136512 148.82647,105.579553 C147.853837,106.342688 147.181586,107.433846 146.930962,108.65623 C146.77203,109.339355 146.700785,110.040509 146.719005,110.742218 C146.710478,111.375614 146.744876,112.008855 146.821956,112.637451 C147.081124,114.751765 147.665582,116.811585 148.553953,118.741578 C148.794112,119.279786 149.081945,119.794686 149.413896,120.279917 C149.413896,120.279917 149.413896,120.279917 149.413896,120.279917 C149.498679,120.402984 149.583462,120.513744 149.674301,120.618351 C150.245483,121.268829 150.90397,121.834337 151.630368,122.298217 L152.048227,122.587425 C152.3334,122.835996 152.715959,122.936015 153.083792,122.858173 C153.198095,122.814775 153.304512,122.752393 153.398701,122.673572 C153.921241,122.173369 154.198505,121.463424 154.155693,120.735265 L154.155693,120.636812 C154.158615,120.671617 154.158615,120.706613 154.155693,120.741419 C154.158952,120.788536 154.158952,120.835828 154.155693,120.882946 L154.216252,120.882946 C154.232227,121.196557 154.232227,121.510798 154.216252,121.824409 C154.223198,121.95148 154.223198,122.078846 154.216252,122.205917 C154.216252,122.279757 154.216252,122.353597 154.216252,122.421284 L154.119357,122.507431 L154.119357,122.507431 C153.919511,122.679725 153.556155,122.98124 153.053512,123.381208 L153.053512,123.381208 C150.960933,125.0343 148.674495,126.41707 146.246642,127.497802 C143.54878,128.634721 141.49957,130.947496 140.669126,133.792684 C140.07093,135.855664 139.17937,137.818796 138.022682,139.61991 C137.731997,140.050645 136.932614,143.311923 136,146.659348 C136.181678,146.862408 136.375468,147.053162 136.563202,147.237763 C136.750936,147.422364 136.926558,147.600811 137.108236,147.779258 C139.265395,149.850821 141.660669,151.65035 144.242127,153.13883 L144.339022,153.19421 L144.944616,153.544951 L145.483594,153.834159 C145.483594,153.372658 145.423035,152.948076 145.392755,152.548108 C145.392755,152.308127 145.356419,152.080453 145.332196,151.858932 C145.471482,151.625105 145.592601,151.415891 145.707664,151.243597 C145.707664,151.422044 145.750055,151.618952 145.768223,151.858932 L145.768223,151.858932 C145.834838,152.474268 145.901453,153.23113 145.974125,154.098753 C145.974125,154.373603 145.994311,154.66076 146.034684,154.960223 C146.034684,154.658709 146.004404,154.344888 145.980181,154.098753 L146.440432,154.338734 L146.967298,154.578715 C147.136864,154.664862 147.30643,154.738702 147.488108,154.818696 C148.184541,155.132517 148.899141,155.434031 149.619797,155.698626 C150.794649,156.137565 152.005836,156.519073 153.253358,156.843149 L153.780225,156.97237 C156.594769,157.658081 159.479277,158.003015 162.373596,157.99998 L163.239595,157.99998 L163.572671,157.99998 C165.781058,157.924783 167.978223,157.646749 170.137305,157.169277 C172.384535,156.687479 174.580869,155.986864 176.695882,155.077137 C176.893709,154.995092 177.095574,154.908945 177.301475,154.818696 C177.434706,154.763316 177.555825,154.707935 177.682999,154.646402 C177.810174,154.584868 177.919181,154.541795 178.028188,154.480261 C177.422594,152.320434 177.095574,150.935929 177.095574,150.935929 L177.894957,148.849942 L177.991852,148.597654 L178.234089,147.951552 L178.234089,147.951552 C178.234089,148.031546 178.270425,148.111539 178.300705,148.191533 L178.300705,148.191533 C178.802414,149.969958 179.789198,151.56781 181.146994,152.800396 C181.246642,152.750142 181.343666,152.694688 181.437679,152.634255 L182.073552,152.234287 L182.370293,152.043533 C182.80632,151.754325 183.22418,151.471271 183.642039,151.169757 L183.944836,150.942083 C186.277215,149.232544 188.405147,147.25211 190.2854,145.041016 L190.394407,144.905642 L190.394407,144.905642 C190.600308,144.659508 190.800154,144.413373 191,144.161086 L188.305109,133.958824 Z M183.024334,136.764754 C183.044884,136.794002 183.06311,136.824866 183.078837,136.857054 L183.03039,136.813981 L183.024334,136.764754 Z" id="Shape" fill="url(#linearGradient-2)"></path>
        <path d="M184.956305,135.694316 L184.956305,135.743472 L185,135.786482 C184.987516,135.749616 184.968789,135.725038 184.956305,135.694316 Z M146.779026,154.127496 C146.716604,153.267281 146.654182,152.493088 146.598002,151.829493 C146.554307,151.362519 146.510612,150.9447 146.473159,150.600614 C146.469413,150.584437 146.469413,150.567637 146.473159,150.551459 C146.473159,150.465438 146.473159,150.385561 146.473159,150.305684 C145.871544,151.209694 145.37726,152.178648 145,153.193548 L145.099875,153.248848 L145.724095,153.599078 L146.27965,153.887865 L146.779026,154.139785 C146.779026,154.414235 146.799834,154.700973 146.841448,155 C146.810237,154.705069 146.797753,154.422427 146.779026,154.145929 L146.779026,154.127496 Z M155.087391,119 L155.087391,119 L155.087391,119 L155.118602,119.0553 L155.118602,119.0553 C155.120831,119.069552 155.120831,119.084057 155.118602,119.09831 C155.113152,119.070057 155.102579,119.043 155.087391,119.018433 L155.087391,119 Z" id="Shape" fill="url(#linearGradient-3)"></path>
        <path d="M165.065906,113 C165.065906,113 162.877911,123.382862 168.89035,128.868751 C174.902789,134.354641 154.6896,138.649894 151.125775,134.060182 C147.561951,129.470471 153.598633,127.127606 153.598633,127.127606 C153.598633,127.127606 156.629096,124.528689 153.598633,116.744744 L165.065906,113 Z" id="Path" fill="#E0A17E"></path>
        <path d="M171,157.199431 C168.863166,157.662098 166.689616,157.930005 164.505466,157.999932 L164.173188,157.999932 L163.309264,157.999932 C160.428419,158.005505 157.556996,157.667074 154.754603,156.991667 L154.228999,156.863342 C152.996548,156.537438 151.788262,156.158575 150.604143,155.726752 L150,146.560703 L152.621979,133.86878 L154.162543,126.389284 L154.597526,124.299424 L155.03855,124.910494 L155.135213,125.04493 L155.256041,125.203808 L160.089183,131.711703 L165.037112,126.322066 L165.290852,126.040974 L166.650173,124.556074 L167.163694,124 L167.405351,125.888206 L168.275316,132.677193 L169.888377,145.198017 L171,157.199431 Z" id="Path" fill="#F0F1F5"></path>
        <path d="M183,151.242738 C182.596527,151.542382 182.187207,151.854255 181.772039,152.111092 L181.485515,152.300662 L180.871534,152.698148 C180.780759,152.758206 180.687075,152.813316 180.590858,152.863258 C180.514705,152.920406 180.434566,152.971509 180.351113,153.016137 C179.062787,151.867032 178.095084,150.375426 177.550193,148.698828 C177.481403,148.485958 177.422855,148.269618 177.37477,148.05062 C177.371948,148.01603 177.371948,147.981252 177.37477,147.946662 L177.041466,148.863937 L176.018165,151.511806 C176.018165,151.511806 176.322232,152.808222 176.866043,154.862918 C176.675027,154.956684 176.480112,155.042297 176.2813,155.119755 C174.239106,156.023837 172.11839,156.720105 169.94853,157.198913 C167.880311,157.661918 165.776555,157.930021 163.662539,158 L163.340931,158 C163.045286,155.157424 162.941724,152.29658 163.031017,149.438763 L163.802878,134.046883 L164.194656,126.280618 L164.411011,122 C164.411011,122 164.487027,122.085612 164.633213,122.226261 C164.779399,122.36691 164.878805,122.470868 165.054228,122.635978 L165.054228,122.635978 C167.664094,125.020738 170.951789,126.441156 174.410121,126.678104 C176.346122,126.736366 178.145274,127.735929 179.275185,129.381009 C180.331965,130.952481 181.011843,132.766704 181.257465,134.67063 L181.432888,136.352302 C181.432888,136.352302 181.432888,136.352302 181.432888,136.352302 L181.479667,136.829285 L181.543989,137.440802 L183,151.242738 Z" id="Path" fill="#000000" opacity="0.1"></path>
        <path d="M183,151.090605 L182.707977,151.313683 C182.304986,151.609111 181.896154,151.916597 181.481482,152.169821 L181.195299,152.356724 L180.582051,152.748618 C179.208704,151.608799 178.162682,150.103728 177.556695,148.395579 L177.556695,148.395579 C177.528555,148.324968 177.505138,148.252448 177.48661,148.17853 C177.422365,147.96751 177.36396,147.744431 177.317237,147.527382 L177.077778,148.1725 L176.750713,149.046726 L176.003134,151.060459 C176.003134,151.060459 176.347721,152.507453 176.955129,154.738235 C176.832479,154.798526 176.71567,154.858818 176.58718,154.907051 C176.45869,154.955284 176.20755,155.081896 176.003134,155.160275 C173.963377,156.051638 171.845192,156.73811 169.677921,157.210183 C167.61217,157.666674 165.510925,157.931006 163.399431,158 C163.058655,155.015257 162.935659,152.008296 163.031483,149.004522 L163.779061,134.299447 L164.176212,126.461564 L164.368947,122.765701 L164.40399,122 C164.435065,122.03619 164.46822,122.070416 164.503277,122.102495 C167.193829,124.768767 170.710313,126.368142 174.432052,126.618322 C176.337853,126.674919 178.112552,127.63318 179.244587,129.216882 C180.32943,130.779798 181.027225,132.593063 181.277066,134.498409 L181.58661,137.470775 L181.58661,137.512979 L181.58661,137.512979 L181.650855,138.115893 L183,151.090605 Z" id="Path" fill="#293158"></path>
        <path d="M155,124 L155,124.365867 L154.89916,125.757361 L154.546218,130.519629 C154.546218,130.519629 154.338235,131.89313 154.186975,134.988004 C153.966387,139.066521 153.834034,146.131952 154.344538,157 L153.796218,156.874046 C152.510504,156.554162 151.25,156.182297 150.014706,155.758451 C149.264706,155.494547 148.521008,155.206652 147.796218,154.900763 C147.613445,154.822792 147.436975,154.750818 147.254202,154.666848 C147.071429,152.267721 146.85084,150.798255 146.85084,150.798255 C146.85084,150.798255 146.680672,151.002181 146.422269,151.398037 C146.315126,151.559978 146.182773,151.757906 146.044118,151.997819 L146.012605,152.051799 L146.012605,152.051799 C145.890756,152.251727 145.760504,152.479644 145.621849,152.735551 C145.464286,153.035442 145.306723,153.335333 145.155462,153.713195 L144.52521,153.37132 L144.42437,153.317339 C141.737799,151.866483 139.244994,150.11244 137,148.093239 C138.014706,144.692475 138.890756,141.273719 139.205882,140.835878 C140.381111,139.117948 141.283679,137.244465 141.884454,135.2759 C142.734494,132.568338 144.816561,130.366774 147.556723,129.278081 C150.384386,128.016928 152.912626,126.221094 154.987395,124 L155,124 Z" id="Path" fill="#000000" opacity="0.1"></path>
        <path d="M154.921186,123.098551 C152.574655,125.117212 149.960291,126.79049 147.154934,128.069203 C144.519063,129.18723 142.516239,131.448111 141.698552,134.228623 C141.120643,136.250229 140.252426,138.17419 139.121927,139.938406 C138.824857,140.388043 137.976086,143.905072 137,147.403623 C137.175817,147.588406 137.363759,147.767029 137.545638,147.945652 C139.705188,150.019257 142.103117,151.82056 144.687437,153.310507 L144.784439,153.365942 C145.138126,152.450515 145.585155,151.575215 146.118222,150.754348 L146.148535,150.705072 C146.360728,150.384783 146.494106,150.212319 146.494106,150.212319 C146.494106,150.212319 146.54867,150.618841 146.627484,151.351812 C146.706298,152.084783 146.809363,153.199638 146.906366,154.493116 L147.433816,154.733333 C147.60357,154.819565 147.773324,154.893478 147.955204,154.973551 C148.652408,155.287681 149.367801,155.589493 150.089256,155.854348 C151.265409,156.29372 152.477939,156.675604 153.726844,157 C153.229707,145.95 153.338835,138.669565 153.538902,134.376449 C153.696531,130.914855 153.908723,129.381159 153.908723,129.381159 L154.67868,124.884783 L154.896935,123.615942 L155,123 L154.921186,123.098551 Z" id="Path" fill="#293158"></path>
        <path d="M158.976744,122.999995 C157.669541,123.001456 156.379177,122.693057 155.203488,122.09818 C155.000363,120.529726 154.595573,118.996827 154,117.540684 L165,114 C164.599054,116.194248 164.52259,118.439398 164.773256,120.657696 C163.188483,122.162313 161.121615,122.997509 158.976744,122.999995 L158.976744,122.999995 Z" id="Path" fill="#000000" opacity="0.1"></path>
        <circle id="Oval" fill="#E0A17E" cx="160" cy="114" r="9"></circle>
        <g id="Group" opacity="0.1" transform="translate(176.000000, 147.000000)" fill="#000000">
          <path d="M1.395,8.36357143 C0.5175,5.72142857 0.03,3.98571429 0.03,3.98571429 L1.7175,0.218571429 C1.84959631,0.748053706 2.04305636,1.26490431 2.295,1.76142857 L2.3325,1.845 L1.3725,3.99214286 C1.3725,3.99214286 1.815,5.535 2.595,7.91357143 C2.4375,7.97785714 2.2875,8.04214286 2.1225,8.09357143 C1.9575,8.145 1.635,8.28 1.395,8.36357143 Z" id="Path"></path>
        </g>
        <path d="M187.952269,139.730014 C187.952269,139.730014 187.104856,131.488703 187.952269,127.509921 C188.799683,123.53114 178.05322,128.077418 180.31299,133.474941 C181.522137,136.4671 183.038965,139.324274 184.838808,142 L187.952269,139.730014 Z" id="Path" fill="#E0A17E"></path>
        <path d="M190.90034,145.919461 C188.966223,148.154993 186.777586,150.157471 184.378822,151.886277 L184.067384,152.116488 C183.637599,152.421362 183.201586,152.73868 182.759343,153 C181.755335,151.810322 180.859028,150.533969 180.080974,149.185966 L180,149.042862 L182.248584,137.264777 L182.485277,137.507432 C182.584938,137.60076 182.715742,137.725199 182.871461,137.849637 L182.871461,137.849637 L182.902605,137.849637 C184.067384,138.845143 186.527746,140.338403 187.711212,136.866574 C187.911189,136.258786 188.055051,135.633987 188.140997,135 L188.371461,135.858624 L188.371461,135.858624 L188.508494,136.362599 L191,145.751469 L191,145.751469 L190.90034,145.919461 Z" id="Path" fill="#000000" opacity="0.1"></path>
        <path d="M191,145.569915 C189.048405,147.853802 186.839734,149.899435 184.418857,151.665254 L184.104571,151.900424 C183.670857,152.211864 183.230857,152.536017 182.784571,152.802966 L182.476571,153 C181.555117,151.844438 180.726931,150.615913 180,149.326271 L180.081714,148.900424 L182.269143,137.294492 C182.269143,137.294492 182.382286,137.427966 182.577143,137.612288 L182.966857,137.961864 C183.130286,138.101695 183.318857,138.254237 183.526286,138.394068 C184.827429,139.29661 186.807429,139.976695 187.813143,136.805085 C187.998366,136.216219 188.132961,135.612281 188.215429,135 L188.504571,136.080508 L191,145.569915 Z" id="Path" fill="#293158"></path>
        <path d="M191,145.569915 C189.048405,147.853802 186.839734,149.899435 184.418857,151.665254 L184.104571,151.900424 C183.670857,152.211864 183.230857,152.536017 182.784571,152.802966 L182.476571,153 C181.555117,151.844438 180.726931,150.615913 180,149.326271 L180.081714,148.900424 L182.269143,137.294492 C182.269143,137.294492 182.382286,137.427966 182.577143,137.612288 L182.966857,137.961864 C183.130286,138.101695 183.318857,138.254237 183.526286,138.394068 C184.827429,139.29661 186.807429,139.976695 187.813143,136.805085 C187.998366,136.216219 188.132961,135.612281 188.215429,135 L188.504571,136.080508 L191,145.569915 Z" id="Path" fill="#000000" opacity="0.02"></path>
        <path d="M146.033557,150.631295 L146,150.681655 C146,150.65018 146,150.61241 146,150.58723 C146.422819,149.208633 146.805369,148.276978 147.147651,148 C147.147651,148 147.597315,150.801259 148,155 C147.805369,154.918165 147.61745,154.842626 147.422819,154.754496 L146.838926,154.508993 C146.738255,153.155576 146.630872,152.053957 146.530201,151.298561 C146.42953,150.543165 146.38255,150.133993 146.38255,150.133993 C146.38255,150.133993 146.268456,150.303957 146.033557,150.631295 Z" id="Path" fill="#000000" opacity="0.1"></path>
        <path d="M158.634426,111.791871 C159.118726,111.529784 159.676363,111.430517 160.222938,111.509094 C160.45908,111.607458 160.671399,111.754122 160.845883,111.939407 C161.57473,112.621762 162.297347,113.414768 163.281601,113.623778 C163.889465,113.714971 164.509542,113.687822 165.106832,113.543862 C166.154847,113.424337 167.17219,113.118159 168.109431,112.640204 C170.196299,111.410736 170.862851,108.748939 170.993669,106.357625 C171.037276,105.552324 170.86908,104.513424 170.06548,104.341298 C169.043849,104.126141 168.296314,105.656828 167.262224,105.49085 C166.947874,105.415534 166.664932,105.245859 166.452395,105.005211 C165.748466,104.310562 165.268798,103.419198 164.583558,102.718401 C163.488013,101.708039 162.068751,101.107802 160.571787,101.021736 C159.08701,100.942247 157.598507,101.081055 156.155102,101.433608 C155.359175,101.563261 154.590722,101.822961 153.88135,102.202025 C153.170106,102.585918 152.668117,103.261424 152.51087,104.046226 C152.442346,104.581044 152.585623,105.134305 152.479722,105.662976 C152.268043,106.384806 151.762887,106.987898 151.084324,107.328904 C150.461378,107.710039 149.726302,107.943638 149.115816,108.410836 C148.145563,109.154691 147.472671,110.21277 147.215831,111.398441 C146.966691,112.577695 146.932937,113.791376 147.11616,114.982339 C147.371817,117.051472 147.956246,119.067934 148.847949,120.957551 C149.142683,121.617155 149.521593,122.236904 149.975481,122.801752 C150.641638,123.519052 151.407115,124.139916 152.249232,124.645953 C152.55812,124.922531 152.977002,125.046765 153.389223,124.984057 C153.505884,124.942741 153.613651,124.880185 153.706925,124.799637 C154.504296,124.141872 154.57905,122.955436 154.329871,121.95342 C154.080693,120.951404 153.65709,119.998566 153.607254,118.978108 C153.575429,118.691699 153.631875,118.402476 153.76922,118.148218 C153.935358,117.942556 154.12331,117.75502 154.329871,117.58881 C154.599662,117.282667 154.810749,116.930633 154.952817,116.54991 C155.429387,115.609344 155.755121,114.601477 155.918383,113.562304 C156.00858,112.706571 155.818646,111.844827 155.37642,111.103369 C156.248405,111.912459 157.503149,112.177619 158.634426,111.791871 L158.634426,111.791871 Z" id="Path" fill="#000000" opacity="0.1"></path>
        <path d="M158.634426,109.791871 C159.118726,109.529784 159.676363,109.430517 160.222938,109.509094 C160.45908,109.607458 160.671399,109.754122 160.845883,109.939407 C161.57473,110.621762 162.297347,111.414768 163.281601,111.623778 C163.889465,111.714971 164.509542,111.687822 165.106832,111.543862 C166.154847,111.424337 167.17219,111.118159 168.109431,110.640204 C170.196299,109.410736 170.862851,106.748939 170.993669,104.357625 C171.037276,103.552324 170.86908,102.513424 170.06548,102.341298 C169.043849,102.126141 168.296314,103.656828 167.262224,103.49085 C166.947874,103.415534 166.664932,103.245859 166.452395,103.005211 C165.748466,102.310562 165.268798,101.419198 164.583558,100.718401 C163.488013,99.7080392 162.068751,99.1078022 160.571787,99.0217361 C159.08701,98.9422467 157.598507,99.0810549 156.155102,99.4336077 C155.359175,99.5632612 154.590722,99.8229606 153.88135,100.202025 C153.170106,100.585918 152.668117,101.261424 152.51087,102.046226 C152.442346,102.581044 152.585623,103.134305 152.479722,103.662976 C152.268043,104.384806 151.762887,104.987898 151.084324,105.328904 C150.461378,105.710039 149.726302,105.943638 149.115816,106.410836 C148.145563,107.154691 147.472671,108.21277 147.215831,109.398441 C146.966691,110.577695 146.932937,111.791376 147.11616,112.982339 C147.371817,115.051472 147.956246,117.067934 148.847949,118.957551 C149.142683,119.617155 149.521593,120.236904 149.975481,120.801752 C150.641638,121.519052 151.407115,122.139916 152.249232,122.645953 C152.55812,122.922531 152.977002,123.046765 153.389223,122.984057 C153.505884,122.942741 153.613651,122.880185 153.706925,122.799637 C154.504296,122.141872 154.57905,120.955436 154.329871,119.95342 C154.080693,118.951404 153.65709,117.998566 153.607254,116.978108 C153.575429,116.691699 153.631875,116.402476 153.76922,116.148218 C153.935358,115.942556 154.12331,115.75502 154.329871,115.58881 C154.599662,115.282667 154.810749,114.930633 154.952817,114.54991 C155.429387,113.609344 155.755121,112.601477 155.918383,111.562304 C156.00858,110.706571 155.818646,109.844827 155.37642,109.103369 C156.248405,109.912459 157.503149,110.177619 158.634426,109.791871 L158.634426,109.791871 Z" id="Path" fill="#463E3B"></path>
        <rect id="Rectangle" fill="#DDE1EC" x="265" y="291" width="128" height="75"></rect>
        <path d="M603.763918,142.448998 C603.542988,139.45247 600.695442,137.2849 597.872444,136.1305 C595.049446,134.976099 591.895052,134.41118 589.397312,132.661159 C585.175089,129.701473 583.874055,124.168949 583.493564,119.109238 C583.376962,117.537289 583.327867,115.96534 583.32173,114.38725 C583.315593,112.809161 583.419921,111.065279 583.567208,109.407364 C583.812686,106.656453 584.217725,103.807296 584.180903,101.050244 C584.324165,98.4196582 583.818341,95.7942108 582.708034,93.4054134 C580.204158,88.4562298 574.582709,85.9263742 569.378574,83.7710846 C567.377927,82.942127 565.328185,82.1008886 563.155704,82.0087822 C560.860484,81.9105354 558.626633,82.653527 556.454152,83.3903781 C553.005185,84.5570591 549.507122,86.0737444 545.941553,86.8658594 C543.940906,87.3079701 541.750014,86.9763871 539.804601,87.6825361 C535.987416,89.0825533 535.171202,92.5150516 535.232571,96.2791329 C535.232571,96.5186095 535.232571,96.7519457 535.232571,96.9914224 C534.85208,96.6414181 534.459315,96.3098351 534.060413,95.9905329 L533.827209,95.8063201 C533.418079,95.4747371 532.982355,95.1615753 532.520038,94.8668349 L532.299108,94.7256051 C531.361354,94.1174442 530.378642,93.5816757 529.359508,93.1229538 L529.206084,93.0554091 C528.694671,92.8302602 528.175076,92.6255793 527.647298,92.4413665 L527.549107,92.4045239 C526.456706,92.0235563 525.336422,91.7279295 524.198331,91.5203025 C516.917342,90.1702064 509.441149,92.5210657 504.240962,97.7958182 L500.024875,102.094117 C480.859173,97.7958182 480,114.454795 480,114.454795 L480.14115,114.424093 L480.092054,114.540761 C480.52859,116.648797 502.325817,159.202996 502.989023,161.250984 C513.274556,168.564231 523.965127,178.364352 523.965127,178.364352 C523.965127,178.364352 517.337218,181.870535 519.791999,197.93389 C522.792969,217.583254 518.282309,245.552896 518.282309,245.552896 L518.282309,263.642592 L519.129208,263.409256 C519.02488,264.023299 518.914415,264.637341 518.810087,265.34349 C517.41229,274.432418 517.234793,283.667497 518.282309,292.803477 C520.552981,311.998449 529.623397,338.205789 529.623397,338.205789 C529.623397,338.205789 533.023268,347.416428 533.78425,354.815642 C533.903926,356.276929 534.230398,357.713806 534.753889,359.083238 C536.460314,363.142333 537.360779,367.49496 537.405052,371.898308 C537.405052,379.929985 538.454471,391.983642 543.235157,404.282916 C547.070752,414.156722 548.488388,419.941003 548.911838,423.318238 C546.193168,426.916527 542.639873,430.84026 539.835285,431.233247 C534.545232,431.970098 524.333344,432.706949 531.139224,441.567585 C531.376669,441.871783 531.641683,442.153392 531.930891,442.408823 C526.763577,443.243921 521.080759,445.086049 526.604016,452.270348 C533.409896,461.130983 573.484195,457.072161 573.484195,457.072161 C573.484195,457.072161 573.741947,452.15982 573.484195,446.743964 C576.294919,446.54747 578.031677,446.369398 578.031677,446.369398 C578.031677,446.369398 579.167013,424.957731 574.251314,422.372612 C573.342792,422.471753 572.451351,422.69061 571.600151,423.023497 C571.072373,420.063812 570.667334,416.385696 570.415719,413.659347 L572.361133,413.511977 L572.361133,381.397547 C572.361133,381.397547 570.09046,361.465724 561.77489,352.605088 C560.71474,351.498545 559.801039,350.260327 559.05622,348.920833 C559.11759,346.360275 559.123727,342.780406 559.093042,338.647899 C559.423619,338.089142 559.816886,337.569983 560.2652,337.100512 C560.2652,337.100512 564.800407,331.574128 580.302349,296.493873 C589.446408,275.806777 587.40894,263.863647 584.199314,257.539008 C583.585619,255.291612 581.990011,248.874867 579.903447,237.060687 C577.258421,221.924536 580.283938,207.156811 580.283938,207.156811 C580.283938,207.156811 590.103062,181.686322 594.650544,171.351985 C595.703576,168.862688 596.141436,166.156107 595.92703,163.461537 C597.111462,162.595737 597.682198,161.152737 598.191565,159.777281 L602.849512,147.342918 C603.352742,145.998165 603.868246,144.598147 603.757781,143.167428 C603.780194,142.93232 603.780194,142.690247 603.763918,142.448998 Z M851.728088,422.639511 C852.234143,423.429495 852.798255,424.180702 853.41575,424.886907 L853.41575,424.886907 C853.41575,424.886907 852.722274,424.162337 851.574664,422.995656 C851.629897,422.878988 851.678992,422.756179 851.728088,422.639511 Z M516,148.10367 L528.820093,135 C533.250973,139.052681 537.994837,143.191329 541.959308,146.599265 C541.581638,148.34556 541.081256,150.063006 540.461892,151.738802 C538.743545,152.592321 536.472873,152.868641 533.711244,151.364236 C529.335597,149.000172 521.259368,148.300163 516,148.10367 Z" id="Shape" fill="url(#linearGradient-4)"></path>
        <path d="M507.115576,97 C507.115576,97 497.640137,102.478766 500.55801,110.176003 C500.55801,110.176003 510.400476,113.099237 514.407198,120.404258 C518.413919,127.709279 549.403313,154 549.403313,154 L572,142.656381 C572,142.656381 564.139485,132.140092 539.273341,124.798301 C539.273341,124.798301 524.592223,109.05451 519.508886,106.137405 C514.425549,103.220299 507.115576,97 507.115576,97 Z" id="Path" fill="#FEBDD5"></path>
        <path d="M507.115576,97 C507.115576,97 497.640137,102.478766 500.55801,110.176003 C500.55801,110.176003 510.400476,113.099237 514.407198,120.404258 C518.413919,127.709279 549.403313,154 549.403313,154 L572,142.656381 C572,142.656381 564.139485,132.140092 539.273341,124.798301 C539.273341,124.798301 524.592223,109.05451 519.508886,106.137405 C514.425549,103.220299 507.115576,97 507.115576,97 Z" id="Path" fill="#000000" opacity="0.05"></path>
        <path d="M524.427135,96.6385404 L524.427135,96.6385404 C532.90908,104.754918 533.216516,118.210046 525.114139,126.705629 L360.251702,299.358214 L326.294101,311.783899 L324,319 L369.231819,302.432421 L534.118792,129.841197 C542.221169,121.345614 541.913733,107.890486 533.431788,99.7741082 L533.431788,99.7741082 C530.035487,96.5185895 525.652251,94.4870329 520.973716,94 C522.211533,94.7597779 523.36866,95.6438659 524.427135,96.6385404 Z" id="Path" fill="#FFFFFF" opacity="0.1"></path>
        <g id="pencil">
          <path d="M541.674494,106.387438 C540.04946,99.9476243 534.338187,95.8876133 534.284288,95.8444695 L534.051084,95.6602567 C533.641954,95.3286737 533.20623,95.015512 532.743913,94.7207715 L532.522983,94.5795417 C531.585229,93.9713809 530.602517,93.4356124 529.583383,92.9768904 L529.429959,92.9093457 C528.918546,92.6841968 528.398951,92.4795159 527.871173,92.2953031 L527.772982,92.2584606 C526.680581,91.877493 525.560297,91.5818661 524.422206,91.3742392 C517.141217,90.0241431 509.665024,92.3750023 504.464837,97.6497548 L500.24875,101.948053 L500.24875,101.948053 L481.966769,120.63337 L333.96189,271.890492 L319,318.287553 L327.401488,315.291025 L365.781988,301.573312 C473.841445,189.443055 527.871173,133.377927 527.871173,133.377927 C527.871173,133.377927 530.266452,130.877057 535.057011,125.875315 C535.431386,125.484437 536.828074,123.862023 537.892741,122.057544 C538.357187,121.270367 539.98935,119.019625 540.874387,116.035201 C541.906007,112.556486 542.139858,108.231621 541.674494,106.387438 Z" id="Path-Copy" fill="url(#linearGradient-5)"></path>
          <path d="M338.466753,273.067863 L503.368103,100.564855 C511.48321,92.0872456 524.93623,91.7799663 533.430482,99.8782023 L533.430482,99.8782023 C541.914113,107.987549 542.221611,121.43102 534.117622,129.919242 L369.240813,302.446774 L324,319 L338.466753,273.067863 Z" id="Path" fill="#00B476"></path>
          <polygon id="Path" fill="#EFC8C4" points="338.389748 273 369 302.427961 332.07974 316.027106 324 319 329.120016 302.642943"></polygon>
          <path d="M329.160152,302 C330.283796,302.227605 331.355676,302.675882 332.318679,303.320946 C333.432734,304.156907 334.240729,305.60548 333.93467,306.996622 C333.63344,307.86297 333.203826,308.674747 332.661465,309.402402 C331.540787,311.373774 331.344684,313.770654 332.128923,315.911411 L324,319 L329.160152,302 Z" id="Path" fill="#727A9C"></path>
        </g>
        <path d="M565.868192,410.017647 C565.868192,410.017647 566.994,425.441176 568.86825,427.194118 C570.7425,428.947059 552,430 552,430 L554.622692,410 L565.868192,410.017647 Z" id="Path" fill="#FFB9B9"></path>
        <path d="M565.868192,410.017647 C565.868192,410.017647 566.994,425.441176 568.86825,427.194118 C570.7425,428.947059 552,430 552,430 L554.622692,410 L565.868192,410.017647 Z" id="Path" fill="#000000" opacity="0.05"></path>
        <path d="M570.209371,421.978511 C570.209371,421.978511 567.631211,421.978511 558.41908,426.604825 C558.41908,426.604825 552.156068,425.536296 549.577908,417 C549.577908,417 541.843427,429.804444 536.680924,430.514807 C531.518422,431.22517 521.576739,431.935533 528.204527,440.477799 C534.832316,449.020064 573.888041,445.104113 573.888041,445.104113 C573.888041,445.104113 575.000916,424.467767 570.209371,421.978511 Z" id="Path" fill="#CBCDDA"></path>
        <path d="M570.209371,421.978511 C570.209371,421.978511 567.631211,421.978511 558.41908,426.604825 C558.41908,426.604825 552.156068,425.536296 549.577908,417 C549.577908,417 541.843427,429.804444 536.680924,430.514807 C531.518422,431.22517 521.576739,431.935533 528.204527,440.477799 C534.832316,449.020064 573.888041,445.104113 573.888041,445.104113 C573.888041,445.104113 575.000916,424.467767 570.209371,421.978511 Z" id="Path" fill="#000000" opacity="0.05"></path>
        <path d="M566,434.1477 L563.491134,441 L547,436.308717 L547.938569,429.504843 L548.167194,427.864407 L548.768841,423.324455 C548.768841,423.324455 562.751108,419.692494 562.751108,421.508475 C562.940428,422.995813 563.248259,424.465436 563.671628,425.903148 C564.273274,428.118644 564.965168,430.64891 565.476567,432.313559 C565.789424,433.427361 566,434.1477 566,434.1477 Z" id="Path" fill="#FFB9B9"></path>
        <path d="M556.244928,339.569769 C555.05478,341.5258 553.712698,345.191821 556.213275,349.768197 C556.953197,351.092891 557.863679,352.320667 558.922761,353.421916 C567.222144,362.217906 569.48849,382.01196 569.48849,382.01196 L569.48849,413.898963 L563.828956,414.323385 L554.776234,415 L541.165498,360.760109 C541.165498,360.760109 533.245949,321.172001 537.018972,314.209022 C540.791995,307.246042 544.185183,263.629001 544.185183,263.629001 L547.318817,260.479667 L554.750912,253 L576.274866,253 C577.995434,254.199216 579.423924,255.75098 580.459376,257.54562 C584.067804,263.352204 587.309058,275.4267 577.408039,297.718077 C561.942445,332.539127 557.416084,338.038159 557.416084,338.038159 C556.967405,338.50407 556.574513,339.017885 556.244928,339.569769 Z" id="Path" fill="#4C4C78"></path>
        <path d="M556.244928,339.569769 C555.05478,341.5258 553.712698,345.191821 556.213275,349.768197 C556.953197,351.092891 557.863679,352.320667 558.922761,353.421916 C567.222144,362.217906 569.48849,382.01196 569.48849,382.01196 L569.48849,413.898963 L563.828956,414.323385 L554.776234,415 L541.165498,360.760109 C541.165498,360.760109 533.245949,321.172001 537.018972,314.209022 C540.791995,307.246042 544.185183,263.629001 544.185183,263.629001 L547.318817,260.479667 L554.750912,253 L576.274866,253 C577.995434,254.199216 579.423924,255.75098 580.459376,257.54562 C584.067804,263.352204 587.309058,275.4267 577.408039,297.718077 C561.942445,332.539127 557.416084,338.038159 557.416084,338.038159 C556.967405,338.50407 556.574513,339.017885 556.244928,339.569769 Z" id="Path" fill="#000000" opacity="0.05"></path>
        <path d="M562,427.012346 L546,429 L546.619915,424.37037 C546.619915,424.37037 561.026734,420.666667 561.026734,422.518519 C561.229262,424.040086 561.55474,425.542903 562,427.012346 Z" id="Path" fill="#000000" opacity="0.1"></path>
        <path d="M554.984976,292.914258 C554.984976,292.914258 555.89245,321.655514 556.04574,339.717596 C556.076398,343.804233 556.04574,347.345578 556.015082,349.875984 C556.036701,351.217743 555.938204,352.558746 555.720766,353.882973 C554.623212,357.166987 556.81832,364.470244 556.81832,364.470244 C565.954383,388.567315 563.397512,409.741858 563.397512,409.741858 L563.397512,425.806572 L545.848912,428 C545.848912,428 548.773679,425.806572 540.73517,404.632029 C536.118085,392.464019 535.118637,380.547212 535.100242,372.600631 C535.057925,368.252948 534.188123,363.953013 532.537239,359.930216 C532.040279,358.569824 531.734868,357.147039 531.629764,355.70266 C530.900106,348.399403 527.613575,339.270332 527.613575,339.270332 C527.613575,339.270332 518.845407,313.347447 516.6503,294.360205 C515.637322,285.323101 515.808406,276.192567 517.159221,267.199687 C517.482565,264.913824 517.922569,262.64596 518.477512,260.404963 C518.477512,260.404963 554.194001,237.943772 567.68349,253.46932 C568.98895,254.985877 570.02577,256.713969 570.749283,258.579149 C571.489821,260.420084 572.066382,262.322712 572.472259,264.264905 C576.617211,284.888028 554.984976,292.914258 554.984976,292.914258 Z" id="Path" fill="#4C4C78"></path>
        <circle id="Oval" fill="#FFB9B9" cx="553.5" cy="113.5" r="18.5"></circle>
        <path d="M543.180231,124.478539 C543.180231,124.478539 550.834191,146.249511 543.180231,157.686082 C535.526271,169.122653 567.604378,165.432238 567.604378,165.432238 L580,150.305252 C580,150.305252 565.414036,150.305252 564.704317,124.478539 C563.994597,98.6518262 543.180231,124.478539 543.180231,124.478539 Z" id="Path" fill="#FFB9B9"></path>
        <path d="M580,262.082769 C577.369186,262.989891 574.663546,263.665491 571.914178,264.101805 C567.396347,264.793006 562.068716,264.823322 558.95129,262.082769 C557.124674,260.457839 552.552044,260.263818 547.084372,260.779187 C535.5706,261.876621 519.983473,266.157219 517,267 C517.321084,264.737911 517.758011,262.493634 518.309075,260.275944 C518.309075,260.275944 553.775877,238.048362 567.171064,253.412436 L574.909829,253.412436 C576.564664,254.59452 577.93858,256.124116 578.934474,257.893118 C579.610322,260.767061 580,262.082769 580,262.082769 Z" id="Path" fill="#000000" opacity="0.1"></path>
        <path d="M566,434.442865 L563.491134,441 L547,436.510795 L547.938569,430 C550.772324,436.035808 555.603547,436.852554 555.603547,436.852554 C560.813806,434.245919 563.846105,433.151132 565.470551,432.693523 C565.789424,433.753555 566,434.442865 566,434.442865 Z" id="Path" fill="#000000" opacity="0.1"></path>
        <path d="M566.20481,432.977777 C566.20481,432.977777 563.626755,432.977777 554.415,437.603409 C554.415,437.603409 548.152243,436.535037 545.574188,428 C545.574188,428 537.840023,440.802556 532.677731,441.512814 C527.515438,442.223073 517.574162,442.921394 524.207862,451.474337 C530.841562,460.02728 569.889512,456.099969 569.889512,456.099969 C569.889512,456.099969 570.996159,435.466665 566.20481,432.977777 Z" id="Path" fill="#CBCDDA"></path>
        <path d="M480,117 C480,117 480.812738,101.703109 499,105.651061 L494.334284,113.916729 L480,117 Z" id="Path" fill="#FFB9B9"></path>
        <path d="M566.229668,155.00176 C566.229668,155.00176 548.325193,152.066586 543.573149,148.399158 C543.573149,148.399158 539.894147,155.36481 533.339393,151.697382 C526.784638,148.029953 511.418674,148.399158 511.418674,148.399158 C511.418674,148.399158 498.628012,141.433505 496.089501,125.662332 C496.089501,125.662332 493.532595,116.13071 494.25,113.564741 C494.25,113.564741 484.752044,103.663914 480,116.862965 C481.839501,126.031536 483.286575,125.299281 482.924806,132.627984 L488.768287,148.762208 C488.768287,148.762208 489.136188,154.263351 499.731712,161.598208 C510.327237,168.933065 522.388231,180.298401 522.388231,180.298401 C522.388231,180.298401 515.9929,183.781228 518.371988,199.730849 C521.272267,219.224832 516.91265,247.032062 516.91265,247.032062 L516.91265,265 C516.91265,265 553.451269,254.366919 559.66265,259.868062 C565.874031,265.369204 580.8537,259.868062 580.8537,259.868062 C580.8537,259.868062 579.014199,253.634664 576.469556,238.601899 C573.924913,223.569134 576.837456,208.899421 576.837456,208.899421 C576.837456,208.899421 586.335412,183.596625 590.719556,173.332748 C595.103699,163.068871 587.432981,149.131413 579.756131,143.999474 C572.079281,138.867536 569.228054,141.950391 569.228054,141.950391 C569.228054,141.950391 582.650279,151.703535 566.229668,155.00176 Z" id="Path" fill="#FEBDD5"></path>
        <path d="M533.627634,108.389903 C533.621961,109.155293 533.752386,109.915669 534.012906,110.636034 C534.444554,111.455293 535.033537,112.182716 535.746628,112.777264 C538.518098,115.467685 540.954009,118.664103 541.929616,122.391201 C542.588306,124.915013 542.551022,127.556069 542.513738,130.166271 C542.352172,140.724323 541.892332,152.121589 535.342714,160.402657 C532.93166,163.457148 529.824631,165.88223 526.910237,168.46775 C526.500973,168.771632 526.193464,169.190969 526.027841,169.671034 C525.946959,170.17325 526.043563,170.687786 526.30126,171.127317 C527.655924,173.92264 530.508177,175.638092 533.211292,177.193106 C534.454104,177.902736 535.746628,178.637048 537.175862,178.680243 C540.543881,178.791315 542.768514,175.255509 545.832045,173.867104 C550.293738,171.843117 555.296055,174.656952 559.726679,176.754987 C562.933072,178.270784 566.296022,179.43567 569.756169,180.229086 C574.497495,181.315128 579.854013,181.580468 583.843439,178.822169 C586.149706,177.20856 587.725254,174.759791 588.230564,172.003555 C588.553695,170.207884 588.503982,168.122191 589.871075,166.906565 C590.579478,166.289496 591.542657,166.017985 592.300772,165.462623 C593.487657,164.598726 594.046922,163.148614 594.550261,161.760208 L599.11138,149.375632 C599.699197,148.066885 600.00201,146.649603 599.99999,145.216586 C599.782498,142.236142 597.011028,140.07023 594.233344,138.922481 C591.45566,137.774733 588.379701,137.2132 585.931362,135.466895 C581.799013,132.517304 580.518918,127.006877 580.146074,121.965423 C579.89129,118.503135 579.916226,115.026142 580.220643,111.567809 C580.674269,106.439965 581.680946,100.972732 579.381745,96.3570557 C576.927192,91.4205029 571.421536,88.9090318 566.332223,86.7616313 C564.374794,85.9347587 562.361439,85.1017155 560.236232,85.0091551 C557.986742,84.9104241 555.799394,85.6262242 553.674186,86.3852192 C550.293738,87.5514798 546.838722,89.0571283 543.377492,89.8469768 C541.420063,90.2912665 539.269999,89.9580492 537.380925,90.661508 C530.439822,93.2531981 533.627634,102.842452 533.627634,108.389903 Z" id="Path" fill="#000000" opacity="0.1"></path>
        <path d="M533.633848,107.414586 C533.628175,108.179975 533.7586,108.940352 534.01912,109.660717 C534.450768,110.479976 535.039751,111.207399 535.752842,111.801947 C538.524312,114.492368 540.960223,117.688786 541.93583,121.415883 C542.59452,123.939696 542.557236,126.580752 542.519952,129.190954 C542.358386,139.749006 541.898546,151.146272 535.348928,159.427339 C532.937874,162.481831 529.830845,164.906913 526.916451,167.492432 C526.508867,167.788865 526.199496,168.199196 526.027841,168.671034 C525.946959,169.17325 526.043563,169.687786 526.30126,170.127317 C527.655924,172.92264 530.508177,174.638092 533.211292,176.193106 C534.454104,176.902736 535.746628,177.637048 537.175862,177.680243 C540.543881,177.791315 542.768514,174.255509 545.832045,172.867104 C550.293738,170.843117 555.296055,173.656952 559.726679,175.754987 C562.933072,177.270784 566.296022,178.43567 569.756169,179.229086 C574.497495,180.315128 579.854013,180.580468 583.843439,177.822169 C586.149706,176.20856 587.725254,173.759791 588.230564,171.003555 C588.553695,169.207884 588.503982,167.122191 589.871075,165.906565 C590.579478,165.289496 591.542657,165.017985 592.300772,164.462623 C593.487657,163.598726 594.046922,162.148614 594.550261,160.760208 L599.11138,148.375632 C599.699197,147.066885 600.00201,145.649603 599.99999,144.216586 C599.782498,141.236142 597.011028,139.07023 594.233344,137.922481 C591.45566,136.774733 588.379701,136.2132 585.931362,134.466895 C581.799013,131.517304 580.518918,126.006877 580.146074,120.965423 C579.89129,117.503135 579.916226,114.026142 580.220643,110.567809 C580.674269,105.439965 581.680946,99.9727325 579.381745,95.3570557 C576.927192,90.4205029 571.421536,87.9090318 566.332223,85.7616313 C564.374794,84.9347587 562.361439,84.1017155 560.236232,84.0091551 C557.986742,83.9104241 555.799394,84.6262242 553.674186,85.3852192 C550.293738,86.5514798 546.838722,88.0571283 543.377492,88.8469768 C541.420063,89.2912665 539.269999,88.9580492 537.380925,89.661508 C530.446037,92.296393 533.633848,101.867135 533.633848,107.414586 Z" id="Path" fill="#B96B6B"></path>
        <path d="M518,207.978834 C518,207.978834 520.926492,207.380883 535.614404,205.475908 C550.302316,203.570933 576,208 576,208" id="Path" fill="#000000" opacity="0.05"></path>
      </g>
    </g>
  </g>
</svg>
