<?xml version="1.0" encoding="UTF-8"?>
<svg width="150px" height="150px" viewBox="0 0 150 150" version="1.1" xmlns="http://www.w3.org/2000/svg" xmlns:xlink="http://www.w3.org/1999/xlink">
    <!-- Generator: Sketch 53.2 (72643) - https://sketchapp.com -->
    <title>Search Eye (Blue-Gray)</title>
    <desc>Created with Sketch.</desc>
    <g id="Search-Eye-(Blue-Gray)" stroke="none" stroke-width="1" fill="none" fill-rule="evenodd">
        <g id="icons8-detective" fill="#7F879D" fill-rule="nonzero">
            <path d="M62.4622142,0 C28.0392698,0 0,28.0392698 0,62.4622142 C0,96.8851591 28.0392698,124.924428 62.4622142,124.924428 C77.4313338,124.924428 91.1784988,119.608806 101.952487,110.785032 L139.24682,148.079365 C140.813476,149.711133 143.139884,150.368453 145.328823,149.797818 C147.517761,149.227183 149.227183,147.517761 149.797818,145.328823 C150.368453,143.139884 149.711133,140.813476 148.079365,139.24682 L110.785032,101.952487 C119.608806,91.1784988 124.924428,77.4313338 124.924428,62.4622142 C124.924428,28.0392698 96.8851591,0 62.4622142,0 Z M62.4622142,12.4924428 C90.1337433,12.4924428 112.431985,34.7906875 112.431985,62.4622142 C112.431985,90.1337433 90.1337433,112.431985 62.4622142,112.431985 C34.7906875,112.431985 12.4924428,90.1337433 12.4924428,62.4622142 C12.4924428,34.7906875 34.7906875,12.4924428 62.4622142,12.4924428 Z M62.4622142,37.4773285 C48.6643111,37.4773285 37.4773285,48.6643111 37.4773285,62.4622142 C37.4773285,76.2601173 48.6643111,87.4470998 62.4622142,87.4470998 C76.2601173,87.4470998 87.4470998,76.2601173 87.4470998,62.4622142 C87.4470998,59.9262483 86.9573586,57.5326775 86.2515356,55.2278218 C84.2652372,59.493991 79.9703728,62.4622142 74.954657,62.4622142 C68.0525823,62.4622142 62.4622142,56.871846 62.4622142,49.9697713 C62.4622142,44.9540555 65.4304373,40.6591924 69.6966065,38.672894 C67.3917508,37.967071 64.9981801,37.4773285 62.4622142,37.4773285 Z" id="Shape"></path>
        </g>
    </g>
</svg>