<?xml version="1.0" encoding="UTF-8"?>
<svg width="150px" height="150px" viewBox="0 0 150 150" version="1.1" xmlns="http://www.w3.org/2000/svg" xmlns:xlink="http://www.w3.org/1999/xlink">
    <!-- Generator: Sketch 53.2 (72643) - https://sketchapp.com -->
    <title>Search Normal (Blue-Gray)</title>
    <desc>Created with Sketch.</desc>
    <g id="Search-Normal-(Blue-Gray)" stroke="none" stroke-width="1" fill="none" fill-rule="evenodd">
        <g id="icons8-search" fill="#7F879D" fill-rule="nonzero">
            <path d="M62.4622142,0 C28.0392698,0 0,28.0392698 0,62.4622142 C0,96.8851591 28.0392698,124.924428 62.4622142,124.924428 C77.4313338,124.924428 91.1784988,119.608806 101.952487,110.785032 L139.24682,148.079365 C140.813476,149.711133 143.139884,150.368453 145.328823,149.797818 C147.517761,149.227183 149.227183,147.517761 149.797818,145.328823 C150.368453,143.139884 149.711133,140.813476 148.079365,139.24682 L110.785032,101.952487 C119.608806,91.1784988 124.924428,77.4313338 124.924428,62.4622142 C124.924428,28.0392698 96.8851591,0 62.4622142,0 Z M62.4622142,12.4924428 C90.1337433,12.4924428 112.431985,34.7906875 112.431985,62.4622142 C112.431985,90.1337433 90.1337433,112.431985 62.4622142,112.431985 C34.7906875,112.431985 12.4924428,90.1337433 12.4924428,62.4622142 C12.4924428,34.7906875 34.7906875,12.4924428 62.4622142,12.4924428 Z" id="Shape"></path>
        </g>
    </g>
</svg>