<?xml version="1.0" encoding="UTF-8"?>
<svg width="150px" height="150px" viewBox="0 0 150 150" version="1.1" xmlns="http://www.w3.org/2000/svg" xmlns:xlink="http://www.w3.org/1999/xlink">
    <!-- Generator: Sketch 53.2 (72643) - https://sketchapp.com -->
    <title>Secretary</title>
    <desc>Created with Sketch.</desc>
    <g id="Secretary" stroke="none" stroke-width="1" fill="none" fill-rule="evenodd">
        <g id="icons8-check_in_desk" fill="#1F195E" fill-rule="nonzero">
            <path d="M35.8694214,0 C26.8648148,2.89623398e-15 19.5651389,7.29970517 19.5651389,16.3043478 C19.5651389,25.3089905 26.8648148,32.6086957 35.8694214,32.6086957 C44.874028,32.6086957 52.1737039,25.3089905 52.1737039,16.3043478 C52.1737039,7.29970517 44.874028,2.89623398e-15 35.8694214,0 Z M128.166947,2.89623398e-15 C119.556851,0.00135029096 112.577327,6.98090244 112.575977,15.5910326 C112.577327,24.2011628 119.556851,31.1807149 128.166947,31.1820652 C136.777043,31.1807149 143.756567,24.2011628 143.757917,15.5910326 C143.756567,6.98090244 136.777043,0.00135029096 128.166947,2.89623398e-15 Z M32.6085649,45.6521739 C21.8020865,45.6521739 13.043426,54.4108696 13.043426,65.2173913 L13.043426,78.2608696 L6.52171298,78.2608696 C2.92172742,78.2608696 0,81.1826087 0,84.7826087 C0,88.3826087 2.92172742,91.3043478 6.52171298,91.3043478 L91.3039817,91.3043478 L91.3039817,78.2608696 L58.6954168,78.2608696 L58.6954168,65.2173913 C58.6954168,54.4108696 49.9367563,45.6521739 39.1302779,45.6521739 L32.6085649,45.6521739 Z M123.912547,45.6521739 C113.184524,45.6521739 104.347408,54.4893261 104.347408,65.2173913 L104.347408,97.826087 C104.323725,99.5711046 105.000341,101.25283 106.225957,102.495208 C107.451573,103.737585 109.123949,104.436978 110.869121,104.436991 L110.869121,144.382643 C110.869121,147.48047 113.388641,150 116.486455,150 C119.440791,150 121.8954,147.699861 122.091052,144.752035 L124.47301,102.526324 C124.570835,101.111107 125.745148,100.004243 127.173403,100.004243 C128.601658,100.004243 129.775971,101.117322 129.873797,102.539061 L132.255754,144.764778 C132.451406,147.706083 134.906016,150 137.860352,150 C140.958165,150 143.477686,147.48047 143.477686,144.382643 L143.477686,104.436991 C145.222857,104.436978 146.895234,103.737585 148.120849,102.495208 C149.346465,101.25283 150.023082,99.5711046 149.999399,97.826087 L149.999399,65.2173913 C149.999399,54.4893261 141.162282,45.6521739 130.43426,45.6521739 L123.912547,45.6521739 Z M55.4345603,104.347826 C53.6345676,104.347826 52.1737039,105.808696 52.1737039,107.608696 L52.1737039,110.869565 L39.1302779,110.869565 C35.5302923,110.869565 32.6085649,113.791304 32.6085649,117.391304 L32.6085649,143.478261 C32.6085649,147.078261 35.5302923,150 39.1302779,150 L84.7822688,150 C88.3822543,150 91.3039817,147.078261 91.3039817,143.478261 L91.3039817,117.391304 C91.3039817,113.791304 88.3822543,110.869565 84.7822688,110.869565 L71.7388428,110.869565 L71.7388428,107.608696 C71.7388428,105.808696 70.2779791,104.347826 68.4779863,104.347826 L55.4345603,104.347826 Z" id="Shape"></path>
        </g>
    </g>
</svg>