<svg width="17px" height="17px" viewBox="0 0 17 17" version="1.1" xmlns="http://www.w3.org/2000/svg"
     xmlns:xlink="http://www.w3.org/1999/xlink">
  <g id="Email-notifications-(SP-1164)" stroke="none" stroke-width="1" fill="none" fill-rule="evenodd">
    <g id="Artboard" transform="translate(-3973.000000, -1013.000000)" fill="#7083A0" fill-rule="nonzero">
      <g id="Dropdown" transform="translate(3929.000000, 462.000000)">
        <g id="Group-4" transform="translate(29.000000, 482.000000)">
          <g id="Group-6" transform="translate(0.000000, 56.000000)">
            <g id="icons8-email-send" transform="translate(15.000000, 13.000000)">
              <path
                d="M16.2916667,0 C16.2236852,0.000466337055 16.1561249,0.0107168835 16.0910645,0.0304362333 C16.0719137,0.0356340664 16.0529897,0.0416343623 16.0343426,0.0484212417 L0.460693342,5.00122079 L0.460693342,5.00398754 C0.18399565,5.107239 0.000398372961,5.37133242 0,5.66666667 C0.000524749332,5.91403426 0.130058091,6.14320872 0.341715513,6.2712405 L5.07454392,10.0259604 L14.4309083,2.56909178 L6.97403962,11.9254561 L10.7259928,16.6555177 C10.8538514,16.8690801 11.0844222,17 11.3333333,17 C11.6286677,16.9996016 11.8927611,16.8160042 11.9960125,16.5393064 L11.9987792,16.5393064 L16.9557292,0.951822917 C16.9607943,0.937677465 16.9654082,0.923374433 16.9695636,0.908935529 C16.989283,0.843875182 16.9995336,0.776314847 17,0.708333333 C17,0.317131636 16.6828684,0 16.2916667,0 Z"
                id="Path"></path>
            </g>
          </g>
        </g>
      </g>
    </g>
  </g>
</svg>
