<?xml version="1.0" encoding="UTF-8"?>
<svg width="150px" height="150px" viewBox="0 0 150 150" version="1.1" xmlns="http://www.w3.org/2000/svg" xmlns:xlink="http://www.w3.org/1999/xlink">
    <!-- Generator: Sketch 53.2 (72643) - https://sketchapp.com -->
    <title>Settings (Navy)</title>
    <desc>Created with Sketch.</desc>
    <g id="Settings-(Navy)" stroke="none" stroke-width="1" fill="none" fill-rule="evenodd">
        <g id="icons8-settings" fill="#1F195E" fill-rule="nonzero">
            <path d="M75,0 C71.8153846,0 69.2307692,2.58461538 69.2307692,5.76923077 L69.2307692,6.76081731 C69.2307692,9.51850962 67.2888808,11.978906 64.5658038,12.4173681 C63.24465,12.630829 61.9368404,12.8780948 60.6445327,13.1723256 C57.9676096,13.783864 55.2604846,12.2682692 54.2104846,9.73557692 L53.8273731,8.83413462 C52.6100654,5.89182692 49.2371365,4.48981385 46.2890654,5.71289077 C43.3467548,6.93019846 41.9447417,10.303125 43.1678187,13.2512019 L43.5509313,14.17518 C44.6124698,16.7136421 43.7635817,19.7187802 41.421274,21.1726263 C40.2905048,21.8764725 39.18732,22.6138523 38.1084738,23.38116 C35.8700123,24.9792369 32.7735577,24.6155048 30.8293269,22.671274 L30.1307088,21.9726565 C27.8749396,19.7168867 24.222656,19.7168873 21.9726565,21.9726565 C19.7226565,24.2284258 19.7226565,27.8807094 21.9726565,30.1307088 L22.671274,30.8293269 C24.6155048,32.7735577 24.9792369,35.8642431 23.38116,38.1084738 C22.6138523,39.1873194 21.8764725,40.2905048 21.1726263,41.421274 C19.7187802,43.7635817 16.7081429,44.6179685 14.1639121,43.5621992 L13.2512019,43.1790865 C10.3088942,41.9617788 6.92469981,43.3580227 5.70162231,46.3003327 C4.48431519,49.2426404 5.88055904,52.6155635 8.82286673,53.8386404 L9.72430904,54.2104846 C12.2570013,55.2604846 13.783864,57.9676096 13.1723256,60.6445327 C12.8780948,61.9368404 12.6195612,63.24465 12.4060996,64.5658038 C11.9734073,67.2831115 9.51850962,69.2307692 6.76081731,69.2307692 L5.76923077,69.2307692 C2.58461538,69.2307692 0,71.8153846 0,75 C0,78.1846154 2.58461538,80.7692308 5.76923077,80.7692308 L6.76081731,80.7692308 C9.51850962,80.7692308 11.978906,82.7111192 12.4173681,85.4341962 C12.630829,86.75535 12.8780948,88.0631596 13.1723256,89.3554673 C13.783864,92.0323904 12.2682692,94.7395154 9.73557692,95.7895154 L8.83413462,96.1726269 C5.89182692,97.3899346 4.48981385,100.762863 5.71289077,103.710935 C6.93019846,106.653248 10.303125,108.055258 13.2512019,106.832181 L14.17518,106.449069 C16.7194108,105.3933 19.7242788,106.242185 21.1838942,108.578723 C21.8877404,109.709498 22.619351,110.818177 23.3924279,111.902792 C24.9905048,114.141254 24.6267727,117.23771 22.6825419,119.18194 L21.9726565,119.88056 C19.7168867,122.136329 19.7168873,125.78861 21.9726565,128.03861 C24.2284258,130.28861 27.8807088,130.294379 30.1307088,128.03861 L30.8405948,127.339996 C32.7848256,125.395765 35.8700123,125.020765 38.1084738,126.618842 C39.1930892,127.391919 40.3017727,128.134794 41.4325419,128.83864 C43.7690804,130.292487 44.6292369,133.303125 43.5734677,135.847356 L43.1903544,136.760065 C41.9730467,139.702373 43.3692912,143.086569 46.3116,144.309646 C49.2539077,145.526954 52.6268308,144.130708 53.8499077,141.1884 L54.2217577,140.286958 C55.2717577,137.754265 57.9788769,136.227404 60.6558,136.838942 C61.9481077,137.133173 63.2559173,137.391704 64.5770712,137.605165 C67.2828404,138.026319 69.2307692,140.48149 69.2307692,143.239183 L69.2307692,144.230769 C69.2307692,147.415385 71.8153846,150 75,150 C78.1846154,150 80.7692308,147.415385 80.7692308,144.230769 L80.7692308,143.239183 C80.7692308,140.48149 82.7111192,138.021092 85.4341962,137.582631 C86.75535,137.369169 88.0631596,137.121906 89.3554673,136.827675 C92.0323904,136.216137 94.7395154,137.731731 95.7895154,140.264423 L96.1726269,141.165865 C97.3899346,144.108173 100.762863,145.510188 103.710935,144.287112 C106.653248,143.069804 108.055258,139.696875 106.832181,136.748798 L106.449069,135.824821 C105.3933,133.28059 106.242185,130.275721 108.578723,128.816106 C109.709498,128.11226 110.818177,127.380646 111.902792,126.607569 C114.141254,125.009492 117.23771,125.373225 119.18194,127.317456 L119.88056,128.027342 C122.136329,130.283112 125.78861,130.283112 128.03861,128.027342 C130.28861,125.771573 130.294379,122.119292 128.03861,119.869292 L127.339996,119.159406 C125.395765,117.215175 125.020765,114.129987 126.618842,111.891525 C127.391919,110.80691 128.134794,109.698225 128.83864,108.567456 C130.292487,106.230917 133.303125,105.370765 135.847356,106.426535 L136.760065,106.809646 C139.702373,108.026954 143.086569,106.630708 144.309646,103.6884 C145.526954,100.746092 144.130708,97.3731692 141.1884,96.1500923 L140.286958,95.7782423 C137.754265,94.7282481 136.227404,92.0211231 136.838942,89.3442 C137.133173,88.0518923 137.391704,86.7440827 137.605165,85.4229288 C138.026319,82.7171596 140.48149,80.7692308 143.239183,80.7692308 L144.230769,80.7692308 C147.415385,80.7692308 150,78.1846154 150,75 C150,71.8153846 147.415385,69.2307692 144.230769,69.2307692 L143.239183,69.2307692 C140.48149,69.2307692 138.021092,67.2888808 137.582631,64.5658038 C137.369169,63.24465 137.121906,61.9368404 136.827675,60.6445327 C136.216137,57.9676096 137.731731,55.2604846 140.264423,54.2104846 L141.165865,53.8273731 C144.108173,52.6100654 145.510188,49.2371365 144.287112,46.2890654 C143.069804,43.3467548 139.696875,41.9447417 136.748798,43.1678187 L135.824821,43.5509313 C133.28059,44.6067006 130.275721,43.7578125 128.816106,41.421274 C128.11226,40.2905048 127.380646,39.1818208 126.607569,38.0972054 C125.009492,35.8587438 125.373225,32.7622898 127.317456,30.818059 L128.027342,30.119441 C130.283112,27.8636717 130.283112,24.2113881 128.027342,21.9613881 C125.771573,19.7056188 122.119292,19.7056188 119.869292,21.9613881 L119.170673,22.671274 C117.226442,24.6155048 114.129987,24.9905048 111.891525,23.3924279 C110.80691,22.619351 109.698225,21.8764725 108.567456,21.1726263 C106.230917,19.7187802 105.382033,16.7081429 106.437802,14.1639121 L106.820913,13.2512019 C108.038221,10.3088942 106.641975,6.92469923 103.699667,5.70162231 C100.75736,4.48431519 97.3844365,5.88055904 96.1613596,8.82286673 L95.7782423,9.72430904 C94.7282481,12.2570013 92.0211231,13.783864 89.3442,13.1723256 C88.0518923,12.8780948 86.7440827,12.6195612 85.4229288,12.4060996 C82.7113904,11.9734073 80.7692308,9.51850962 80.7692308,6.76081731 L80.7692308,5.76923077 C80.7692308,2.58461538 78.1846154,0 75,0 Z M75,28.8461538 C98.5306442,28.8461538 117.914919,46.4704385 120.759467,69.2307692 L84.9722077,69.2307692 C82.9147071,65.6670588 79.1150077,63.4688151 75,63.4615385 C74.9962442,63.4615366 74.9924885,63.4615366 74.9887327,63.4615385 L57.0951,32.4519231 C62.6019173,30.1311288 68.6492942,28.8461538 75,28.8461538 Z M47.1341654,38.266226 L65.016525,69.2307692 C64.0006238,70.9839527 63.4643124,72.9737473 63.4615385,75 C63.4682604,77.0186068 64.0044364,79.0001294 65.016525,80.7466962 L47.1228981,111.722504 C36.0370719,103.292285 28.8461538,90.0004096 28.8461538,75 C28.8461538,59.9939135 36.0411756,46.6959288 47.1341654,38.266226 Z M84.983475,80.7692308 L120.759467,80.7692308 C117.914919,103.529562 98.5306442,121.153846 75,121.153846 C68.6492942,121.153846 62.6019173,119.868871 57.0951,117.548077 L74.9887327,86.5384615 C74.9924885,86.5384634 74.9962442,86.5384634 75,86.5384615 C79.1190346,86.535203 82.9239584,84.3364212 84.983475,80.7692308 Z" id="Shape"></path>
        </g>
    </g>
</svg>