<?xml version="1.0" encoding="UTF-8"?>
<svg width="26px" height="28px" viewBox="0 0 26 28" version="1.1" xmlns="http://www.w3.org/2000/svg" xmlns:xlink="http://www.w3.org/1999/xlink">
    <!-- Generator: Sketch 53.2 (72643) - https://sketchapp.com -->
    <title>Shape</title>
    <desc>Created with Sketch.</desc>
    <g id="Web---1.5" stroke="none" stroke-width="1" fill="none" fill-rule="evenodd">
        <g id="Accounts" transform="translate(-879.000000, -99.000000)" fill="#7F879D" fill-rule="nonzero">
            <g id="Group" transform="translate(840.000000, 68.000000)">
                <g id="icons8-security_shield_green" transform="translate(39.000000, 31.000000)">
                    <path d="M12.9999998,0 C7.56127264,0 1.90429682,1.20996097 1.90429682,1.20996097 L1.8996804,1.2145182 C0.795969815,1.43262948 0.00118637734,2.38882352 0,3.5 L0,10.5 C0,22.631 11.8435719,27.7014978 11.8435719,27.7014978 C12.1967746,27.8971637 12.5949836,27.9999511 12.9999998,28 C13.4034512,27.9991717 13.7999726,27.8964096 14.1518105,27.7014978 L14.1564278,27.7014978 C14.1576096,27.7014978 25.9999997,22.631 25.9999997,10.5 L25.9999997,3.5 C26.0005756,2.38570415 25.2029504,1.42650865 24.095703,1.20996097 C24.095703,1.20996097 18.4387271,0 12.9999998,0 Z M13,5 C14.986,5 16.6,6.56916667 16.6,8.5 L16.6,10.8333333 L17.8,10.8333333 C18.4624,10.8333333 19,11.356 19,12 L19,17.8333333 C19,18.4773333 18.4624,19 17.8,19 L8.2,19 C7.5376,19 7,18.4773333 7,17.8333333 L7,12 C7,11.356 7.5376,10.8333333 8.2,10.8333333 L9.4,10.8333333 L9.4,8.5 C9.4,6.56916667 11.014,5 13,5 Z M13,7 C12.449,7 12,7.59866667 12,8.33333333 L12,11 L14,11 L14,8.33333333 C14,7.59866667 13.551,7 13,7 Z" id="Shape"></path>
                </g>
            </g>
        </g>
    </g>
</svg>