<svg xmlns="http://www.w3.org/2000/svg" width="19" height="14" viewBox="0 0 19 14">
  <path fill="rgb(112,131,160)" fill-rule="evenodd" d="M15.26794434 0C14.70605469 0 14.25.42764282 14.25.95455933v.07330322L6.7857666 3.18182373v6.36361694L14.25 11.69940186v.07333374c0 .52688598.45605469.9545288 1.01794434.9545288.56176757 0 1.01782226-.42764282 1.01782226-.9545288V.95455933C16.2857666.42764283 15.82971191 0 15.26794434 0zM5.42858887 3.30859375l-4.20666504.39523315C.52844238 3.7687378 0 4.3161621 0 4.97033691V7.7569275c0 .6541748.52844238 1.20159912 1.22192383 1.26651001l1.6488037.15536499.78051759 4.29171753C3.70629882 13.77661132 3.98876953 14 4.31921387 14H4.75c.37451172 0 .67858887-.28509521.67858887-.63635254l-.00268555-3.9449768h.00268555V3.30859374zm12.2142334 4.64596558V4.7727356l.32873535.07705688C18.57543945 4.99169922 19 5.50106812 19 6.0852356v.55807495c0 .5835266-.42456055 1.09228515-1.02844238 1.2341919l-.32873535.07705688z"/>
</svg>
