<?xml version="1.0" encoding="UTF-8"?>
<svg width="40px" height="40px" viewBox="0 0 40 40" version="1.1" xmlns="http://www.w3.org/2000/svg">
    <title>Group 2</title>
    <defs>
        <radialGradient cx="10.9889034%" cy="0%" fx="10.9889034%" fy="0%" r="125.283021%" id="radialGradient-1">
            <stop stop-color="#15D593" offset="0%"></stop>
            <stop stop-color="#00B467" offset="100%"></stop>
        </radialGradient>
    </defs>
    <g id="Teacher-view-refresh-(SP-1153)" stroke="none" stroke-width="1" fill="none" fill-rule="evenodd">
        <g id="Teacher-Hall-Monitor" transform="translate(-16.000000, -12.000000)">
            <g id="Group-2" transform="translate(16.000000, 12.000000)">
                <circle id="Oval" fill="url(#radialGradient-1)" cx="20" cy="20" r="20"></circle>
                <path d="M27.9923987,23.5070454 L20.9899015,30.6350263 C20.0392824,31.6026805 18.5023187,31.6070518 17.5569971,30.6447902 C16.6116755,29.6825286 16.6159701,28.118023 17.5665892,27.1503688 L24.5690865,20.022388 L17.5226015,12.8496312 C16.5719824,11.8819771 16.5676878,10.3174713 17.5130094,9.35520973 C18.458331,8.39294815 19.9952947,8.39731961 20.9459138,9.36497371 L29.7384105,18.3150305 C30.6744048,19.2677976 30.6786332,20.808234 29.7478549,21.7556916 L28.0098657,23.5248254 L27.9923987,23.5070454 Z M17.8160504,23.4495533 L14.013015,27.0002292 C12.9828483,27.9620369 11.3218678,27.9706727 10.3031111,27.0195182 C9.28435438,26.0683635 9.29360415,24.5176013 10.3237708,23.5557937 L14.1268063,20.0051177 L10.312808,16.4442063 C9.2826413,15.4823987 9.27339154,13.9316365 10.2921482,12.9804819 C11.3109047,12.0293272 12.9718855,12.0379632 14.0020521,12.9997707 L19.6764451,18.2976257 C20.690763,19.2446362 20.6998704,20.7715406 19.696787,21.7080621 L17.823786,23.4567755 L17.8160504,23.4495533 Z" id="Arrow" fill="#FFFFFF" fill-rule="nonzero"></path>
            </g>
        </g>
    </g>
</svg>
