<?xml version="1.0" encoding="UTF-8"?>
<svg width="150px" height="150px" viewBox="0 0 150 150" version="1.1" xmlns="http://www.w3.org/2000/svg" xmlns:xlink="http://www.w3.org/1999/xlink">
    <!-- Generator: Sketch 53.2 (72643) - https://sketchapp.com -->
    <title>Sort (Jade)</title>
    <desc>Created with Sketch.</desc>
    <g id="Sort-(Jade)" stroke="none" stroke-width="1" fill="none" fill-rule="evenodd">
        <g id="icons8-sorting_arrows" transform="translate(0.000000, 6.000000)" fill="#7F879D" fill-rule="nonzero">
            <path d="M31.2052814,0.000584088067 C29.2855447,0.0318955992 27.486934,0.948001394 26.3283674,2.48459541 L1.91941297,26.9820851 C0.288667085,28.5534825 -0.368227856,30.8869008 0.202067459,33.0824299 C0.772362773,35.277959 2.48073448,36.9925272 4.66832882,37.564891 C6.85592316,38.1372549 9.1809085,37.4779773 10.7466267,35.8413165 L25.0603697,21.4756561 L25.0603697,81.5324384 C25.0285314,83.7918557 26.2113233,85.8934523 28.1558312,87.0324859 C30.100339,88.1715195 32.5053003,88.1715195 34.4498082,87.0324859 C36.3943161,85.8934523 37.5771079,83.7918557 37.5452696,81.5324384 L37.5452696,21.4756561 L51.8590138,35.8413165 C53.4247281,37.4779955 55.7497224,38.1372869 57.937328,37.5649252 C60.1249336,36.9925635 61.8333139,35.2779863 62.4036064,33.0824458 C62.973899,30.8869053 62.3169896,28.553478 60.6862251,26.9820851 L36.240695,2.44788573 C35.0407576,0.880715724 33.1744005,-0.0263674144 31.2052814,0.000584088067 Z M118.697119,0.0862398021 C115.249509,0.0862398021 112.454669,2.89121712 112.454669,6.351332 C112.454669,9.81144688 115.249509,12.6164242 118.697119,12.6164242 C122.144729,12.6164242 124.939569,9.81144688 124.939569,6.351332 C124.939569,2.89121712 122.144729,0.0862398021 118.697119,0.0862398021 Z M118.697119,25.1466086 C115.249509,25.1466086 112.454669,27.9515859 112.454669,31.4117008 C112.454669,34.8718157 115.249509,37.676793 118.697119,37.676793 C122.144729,37.676793 124.939569,34.8718157 124.939569,31.4117008 C124.939569,27.9515859 122.144729,25.1466086 118.697119,25.1466086 Z M118.599581,50.1213211 C115.156768,50.1753329 112.407522,53.0166716 112.454669,56.4720696 L112.454669,116.528855 L98.1409248,102.163193 C96.9656524,100.950691 95.3518285,100.266629 93.6663554,100.26653 C91.1261585,100.267201 88.8396375,101.812477 87.883782,104.174509 C86.9279264,106.536541 87.4933439,109.244314 89.3137135,111.022422 L113.734858,135.532151 C114.912436,137.082958 116.742245,137.995185 118.685005,137.999981 C120.627764,138.004777 122.462023,137.101596 123.647188,135.556623 C123.655359,135.544416 123.663487,135.53218 123.671571,135.519916 L148.080524,111.022422 C149.711307,109.451033 150.36823,107.117596 149.79794,104.922045 C149.227649,102.726493 147.51926,101.011907 145.331643,100.439548 C143.144026,99.8671891 140.819023,100.526495 139.253313,102.163193 L124.939569,116.528855 L124.939569,56.4720696 C124.962675,54.7786131 124.301736,53.1478953 123.10735,51.9514815 C121.912963,50.7550678 120.286869,50.0948715 118.599581,50.1213211 Z M31.3028197,100.327715 C27.8552097,100.327715 25.0603697,103.132692 25.0603697,106.592807 C25.0603697,110.052922 27.8552097,112.857899 31.3028197,112.857899 C34.7504296,112.857899 37.5452696,110.052922 37.5452696,106.592807 C37.5452696,103.132692 34.7504296,100.327715 31.3028197,100.327715 Z M31.3028197,125.388084 C27.8552097,125.388084 25.0603697,128.193061 25.0603697,131.653176 C25.0603697,135.113291 27.8552097,137.918268 31.3028197,137.918268 C34.7504296,137.918268 37.5452696,135.113291 37.5452696,131.653176 C37.5452696,128.193061 34.7504296,125.388084 31.3028197,125.388084 Z" id="Shape"></path>
        </g>
    </g>
</svg>