<?xml version="1.0" encoding="UTF-8"?>
<svg width="150px" height="150px" viewBox="0 0 150 150" version="1.1" xmlns="http://www.w3.org/2000/svg" xmlns:xlink="http://www.w3.org/1999/xlink">
    <!-- Generator: Sketch 53.2 (72643) - https://sketchapp.com -->
    <title>SP Arrow (Jade)</title>
    <desc>Created with Sketch.</desc>
    <g id="SP-Arrow-(Jade)" stroke="none" stroke-width="1" fill="none" fill-rule="evenodd">
        <g id="Logo" transform="translate(3.000000, 0.000000)" fill="#00B476" fill-rule="nonzero">
            <path d="M127.685045,98.1464997 L80.6403711,145.191173 C74.2538542,151.57769 63.9281157,151.606542 57.5771895,145.255616 C51.226263,138.904689 51.2551148,128.578951 57.6416316,122.192434 L104.686305,75.1477605 L57.3461108,27.8075658 C50.9595937,21.4210488 50.9307419,11.0953107 57.2816684,4.74438419 C63.6325949,-1.60654219 73.9583331,-1.57769053 80.34485,4.80882648 L139.415225,63.8792012 C145.703488,70.1674642 145.731895,80.3343446 139.478676,86.5875648 L127.802392,98.2638476 L127.685045,98.1464997 Z M51.229003,99.7185895 L27.7048949,123.242698 C21.3326816,129.614911 11.0584973,129.672126 4.7568622,123.370491 C-1.54477286,117.068856 -1.48755764,106.794672 4.88465572,100.422458 L28.4087639,76.8983503 L4.81684319,53.3064295 C-1.55537032,46.934216 -1.61258544,36.6600316 4.68904964,30.3583967 C10.9906847,24.0567616 21.2648689,24.1139768 27.6370822,30.4861904 L62.7366843,65.5857925 C69.0108639,71.859972 69.0671988,81.9760916 62.862512,88.1807786 L51.2768521,99.7664383 L51.229003,99.7185895 Z" id="Arrow"></path>
        </g>
    </g>
</svg>