<svg width="24" height="27" viewBox="0 0 24 27" fill="none" xmlns="http://www.w3.org/2000/svg">
<path opacity="0.8" fill-rule="evenodd" clip-rule="evenodd" d="M13.1492 25.2507L21.1869 17.069L21.2069 17.0894L23.2019 15.0587C24.2702 13.9712 24.2654 12.203 23.191 11.1094L13.0988 0.836318C12.0076 -0.274381 10.2434 -0.279399 9.15838 0.825111C8.07331 1.92962 8.07824 3.7254 9.16939 4.8361L17.2575 13.0692L9.21988 21.2509C8.12873 22.3616 8.1238 24.1573 9.20887 25.2619C10.2939 26.3664 12.0581 26.3613 13.1492 25.2507ZM4.71261 21.0784L8.71407 17.0028L8.72221 17.0111L10.6929 15.0039C11.7483 13.9289 11.7388 12.1763 10.6715 11.0893L4.70107 5.00827C3.61716 3.90428 1.86952 3.89437 0.797609 4.98613C-0.274301 6.07789 -0.264569 7.8579 0.819346 8.96189L4.83234 13.0492L0.830881 17.1248C-0.253034 18.2287 -0.262766 20.0087 0.809143 21.1005C1.88105 22.1923 3.62869 22.1824 4.71261 21.0784Z" fill="url(#paint0_linear_462_1254)"/>
<defs>
<linearGradient id="paint0_linear_462_1254" x1="12" y1="0" x2="12" y2="39" gradientUnits="userSpaceOnUse">
<stop stop-color="white"/>
<stop offset="1" stop-color="white" stop-opacity="0"/>
</linearGradient>
</defs>
</svg>
