<?xml version="1.0" encoding="UTF-8"?>
<svg width="217px" height="183px" viewBox="0 0 217 183" version="1.1" xmlns="http://www.w3.org/2000/svg" xmlns:xlink="http://www.w3.org/1999/xlink">
    <!-- Generator: Sketch 53.2 (72643) - https://sketchapp.com -->
    <title>undraw_superhero_kguv</title>
    <desc>Created with Sketch.</desc>
    <defs>
        <linearGradient x1="50.0040125%" y1="99.9934854%" x2="50.0040125%" y2="0.001584447%" id="linearGradient-1">
            <stop stop-color="#808080" stop-opacity="0.25" offset="0%"></stop>
            <stop stop-color="#808080" stop-opacity="0.12" offset="54%"></stop>
            <stop stop-color="#808080" stop-opacity="0.1" offset="100%"></stop>
        </linearGradient>
        <path d="M5.63705521,11.6670701 C5.63705521,11.6670701 17.7366258,15.3065817 34.6788957,9.84611465 C51.6211656,4.38564756 86.7115951,17.7321231 86.7115951,17.7321231 C86.7115951,17.7321231 114.542761,17.7321231 155.686564,0.139150743 C155.686564,0.139150743 136.930675,18.3391083 150.24092,29.2600425 C163.551166,40.1809766 151.451595,55.9529936 135.72,62.0204459 C119.988405,68.0878981 118.780123,80.2204034 119.988405,91.7483227 C121.196687,103.276242 119.988405,92.3553079 119.988405,92.3553079 C119.988405,92.3553079 72.7960123,83.8623142 60.6940491,112.988004 L0.796748466,18.3415074 C0.796748466,18.3415074 -2.83288344,11.0624841 5.63705521,11.6670701 Z" id="path-2"></path>
    </defs>
    <g id="Web---1.5" stroke="none" stroke-width="1" fill="none" fill-rule="evenodd">
        <g id="Getting-Started" transform="translate(-883.000000, -165.000000)">
            <g id="undraw_superhero_kguv" transform="translate(883.000000, 165.000000)">
                <path d="M211.149281,55.4989204 C210.512405,54.9752479 209.917432,54.401606 209.369907,53.7833384 C209.369907,53.9307335 209.369907,54.0781286 209.369907,54.2255236 C205.024312,49.7456801 205.177376,44.3186421 206.95675,39.3676177 L207.545092,39.1477332 C210.338517,31.68616 216.740915,25.4279105 216.740915,25.4279105 L215.784263,25.833851 C216.080825,25.524563 216.250631,25.3505885 216.250631,25.3505885 C176.549546,42.4604977 148.9262,43.4584348 145.845778,43.5164263 C143.946823,42.7915326 128.300769,37.035876 113.164132,34.8901905 C108.402393,34.1918761 103.674138,33.8415108 99.4265999,34.1121378 L94.6576864,13.4260859 L94.5668044,13.4816611 C94.3443826,11.7080877 93.5192697,7.84682021 90.5010306,5.45225445 C86.4711312,2.27238711 89.472629,16.9031597 89.472629,16.9031597 L89.8026741,16.7460994 L91.4911661,35.1680664 L90.6684448,35.8639644 C85.8976937,37.3007304 80.9745025,38.1581203 76.0029595,38.4180068 C76.9197004,37.5613442 77.6749395,36.5436941 78.2319602,35.4145303 C78.8821993,35.5500847 79.5564348,35.3478129 80.0280756,34.8756926 C80.184748,34.70915 80.3175764,34.5212713 80.4226948,34.3175244 C80.642325,33.9589833 80.8189527,33.5753148 80.9488538,33.1746085 C81.9389893,30.487669 83.0200068,27.7934805 83.3404854,24.9470643 C83.6609641,22.100648 83.1348051,19.0126006 81.2382412,16.8789966 C79.3416773,14.7453926 75.883378,13.9335116 73.5611036,15.5814367 C72.9608041,16.0067078 72.4513865,16.5721249 71.7912962,16.8959108 C69.779934,17.87935 67.5485417,16.2845837 65.6758941,15.0522643 C63.4995093,13.6193909 60.6247681,12.5924581 58.3694594,13.8924343 C57.6654872,14.3059689 57.0866266,14.9058418 56.6953173,15.6273467 C56.0767746,16.6178081 55.7861284,17.7813894 55.8654211,18.9497765 C55.9945692,20.8272513 56.9966628,22.5742453 58.3383682,23.8693888 C58.789016,24.3471705 59.343268,24.712765 59.9575028,24.937399 C60.1138148,24.9859332 60.2737885,25.0214906 60.4358292,25.0437168 C58.9250005,27.3532937 58.3862916,30.1754896 58.9386677,32.8870674 L58.1039883,37.9903195 C57.3625825,38.3406848 56.9488302,39.1066559 56.7168419,39.8557128 C53.2274514,39.9596142 49.6567453,42.3759268 49.6567453,42.3759268 L35.9431295,56.2310631 C32.3867732,58.6691225 34.7999295,63.1586312 34.7999295,63.1586312 L42.7999374,87.4063278 L43.2423893,87.0728767 C44.8830486,90.0932674 49.6997947,98.4295458 50.6253561,94.2734881 C51.7565979,89.2378927 48.2337245,84.6662294 48.2337245,84.6662294 L48.1906751,84.6662294 L47.2794635,83.4822362 L43.9311792,65.4565445 L48.1667588,61.2062506 L53.8588421,60.3677902 L54.1123551,97.6925704 C43.6991909,125.405259 44.9691473,138.105398 44.9691473,138.105398 L54.1123551,172.745655 L55.2794713,172.549934 L55.5616839,173.690433 L55.664524,173.654189 L56.1715499,176.210647 L55.2579466,176.210647 L54.1147467,179.67564 C54.1147467,179.67564 48.2743822,179.547575 48.4011387,180.830637 C48.5278952,182.113699 51.703982,184.295629 59.8307463,181.985634 L62.1171462,179.67564 C62.1171462,179.67564 63.2603461,178.520642 60.9739463,176.210647 L60.8113153,176.210647 L60.1775329,171.725971 L60.9739463,171.590658 L54.1123551,136.943152 C59.8259631,132.195098 70.1123708,113.850453 70.1123708,113.850453 C70.1123708,113.850453 80.3963869,132.197514 86.1123865,136.943152 L79.2555786,171.580992 L80.0519919,171.716306 L79.4277761,176.200982 L79.2651451,176.200982 C76.9787452,178.510977 78.1219452,179.665974 78.1219452,179.665974 L80.408345,181.975969 C88.5398926,184.285964 91.7111962,182.104034 91.8379527,180.820972 C91.9647091,179.53791 86.1243447,179.665974 86.1243447,179.665974 L84.9811447,176.200982 L84.0675414,176.200982 L84.7252401,172.876136 L84.8424301,172.520938 L86.1243447,172.73599 L95.2675524,138.095733 C95.2675524,138.095733 95.0977466,118.081416 86.2200099,93.0629155 L104.458593,118.902962 L118.889698,141.89176 C119.653211,140.032661 120.592703,138.25243 121.695082,136.575872 L132.136946,126.719733 C144.274476,119.424886 160.477781,118.987533 170.484368,119.589195 L179.711283,120.596797 L184.049702,97.5065144 C186.577657,94.217913 190.330127,91.381162 195.785439,89.2596396 C207.10264,84.8619507 216.592634,75.5253189 216.516102,66.4472326 C216.681125,66.6332887 216.841364,66.8193447 216.994428,67.0078171 C217.111618,62.9919056 215.387252,59.0049899 211.149281,55.4989204 Z M85.8851815,89.750151 L85.8732233,89.32488 L86.3993823,90.1609241 L85.8851815,89.750151 Z" id="Shape" fill="url(#linearGradient-1)" fill-rule="nonzero"></path>
                <path d="M51.4397112,84.6227196 L51.3964244,84.6227196 L49.3547291,82 L46.0505013,85.2909742 L46.4160345,85.8370748 L46,85.9376722 C46,85.9376722 52.6685761,98.7662443 53.7796047,93.8968479 C54.8906332,89.0274515 51.4397112,84.6227196 51.4397112,84.6227196 Z" id="Path" fill="#FDB797" fill-rule="nonzero"></path>
                <path d="M63.6161453,39.5433595 C63.6161453,39.5433595 75.721624,43.1877458 92.6721667,37.7199651 C109.622709,32.2521845 144.730273,45.6165359 144.730273,45.6165359 C144.730273,45.6165359 172.575028,45.6165359 213.738922,28 C213.738922,28 194.973874,46.224334 208.290619,57.1598954 C221.607364,68.0954568 209.501885,83.8885983 193.762608,89.9641771 C178.023332,96.0397559 176.814459,108.188511 178.023332,119.731871 C179.232204,131.27523 178.023332,120.339669 178.023332,120.339669 C178.023332,120.339669 130.807895,111.8353 118.700023,141 L58.7734751,46.2267364 C58.7734751,46.2267364 55.1420709,38.9379637 63.6161453,39.5433595 Z" id="83eae6ee-46c5-4585-a2a2-a187faac01c1" fill="#00B476" fill-rule="nonzero"></path>
                <g id="Clipped" transform="translate(94.000000, 45.000000)">
                    <mask id="mask-3" fill="white">
                        <use xlink:href="#path-2"></use>
                    </mask>
                    <g id="c8ed4358-d450-436c-89b2-67b880a93208"></g>
                    <g id="Group" mask="url(#mask-3)" fill="#000000" fill-rule="nonzero" opacity="0.1">
                        <g transform="translate(-59.576687, -23.511677)" id="Path">
                            <polygon points="0.11006135 0.0431847134 150.762515 108.638344 159.837791 81.9453928"></polygon>
                            <polygon points="9.18533742 34.0175584 92.6788344 118.952293 104.780798 109.852314"></polygon>
                        </g>
                    </g>
                </g>
                <g id="Group" opacity="0.1" transform="translate(58.000000, 28.000000)" fill="#000000" fill-rule="nonzero">
                    <path d="M8.70441718,20.4563314 C8.70441718,20.4563314 20.8039877,24.1366272 37.7462577,18.6149704 C54.6885276,13.0933136 89.7741718,26.5917751 89.7741718,26.5917751 C89.7741718,26.5917751 112.288896,26.5917751 146.752454,13.6464497 C149.477669,6.33923077 155.722454,0.211065089 155.722454,0.211065089 C114.56908,18.0011834 86.7474847,18.0011834 86.7474847,18.0011834 C86.7474847,18.0011834 51.6546626,4.50514793 34.7147853,10.0268047 C17.774908,15.5484615 5.67294479,11.8681657 5.67294479,11.8681657 C-2.79699387,11.2543787 0.832638037,18.6173964 0.832638037,18.6173964 L3.32337423,22.5985207 C3.84257669,21.2569231 5.2901227,20.2088757 8.70441718,20.4563314 Z" id="Path"></path>
                    <path d="M150.283988,29.658284 C149.662222,29.1451112 149.081397,28.5829493 148.546933,27.9770414 C148.40816,31.5991124 149.640368,35.2017751 153.308282,38.2464497 C154.285799,39.0483372 155.181901,39.9471948 155.983252,40.929645 C156.100491,36.9946154 154.418466,33.0886982 150.283988,29.658284 Z" id="Path"></path>
                </g>
                <polygon id="Path" fill="#FDB797" fill-rule="nonzero" points="86 169.285014 84.8005148 175 80 175 81.2020592 167"></polygon>
                <polygon id="Path" fill="#000000" fill-rule="nonzero" opacity="0.1" points="86 170 85.6675127 171 81 169.667513 81.3324873 169"></polygon>
                <polygon id="Path" fill="#FDB797" fill-rule="nonzero" points="57 169.285014 58.2 175 63 175 61.8 167"></polygon>
                <polygon id="Path" fill="#000000" fill-rule="nonzero" opacity="0.1" points="57 169.857454 57.3323186 171 62 169.572361 62 169"></polygon>
                <path d="M96,16.7162662 C96,16.7162662 95.857103,11.3654115 91.347603,8.41969267 C86.838103,5.47397385 90.2126709,19 90.2126709,19 L96,16.7162662 Z" id="Path" fill="#FDB797" fill-rule="nonzero"></path>
                <path d="M62.5716385,174 L56.8581927,174 L55.7155036,177.573752 C55.7155036,177.573752 49.8745473,177.441013 50.0020577,178.763301 C50.1295681,180.08559 53.3026148,182.337053 61.4289494,179.95285 L63.7143277,177.573752 C63.7143277,177.573752 64.8570169,176.379098 62.5716385,174 Z" id="Path" fill="#333333" fill-rule="nonzero"></path>
                <path d="M81.4283615,174 L87.1418073,174 L88.2844964,177.573752 C88.2844964,177.573752 94.1254527,177.441013 93.9979423,178.763301 C93.8704319,180.08559 90.6973852,182.337053 82.5710506,179.95285 L80.2856723,177.573752 C80.2856723,177.573752 79.1429831,176.379098 81.4283615,174 Z" id="Path" fill="#333333" fill-rule="nonzero"></path>
                <path d="M87.0592477,98 L55.940086,98 C45.8119271,124.950918 47.0475339,137.304727 47.0475339,137.304727 L55.940086,170.992771 L62.6190414,169.869917 L55.940086,136.189101 C61.4979311,131.572386 71.5044375,113.729601 71.5044375,113.729601 C71.5044375,113.729601 81.5061733,131.562748 87.0592477,136.189101 L80.3802923,169.877145 L87.0592477,171 L95.9517999,137.311955 C95.9517999,137.311955 97.1945627,124.950918 87.0592477,98 Z" id="Path" fill="#333333" fill-rule="nonzero"></path>
                <path d="M56,97 C56,97 74.1469844,103.75 88,97 L56,97 Z" id="Path" fill="#000000" fill-rule="nonzero" opacity="0.1"></path>
                <path d="M54.9935932,56.1912934 L46.3717063,65.317623 L49.6095394,83.5727303 L45.298596,87 L37.754445,63.0409367 C37.754445,63.0409367 35.4787109,58.6050705 38.8321809,56.1863973 L51.7673238,42.4944548 C51.7673238,42.4944548 57.3178947,38.5579907 61.1339122,40.5751838 C64.9499297,42.5923768 54.9195855,56.0468585 54.9195855,56.0468585" id="Path" fill="#3AD29F" fill-rule="nonzero"></path>
                <path d="M55,57.5409384 L56.1200732,97.9991647 C56.1200732,97.9991647 73.9066438,104.751044 87.4845272,97.9991647 L86.364454,59.9137417 L86.0784267,58.6549985 L86.2851355,58.0352724 L99.7452429,46.8367981 C103.434755,44.7991773 101.485443,40.2271903 101.485443,40.2271903 L95.8610405,16 L91.0851059,18.9370676 L92.7676194,37.1526738 L83.1821,45.1295371 L82.9417409,45.1174802 L82.9417409,45.1777648 L58.369834,44.0564706" id="Path" fill="#3AD29F" fill-rule="nonzero"></path>
                <rect id="Rectangle" fill="#FDB797" fill-rule="nonzero" x="67" y="37" width="9" height="11" rx="4.5"></rect>
                <path d="M67,42.3709368 C69.9966748,43.4940994 73.306129,43.0994355 76,41.2976558 C75.327662,39.3223049 73.5794306,38.00608 71.62,38 L71.62,38 C69.2770784,38.0086153 67.3019367,39.8772774 67,42.3709368 L67,42.3709368 Z" id="Path" fill="#000000" fill-rule="nonzero" opacity="0.1"></path>
                <circle id="Oval" fill="#FDB797" fill-rule="nonzero" cx="70.5" cy="31.5" r="9.5"></circle>
                <path d="M63.7065559,26.547982 C63.1008098,26.6297895 62.4862062,26.5926745 61.8928971,26.4384577 C61.3105209,26.2119596 60.7851947,25.8438598 60.3582628,25.3631289 C59.0840512,24.0538164 58.1353681,22.306407 58.0121323,20.4196032 C57.8888966,18.5327993 58.7096934,16.533982 60.2373522,15.5980477 C62.3765395,14.2937136 65.1040033,15.3242371 67.1664589,16.7629873 C68.9405892,18.0075808 71.0588497,19.6031498 72.9655166,18.6149425 C73.5909964,18.2913482 74.0746387,17.7213243 74.6443136,17.2956733 C76.8462814,15.6403638 80.1248185,16.4568172 81.9222008,18.6000074 C83.7195832,20.7431975 84.2241524,23.8447247 83.9149003,26.7072899 C83.6056482,29.5698552 82.5825587,32.2756016 81.6431764,34.9738805 C81.4969936,35.5063121 81.2491705,36.0004665 80.9153877,36.4250766 C79.7713875,37.6821161 77.629875,36.7063547 76.876509,35.1481236 C75.5674194,32.4373988 76.876509,27.7378134 73.7839883,26.1571796 C71.3215977,24.9026293 66.3503124,26.3637821 63.7065559,26.547982 Z" id="Path" fill="#000000" fill-rule="nonzero" opacity="0.1"></path>
                <path d="M63.7065559,26.547982 C63.1008098,26.6297895 62.4862062,26.5926745 61.8928971,26.4384577 C61.3105209,26.2119596 60.7851947,25.8438598 60.3582628,25.3631289 C59.0840512,24.0538164 58.1353681,22.306407 58.0121323,20.4196032 C57.8888966,18.5327993 58.7096934,16.533982 60.2373522,15.5980477 C62.3765395,14.2937136 65.1040033,15.3242371 67.1664589,16.7629873 C68.9405892,18.0075808 71.0588497,19.6031498 72.9655166,18.6149425 C73.5909964,18.2913482 74.0746387,17.7213243 74.6443136,17.2956733 C76.8462814,15.6403638 80.1248185,16.4568172 81.9222008,18.6000074 C83.7195832,20.7431975 84.2241524,23.8447247 83.9149003,26.7072899 C83.6056482,29.5698552 82.5686074,32.2756016 81.638526,34.9738805 C81.4923432,35.5063121 81.2445201,36.0004665 80.9107373,36.4250766 C79.7667371,37.6821161 77.6252246,36.7063547 76.8718586,35.1481236 C75.562769,32.4373988 76.8718586,27.7378134 73.7793379,26.1571796 C71.3285733,24.9026293 66.3479872,26.3662713 63.7065559,26.547982 Z" id="Path" fill="#333333" fill-rule="nonzero"></path>
                <ellipse id="Oval" fill="#FDB797" fill-rule="nonzero" cx="75" cy="32.5" rx="1" ry="2.5"></ellipse>
                <polygon id="Path" fill="#000000" fill-rule="nonzero" opacity="0.1" points="54 56 57 57.385 54 61"></polygon>
                <polygon id="Path" fill="#000000" fill-rule="nonzero" opacity="0.1" points="84.8942308 57 83 58.5793269 84.2620192 60 85 58.4206731"></polygon>
                <path d="M72,46.8991696 L72,49 C72,49 58.3477801,46.2016607 58,42 L67.0102185,42.7002768 L72,46.8991696 Z" id="Path" fill="#00B476" fill-rule="nonzero"></path>
                <path d="M71,46.8991696 L71,49 C71,49 84.6522199,46.2016607 85,42 L75.9897815,42.7002768 L71,46.8991696 Z" id="Path" fill="#00B476" fill-rule="nonzero"></path>
                <polygon id="Path" fill="#000000" fill-rule="nonzero" opacity="0.1" points="153 68 198 78.3209999 181.749382 85"></polygon>
                <path d="M58,42.9987417 C58,42.9987417 58,39 60.6675055,39 C63.335011,39 66,47 66,47 L58,42.9987417 Z" id="Path" fill="#00B476" fill-rule="nonzero"></path>
                <circle id="Oval" fill="#F55F44" fill-rule="nonzero" opacity="0.5" cx="2.5" cy="70.5" r="1.5"></circle>
                <circle id="Oval" fill="#F55F44" fill-rule="nonzero" opacity="0.5" cx="23.5" cy="110.5" r="1.5"></circle>
                <circle id="Oval" fill="#F55F44" fill-rule="nonzero" opacity="0.5" cx="201.5" cy="4.5" r="1.5"></circle>
                <path d="M120.757537,6.52521893 C120.373664,6.35817501 120.17585,5.93036834 120.297374,5.53004104 C120.30683,5.50045728 120.312697,5.46984617 120.314849,5.4388649 L120.314849,5.4388649 C120.326186,5.25662307 120.216459,5.08855324 120.044959,5.02547115 C119.873458,4.96238906 119.68085,5.01925286 119.57121,5.16533647 L119.57121,5.16533647 C119.552435,5.19051156 119.536788,5.21787048 119.524612,5.24681302 C119.356817,5.62865235 118.930072,5.825183 118.530505,5.70463365 C118.500895,5.69518582 118.470257,5.68932412 118.439249,5.68717439 L118.439249,5.68717439 C118.256848,5.67584701 118.088631,5.78547792 118.025493,5.95682856 C117.962356,6.1281792 118.01927,6.32061857 118.165481,6.43016295 L118.165481,6.43016295 C118.190678,6.44892166 118.218061,6.46455533 118.247029,6.47672098 C118.627683,6.64576542 118.822547,7.07176084 118.701367,7.46995896 C118.691911,7.49954272 118.686044,7.53015383 118.683892,7.5611351 L118.683892,7.5611351 C118.672555,7.74337693 118.782282,7.91144676 118.953782,7.97452885 C119.125283,8.03761094 119.317891,7.98074714 119.427531,7.83466353 L119.427531,7.83466353 C119.446306,7.80948844 119.461953,7.78212952 119.47413,7.75318698 C119.64132,7.36964996 120.0695,7.17200829 120.470178,7.29342643 C120.499788,7.30287426 120.530425,7.30873596 120.561434,7.31088569 L120.561434,7.31088569 C120.743121,7.32186784 120.910634,7.21287399 120.974056,7.04241065 C121.037477,6.8719473 120.981894,6.68009478 120.837143,6.56983705 L120.837143,6.56983705 C120.812456,6.55188933 120.785736,6.5369132 120.757537,6.52521893 L120.757537,6.52521893 Z" id="Path" fill="#4D8AF0" fill-rule="nonzero" opacity="0.5"></path>
                <path d="M201.753506,108.523249 C201.370464,108.356421 201.173078,107.929167 201.294339,107.529356 C201.303775,107.499811 201.309629,107.469239 201.311776,107.438298 L201.311776,107.438298 C201.323089,107.256292 201.213599,107.088439 201.04247,107.025438 C200.871341,106.962438 200.67915,107.019228 200.569747,107.165123 L200.569747,107.165123 C200.551012,107.190265 200.535399,107.217589 200.523249,107.246494 C200.356421,107.629536 199.929167,107.826922 199.529356,107.705661 C199.499811,107.696225 199.469239,107.690371 199.438298,107.688224 L199.438298,107.688224 C199.256292,107.676911 199.088439,107.786401 199.025438,107.95753 C198.962438,108.128659 199.019228,108.32085 199.165123,108.430253 L199.165123,108.430253 C199.190265,108.448988 199.217589,108.464601 199.246494,108.476751 C199.629536,108.643579 199.826922,109.070833 199.705661,109.470644 C199.696225,109.500189 199.690371,109.530761 199.688224,109.561702 L199.688224,109.561702 C199.676911,109.743708 199.786401,109.911561 199.95753,109.974562 C200.128659,110.037562 200.32085,109.980772 200.430253,109.834877 L200.430253,109.834877 C200.448988,109.809735 200.464601,109.782411 200.476751,109.753506 C200.643579,109.370464 201.070833,109.173078 201.470644,109.294339 C201.500189,109.303775 201.530761,109.309629 201.561702,109.311776 L201.561702,109.311776 C201.743708,109.323089 201.911561,109.213599 201.974562,109.04247 C202.037562,108.871341 201.980772,108.67915 201.834877,108.569747 L201.834877,108.569747 C201.809735,108.551012 201.782411,108.535399 201.753506,108.523249 Z" id="Path" fill="#4D8AF0" fill-rule="nonzero" opacity="0.5"></path>
                <circle id="Oval" fill="#47E6B1" fill-rule="nonzero" opacity="0.5" cx="140.5" cy="156.5" r="1.5"></circle>
                <circle id="Oval" fill="#47E6B1" fill-rule="nonzero" opacity="0.5" cx="2.5" cy="143.5" r="1.5"></circle>
                <circle id="Oval" fill="#47E6B1" fill-rule="nonzero" opacity="0.5" cx="136.5" cy="22.5" r="1.5"></circle>
                <g id="Group" opacity="0.5" fill="#47E6B1" fill-rule="nonzero">
                    <rect id="Rectangle" x="2.0225" y="0" width="1" height="4.9125"></rect>
                    <polygon id="Rectangle" transform="translate(2.456250, 2.456250) rotate(90.000000) translate(-2.456250, -2.456250) " points="2.0225 -1.11022302e-13 2.89 -1.11022302e-13 2.89 4.9125 2.0225 4.9125"></polygon>
                </g>
                <g id="Group" opacity="0.5" transform="translate(15.000000, 46.000000)" fill="#47E6B1" fill-rule="nonzero">
                    <rect id="Rectangle" x="2.06666667" y="0.107142857" width="1" height="4.67857143"></rect>
                    <polygon id="Rectangle" transform="translate(2.479762, 2.446429) rotate(90.000000) translate(-2.479762, -2.446429) " points="2.06666667 0.107142857 2.89285714 0.107142857 2.89285714 4.78571429 2.06666667 4.78571429"></polygon>
                </g>
                <g id="Group" opacity="0.5" transform="translate(168.000000, 25.000000)" fill="#47E6B1" fill-rule="nonzero">
                    <rect id="Rectangle" x="2.03809524" y="0.0125" width="1" height="4.9125"></rect>
                    <polygon id="Rectangle" transform="translate(2.453571, 2.468750) rotate(90.000000) translate(-2.453571, -2.468750) " points="2.01982143 0.129464286 2.88732143 0.129464286 2.88732143 4.80803571 2.01982143 4.80803571"></polygon>
                </g>
            </g>
        </g>
    </g>
</svg>