<?xml version="1.0" encoding="UTF-8"?>
<svg width="18px" height="18px" viewBox="0 0 18 18" version="1.1" xmlns="http://www.w3.org/2000/svg" xmlns:xlink="http://www.w3.org/1999/xlink">
    <title>Shape</title>
    <g id="Pass-Limits-(SP-1076)" stroke="none" stroke-width="1" fill="none" fill-rule="evenodd">
        <g id="Artboard" transform="translate(-956.000000, -868.000000)" fill="#7083A0" fill-rule="nonzero">
            <g id="Group-5" transform="translate(908.000000, 846.000000)">
                <g id="icons8-chat-room-2" transform="translate(48.000000, 22.000000)">
                    <path d="M4.49868247,0 C4.00183398,0 3.59859463,0.411692367 3.59859463,0.918956177 C3.59859463,1.42621999 4.00183398,1.83791235 4.49868247,1.83791235 L16.1998243,1.83791235 L16.1998243,10.1085179 C16.1998243,10.6157818 16.6030637,11.0274741 17.0999122,11.0274741 C17.5967606,11.0274741 18,10.6157818 18,10.1085179 L18,1.83791235 C18,0.822465778 17.1944214,0 16.1998243,0 L4.49868247,0 Z M1.79841896,3.67582471 C0.808322341,3.67582471 0.00703318686,4.50288527 0.00703318686,5.51373706 L6.24889481e-07,17.0778669 C-0.000898837187,17.8966568 0.969424022,18.3083354 1.53647936,17.729393 L3.59859463,15.622255 L12.599473,15.622255 C13.5895696,15.622255 14.3996487,14.7951944 14.3996487,13.7843427 L14.3996487,5.51373706 C14.3996487,4.50288527 13.5895696,3.67582471 12.599473,3.67582471 L1.79841896,3.67582471 Z" id="Shape"></path>
                </g>
            </g>
        </g>
    </g>
</svg>