<svg xmlns="http://www.w3.org/2000/svg" width="14" height="14" viewBox="0 0 14 14">
  <g>
    <path fill="rgb(226,230,236)" fill-rule="evenodd" d="M7 0C3.13425 0 0 3.13425 0 7s3.13425 7 7 7 7-3.13425 7-7-3.13425-7-7-7z"/>
    <path fill="rgb(112,131,160)" fill-rule="evenodd" d="M7.5834961 8.16667175c0-.28466797.2368164-.5185852.62280273-.875.5024414-.4643402 1.12719726-1.0412445 1.12719726-2.04167175C9.3334961 3.96316528 8.28686523 2.91667175 7 2.91667175S4.66674805 3.96316528 4.66674805 5.25h1.16674804c0-.64341736.52319336-1.1666565 1.16650391-1.1666565.64355469 0 1.16674805.52323914 1.16674805 1.1666565 0 .46609497-.28588868.75367737-.75195313 1.18417358-.44458008.41125489-.99804687.92224121-.99804687 1.73249817h1.16674804zM6.125 10.5c0 .4830017.39208984.875.875.875s.875-.3919983.875-.875-.39208984-.875-.875-.875-.875.3919983-.875.875z"/>
  </g>
</svg>
