<svg width="17" height="17" viewBox="0 0 17 17" fill="none" xmlns="http://www.w3.org/2000/svg">
<path d="M6.375 1.26035e-06C6.31718 -0.000107799 6.25957 0.00686134 6.20345 0.0207532L0.536784 1.43742C0.383426 1.47571 0.24728 1.5642 0.150011 1.68879C0.0527419 1.81339 -6.24557e-05 1.96693 5.54377e-08 2.125V4.95833C1.88382e-05 5.14619 0.0746526 5.32635 0.207487 5.45918C0.340321 5.59201 0.520477 5.66665 0.708333 5.66667H2.83333V16.2917C2.83335 16.4795 2.90799 16.6597 3.04082 16.7925C3.17365 16.9253 3.35381 17 3.54167 17H13.4583C13.6462 17 13.8263 16.9253 13.9592 16.7925C14.092 16.6597 14.1666 16.4795 14.1667 16.2917V5.66667H16.2917C16.4795 5.66665 16.6597 5.59201 16.7925 5.45918C16.9253 5.32635 17 5.14619 17 4.95833V2.125C17.0001 1.96693 16.9473 1.81339 16.85 1.68879C16.7527 1.5642 16.6166 1.47571 16.4632 1.43742L10.7965 0.0207532C10.7404 0.00686134 10.6828 -0.000107799 10.625 1.26035e-06H6.375ZM6.48983 1.41667H10.5102C10.3227 2.25559 9.82649 3.54167 8.5 3.54167C7.17351 3.54167 6.67726 2.25559 6.48983 1.41667Z" fill="#7083A0"/>
</svg>
