<svg xmlns="http://www.w3.org/2000/svg" width="43" height="43" viewBox="0 0 43 43">
  <path fill="rgb(25,118,210)" fill-rule="evenodd" d="M21.5 0C9.62664795 0 0 9.62658691 0 21.5S9.62664795 43 21.5 43 43 33.37341309 43 21.5 33.37335205 0 21.5 0zm5.375 21.5l5.375 5.375 5.375-5.375h-3.60479736c.00354004-3.2947998-1.26849366-6.48400879-3.6550293-8.86877441-4.26416016-4.26416016-10.96679688-4.89294434-15.93865967-1.49060059l2.02276612 2.95617676c3.55291748-2.42590332 8.33483886-1.98156738 11.38427734 1.0678711 1.7020874 1.70385741 2.61224365 3.9810791 2.61047363 6.33532714H26.875zm-5.36425781 12.54345703c-3.23754883 0-6.45178223-1.2487793-8.87768555-3.67468262C10.246521 27.9840088 8.9744873 24.79492187 8.97802734 21.5H5.375l5.375-5.375 5.375 5.375h-3.56896973c-.00183105 2.35424805.9083252 4.63146973 2.6104126 6.33532715 3.04766846 3.04943847 7.83135986 3.49560547 11.38427734 1.0678711l2.02276612 2.95617675c-2.14459229 1.46740723-4.60992432 2.18408203-7.06274414 2.18408203z"/>
</svg>
