<?xml version="1.0" encoding="UTF-8"?>
<svg width="13px" height="18px" viewBox="0 0 13 18" version="1.1" xmlns="http://www.w3.org/2000/svg" xmlns:xlink="http://www.w3.org/1999/xlink">
    <!-- Generator: Sketch 53.2 (72643) - https://sketchapp.com -->
    <title>Shape</title>
    <desc>Created with Sketch.</desc>
    <g id="Web---1.4" stroke="none" stroke-width="1" fill="none" fill-rule="evenodd">
        <g id="My-Room" transform="translate(-565.000000, -204.000000)" fill="#7F879D" fill-rule="nonzero">
            <g id="Done" transform="translate(373.000000, 188.000000)">
                <g id="icons8-clipboard_copy" transform="translate(192.000000, 15.705882)">
                    <path d="M6.5,0.294117647 C5.4307435,0.294117647 4.55,1.19744458 4.55,2.29411765 L1.95,2.29411765 C0.88076963,2.29411765 -5.68434189e-14,3.19747111 -5.68434189e-14,4.29411765 L-5.68434189e-14,16.2941176 C-5.68434189e-14,17.3907643 0.88076963,18.2941176 1.95,18.2941176 L11.05,18.2941176 C12.1192305,18.2941176 13,17.3907643 13,16.2941176 L13,4.29411765 C13,3.19747111 12.1192305,2.29411765 11.05,2.29411765 L8.45,2.29411765 C8.45,1.19744458 7.5692565,0.294117647 6.5,0.294117647 Z M6.5,1.62745098 C6.86668385,1.62745098 7.15,1.91803138 7.15,2.29411765 C7.15,2.67020391 6.86668385,2.96078431 6.5,2.96078431 C6.13331615,2.96078431 5.85,2.67020391 5.85,2.29411765 C5.85,1.91803138 6.13331615,1.62745098 6.5,1.62745098 Z M1.95,3.62745098 L4.55,3.62745098 L4.55,4.29411765 C4.55,4.66211765 4.8412,4.96078431 5.2,4.96078431 L7.8,4.96078431 C8.1588,4.96078431 8.45,4.66211765 8.45,4.29411765 L8.45,3.62745098 L11.05,3.62745098 C11.4172695,3.62745098 11.7,3.91743085 11.7,4.29411765 L11.7,16.2941176 C11.7,16.6708043 11.4172695,16.9607843 11.05,16.9607843 L1.95,16.9607843 C1.58273037,16.9607843 1.3,16.6708043 1.3,16.2941176 L1.3,4.29411765 C1.3,3.91743085 1.58273037,3.62745098 1.95,3.62745098 Z M3.9,7.62745098 C3.66558665,7.62405079 3.44754711,7.75036784 3.32937298,7.95803288 C3.21119885,8.16569792 3.21119885,8.42253738 3.32937298,8.63020241 C3.44754711,8.83786745 3.66558665,8.96418451 3.9,8.96078431 L9.1,8.96078431 C9.33441335,8.96418451 9.55245289,8.83786745 9.67062702,8.63020241 C9.78880115,8.42253738 9.78880115,8.16569792 9.67062702,7.95803288 C9.55245289,7.75036784 9.33441335,7.62405079 9.1,7.62745098 L3.9,7.62745098 Z M3.9,10.2941176 C3.66558665,10.2907175 3.44754711,10.4170345 3.32937298,10.6246995 C3.21119885,10.8323646 3.21119885,11.089204 3.32937298,11.2968691 C3.44754711,11.5045341 3.66558665,11.6308512 3.9,11.627451 L7.15,11.627451 C7.38441335,11.6308512 7.60245289,11.5045341 7.72062702,11.2968691 C7.83880115,11.089204 7.83880115,10.8323646 7.72062702,10.6246995 C7.60245289,10.4170345 7.38441335,10.2907175 7.15,10.2941176 L3.9,10.2941176 Z M3.9,12.9607843 C3.66558665,12.9573841 3.44754711,13.0837012 3.32937298,13.2913662 C3.21119885,13.4990312 3.21119885,13.7558707 3.32937298,13.9635357 C3.44754711,14.1712008 3.66558665,14.2975178 3.9,14.2941176 L9.1,14.2941176 C9.33441335,14.2975178 9.55245289,14.1712008 9.67062702,13.9635357 C9.78880115,13.7558707 9.78880115,13.4990312 9.67062702,13.2913662 C9.55245289,13.0837012 9.33441335,12.9573841 9.1,12.9607843 L3.9,12.9607843 Z" id="Shape"></path>
                </g>
            </g>
        </g>
    </g>
</svg>