<?xml version="1.0" encoding="utf-8"?>
<svg version="1.1" xmlns="http://www.w3.org/2000/svg" xmlns:xlink="http://www.w3.org/1999/xlink" height="49" width="49">
  <defs>
    <path id="path-1" opacity="1" fill-rule="evenodd" d="M4.3326416015625,1.012603759765625 C4.703857421875,0.3766326904296875 5.38873291015625,-0.0102081298828125 6.125,0.0001983642578125 L42.875,0.0001983642578125 C43.611328125,-0.0102081298828125 44.296142578125,0.3766326904296875 44.6673583984375,1.012603759765625 C45.03857421875,1.6485748291015625 45.03857421875,2.435150146484375 44.6673583984375,3.0711212158203125 C44.296142578125,3.70709228515625 43.611328125,4.09393310546875 42.875,4.083526611328125 L6.125,4.083526611328125 C5.38873291015625,4.09393310546875 4.703857421875,3.70709228515625 4.3326416015625,3.0711212158203125 C3.96148681640625,2.435150146484375 3.96148681640625,1.6485748291015625 4.3326416015625,1.012603759765625 L2.29095458984375,9.179229736328125 C2.66217041015625,8.543258666992188 3.3470458984375,8.156417846679688 4.08331298828125,8.166824340820312 L44.9166259765625,8.166824340820312 C45.6529541015625,8.156417846679688 46.33782958984375,8.543258666992188 46.708984375,9.179229736328125 C47.0802001953125,9.815200805664062 47.0802001953125,10.601776123046875 46.708984375,11.237747192382812 C46.33782958984375,11.87371826171875 45.6529541015625,12.26055908203125 44.9166259765625,12.250152587890625 L4.08331298828125,12.250152587890625 C3.3470458984375,12.26055908203125 2.66217041015625,11.87371826171875 2.29095458984375,11.237747192382812 C1.9197998046875,10.601776123046875 1.9197998046875,9.815200805664062 2.29095458984375,9.179229736328125 L4.08331298828125,16.333465576171875 C1.8272705078125,16.333465576171875 0,18.160751342773438 0,20.416778564453125 L0,44.91668701171875 C0,47.17271423339844 1.8272705078125,49 4.08331298828125,49 L44.91668701171875,49 C47.1727294921875,49 49,47.17271423339844 49,44.91668701171875 L49,20.416778564453125 C49,18.160751342773438 47.1727294921875,16.333465576171875 44.91668701171875,16.333465576171875 L4.08331298828125,16.333465576171875 L21.521240234375,24.870956420898438 C21.19866943359375,24.656585693359375 20.83319091796875,24.500106811523438 20.41668701171875,24.500106811523438 C19.2896728515625,24.500106811523438 18.375,25.414764404296875 18.375,26.541763305664062 L18.375,38.791717529296875 C18.375,39.918701171875 19.2896728515625,40.8333740234375 20.41668701171875,40.8333740234375 C20.83319091796875,40.8333740234375 21.19866943359375,40.67689514160156 21.521240234375,40.4625244140625 L31.74151611328125,34.32957458496094 C32.28668212890625,33.96208190917969 32.66668701171875,33.37315368652344 32.66668701171875,32.66673278808594 C32.66668701171875,31.9603271484375 32.28668212890625,31.37139892578125 31.74151611328125,31.00390625 L21.521240234375,24.870956420898438 L4.3326416015625,1.012603759765625Z"/>
  </defs>
  <g opacity="1">
    <use xlink:href="#path-1" fill="rgb(227,44,102)" fill-opacity="1"/>
  </g>
</svg>