<?xml version="1.0" encoding="UTF-8"?>
<svg width="150px" height="150px" viewBox="0 0 150 150" version="1.1" xmlns="http://www.w3.org/2000/svg" xmlns:xlink="http://www.w3.org/1999/xlink">
    <!-- Generator: Sketch 53.2 (72643) - https://sketchapp.com -->
    <title>Teacher</title>
    <desc>Created with Sketch.</desc>
    <g id="Teacher" stroke="none" stroke-width="1" fill="none" fill-rule="evenodd">
        <g id="icons8-tuition" fill="#00B476" fill-rule="nonzero">
            <path d="M18.75,0 C8.39466094,0 0,8.39466094 0,18.75 C-5.55111512e-15,29.1053391 8.39466094,37.5 18.75,37.5 C29.1053391,37.5 37.5,29.1053391 37.5,18.75 C37.5,8.39466094 29.1053391,0 18.75,0 Z M50.0835232,6.25 L50.0835232,18.7499163 L131.19346,18.7499163 L131.19346,87.499456 L62.561975,87.499456 L56.3227491,87.499456 L50.0835232,87.499456 L50.0835232,92.6996149 C49.9721589,93.3745569 49.9721589,94.0632343 50.0835232,94.7381763 L50.0835232,99.9993723 L56.3227491,99.9993723 L62.561975,99.9993723 L143.671912,99.9993723 C145.922001,100.031249 148.014921,98.8470344 149.149252,96.9001877 C150.283583,94.9533411 150.283583,92.5454872 149.149252,90.5986406 C148.014921,88.6517939 145.922001,87.4675794 143.671912,87.499456 L143.671912,12.4999582 C143.671567,9.04834454 140.878373,6.25034511 137.432686,6.25 L50.0835232,6.25 Z M74.8060518,37.5031952 C73.6100575,37.541364 72.4502062,37.9225264 71.4645313,38.6013205 L54.3057313,50.0462229 L49.9520022,50.0462229 L12.4880006,50.0462229 C5.58838025,50.0462229 0,55.6373873 0,62.540445 L0,143.545466 C0,147.106319 2.89224028,150 6.45132044,150 C9.84805659,150 12.6656617,147.358447 12.8904457,143.972512 L15.6221958,102.939244 C15.7345879,101.302501 17.0898288,100.023111 18.7320008,100.023111 C20.3741729,100.023111 21.7294138,101.296548 21.8418058,102.927044 L24.5735559,143.972512 C24.7983399,147.364694 27.6159451,150 31.0126812,150 C34.5717614,150 37.4640017,147.106319 37.4640017,143.545466 L37.4640017,68.7875561 C37.4640017,65.3391508 40.2613138,62.540445 43.7080019,62.540445 L56.1960025,62.540445 C57.4287051,62.5403569 58.633807,62.1752497 59.6594745,61.491124 L78.3914753,48.9969019 C80.7487661,47.4745085 81.8017916,44.5660465 80.9658796,41.8863834 C80.1299676,39.2067203 77.6103728,37.4138361 74.8060518,37.5031952 Z" id="Shape"></path>
        </g>
    </g>
</svg>