<?xml version="1.0" encoding="UTF-8"?>
<svg width="150px" height="150px" viewBox="0 0 150 150" version="1.1" xmlns="http://www.w3.org/2000/svg" xmlns:xlink="http://www.w3.org/1999/xlink">
    <!-- Generator: Sketch 53.2 (72643) - https://sketchapp.com -->
    <title>Team (White)</title>
    <desc>Created with Sketch.</desc>
    <g id="Team-(White)" stroke="none" stroke-width="1" fill="none" fill-rule="evenodd">
        <g id="icons8-user_group_man_woman" transform="translate(0.000000, 15.000000)" fill="#FFFFFF" fill-rule="nonzero">
            <path d="M47.207031,0 C19.9520315,0.47 17.166719,19.3692185 22.636719,41.07422 C21.576719,41.68422 19.8334375,43.620545 20.2734375,47.060545 C21.0934375,53.475545 23.874531,55.099375 25.644531,55.234375 C26.319531,61.224375 32.75,68.885 35,70 L35,80 C30,95 0,80 0,120 L60,120 C60,102.26 69.94719,94.61961 78.24219,90.22461 C70.45219,87.49461 62.385,87.155 60,80 L60,70 C62.25,68.885 68.67547,61.22914 69.35547,55.24414 C69.75547,53.82914 70.06836,48.766955 70.06836,47.626955 C70.06836,41.381955 69.97672,28.4741405 73.88672,18.3691405 C72.52172,11.5791405 68.953595,5.852656 61.308595,5.097656 C59.263595,1.7126565 54.02203,0 47.207031,0 Z M110.615235,5 C104.995235,5 100.654295,10 100.654295,10 C68.444295,10 86.325235,64.76672 76.865235,72.63672 C76.865235,72.63672 81.895,80.08789 100,80.08789 L100,86.464845 C95,99.999845 70,95 70,120 L150,120 C150,95 125,99.999845 120,86.464845 L120,80.029295 C138.195,80.029295 142.41211,72.822265 142.41211,72.822265 C132.22711,64.462265 149.995235,5 110.615235,5 Z" id="Shape"></path>
        </g>
    </g>
</svg>