<svg width="23" height="28" viewBox="0 0 23 28" fill="none" xmlns="http://www.w3.org/2000/svg">
<path d="M1.86035 10.3428L8.3644 13.5971L10.4557 9.87458C11.4991 8.01794 12.08 5.8081 12.08 3.6029V2.55956C12.08 1.16185 10.9181 0 9.52509 0H8.94416C8.48174 0 8.13203 0.349717 8.01352 0.816782L7.43259 3.14049C7.20139 4.18383 6.62046 5.11447 5.92683 5.92661L1.86035 10.3428Z" fill="#00B476"/>
<path d="M17.1966 27.9998C16.3844 27.9998 4.64741 27.9998 4.64741 27.9998C2.0925 27.9998 0 25.9073 0 23.3524V14.0576C0 11.5027 2.0925 9.41016 4.64741 9.41016H19.7515C21.0318 9.41016 22.0752 10.4535 22.0752 11.7339C22.0752 13.0142 21.4943 13.4766 21.4943 14.0576C21.4943 14.6385 22.0752 15.1009 22.0752 16.3813C22.0752 17.6616 21.1445 18.4738 21.0318 19.0547C20.796 19.7495 21.1457 20.9113 20.796 21.7281C20.4509 22.5402 19.7526 23.0038 19.6341 23.816C19.5203 24.6327 19.9839 25.5587 19.6341 26.4894C19.1706 27.1877 18.3584 27.9998 17.1966 27.9998Z" fill="#00B476"/>
</svg>
