<svg width="49" height="49" viewBox="0 0 49 49" fill="none" xmlns="http://www.w3.org/2000/svg">
  <path fill-rule="evenodd" clip-rule="evenodd" d="M4.33265 1.01261C4.70383 0.376636 5.3887 -0.010208 6.125 0.000205047H42.875C43.6113 -0.010208 44.2962 0.376636 44.6674 1.01261C45.0385 1.64858 45.0385 2.43515 44.6674 3.07112C44.2962 3.70709 43.6113 4.09393 42.875 4.08352H6.125C5.3887 4.09393 4.70383 3.70709 4.33265 3.07112C3.96146 2.43515 3.96146 1.64858 4.33265 1.01261ZM2.29098 9.17924C2.66217 8.54327 3.34703 8.15642 4.08333 8.16684H44.9167C45.653 8.15642 46.3378 8.54327 46.709 9.17924C47.0802 9.81521 47.0802 10.6018 46.709 11.2378C46.3378 11.8737 45.653 12.2606 44.9167 12.2502H4.08333C3.34703 12.2606 2.66217 11.8737 2.29098 11.2378C1.91979 10.6018 1.91979 9.81521 2.29098 9.17924ZM4.08333 16.3335C1.82729 16.3335 0 18.1608 0 20.4168V44.9167C0 47.1727 1.82729 49 4.08333 49H44.9167C47.1727 49 49 47.1727 49 44.9167V20.4168C49 18.1608 47.1727 16.3335 44.9167 16.3335H4.08333ZM21.5212 24.871C21.1987 24.6566 20.8332 24.5001 20.4167 24.5001C19.2897 24.5001 18.375 25.4148 18.375 26.5418V38.7917C18.375 39.9187 19.2897 40.8334 20.4167 40.8334C20.8332 40.8334 21.1987 40.6769 21.5212 40.4625L31.7415 34.3296C32.2867 33.9621 32.6667 33.3731 32.6667 32.6667C32.6667 31.9603 32.2867 31.3714 31.7415 31.0039L21.5212 24.871Z" fill="#FFFFFF"/>
</svg>
