<svg width="36" height="31" viewBox="0 0 36 31" fill="none" xmlns="http://www.w3.org/2000/svg">
<path d="M36 4.25088C34.675 4.83931 33.2516 5.2353 31.7577 5.41391C33.2835 4.5001 34.4534 3.05323 35.0045 1.32807C33.5784 2.17403 31.9972 2.78878 30.3136 3.12107C28.9664 1.68528 27.0474 0.788086 24.9235 0.788086C20.8446 0.788086 17.5382 4.09581 17.5382 8.17334C17.5382 8.75209 17.6047 9.31699 17.7293 9.85558C11.5916 9.54821 6.15023 6.6074 2.50606 2.13803C1.87193 3.22907 1.50779 4.49733 1.50779 5.85281C1.50779 8.41425 2.81066 10.6752 4.79197 11.9989C3.58186 11.9601 2.44237 11.6278 1.44687 11.0754C1.44687 11.1072 1.44687 11.1363 1.44687 11.1681C1.44687 14.7472 3.99169 17.7324 7.37141 18.4094C6.75251 18.5783 6.099 18.6683 5.42471 18.6683C4.94981 18.6683 4.48598 18.6212 4.036 18.5368C4.97612 21.4707 7.7037 23.6071 10.9353 23.6666C8.40845 25.6479 5.22395 26.8289 1.76255 26.8289C1.16719 26.8289 0.578747 26.7943 0 26.7251C3.26895 28.8199 7.14988 30.0425 11.3216 30.0425C24.9069 30.0425 32.3337 18.7888 32.3337 9.029C32.3337 8.70917 32.3268 8.39072 32.3129 8.07365C33.757 7.03108 35.01 5.73097 36 4.25088Z" fill="#229AF0"/>
</svg>
