<svg width="24" height="24" viewBox="0 0 24 24" fill="none" xmlns="http://www.w3.org/2000/svg">
<path fill-rule="evenodd" clip-rule="evenodd" d="M2.12211 0.495971C2.30392 0.184475 2.63936 -0.00499984 3 0.000100431H21C21.3606 -0.00499984 21.6961 0.184475 21.8779 0.495971C22.0597 0.807467 22.0597 1.19273 21.8779 1.50422C21.6961 1.81572 21.3606 2.00519 21 2.00009H3C2.63936 2.00519 2.30392 1.81572 2.12211 1.50422C1.94031 1.19273 1.94031 0.807467 2.12211 0.495971ZM1.12211 4.49595C1.30392 4.18446 1.63936 3.99498 2 4.00008H22C22.3606 3.99498 22.6961 4.18446 22.8779 4.49595C23.0597 4.80745 23.0597 5.19271 22.8779 5.5042C22.6961 5.8157 22.3606 6.00518 22 6.00008H2C1.63936 6.00518 1.30392 5.8157 1.12211 5.5042C0.940306 5.19271 0.940306 4.80745 1.12211 4.49595ZM2 8.00007C0.895 8.00007 0 8.89506 0 10.0001V22C0 23.105 0.895 24 2 24H22C23.105 24 24 23.105 24 22V10.0001C24 8.89506 23.105 8.00007 22 8.00007H2ZM10.541 12.1817C10.383 12.0767 10.204 12.0001 10 12.0001C9.448 12.0001 9 12.448 9 13V19C9 19.552 9.448 20 10 20C10.204 20 10.383 19.9234 10.541 19.8184L15.5469 16.8145C15.8139 16.6345 16 16.346 16 16C16 15.654 15.8139 15.3656 15.5469 15.1856L10.541 12.1817Z" fill="#E32C66"/>
</svg>
