<svg xmlns="http://www.w3.org/2000/svg" width="26" height="26" viewBox="0 0 26 26">
  <g>
    <path fill="rgb(31,25,94)" fill-rule="evenodd" d="M5 0h16c2.75957512 0 5 2.24042488 5 5v16c0 2.75957512-2.24042488 5-5 5H5c-2.75957512 0-5-2.24042488-5-5V5c0-2.75957512 2.24042488-5 5-5z"/>
    <path fill="rgb(255,255,255)" fill-rule="evenodd" d="M8.1548462 6c-.57525636 0-1.00799561.5833435-1.00799561.5833435-2.13500977 0-2.12322998 2.04681397-2.11376954 3.68325806.00512696.8888855.00952149 1.65670777-.33117675 1.90966797 0 0 .59332275.68017578 2.44494629.68017578v.58218384C6.63519287 14.6741333 4 14.21740723 4 16.5h5.04974365c.4430542-.24850464 1.87335205-.93765259 1.87335205-.93765259-.34179687-.33834839-.83477783-.92330932-1.01416015-1.36605835-.3927002-.18258667-.72479248-.39715576-.8739624-.75765991v-.58901978c.11956787 0 .47216796-.02560424.5961914-.05126953-.28070068-.40075683-.51751709-1.31417846-.51751709-1.82632446 0-1.30258179.60522461-2.37399292 1.60906983-3.04541016C10.4199829 6.85269165 9.74774169 6 8.15484619 6zm9.43951415 0c-1.39904785 0-2.25811767.8920288-2.46582031 2.06103516 1.0170288.50515747 1.67913818 1.59423828 1.67913818 2.96566772 0 .42874146-.10791015.84127808-.22497558 1.1609497.04345703.15808106.06762695.33438111.06762695.52978516 0 1.44085694-1.5734253 2.8779297-1.5734253 2.8779297.34173585.13827514 1.43511964.65322875 1.88195801.90463256H22c0-3.0625-2.68304443-2.1875-3.14685059-3.5v-.875c.20892334-.0974121.70654297-.76815796.76947022-1.29199219.16363525-.01165771.48925781-.38244629.48925781-.71435547 0-.33190918-.11383057-.47155761-.21264648-.52523803 0 0 .21264648-.43817139.21264648-.96841431 0-1.06225586-.30963135-2.0416565-1.25872803-2.0416565 0 0-.27252197-.5833435-1.25878906-.5833435zM10.046875 10.79144287c0-1.72668457 1.3223877-2.69143677 2.953125-2.69143677.76812744 0 1.21154785.59500122 1.21154785.59500122 1.04437256 0 1.66589356.93545533 1.66589356 2.15222168 0 .60690308-.34075928 1.24346924-.34075928 1.24346924s.18933105.06341553.18933105.48110962c0 .60272217-.49578857.93896485-.49578857.93896485-.06903076.59976196-1.01867676 1.47821044-1.01867676 1.47821044v1.00289917c.5100708 1.50299073 3.63464356.50061036 3.63464356 4.00811768H8.15386963c0-3.49560547 3.12457275-2.50512695 3.63464355-4.00811768v-1.00289917s-.949646-.87844848-1.01873779-1.47821044c0 0-.49572754-.18154908-.49572754-.93896485 0-.38973999.18933106-.48110962.18933106-.48110962s-.41650391-.56918335-.41650391-1.29925537z"/>
  </g>
</svg>
