<?xml version="1.0" encoding="UTF-8"?>
<svg width="150px" height="150px" viewBox="0 0 150 150" version="1.1" xmlns="http://www.w3.org/2000/svg" xmlns:xlink="http://www.w3.org/1999/xlink">
    <!-- Generator: Sketch 53.2 (72643) - https://sketchapp.com -->
    <title>Walking (Navy)</title>
    <desc>Created with Sketch.</desc>
    <g id="Walking-(Navy)" stroke="none" stroke-width="1" fill="none" fill-rule="evenodd">
        <g id="icons8-students_filled" transform="translate(2.000000, 2.000000)" fill="#1F195E" fill-rule="nonzero">
            <path d="M47.2134689,0 C39.108694,0 32.5400446,6.57948862 32.5400446,14.6976376 C32.5400446,22.8157867 39.108694,29.3952753 47.2134689,29.3952753 C55.3182439,29.3952753 61.8868932,22.8157867 61.8868932,14.6976376 C61.8868932,6.57948862 55.3182439,0 47.2134689,0 Z M17.9583292,28.6603934 C14.6338829,28.5226031 11.45846,30.8191089 10.2547814,34.4475882 L0.625346699,66.5986706 C-0.291742321,69.1133453 -0.119788129,71.8002557 1.08389121,73.9474894 C2.15000646,75.8535908 3.91540429,77.1281493 5.94446302,77.5300386 L18.6002915,80.4695661 C19.0015187,80.5614264 19.4715261,80.630323 19.8842161,80.6532866 C19.6549439,78.9998024 19.5861637,77.1625977 19.975925,75.2335327 C20.6064245,71.4672631 26.7279922,44.2307033 28.8716885,34.7231689 L28.8716885,34.5394485 C29.0665692,33.8734632 29.4907251,33.000791 30.1556131,32.1510824 C29.914878,32.0707039 29.754386,31.9329136 29.5136508,31.8755016 L19.4256716,28.9359741 C18.9442013,28.8211503 18.4283366,28.6833599 17.9583292,28.6603934 Z M35.6581473,32.3348028 C32.6202906,32.3348028 31.7146645,35.3661906 31.7146645,35.3661906 C29.582434,44.816313 23.5181806,72.041391 22.9106099,75.6928339 C22.0852298,79.8150627 23.1742737,83.1564795 24.7447879,85.9811802 L17.6832025,112.436928 C17.6832025,112.436928 5.89860857,129.51145 2.55123364,134.391524 C0.120947738,138.04297 -1.70176742,142.337435 2.55123364,145.690333 C7.41180545,149.341779 11.0343071,144.484668 13.464593,141.740343 C15.5968264,139.306047 25.0657691,126.445614 27.496055,123.092715 C29.3187702,120.956966 30.1900047,119.131243 30.7975755,117.30552 C31.3707576,116.145786 34.5691033,107.235343 35.933274,103.434625 C44.9322093,117.454793 57.9434105,137.641081 60.6029686,141.189182 C64.2483989,146.069256 67.6301625,148.239456 72.8002526,145.506613 C77.0532536,143.072316 76.4227542,137.618114 73.9924683,133.656642 C71.5621824,129.69517 43.5451128,84.2358358 43.5451128,84.2358358 L48.7725203,62.3730998 C48.7725203,62.3730998 52.1084323,68.7229378 53.6330921,71.4672631 C54.5501811,72.6844127 55.1462889,73.2815042 57.5765748,74.4986508 C60.0068608,76.0258265 66.6786848,79.746166 70.3241122,81.5718889 C73.6714872,83.0990646 77.947414,83.7076409 79.7701291,80.6532866 C81.283326,77.300388 79.1740213,73.5800485 76.7437354,72.6614461 C74.0039312,71.4442995 61.7951843,64.1184442 61.7951843,64.1184442 C61.7951843,64.1184442 55.6965424,48.7663031 52.3491674,41.1533854 C49.3113108,34.1490439 46.9154165,32.3348028 42.3528971,32.3348028 L35.6581473,32.3348028 Z M118.654704,35.3661906 C111.363846,35.3661906 105.448622,41.2911758 105.448622,48.5940645 C105.448622,55.8969532 111.363846,61.8219384 118.654704,61.8219384 C125.945561,61.8219384 131.860785,55.8969532 131.860785,48.5940645 C131.860785,41.2911758 125.945561,35.3661906 118.654704,35.3661906 Z M97.0114027,61.3626372 C94.4206277,61.3626372 90.8783692,62.46496 88.6658926,67.7928537 C87.9895387,69.6415402 86.8546433,73.4192945 85.6394989,77.4381784 C84.6765554,80.6188383 83.7136119,83.7765346 83.0716496,85.7055995 C81.9711428,88.8288475 82.0284601,91.5272427 83.1633585,93.69744 C83.874104,95.0638617 85.3987637,96.9125482 88.7576015,97.8311506 C90.2707984,98.1641432 91.6235062,98.6578927 92.7010843,99.0253337 C93.4462184,99.2779508 94.0881807,99.4616712 94.5352624,99.5764951 C95.4523514,99.8176274 96.2662686,99.943936 97.1031116,99.943936 C97.6762937,99.943936 98.5475283,99.8061457 99.4875431,99.4846348 C99.0519273,97.7737387 98.9716812,95.8906039 99.3958342,93.7893002 C99.6938896,91.7454115 101.53953,83.8798766 103.88957,73.7637689 C104.554461,70.8931381 105.127641,68.2521548 105.540331,66.4149501 C105.735211,65.6456199 106.124976,64.9222228 106.640837,64.2103045 C105.930095,63.7395215 105.070323,63.3146686 104.164697,63.0161214 C104.10738,63.0046396 103.041264,62.671647 100.221214,61.8219384 C99.1207075,61.5119093 98.0087378,61.3626372 97.0114027,61.3626372 Z M111.134574,64.7614659 C109.002343,64.7614659 108.383307,67.149832 108.383307,67.149832 C106.858647,73.8556292 102.536866,91.9061654 102.23881,94.3404617 C101.619777,97.2225773 102.491011,99.6453917 103.614444,101.781141 L98.2953273,121.439231 C98.2953273,121.439231 89.5371272,134.13891 87.1068413,137.790353 C85.2841261,140.534678 84.0689847,143.531618 87.1068413,145.965914 C90.4542162,148.710239 93.1710917,145.03583 94.9938069,143.210107 C96.5184666,141.384384 103.499809,131.773508 105.63204,129.339211 C106.847184,127.812036 107.4089,126.33079 108.016471,125.11364 C108.291598,124.29838 111.054328,118.419325 112.326789,115.560176 C119.124711,126.135585 128.38731,140.557642 130.118316,142.934526 C132.858121,146.287425 135.368652,148.193526 139.01408,146.057774 C142.051936,144.232051 141.753884,140.259098 139.931169,137.514772 C138.108454,134.471903 117.187361,100.678818 117.187361,100.678818 L120.488882,88.0939657 C120.488882,88.0939657 122.942096,92.7903194 124.157238,94.6160424 C124.764808,95.5346447 125.383845,95.8102254 126.908505,96.7288278 C128.73122,97.6474301 135.999149,101.298876 138.738953,102.516023 C141.169239,103.733172 144.218561,104.100613 145.433703,101.964861 C146.9469,99.8291122 145.147113,97.0962687 143.324398,96.1776664 C141.192168,95.259064 129.934899,89.4718692 129.934899,89.4718692 C129.934899,89.4718692 125.670435,76.8525686 123.240149,71.3754028 C121.107918,65.8867552 119.34252,64.7614659 115.995145,64.7614659 L111.134574,64.7614659 Z" id="Shape"></path>
        </g>
    </g>
</svg>