<svg xmlns="http://www.w3.org/2000/svg" width="25.455" height="44.545" viewBox="0 0 25.455 44.545">
  <path fill="rgb(255,255,255)" fill-rule="evenodd" d="M11.63729858 4.64013672C11.63729858 2.07745362 13.86862183 0 16.62106323 0c1.32177735 0 2.5894165.48886108 3.52407837 1.35906982.93463135.87020874 1.4597168 2.05044556 1.4597168 3.2810669 0 2.56271362-2.23132324 4.64016724-4.98379517 4.64016724-2.7524414 0-4.98376465-2.07745362-4.98376465-4.64016724zm-8.927948 7.9644165c.18518067-.86538696.99905396-1.48980713 1.94677735-1.49356079.60864258-.00308227 1.18545532.25283814 1.56625366.6949463.38076782.44207763.5237732 1.02191161.38833618 1.57437133L3.95529175 24.90820313c-.13006592.66583251-.63903809 1.21301269-1.32827759 1.427948-.68927002.21496581-1.44952393.06362914-1.98413086-.39492799-.53457642-.45855712-.75878906-1.15164184-.58505249-1.80880737L2.7093506 12.60455322zm11.91824341.38787842c-2.43347168.00057983-4.51065063 1.63723755-4.91369628 3.87161255l-1.88061524 8.0223999c-.11984253.35549927-.18154907.72579956-.1829834 1.0984192.00219727.7940979.27786255 1.56661986.78649903 2.20407104l9.1654663 14.93185424.2453003.43502808c.50024414.87850952 1.65505981 1.23416138 2.61929321.80667114.96426392-.42752075 1.39559937-1.48638916.97836304-2.4017334l-4.94873047-13.81170654 1.05905151-3.41122436c.01141358.01586914.0231018.03158569.03503418.04711914l4.30630493 4.90115356c.44692994.52627564 1.1640625.78707886 1.87579346.6821289.71170044-.10491943 1.30722046-.55926513 1.55761719-1.188385.25039673-.62908936.11669922-1.33502197-.34970093-1.84643555l-4.01037598-4.56402588-1.37832641-5.51742554c-.21270752-2.40600585-2.37136841-4.25823974-4.96429444-4.25952148zM6.09674072 34.64526367l.4555664-2.037323 3.23165894 5.26367188-3.5664978 5.69506836c-.36083984.62548828-1.04821777.97875976-1.75991821.97875976-.31695557 0-.6373291-.06900024-.9383545-.21749878-.97082519-.48443603-1.3359375-1.61376953-.81762695-2.51583862l3.39517212-7.1668396z"/>
</svg>
