<?xml version="1.0" encoding="UTF-8"?>
<svg width="16px" height="14px" viewBox="0 0 16 14" version="1.1" xmlns="http://www.w3.org/2000/svg">
    <title>icons8-error</title>
    <g id="Web" stroke="none" stroke-width="1" fill="none" fill-rule="evenodd">
        <g id="Import" transform="translate(-828.000000, -1152.000000)" fill="#EBBB00" fill-rule="nonzero">
            <g id="Dropdown" transform="translate(792.000000, 953.000000)">
                <g id="Group-9" transform="translate(20.000000, 184.000000)">
                    <g id="icons8-error" transform="translate(16.000000, 15.000000)">
                        <path d="M8,0 C7.48826585,0 7.04988492,0.308440574 6.86418277,0.747792104 L0.185096123,12.1418141 L0.186298092,12.1441917 C0.0700278154,12.3300806 0,12.5478457 0,12.7826087 C0,13.4552174 0.550769231,14 1.23076923,14 C1.25964708,14 1.28652443,13.9936111 1.31490388,13.9916779 L1.31971151,14 L8,14 L14.6802886,14 L14.685096,13.9916779 C14.7134757,13.9936111 14.7403532,14 14.7692308,14 C15.4492308,14 16,13.4552174 16,12.7826087 C16,12.5478457 15.9299723,12.3300806 15.8137022,12.1441917 L15.814904,12.1418141 L9.13581723,0.747792104 C8.95011508,0.308440574 8.51173415,0 8,0 Z M7.25360554,5.08831522 L8.74639446,5.08831522 L8.62259631,9.02819278 L7.37740369,9.02819278 L7.25360554,5.08831522 Z M8.00240369,10.2325069 C8.50824985,10.2325069 8.81129785,10.5017123 8.81129785,10.9612769 C8.81129785,11.4123203 8.50824985,11.6805366 8.00240369,11.6805366 C7.49286523,11.6805366 7.18750031,11.412321 7.18750031,10.9612769 C7.18750031,10.5017123 7.49224985,10.2325069 8.00240369,10.2325069 Z" id="Shape"></path>
                    </g>
                </g>
            </g>
        </g>
    </g>
</svg>
