<svg width="18px" height="18px" viewBox="0 0 18 18" version="1.1" xmlns="http://www.w3.org/2000/svg"
     xmlns:xlink="http://www.w3.org/1999/xlink">
  <g id="Email-notifications-(SP-1164)" stroke="none" stroke-width="1" fill="none" fill-rule="evenodd">
    <g id="Artboard" transform="translate(-5979.000000, -2007.000000)" fill="#1F195E" fill-rule="nonzero">
      <g id="Dropdown" transform="translate(5954.000000, 1911.000000)">
        <g id="Group-3" transform="translate(25.000000, 95.000000)">
          <g id="icons8-near_me" transform="translate(0.000000, 1.000000)">
            <path
              d="M9,0 C4.02975,0 0,4.02975 0,9 C0,13.97025 4.02975,18 9,18 C13.97025,18 18,13.97025 18,9 C18,4.02975 13.97025,0 9,0 Z M10.4535,12.981 C10.35525,13.28025 10.08225,13.5 9.75,13.5 C9.39,13.5 9.10425,13.24125 9.03075,12.90375 L8.25,9.75 L5.09625,8.96925 C4.758,8.89575 4.5,8.61 4.5,8.25 C4.5,7.91775 4.71975,7.64475 5.019,7.5465 L11.7675,5.2965 C11.84175,5.2725 11.9175,5.25 12,5.25 C12.414,5.25 12.75,5.586 12.75,6 C12.75,6.0825 12.7275,6.15825 12.70275,6.2325 L10.4535,12.981 Z"
              id="Shape"></path>
          </g>
        </g>
      </g>
    </g>
  </g>
</svg>
