<svg width="34px" height="32px" viewBox="0 0 34 32" version="1.1" xmlns="http://www.w3.org/2000/svg"
     xmlns:xlink="http://www.w3.org/1999/xlink">
  <g id="Email-notifications-(SP-1164)" stroke="none" stroke-width="1" fill="none" fill-rule="evenodd">
    <g id="Artboard" transform="translate(-5284.000000, -557.000000)" fill="#7083A0" fill-rule="nonzero">
      <g id="Dropdown" transform="translate(5235.000000, 462.000000)">
        <g id="Group-8" transform="translate(28.000000, 73.500000)">
          <path
            d="M23.8333333,22 C22.2679167,22 21,23.2611207 21,24.8181467 L21,29.0453668 L21,51.5905408 C21,52.3683493 21.63325,52.9996141 22.4166667,52.9996141 L43.8492835,52.9996141 C42.9652835,52.344395 42.3753523,51.3354985 42.2804357,50.1814674 L23.8333333,50.1814674 L23.8333333,29.0453668 L52.1666667,29.0453668 L52.1666667,39.4537959 L55,41.4628259 L55,27.6362935 L55,24.8181467 C55,23.2611207 53.7320833,22 52.1666667,22 L23.8333333,22 Z M46.1845707,38.9088804 C45.575404,38.9088804 45.0833333,39.3983136 45.0833333,40.0042152 L45.0833333,49.8677288 C45.0833333,50.4736303 45.575404,50.9658154 46.1845707,50.9658154 C46.501904,50.9658154 46.7830457,50.8277262 46.9842124,50.6135471 L46.9897459,50.616299 L48.8297522,48.4559035 L50.7223311,52.2207714 C50.9486529,52.6711795 51.3993905,52.9672582 51.9047217,52.9974554 C52.4100529,53.0276527 52.8931878,52.7873798 53.1720981,52.3671631 C53.4510084,51.9469463 53.4833111,51.4106418 53.2568356,50.9603102 L51.2950852,47.0578378 L54.203125,46.537691 L54.2058917,46.5184276 C54.6606417,46.3845656 55,45.9837941 55,45.4863912 C55,45.1031233 54.7898021,44.7823167 54.4908854,44.5864555 L54.4936522,44.5644388 L46.9288732,39.1978504 L46.9233397,39.2006023 C46.7278397,39.0230591 46.4707373,38.9088804 46.1845707,38.9088804 Z"
            id="Shape"></path>
        </g>
      </g>
    </g>
  </g>
</svg>
