<svg width="14" height="18" viewBox="0 0 14 18" fill="none" xmlns="http://www.w3.org/2000/svg">
<path fill-rule="evenodd" clip-rule="evenodd" d="M13.7949 4.70285L9.2449 0.202846C9.1133 0.0726923 8.9355 0 8.75 0H1.4C0.6265 0 0 0.619615 0 1.38462V16.6154C0 17.3804 0.6265 18 1.4 18H12.6C13.3735 18 14 17.3804 14 16.6154V5.19231C14 5.00885 13.9265 4.833 13.7949 4.70285ZM4.3736 13.3712L4.0628 12.4664C3.9655 12.1812 3.8815 11.9105 3.7954 11.5968H3.7793C3.7296 11.7896 3.68016 11.9753 3.63215 12.1556C3.6024 12.2673 3.57319 12.377 3.5448 12.4851L3.2816 13.3712H2.3254L3.2494 10.8616L2.3604 8.46277H3.3656L3.6554 9.36969C3.7338 9.62654 3.8059 9.87992 3.8822 10.1603H3.8969C3.9774 9.86331 4.0404 9.62515 4.1055 9.35931L4.3568 8.46277H5.3228L4.3925 10.9011L5.3739 13.3712H4.3736ZM6.1761 13.3712H8.4119V12.5619H7.1428V8.46277H6.1761V13.3712ZM9.849 13.4148C9.4486 13.4148 9.0636 13.3158 8.8977 13.2182L9.037 12.393C9.2365 12.5065 9.5788 12.5855 9.8532 12.5855C10.3082 12.5855 10.5357 12.3515 10.5357 12.0288C10.5357 11.6785 10.311 11.4985 9.8903 11.2327C9.212 10.8208 8.9551 10.3064 8.9551 9.86123C8.9551 9.07269 9.4836 8.41985 10.5231 8.41985C10.8528 8.41985 11.1594 8.51054 11.3029 8.59569L11.1489 9.41677C11.0075 9.32885 10.7961 9.24923 10.5182 9.24923C10.1045 9.24923 9.9064 9.49638 9.9064 9.756C9.9064 10.0502 10.0562 10.2053 10.5889 10.5231C11.2476 10.9142 11.4863 11.4113 11.4863 11.9264C11.4863 12.8278 10.8164 13.4148 9.849 13.4148ZM8.4 4.84615C8.4 5.22831 8.7136 5.53846 9.1 5.53846H12.6672L8.4 1.31815V4.84615Z" fill="white"/>
</svg>
