<svg width="12" height="15" viewBox="0 0 12 15" fill="none" xmlns="http://www.w3.org/2000/svg">
<path d="M11.177 4.18934L7.71036 0.722673C7.61009 0.622406 7.47463 0.566406 7.33329 0.566406H1.73329C1.14396 0.566406 0.666626 1.04374 0.666626 1.63307V13.3664C0.666626 13.9557 1.14396 14.4331 1.73329 14.4331H10.2666C10.856 14.4331 11.3333 13.9557 11.3333 13.3664V4.56641C11.3333 4.42507 11.2773 4.28961 11.177 4.18934ZM9.57703 8.41014L7.44369 10.5435C7.33969 10.6475 7.20316 10.6997 7.06663 10.6997C6.93009 10.6997 6.79356 10.6475 6.68956 10.5435L4.93329 8.78721L3.17703 10.5435C2.96849 10.752 2.63143 10.752 2.42289 10.5435C2.21436 10.3349 2.21436 9.99787 2.42289 9.78934L4.55623 7.65601C4.76476 7.44747 5.10183 7.44747 5.31036 7.65601L7.06663 9.41227L8.82289 7.65601C9.03143 7.44747 9.36849 7.44747 9.57703 7.65601C9.78556 7.86454 9.78556 8.20161 9.57703 8.41014ZM7.59996 4.83307C7.30556 4.83307 7.06663 4.59414 7.06663 4.29974V1.58187L10.3178 4.83307H7.59996Z" fill="#7F879D"/>
</svg>
