<svg width="14" height="18" viewBox="0 0 14 18" fill="none" xmlns="http://www.w3.org/2000/svg">
<path fill-rule="evenodd" clip-rule="evenodd" d="M0 1.38462C0 0.619615 0.6265 0 1.4 0H8.75C8.9355 0 9.11332 0.0726707 9.24492 0.202825L13.7949 4.70282C13.9265 4.83298 14 5.00885 14 5.19231V16.6154C14 17.3804 13.3735 18 12.6 18H1.4C0.6265 18 0 17.3804 0 16.6154V1.38462ZM12.667 5.53846L8.4 1.31836V4.84615C8.4 5.22831 8.7136 5.53846 9.1 5.53846H12.667ZM3.5 5.53846C4.2735 5.53846 4.9 6.15808 4.9 6.92308C4.9 7.68808 4.2735 8.30769 3.5 8.30769C2.7265 8.30769 2.1 7.68808 2.1 6.92308C2.1 6.15808 2.7265 5.53846 3.5 5.53846ZM6.09766 11.5691C5.76691 11.242 5.33347 11.0783 4.9 11.0783C4.46653 11.0783 4.03309 11.242 3.70234 11.5691L2.1 13.1538V15.2308H11.9V13.1538L10.2977 11.5691C9.69753 10.9756 8.7621 10.9262 8.09922 11.4096L8.89766 12.1992C9.19306 12.4921 9.19306 12.9672 8.89766 13.2593C8.60226 13.5515 8.12528 13.5542 7.82988 13.262L7.01094 12.4507L7 12.4615L6.09766 11.5691Z" fill="white"/>
</svg>
