<?xml version="1.0" encoding="UTF-8"?>
<svg width="150px" height="150px" viewBox="0 0 150 150" version="1.1" xmlns="http://www.w3.org/2000/svg" xmlns:xlink="http://www.w3.org/1999/xlink">
    <!-- Generator: Sketch 53.2 (72643) - https://sketchapp.com -->
    <title>Cancel (Blue-Gray)</title>
    <desc>Created with Sketch.</desc>
    <g id="Cancel-(Blue-Gray)" stroke="none" stroke-width="1" fill="none" fill-rule="evenodd">
        <g id="icons8-cancel_filled" fill="#7F879D" fill-rule="nonzero">
            <path d="M75,0 C33.6477273,0 0,33.6477273 0,75 C0,116.352273 33.6477273,150 75,150 C116.352273,150 150,116.352273 150,75 C150,33.6477273 116.352273,0 75,0 Z M104.693182,99.8522727 C106.022727,101.181818 106.022727,103.363636 104.693182,104.693182 C104.011364,105.340909 103.159091,105.681818 102.272727,105.681818 C101.386364,105.681818 100.534091,105.340909 99.8522727,104.693182 L75,79.8409091 L50.1477273,104.693182 C49.4659091,105.340909 48.6136364,105.681818 47.7272727,105.681818 C46.8409091,105.681818 45.9886364,105.340909 45.3068182,104.693182 C43.9772727,103.363636 43.9772727,101.181818 45.3068182,99.8522727 L70.1590909,75 L45.3068182,50.1477273 C43.9772727,48.8181818 43.9772727,46.6363636 45.3068182,45.3068182 C46.6363636,43.9772727 48.8181818,43.9772727 50.1477273,45.3068182 L75,70.1590909 L99.8522727,45.3068182 C101.181818,43.9772727 103.363636,43.9772727 104.693182,45.3068182 C106.022727,46.6363636 106.022727,48.8181818 104.693182,50.1477273 L79.8409091,75 L104.693182,99.8522727 Z" id="Shape"></path>
        </g>
    </g>
</svg>