<?xml version="1.0" encoding="UTF-8"?>
<svg width="150px" height="150px" viewBox="0 0 150 150" version="1.1" xmlns="http://www.w3.org/2000/svg" xmlns:xlink="http://www.w3.org/1999/xlink">
    <!-- Generator: Sketch 53.2 (72643) - https://sketchapp.com -->
    <title>Chevron Up (White)</title>
    <desc>Created with Sketch.</desc>
    <g id="Chevron-Up-(White)" stroke="none" stroke-width="1" fill="none" fill-rule="evenodd">
        <g id="icons8-collapse2" transform="translate(75.000000, 75.000000) scale(-1, 1) translate(-75.000000, -75.000000) translate(0.000000, 34.000000)" fill="#FFFFFF" fill-rule="nonzero">
            <path d="M74.8935896,0.00080148523 C73.1247395,0.0290718089 71.4362886,0.746178962 70.1856705,2.00031621 L2.09370813,70.2504087 C0.314888577,71.9622389 -0.401660306,74.5042068 0.220409241,76.8959646 C0.842478787,79.2877223 2.70596178,81.1555324 5.0921782,81.7790459 C7.47839463,82.4025594 10.0144728,81.6843457 11.7223363,79.9013947 L74.9999833,16.4767966 L138.277632,79.9013947 C139.985491,81.6843655 142.521579,82.4025943 144.907807,81.7790831 C147.294036,81.155572 149.157528,79.2877521 149.779595,76.8959819 C150.401662,74.5042116 149.685097,71.9622341 147.906257,70.2504087 L79.814296,2.00031621 C78.5115384,0.693929153 76.7361771,-0.0274837368 74.8935896,0.00080148523 Z" id="Path"></path>
        </g>
    </g>
</svg>