<?xml version="1.0" encoding="UTF-8"?>
<svg width="150px" height="150px" viewBox="0 0 150 150" version="1.1" xmlns="http://www.w3.org/2000/svg" xmlns:xlink="http://www.w3.org/1999/xlink">
    <!-- Generator: Sketch 53.2 (72643) - https://sketchapp.com -->
    <title>Download (Navy)</title>
    <desc>Created with Sketch.</desc>
    <g id="Download-(Navy)" stroke="none" stroke-width="1" fill="none" fill-rule="evenodd">
        <g id="icons8-download" transform="translate(12.000000, 0.000000)" fill="#1F195E" fill-rule="nonzero">
            <path d="M63.5,0 C60.3134545,0 57.7272727,2.58461538 57.7272727,5.76923077 L57.7272727,28.8461538 L69.2727273,28.8461538 L69.2727273,5.76923077 C69.2727273,2.58461538 66.6865455,0 63.5,0 Z M69.2727273,28.8461538 L69.2727273,101.457335 L82.509412,88.2286673 C84.7665483,85.9728981 88.4152699,85.9728981 90.6724062,88.2286673 C92.9295426,90.4844365 92.9295426,94.1309481 90.6724062,96.3867173 L67.5814971,119.46364 C66.4558153,120.58864 64.9778182,121.153846 63.5,121.153846 C62.0221818,121.153846 60.5441847,120.58864 59.4185029,119.46364 L36.3275938,96.3867173 C34.0704557,94.1309481 34.0704563,90.4844365 36.3275938,88.2286673 C38.5847301,85.9728981 42.2334517,85.9728981 44.490588,88.2286673 L57.7272727,101.457335 L57.7272727,28.8461538 L11.5454545,28.8461538 C5.16659091,28.8461538 0,34.0096154 0,40.3846154 L0,138.461538 C0,144.836538 5.16659091,150 11.5454545,150 L115.454545,150 C121.833409,150 127,144.836538 127,138.461538 L127,40.3846154 C127,34.0096154 121.833409,28.8461538 115.454545,28.8461538 L69.2727273,28.8461538 Z" id="Shape"></path>
        </g>
    </g>
</svg>