<?xml version="1.0" encoding="UTF-8"?>
<svg width="150px" height="150px" viewBox="0 0 150 150" version="1.1" xmlns="http://www.w3.org/2000/svg" xmlns:xlink="http://www.w3.org/1999/xlink">
    <!-- Generator: Sketch 53.2 (72643) - https://sketchapp.com -->
    <title>Feedback (Navy)</title>
    <desc>Created with Sketch.</desc>
    <g id="Feedback-(Navy)" stroke="none" stroke-width="1" fill="none" fill-rule="evenodd">
        <g id="icons8-quote" transform="translate(0.000000, 3.000000)" fill="#1F195E" fill-rule="nonzero">
            <path d="M75,0 C33.5769231,0 0,28.368 0,63.36 C0,82.75968 10.3461237,100.100068 26.603816,111.723748 C27.018926,120.571016 25.6458369,132.78748 13.4202225,138.42 C13.412694,138.423717 13.4051818,138.427467 13.3976862,138.431249 C12.2794421,138.855844 11.5397708,139.925533 11.5384615,141.12 C11.5384615,142.71058 12.8299478,144 14.4230769,144 C14.5058326,143.999802 14.5885414,143.996049 14.6709738,143.988751 C28.7134321,143.898883 40.6342696,136.322116 48.8581731,128.317501 C51.4658654,125.777341 55.1012019,124.527329 58.6838942,125.201249 C63.9338942,126.197729 69.3923077,126.72 75,126.72 C116.423077,126.72 150,98.352 150,63.36 C150,28.368 116.423077,0 75,0 Z M51.9230769,40.32 L57.6923077,40.32 C64.0673077,40.32 69.2307692,45.4752 69.2307692,51.84 L69.2307692,57.6 C69.2307692,83.45088 56.0092269,90.7979386 54.5034577,91.5524986 C53.6784577,91.9614586 52.7997288,92.16 51.9343442,92.16 C49.8170365,92.16 47.7777058,90.9980122 46.7623212,88.9762522 C45.33732,86.1308122 46.4926962,82.6702214 49.3426962,81.2475014 C49.4984654,81.1553414 54.1228673,78.38208 56.4190212,69.12 L51.9230769,69.12 C45.5480769,69.12 40.3846154,63.9648 40.3846154,57.6 L40.3846154,51.84 C40.3846154,45.4752 45.5480769,40.32 51.9230769,40.32 Z M92.3076923,40.32 L98.0769231,40.32 C104.451923,40.32 109.615385,45.4752 109.615385,51.84 L109.615385,57.6 C109.615385,83.45088 96.3938423,90.7979386 94.8880731,91.5524986 C94.0630731,91.9614586 93.1843442,92.16 92.3189596,92.16 C90.2016519,92.16 88.1623212,90.9980122 87.1469365,88.9762522 C85.7219365,86.1308122 86.8773115,82.6702214 89.7273115,81.2475014 C89.8830808,81.1553414 94.5074827,78.38208 96.8036365,69.12 L92.3076923,69.12 C85.9326923,69.12 80.7692308,63.9648 80.7692308,57.6 L80.7692308,51.84 C80.7692308,45.4752 85.9326923,40.32 92.3076923,40.32 Z" id="Shape"></path>
        </g>
    </g>
</svg>