<?xml version="1.0" encoding="UTF-8"?>
<svg width="150px" height="150px" viewBox="0 0 150 150" version="1.1" xmlns="http://www.w3.org/2000/svg" xmlns:xlink="http://www.w3.org/1999/xlink">
    <!-- Generator: Sketch 53.2 (72643) - https://sketchapp.com -->
    <title>File (Navy)</title>
    <desc>Created with Sketch.</desc>
    <g id="File-(Navy)" stroke="none" stroke-width="1" fill="none" fill-rule="evenodd">
        <g id="icons8-google_sheets_filled" transform="translate(20.000000, 0.000000)" fill="#1F195E" fill-rule="nonzero">
            <path d="M11.4264706,0 C5.13936203,0 0,5.05689457 0,11.3111413 L0,136.650815 C0,144.025986 6.05756056,150 13.4669118,150 L97.5330882,150 C104.942439,150 111,144.025986 111,136.650815 L111,40.7608696 C111,39.8947011 110.693934,39.0285326 110.081801,38.4171196 L72.5376838,0.917119565 C71.9255515,0.305706522 71.058364,0 70.1911765,0 L11.4264706,0 Z M71.8235294,9.47690217 L101.511949,39.1304348 L77.2306985,39.1304348 C74.2337997,39.1304348 71.8235294,36.7229967 71.8235294,33.7296196 L71.8235294,9.47690217 Z M29.3823529,71.7391304 L81.6176471,71.7391304 L81.6176471,117.391304 L29.3823529,117.391304 L29.3823529,71.7391304 Z M35.9117647,78.2608696 L35.9117647,84.7826087 L52.2352941,84.7826087 L52.2352941,78.2608696 L35.9117647,78.2608696 Z M58.7647059,78.2608696 L58.7647059,84.7826087 L75.0882353,84.7826087 L75.0882353,78.2608696 L58.7647059,78.2608696 Z M35.9117647,91.3043478 L35.9117647,97.826087 L52.2352941,97.826087 L52.2352941,91.3043478 L35.9117647,91.3043478 Z M58.7647059,91.3043478 L58.7647059,97.826087 L75.0882353,97.826087 L75.0882353,91.3043478 L58.7647059,91.3043478 Z M35.9117647,104.347826 L35.9117647,110.869565 L52.2352941,110.869565 L52.2352941,104.347826 L35.9117647,104.347826 Z M58.7647059,104.347826 L58.7647059,110.869565 L75.0882353,110.869565 L75.0882353,104.347826 L58.7647059,104.347826 Z" id="Shape"></path>
        </g>
    </g>
</svg>