<?xml version="1.0" encoding="UTF-8"?>
<svg width="150px" height="150px" viewBox="0 0 150 150" version="1.1" xmlns="http://www.w3.org/2000/svg" xmlns:xlink="http://www.w3.org/1999/xlink">
    <!-- Generator: Sketch 53.2 (72643) - https://sketchapp.com -->
    <title>Future (White)</title>
    <desc>Created with Sketch.</desc>
    <g id="Future-(White)" stroke="none" stroke-width="1" fill="none" fill-rule="evenodd">
        <g id="icons8-date_from" transform="translate(0.000000, 12.000000)" fill="#FFFFFF" fill-rule="nonzero">
            <path d="M144.928846,68.5742273 C144.928846,68.5742273 127.148077,50.8865909 126.923077,50.6787727 L126.923077,11.5454545 C126.923077,5.16659091 121.759615,0 115.384615,0 L11.5384615,0 C5.16346154,0 0,5.16659091 0,11.5454545 L0,115.454545 C0,121.833409 5.16346154,127 11.5384615,127 L115.384615,127 C121.759615,127 126.923077,121.833409 126.923077,115.454545 L126.923077,110.957591 C127.148077,110.755545 144.928846,93.0621364 144.928846,93.0621364 C148.2,89.7947727 150,85.4421364 150,80.8181818 C150,76.1942273 148.2,71.8415909 144.928846,68.5742273 Z M11.5384615,11.5454545 L115.384615,11.5454545 L115.384615,34.6363636 L11.5384615,34.6363636 L11.5384615,11.5454545 Z M136.771154,84.8995 C135.525,86.1464091 131.053846,90.6145 126.923077,94.7535455 C123.588462,98.0901818 120.467308,101.213227 119.463462,102.217682 C117.207692,104.474818 113.555769,104.474818 111.305769,102.217682 C110.180769,101.092 109.615385,99.6141818 109.615385,98.1363636 L109.615385,86.5909091 L57.6923077,86.5909091 C54.5019231,86.5909091 51.9230769,84.0047273 51.9230769,80.8181818 C51.9230769,77.6316364 54.5019231,75.0454545 57.6923077,75.0454545 L109.615385,75.0454545 L109.615385,63.5 C109.615385,62.0221818 110.180769,60.5443636 111.305769,59.4186818 C113.561538,57.1615455 117.213462,57.1615455 119.463462,59.4186818 C120.467308,60.4231364 123.588462,63.5461818 126.923077,66.8828182 C131.059615,71.0218636 135.525,75.4899545 136.771154,76.7368636 C139.026923,78.9882273 139.026923,82.6481364 136.771154,84.8995 Z" id="Shape"></path>
        </g>
    </g>
</svg>