<?xml version="1.0" encoding="UTF-8"?>
<svg width="150px" height="150px" viewBox="0 0 150 150" version="1.1" xmlns="http://www.w3.org/2000/svg" xmlns:xlink="http://www.w3.org/1999/xlink">
    <!-- Generator: Sketch 53.2 (72643) - https://sketchapp.com -->
    <title>Google (Color)</title>
    <desc>Created with Sketch.</desc>
    <g id="Google-(Color)" stroke="none" stroke-width="1" fill="none" fill-rule="evenodd">
        <g id="icons8-google_logo" fill-rule="nonzero">
            <path d="M148.54125,60.31125 L142.5,60.31125 L142.5,60 L75,60 L75,90 L117.38625,90 C111.2025,107.46375 94.58625,120 75,120 C50.14875,120 30,99.85125 30,75 C30,50.14875 50.14875,30 75,30 C86.47125,30 96.9075,34.3275 104.85375,41.39625 L126.0675,20.1825 C112.6725,7.69875 94.755,0 75,0 C33.58125,0 0,33.58125 0,75 C0,116.41875 33.58125,150 75,150 C116.41875,150 150,116.41875 150,75 C150,69.97125 149.4825,65.0625 148.54125,60.31125 Z" id="Path" fill="#FFC107"></path>
            <path d="M9,39.9792392 L33.5531106,58 C40.1967616,41.5386202 56.2865036,29.9161831 75.1151635,29.9161831 C86.545382,29.9161831 96.9443025,34.2315925 104.86213,41.2805932 L126,20.1261122 C112.652913,7.67724049 94.7995018,0 75.1151635,0 C46.4107052,0 21.5175652,16.2183108 9,39.9792392 Z" id="Path" fill="#FF3D00"></path>
            <path d="M74.7388031,150 C94.1026142,150 111.697219,142.561144 125,130.464066 L101.797911,110.755048 C94.2712885,116.478114 84.9154866,119.898407 74.7388031,119.898407 C55.2400525,119.898407 38.6837317,107.417534 32.4465304,90 L8,108.907563 C20.4069328,133.278565 45.6031268,150 74.7388031,150 Z" id="Path" fill="#4CAF50"></path>
            <path d="M148.54125,60.3129873 L142.5,60.3129873 L142.5,60 L75,60 L75,90.1674509 L117.38625,90.1674509 C114.41625,98.6030244 109.02,105.877151 102.06,111.17531 C102.06375,111.171539 102.0675,111.171539 102.07125,111.167768 L125.28375,130.919906 C123.64125,132.420737 150,112.793039 150,75.0837255 C150,70.0269065 149.4825,65.0907573 148.54125,60.3129873 Z" id="Path" fill="#1976D2"></path>
        </g>
    </g>
</svg>