<?xml version="1.0" encoding="UTF-8"?>
<svg width="150px" height="150px" viewBox="0 0 150 150" version="1.1" xmlns="http://www.w3.org/2000/svg" xmlns:xlink="http://www.w3.org/1999/xlink">
    <!-- Generator: Sketch 53.2 (72643) - https://sketchapp.com -->
    <title>Group (Blue-Gray)</title>
    <desc>Created with Sketch.</desc>
    <g id="Group-(Blue-Gray)" stroke="none" stroke-width="1" fill="none" fill-rule="evenodd">
        <g id="icons8-group" transform="translate(0.000000, 28.000000)" fill="#7F879D" fill-rule="nonzero">
            <path d="M75,0 C59.09,0 52.5,10.205 52.5,22.5 C52.5,26.64 54.48242,30.80078 54.48242,30.80078 C53.68742,31.26078 52.36531,32.722735 52.69531,35.302735 C53.31031,40.112735 55.398515,41.32578 56.728515,41.42578 C57.233515,45.91578 62.065,51.665 63.75,52.5 L63.75,59.208985 C60,70.458985 30,68.75 30,95 L120,95 C120,68.75 90,70.458985 86.25,59.208985 L86.25,52.5 C87.94,51.665 92.766485,45.91578 93.271485,41.42578 C94.601485,41.32578 96.68969,40.112735 97.30469,35.302735 C97.634685,32.717735 96.31258,31.26078 95.51758,30.80078 C95.51758,30.80078 97.5,27.045 97.5,22.5 C97.5,13.395 93.925,5.625 86.25,5.625 C86.25,5.625 83.585,0 75,0 Z M112.5,9.9902345 C109.94,9.9902345 107.76172,10.4532815 105.76172,11.113281 C106.85672,14.5082815 107.5,18.295 107.5,22.5 C107.5,25.16 107.082735,27.59867 106.552735,29.63867 C107.277735,31.78367 107.526795,34.1425 107.216795,36.5625 C106.511795,42.0675 104.374455,45.80906 101.689455,48.16406 C100.909455,50.054065 99.841405,51.844685 98.691405,53.55469 C100.111405,56.469685 102.19,59.064845 103.125,59.589845 L103.125,59.64844 C113.31,64.42344 130,72.45 130,95 L150,95 C150,70.21 125,73.76953 121.875,63.14453 L121.875,59.58008 C123.28,58.79008 127.30461,53.361095 127.72461,49.121095 C128.82961,49.026095 130.573985,47.884845 131.083985,43.339845 C131.358985,40.899845 130.25961,39.526795 129.59961,39.091795 C129.59961,39.091795 131.25,35.535 131.25,31.25 C131.25,22.65 128.27,15.3125 121.875,15.3125 C121.875,15.3125 119.655,9.9902345 112.5,9.9902345 Z M37.5,10 C30.345,10 28.125,15.3125 28.125,15.3125 C21.73,15.3125 18.75,22.659765 18.75,31.259765 C18.75,35.549765 20.4003905,39.091795 20.4003905,39.091795 C19.7353905,39.521795 18.6410155,40.899845 18.9160155,43.339845 C19.4260155,47.884845 21.1703905,49.03586 22.2753905,49.13086 C22.6953905,53.37086 26.72,58.799845 28.125,59.589845 L28.125,63.14453 C25,73.76453 0,70.21 0,95 L20,95 C20,72.45 36.69,64.42844 46.875,59.64844 L46.875,59.58008 C47.81,59.05508 49.8885935,56.47469 51.308595,53.55469 C50.158595,51.84469 49.090547,50.044295 48.310547,48.154295 C45.625547,45.804295 43.483203,42.0625 42.783203,36.5625 C42.468203,34.1125 42.726797,31.71578 43.466797,29.55078 C42.926797,27.49578 42.5,25.055 42.5,22.5 C42.5,18.365 43.0853905,14.56375 44.1503905,11.09375 C42.1753905,10.44875 40.025,10 37.5,10 Z" id="Shape"></path>
        </g>
    </g>
</svg>