<?xml version="1.0" encoding="UTF-8"?>
<svg width="150px" height="150px" viewBox="0 0 150 150" version="1.1" xmlns="http://www.w3.org/2000/svg" xmlns:xlink="http://www.w3.org/1999/xlink">
    <!-- Generator: Sketch 53.2 (72643) - https://sketchapp.com -->
    <title>Plus (Blue-Gray)</title>
    <desc>Created with Sketch.</desc>
    <g id="Plus-(Blue-Gray)" stroke="none" stroke-width="1" fill="none" fill-rule="evenodd">
        <g id="icons8-plus_math" fill="#7F879D" fill-rule="nonzero">
            <path d="M74.8173274,0.00133861853 C67.9349183,0.102204565 62.4354545,5.75994864 62.5296016,12.6427179 L62.5296016,62.5262327 L12.6480079,62.5262327 C8.15073437,62.4626276 3.96759598,64.8255547 1.70039828,68.7102029 C-0.566799426,72.5948511 -0.566799426,77.3993718 1.70039828,81.28402 C3.96759598,85.1686682 8.15073437,87.5315952 12.6480079,87.4679901 L62.5296016,87.4679901 L62.5296016,137.351505 C62.4659989,141.848952 64.828835,146.032251 68.7133336,148.299536 C72.5978322,150.566821 77.4021678,150.566821 81.2866664,148.299536 C85.171165,146.032251 87.5340011,141.848952 87.4703984,137.351505 L87.4703984,87.4679901 L137.351992,87.4679901 C141.849266,87.5315952 146.032404,85.1686682 148.299602,81.28402 C150.566799,77.3993718 150.566799,72.5948511 148.299602,68.7102029 C146.032404,64.8255547 141.849266,62.4626276 137.351992,62.5262327 L87.4703984,62.5262327 L87.4703984,12.6427179 C87.5164776,9.27398025 86.1977926,6.02989051 83.8144576,3.64875771 C81.4311225,1.2676249 78.1858894,-0.0479863017 74.8173274,0.00133861853 Z" id="Path"></path>
        </g>
    </g>
</svg>