<?xml version="1.0" encoding="UTF-8"?>
<svg width="150px" height="150px" viewBox="0 0 150 150" version="1.1" xmlns="http://www.w3.org/2000/svg" xmlns:xlink="http://www.w3.org/1999/xlink">
    <!-- Generator: Sketch 53.2 (72643) - https://sketchapp.com -->
    <title>SP Arrow Double (Blue-Gray)</title>
    <desc>Created with Sketch.</desc>
    <g id="SP-Arrow-Double-(Blue-Gray)" stroke="none" stroke-width="1" fill="none" fill-rule="evenodd">
        <g id="Logo" transform="translate(88.000000, 43.000000)" fill="#7F879D" fill-rule="nonzero">
            <path d="M54.9182725,41.8758399 L34.6840139,61.948234 C31.9371262,64.6731479 27.4959505,64.685458 24.7643707,61.9757295 C22.0327907,59.2660009 22.0452001,54.8603525 24.7920877,52.1354387 L45.0263463,32.0630445 L24.6649821,11.8645614 C21.9180943,9.1396475 21.9056849,4.73399923 24.6372649,2.02427059 C27.3688449,-0.685458001 31.8100205,-0.673147961 34.5569081,2.05176596 L59.9635087,27.2551259 C62.6681366,29.9381181 62.680355,34.275987 59.9907994,36.9440276 L54.9687445,41.9259083 L54.9182725,41.8758399 Z M22.0339692,42.5465982 L11.9160781,52.583551 C9.1753425,55.302362 4.75634063,55.3267739 2.04596125,52.6380763 C-0.664418119,49.9493786 -0.639809431,45.5657266 2.10092618,42.8469156 L12.2188173,32.8099628 L2.07175952,22.7440766 C-0.668976163,20.0252655 -0.693584805,15.6416135 2.01679457,12.9529159 C4.72717394,10.2642183 9.14617576,10.2886301 11.8869114,13.0074412 L26.9835072,27.9832715 C29.6820777,30.6602547 29.7063078,34.9764657 27.0376266,37.6237989 L22.0545494,42.5670137 L22.0339692,42.5465982 Z" id="Arrow"></path>
        </g>
        <g id="Logo" transform="translate(31.000000, 75.000000) scale(-1, 1) translate(-31.000000, -75.000000) translate(0.000000, 43.000000)" fill="#7F879D" fill-rule="nonzero">
            <path d="M54.9182725,41.8758399 L34.6840139,61.948234 C31.9371262,64.6731479 27.4959505,64.685458 24.7643707,61.9757295 C22.0327907,59.2660009 22.0452001,54.8603525 24.7920877,52.1354387 L45.0263463,32.0630445 L24.6649821,11.8645614 C21.9180943,9.1396475 21.9056849,4.73399923 24.6372649,2.02427059 C27.3688449,-0.685458001 31.8100205,-0.673147961 34.5569081,2.05176596 L59.9635087,27.2551259 C62.6681366,29.9381181 62.680355,34.275987 59.9907994,36.9440276 L54.9687445,41.9259083 L54.9182725,41.8758399 Z M22.0339692,42.5465982 L11.9160781,52.583551 C9.1753425,55.302362 4.75634063,55.3267739 2.04596125,52.6380763 C-0.664418119,49.9493786 -0.639809431,45.5657266 2.10092618,42.8469156 L12.2188173,32.8099628 L2.07175952,22.7440766 C-0.668976163,20.0252655 -0.693584805,15.6416135 2.01679457,12.9529159 C4.72717394,10.2642183 9.14617576,10.2886301 11.8869114,13.0074412 L26.9835072,27.9832715 C29.6820777,30.6602547 29.7063078,34.9764657 27.0376266,37.6237989 L22.0545494,42.5670137 L22.0339692,42.5465982 Z" id="Arrow"></path>
        </g>
    </g>
</svg>