<?xml version="1.0" encoding="UTF-8"?>
<svg width="150px" height="150px" viewBox="0 0 150 150" version="1.1" xmlns="http://www.w3.org/2000/svg" xmlns:xlink="http://www.w3.org/1999/xlink">
    <!-- Generator: Sketch 53.2 (72643) - https://sketchapp.com -->
    <title>Student (Blue-Gray)</title>
    <desc>Created with Sketch.</desc>
    <g id="Student-(Blue-Gray)" stroke="none" stroke-width="1" fill="none" fill-rule="evenodd">
        <g id="icons8-student" transform="translate(0.000000, 6.000000)" fill="#7F879D" fill-rule="nonzero">
            <path d="M75,0 C74.129466,0.00169485066 73.274446,0.237380044 72.51953,0.683738426 L72.5,0.643518519 L2.5,41.8287037 L2.5097656,41.8789785 C0.960223868,42.7953216 0.00342512413,44.4934567 0,46.3333333 C0.00432031302,48.5489916 1.38498983,50.5132814 3.4277344,51.209999 L3.4277344,51.2200534 L25,60.4404639 L25,50.3352154 C25,46.8911043 26.668125,43.6783371 29.453125,41.7683736 C31.073125,40.6563736 46.14,30.8888889 75,30.8888889 C103.86,30.8888889 118.926875,40.6512254 120.546875,41.7683736 C123.331875,43.6783365 125,46.8911043 125,50.3352154 L125,60.4404639 L135,56.1670994 L135,109.538919 C132.02183,111.321563 130,114.603204 130,118.407407 C130,124.096111 140,139 140,139 C140,139 150,124.096111 150,118.407407 C150,114.603204 147.97817,111.321563 145,109.538919 L145,51.8937349 L146.572265,51.2200534 L146.572265,51.209999 C148.61501,50.5132816 149.99568,48.5489918 150,46.3333333 C149.996575,44.4934568 149.039777,42.7953217 147.490235,41.8789785 L147.5,41.8287037 L77.5,0.643518519 L77.48047,0.683738426 C76.725554,0.237380044 75.870534,0.00169485066 75,0 Z M75,41.1851852 C48.335,41.1851852 35,50.3352154 35,50.3352154 L35,61.7777778 L35,66.9259259 C29.534686,66.9259259 25,71.594972 25,77.2222222 L25,82.3703704 C25,90.1783968 28.3209885,95.737815 31.7089845,98.7901469 C33.606262,100.499456 34.287683,100.445627 35.673828,101.042462 C36.2521545,103.698304 37.680112,109.304287 42.089844,116.114875 C47.6398895,124.686609 58.027675,133.520466 74.23828,133.801575 C74.4905718,133.838291 74.7452201,133.855099 75,133.851852 C75.2287136,133.851209 75.4571148,133.834411 75.683595,133.801575 C91.94047,133.548544 102.35092,124.700802 107.910155,116.114875 C112.31989,109.304287 113.747845,103.698304 114.32617,101.042462 C115.712315,100.445627 116.39374,100.499456 118.291015,98.7901469 C121.67901,95.737815 125,90.1783968 125,82.3703704 L125,77.2222222 C125,71.594972 120.465315,66.9259259 115,66.9259259 L115,61.7777778 L115,50.3352154 C115,50.3352154 101.665,41.1851852 75,41.1851852 Z M75,64.6434481 C88.198895,64.6434481 98.10919,66.8828823 104.77539,69.1480777 C104.919875,71.6991241 105,74.3871216 105,77.2222222 L115,77.2222222 L115,82.3703704 C115,87.4327143 113.32099,89.5955183 111.708985,91.047816 C110.09698,92.5001138 108.78906,92.817492 108.78906,92.817492 L105.60547,93.6419988 L105.06836,96.9701993 C105.06836,96.9701993 103.949805,103.669932 99.589845,110.403643 C95.22988,117.13737 88.333335,123.555556 75,123.555556 C61.666665,123.555556 54.77012,117.137364 50.410155,110.403643 C46.050196,103.669927 44.9316405,96.9701942 44.9316405,96.9701993 L44.394531,93.6419988 L41.2109375,92.817492 C41.2109375,92.817492 39.9030195,92.5001086 38.2910155,91.047816 C36.6790115,89.5955183 35,87.4327143 35,82.3703704 L35,77.2222222 L45,77.2222222 C45,73.927984 45.433569,71.2267661 46.1328125,68.8765901 C52.78273,66.7090653 62.339325,64.6434481 75,64.6434481 Z" id="Shape"></path>
        </g>
    </g>
</svg>