<?xml version="1.0" encoding="UTF-8"?>
<svg width="150px" height="150px" viewBox="0 0 150 150" version="1.1" xmlns="http://www.w3.org/2000/svg" xmlns:xlink="http://www.w3.org/1999/xlink">
    <!-- Generator: Sketch 53.2 (72643) - https://sketchapp.com -->
    <title>Support (Navy)</title>
    <desc>Created with Sketch.</desc>
    <g id="Support-(Navy)" stroke="none" stroke-width="1" fill="none" fill-rule="evenodd">
        <g id="icons8-help" fill="#1F195E" fill-rule="nonzero">
            <path d="M75,0 C33.58125,0 0,33.58125 0,75 C0,116.41875 33.58125,150 75,150 C116.41875,150 150,116.41875 150,75 C150,33.58125 116.41875,0 75,0 Z M75,121.875 C69.825,121.875 65.625,117.675 65.625,112.5 C65.625,107.325 69.825,103.125 75,103.125 C80.175,103.125 84.375,107.325 84.375,112.5 C84.375,117.675 80.175,121.875 75,121.875 Z M87.925,78.125 C83.7875,81.94375 81.25,84.45 81.25,87.5 L68.75,87.5 C68.75,78.81875 74.68125,73.34375 79.44375,68.9375 C84.4375,64.325 87.5,61.24375 87.5,56.25 C87.5,49.35625 81.89375,43.75 75,43.75 C68.10625,43.75 62.5,49.35625 62.5,56.25 L50,56.25 C50,42.4625 61.2125,31.25 75,31.25 C88.7875,31.25 100,42.4625 100,56.25 C100,66.96875 93.30625,73.15 87.925,78.125 Z" id="Shape"></path>
        </g>
    </g>
</svg>