<?xml version="1.0" encoding="UTF-8"?>
<svg width="150px" height="150px" viewBox="0 0 150 150" version="1.1" xmlns="http://www.w3.org/2000/svg" xmlns:xlink="http://www.w3.org/1999/xlink">
    <!-- Generator: Sketch 53.2 (72643) - https://sketchapp.com -->
    <title>Users (Navy)</title>
    <desc>Created with Sketch.</desc>
    <g id="Users-(Navy)" stroke="none" stroke-width="1" fill="none" fill-rule="evenodd">
        <g id="icons8-conference_call" transform="translate(0.000000, 15.000000)" fill="#1F195E" fill-rule="nonzero">
            <path d="M33.0078125,0 C28.4378125,0 25,5 25,5 C-1.175,5 13.266172,46.779455 5.576172,52.939455 C5.576172,52.939455 10.29,58.76953 25,58.76953 L25,63.759765 C20.935,74.349765 -1.48029735e-15,70.435 0,90 L40.1171875,90 C43.6371875,87.87 55,81.96289 55,81.96289 C52.285,79.06289 48.3683595,74.048905 46.9433595,70.253905 C43.8233595,68.688905 41.185,66.849765 40,63.759765 L40,58.71094 C40.95,58.71094 43.751328,58.491485 44.736328,58.271485 C42.506328,54.836485 40.625,47.00719 40.625,42.61719 C40.625,31.4521875 45.433203,22.268672 53.408205,16.513672 C51.003205,7.308672 45.6628125,0 33.0078125,0 Z M115,0 C103.885,0 97.060155,7.6460155 95.410155,17.6660155 C103.490155,21.9960155 108.75,31.3309375 108.75,43.08594 C108.75,46.760935 107.89289,50.29711 106.96289,53.03711 C107.30789,54.39211 107.5,55.903125 107.5,57.578125 C107.5,69.928125 95,82.246095 95,82.246095 C97.715,83.431095 106.40117,87.845 109.95117,90 L150,90 C150,63.75 128.685,71.25 125,60 L125,52.5 C126.66,51.665 130.61328,45.91578 131.11328,41.42578 C132.41328,41.32578 135,38.147735 135,35.302735 C135,32.4577345 134.095545,31.260781 133.310545,30.800781 C133.310545,30.800781 135,27.045 135,22.5 C135,13.395 132.54,5 125,5 C125,5 122.835,0 115,0 Z M75,20 C61.54,20 50.625,28.1071875 50.625,42.61719 C50.625,48.75219 54.0625,53.535155 54.0625,53.535155 C54.0625,53.535155 52.5,54.303125 52.5,57.578125 C52.5,63.943125 56.591795,65.46875 56.591795,65.46875 C57.161795,70.50875 65,77.890625 65,77.890625 L65,86.31836 C60.79,98.94836 35,90.625 35,120 L115,120 C115,90.525 89.21,98.94836 85,86.31836 L85,77.890625 C85,77.890625 92.838205,70.50875 93.408205,65.46875 C93.408205,65.46875 97.5,62.643125 97.5,57.578125 C97.5,54.068125 95.9375,53.535155 95.9375,53.535155 C95.9375,53.535155 98.75,48.18594 98.75,43.08594 C98.75,32.8609375 93.62,25 85,25 C85,25 81.34,20 75,20 Z" id="Shape"></path>
        </g>
    </g>
</svg>