<?xml version="1.0" encoding="UTF-8"?>
<svg width="150px" height="150px" viewBox="0 0 150 150" version="1.1" xmlns="http://www.w3.org/2000/svg" xmlns:xlink="http://www.w3.org/1999/xlink">
    <!-- Generator: Sketch 53.2 (72643) - https://sketchapp.com -->
    <title>Username (Search-gray)</title>
    <desc>Created with Sketch.</desc>
    <g id="Username-(Search-gray)" stroke="none" stroke-width="1" fill="none" fill-rule="evenodd">
        <g id="icons8-user_female_circle" fill="#B3B3B3" fill-rule="nonzero">
            <path d="M75,0 C33.58125,0 0,33.58125 0,75 C0,116.41875 33.58125,150 75,150 C116.41875,150 150,116.41875 150,75 C150,33.58125 116.41875,0 75,0 Z M75,137.5 C52.1125,137.5 37.5,125 37.5,125 C37.5,105.46875 63.1125,108.69375 67.1875,97.6625 L67.1875,93.75 C52.43125,93.75 44.0875,86.3875 44.0875,86.3875 C51.8,79.96875 41.11875,35.325 67.38125,35.325 C67.38125,35.325 70.41875,31.25 75,31.25 C107.1,31.25 97.025,79.725 105.33125,86.5375 C105.33125,86.5375 97.64375,93.75 82.8125,93.75 L82.8125,97.6625 C86.8875,108.69375 112.5,105.46875 112.5,125 C112.5,125 97.8875,137.5 75,137.5 Z" id="Shape"></path>
        </g>
    </g>
</svg>