<?xml version="1.0" encoding="UTF-8"?>
<svg width="132px" height="87px" viewBox="0 0 132 87" version="1.1" xmlns="http://www.w3.org/2000/svg" xmlns:xlink="http://www.w3.org/1999/xlink">
    <!-- Generator: Sketch 52.5 (67469) - http://www.bohemiancoding.com/sketch -->
    <title>Pass Tile 1</title>
    <desc>Created with Sketch.</desc>
    <defs>
        <radialGradient cx="100%" cy="92.8516198%" fx="100%" fy="92.8516198%" r="188.037476%" gradientTransform="translate(1.000000,0.928516),scale(0.611570,1.000000),rotate(-150.409799),translate(-1.000000,-0.928516)" id="radialGradient-1">
            <stop stop-color="#E38314" offset="0%"></stop>
            <stop stop-color="#EAB219" offset="100%"></stop>
        </radialGradient>
        <path d="M12.819426,-5.17920154e-16 L108.180574,5.17920154e-16 C112.638168,-3.00926524e-16 114.254599,0.464128056 115.884229,1.33566352 C117.513858,2.20719898 118.792801,3.48614185 119.664336,5.11577148 C120.535872,6.74540111 121,8.3618323 121,12.819426 L121,61.180574 C121,65.6381677 120.535872,67.2545989 119.664336,68.8842285 C118.792801,70.5138581 117.513858,71.792801 115.884229,72.6643365 C114.254599,73.5358719 112.638168,74 108.180574,74 L12.819426,74 C8.3618323,74 6.74540111,73.5358719 5.11577148,72.6643365 C3.48614185,71.792801 2.20719898,70.5138581 1.33566352,68.8842285 C0.464128056,67.2545989 2.00617683e-16,65.6381677 -3.45280103e-16,61.180574 L3.45280103e-16,12.819426 C-2.00617683e-16,8.3618323 0.464128056,6.74540111 1.33566352,5.11577148 C2.20719898,3.48614185 3.48614185,2.20719898 5.11577148,1.33566352 C6.74540111,0.464128056 8.3618323,3.00926524e-16 12.819426,-5.17920154e-16 Z" id="path-2"></path>
        <filter x="-5.8%" y="-6.8%" width="111.6%" height="118.9%" filterUnits="objectBoundingBox" id="filter-4">
            <feOffset dx="0" dy="2" in="SourceAlpha" result="shadowOffsetOuter1"></feOffset>
            <feGaussianBlur stdDeviation="2" in="shadowOffsetOuter1" result="shadowBlurOuter1"></feGaussianBlur>
            <feColorMatrix values="0 0 0 0 0   0 0 0 0 0   0 0 0 0 0  0 0 0 0.1 0" type="matrix" in="shadowBlurOuter1"></feColorMatrix>
        </filter>
    </defs>
    <g id="Web---Sign-in" stroke="none" stroke-width="1" fill="none" fill-rule="evenodd">
        <g id="Landing" transform="translate(-438.000000, -498.000000)">
            <g id="Pass-Tile-1" transform="translate(504.000000, 540.000000) rotate(-3.000000) translate(-504.000000, -540.000000) translate(443.500000, 503.000000)">
                <mask id="mask-3" fill="white">
                    <use xlink:href="#path-2"></use>
                </mask>
                <g id="Rectangle-4">
                    <use fill="black" fill-opacity="1" filter="url(#filter-4)" xlink:href="#path-2"></use>
                    <use fill="url(#radialGradient-1)" fill-rule="evenodd" xlink:href="#path-2"></use>
                </g>
                <g id="Arrow(s)" mask="url(#mask-3)" fill="#FFFFFF" fill-rule="nonzero">
                    <g transform="translate(55.200000, 50.050000)" id="Arrow">
                        <path d="M10.5553549,8.50602998 L6.44722319,12.583235 C5.8895267,13.1367332 4.98784134,13.1392336 4.43325266,12.58882 C3.87866398,12.0384063 3.88118349,11.1435091 4.43887999,10.5900109 L8.54701173,6.51280591 L4.41307387,2.40998904 C3.85537737,1.8564909 3.85285787,0.961593595 4.40744654,0.411179963 C4.96203522,-0.139233657 5.86372058,-0.136733181 6.42141708,0.416764964 L11.5796818,5.53619743 C12.1287985,6.08118021 12.1312792,6.96230987 11.5852226,7.5042556 L10.5656022,8.51620013 L10.5553549,8.50602998 Z M4.55507773,8.24717773 L2.46340823,10.3149243 C1.89681656,10.8750358 0.983277289,10.8800649 0.422961098,10.3261573 C-0.137355092,9.77224956 -0.13226772,8.86915859 0.434323946,8.30904714 L2.52599345,6.24130055 L0.428294382,4.1675933 C-0.138297283,3.60748183 -0.143384656,2.70439088 0.416931535,2.15048319 C0.977247597,1.5965755 1.890787,1.60160466 2.45737867,2.16171613 L5.57829478,5.24693754 C6.13616964,5.79843191 6.14117871,6.68762916 5.58948285,7.2330152 L4.55933231,8.25138361 L4.55507773,8.24717773 Z"></path>
                    </g>
                </g>
                <path d="M13.418,31.282 L10.562,31.282 L10.562,30.322 L17.414,30.322 L17.414,31.282 L14.558,31.282 L14.558,38.89 L13.418,38.89 L13.418,31.282 Z M17.39,35.794 C17.39,36.1700019 17.4399995,36.5039985 17.54,36.796 C17.6400005,37.0880015 17.7779991,37.331999 17.954,37.528 C18.1300009,37.724001 18.3359988,37.8739995 18.572,37.978 C18.8080012,38.0820005 19.0579987,38.134 19.322,38.134 C19.5860013,38.134 19.8359988,38.0820005 20.072,37.978 C20.3080012,37.8739995 20.5139991,37.724001 20.69,37.528 C20.8660009,37.331999 21.0039995,37.0880015 21.104,36.796 C21.2040005,36.5039985 21.254,36.1700019 21.254,35.794 C21.254,35.4179981 21.2040005,35.0840015 21.104,34.792 C21.0039995,34.4999985 20.8660009,34.254001 20.69,34.054 C20.5139991,33.853999 20.3080012,33.7020005 20.072,33.598 C19.8359988,33.4939995 19.5860013,33.442 19.322,33.442 C19.0579987,33.442 18.8080012,33.4939995 18.572,33.598 C18.3359988,33.7020005 18.1300009,33.853999 17.954,34.054 C17.7779991,34.254001 17.6400005,34.4999985 17.54,34.792 C17.4399995,35.0840015 17.39,35.4179981 17.39,35.794 Z M16.31,35.794 C16.31,35.3379977 16.3739994,34.912002 16.502,34.516 C16.6300006,34.119998 16.8219987,33.7760015 17.078,33.484 C17.3340013,33.1919985 17.6499981,32.9620008 18.026,32.794 C18.4020019,32.6259992 18.8339976,32.542 19.322,32.542 C19.8180025,32.542 20.2519981,32.6259992 20.624,32.794 C20.9960019,32.9620008 21.3099987,33.1919985 21.566,33.484 C21.8220013,33.7760015 22.0139994,34.119998 22.142,34.516 C22.2700006,34.912002 22.334,35.3379977 22.334,35.794 C22.334,36.2500023 22.2700006,36.673998 22.142,37.066 C22.0139994,37.458002 21.8220013,37.7999985 21.566,38.092 C21.3099987,38.3840015 20.9960019,38.6119992 20.624,38.776 C20.2519981,38.9400008 19.8180025,39.022 19.322,39.022 C18.8339976,39.022 18.4020019,38.9400008 18.026,38.776 C17.6499981,38.6119992 17.3340013,38.3840015 17.078,38.092 C16.8219987,37.7999985 16.6300006,37.458002 16.502,37.066 C16.3739994,36.673998 16.31,36.2500023 16.31,35.794 Z M23.318,32.686 L24.278,32.686 L24.278,33.598 L24.302,33.598 C24.7660023,32.8939965 25.4339956,32.542 26.306,32.542 C26.6900019,32.542 27.0379984,32.6219992 27.35,32.782 C27.6620016,32.9420008 27.8819994,33.2139981 28.01,33.598 C28.218001,33.2619983 28.4919983,33.0020009 28.832,32.818 C29.1720017,32.6339991 29.545998,32.542 29.954,32.542 C30.2660016,32.542 30.5479987,32.5759997 30.8,32.644 C31.0520013,32.7120003 31.2679991,32.8179993 31.448,32.962 C31.6280009,33.1060007 31.7679995,33.2919989 31.868,33.52 C31.9680005,33.7480011 32.018,34.0219984 32.018,34.342 L32.018,38.89 L30.998,38.89 L30.998,34.822 C30.998,34.629999 30.9820002,34.4500008 30.95,34.282 C30.9179998,34.1139992 30.8580004,33.9680006 30.77,33.844 C30.6819996,33.7199994 30.5600008,33.6220004 30.404,33.55 C30.2479992,33.4779996 30.0460012,33.442 29.798,33.442 C29.2939975,33.442 28.8980014,33.5859986 28.61,33.874 C28.3219986,34.1620014 28.178,34.5459976 28.178,35.026 L28.178,38.89 L27.158,38.89 L27.158,34.822 C27.158,34.621999 27.1400002,34.4380008 27.104,34.27 C27.0679998,34.1019992 27.0060004,33.9560006 26.918,33.832 C26.8299996,33.7079994 26.7120007,33.6120003 26.564,33.544 C26.4159993,33.4759997 26.2260012,33.442 25.994,33.442 C25.6979985,33.442 25.4440011,33.5019994 25.232,33.622 C25.0199989,33.7420006 24.8480007,33.8859992 24.716,34.054 C24.5839993,34.2220008 24.4880003,34.3959991 24.428,34.576 C24.3679997,34.7560009 24.338,34.9059994 24.338,35.026 L24.338,38.89 L23.318,38.89 L23.318,32.686 Z M34.082,35.794 C34.082,36.1700019 34.1319995,36.5039985 34.232,36.796 C34.3320005,37.0880015 34.4699991,37.331999 34.646,37.528 C34.8220009,37.724001 35.0279988,37.8739995 35.264,37.978 C35.5000012,38.0820005 35.7499987,38.134 36.014,38.134 C36.2780013,38.134 36.5279988,38.0820005 36.764,37.978 C37.0000012,37.8739995 37.2059991,37.724001 37.382,37.528 C37.5580009,37.331999 37.6959995,37.0880015 37.796,36.796 C37.8960005,36.5039985 37.946,36.1700019 37.946,35.794 C37.946,35.4179981 37.8960005,35.0840015 37.796,34.792 C37.6959995,34.4999985 37.5580009,34.254001 37.382,34.054 C37.2059991,33.853999 37.0000012,33.7020005 36.764,33.598 C36.5279988,33.4939995 36.2780013,33.442 36.014,33.442 C35.7499987,33.442 35.5000012,33.4939995 35.264,33.598 C35.0279988,33.7020005 34.8220009,33.853999 34.646,34.054 C34.4699991,34.254001 34.3320005,34.4999985 34.232,34.792 C34.1319995,35.0840015 34.082,35.4179981 34.082,35.794 Z M33.002,35.794 C33.002,35.3379977 33.0659994,34.912002 33.194,34.516 C33.3220006,34.119998 33.5139987,33.7760015 33.77,33.484 C34.0260013,33.1919985 34.3419981,32.9620008 34.718,32.794 C35.0940019,32.6259992 35.5259976,32.542 36.014,32.542 C36.5100025,32.542 36.9439981,32.6259992 37.316,32.794 C37.6880019,32.9620008 38.0019987,33.1919985 38.258,33.484 C38.5140013,33.7760015 38.7059994,34.119998 38.834,34.516 C38.9620006,34.912002 39.026,35.3379977 39.026,35.794 C39.026,36.2500023 38.9620006,36.673998 38.834,37.066 C38.7059994,37.458002 38.5140013,37.7999985 38.258,38.092 C38.0019987,38.3840015 37.6880019,38.6119992 37.316,38.776 C36.9439981,38.9400008 36.5100025,39.022 36.014,39.022 C35.5259976,39.022 35.0940019,38.9400008 34.718,38.776 C34.3419981,38.6119992 34.0260013,38.3840015 33.77,38.092 C33.5139987,37.7999985 33.3220006,37.458002 33.194,37.066 C33.0659994,36.673998 33.002,36.2500023 33.002,35.794 Z M39.974,32.686 L40.934,32.686 L40.934,33.994 L40.958,33.994 C41.2060012,33.4899975 41.5099982,33.1180012 41.87,32.878 C42.2300018,32.6379988 42.6859972,32.5259999 43.238,32.542 L43.238,33.622 C42.829998,33.622 42.4820014,33.6779994 42.194,33.79 C41.9059986,33.9020006 41.6740009,34.0659989 41.498,34.282 C41.3219991,34.4980011 41.1940004,34.7599985 41.114,35.068 C41.0339996,35.3760015 40.994,35.729998 40.994,36.13 L40.994,38.89 L39.974,38.89 L39.974,32.686 Z M43.754,32.686 L44.714,32.686 L44.714,33.994 L44.738,33.994 C44.9860012,33.4899975 45.2899982,33.1180012 45.65,32.878 C46.0100018,32.6379988 46.4659972,32.5259999 47.018,32.542 L47.018,33.622 C46.609998,33.622 46.2620014,33.6779994 45.974,33.79 C45.6859986,33.9020006 45.4540009,34.0659989 45.278,34.282 C45.1019991,34.4980011 44.9740004,34.7599985 44.894,35.068 C44.8139996,35.3760015 44.774,35.729998 44.774,36.13 L44.774,38.89 L43.754,38.89 L43.754,32.686 Z M48.098,35.794 C48.098,36.1700019 48.1479995,36.5039985 48.248,36.796 C48.3480005,37.0880015 48.4859991,37.331999 48.662,37.528 C48.8380009,37.724001 49.0439988,37.8739995 49.28,37.978 C49.5160012,38.0820005 49.7659987,38.134 50.03,38.134 C50.2940013,38.134 50.5439988,38.0820005 50.78,37.978 C51.0160012,37.8739995 51.2219991,37.724001 51.398,37.528 C51.5740009,37.331999 51.7119995,37.0880015 51.812,36.796 C51.9120005,36.5039985 51.962,36.1700019 51.962,35.794 C51.962,35.4179981 51.9120005,35.0840015 51.812,34.792 C51.7119995,34.4999985 51.5740009,34.254001 51.398,34.054 C51.2219991,33.853999 51.0160012,33.7020005 50.78,33.598 C50.5439988,33.4939995 50.2940013,33.442 50.03,33.442 C49.7659987,33.442 49.5160012,33.4939995 49.28,33.598 C49.0439988,33.7020005 48.8380009,33.853999 48.662,34.054 C48.4859991,34.254001 48.3480005,34.4999985 48.248,34.792 C48.1479995,35.0840015 48.098,35.4179981 48.098,35.794 Z M47.018,35.794 C47.018,35.3379977 47.0819994,34.912002 47.21,34.516 C47.3380006,34.119998 47.5299987,33.7760015 47.786,33.484 C48.0420013,33.1919985 48.3579981,32.9620008 48.734,32.794 C49.1100019,32.6259992 49.5419976,32.542 50.03,32.542 C50.5260025,32.542 50.9599981,32.6259992 51.332,32.794 C51.7040019,32.9620008 52.0179987,33.1919985 52.274,33.484 C52.5300013,33.7760015 52.7219994,34.119998 52.85,34.516 C52.9780006,34.912002 53.042,35.3379977 53.042,35.794 C53.042,36.2500023 52.9780006,36.673998 52.85,37.066 C52.7219994,37.458002 52.5300013,37.7999985 52.274,38.092 C52.0179987,38.3840015 51.7040019,38.6119992 51.332,38.776 C50.9599981,38.9400008 50.5260025,39.022 50.03,39.022 C49.5419976,39.022 49.1100019,38.9400008 48.734,38.776 C48.3579981,38.6119992 48.0420013,38.3840015 47.786,38.092 C47.5299987,37.7999985 47.3380006,37.458002 47.21,37.066 C47.0819994,36.673998 47.018,36.2500023 47.018,35.794 Z M60.17,38.89 L59.09,38.89 L57.83,33.958 L57.806,33.958 L56.558,38.89 L55.454,38.89 L53.462,32.686 L54.59,32.686 L55.994,37.762 L56.018,37.762 L57.266,32.686 L58.382,32.686 L59.678,37.762 L59.702,37.762 L61.094,32.686 L62.15,32.686 L60.17,38.89 Z M62.474,37.558 L63.806,37.558 L63.806,38.77 C63.806,39.2260023 63.702001,39.6179984 63.494,39.946 C63.285999,40.2740016 62.9500023,40.5059993 62.486,40.642 L62.486,40.042 C62.6220007,39.9939998 62.7359995,39.9240005 62.828,39.832 C62.9200005,39.7399995 62.9939997,39.6400005 63.05,39.532 C63.1060003,39.4239995 63.1439999,39.3140006 63.164,39.202 C63.1840001,39.0899994 63.19,38.9860005 63.182,38.89 L62.474,38.89 L62.474,37.558 Z M69.326,36.838 C69.3660002,37.2540021 69.5339985,37.5739989 69.83,37.798 C70.1260015,38.0220011 70.477998,38.134 70.886,38.134 C71.5100031,38.134 71.9779984,37.8640027 72.29,37.324 C72.6020016,36.7839973 72.7739998,35.9580056 72.806,34.846 L72.782,34.822 C72.589999,35.1820018 72.3180018,35.4679989 71.966,35.68 C71.6139982,35.8920011 71.2300021,35.998 70.814,35.998 C70.3819978,35.998 69.9980017,35.9280007 69.662,35.788 C69.3259983,35.6479993 69.0440011,35.4540012 68.816,35.206 C68.5879989,34.9579988 68.4160006,34.6580018 68.3,34.306 C68.1839994,33.9539982 68.126,33.5700021 68.126,33.154 C68.126,32.745998 68.1939993,32.3720017 68.33,32.032 C68.4660007,31.6919983 68.6579988,31.4000012 68.906,31.156 C69.1540012,30.9119988 69.4499983,30.7220007 69.794,30.586 C70.1380017,30.4499993 70.513998,30.382 70.922,30.382 C71.322002,30.382 71.6979982,30.4439994 72.05,30.568 C72.4020018,30.6920006 72.7099987,30.9059985 72.974,31.21 C73.2380013,31.5140015 73.4479992,31.9279974 73.604,32.452 C73.7600008,32.9760026 73.838,33.641996 73.838,34.45 C73.838,35.9220074 73.6040023,37.0519961 73.136,37.84 C72.6679977,38.6280039 71.9180052,39.022 70.886,39.022 C70.1739964,39.022 69.5820024,38.8420018 69.11,38.482 C68.6379976,38.1219982 68.3700003,37.5740037 68.306,36.838 L69.326,36.838 Z M72.626,33.226 C72.626,32.9619987 72.5880004,32.7140012 72.512,32.482 C72.4359996,32.2499988 72.3240007,32.0440009 72.176,31.864 C72.0279993,31.6839991 71.8460011,31.5420005 71.63,31.438 C71.4139989,31.3339995 71.1620014,31.282 70.874,31.282 C70.5699985,31.282 70.3120011,31.3379994 70.1,31.45 C69.8879989,31.5620006 69.7160007,31.7119991 69.584,31.9 C69.4519993,32.0880009 69.3560003,32.3019988 69.296,32.542 C69.2359997,32.7820012 69.206,33.0339987 69.206,33.298 C69.206,33.5300012 69.2479996,33.7539989 69.332,33.97 C69.4160004,34.1860011 69.5319993,34.3779992 69.68,34.546 C69.8280007,34.7140008 70.003999,34.8479995 70.208,34.948 C70.412001,35.0480005 70.6379988,35.098 70.886,35.098 C71.1500013,35.098 71.3899989,35.0480005 71.606,34.948 C71.8220011,34.8479995 72.0059992,34.7120009 72.158,34.54 C72.3100008,34.3679991 72.4259996,34.1680011 72.506,33.94 C72.5860004,33.7119989 72.626,33.4740012 72.626,33.226 Z M76.502,34.018 L75.17,34.018 L75.17,32.686 L76.502,32.686 L76.502,34.018 Z M75.17,37.558 L76.502,37.558 L76.502,38.89 L75.17,38.89 L75.17,37.558 Z M78.878,34.702 C78.878,35.0220016 78.8879999,35.379998 78.908,35.776 C78.9280001,36.172002 78.9919995,36.5439983 79.1,36.892 C79.2080005,37.2400017 79.3819988,37.5339988 79.622,37.774 C79.8620012,38.0140012 80.1979978,38.134 80.63,38.134 C81.0620022,38.134 81.3979988,38.0140012 81.638,37.774 C81.8780012,37.5339988 82.0519995,37.2400017 82.16,36.892 C82.2680005,36.5439983 82.3319999,36.172002 82.352,35.776 C82.3720001,35.379998 82.382,35.0220016 82.382,34.702 C82.382,34.493999 82.38,34.2640013 82.376,34.012 C82.372,33.7599987 82.3520002,33.5080013 82.316,33.256 C82.2799998,33.0039987 82.2280003,32.7580012 82.16,32.518 C82.0919997,32.2779988 81.9920007,32.0680009 81.86,31.888 C81.7279993,31.7079991 81.562001,31.5620006 81.362,31.45 C81.161999,31.3379994 80.9180014,31.282 80.63,31.282 C80.3419986,31.282 80.098001,31.3379994 79.898,31.45 C79.697999,31.5620006 79.5320007,31.7079991 79.4,31.888 C79.2679993,32.0680009 79.1680003,32.2779988 79.1,32.518 C79.0319997,32.7580012 78.9800002,33.0039987 78.944,33.256 C78.9079998,33.5080013 78.888,33.7599987 78.884,34.012 C78.88,34.2640013 78.878,34.493999 78.878,34.702 Z M77.798,34.714 C77.798,34.4019984 77.8059999,34.0780017 77.822,33.742 C77.8380001,33.4059983 77.8779997,33.0780016 77.942,32.758 C78.0060003,32.4379984 78.0979994,32.1340014 78.218,31.846 C78.3380006,31.5579986 78.501999,31.3060011 78.71,31.09 C78.918001,30.8739989 79.1799984,30.7020006 79.496,30.574 C79.8120016,30.4459994 80.1899978,30.382 80.63,30.382 C81.0700022,30.382 81.4479984,30.4459994 81.764,30.574 C82.0800016,30.7020006 82.341999,30.8739989 82.55,31.09 C82.758001,31.3060011 82.9219994,31.5579986 83.042,31.846 C83.1620006,32.1340014 83.2539997,32.4379984 83.318,32.758 C83.3820003,33.0780016 83.4219999,33.4059983 83.438,33.742 C83.4540001,34.0780017 83.462,34.4019984 83.462,34.714 C83.462,35.0260016 83.4540001,35.3499983 83.438,35.686 C83.4219999,36.0220017 83.3820003,36.3499984 83.318,36.67 C83.2539997,36.9900016 83.1620006,37.2919986 83.042,37.576 C82.9219994,37.8600014 82.758001,38.1099989 82.55,38.326 C82.341999,38.5420011 82.0820016,38.7119994 81.77,38.836 C81.4579984,38.9600006 81.0780022,39.022 80.63,39.022 C80.1899978,39.022 79.8120016,38.9600006 79.496,38.836 C79.1799984,38.7119994 78.918001,38.5420011 78.71,38.326 C78.501999,38.1099989 78.3380006,37.8600014 78.218,37.576 C78.0979994,37.2919986 78.0060003,36.9900016 77.942,36.67 C77.8779997,36.3499984 77.8380001,36.0220017 77.822,35.686 C77.8059999,35.3499983 77.798,35.0260016 77.798,34.714 Z M86.366,34.03 C86.4060002,34.038 86.4419998,34.042 86.474,34.042 L86.81,34.042 C87.0260011,34.042 87.231999,34.0120003 87.428,33.952 C87.624001,33.8919997 87.7959993,33.8040006 87.944,33.688 C88.0920007,33.5719994 88.2099996,33.4260009 88.298,33.25 C88.3860004,33.0739991 88.43,32.8740011 88.43,32.65 C88.43,32.1939977 88.2860014,31.8520011 87.998,31.624 C87.7099986,31.3959989 87.3500022,31.282 86.918,31.282 C86.6459986,31.282 86.408001,31.3319995 86.204,31.432 C85.999999,31.5320005 85.8320007,31.6659992 85.7,31.834 C85.5679993,32.0020008 85.4700003,32.1979989 85.406,32.422 C85.3419997,32.6460011 85.31,32.8819988 85.31,33.13 L84.29,33.13 C84.3060001,32.721998 84.3719994,32.3500017 84.488,32.014 C84.6040006,31.6779983 84.7699989,31.3900012 84.986,31.15 C85.2020011,30.9099988 85.4719984,30.7220007 85.796,30.586 C86.1200016,30.4499993 86.4939979,30.382 86.918,30.382 C87.2860018,30.382 87.6279984,30.4279995 87.944,30.52 C88.2600016,30.6120005 88.5339988,30.7499991 88.766,30.934 C88.9980012,31.1180009 89.1799993,31.3539986 89.312,31.642 C89.4440007,31.9300014 89.51,32.269998 89.51,32.662 C89.51,33.0460019 89.3980011,33.3859985 89.174,33.682 C88.9499989,33.9780015 88.6700017,34.2019992 88.334,34.354 L88.334,34.378 C88.8540026,34.4900006 89.2399987,34.7339981 89.492,35.11 C89.7440013,35.4860019 89.87,35.9299974 89.87,36.442 C89.87,36.8660021 89.7920008,37.2399984 89.636,37.564 C89.4799992,37.8880016 89.2700013,38.1579989 89.006,38.374 C88.7419987,38.5900011 88.4320018,38.7519995 88.076,38.86 C87.7199982,38.9680005 87.342002,39.022 86.942,39.022 C86.5099978,39.022 86.1180018,38.9620006 85.766,38.842 C85.4139982,38.7219994 85.1140012,38.5440012 84.866,38.308 C84.6179988,38.0719988 84.4280007,37.7820017 84.296,37.438 C84.1639993,37.0939983 84.102,36.7020022 84.11,36.262 L85.13,36.262 C85.1460001,36.8140028 85.3059985,37.2639983 85.61,37.612 C85.9140015,37.9600017 86.3579971,38.134 86.942,38.134 C87.1900012,38.134 87.4259989,38.0960004 87.65,38.02 C87.8740011,37.9439996 88.0699992,37.8360007 88.238,37.696 C88.4060008,37.5559993 88.5399995,37.384001 88.64,37.18 C88.7400005,36.975999 88.79,36.7460013 88.79,36.49 C88.79,36.2259987 88.7420005,35.992001 88.646,35.788 C88.5499995,35.583999 88.4220008,35.4120007 88.262,35.272 C88.1019992,35.1319993 87.9120011,35.0280003 87.692,34.96 C87.4719989,34.8919997 87.2340013,34.858 86.978,34.858 C86.7619989,34.858 86.558001,34.8699999 86.366,34.894 L86.366,34.03 Z M95.738,35.35 L98.642,35.35 L97.214,31.354 L97.19,31.354 L95.738,35.35 Z M96.59,30.322 L97.85,30.322 L101.198,38.89 L99.938,38.89 L99.002,36.31 L95.378,36.31 L94.418,38.89 L93.254,38.89 L96.59,30.322 Z M101.846,30.322 L103.406,30.322 L106.106,37.522 L108.818,30.322 L110.378,30.322 L110.378,38.89 L109.298,38.89 L109.298,31.762 L109.274,31.762 L106.598,38.89 L105.626,38.89 L102.95,31.762 L102.926,31.762 L102.926,38.89 L101.846,38.89 L101.846,30.322 Z" id="Tomorrow,-9:03-AM" fill="#FFFFFF" mask="url(#mask-3)"></path>
                <path d="M35.0658092,16.314 C35.0284757,16.0619987 34.9444765,15.8310011 34.8138092,15.621 C34.6831419,15.410999 34.5198102,15.2266675 34.3238092,15.068 C34.1278082,14.9093325 33.9061438,14.7856671 33.6588092,14.697 C33.4114746,14.6083329 33.1524772,14.564 32.8818092,14.564 C32.3871401,14.564 31.9671443,14.6596657 31.6218092,14.851 C31.2764742,15.0423343 30.996477,15.2989984 30.7818092,15.621 C30.5671415,15.9430016 30.4108097,16.3093313 30.3128092,16.72 C30.2148087,17.1306687 30.1658092,17.5553311 30.1658092,17.994 C30.1658092,18.4140021 30.2148087,18.8223313 30.3128092,19.219 C30.4108097,19.6156687 30.5671415,19.9726651 30.7818092,20.29 C30.996477,20.6073349 31.2764742,20.8616657 31.6218092,21.053 C31.9671443,21.2443343 32.3871401,21.34 32.8818092,21.34 C33.5538126,21.34 34.0788073,21.1346687 34.4568092,20.724 C34.8348111,20.3133313 35.0658088,19.7720034 35.1498092,19.1 L37.2778092,19.1 C37.2218089,19.7253365 37.0771437,20.2899975 36.8438092,20.794 C36.6104747,21.2980025 36.3024778,21.7273316 35.9198092,22.082 C35.5371406,22.4366684 35.0891451,22.7073324 34.5758092,22.894 C34.0624733,23.0806676 33.4978123,23.174 32.8818092,23.174 C32.1164721,23.174 31.4281456,23.0410013 30.8168092,22.775 C30.2054728,22.5089987 29.6898113,22.142669 29.2698092,21.676 C28.8498071,21.209331 28.5278103,20.6610031 28.3038092,20.031 C28.0798081,19.4009968 27.9678092,18.7220036 27.9678092,17.994 C27.9678092,17.2473296 28.0798081,16.5543365 28.3038092,15.915 C28.5278103,15.2756635 28.8498071,14.7180024 29.2698092,14.242 C29.6898113,13.7659976 30.2054728,13.392668 30.8168092,13.122 C31.4281456,12.851332 32.1164721,12.716 32.8818092,12.716 C33.4324786,12.716 33.9528068,12.7953325 34.4428092,12.954 C34.9328117,13.1126675 35.3714739,13.3436652 35.7588092,13.647 C36.1461445,13.9503348 36.465808,14.3259978 36.7178092,14.774 C36.9698105,15.2220022 37.1284756,15.7353304 37.1938092,16.314 L35.0658092,16.314 Z M40.1058092,19.338 C40.1058092,19.6273348 40.1338089,19.9096653 40.1898092,20.185 C40.2458095,20.4603347 40.3414752,20.7076656 40.4768092,20.927 C40.6121432,21.1463344 40.7918081,21.3213327 41.0158092,21.452 C41.2398103,21.5826673 41.5198075,21.648 41.8558092,21.648 C42.1918109,21.648 42.4741414,21.5826673 42.7028092,21.452 C42.931477,21.3213327 43.1134752,21.1463344 43.2488092,20.927 C43.3841432,20.7076656 43.4798089,20.4603347 43.5358092,20.185 C43.5918095,19.9096653 43.6198092,19.6273348 43.6198092,19.338 C43.6198092,19.0486652 43.5918095,18.7640014 43.5358092,18.484 C43.4798089,18.2039986 43.3841432,17.9566677 43.2488092,17.742 C43.1134752,17.5273323 42.931477,17.352334 42.7028092,17.217 C42.4741414,17.081666 42.1918109,17.014 41.8558092,17.014 C41.5198075,17.014 41.2398103,17.081666 41.0158092,17.217 C40.7918081,17.352334 40.6121432,17.5273323 40.4768092,17.742 C40.3414752,17.9566677 40.2458095,18.2039986 40.1898092,18.484 C40.1338089,18.7640014 40.1058092,19.0486652 40.1058092,19.338 Z M38.1178092,19.338 C38.1178092,18.7593304 38.206475,18.2343357 38.3838092,17.763 C38.5611434,17.2916643 38.8131409,16.890335 39.1398092,16.559 C39.4664775,16.227665 39.8584736,15.9710009 40.3158092,15.789 C40.7731448,15.6069991 41.286473,15.516 41.8558092,15.516 C42.4251454,15.516 42.9408069,15.6069991 43.4028092,15.789 C43.8648115,15.9710009 44.2591409,16.227665 44.5858092,16.559 C44.9124775,16.890335 45.164475,17.2916643 45.3418092,17.763 C45.5191434,18.2343357 45.6078092,18.7593304 45.6078092,19.338 C45.6078092,19.9166696 45.5191434,20.439331 45.3418092,20.906 C45.164475,21.372669 44.9124775,21.771665 44.5858092,22.103 C44.2591409,22.434335 43.8648115,22.6886658 43.4028092,22.866 C42.9408069,23.0433342 42.4251454,23.132 41.8558092,23.132 C41.286473,23.132 40.7731448,23.0433342 40.3158092,22.866 C39.8584736,22.6886658 39.4664775,22.434335 39.1398092,22.103 C38.8131409,21.771665 38.5611434,21.372669 38.3838092,20.906 C38.206475,20.439331 38.1178092,19.9166696 38.1178092,19.338 Z M53.4618092,22.95 L51.5718092,22.95 L51.5718092,21.942 L51.5298092,21.942 C51.277808,22.3620021 50.9511446,22.6653324 50.5498092,22.852 C50.1484739,23.0386676 49.7378113,23.132 49.3178092,23.132 C48.7858066,23.132 48.3494776,23.0620007 48.0088092,22.922 C47.6681408,22.7819993 47.3998102,22.5836679 47.2038092,22.327 C47.0078082,22.0703321 46.8701429,21.7576685 46.7908092,21.389 C46.7114755,21.0203315 46.6718092,20.6120022 46.6718092,20.164 L46.6718092,15.712 L48.6598092,15.712 L48.6598092,19.8 C48.6598092,20.3973363 48.7531416,20.8429985 48.9398092,21.137 C49.1264768,21.4310015 49.4578068,21.578 49.9338092,21.578 C50.4751453,21.578 50.8671413,21.4170016 51.1098092,21.095 C51.3524771,20.7729984 51.4738092,20.243337 51.4738092,19.506 L51.4738092,15.712 L53.4618092,15.712 L53.4618092,22.95 Z M54.7498092,15.712 L56.6398092,15.712 L56.6398092,16.72 L56.6818092,16.72 C56.9338105,16.2999979 57.2604739,15.9943343 57.6618092,15.803 C58.0631446,15.6116657 58.4738071,15.516 58.8938092,15.516 C59.4258119,15.516 59.8621408,15.5883326 60.2028092,15.733 C60.5434776,15.8776674 60.8118082,16.0783321 61.0078092,16.335 C61.2038102,16.591668 61.3414755,16.9043315 61.4208092,17.273 C61.5001429,17.6416685 61.5398092,18.0499978 61.5398092,18.498 L61.5398092,22.95 L59.5518092,22.95 L59.5518092,18.862 C59.5518092,18.2646637 59.4584768,17.8190015 59.2718092,17.525 C59.0851416,17.2309985 58.7538116,17.084 58.2778092,17.084 C57.7364732,17.084 57.3444771,17.2449984 57.1018092,17.567 C56.8591413,17.8890016 56.7378092,18.418663 56.7378092,19.156 L56.7378092,22.95 L54.7498092,22.95 L54.7498092,15.712 Z M64.3678092,20.598 C64.3678092,20.8126677 64.4121421,20.9969992 64.5008092,21.151 C64.5894763,21.3050008 64.7038085,21.4309995 64.8438092,21.529 C64.9838099,21.6270005 65.1448083,21.6993331 65.3268092,21.746 C65.5088101,21.7926669 65.6978082,21.816 65.8938092,21.816 C66.0338099,21.816 66.1808084,21.7996668 66.3348092,21.767 C66.48881,21.7343332 66.6288086,21.6830004 66.7548092,21.613 C66.8808098,21.5429996 66.9858088,21.4496673 67.0698092,21.333 C67.1538096,21.2163327 67.1958092,21.0693342 67.1958092,20.892 C67.1958092,20.5933318 66.9974779,20.3693341 66.6008092,20.22 C66.2041406,20.0706659 65.6511461,19.9213341 64.9418092,19.772 C64.6524744,19.7066663 64.3701439,19.6296671 64.0948092,19.541 C63.8194745,19.4523329 63.574477,19.3356674 63.3598092,19.191 C63.1451415,19.0463326 62.9724765,18.8643344 62.8418092,18.645 C62.7111419,18.4256656 62.6458092,18.1573349 62.6458092,17.84 C62.6458092,17.373331 62.7368083,16.9906682 62.9188092,16.692 C63.1008101,16.3933318 63.3411411,16.1576675 63.6398092,15.985 C63.9384774,15.8123325 64.274474,15.6910004 64.6478092,15.621 C65.0211444,15.5509996 65.4038073,15.516 65.7958092,15.516 C66.1878112,15.516 66.5681407,15.553333 66.9368092,15.628 C67.3054777,15.702667 67.6344744,15.8286658 67.9238092,16.006 C68.213144,16.1833342 68.4534749,16.4189985 68.6448092,16.713 C68.8361435,17.0070015 68.9504757,17.3779978 68.9878092,17.826 L67.0978092,17.826 C67.0698091,17.4433314 66.9251439,17.184334 66.6638092,17.049 C66.4024746,16.913666 66.0944777,16.846 65.7398092,16.846 C65.6278087,16.846 65.5064765,16.8529999 65.3758092,16.867 C65.2451419,16.8810001 65.1261431,16.9113331 65.0188092,16.958 C64.9114753,17.0046669 64.8204763,17.0723329 64.7458092,17.161 C64.6711422,17.2496671 64.6338092,17.3686659 64.6338092,17.518 C64.6338092,17.6953342 64.6991419,17.8399994 64.8298092,17.952 C64.9604765,18.0640006 65.1308082,18.1549997 65.3408092,18.225 C65.5508103,18.2950004 65.7911412,18.3579997 66.0618092,18.414 C66.3324772,18.4700003 66.6078078,18.5306663 66.8878092,18.596 C67.177144,18.6613337 67.4594745,18.7406662 67.7348092,18.834 C68.0101439,18.9273338 68.2551415,19.0509992 68.4698092,19.205 C68.684477,19.3590008 68.8571419,19.5503322 68.9878092,19.779 C69.1184765,20.0076678 69.1838092,20.2899983 69.1838092,20.626 C69.1838092,21.1020024 69.0881435,21.5009984 68.8968092,21.823 C68.7054749,22.1450016 68.4558108,22.403999 68.1478092,22.6 C67.8398077,22.796001 67.4874779,22.9336663 67.0908092,23.013 C66.6941406,23.0923337 66.2904779,23.132 65.8798092,23.132 C65.4598071,23.132 65.0491446,23.0900004 64.6478092,23.006 C64.2464739,22.9219996 63.8894774,22.782001 63.5768092,22.586 C63.264141,22.389999 63.0074769,22.1310016 62.8068092,21.809 C62.6061415,21.4869984 62.496476,21.0833358 62.4778092,20.598 L64.3678092,20.598 Z M74.9938092,18.554 C74.9004754,18.0499975 74.7348104,17.6673346 74.4968092,17.406 C74.258808,17.1446654 73.897145,17.014 73.4118092,17.014 C73.0944743,17.014 72.8308103,17.0676661 72.6208092,17.175 C72.4108082,17.2823339 72.2428098,17.4153325 72.1168092,17.574 C71.9908086,17.7326675 71.9021428,17.9006658 71.8508092,18.078 C71.7994756,18.2553342 71.7691426,18.4139993 71.7598092,18.554 L74.9938092,18.554 Z M71.7598092,19.814 C71.7878094,20.4580032 71.9511411,20.9246652 72.2498092,21.214 C72.5484774,21.5033348 72.9778064,21.648 73.5378092,21.648 C73.9391446,21.648 74.2844744,21.5476677 74.5738092,21.347 C74.863144,21.1463323 75.0404756,20.9340011 75.1058092,20.71 L76.8558092,20.71 C76.5758078,21.5780043 76.1464788,22.1986648 75.5678092,22.572 C74.9891397,22.9453352 74.2891467,23.132 73.4678092,23.132 C72.898473,23.132 72.3851448,23.0410009 71.9278092,22.859 C71.4704736,22.6769991 71.0831441,22.4180017 70.7658092,22.082 C70.4484743,21.7459983 70.2034767,21.344669 70.0308092,20.878 C69.8581417,20.411331 69.7718092,19.8980028 69.7718092,19.338 C69.7718092,18.796664 69.860475,18.292669 70.0378092,17.826 C70.2151434,17.359331 70.4671409,16.9556684 70.7938092,16.615 C71.1204775,16.2743316 71.5101403,16.006001 71.9628092,15.81 C72.4154781,15.613999 72.9171398,15.516 73.4678092,15.516 C74.0838123,15.516 74.6204736,15.6349988 75.0778092,15.873 C75.5351448,16.1110012 75.9108077,16.4306647 76.2048092,16.832 C76.4988107,17.2333353 76.7111419,17.6906641 76.8418092,18.204 C76.9724765,18.7173359 77.0191427,19.2539972 76.9818092,19.814 L71.7598092,19.814 Z M77.9898092,12.954 L79.9778092,12.954 L79.9778092,22.95 L77.9898092,22.95 L77.9898092,12.954 Z M83.0858092,19.338 C83.0858092,19.6273348 83.1138089,19.9096653 83.1698092,20.185 C83.2258095,20.4603347 83.3214752,20.7076656 83.4568092,20.927 C83.5921432,21.1463344 83.7718081,21.3213327 83.9958092,21.452 C84.2198103,21.5826673 84.4998075,21.648 84.8358092,21.648 C85.1718109,21.648 85.4541414,21.5826673 85.6828092,21.452 C85.911477,21.3213327 86.0934752,21.1463344 86.2288092,20.927 C86.3641432,20.7076656 86.4598089,20.4603347 86.5158092,20.185 C86.5718095,19.9096653 86.5998092,19.6273348 86.5998092,19.338 C86.5998092,19.0486652 86.5718095,18.7640014 86.5158092,18.484 C86.4598089,18.2039986 86.3641432,17.9566677 86.2288092,17.742 C86.0934752,17.5273323 85.911477,17.352334 85.6828092,17.217 C85.4541414,17.081666 85.1718109,17.014 84.8358092,17.014 C84.4998075,17.014 84.2198103,17.081666 83.9958092,17.217 C83.7718081,17.352334 83.5921432,17.5273323 83.4568092,17.742 C83.3214752,17.9566677 83.2258095,18.2039986 83.1698092,18.484 C83.1138089,18.7640014 83.0858092,19.0486652 83.0858092,19.338 Z M81.0978092,19.338 C81.0978092,18.7593304 81.186475,18.2343357 81.3638092,17.763 C81.5411434,17.2916643 81.7931409,16.890335 82.1198092,16.559 C82.4464775,16.227665 82.8384736,15.9710009 83.2958092,15.789 C83.7531448,15.6069991 84.266473,15.516 84.8358092,15.516 C85.4051454,15.516 85.9208069,15.6069991 86.3828092,15.789 C86.8448115,15.9710009 87.2391409,16.227665 87.5658092,16.559 C87.8924775,16.890335 88.144475,17.2916643 88.3218092,17.763 C88.4991434,18.2343357 88.5878092,18.7593304 88.5878092,19.338 C88.5878092,19.9166696 88.4991434,20.439331 88.3218092,20.906 C88.144475,21.372669 87.8924775,21.771665 87.5658092,22.103 C87.2391409,22.434335 86.8448115,22.6886658 86.3828092,22.866 C85.9208069,23.0433342 85.4051454,23.132 84.8358092,23.132 C84.266473,23.132 83.7531448,23.0433342 83.2958092,22.866 C82.8384736,22.6886658 82.4464775,22.434335 82.1198092,22.103 C81.7931409,21.771665 81.5411434,21.372669 81.3638092,20.906 C81.186475,20.439331 81.0978092,19.9166696 81.0978092,19.338 Z M89.6518092,15.712 L91.5418092,15.712 L91.5418092,17.056 L91.5698092,17.056 C91.663143,16.8319989 91.7891418,16.6243343 91.9478092,16.433 C92.1064767,16.2416657 92.2884749,16.078334 92.4938092,15.943 C92.6991436,15.807666 92.9184747,15.702667 93.1518092,15.628 C93.3851437,15.553333 93.627808,15.516 93.8798092,15.516 C94.0104765,15.516 94.1551418,15.5393331 94.3138092,15.586 L94.3138092,17.434 C94.2204754,17.4153332 94.1084765,17.3990001 93.9778092,17.385 C93.8471419,17.3709999 93.7211432,17.364 93.5998092,17.364 C93.2358074,17.364 92.9278105,17.4246661 92.6758092,17.546 C92.423808,17.6673339 92.22081,17.832999 92.0668092,18.043 C91.9128084,18.2530011 91.8031429,18.4979986 91.7378092,18.778 C91.6724756,19.0580014 91.6398092,19.3613317 91.6398092,19.688 L91.6398092,22.95 L89.6518092,22.95 L89.6518092,15.712 Z" id="Counselor" fill="#FFFFFF" mask="url(#mask-3)"></path>
            </g>
        </g>
    </g>
</svg>