<?xml version="1.0" encoding="UTF-8"?>
<svg width="132px" height="87px" viewBox="0 0 132 87" version="1.1" xmlns="http://www.w3.org/2000/svg" xmlns:xlink="http://www.w3.org/1999/xlink">
    <!-- Generator: Sketch 52.5 (67469) - http://www.bohemiancoding.com/sketch -->
    <title>Pass Tile 3</title>
    <desc>Created with Sketch.</desc>
    <defs>
        <radialGradient cx="80.4347072%" cy="76.8940563%" fx="80.4347072%" fy="76.8940563%" r="177.444343%" gradientTransform="translate(0.804347,0.768941),scale(0.611570,1.000000),rotate(-138.580836),translate(-0.804347,-0.768941)" id="radialGradient-1">
            <stop stop-color="#5C4AE3" offset="0%"></stop>
            <stop stop-color="#4B59E5" offset="50.7587858%"></stop>
            <stop stop-color="#336DE4" offset="100%"></stop>
        </radialGradient>
        <path d="M12.819426,-5.17920154e-16 L108.180574,5.17920154e-16 C112.638168,-3.00926524e-16 114.254599,0.464128056 115.884229,1.33566352 C117.513858,2.20719898 118.792801,3.48614185 119.664336,5.11577148 C120.535872,6.74540111 121,8.3618323 121,12.819426 L121,61.180574 C121,65.6381677 120.535872,67.2545989 119.664336,68.8842285 C118.792801,70.5138581 117.513858,71.792801 115.884229,72.6643365 C114.254599,73.5358719 112.638168,74 108.180574,74 L12.819426,74 C8.3618323,74 6.74540111,73.5358719 5.11577148,72.6643365 C3.48614185,71.792801 2.20719898,70.5138581 1.33566352,68.8842285 C0.464128056,67.2545989 2.00617683e-16,65.6381677 -3.45280103e-16,61.180574 L3.45280103e-16,12.819426 C-2.00617683e-16,8.3618323 0.464128056,6.74540111 1.33566352,5.11577148 C2.20719898,3.48614185 3.48614185,2.20719898 5.11577148,1.33566352 C6.74540111,0.464128056 8.3618323,3.00926524e-16 12.819426,-5.17920154e-16 Z" id="path-2"></path>
        <filter x="-5.8%" y="-6.8%" width="111.6%" height="118.9%" filterUnits="objectBoundingBox" id="filter-4">
            <feOffset dx="0" dy="2" in="SourceAlpha" result="shadowOffsetOuter1"></feOffset>
            <feGaussianBlur stdDeviation="2" in="shadowOffsetOuter1" result="shadowBlurOuter1"></feGaussianBlur>
            <feColorMatrix values="0 0 0 0 0   0 0 0 0 0   0 0 0 0 0  0 0 0 0.1 0" type="matrix" in="shadowBlurOuter1"></feColorMatrix>
        </filter>
    </defs>
    <g id="Web---Sign-in" stroke="none" stroke-width="1" fill="none" fill-rule="evenodd">
        <g id="Landing" transform="translate(-712.000000, -498.000000)">
            <g id="Pass-Tile-3" transform="translate(778.000000, 540.000000) rotate(-3.000000) translate(-778.000000, -540.000000) translate(717.500000, 503.000000)">
                <mask id="mask-3" fill="white">
                    <use xlink:href="#path-2"></use>
                </mask>
                <g id="Rectangle-4">
                    <use fill="black" fill-opacity="1" filter="url(#filter-4)" xlink:href="#path-2"></use>
                    <use fill="url(#radialGradient-1)" fill-rule="evenodd" xlink:href="#path-2"></use>
                </g>
                <path d="M73.643019,58.5546595 L69.5348872,62.6318646 C68.9771907,63.1853628 68.0755054,63.1878632 67.5209167,62.6374495 C66.966328,62.0870359 66.9688475,61.1921387 67.526544,60.6386405 L71.6346758,56.5614354 L67.5007379,52.4586186 C66.9430414,51.9051204 66.9405219,51.0102231 67.4951106,50.4598095 C68.0496993,49.9093959 68.9513846,49.9118964 69.5090811,50.4653945 L74.6673459,55.584827 C75.2164625,56.1298097 75.2189432,57.0109394 74.6728866,57.5528851 L73.6532663,58.5648297 L73.643019,58.5546595 Z M67.6427418,58.2958073 L65.5510723,60.3635538 C64.9844806,60.9236654 64.0709413,60.9286944 63.5106251,60.3747868 C62.950309,59.8208791 62.9553963,58.9177881 63.521988,58.3576767 L65.6136575,56.2899301 L63.5159584,54.2162228 C62.9493668,53.6561114 62.9442794,52.7530204 63.5045956,52.1991127 C64.0649116,51.645205 64.978451,51.6502342 65.5450427,52.2103457 L68.6659588,55.2955671 C69.2238337,55.8470614 69.2288428,56.7362587 68.6771469,57.2816447 L67.6469964,58.3000131 L67.6427418,58.2958073 Z" id="Arrow" fill="#FFFFFF" fill-rule="nonzero" mask="url(#mask-3)"></path>
                <path d="M56.6139809,58.6635778 L52.5058492,62.7407828 C51.9481527,63.294281 51.0464673,63.2967814 50.4918787,62.7463678 C49.93729,62.1959542 49.9398095,61.301057 50.497506,60.7475588 L54.6056377,56.6703537 L50.4716999,52.5675369 C49.9140034,52.0140387 49.9114839,51.1191414 50.4660725,50.5687278 C51.0206612,50.0183142 51.9223466,50.0208146 52.4800431,50.5743128 L57.6383078,55.6937452 C58.1874245,56.238728 58.1899052,57.1198577 57.6438486,57.6618034 L56.6242282,58.6737479 L56.6139809,58.6635778 Z M50.6137037,58.4047255 L48.5220342,60.4724721 C47.9554426,61.0325836 47.0419033,61.0376127 46.4815871,60.4837051 C45.9212709,59.9297974 45.9263583,59.0267064 46.4929499,58.466595 L48.5846194,56.3988484 L46.4869204,54.3251411 C45.9203287,53.7650296 45.9152413,52.8619387 46.4755575,52.308031 C47.0358736,51.7541233 47.949413,51.7591525 48.5160047,52.3192639 L51.6369208,55.4044854 C52.1947956,55.9559797 52.1998047,56.845177 51.6481088,57.390563 L50.6179583,58.4089314 L50.6137037,58.4047255 Z" id="Arrow" fill="#FFFFFF" fill-rule="nonzero" mask="url(#mask-3)" transform="translate(52.055200, 56.657548) scale(-1, 1) translate(-52.055200, -56.657548) "></path>
                <path d="M23.87,31.282 L21.014,31.282 L21.014,30.322 L27.866,30.322 L27.866,31.282 L25.01,31.282 L25.01,38.89 L23.87,38.89 L23.87,31.282 Z M27.842,35.794 C27.842,36.1700019 27.8919995,36.5039985 27.992,36.796 C28.0920005,37.0880015 28.2299991,37.331999 28.406,37.528 C28.5820009,37.724001 28.7879988,37.8739995 29.024,37.978 C29.2600012,38.0820005 29.5099987,38.134 29.774,38.134 C30.0380013,38.134 30.2879988,38.0820005 30.524,37.978 C30.7600012,37.8739995 30.9659991,37.724001 31.142,37.528 C31.3180009,37.331999 31.4559995,37.0880015 31.556,36.796 C31.6560005,36.5039985 31.706,36.1700019 31.706,35.794 C31.706,35.4179981 31.6560005,35.0840015 31.556,34.792 C31.4559995,34.4999985 31.3180009,34.254001 31.142,34.054 C30.9659991,33.853999 30.7600012,33.7020005 30.524,33.598 C30.2879988,33.4939995 30.0380013,33.442 29.774,33.442 C29.5099987,33.442 29.2600012,33.4939995 29.024,33.598 C28.7879988,33.7020005 28.5820009,33.853999 28.406,34.054 C28.2299991,34.254001 28.0920005,34.4999985 27.992,34.792 C27.8919995,35.0840015 27.842,35.4179981 27.842,35.794 Z M26.762,35.794 C26.762,35.3379977 26.8259994,34.912002 26.954,34.516 C27.0820006,34.119998 27.2739987,33.7760015 27.53,33.484 C27.7860013,33.1919985 28.1019981,32.9620008 28.478,32.794 C28.8540019,32.6259992 29.2859976,32.542 29.774,32.542 C30.2700025,32.542 30.7039981,32.6259992 31.076,32.794 C31.4480019,32.9620008 31.7619987,33.1919985 32.018,33.484 C32.2740013,33.7760015 32.4659994,34.119998 32.594,34.516 C32.7220006,34.912002 32.786,35.3379977 32.786,35.794 C32.786,36.2500023 32.7220006,36.673998 32.594,37.066 C32.4659994,37.458002 32.2740013,37.7999985 32.018,38.092 C31.7619987,38.3840015 31.4480019,38.6119992 31.076,38.776 C30.7039981,38.9400008 30.2700025,39.022 29.774,39.022 C29.2859976,39.022 28.8540019,38.9400008 28.478,38.776 C28.1019981,38.6119992 27.7860013,38.3840015 27.53,38.092 C27.2739987,37.7999985 27.0820006,37.458002 26.954,37.066 C26.8259994,36.673998 26.762,36.2500023 26.762,35.794 Z M34.514,35.842 C34.514,36.1300014 34.5519996,36.4119986 34.628,36.688 C34.7040004,36.9640014 34.8199992,37.2099989 34.976,37.426 C35.1320008,37.6420011 35.3319988,37.8139994 35.576,37.942 C35.8200012,38.0700006 36.1059984,38.134 36.434,38.134 C36.7780017,38.134 37.0699988,38.0660007 37.31,37.93 C37.5500012,37.7939993 37.7459992,37.6160011 37.898,37.396 C38.0500008,37.1759989 38.1599997,36.9260014 38.228,36.646 C38.2960003,36.3659986 38.33,36.0820014 38.33,35.794 C38.33,35.4899985 38.2940004,35.1960014 38.222,34.912 C38.1499996,34.6279986 38.0360008,34.3780011 37.88,34.162 C37.7239992,33.9459989 37.5220012,33.7720007 37.274,33.64 C37.0259988,33.5079993 36.7260018,33.442 36.374,33.442 C36.0299983,33.442 35.7380012,33.5099993 35.498,33.646 C35.2579988,33.7820007 35.0660007,33.9619989 34.922,34.186 C34.7779993,34.4100011 34.6740003,34.6659986 34.61,34.954 C34.5459997,35.2420014 34.514,35.5379985 34.514,35.842 Z M39.314,38.89 L38.294,38.89 L38.294,38.05 L38.27,38.05 C38.1019992,38.3940017 37.8380018,38.6419992 37.478,38.794 C37.1179982,38.9460008 36.7220022,39.022 36.29,39.022 C35.8099976,39.022 35.3920018,38.9340009 35.036,38.758 C34.6799982,38.5819991 34.3840012,38.3460015 34.148,38.05 C33.9119988,37.7539985 33.7340006,37.410002 33.614,37.018 C33.4939994,36.625998 33.434,36.2100022 33.434,35.77 C33.434,35.3299978 33.4919994,34.914002 33.608,34.522 C33.7240006,34.129998 33.8999988,33.7880015 34.136,33.496 C34.3720012,33.2039985 34.6679982,32.9720009 35.024,32.8 C35.3800018,32.6279991 35.7939976,32.542 36.266,32.542 C36.4260008,32.542 36.5979991,32.5579998 36.782,32.59 C36.9660009,32.6220002 37.1499991,32.6759996 37.334,32.752 C37.5180009,32.8280004 37.6919992,32.9279994 37.856,33.052 C38.0200008,33.1760006 38.1579994,33.3299991 38.27,33.514 L38.294,33.514 L38.294,30.322 L39.314,30.322 L39.314,38.89 Z M46.166,38.866 C45.9899991,38.9700005 45.7460016,39.022 45.434,39.022 C45.1699987,39.022 44.9600008,38.9480007 44.804,38.8 C44.6479992,38.6519993 44.57,38.4100017 44.57,38.074 C44.2899986,38.4100017 43.9640019,38.6519993 43.592,38.8 C43.2199981,38.9480007 42.8180022,39.022 42.386,39.022 C42.1059986,39.022 41.8400013,38.9900003 41.588,38.926 C41.3359987,38.8619997 41.1180009,38.7620007 40.934,38.626 C40.7499991,38.4899993 40.6040005,38.3120011 40.496,38.092 C40.3879995,37.8719989 40.334,37.6060016 40.334,37.294 C40.334,36.9419982 40.3939994,36.6540011 40.514,36.43 C40.6340006,36.2059989 40.791999,36.0240007 40.988,35.884 C41.184001,35.7439993 41.4079987,35.6380004 41.66,35.566 C41.9120013,35.4939996 42.1699987,35.4340002 42.434,35.386 C42.7140014,35.3299997 42.9799987,35.2880001 43.232,35.26 C43.4840013,35.2319999 43.705999,35.1920003 43.898,35.14 C44.090001,35.0879997 44.2419994,35.0120005 44.354,34.912 C44.4660006,34.8119995 44.522,34.666001 44.522,34.474 C44.522,34.2499989 44.4800004,34.0700007 44.396,33.934 C44.3119996,33.7979993 44.2040007,33.6940004 44.072,33.622 C43.9399993,33.5499996 43.7920008,33.5020001 43.628,33.478 C43.4639992,33.4539999 43.3020008,33.442 43.142,33.442 C42.7099978,33.442 42.3500014,33.5239992 42.062,33.688 C41.7739986,33.8520008 41.6180001,34.1619977 41.594,34.618 L40.574,34.618 C40.5900001,34.2339981 40.6699993,33.9100013 40.814,33.646 C40.9580007,33.3819987 41.1499988,33.1680008 41.39,33.004 C41.6300012,32.8399992 41.9039985,32.7220004 42.212,32.65 C42.5200015,32.5779996 42.8499982,32.542 43.202,32.542 C43.4820014,32.542 43.7599986,32.5619998 44.036,32.602 C44.3120014,32.6420002 44.5619989,32.7239994 44.786,32.848 C45.0100011,32.9720006 45.1899993,33.1459989 45.326,33.37 C45.4620007,33.5940011 45.53,33.8859982 45.53,34.246 L45.53,37.438 C45.53,37.6780012 45.5439999,37.8539994 45.572,37.966 C45.6000001,38.0780006 45.6939992,38.134 45.854,38.134 C45.9420004,38.134 46.0459994,38.1140002 46.166,38.074 L46.166,38.866 Z M44.51,35.686 C44.3819994,35.7820005 44.214001,35.8519998 44.006,35.896 C43.797999,35.9400002 43.5800011,35.9759999 43.352,36.004 C43.1239989,36.0320001 42.8940012,36.0639998 42.662,36.1 C42.4299988,36.1360002 42.2220009,36.1939996 42.038,36.274 C41.8539991,36.3540004 41.7040006,36.4679993 41.588,36.616 C41.4719994,36.7640007 41.414,36.9659987 41.414,37.222 C41.414,37.3900008 41.4479997,37.5319994 41.516,37.648 C41.5840003,37.7640006 41.6719995,37.8579996 41.78,37.93 C41.8880005,38.0020004 42.0139993,38.0539998 42.158,38.086 C42.3020007,38.1180002 42.4539992,38.134 42.614,38.134 C42.9500017,38.134 43.2379988,38.0880005 43.478,37.996 C43.7180012,37.9039995 43.9139992,37.7880007 44.066,37.648 C44.2180008,37.5079993 44.3299996,37.3560008 44.402,37.192 C44.4740004,37.0279992 44.51,36.8740007 44.51,36.73 L44.51,35.686 Z M49.334,39.718 C49.2139994,40.0220015 49.0960006,40.277999 48.98,40.486 C48.8639994,40.694001 48.7360007,40.8639993 48.596,40.996 C48.4559993,41.1280007 48.3000009,41.2239997 48.128,41.284 C47.9559991,41.3440003 47.7580011,41.374 47.534,41.374 C47.4139994,41.374 47.2940006,41.3660001 47.174,41.35 C47.0539994,41.3339999 46.9380006,41.3060002 46.826,41.266 L46.826,40.33 C46.9140004,40.3700002 47.0159994,40.4039999 47.132,40.432 C47.2480006,40.4600001 47.3459996,40.474 47.426,40.474 C47.634001,40.474 47.8079993,40.4240005 47.948,40.324 C48.0880007,40.2239995 48.1939996,40.0820009 48.266,39.898 L48.686,38.854 L46.226,32.686 L47.378,32.686 L49.19,37.762 L49.214,37.762 L50.954,32.686 L52.034,32.686 L49.334,39.718 Z M52.022,37.558 L53.354,37.558 L53.354,38.77 C53.354,39.2260023 53.250001,39.6179984 53.042,39.946 C52.833999,40.2740016 52.4980023,40.5059993 52.034,40.642 L52.034,40.042 C52.1700007,39.9939998 52.2839995,39.9240005 52.376,39.832 C52.4680005,39.7399995 52.5419997,39.6400005 52.598,39.532 C52.6540003,39.4239995 52.6919999,39.3140006 52.712,39.202 C52.7320001,39.0899994 52.738,38.9860005 52.73,38.89 L52.022,38.89 L52.022,37.558 Z M59.126,32.59 C59.126,32.8220012 59.1659996,33.0239991 59.246,33.196 C59.3260004,33.3680009 59.4339993,33.5099994 59.57,33.622 C59.7060007,33.7340006 59.8659991,33.8179997 60.05,33.874 C60.2340009,33.9300003 60.429999,33.958 60.638,33.958 C61.046002,33.958 61.3819987,33.8380012 61.646,33.598 C61.9100013,33.3579988 62.042,33.0220022 62.042,32.59 C62.042,32.1579978 61.9080013,31.8320011 61.64,31.612 C61.3719987,31.3919989 61.0300021,31.282 60.614,31.282 C60.413999,31.282 60.2220009,31.3099997 60.038,31.366 C59.8539991,31.4220003 59.6960007,31.5059994 59.564,31.618 C59.4319993,31.7300006 59.3260004,31.8659992 59.246,32.026 C59.1659996,32.1860008 59.126,32.3739989 59.126,32.59 Z M58.046,32.554 C58.046,32.2019982 58.1139993,31.8920013 58.25,31.624 C58.3860007,31.3559987 58.5699988,31.1300009 58.802,30.946 C59.0340012,30.7619991 59.2999985,30.6220005 59.6,30.526 C59.9000015,30.4299995 60.2139984,30.382 60.542,30.382 C61.0060023,30.382 61.4019984,30.4439994 61.73,30.568 C62.0580016,30.6920006 62.323999,30.855999 62.528,31.06 C62.732001,31.264001 62.8819995,31.4959987 62.978,31.756 C63.0740005,32.0160013 63.122,32.2819986 63.122,32.554 C63.122,32.9380019 63.0160011,33.2879984 62.804,33.604 C62.5919989,33.9200016 62.3060018,34.1579992 61.946,34.318 C62.4580026,34.4780008 62.8379988,34.7399982 63.086,35.104 C63.3340012,35.4680018 63.458,35.9139974 63.458,36.442 C63.458,36.8580021 63.3840007,37.2259984 63.236,37.546 C63.0879993,37.8660016 62.8880013,38.1359989 62.636,38.356 C62.3839987,38.5760011 62.0860017,38.7419994 61.742,38.854 C61.3979983,38.9660006 61.030002,39.022 60.638,39.022 C60.229998,39.022 59.8500018,38.9700005 59.498,38.866 C59.1459982,38.7619995 58.8400013,38.6020011 58.58,38.386 C58.3199987,38.1699989 58.1160007,37.9000016 57.968,37.576 C57.8199993,37.2519984 57.746,36.8740022 57.746,36.442 C57.746,35.9379975 57.8739987,35.5000019 58.13,35.128 C58.3860013,34.7559981 58.7539976,34.4860008 59.234,34.318 C58.8739982,34.1739993 58.5860011,33.9400016 58.37,33.616 C58.1539989,33.2919984 58.046,32.9380019 58.046,32.554 Z M58.826,36.49 C58.826,37.0020026 58.9959983,37.4039985 59.336,37.696 C59.6760017,37.9880015 60.1099974,38.134 60.638,38.134 C60.8940013,38.134 61.1279989,38.0920004 61.34,38.008 C61.5520011,37.9239996 61.7359992,37.8080007 61.892,37.66 C62.0480008,37.5119993 62.1679996,37.338001 62.252,37.138 C62.3360004,36.937999 62.378,36.7180012 62.378,36.478 C62.378,36.2459988 62.3320005,36.032001 62.24,35.836 C62.1479995,35.639999 62.0220008,35.4700007 61.862,35.326 C61.7019992,35.1819993 61.5160011,35.0680004 61.304,34.984 C61.0919989,34.8999996 60.8660012,34.858 60.626,34.858 C60.3779988,34.858 60.1440011,34.8959996 59.924,34.972 C59.7039989,35.0480004 59.5120008,35.1579993 59.348,35.302 C59.1839992,35.4460007 59.0560005,35.617999 58.964,35.818 C58.8719995,36.018001 58.826,36.2419988 58.826,36.49 Z M66.05,34.018 L64.718,34.018 L64.718,32.686 L66.05,32.686 L66.05,34.018 Z M64.718,37.558 L66.05,37.558 L66.05,38.89 L64.718,38.89 L64.718,37.558 Z M69.458,34.03 C69.4980002,34.038 69.5339998,34.042 69.566,34.042 L69.902,34.042 C70.1180011,34.042 70.323999,34.0120003 70.52,33.952 C70.716001,33.8919997 70.8879993,33.8040006 71.036,33.688 C71.1840007,33.5719994 71.3019996,33.4260009 71.39,33.25 C71.4780004,33.0739991 71.522,32.8740011 71.522,32.65 C71.522,32.1939977 71.3780014,31.8520011 71.09,31.624 C70.8019986,31.3959989 70.4420022,31.282 70.01,31.282 C69.7379986,31.282 69.500001,31.3319995 69.296,31.432 C69.091999,31.5320005 68.9240007,31.6659992 68.792,31.834 C68.6599993,32.0020008 68.5620003,32.1979989 68.498,32.422 C68.4339997,32.6460011 68.402,32.8819988 68.402,33.13 L67.382,33.13 C67.3980001,32.721998 67.4639994,32.3500017 67.58,32.014 C67.6960006,31.6779983 67.8619989,31.3900012 68.078,31.15 C68.2940011,30.9099988 68.5639984,30.7220007 68.888,30.586 C69.2120016,30.4499993 69.5859979,30.382 70.01,30.382 C70.3780018,30.382 70.7199984,30.4279995 71.036,30.52 C71.3520016,30.6120005 71.6259988,30.7499991 71.858,30.934 C72.0900012,31.1180009 72.2719993,31.3539986 72.404,31.642 C72.5360007,31.9300014 72.602,32.269998 72.602,32.662 C72.602,33.0460019 72.4900011,33.3859985 72.266,33.682 C72.0419989,33.9780015 71.7620017,34.2019992 71.426,34.354 L71.426,34.378 C71.9460026,34.4900006 72.3319987,34.7339981 72.584,35.11 C72.8360013,35.4860019 72.962,35.9299974 72.962,36.442 C72.962,36.8660021 72.8840008,37.2399984 72.728,37.564 C72.5719992,37.8880016 72.3620013,38.1579989 72.098,38.374 C71.8339987,38.5900011 71.5240018,38.7519995 71.168,38.86 C70.8119982,38.9680005 70.434002,39.022 70.034,39.022 C69.6019978,39.022 69.2100018,38.9620006 68.858,38.842 C68.5059982,38.7219994 68.2060012,38.5440012 67.958,38.308 C67.7099988,38.0719988 67.5200007,37.7820017 67.388,37.438 C67.2559993,37.0939983 67.194,36.7020022 67.202,36.262 L68.222,36.262 C68.2380001,36.8140028 68.3979985,37.2639983 68.702,37.612 C69.0060015,37.9600017 69.4499971,38.134 70.034,38.134 C70.2820012,38.134 70.5179989,38.0960004 70.742,38.02 C70.9660011,37.9439996 71.1619992,37.8360007 71.33,37.696 C71.4980008,37.5559993 71.6319995,37.384001 71.732,37.18 C71.8320005,36.975999 71.882,36.7460013 71.882,36.49 C71.882,36.2259987 71.8340005,35.992001 71.738,35.788 C71.6419995,35.583999 71.5140008,35.4120007 71.354,35.272 C71.1939992,35.1319993 71.0040011,35.0280003 70.784,34.96 C70.5639989,34.8919997 70.3260013,34.858 70.07,34.858 C69.8539989,34.858 69.650001,34.8699999 69.458,34.894 L69.458,34.03 Z M78.938,31.426 L75.506,31.426 L75.05,33.874 L75.074,33.898 C75.2580009,33.689999 75.4959985,33.5360005 75.788,33.436 C76.0800015,33.3359995 76.3699986,33.286 76.658,33.286 C77.0340019,33.286 77.3899983,33.3459994 77.726,33.466 C78.0620017,33.5860006 78.3539988,33.7679988 78.602,34.012 C78.8500012,34.2560012 79.0459993,34.5599982 79.19,34.924 C79.3340007,35.2880018 79.406,35.7139976 79.406,36.202 C79.406,36.5620018 79.3440006,36.9119983 79.22,37.252 C79.0959994,37.5920017 78.9100012,37.8939987 78.662,38.158 C78.4139988,38.4220013 78.1040019,38.6319992 77.732,38.788 C77.3599981,38.9440008 76.9260025,39.022 76.43,39.022 C76.0619982,39.022 75.7160016,38.9680005 75.392,38.86 C75.0679984,38.7519995 74.7820012,38.596001 74.534,38.392 C74.2859988,38.187999 74.0900007,37.9340015 73.946,37.63 C73.8019993,37.3259985 73.726,36.9820019 73.718,36.598 L74.738,36.598 C74.7540001,36.8140011 74.8079995,37.0159991 74.9,37.204 C74.9920005,37.3920009 75.1159992,37.5559993 75.272,37.696 C75.4280008,37.8360007 75.6119989,37.9439996 75.824,38.02 C76.0360011,38.0960004 76.2699987,38.134 76.526,38.134 C76.7660012,38.134 76.9959989,38.0920004 77.216,38.008 C77.4360011,37.9239996 77.6279992,37.7980008 77.792,37.63 C77.9560008,37.4619992 78.0859995,37.2520013 78.182,37 C78.2780005,36.7479987 78.326,36.4540017 78.326,36.118 C78.326,35.8379986 78.2800005,35.5800012 78.188,35.344 C78.0959995,35.1079988 77.9660008,34.9040009 77.798,34.732 C77.6299992,34.5599991 77.4280012,34.4260005 77.192,34.33 C76.9559988,34.2339995 76.6940014,34.186 76.406,34.186 C76.0699983,34.186 75.7720013,34.2599993 75.512,34.408 C75.2519987,34.5560007 75.022001,34.7499988 74.822,34.99 L73.946,34.942 L74.738,30.526 L78.938,30.526 L78.938,31.426 Z M85.286,35.35 L88.19,35.35 L86.762,31.354 L86.738,31.354 L85.286,35.35 Z M86.138,30.322 L87.398,30.322 L90.746,38.89 L89.486,38.89 L88.55,36.31 L84.926,36.31 L83.966,38.89 L82.802,38.89 L86.138,30.322 Z M91.394,30.322 L92.954,30.322 L95.654,37.522 L98.366,30.322 L99.926,30.322 L99.926,38.89 L98.846,38.89 L98.846,31.762 L98.822,31.762 L96.146,38.89 L95.174,38.89 L92.498,31.762 L92.474,31.762 L92.474,38.89 L91.394,38.89 L91.394,30.322 Z" id="Today,-8:35-AM" fill="#FFFFFF" mask="url(#mask-3)"></path>
                <path d="M31.7828092,17 L34.0088092,17 C34.4008112,17 34.722808,16.9066676 34.9748092,16.72 C35.2268105,16.5333324 35.3528092,16.2300021 35.3528092,15.81 C35.3528092,15.5766655 35.3108096,15.3853341 35.2268092,15.236 C35.1428088,15.0866659 35.0308099,14.9700004 34.8908092,14.886 C34.7508085,14.8019996 34.5898101,14.7436668 34.4078092,14.711 C34.2258083,14.6783332 34.0368102,14.662 33.8408092,14.662 L31.7828092,14.662 L31.7828092,17 Z M29.5848092,12.954 L34.2888092,12.954 C34.7648116,12.954 35.1988073,12.9959996 35.5908092,13.08 C35.9828112,13.1640004 36.3188078,13.3016657 36.5988092,13.493 C36.8788106,13.6843343 37.0958084,13.9386651 37.2498092,14.256 C37.40381,14.5733349 37.4808092,14.965331 37.4808092,15.432 C37.4808092,15.9360025 37.366477,16.3559983 37.1378092,16.692 C36.9091414,17.0280017 36.5708115,17.3033323 36.1228092,17.518 C36.7388123,17.6953342 37.1984744,18.0056644 37.5018092,18.449 C37.8051441,18.8923355 37.9568092,19.4266635 37.9568092,20.052 C37.9568092,20.5560025 37.8588102,20.9923315 37.6628092,21.361 C37.4668082,21.7296685 37.2031442,22.0306655 36.8718092,22.264 C36.5404742,22.4973345 36.162478,22.6699994 35.7378092,22.782 C35.3131404,22.8940006 34.8768115,22.95 34.4288092,22.95 L29.5848092,22.95 L29.5848092,12.954 Z M31.7828092,21.242 L34.1348092,21.242 C34.349477,21.242 34.5548082,21.2210002 34.7508092,21.179 C34.9468102,21.1369998 35.1194751,21.0670005 35.2688092,20.969 C35.4181433,20.8709995 35.5371421,20.7380008 35.6258092,20.57 C35.7144763,20.4019992 35.7588092,20.1873346 35.7588092,19.926 C35.7588092,19.4126641 35.614144,19.0463344 35.3248092,18.827 C35.0354744,18.6076656 34.6528116,18.498 34.1768092,18.498 L31.7828092,18.498 L31.7828092,21.242 Z M38.9228092,17.938 C38.9508094,17.471331 39.0674749,17.0840015 39.2728092,16.776 C39.4781436,16.4679985 39.7394743,16.2206676 40.0568092,16.034 C40.3741441,15.8473324 40.7311406,15.7143337 41.1278092,15.635 C41.5244779,15.5556663 41.9234739,15.516 42.3248092,15.516 C42.688811,15.516 43.057474,15.5416664 43.4308092,15.593 C43.8041444,15.6443336 44.1448077,15.7446659 44.4528092,15.894 C44.7608108,16.0433341 45.0128082,16.2509987 45.2088092,16.517 C45.4048102,16.7830013 45.5028092,17.1353311 45.5028092,17.574 L45.5028092,21.34 C45.5028092,21.6666683 45.5214757,21.9793318 45.5588092,22.278 C45.5961427,22.5766682 45.6614754,22.8006659 45.7548092,22.95 L43.7388092,22.95 C43.7014757,22.8379994 43.6711427,22.7236672 43.6478092,22.607 C43.6244758,22.4903328 43.6081426,22.3713339 43.5988092,22.25 C43.2814743,22.5766683 42.9081447,22.8053327 42.4788092,22.936 C42.0494737,23.0666673 41.6108115,23.132 41.1628092,23.132 C40.8174742,23.132 40.4954774,23.0900004 40.1968092,23.006 C39.8981411,22.9219996 39.6368103,22.7913342 39.4128092,22.614 C39.1888081,22.4366658 39.0138098,22.212668 38.8878092,21.942 C38.7618086,21.671332 38.6988092,21.3493352 38.6988092,20.976 C38.6988092,20.5653313 38.7711418,20.2270013 38.9158092,19.961 C39.0604766,19.6949987 39.2471414,19.4826675 39.4758092,19.324 C39.704477,19.1653325 39.9658077,19.0463337 40.2598092,18.967 C40.5538107,18.8876663 40.8501411,18.8246669 41.1488092,18.778 C41.4474774,18.7313331 41.7414744,18.6940001 42.0308092,18.666 C42.320144,18.6379999 42.5768081,18.5960003 42.8008092,18.54 C43.0248103,18.4839997 43.2021419,18.4023339 43.3328092,18.295 C43.4634765,18.1876661 43.5241426,18.0313344 43.5148092,17.826 C43.5148092,17.6113323 43.4798096,17.4410006 43.4098092,17.315 C43.3398089,17.1889994 43.2464765,17.0910004 43.1298092,17.021 C43.013142,16.9509996 42.87781,16.9043335 42.7238092,16.881 C42.5698084,16.8576666 42.4041434,16.846 42.2268092,16.846 C41.8348073,16.846 41.5268103,16.9299992 41.3028092,17.098 C41.0788081,17.2660008 40.9481427,17.545998 40.9108092,17.938 L38.9228092,17.938 Z M43.5148092,19.408 C43.4308088,19.482667 43.3258098,19.5409998 43.1998092,19.583 C43.0738086,19.6250002 42.9384766,19.6599999 42.7938092,19.688 C42.6491418,19.7160001 42.4974767,19.7393332 42.3388092,19.758 C42.1801418,19.7766668 42.0214767,19.7999999 41.8628092,19.828 C41.7134751,19.8560001 41.5664766,19.8933331 41.4218092,19.94 C41.2771418,19.9866669 41.1511431,20.0496663 41.0438092,20.129 C40.9364753,20.2083337 40.8501429,20.3086661 40.7848092,20.43 C40.7194756,20.5513339 40.6868092,20.7053324 40.6868092,20.892 C40.6868092,21.0693342 40.7194756,21.2186661 40.7848092,21.34 C40.8501429,21.4613339 40.9388087,21.5569997 41.0508092,21.627 C41.1628098,21.6970004 41.2934751,21.7459999 41.4428092,21.774 C41.5921433,21.8020001 41.7461418,21.816 41.9048092,21.816 C42.2968112,21.816 42.6001415,21.7506673 42.8148092,21.62 C43.029477,21.4893327 43.188142,21.3330009 43.2908092,21.151 C43.3934764,20.9689991 43.4564758,20.7846676 43.4798092,20.598 C43.5031427,20.4113324 43.5148092,20.2620006 43.5148092,20.15 L43.5148092,19.408 Z M49.3388092,15.712 L50.7948092,15.712 L50.7948092,17.042 L49.3388092,17.042 L49.3388092,20.626 C49.3388092,20.9620017 49.3948087,21.1859994 49.5068092,21.298 C49.6188098,21.4100006 49.8428075,21.466 50.1788092,21.466 C50.2908098,21.466 50.398142,21.4613334 50.5008092,21.452 C50.6034764,21.4426666 50.7014754,21.4286668 50.7948092,21.41 L50.7948092,22.95 C50.6268084,22.9780001 50.4401436,22.9966666 50.2348092,23.006 C50.0294749,23.0153334 49.8288102,23.02 49.6328092,23.02 C49.3248077,23.02 49.0331439,22.9990002 48.7578092,22.957 C48.4824745,22.9149998 48.2398103,22.8333339 48.0298092,22.712 C47.8198082,22.5906661 47.6541432,22.4180011 47.5328092,22.194 C47.4114753,21.9699989 47.3508092,21.6760018 47.3508092,21.312 L47.3508092,17.042 L46.1468092,17.042 L46.1468092,15.712 L47.3508092,15.712 L47.3508092,13.542 L49.3388092,13.542 L49.3388092,15.712 Z M51.5228092,12.954 L53.5108092,12.954 L53.5108092,16.72 L53.5528092,16.72 C53.8048105,16.2999979 54.1268073,15.9943343 54.5188092,15.803 C54.9108112,15.6116657 55.293474,15.516 55.6668092,15.516 C56.1988119,15.516 56.6351408,15.5883326 56.9758092,15.733 C57.3164776,15.8776674 57.5848082,16.0783321 57.7808092,16.335 C57.9768102,16.591668 58.1144755,16.9043315 58.1938092,17.273 C58.2731429,17.6416685 58.3128092,18.0499978 58.3128092,18.498 L58.3128092,22.95 L56.3248092,22.95 L56.3248092,18.862 C56.3248092,18.2646637 56.2314768,17.8190015 56.0448092,17.525 C55.8581416,17.2309985 55.5268116,17.084 55.0508092,17.084 C54.5094732,17.084 54.1174771,17.2449984 53.8748092,17.567 C53.6321413,17.8890016 53.5108092,18.418663 53.5108092,19.156 L53.5108092,22.95 L51.5228092,22.95 L51.5228092,12.954 Z M59.6008092,15.712 L61.4908092,15.712 L61.4908092,17.056 L61.5188092,17.056 C61.612143,16.8319989 61.7381418,16.6243343 61.8968092,16.433 C62.0554767,16.2416657 62.2374749,16.078334 62.4428092,15.943 C62.6481436,15.807666 62.8674747,15.702667 63.1008092,15.628 C63.3341437,15.553333 63.576808,15.516 63.8288092,15.516 C63.9594765,15.516 64.1041418,15.5393331 64.2628092,15.586 L64.2628092,17.434 C64.1694754,17.4153332 64.0574765,17.3990001 63.9268092,17.385 C63.7961419,17.3709999 63.6701432,17.364 63.5488092,17.364 C63.1848074,17.364 62.8768105,17.4246661 62.6248092,17.546 C62.372808,17.6673339 62.16981,17.832999 62.0158092,18.043 C61.8618084,18.2530011 61.7521429,18.4979986 61.6868092,18.778 C61.6214756,19.0580014 61.5888092,19.3613317 61.5888092,19.688 L61.5888092,22.95 L59.6008092,22.95 L59.6008092,15.712 Z M66.3348092,19.338 C66.3348092,19.6273348 66.3628089,19.9096653 66.4188092,20.185 C66.4748095,20.4603347 66.5704752,20.7076656 66.7058092,20.927 C66.8411432,21.1463344 67.0208081,21.3213327 67.2448092,21.452 C67.4688103,21.5826673 67.7488075,21.648 68.0848092,21.648 C68.4208109,21.648 68.7031414,21.5826673 68.9318092,21.452 C69.160477,21.3213327 69.3424752,21.1463344 69.4778092,20.927 C69.6131432,20.7076656 69.7088089,20.4603347 69.7648092,20.185 C69.8208095,19.9096653 69.8488092,19.6273348 69.8488092,19.338 C69.8488092,19.0486652 69.8208095,18.7640014 69.7648092,18.484 C69.7088089,18.2039986 69.6131432,17.9566677 69.4778092,17.742 C69.3424752,17.5273323 69.160477,17.352334 68.9318092,17.217 C68.7031414,17.081666 68.4208109,17.014 68.0848092,17.014 C67.7488075,17.014 67.4688103,17.081666 67.2448092,17.217 C67.0208081,17.352334 66.8411432,17.5273323 66.7058092,17.742 C66.5704752,17.9566677 66.4748095,18.2039986 66.4188092,18.484 C66.3628089,18.7640014 66.3348092,19.0486652 66.3348092,19.338 Z M64.3468092,19.338 C64.3468092,18.7593304 64.435475,18.2343357 64.6128092,17.763 C64.7901434,17.2916643 65.0421409,16.890335 65.3688092,16.559 C65.6954775,16.227665 66.0874736,15.9710009 66.5448092,15.789 C67.0021448,15.6069991 67.515473,15.516 68.0848092,15.516 C68.6541454,15.516 69.1698069,15.6069991 69.6318092,15.789 C70.0938115,15.9710009 70.4881409,16.227665 70.8148092,16.559 C71.1414775,16.890335 71.393475,17.2916643 71.5708092,17.763 C71.7481434,18.2343357 71.8368092,18.7593304 71.8368092,19.338 C71.8368092,19.9166696 71.7481434,20.439331 71.5708092,20.906 C71.393475,21.372669 71.1414775,21.771665 70.8148092,22.103 C70.4881409,22.434335 70.0938115,22.6886658 69.6318092,22.866 C69.1698069,23.0433342 68.6541454,23.132 68.0848092,23.132 C67.515473,23.132 67.0021448,23.0433342 66.5448092,22.866 C66.0874736,22.6886658 65.6954775,22.434335 65.3688092,22.103 C65.0421409,21.771665 64.7901434,21.372669 64.6128092,20.906 C64.435475,20.439331 64.3468092,19.9166696 64.3468092,19.338 Z M74.6648092,19.338 C74.6648092,19.6273348 74.6928089,19.9096653 74.7488092,20.185 C74.8048095,20.4603347 74.9004752,20.7076656 75.0358092,20.927 C75.1711432,21.1463344 75.3508081,21.3213327 75.5748092,21.452 C75.7988103,21.5826673 76.0788075,21.648 76.4148092,21.648 C76.7508109,21.648 77.0331414,21.5826673 77.2618092,21.452 C77.490477,21.3213327 77.6724752,21.1463344 77.8078092,20.927 C77.9431432,20.7076656 78.0388089,20.4603347 78.0948092,20.185 C78.1508095,19.9096653 78.1788092,19.6273348 78.1788092,19.338 C78.1788092,19.0486652 78.1508095,18.7640014 78.0948092,18.484 C78.0388089,18.2039986 77.9431432,17.9566677 77.8078092,17.742 C77.6724752,17.5273323 77.490477,17.352334 77.2618092,17.217 C77.0331414,17.081666 76.7508109,17.014 76.4148092,17.014 C76.0788075,17.014 75.7988103,17.081666 75.5748092,17.217 C75.3508081,17.352334 75.1711432,17.5273323 75.0358092,17.742 C74.9004752,17.9566677 74.8048095,18.2039986 74.7488092,18.484 C74.6928089,18.7640014 74.6648092,19.0486652 74.6648092,19.338 Z M72.6768092,19.338 C72.6768092,18.7593304 72.765475,18.2343357 72.9428092,17.763 C73.1201434,17.2916643 73.3721409,16.890335 73.6988092,16.559 C74.0254775,16.227665 74.4174736,15.9710009 74.8748092,15.789 C75.3321448,15.6069991 75.845473,15.516 76.4148092,15.516 C76.9841454,15.516 77.4998069,15.6069991 77.9618092,15.789 C78.4238115,15.9710009 78.8181409,16.227665 79.1448092,16.559 C79.4714775,16.890335 79.723475,17.2916643 79.9008092,17.763 C80.0781434,18.2343357 80.1668092,18.7593304 80.1668092,19.338 C80.1668092,19.9166696 80.0781434,20.439331 79.9008092,20.906 C79.723475,21.372669 79.4714775,21.771665 79.1448092,22.103 C78.8181409,22.434335 78.4238115,22.6886658 77.9618092,22.866 C77.4998069,23.0433342 76.9841454,23.132 76.4148092,23.132 C75.845473,23.132 75.3321448,23.0433342 74.8748092,22.866 C74.4174736,22.6886658 74.0254775,22.434335 73.6988092,22.103 C73.3721409,21.771665 73.1201434,21.372669 72.9428092,20.906 C72.765475,20.439331 72.6768092,19.9166696 72.6768092,19.338 Z M81.2868092,15.712 L83.1628092,15.712 L83.1628092,16.692 L83.1908092,16.692 C83.4521439,16.3186648 83.7671407,16.0293344 84.1358092,15.824 C84.5044777,15.6186656 84.9268068,15.516 85.4028092,15.516 C85.8601448,15.516 86.2778073,15.6046658 86.6558092,15.782 C87.0338111,15.9593342 87.3208082,16.2719978 87.5168092,16.72 C87.731477,16.4026651 88.0231407,16.1226679 88.3918092,15.88 C88.7604777,15.6373321 89.1968067,15.516 89.7008092,15.516 C90.0834778,15.516 90.4381409,15.5626662 90.7648092,15.656 C91.0914775,15.7493338 91.3714747,15.8986656 91.6048092,16.104 C91.8381437,16.3093344 92.0201419,16.577665 92.1508092,16.909 C92.2814765,17.240335 92.3468092,17.639331 92.3468092,18.106 L92.3468092,22.95 L90.3588092,22.95 L90.3588092,18.848 C90.3588092,18.6053321 90.349476,18.3766677 90.3308092,18.162 C90.3121425,17.9473323 90.2608096,17.7606675 90.1768092,17.602 C90.0928088,17.4433325 89.9691434,17.3173338 89.8058092,17.224 C89.6424751,17.1306662 89.4208106,17.084 89.1408092,17.084 C88.8608078,17.084 88.6344767,17.1376661 88.4618092,17.245 C88.2891417,17.3523339 88.1538097,17.4923325 88.0558092,17.665 C87.9578087,17.8376675 87.892476,18.0336656 87.8598092,18.253 C87.8271424,18.4723344 87.8108092,18.6939989 87.8108092,18.918 L87.8108092,22.95 L85.8228092,22.95 L85.8228092,18.89 C85.8228092,18.6753323 85.8181426,18.4630011 85.8088092,18.253 C85.7994758,18.042999 85.7598096,17.8493342 85.6898092,17.672 C85.6198089,17.4946658 85.5031434,17.3523339 85.3398092,17.245 C85.1764751,17.1376661 84.9361441,17.084 84.6188092,17.084 C84.5254754,17.084 84.40181,17.1049998 84.2478092,17.147 C84.0938084,17.1890002 83.9444766,17.2683327 83.7998092,17.385 C83.6551418,17.5016673 83.5314764,17.6696656 83.4288092,17.889 C83.326142,18.1083344 83.2748092,18.3953316 83.2748092,18.75 L83.2748092,22.95 L81.2868092,22.95 L81.2868092,15.712 Z" id="Bathroom" fill="#FFFFFF" mask="url(#mask-3)"></path>
            </g>
        </g>
    </g>
</svg>