<?xml version="1.0" encoding="UTF-8"?>
<svg width="132px" height="87px" viewBox="0 0 132 87" version="1.1" xmlns="http://www.w3.org/2000/svg" xmlns:xlink="http://www.w3.org/1999/xlink">
    <!-- Generator: Sketch 52.5 (67469) - http://www.bohemiancoding.com/sketch -->
    <title>Pass Tile 2</title>
    <desc>Created with Sketch.</desc>
    <defs>
        <radialGradient cx="95.9503106%" cy="93.0961194%" fx="95.9503106%" fy="93.0961194%" r="175.771573%" gradientTransform="translate(0.959503,0.930961),scale(0.611570,1.000000),rotate(-148.018688),translate(-0.959503,-0.930961)" id="radialGradient-1">
            <stop stop-color="#F52B4F" offset="0%"></stop>
            <stop stop-color="#F53D44" offset="34.4720297%"></stop>
            <stop stop-color="#F37426" offset="100%"></stop>
        </radialGradient>
        <path d="M12.819426,-5.17920154e-16 L108.180574,5.17920154e-16 C112.638168,-3.00926524e-16 114.254599,0.464128056 115.884229,1.33566352 C117.513858,2.20719898 118.792801,3.48614185 119.664336,5.11577148 C120.535872,6.74540111 121,8.3618323 121,12.819426 L121,61.180574 C121,65.6381677 120.535872,67.2545989 119.664336,68.8842285 C118.792801,70.5138581 117.513858,71.792801 115.884229,72.6643365 C114.254599,73.5358719 112.638168,74 108.180574,74 L12.819426,74 C8.3618323,74 6.74540111,73.5358719 5.11577148,72.6643365 C3.48614185,71.792801 2.20719898,70.5138581 1.33566352,68.8842285 C0.464128056,67.2545989 2.00617683e-16,65.6381677 -3.45280103e-16,61.180574 L3.45280103e-16,12.819426 C-2.00617683e-16,8.3618323 0.464128056,6.74540111 1.33566352,5.11577148 C2.20719898,3.48614185 3.48614185,2.20719898 5.11577148,1.33566352 C6.74540111,0.464128056 8.3618323,3.00926524e-16 12.819426,-5.17920154e-16 Z" id="path-2"></path>
        <filter x="-5.8%" y="-6.8%" width="111.6%" height="118.9%" filterUnits="objectBoundingBox" id="filter-4">
            <feOffset dx="0" dy="2" in="SourceAlpha" result="shadowOffsetOuter1"></feOffset>
            <feGaussianBlur stdDeviation="2" in="shadowOffsetOuter1" result="shadowBlurOuter1"></feGaussianBlur>
            <feColorMatrix values="0 0 0 0 0   0 0 0 0 0   0 0 0 0 0  0 0 0 0.1 0" type="matrix" in="shadowBlurOuter1"></feColorMatrix>
        </filter>
    </defs>
    <g id="Web---Sign-in" stroke="none" stroke-width="1" fill="none" fill-rule="evenodd">
        <g id="Landing" transform="translate(-575.000000, -498.000000)">
            <g id="Pass-Tile-2" transform="translate(641.000000, 540.000000) rotate(3.000000) translate(-641.000000, -540.000000) translate(580.500000, 503.000000)">
                <mask id="mask-3" fill="white">
                    <use xlink:href="#path-2"></use>
                </mask>
                <g id="Rectangle-4">
                    <use fill="black" fill-opacity="1" filter="url(#filter-4)" xlink:href="#path-2"></use>
                    <use fill="url(#radialGradient-1)" fill-rule="evenodd" xlink:href="#path-2"></use>
                </g>
                <path d="M65.7553549,58.55603 L61.6472232,62.633235 C61.0895267,63.1867332 60.1878413,63.1892336 59.6332527,62.63882 C59.078664,62.0884063 59.0811835,61.1935091 59.63888,60.6400109 L63.7470117,56.5628059 L59.6130739,52.459989 C59.0553774,51.9064909 59.0528579,51.0115936 59.6074465,50.46118 C60.1620352,49.9107663 61.0637206,49.9132668 61.6214171,50.466765 L66.7796818,55.5861974 C67.3287985,56.1311802 67.3312792,57.0123099 66.7852226,57.5542556 L65.7656022,58.5662001 L65.7553549,58.55603 Z M59.7550777,58.2971777 L57.6634082,60.3649243 C57.0968166,60.9250358 56.1832773,60.9300649 55.6229611,60.3761573 C55.0626449,59.8222496 55.0677323,58.9191586 55.6343239,58.3590471 L57.7259935,56.2913006 L55.6282944,54.2175933 C55.0617027,53.6574818 55.0566153,52.7543909 55.6169315,52.2004832 C56.1772476,51.6465755 57.090787,51.6516047 57.6573787,52.2117161 L60.7782948,55.2969375 C61.3361696,55.8484319 61.3411787,56.7376292 60.7894829,57.2830152 L59.7593323,58.3013836 L59.7550777,58.2971777 Z" id="Arrow" fill="#FFFFFF" fill-rule="nonzero" mask="url(#mask-3)"></path>
                <path d="M18.53,32.83 C18.4659997,32.2139969 18.2440019,31.7680014 17.864,31.492 C17.4839981,31.2159986 16.998003,31.078 16.406,31.078 C16.1659988,31.078 15.9300012,31.1019998 15.698,31.15 C15.4659988,31.1980002 15.2600009,31.2779994 15.08,31.39 C14.8999991,31.5020006 14.7560005,31.6519991 14.648,31.84 C14.5399995,32.0280009 14.486,32.2619986 14.486,32.542 C14.486,32.8060013 14.5639992,33.0199992 14.72,33.184 C14.8760008,33.3480008 15.0839987,33.4819995 15.344,33.586 C15.6040013,33.6900005 15.8979984,33.7759997 16.226,33.844 C16.5540016,33.9120003 16.8879983,33.9859996 17.228,34.066 C17.5680017,34.1460004 17.9019984,34.2399995 18.23,34.348 C18.5580016,34.4560005 18.8519987,34.6019991 19.112,34.786 C19.3720013,34.9700009 19.5799992,35.2019986 19.736,35.482 C19.8920008,35.7620014 19.97,36.1139979 19.97,36.538 C19.97,36.9940023 19.868001,37.3839984 19.664,37.708 C19.459999,38.0320016 19.1980016,38.295999 18.878,38.5 C18.5579984,38.704001 18.200002,38.8519995 17.804,38.944 C17.407998,39.0360005 17.014002,39.082 16.622,39.082 C16.1419976,39.082 15.6880021,39.0220006 15.26,38.902 C14.8319979,38.7819994 14.4560016,38.6000012 14.132,38.356 C13.8079984,38.1119988 13.5520009,37.8000019 13.364,37.42 C13.1759991,37.0399981 13.082,36.5900026 13.082,36.07 L14.162,36.07 C14.162,36.4300018 14.2319993,36.7399987 14.372,37 C14.5120007,37.2600013 14.6959989,37.4739992 14.924,37.642 C15.1520011,37.8100008 15.4179985,37.9339996 15.722,38.014 C16.0260015,38.0940004 16.3379984,38.134 16.658,38.134 C16.9140013,38.134 17.1719987,38.1100002 17.432,38.062 C17.6920013,38.0139998 17.925999,37.9320006 18.134,37.816 C18.342001,37.6999994 18.5099994,37.542001 18.638,37.342 C18.7660006,37.141999 18.83,36.8860016 18.83,36.574 C18.83,36.2779985 18.7520008,36.0380009 18.596,35.854 C18.4399992,35.6699991 18.2320013,35.5200006 17.972,35.404 C17.7119987,35.2879994 17.4180016,35.1940004 17.09,35.122 C16.7619984,35.0499996 16.4280017,34.9760004 16.088,34.9 C15.7479983,34.8239996 15.4140016,34.7360005 15.086,34.636 C14.7579984,34.5359995 14.4640013,34.4040008 14.204,34.24 C13.9439987,34.0759992 13.7360008,33.8640013 13.58,33.604 C13.4239992,33.3439987 13.346,33.018002 13.346,32.626 C13.346,32.1939978 13.4339991,31.8200016 13.61,31.504 C13.7860009,31.1879984 14.0199985,30.928001 14.312,30.724 C14.6040015,30.519999 14.9359981,30.3680005 15.308,30.268 C15.6800019,30.1679995 16.061998,30.118 16.454,30.118 C16.8940022,30.118 17.3019981,30.1699995 17.678,30.274 C18.0540019,30.3780005 18.3839986,30.5419989 18.668,30.766 C18.9520014,30.9900011 19.1759992,31.2719983 19.34,31.612 C19.5040008,31.9520017 19.5939999,32.3579976 19.61,32.83 L18.53,32.83 Z M25.274,35.194 C25.2579999,34.9539988 25.2040005,34.7260011 25.112,34.51 C25.0199995,34.2939989 24.8960008,34.1080008 24.74,33.952 C24.5839992,33.7959992 24.4000011,33.6720005 24.188,33.58 C23.9759989,33.4879995 23.7420013,33.442 23.486,33.442 C23.2219987,33.442 22.9840011,33.4879995 22.772,33.58 C22.5599989,33.6720005 22.3780008,33.7979992 22.226,33.958 C22.0739992,34.1180008 21.9540004,34.3039989 21.866,34.516 C21.7779996,34.7280011 21.7260001,34.9539988 21.71,35.194 L25.274,35.194 Z M26.258,36.922 C26.1219993,37.6180035 25.8220023,38.1419982 25.358,38.494 C24.8939977,38.8460018 24.3100035,39.022 23.606,39.022 C23.1099975,39.022 22.6800018,38.9420008 22.316,38.782 C21.9519982,38.6219992 21.6460012,38.3980014 21.398,38.11 C21.1499988,37.8219986 20.9640006,37.478002 20.84,37.078 C20.7159994,36.677998 20.6460001,36.2420024 20.63,35.77 C20.63,35.2979976 20.7019993,34.866002 20.846,34.474 C20.9900007,34.081998 21.1919987,33.7420014 21.452,33.454 C21.7120013,33.1659986 22.0199982,32.9420008 22.376,32.782 C22.7320018,32.6219992 23.1219979,32.542 23.546,32.542 C24.0980028,32.542 24.5559982,32.6559989 24.92,32.884 C25.2840018,33.1120011 25.5759989,33.4019982 25.796,33.754 C26.0160011,34.1060018 26.1679996,34.4899979 26.252,34.906 C26.3360004,35.3220021 26.3700001,35.7179981 26.354,36.094 L21.71,36.094 C21.702,36.3660014 21.7339996,36.6239988 21.806,36.868 C21.8780004,37.1120012 21.9939992,37.3279991 22.154,37.516 C22.3140008,37.7040009 22.5179988,37.8539994 22.766,37.966 C23.0140012,38.0780006 23.3059983,38.134 23.642,38.134 C24.0740022,38.134 24.4279986,38.034001 24.704,37.834 C24.9800014,37.633999 25.1619996,37.330002 25.25,36.922 L26.258,36.922 Z M27.23,32.686 L28.25,32.686 L28.25,33.526 L28.274,33.526 C28.4420008,33.1819983 28.7059982,32.9320008 29.066,32.776 C29.4260018,32.6199992 29.8219978,32.542 30.254,32.542 C30.7340024,32.542 31.1519982,32.6299991 31.508,32.806 C31.8640018,32.9820009 32.1599988,33.2199985 32.396,33.52 C32.6320012,33.8200015 32.8099994,34.165998 32.93,34.558 C33.0500006,34.950002 33.11,35.3659978 33.11,35.806 C33.11,36.2460022 33.0520006,36.661998 32.936,37.054 C32.8199994,37.446002 32.6440012,37.7879985 32.408,38.08 C32.1719988,38.3720015 31.8760018,38.6019992 31.52,38.77 C31.1639982,38.9380008 30.7500024,39.022 30.278,39.022 C30.1259992,39.022 29.9560009,39.0060002 29.768,38.974 C29.5799991,38.9419998 29.3940009,38.8900004 29.21,38.818 C29.0259991,38.7459996 28.8520008,38.6480006 28.688,38.524 C28.5239992,38.3999994 28.3860006,38.2460009 28.274,38.062 L28.25,38.062 L28.25,41.254 L27.23,41.254 L27.23,32.686 Z M32.03,35.734 C32.03,35.4459986 31.9920004,35.1640014 31.916,34.888 C31.8399996,34.6119986 31.7240008,34.3660011 31.568,34.15 C31.4119992,33.9339989 31.2120012,33.7620006 30.968,33.634 C30.7239988,33.5059994 30.4380016,33.442 30.11,33.442 C29.7659983,33.442 29.4740012,33.5099993 29.234,33.646 C28.9939988,33.7820007 28.7980008,33.9599989 28.646,34.18 C28.4939992,34.4000011 28.3840003,34.6499986 28.316,34.93 C28.2479997,35.2100014 28.214,35.4939986 28.214,35.782 C28.214,36.0860015 28.2499996,36.3799986 28.322,36.664 C28.3940004,36.9480014 28.5079992,37.1979989 28.664,37.414 C28.8200008,37.6300011 29.0219988,37.8039993 29.27,37.936 C29.5180012,38.0680007 29.8179982,38.134 30.17,38.134 C30.5220018,38.134 30.8159988,38.0660007 31.052,37.93 C31.2880012,37.7939993 31.4779993,37.6140011 31.622,37.39 C31.7660007,37.1659989 31.8699997,36.9100014 31.934,36.622 C31.9980003,36.3339986 32.03,36.0380015 32.03,35.734 Z M35.51,32.686 L36.746,32.686 L36.746,33.586 L35.51,33.586 L35.51,37.438 C35.51,37.5580006 35.5199999,37.6539996 35.54,37.726 C35.5600001,37.7980004 35.5979997,37.8539998 35.654,37.894 C35.7100003,37.9340002 35.7879995,37.9599999 35.888,37.972 C35.9880005,37.9840001 36.1179992,37.99 36.278,37.99 L36.746,37.99 L36.746,38.89 L35.966,38.89 C35.7019987,38.89 35.4760009,38.8720002 35.288,38.836 C35.0999991,38.7999998 34.9480006,38.7340005 34.832,38.638 C34.7159994,38.5419995 34.6300003,38.4060009 34.574,38.23 C34.5179997,38.0539991 34.49,37.8220014 34.49,37.534 L34.49,33.586 L33.434,33.586 L33.434,32.686 L34.49,32.686 L34.49,30.826 L35.51,30.826 L35.51,32.686 Z M40.538,33.394 C40.5139999,32.9619978 40.5579994,32.5620018 40.67,32.194 C40.7820006,31.8259982 40.9559988,31.5080013 41.192,31.24 C41.4280012,30.9719987 41.7219982,30.7620008 42.074,30.61 C42.4260018,30.4579992 42.8259978,30.382 43.274,30.382 C43.6420018,30.382 43.9879984,30.4359995 44.312,30.544 C44.6360016,30.6520005 44.9179988,30.807999 45.158,31.012 C45.3980012,31.216001 45.5879993,31.4699985 45.728,31.774 C45.8680007,32.0780015 45.938,32.429998 45.938,32.83 C45.938,33.2060019 45.8800006,33.5379986 45.764,33.826 C45.6479994,34.1140014 45.494001,34.3719989 45.302,34.6 C45.109999,34.8280011 44.8900012,35.0339991 44.642,35.218 C44.3939988,35.4020009 44.1380013,35.5779992 43.874,35.746 C43.6099987,35.9060008 43.3460013,36.0639992 43.082,36.22 C42.8179987,36.3760008 42.5760011,36.5419991 42.356,36.718 C42.1359989,36.8940009 41.9480008,37.083999 41.792,37.288 C41.6359992,37.492001 41.5340002,37.7259987 41.486,37.99 L45.854,37.99 L45.854,38.89 L40.298,38.89 C40.3380002,38.3859975 40.4279993,37.9560018 40.568,37.6 C40.7080007,37.2439982 40.8859989,36.9340013 41.102,36.67 C41.3180011,36.4059987 41.5619986,36.174001 41.834,35.974 C42.1060014,35.773999 42.3899985,35.5860009 42.686,35.41 C43.0460018,35.1859989 43.3619986,34.9800009 43.634,34.792 C43.9060014,34.6039991 44.1319991,34.414001 44.312,34.222 C44.4920009,34.029999 44.6279995,33.8220011 44.72,33.598 C44.8120005,33.3739989 44.858,33.1140015 44.858,32.818 C44.858,32.5859988 44.8140004,32.3760009 44.726,32.188 C44.6379996,31.9999991 44.5200007,31.8380007 44.372,31.702 C44.2239993,31.5659993 44.050001,31.4620004 43.85,31.39 C43.649999,31.3179996 43.4380011,31.282 43.214,31.282 C42.9179985,31.282 42.6640011,31.3439994 42.452,31.468 C42.2399989,31.5920006 42.0660007,31.753999 41.93,31.954 C41.7939993,32.154001 41.6960003,32.3799987 41.636,32.632 C41.5759997,32.8840013 41.55,33.1379987 41.558,33.394 L40.538,33.394 Z M48.074,36.838 C48.1140002,37.2540021 48.2819985,37.5739989 48.578,37.798 C48.8740015,38.0220011 49.225998,38.134 49.634,38.134 C50.2580031,38.134 50.7259984,37.8640027 51.038,37.324 C51.3500016,36.7839973 51.5219998,35.9580056 51.554,34.846 L51.53,34.822 C51.337999,35.1820018 51.0660018,35.4679989 50.714,35.68 C50.3619982,35.8920011 49.9780021,35.998 49.562,35.998 C49.1299978,35.998 48.7460017,35.9280007 48.41,35.788 C48.0739983,35.6479993 47.7920011,35.4540012 47.564,35.206 C47.3359989,34.9579988 47.1640006,34.6580018 47.048,34.306 C46.9319994,33.9539982 46.874,33.5700021 46.874,33.154 C46.874,32.745998 46.9419993,32.3720017 47.078,32.032 C47.2140007,31.6919983 47.4059988,31.4000012 47.654,31.156 C47.9020012,30.9119988 48.1979983,30.7220007 48.542,30.586 C48.8860017,30.4499993 49.261998,30.382 49.67,30.382 C50.070002,30.382 50.4459982,30.4439994 50.798,30.568 C51.1500018,30.6920006 51.4579987,30.9059985 51.722,31.21 C51.9860013,31.5140015 52.1959992,31.9279974 52.352,32.452 C52.5080008,32.9760026 52.586,33.641996 52.586,34.45 C52.586,35.9220074 52.3520023,37.0519961 51.884,37.84 C51.4159977,38.6280039 50.6660052,39.022 49.634,39.022 C48.9219964,39.022 48.3300024,38.8420018 47.858,38.482 C47.3859976,38.1219982 47.1180003,37.5740037 47.054,36.838 L48.074,36.838 Z M51.374,33.226 C51.374,32.9619987 51.3360004,32.7140012 51.26,32.482 C51.1839996,32.2499988 51.0720007,32.0440009 50.924,31.864 C50.7759993,31.6839991 50.5940011,31.5420005 50.378,31.438 C50.1619989,31.3339995 49.9100014,31.282 49.622,31.282 C49.3179985,31.282 49.0600011,31.3379994 48.848,31.45 C48.6359989,31.5620006 48.4640007,31.7119991 48.332,31.9 C48.1999993,32.0880009 48.1040003,32.3019988 48.044,32.542 C47.9839997,32.7820012 47.954,33.0339987 47.954,33.298 C47.954,33.5300012 47.9959996,33.7539989 48.08,33.97 C48.1640004,34.1860011 48.2799993,34.3779992 48.428,34.546 C48.5760007,34.7140008 48.751999,34.8479995 48.956,34.948 C49.160001,35.0480005 49.3859988,35.098 49.634,35.098 C49.8980013,35.098 50.1379989,35.0480005 50.354,34.948 C50.5700011,34.8479995 50.7539992,34.7120009 50.906,34.54 C51.0580008,34.3679991 51.1739996,34.1680011 51.254,33.94 C51.3340004,33.7119989 51.374,33.4740012 51.374,33.226 Z M53.918,37.558 L55.25,37.558 L55.25,38.77 C55.25,39.2260023 55.146001,39.6179984 54.938,39.946 C54.729999,40.2740016 54.3940023,40.5059993 53.93,40.642 L53.93,40.042 C54.0660007,39.9939998 54.1799995,39.9240005 54.272,39.832 C54.3640005,39.7399995 54.4379997,39.6400005 54.494,39.532 C54.5500003,39.4239995 54.5879999,39.3140006 54.608,39.202 C54.6280001,39.0899994 54.634,38.9860005 54.626,38.89 L53.918,38.89 L53.918,37.558 Z M63.434,38.89 L62.414,38.89 L62.414,32.794 L60.206,32.794 L60.206,31.978 C60.4940014,31.978 60.7739986,31.9560002 61.046,31.912 C61.3180014,31.8679998 61.5639989,31.7860006 61.784,31.666 C62.0040011,31.5459994 62.1899992,31.382001 62.342,31.174 C62.4940008,30.965999 62.5979997,30.7020016 62.654,30.382 L63.434,30.382 L63.434,38.89 Z M69.89,38.89 L68.87,38.89 L68.87,32.794 L66.662,32.794 L66.662,31.978 C66.9500014,31.978 67.2299986,31.9560002 67.502,31.912 C67.7740014,31.8679998 68.0199989,31.7860006 68.24,31.666 C68.4600011,31.5459994 68.6459992,31.382001 68.798,31.174 C68.9500008,30.965999 69.0539997,30.7020016 69.11,30.382 L69.89,30.382 L69.89,38.89 Z M74.402,34.018 L73.07,34.018 L73.07,32.686 L74.402,32.686 L74.402,34.018 Z M73.07,37.558 L74.402,37.558 L74.402,38.89 L73.07,38.89 L73.07,37.558 Z M77.81,34.03 C77.8500002,34.038 77.8859998,34.042 77.918,34.042 L78.254,34.042 C78.4700011,34.042 78.675999,34.0120003 78.872,33.952 C79.068001,33.8919997 79.2399993,33.8040006 79.388,33.688 C79.5360007,33.5719994 79.6539996,33.4260009 79.742,33.25 C79.8300004,33.0739991 79.874,32.8740011 79.874,32.65 C79.874,32.1939977 79.7300014,31.8520011 79.442,31.624 C79.1539986,31.3959989 78.7940022,31.282 78.362,31.282 C78.0899986,31.282 77.852001,31.3319995 77.648,31.432 C77.443999,31.5320005 77.2760007,31.6659992 77.144,31.834 C77.0119993,32.0020008 76.9140003,32.1979989 76.85,32.422 C76.7859997,32.6460011 76.754,32.8819988 76.754,33.13 L75.734,33.13 C75.7500001,32.721998 75.8159994,32.3500017 75.932,32.014 C76.0480006,31.6779983 76.2139989,31.3900012 76.43,31.15 C76.6460011,30.9099988 76.9159984,30.7220007 77.24,30.586 C77.5640016,30.4499993 77.9379979,30.382 78.362,30.382 C78.7300018,30.382 79.0719984,30.4279995 79.388,30.52 C79.7040016,30.6120005 79.9779988,30.7499991 80.21,30.934 C80.4420012,31.1180009 80.6239993,31.3539986 80.756,31.642 C80.8880007,31.9300014 80.954,32.269998 80.954,32.662 C80.954,33.0460019 80.8420011,33.3859985 80.618,33.682 C80.3939989,33.9780015 80.1140017,34.2019992 79.778,34.354 L79.778,34.378 C80.2980026,34.4900006 80.6839987,34.7339981 80.936,35.11 C81.1880013,35.4860019 81.314,35.9299974 81.314,36.442 C81.314,36.8660021 81.2360008,37.2399984 81.08,37.564 C80.9239992,37.8880016 80.7140013,38.1579989 80.45,38.374 C80.1859987,38.5900011 79.8760018,38.7519995 79.52,38.86 C79.1639982,38.9680005 78.786002,39.022 78.386,39.022 C77.9539978,39.022 77.5620018,38.9620006 77.21,38.842 C76.8579982,38.7219994 76.5580012,38.5440012 76.31,38.308 C76.0619988,38.0719988 75.8720007,37.7820017 75.74,37.438 C75.6079993,37.0939983 75.546,36.7020022 75.554,36.262 L76.574,36.262 C76.5900001,36.8140028 76.7499985,37.2639983 77.054,37.612 C77.3580015,37.9600017 77.8019971,38.134 78.386,38.134 C78.6340012,38.134 78.8699989,38.0960004 79.094,38.02 C79.3180011,37.9439996 79.5139992,37.8360007 79.682,37.696 C79.8500008,37.5559993 79.9839995,37.384001 80.084,37.18 C80.1840005,36.975999 80.234,36.7460013 80.234,36.49 C80.234,36.2259987 80.1860005,35.992001 80.09,35.788 C79.9939995,35.583999 79.8660008,35.4120007 79.706,35.272 C79.5459992,35.1319993 79.3560011,35.0280003 79.136,34.96 C78.9159989,34.8919997 78.6780013,34.858 78.422,34.858 C78.2059989,34.858 78.002001,34.8699999 77.81,34.894 L77.81,34.03 Z M87.29,31.426 L83.858,31.426 L83.402,33.874 L83.426,33.898 C83.6100009,33.689999 83.8479985,33.5360005 84.14,33.436 C84.4320015,33.3359995 84.7219986,33.286 85.01,33.286 C85.3860019,33.286 85.7419983,33.3459994 86.078,33.466 C86.4140017,33.5860006 86.7059988,33.7679988 86.954,34.012 C87.2020012,34.2560012 87.3979993,34.5599982 87.542,34.924 C87.6860007,35.2880018 87.758,35.7139976 87.758,36.202 C87.758,36.5620018 87.6960006,36.9119983 87.572,37.252 C87.4479994,37.5920017 87.2620012,37.8939987 87.014,38.158 C86.7659988,38.4220013 86.4560019,38.6319992 86.084,38.788 C85.7119981,38.9440008 85.2780025,39.022 84.782,39.022 C84.4139982,39.022 84.0680016,38.9680005 83.744,38.86 C83.4199984,38.7519995 83.1340012,38.596001 82.886,38.392 C82.6379988,38.187999 82.4420007,37.9340015 82.298,37.63 C82.1539993,37.3259985 82.078,36.9820019 82.07,36.598 L83.09,36.598 C83.1060001,36.8140011 83.1599995,37.0159991 83.252,37.204 C83.3440005,37.3920009 83.4679992,37.5559993 83.624,37.696 C83.7800008,37.8360007 83.9639989,37.9439996 84.176,38.02 C84.3880011,38.0960004 84.6219987,38.134 84.878,38.134 C85.1180012,38.134 85.3479989,38.0920004 85.568,38.008 C85.7880011,37.9239996 85.9799992,37.7980008 86.144,37.63 C86.3080008,37.4619992 86.4379995,37.2520013 86.534,37 C86.6300005,36.7479987 86.678,36.4540017 86.678,36.118 C86.678,35.8379986 86.6320005,35.5800012 86.54,35.344 C86.4479995,35.1079988 86.3180008,34.9040009 86.15,34.732 C85.9819992,34.5599991 85.7800012,34.4260005 85.544,34.33 C85.3079988,34.2339995 85.0460014,34.186 84.758,34.186 C84.4219983,34.186 84.1240013,34.2599993 83.864,34.408 C83.6039987,34.5560007 83.374001,34.7499988 83.174,34.99 L82.298,34.942 L83.09,30.526 L87.29,30.526 L87.29,31.426 Z M93.638,35.35 L96.542,35.35 L95.114,31.354 L95.09,31.354 L93.638,35.35 Z M94.49,30.322 L95.75,30.322 L99.098,38.89 L97.838,38.89 L96.902,36.31 L93.278,36.31 L92.318,38.89 L91.154,38.89 L94.49,30.322 Z M99.746,30.322 L101.306,30.322 L104.006,37.522 L106.718,30.322 L108.278,30.322 L108.278,38.89 L107.198,38.89 L107.198,31.762 L107.174,31.762 L104.498,38.89 L103.526,38.89 L100.85,31.762 L100.826,31.762 L100.826,38.89 L99.746,38.89 L99.746,30.322 Z" id="Sept-29,-11:35-AM" fill="#FFFFFF" mask="url(#mask-3)"></path>
                <path d="M39.2098092,12.954 L41.4078092,12.954 L41.4078092,21.102 L46.2798092,21.102 L46.2798092,22.95 L39.2098092,22.95 L39.2098092,12.954 Z M48.8418092,19.338 C48.8418092,19.6273348 48.8698089,19.9096653 48.9258092,20.185 C48.9818095,20.4603347 49.0774752,20.7076656 49.2128092,20.927 C49.3481432,21.1463344 49.5278081,21.3213327 49.7518092,21.452 C49.9758103,21.5826673 50.2558075,21.648 50.5918092,21.648 C50.9278109,21.648 51.2101414,21.5826673 51.4388092,21.452 C51.667477,21.3213327 51.8494752,21.1463344 51.9848092,20.927 C52.1201432,20.7076656 52.2158089,20.4603347 52.2718092,20.185 C52.3278095,19.9096653 52.3558092,19.6273348 52.3558092,19.338 C52.3558092,19.0486652 52.3278095,18.7640014 52.2718092,18.484 C52.2158089,18.2039986 52.1201432,17.9566677 51.9848092,17.742 C51.8494752,17.5273323 51.667477,17.352334 51.4388092,17.217 C51.2101414,17.081666 50.9278109,17.014 50.5918092,17.014 C50.2558075,17.014 49.9758103,17.081666 49.7518092,17.217 C49.5278081,17.352334 49.3481432,17.5273323 49.2128092,17.742 C49.0774752,17.9566677 48.9818095,18.2039986 48.9258092,18.484 C48.8698089,18.7640014 48.8418092,19.0486652 48.8418092,19.338 Z M46.8538092,19.338 C46.8538092,18.7593304 46.942475,18.2343357 47.1198092,17.763 C47.2971434,17.2916643 47.5491409,16.890335 47.8758092,16.559 C48.2024775,16.227665 48.5944736,15.9710009 49.0518092,15.789 C49.5091448,15.6069991 50.022473,15.516 50.5918092,15.516 C51.1611454,15.516 51.6768069,15.6069991 52.1388092,15.789 C52.6008115,15.9710009 52.9951409,16.227665 53.3218092,16.559 C53.6484775,16.890335 53.900475,17.2916643 54.0778092,17.763 C54.2551434,18.2343357 54.3438092,18.7593304 54.3438092,19.338 C54.3438092,19.9166696 54.2551434,20.439331 54.0778092,20.906 C53.900475,21.372669 53.6484775,21.771665 53.3218092,22.103 C52.9951409,22.434335 52.6008115,22.6886658 52.1388092,22.866 C51.6768069,23.0433342 51.1611454,23.132 50.5918092,23.132 C50.022473,23.132 49.5091448,23.0433342 49.0518092,22.866 C48.5944736,22.6886658 48.2024775,22.434335 47.8758092,22.103 C47.5491409,21.771665 47.2971434,21.372669 47.1198092,20.906 C46.942475,20.439331 46.8538092,19.9166696 46.8538092,19.338 Z M60.3358092,18.26 C60.2051419,17.4293292 59.7151468,17.014 58.8658092,17.014 C58.5484743,17.014 58.282477,17.0863326 58.0678092,17.231 C57.8531415,17.3756674 57.6781432,17.5623322 57.5428092,17.791 C57.4074752,18.0196678 57.3118095,18.2716653 57.2558092,18.547 C57.1998089,18.8223347 57.1718092,19.095332 57.1718092,19.366 C57.1718092,19.6273346 57.1998089,19.893332 57.2558092,20.164 C57.3118095,20.434668 57.4028086,20.6796656 57.5288092,20.899 C57.6548098,21.1183344 57.8251415,21.2979993 58.0398092,21.438 C58.254477,21.5780007 58.5158077,21.648 58.8238092,21.648 C59.2998116,21.648 59.6661413,21.5150013 59.9228092,21.249 C60.1794772,20.9829987 60.3404756,20.6260022 60.4058092,20.178 L62.3238092,20.178 C62.1931419,21.1393381 61.8198123,21.8719975 61.2038092,22.376 C60.5878061,22.8800025 59.7991474,23.132 58.8378092,23.132 C58.2964732,23.132 57.7994781,23.0410009 57.3468092,22.859 C56.8941403,22.6769991 56.5091441,22.4226683 56.1918092,22.096 C55.8744743,21.7693317 55.6271434,21.3796689 55.4498092,20.927 C55.272475,20.4743311 55.1838092,19.977336 55.1838092,19.436 C55.1838092,18.8759972 55.2654751,18.3556691 55.4288092,17.875 C55.5921434,17.3943309 55.8324743,16.9790018 56.1498092,16.629 C56.4671441,16.2789983 56.8544736,16.006001 57.3118092,15.81 C57.7691448,15.613999 58.2918063,15.516 58.8798092,15.516 C59.3091447,15.516 59.7221406,15.5719994 60.1188092,15.684 C60.5154779,15.7960006 60.870141,15.9663322 61.1828092,16.195 C61.4954774,16.4236678 61.7498082,16.7083316 61.9458092,17.049 C62.1418102,17.3896684 62.2538091,17.793331 62.2818092,18.26 L60.3358092,18.26 Z M63.4018092,12.954 L65.3898092,12.954 L65.3898092,18.316 L67.8958092,15.712 L70.2478092,15.712 L67.5178092,18.372 L70.5558092,22.95 L68.1478092,22.95 L66.1598092,19.716 L65.3898092,20.458 L65.3898092,22.95 L63.4018092,22.95 L63.4018092,12.954 Z M75.9038092,18.554 C75.8104754,18.0499975 75.6448104,17.6673346 75.4068092,17.406 C75.168808,17.1446654 74.807145,17.014 74.3218092,17.014 C74.0044743,17.014 73.7408103,17.0676661 73.5308092,17.175 C73.3208082,17.2823339 73.1528098,17.4153325 73.0268092,17.574 C72.9008086,17.7326675 72.8121428,17.9006658 72.7608092,18.078 C72.7094756,18.2553342 72.6791426,18.4139993 72.6698092,18.554 L75.9038092,18.554 Z M72.6698092,19.814 C72.6978094,20.4580032 72.8611411,20.9246652 73.1598092,21.214 C73.4584774,21.5033348 73.8878064,21.648 74.4478092,21.648 C74.8491446,21.648 75.1944744,21.5476677 75.4838092,21.347 C75.773144,21.1463323 75.9504756,20.9340011 76.0158092,20.71 L77.7658092,20.71 C77.4858078,21.5780043 77.0564788,22.1986648 76.4778092,22.572 C75.8991397,22.9453352 75.1991467,23.132 74.3778092,23.132 C73.808473,23.132 73.2951448,23.0410009 72.8378092,22.859 C72.3804736,22.6769991 71.9931441,22.4180017 71.6758092,22.082 C71.3584743,21.7459983 71.1134767,21.344669 70.9408092,20.878 C70.7681417,20.411331 70.6818092,19.8980028 70.6818092,19.338 C70.6818092,18.796664 70.770475,18.292669 70.9478092,17.826 C71.1251434,17.359331 71.3771409,16.9556684 71.7038092,16.615 C72.0304775,16.2743316 72.4201403,16.006001 72.8728092,15.81 C73.3254781,15.613999 73.8271398,15.516 74.3778092,15.516 C74.9938123,15.516 75.5304736,15.6349988 75.9878092,15.873 C76.4451448,16.1110012 76.8208077,16.4306647 77.1148092,16.832 C77.4088107,17.2333353 77.6211419,17.6906641 77.7518092,18.204 C77.8824765,18.7173359 77.9291427,19.2539972 77.8918092,19.814 L72.6698092,19.814 Z M78.8438092,15.712 L80.7338092,15.712 L80.7338092,17.056 L80.7618092,17.056 C80.855143,16.8319989 80.9811418,16.6243343 81.1398092,16.433 C81.2984767,16.2416657 81.4804749,16.078334 81.6858092,15.943 C81.8911436,15.807666 82.1104747,15.702667 82.3438092,15.628 C82.5771437,15.553333 82.819808,15.516 83.0718092,15.516 C83.2024765,15.516 83.3471418,15.5393331 83.5058092,15.586 L83.5058092,17.434 C83.4124754,17.4153332 83.3004765,17.3990001 83.1698092,17.385 C83.0391419,17.3709999 82.9131432,17.364 82.7918092,17.364 C82.4278074,17.364 82.1198105,17.4246661 81.8678092,17.546 C81.615808,17.6673339 81.41281,17.832999 81.2588092,18.043 C81.1048084,18.2530011 80.9951429,18.4979986 80.9298092,18.778 C80.8644756,19.0580014 80.8318092,19.3613317 80.8318092,19.688 L80.8318092,22.95 L78.8438092,22.95 L78.8438092,15.712 Z" id="Locker" fill="#FFFFFF" mask="url(#mask-3)"></path>
            </g>
        </g>
    </g>
</svg>